<svg width="443" height="530" viewBox="0 0 443 530" fill="none" xmlns="http://www.w3.org/2000/svg">
<path d="M122.69 502.249H39.3594V27.7539H193.555H208.518H403.639V287.32V301.763V502.249H273.157H263.748H182.282H172.729H132.527H122.69ZM122.69 502.249C120.67 501.463 118.814 500.719 116.989 499.537C115.041 498.272 107.271 492.15 106.956 490.2C106.772 489.064 105.888 488.438 105.198 487.555C104.731 486.954 104.48 486.384 104.624 485.622C104.995 483.655 107.13 482.487 108.687 481.447C106.789 480.957 105.178 480.471 103.511 479.41C99.7043 476.984 98.4965 473.414 97.6015 469.298L94.4624 475.288C96.689 477.193 98.7673 478.952 99.9544 481.656C96.8615 483.985 93.2042 485.156 89.3529 485.626C77.9453 487.013 64.1531 483.064 54.3542 477.439C51.503 475.806 48.8841 473.842 46.2746 471.867C46.5249 470.543 47.5931 469.01 48.2749 467.835L54.7375 457.319C53.2015 456.701 51.5246 456.284 50.0977 455.446L61.4317 386.795L65.8487 364.513L66.9305 359.457C67.0621 358.825 67.3832 357.964 67.3561 357.329C67.2956 355.908 66.9113 354.387 66.6835 352.977L65.2738 344.51L59.0038 310.135C56.4949 294.69 55.0446 278.982 54.583 263.349L54.6421 233.794L54.4121 233.662C47.6501 229.735 42.0325 224.913 40.0513 217.182C39.3855 214.584 39.5409 211.401 40.1939 208.821C41.26 204.609 43.228 200.568 45.0106 196.612L49.1721 186.676L55.4348 170.735C56.5775 167.884 57.5413 164.934 59.1617 162.3C58.37 161.284 58.0434 159.998 57.8437 158.758C57.3651 155.788 57.4593 152.857 57.6628 149.874C58.047 144.242 58.8719 138.968 62.4214 134.335C65.145 130.78 69.0143 127.742 73.6493 127.13C77.3822 126.637 81.2615 126.717 84.7336 128.311L84.9805 128.426C86.3259 127.524 87.7247 126.511 89.2387 125.896C90.8598 125.238 92.8911 124.929 94.5467 125.648C97.0853 126.75 97.8583 128.945 98.7683 131.316C99.6979 130.988 100.666 131.055 101.642 131.054C101.747 130.967 101.826 130.916 101.891 130.784C102.138 130.286 102.997 127.881 102.943 127.41C102.943 127.408 102.4 126.986 102.372 126.963C96.2795 122.115 90.9669 114.934 88.3735 107.693C87.1078 107.561 85.7225 107.627 84.5023 107.271C82.0107 106.544 79.6063 104.329 78.4483 102.091C77.1847 99.6498 76.5131 96.4343 77.2836 93.7598C77.4402 93.2158 78.0915 92.1232 78.0947 91.6418C78.1065 89.8828 77.1548 87.5653 76.9097 85.7264C75.8244 77.5766 75.8585 69.7163 78.502 61.8119C81.1854 53.7879 87.4411 44.8412 96.6445 43.5794C97.7747 43.4244 98.9963 43.3189 100.134 43.38C101.017 43.4275 102.699 43.8472 103.458 43.6495C103.822 43.5547 104.736 42.6773 105.091 42.4272C106.016 41.7761 107.02 41.2328 108.034 40.7261C115.481 37.0045 124.876 36.5885 132.797 39.1421C141.605 41.9814 148.348 47.9841 152.467 56.0282C158.212 67.2475 157.995 80.0916 154.059 91.7888L154.62 91.9609C155.432 92.2132 156.069 92.499 156.701 93.0628C158.205 94.407 158.777 96.5344 158.864 98.4623C158.995 101.337 157.975 104.395 155.933 106.489C153.984 108.488 151.661 109.513 148.868 109.568C145.966 114.937 143.225 120.012 138.631 124.243C136.542 126.166 134.191 127.814 131.639 129.098C130.831 129.505 128.682 130.255 128.253 130.97C128.456 131.264 128.609 131.416 128.909 131.63C130.3 132.622 130.99 132.134 132.424 131.482L145.672 125.09C156.578 120.378 168.02 117.587 179.784 115.899L175.914 108.575L172.101 108.601C169.636 108.393 167.324 106.825 165.776 105.02C163.402 102.254 162.342 98.0699 162.743 94.5249C163.059 91.7221 164.679 89.172 166.909 87.4523L164.004 81.6868C160.301 73.8136 156.259 63.567 159.602 54.9738C160.709 52.1288 162.697 49.5494 165.203 47.7367C167.461 46.1032 170.049 44.9228 172.218 43.1657C174.343 41.4449 176.051 39.324 177.96 37.3921C180.632 34.6867 183.644 32.363 187.047 30.5905C189.144 29.4985 191.383 28.6875 193.555 27.7539H39.3594V502.249H122.69ZM208.518 27.7539C212.035 29.278 215.546 30.6732 218.226 33.4798C219.037 34.3284 219.769 35.2647 220.405 36.2445C220.581 36.5163 221.222 37.792 221.436 37.9126C221.796 38.1147 223.728 37.9826 224.324 38.098C230.06 39.209 234.024 42.8367 236.074 48.0856C239.398 56.5966 238.108 66.4602 239.003 75.3713L239.321 75.4749C241.904 76.3331 243.483 78.0552 244.649 80.4194C245.242 81.6228 245.567 82.812 245.796 84.1204C246.375 87.4356 245.539 90.8509 244.511 93.9857C248.534 95.7892 251.652 99.0355 253.719 102.832C253.933 103.225 254.489 104.435 254.566 104.444C255.166 104.52 256.668 103.93 257.386 103.83C261.159 103.306 265.017 104.39 268.281 106.202C266.757 91.9727 268.324 77.6659 277.876 66.1915C281.903 61.3542 287.648 57.5201 294.122 56.7983C295.022 56.6981 296.631 56.993 297.397 56.7515C298.093 56.5321 299.243 55.4819 299.899 55.0538C301.229 54.185 302.632 53.4416 304.121 52.8654C314.351 48.9047 326.103 51.9905 334.386 58.6256C345.886 67.8378 350.384 82.3559 351.693 96.3506C352.082 100.505 352.16 104.611 352.15 108.778C352.142 111.785 351.826 115.215 352.421 118.17C352.773 119.915 353.626 121.92 355.062 123.074C356.306 124.074 357.814 124.515 359.424 124.327C360.103 124.248 360.823 124.151 361.422 123.808C362.57 123.151 363.291 121.79 364.732 122.516C366.625 125.104 366.502 129.698 365.991 132.694L365.743 134.446L366.394 135.09C369.172 134.535 370.511 132.987 373.478 134.805C374.694 135.55 375.542 137.047 375.841 138.406C376.009 139.165 376.06 142.262 376.366 142.54L376.627 142.575C378.023 142.778 379.002 143.296 379.863 144.408C381.291 146.251 380.881 148.763 380.954 150.934L381.264 150.96C382.669 151.084 383.714 151.376 384.638 152.517C385.549 153.643 386.04 155.374 385.824 156.793C385.69 157.673 385.241 158.831 384.75 159.584L384.885 159.694L385.106 159.881L385.328 160.061C386.599 161.109 387.145 162.368 387.233 163.986C387.319 165.594 386.548 167.074 385.508 168.254C385.392 168.385 384.728 169.014 384.704 169.136C384.605 169.641 386.167 172.255 386.478 172.858L391.084 182.539C396.215 194.371 399.879 206.11 402.181 218.774C403.07 223.663 404.223 229.544 402.775 234.405C402.099 236.667 400.125 238.768 398.467 240.402L396.61 242.182C397.329 244.816 397.926 247.403 397.567 250.15C397.46 250.964 396.934 252.391 397.026 253.145C397.079 253.58 397.485 254.251 397.638 254.691L398.584 257.607C399.744 261.47 400.722 265.467 401.469 269.428L402.914 278.787L403.348 284.485C403.405 285.382 403.333 286.47 403.639 287.32V27.7539H208.518ZM403.639 301.763L403.597 301.948C402.971 304.737 403.141 307.974 402.843 310.844L400.203 334.356L394.472 378.411L390.117 433.205L388.279 465.478C387.225 465.916 385.862 465.502 384.754 465.836L385.889 474.596C378.533 480.453 370.229 484.545 361.05 486.888C356.432 488.063 351.987 488.813 347.205 488.32C344.016 487.993 340.687 487.027 338.31 484.83C337.951 484.499 337.281 483.471 336.922 483.29C336.872 483.265 331.967 484.472 331.305 484.583C325.1 485.626 314.956 485.73 310.698 480.38C309.888 479.362 309.454 478.27 309.689 476.963C310.218 474.008 315.33 470.942 317.849 469.399L326.821 464.821L324.252 449.314C319.977 458.689 314.303 469.768 303.794 473.661C300.268 474.968 294.075 475.343 290.545 473.782C289.059 473.126 287.787 471.071 286.81 469.809C286.369 480.123 285.065 491.949 276.84 499.45L273.157 502.249H403.639V301.763ZM182.282 502.249H263.748L262.726 501.63C256.686 497.799 253.398 490.645 251.974 483.968C250.102 475.187 250.796 465.023 254.083 456.642C255.439 453.183 257.229 450.148 259.298 447.065L241.909 430.574L224.376 448.966C223.392 450.037 221.383 451.709 220.738 452.922C220.038 454.24 219.958 457 219.712 458.533L216.295 481.746C216.079 483.067 215.527 484.096 215.214 485.337C214.91 486.547 214.896 487.969 214.67 489.224C213.054 490.423 211.048 491.042 209.269 491.984C206.242 493.579 203.287 495.314 200.145 496.697C194.364 499.238 188.413 500.75 182.282 502.249ZM306.696 334.557C304.975 337.881 303.929 341.366 302.838 344.921C300.137 353.718 298.567 362.541 297.426 371.64C296.557 378.578 295.916 385.509 295.826 392.503C297.089 392.625 298.659 392.955 299.905 392.802C300.25 390.73 300.949 388.439 302.727 387.105C303.547 386.489 304.653 386.1 305.686 386.26C307.043 386.468 308.16 387.268 308.902 388.373C310.502 390.765 310.649 394.241 309.963 396.942C309.56 398.527 308.523 400.397 307.029 401.2C306.021 401.743 304.912 401.757 303.839 401.392C302.387 400.898 301.213 399.337 300.62 398.002C300.277 397.231 299.991 396.442 299.826 395.614L295.678 395.625C295.301 399.421 295.804 403.436 296.107 407.235L299.175 432.917C300.811 440.252 302.2 447.312 305.237 454.274C310.432 444.983 312.236 433.762 313.617 423.382C315.711 407.652 316.324 392.392 315.281 376.565C314.549 365.449 313.073 354.204 309.86 343.492C308.992 340.598 308.182 337.202 306.696 334.557ZM95.7772 317.151L95.4354 317.932L84.1605 461.651L77.8176 462.224L92.2543 473.602C94.4364 469.889 96.7185 465.982 98.4193 462.05C98.7281 461.338 99.2514 460.625 99.345 459.85L99.0362 459.659C97.0704 458.331 98.8843 453.318 99.5769 451.539C99.8003 450.965 100.389 449.94 100.451 449.373C100.475 449.147 100.155 448.424 100.079 448.181L98.9771 444.604L97.1177 437.099C95.1177 427.838 94.0608 418.362 93.7602 408.907C93.3852 397.112 93.9174 385.095 95.758 373.424L97.4823 363.932C97.8313 362.419 98.6164 360.708 98.7335 359.19C98.8427 357.773 98.5364 356.114 98.4353 354.684L97.9249 346.589L96.5353 325.935C96.3084 323.033 96.3368 320.006 95.7772 317.151ZM150.357 191.661L141.823 198.261C140.438 199.257 138.253 200.237 137.123 201.386C136.361 202.162 133.598 221.308 133.3 223.664L131.91 236.227C133.462 236.228 134.981 236.223 136.522 236.446C137.484 237.425 138.097 238.111 138.468 239.459C138.614 239.986 138.616 240.639 138.849 241.126C139.255 241.976 139.98 242.681 140.336 243.57C140.697 244.472 140.674 245.512 140.854 246.456C141.097 247.723 142.13 249.172 142.818 250.274L149.605 260.556L150.357 191.661ZM267.429 404.006L249.527 422.454L264.926 437.213C265.89 438.162 267.752 440.446 268.912 440.926C269.658 441.235 271.541 441.068 272.436 441.18C273.915 441.36 275.23 441.837 276.579 442.435L272.949 404.197L267.429 404.006ZM232.017 393.817C231.348 397.356 230.497 400.933 230.02 404.496C229.98 404.795 229.914 404.819 230.093 405.073C230.99 406.338 232.731 407.6 233.889 408.685L240.363 415.022C241.416 414.351 242.412 412.988 243.267 412.077L249.042 405.956L260.521 393.817H232.017ZM149.075 309.138C145.419 311.109 141.231 312.441 137.247 313.662L137.188 332.641C137.188 335.864 136.983 339.254 137.317 342.455L137.663 342.466L149.267 336.807L150.109 314.81C150.131 313.569 150.52 310.161 149.907 309.2C149.637 309.174 149.346 309.121 149.075 309.138ZM124.788 359.661C120.918 366.928 119.016 375.428 118.031 383.507C116 400.154 117.431 416.756 121.177 433.091L121.417 433.337L122.064 432.99L124.814 431.443C125.164 429.969 125.957 427.984 126.046 426.538C126.083 425.944 125.237 424.226 125.017 423.59L123.062 417.048C120.216 405.591 119.775 393.72 121.971 382.13C122.447 379.62 123.003 376.617 124.188 374.352C125.461 371.921 124.95 368.98 124.857 366.332L124.788 359.661ZM302.785 329.294C300.274 331.229 298.98 334.265 297.905 337.129C295.091 344.62 293.498 353.139 292.534 361.053L290.548 392.872L293.417 392.767C294.128 378.38 295.728 364.062 298.971 349.998C300.333 344.096 301.923 337.015 305.781 332.169C305.102 331.029 304.468 330.156 303.458 329.275L302.785 329.294ZM125.185 378.331C122.21 390.185 122.471 402.914 125.066 414.803C125.545 416.996 126.016 419.763 127.122 421.71L127.926 418.31L132.971 393.188C129.216 391.182 127.175 387.543 126.011 383.625C125.517 381.967 125.18 380.058 125.185 378.331ZM292.994 395.555L290.751 395.659C289.883 396.789 291.422 421.515 291.729 424.925L292.72 432.604C293.173 435.684 293.873 438.732 294.591 441.764C295.845 447.054 297.319 452.814 301.42 456.722L302.016 457.16C302.527 456.854 302.91 456.607 303.281 456.145C299.225 446.161 297.246 435.385 295.769 424.786C294.478 415.533 293.571 406.164 293.365 396.824C293.352 396.254 293.507 395.896 292.994 395.555ZM356.073 363.584C355.299 372.41 355.521 381.421 355.434 390.278L355.07 426.357L355.391 454.233C355.522 458.244 355.427 462.537 356.049 466.496L356.758 466.239L358.223 465.481C358.592 464.105 358.098 461.786 358.045 460.302L357.664 445.914L356.668 388.005L356.462 372.774C356.448 371.003 356.876 364.967 356.073 363.584ZM132.527 502.249H172.729C167.661 500.99 160.811 499.235 157.153 495.366C156.661 494.844 155.536 494.89 154.838 494.817C152.838 494.605 150.82 494.473 148.866 493.989C146.418 493.381 138.453 499.127 136.126 500.5C134.985 501.171 133.739 501.706 132.527 502.249ZM108.567 389.434C107.544 390.716 107.43 394.085 106.93 395.746C105.509 407.239 107.323 419.541 109.445 430.859C109.98 433.709 110.488 437.359 111.765 439.97L114.357 438.208C111.047 424.293 109.543 410.072 109.796 395.788L110.369 386.691C110.559 384.81 111.101 382.586 110.925 380.729C110.314 382.579 110.033 384.56 109.646 386.465C109.448 387.442 109.336 388.519 108.675 389.312L108.567 389.434ZM178.624 394.95L173.775 423.542L177.342 419.513C178.863 417.924 180.347 416.148 181.993 414.695C183.637 413.242 185.349 405.615 186.063 403.286L178.624 394.95ZM294.02 198.509C291.006 200.583 287.971 203.33 286.29 206.568C288.84 208.676 291.385 210.718 293.708 213.07C296.642 216.04 299.284 219.346 302.057 222.463L305.382 226.548L294.02 198.509ZM318.086 310.296L308.838 312.488L308.886 312.778C309.099 314.148 309.037 315.483 308.977 316.861C310.885 317.779 312.651 318.716 314.285 320.056C315.679 321.415 316.945 322.72 318.098 324.285C318.217 324.448 318.34 324.574 318.492 324.706L318.745 314.221C318.751 313.002 318.946 311.391 318.6 310.233L318.086 310.296ZM125.084 339.531C120.752 346.152 117.784 353.441 115.401 360.917C114.407 364.037 113.312 367.498 112.981 370.748L113.103 370.535C114.864 366.016 116.045 361.729 118.548 357.48C119.911 355.167 121.663 353.061 123.304 350.934C123.76 350.343 124.757 349.324 124.989 348.683C125.169 348.186 125.068 347.038 125.091 346.48L125.084 339.531ZM227.544 418.397L226.01 426.702C225.829 427.72 225.358 429.183 225.485 430.195L227.987 427.692L232.594 423.114L227.544 418.397ZM321.725 421.272L320.136 429.847C319.725 431.811 318.882 434.203 319.031 436.181L319.344 435.872C320.524 434.026 322.116 430.845 322.245 428.638C322.382 426.295 321.849 423.639 321.725 421.272ZM170.795 442.591C169.616 444.896 169.395 449.039 169.077 451.626L169.236 451.858L169.679 451.219C170.159 450.141 171.991 446.856 171.892 445.796C171.795 444.753 171.466 443.915 171.47 442.82C171.158 442.608 171.194 442.546 170.795 442.591Z" fill="black"/>
<path d="M297.926 461.592C298.259 461.512 298.19 461.484 298.443 461.529C299.3 461.682 300.205 461.776 301.079 461.724C301.768 461.682 302.46 461.38 303.133 461.592L302.209 462.513L301.797 462.878C301.257 463.32 300.932 463.692 300.209 463.636C299.243 463.056 298.64 462.444 297.926 461.592Z" fill="#FEFEFE"/>
<path d="M164.641 474.051L168.299 475.9L166.323 477.635L163.858 479.481C163.468 478.389 164.375 475.187 164.641 474.051Z" fill="#F3ECE4"/>
<path d="M84.8181 142.852C83.6858 141.727 80.953 139.602 80.8242 138.032C81.4791 137.378 81.4916 137.379 82.4261 137.305C83.7025 137.808 85.0003 140.444 85.7964 141.6C85.5325 142.106 85.3578 142.576 84.8181 142.852Z" fill="#EDCFA4"/>
<path d="M277.837 338.789H278.681C278.887 339.897 278.017 342.251 277.792 343.418L276.481 351.532L276.144 351.967L276.061 351.852C275.805 351.352 276.185 339.882 276.498 339.021L277.837 338.789Z" fill="#F3ECE4"/>
<path d="M119.447 445.84L119.835 445.882C119.359 447.23 117.401 454.155 116.743 454.725L116.387 454.12L114.973 450.098C116.36 448.503 117.821 447.189 119.447 445.84Z" fill="#92A090"/>
<path d="M112.047 469.822L112.364 469.113L112.833 469.329C113.447 471.762 114.618 473.09 115.96 475.137C115.757 475.311 115.769 475.367 115.489 475.377C114.312 475.429 113.112 475.968 112.303 476.813C111.44 477.717 110.964 478.933 110.098 479.875C110.416 476.427 111.393 473.205 112.047 469.822Z" fill="#F3ECE4"/>
<path d="M382.306 162.015C383.128 161.913 383.139 161.918 383.83 162.365C384.065 162.664 384.243 162.971 384.292 163.353C384.428 164.403 384.285 165.415 383.571 166.247C382.657 167.312 381.918 167.359 380.577 167.459L379.943 167.294C379.17 167.04 378.774 166.653 378.422 165.954C378.457 165.708 378.489 165.489 378.589 165.259C379.131 164.012 381.07 162.573 382.306 162.015Z" fill="#EDCFA4"/>
<path d="M287.701 324.438L287.995 324.451C288.087 324.897 283.651 334.546 283.116 335.833L278.41 336.31C278.952 335.226 280.322 333.946 281.096 332.957L287.701 324.438Z" fill="#4B4335"/>
<path d="M181.203 393.699H189.103L187.102 398.854L186.58 400.179C185.94 399.883 185.339 399.021 184.866 398.496L180.836 393.998L181.203 393.699Z" fill="#F3ECE4"/>
<path d="M122.923 435.875L123.418 435.917L123.394 436.101C123.207 437.099 122.379 439.772 121.8 440.55C121.484 440.974 120.469 441.527 120.015 441.857L113.511 446.349L112.543 443.164L122.923 435.875Z" fill="#F3ECE4"/>
<path d="M92.396 127.392C93.116 127.381 93.9061 127.455 94.5433 127.804C96.1302 128.675 96.8855 130.763 97.3241 132.365L97.0367 132.607C95.4949 133.877 94.9214 134.304 92.8314 134.728C92.4184 134.809 92.3149 134.848 91.9232 134.716C91.1089 132.793 89.6372 131.305 88.1445 129.87C89.4622 128.789 90.7891 127.992 92.396 127.392Z" fill="#EDCFA4"/>
<path d="M207.495 148.116C207.676 148.034 207.704 148.006 207.933 147.982C208.473 147.925 209.354 148.131 209.74 148.528C210.084 148.881 210.426 149.349 210.343 149.852C210.228 150.556 209.5 151.467 209.115 152.075C208.384 153.228 207.728 154.585 207.683 155.966C207.664 156.52 207.747 156.515 208.131 156.92L208.5 156.852C208.647 156.448 208.796 156.049 208.873 155.626C209.06 154.598 209.443 153.678 209.83 152.708L209.429 157.008C209.173 158.445 209.256 160.116 209.181 161.586L208.279 161.108C206.872 160.32 205.979 159.226 205.569 157.686L205.494 157.384L205.322 156.52C204.967 153.569 205.633 150.481 207.495 148.116Z" fill="#EDCFA4"/>
<path d="M127.43 287.004L132.803 294.516C133.318 295.2 134.574 296.485 134.634 297.236L133.685 297.44L127.172 298.509L127.43 287.004Z" fill="#0F6451"/>
<path d="M305.204 388.839C305.558 388.777 305.945 388.791 306.305 388.773C306.919 389.142 307.317 389.535 307.685 390.136C308.737 391.85 308.861 394.321 308.356 396.223C308.04 397.412 307.415 398.472 306.305 399.098C305.981 399.143 305.697 399.167 305.369 399.115C304.794 399.021 304.204 398.402 303.89 397.957C302.801 396.414 302.583 394.088 302.995 392.295C303.341 390.79 303.801 389.688 305.204 388.839Z" fill="#F3ECE4"/>
<path d="M380.531 153.213L381.28 153.078C381.706 153.174 382.119 153.284 382.459 153.568C383.106 154.109 383.698 155.142 383.745 155.982C383.876 158.35 378.191 161.983 376.63 163.927L376.537 164.044L376.155 164.388C375.287 164.455 375.089 164.457 374.306 164.102C374.027 163.772 373.718 163.42 373.609 162.996C372.995 160.591 376.807 158.127 378.212 156.533C379.099 155.525 379.815 154.339 380.531 153.213Z" fill="#EDCFA4"/>
<path d="M180.054 420.113L180.142 420.298C179.945 421.844 179.311 423.464 178.818 424.952L175.727 433.323C174.997 435.047 172.485 436.987 171.086 438.342C171.245 436.163 171.906 433.973 172.258 431.814C172.401 430.935 172.398 429.106 172.762 428.362C173.082 427.705 174.116 426.805 174.638 426.214L180.054 420.113Z" fill="#9B8B76"/>
<path d="M269.518 158.545C269.727 158.477 269.902 158.441 270.122 158.421C270.732 158.363 271.185 158.472 271.646 158.881C272.864 159.961 273.345 161.967 273.321 163.526C273.271 166.793 271.357 169.497 269.004 171.637C268.145 172.244 267.165 172.664 266.215 173.115L269.518 158.545Z" fill="#EDCFA4"/>
<path d="M151.486 93.9002L152.238 93.8011C152.954 93.7879 153.869 94.1904 154.381 94.676C155.699 95.9247 156.019 97.7889 155.974 99.4978C155.899 102.439 154.676 104.145 152.547 106.089C151.539 106.799 150.28 107.176 149.125 107.607L151.486 93.9002Z" fill="#EDCFA4"/>
<path d="M375.593 145.336H376.606C377.36 145.644 377.702 146.075 378.048 146.793C378.631 148.007 378.236 150.304 377.793 151.547C376.784 154.374 374.064 157.129 371.328 158.415C370.647 158.429 370.087 158.361 369.428 158.194C369.184 157.962 368.864 157.758 368.779 157.432C368.526 156.468 368.688 155.993 369.162 155.146C370.075 153.516 371.979 152.724 373.054 151.118C374.286 149.277 374.479 147.131 375.593 145.336Z" fill="#EDCFA4"/>
<path d="M228.564 407.832L237.738 416.762L235.069 419.477L233.138 421.344L227.184 415.619L228.564 407.832Z" fill="#9B8B76"/>
<path d="M287.135 317.012H287.896L276.44 332.071L276.159 332.297L275.977 332.187L276.3 319.291L287.135 317.012Z" fill="#4B4335"/>
<path d="M82.1914 90.8892L82.391 90.8791C83.9363 90.8628 84.7645 91.6762 85.7883 92.661C85.6361 95.2591 85.3981 97.7564 85.7005 100.363C85.8221 101.413 86.7072 104.532 86.2259 105.254C85.3458 105.239 84.5678 105.104 83.7158 104.916C81.2893 103.597 79.7396 102.044 78.9019 99.3936C78.275 97.4112 78.0716 94.7662 79.1861 92.9099C79.8531 91.7996 80.9527 91.191 82.1914 90.8892Z" fill="#EDCFA4"/>
<path d="M237.821 77.684C238.528 77.6071 239.329 77.6927 240.008 77.9075C241.49 78.3771 242.636 79.5993 243.333 80.922C245.276 84.6112 244.684 88.9596 243.423 92.7434L243.067 93.1118L238.606 92.6752L237.966 85.4035C237.767 83.7446 236.512 79.2378 237.101 77.9155L237.821 77.684Z" fill="#EDCFA4"/>
<path d="M166.463 89.7266L166.996 89.7589C167.847 90.8299 168.12 92.1129 168.716 93.3178C169.075 93.446 169.363 93.5663 169.677 93.7811L171.948 101.161C172.452 102.659 173.587 104.719 173.612 106.258C172.928 106.671 171.843 106.452 171.061 106.402C169.036 105.733 167.534 104.874 166.196 103.199C164.379 100.926 163.477 97.6313 163.842 94.7732C164.104 92.7168 164.753 91.0176 166.463 89.7266Z" fill="#EDCFA4"/>
<path d="M195.473 128.922C198.302 129.737 200.875 130.149 203.826 130.199C203.761 134.042 204.113 137.92 204.58 141.731C204.746 143.088 205.256 144.697 205.261 146.032C205.262 146.305 205.163 146.485 205.049 146.727L204.374 147.06C198.966 143.342 196.66 134.977 195.473 128.922Z" fill="#FEFEFE"/>
<path d="M370.211 136.464L371.84 136.379C372.632 136.432 373.386 136.905 373.866 137.509C374.959 138.885 374.891 140.978 374.666 142.621C374.273 145.508 373.299 149.499 370.815 151.363C370.02 151.649 369.297 151.618 368.474 151.474C367.77 151.35 367.185 150.947 366.814 150.35C365.622 148.434 366.539 145.242 367.079 143.236L368.245 139.504C368.427 138.872 368.597 137.831 369.006 137.309C369.288 136.95 369.816 136.689 370.211 136.464Z" fill="#EDCFA4"/>
<path d="M150.203 339.023L150.416 339.284L145.169 352.653L136.934 352.747L136.976 345.402L150.203 339.023Z" fill="#F3ECE4"/>
<path d="M103.457 458.578L103.504 458.602C104.539 459.11 106.129 463.24 106.79 464.442C107.648 466.003 108.561 467.512 109.614 468.958C109.617 470.557 108.463 477.231 107.613 478.319L106.807 478.166C105.939 477.867 105.15 477.474 104.436 476.904C101.856 474.847 100.741 472.232 100.419 469.048C100.046 465.353 101.053 461.456 103.457 458.578Z" fill="#F3ECE4"/>
<path d="M107.784 395.749C107.707 395.419 107.655 395.127 107.661 394.786C107.832 384.507 109.272 374.065 111.591 364.05C113.042 357.785 114.748 351.505 117.87 345.81C119.905 342.099 122.52 338.93 125.615 336.016L125.82 336.132L125.818 337.753C122.962 341.476 120.838 345.796 118.972 350.058C114.643 359.946 112.129 369.906 110.509 380.52C110.055 383.492 109.494 386.422 109.422 389.436C108.399 390.719 108.284 394.087 107.784 395.749Z" fill="url(#paint0_linear_443_11145)"/>
<path d="M278.817 132.832L279.337 132.944L279.36 133.245C279.821 139.614 278.192 151.644 273.935 156.464L272.86 156.107L271.416 155.66C271.315 155.542 271.152 155.454 271.113 155.305C271.04 155.024 271.254 154.123 271.289 153.805L271.678 149.979L272.451 141.122C272.545 139.477 272.471 137.764 272.656 136.134C272.659 136.117 272.735 135.653 272.768 135.621C272.982 135.41 274.582 135.046 274.999 134.899C276.416 134.399 277.598 133.684 278.817 132.832Z" fill="black"/>
<path d="M154.826 486.61C155.15 486.537 155.158 486.496 155.49 486.61C154.473 487.566 153.802 488.428 153.144 489.648C149.716 490.712 146.231 491.734 142.975 493.246C138.427 495.356 133.96 499.375 128.883 499.948C122.9 500.626 118.506 498.481 113.959 494.911L110.098 491.373C116.175 493.521 123.337 495.548 129.866 494.748C133.532 494.3 137.194 493.093 140.699 491.967C145.456 490.438 150.267 488.63 154.826 486.61Z" fill="url(#paint1_linear_443_11145)"/>
<path d="M248.479 424.348C250.445 425.849 252.256 427.952 254.045 429.673L266.731 441.721C264.962 442.472 263.527 443.432 262.021 444.607L261.455 444.993L244.258 428.766L248.479 424.348Z" fill="#9B8B76"/>
<path d="M209.999 118.422C212.013 121.576 214.208 123.356 217.689 124.814C214.693 130.464 213.336 136.775 212 142.952L211.507 145.871L208.788 145.385L208.61 145.076C208.245 144.191 208.242 142.231 208.132 141.235C207.26 133.309 207.512 126.061 209.999 118.422Z" fill="black"/>
<path d="M129.538 465.246C136.289 464.436 142.849 467.12 148.237 470.874C149.193 471.542 152.626 473.732 152.803 474.757C152.162 475.254 151.506 475.616 150.735 475.873C147.701 476.895 144.548 474.987 141.883 473.732C136.941 471.427 131.067 468.698 125.433 469.366C123.087 469.644 121.235 472.08 119.855 473.728C120.007 472.359 120.003 470.012 120.768 468.865C122.299 466.571 126.978 465.646 129.538 465.246Z" fill="#92A090"/>
<path d="M224.746 195.699C227.16 196.943 229.536 198.047 232.188 198.74C238.951 200.509 245.073 199.513 251.075 196.088C249.797 198.1 248.199 199.935 246.586 201.695C243.018 205.277 239.091 207.606 234.433 209.599L233.824 209.237C232.635 208.526 231.318 207.829 230.295 206.899C226.951 203.859 225.779 199.889 224.746 195.699Z" fill="#EDCFA4"/>
<path d="M182.989 467.121C192.834 467.531 201.129 473.774 207.839 480.337L206.138 482.472C203.092 481.509 200.51 479.621 197.859 477.915C192.405 473.774 183.138 471.4 176.256 471.852C174.294 471.984 172.983 472.443 171.682 473.931L171.498 474.143L171.136 473.955C171.057 473.413 171.025 473.361 171.4 472.909C174.179 469.561 178.686 467.542 182.989 467.121Z" fill="#92A090"/>
<path d="M56.4297 235.656C69.0129 242.367 82.3532 246.952 95.7323 251.822L85.1554 250.771C75.2227 249.491 65.5733 246.988 56.4717 242.893L56.4297 235.656Z" fill="#0F6451"/>
<path d="M218.475 189.848C219.222 190.837 219.998 191.649 220.941 192.458C221.38 192.834 222.237 193.37 222.556 193.815C222.663 193.965 222.696 194.686 222.73 194.915C222.924 196.243 223.095 197.576 223.38 198.89C224.072 202.083 225.581 205.563 227.997 207.89C229.367 209.209 231.104 210.254 232.715 211.277C231.425 212.276 229.791 213.002 228.349 213.781L223.917 215.998C223.34 216.27 221.326 217.361 220.82 217.187C217.745 207.955 216.293 199.451 218.475 189.848Z" fill="#FEFEFE"/>
<path d="M310.047 333.168C313.94 337.481 315.661 344.594 316.898 350.134C320.352 365.608 321.474 382.061 321.179 397.87C321.11 401.618 320.599 405.375 320.231 409.102L316.913 432.559C316.061 436.956 315.129 441.52 313.711 445.779C312.479 449.481 310.933 452.724 308.785 455.998C308.489 456.37 308.296 456.548 307.862 456.756C307.804 456.666 307.715 456.586 307.688 456.482C307.68 456.45 308.057 455.741 308.09 455.675C309.436 452.978 310.609 450.318 311.615 447.478C313.693 441.618 314.889 435.684 315.991 429.59C318.31 416.77 319.139 403.808 319.025 390.803C318.855 371.32 316.506 351.667 310.047 333.168Z" fill="#F3ECE4"/>
<path d="M257.705 189.176C258.449 189.7 260.043 190.765 260.188 191.691C260.31 192.47 259.921 193.7 259.735 194.477C259.147 196.917 258.075 199.269 257.058 201.564C255.67 204.697 254.229 207.78 252.427 210.71C250.731 213.466 248.799 216.085 246.748 218.598L240.993 215.442L234.5 212.049L240.373 209.158C245.085 206.614 249.099 202.409 251.993 198.03C252.809 196.797 253.814 195.246 254.218 193.83C254.715 192.082 256.501 190.534 257.705 189.176Z" fill="#FEFEFE"/>
<path d="M133.512 314.929L133.946 314.848L134.178 315.045L134.122 352.847L127.914 352.881C127.57 352.828 127.458 352.757 127.172 352.578L127.28 316.738C129.469 316.427 131.476 315.762 133.512 314.929Z" fill="#F3ECE4"/>
<path d="M269.624 296.531C270.535 298.043 271.142 300.13 271.73 301.791C269.711 302.258 267.961 302.741 266.432 304.197C265.152 305.417 264.444 306.881 264.1 308.58C263.69 310.603 264.148 313.053 264.108 315.128L263.713 336.784L260.812 334.225L256.461 330.539L256.849 315.269C257.056 311.576 257.243 307.446 258.847 304.045C261.013 299.453 265.108 298.141 269.624 296.531Z" fill="#F3ECE4"/>
<path d="M155.991 155.008L151.916 188.15C148.378 191.497 143.901 194.781 139.807 197.463L139.375 197.337C139.93 193.915 140.908 190.516 141.757 187.153L145.748 173.459C146.953 169.788 148.284 165.93 150.192 162.547C151.768 159.753 153.827 157.375 155.991 155.008Z" fill="#0F6451"/>
<path d="M130.145 300.769C131.403 300.569 137.393 300.441 138.453 300.956C139.234 301.335 140.599 303.058 141.262 303.712C142.798 305.224 144.298 306.583 146.086 307.809L130.284 313.546C125.336 315.175 119.812 313.011 114.973 311.765L115.317 304.963C116.337 304.217 117.639 303.77 118.824 303.328C122.424 301.985 126.323 301.183 130.145 300.769Z" fill="#42634C"/>
<path d="M213.211 316.993C213.991 316.719 215.809 316.832 216.676 316.83C223.563 316.813 229.375 317.972 235.728 320.573L230.032 320.708C222.619 321.552 216.849 324.509 212.183 330.208L209.403 334.365C208.213 333.498 207.233 332.3 206.076 331.365C202.119 328.166 197.843 325.858 193.031 324.124C199.595 319.998 205.465 317.89 213.211 316.993Z" fill="#F3ECE4"/>
<path d="M123.76 350.953C123.881 352.028 123.83 353.159 123.848 354.242C123.852 354.479 123.951 355.227 123.868 355.423C123.505 356.279 122.611 357.274 122.109 358.099C119.226 362.837 117.691 368.252 116.473 373.595C111.884 393.727 113.135 415.321 118.337 435.218L115.023 437.269L114.457 437.342C112.353 430.334 111.626 422.339 110.882 415.074C109.977 406.22 109.833 397.366 110.566 388.499C111.68 375.018 114.796 361.638 123.76 350.953Z" fill="#F3ECE4"/>
<path d="M221.209 40.4961L223.077 40.5752C226.076 40.7892 229.133 42.3552 231.057 44.6029C236.109 50.5021 235.658 61.1138 235.937 68.4163C236.023 70.6877 236.391 73.1112 236.179 75.3641C235.67 75.5842 235.384 75.7256 234.812 75.5956L234.075 73.8537C231.745 68.3228 228.278 63.5184 224.858 58.599C221.703 54.0598 219.005 50.2667 217.43 44.897C219.279 43.5669 220.286 42.5818 221.209 40.4961Z" fill="#777045"/>
<path d="M304.067 320.881L304.817 320.851C308.103 320.777 310.459 321.822 312.815 324.053C314.746 325.882 317.776 329.599 317.829 332.303L317.646 332.401C316.213 330.252 314.399 328.065 312.119 326.728C309.904 325.428 307.207 325.022 304.693 325.685C301.386 326.556 298.952 328.76 297.272 331.616C293.733 337.631 292.237 344.937 290.992 351.684C289.268 361.032 288.455 370.365 287.9 379.84C287.163 392.417 287.088 405.094 288.04 417.664C288.792 427.595 290.13 437.52 292.731 447.159C294.236 451.682 295.892 456.145 299.718 459.284C298.747 459.322 297.441 458.922 296.617 458.443C292.548 456.062 290.689 447.813 289.666 443.551C288.299 437.85 287.253 432.087 286.72 426.254C285.76 415.731 285.642 405.105 285.784 394.551C286.023 376.774 287.215 358.571 291.189 341.184C292.318 336.248 293.541 330.72 296.322 326.408C298.201 323.497 300.609 321.621 304.067 320.881Z" fill="url(#paint2_linear_443_11145)"/>
<path d="M127.196 355.43L144.376 355.508L136.435 382.863L134.364 391.112L133.565 390.647C132.899 390.278 132.372 389.951 131.827 389.426C129.806 387.473 128.436 384.629 127.781 381.949C126.99 378.716 127.206 374.992 127.181 371.68L127.196 355.43Z" fill="#F3ECE4"/>
<path d="M329.796 466.557C331.125 466.22 333.902 466.943 335.342 467.089L342.531 467.548C344.813 467.614 347.111 467.576 349.389 467.416C350.487 467.336 352.532 466.853 353.488 467.284C353.54 467.649 353.706 468.181 353.428 468.497C352.812 469.199 351.29 469.933 350.456 470.468C346.164 473.225 339.784 476.478 336.985 480.761C336.737 481.143 336.366 481.196 335.947 481.366C330.691 482.562 324.856 483.41 319.504 482.27C317.479 481.839 313.743 480.601 312.729 478.62C312.509 478.189 312.517 477.81 312.693 477.375C314.432 473.106 325.479 468.403 329.796 466.557Z" fill="#0F6451"/>
<path d="M263.878 394.402L264.241 394.531C264.231 397.479 263.922 400.152 265.198 402.905L222.985 447.229L222.442 447.692L222.309 447.459L224.093 439.933L224.772 436.287C224.858 435.779 224.895 434.952 225.176 434.514C225.773 433.575 227.028 432.574 227.821 431.764L235.189 424.294L263.878 394.402Z" fill="#9B8B76"/>
<path d="M185.57 356.736L199.246 356.73C199.46 357.357 196.769 365.459 196.424 366.584L189.757 389.373C189.58 389.988 189.443 390.638 189.081 391.177L178.402 391.142L185.57 356.736Z" fill="#F3ECE4"/>
<path d="M74.5913 129.073C77.3797 128.855 79.9894 128.968 82.5319 130.223C85.0527 131.468 87.244 133.654 88.1202 136.308C88.3668 137.055 88.7463 138.362 88.3056 139.078C88.0035 139.569 87.5535 139.851 86.9758 139.948C85.3707 140.217 83.8776 136.524 82.502 135.559C81.7976 135.065 80.7226 134.678 79.8467 134.839C78.6504 135.059 77.4423 135.932 76.8318 136.962C74.8823 140.251 81.9645 143.831 82.6123 147.032C82.9125 148.514 81.8062 149.604 80.9684 150.705C79.1452 149.151 77.0887 147.888 75.2843 146.314C73.9898 145.184 73.0771 143.901 71.8885 142.709C71.4358 142.255 71.3444 142.135 70.7017 142.126C70.1067 142.513 70.0066 142.626 69.6822 143.248C69.7555 144.163 70.4694 144.877 71.052 145.553C72.056 146.719 73.1377 147.902 74.337 148.876C76.1474 150.345 78.7973 151.346 79.9346 153.442C80.0748 154.449 79.7603 154.976 79.2797 155.819C78.6746 156.299 77.9346 156.801 77.1331 156.829C76.1812 156.862 75.1122 156.292 74.2879 155.867C71.3753 154.366 69.3117 152.529 66.8172 150.528C66.2919 150.107 65.8262 149.967 65.1571 150.038C64.6365 150.619 64.6383 150.697 64.568 151.473C64.9241 152.354 65.6645 152.888 66.3682 153.508C68.5803 155.458 70.9345 156.773 73.5139 158.199C73.2085 159.064 72.7744 160.414 71.9681 160.929C71.3995 161.291 70.5258 161.228 69.8772 161.14C68.2027 160.911 66.4404 160.259 65.002 159.403C64.0459 158.834 63.1697 158.032 62.0739 157.767C60.9709 158.432 60.8062 159.543 59.9395 160.475C59.388 160.034 59.3377 159.6 59.2137 158.931C58.7011 156.16 58.8694 153.183 59.0757 150.386C59.4458 145.369 59.9013 140.413 62.9795 136.191C65.9367 132.135 69.5593 129.869 74.5913 129.073Z" fill="#EDCFA4"/>
<path d="M267.821 316.965C269.989 318.361 271.909 319.04 274.474 319.384L273.906 340.054L273.128 377.931L272.804 391.718C272.756 394.77 273.02 398.18 272.415 401.152L272.357 401.229C271.697 401.927 271.401 401.906 270.462 401.965C269.373 402.035 267.796 402.15 266.995 401.312C266.814 401.124 266.478 400.669 266.398 400.419C266.04 399.306 266.316 397.259 266.326 396.077L266.527 383.507L267.821 316.965Z" fill="#F3ECE4"/>
<path d="M362.31 466.176C368.785 467.007 375.962 466.84 382.469 466.287L383.594 473.486C381.504 475.534 378.73 477.192 376.143 478.575C370.797 481.433 365.14 483.57 359.241 485.048C354.964 486.004 350.188 486.671 345.845 485.809C343.86 485.416 340.865 484.467 339.732 482.667C339.503 482.302 339.279 481.999 339.452 481.572C340.486 478.999 358.993 467.914 362.31 466.176Z" fill="#0F6451"/>
<path d="M122.097 229.201L122.693 229.172L122.852 229.781C122.397 231.954 118.316 233.882 116.37 234.498C115.26 234.849 113.717 234.777 112.918 235.573C113.538 236.466 114.467 236.785 115.493 237.14C119.745 238.612 124.882 238.621 129.339 238.591C131.188 238.579 134.052 237.883 135.564 238.902C135.954 239.559 136.028 239.916 135.928 240.67C135.283 241.469 134.073 241.477 133.062 241.612C131.132 241.869 129.156 242.132 127.21 242.226C125.61 242.303 123.932 242.218 122.352 242.472L122.069 242.987L122.307 243.519C123.529 244.062 125.044 243.949 126.363 243.955C129.956 243.973 133.4 243.49 136.955 243.396L137.382 243.83C137.848 244.402 137.868 245.076 137.792 245.767C136.986 246.471 135.413 246.553 134.357 246.702C130.125 247.3 126.037 247.297 121.777 247.366L121.49 247.852C121.585 248.023 121.625 248.238 121.777 248.363C123.281 249.608 132.197 248.854 134.358 248.594C135.277 248.483 137.37 247.889 138.141 248.254C138.507 248.819 138.673 249.148 138.706 249.822C137.82 251.082 136.241 251.213 134.817 251.521C131.044 252.267 127.314 252.642 123.461 252.558C122.324 252.534 119.903 252.123 118.983 252.679L118.899 253.179C120.364 254.912 127.991 254.464 130.33 254.252C131.23 254.171 134.153 253.572 134.798 253.992L134.669 255.034C133.969 256.19 132.485 256.509 131.24 256.857C120.622 259.825 109.523 255.312 100.344 250.36L104.862 231.746C111.109 233.525 116.353 231.535 122.097 229.201Z" fill="#EDCFA4"/>
<path d="M106.313 128.648C111.254 131.882 117.594 132.987 123.435 132.143C124.423 132.001 126.125 131.32 127.033 131.561L127.064 133.751C127.584 134.25 128.135 134.665 128.719 135.09C128.198 138.061 127.235 140.892 126.27 143.747C124.191 149.894 121.564 155.852 118.395 161.537C117.186 163.543 115.988 165.166 114.323 166.838C110.233 162.71 107.819 155.757 105.715 150.457C104.807 148.172 99.7127 135.429 100.409 133.887L100.579 133.942C101.819 134.318 102.691 134.099 103.794 133.495C105.438 132.594 105.819 130.29 106.313 128.648Z" fill="#EDCFA4"/>
<path d="M128.578 471.71C133.533 471.397 138.293 473.959 142.593 476.058C144.493 476.986 146.465 478.061 148.567 478.46C151.539 479.027 153.672 478.148 156.075 476.531C156.3 476.663 156.486 476.799 156.674 476.976C157.259 477.525 160.452 480.372 160.458 480.842C154.227 485.215 146.718 487.77 139.512 490.185C136.309 491.159 132.978 492.08 129.61 492.271C123.612 492.612 117.426 491.343 111.932 489.024C110.5 488.42 108.99 487.853 107.806 486.838C107.683 486.497 107.589 486.452 107.732 486.091C108.325 484.589 114.688 480.981 116.271 479.865C119.452 477.626 122.505 475.092 125.798 473.02C126.667 472.474 127.619 472.078 128.578 471.71Z" fill="#0F6451"/>
<path d="M180.419 288.082L180.75 321.96C172.213 321.707 163.589 323.316 157.427 329.573C155.545 331.484 154.167 333.937 152.138 335.67C151.841 335.576 151.786 335.526 151.57 335.322L152.35 310.165C154.1 310.245 156.007 310.305 157.712 309.886C163.863 308.375 168.641 303.417 172.555 298.807C175.439 295.411 178.088 291.863 180.419 288.082Z" fill="#0F6451"/>
<path d="M57.2236 458.395C60.5321 459.458 63.8012 460.477 67.2297 461.109C69.053 461.443 71.4415 461.408 73.1315 461.958C73.4051 462.048 73.9465 462.594 74.1977 462.799L77.2239 465.253C83.6891 470.401 90.3984 475.219 96.3955 480.913C93.7115 482.213 91.0907 482.804 88.1438 483.218C74.5079 484.288 60.0947 478.963 49.1172 471.298L57.2236 458.395Z" fill="#0F6451"/>
<path d="M308.039 239.176C308.755 238.949 309.353 239.089 310.023 239.366C311.825 240.109 313.63 241.557 315.376 242.512C319.498 244.765 324.398 246.579 328.977 247.682C329.753 251.973 330.364 256.1 330.295 260.463C328.938 261.97 327.197 263.158 325.489 264.256C319.781 267.926 312.888 270.084 306.176 271.223C304.045 271.584 299.424 272.293 297.672 270.828C297.027 270.289 296.951 269.946 296.837 269.179C296.942 268.986 296.998 268.757 297.153 268.6C297.241 268.51 298.459 268.458 298.664 268.443C301.14 268.261 304.522 268.119 306.747 266.978C307.613 266.534 307.702 266.219 307.94 265.356L307.527 264.734C306.376 264.317 303.624 265.381 302.338 265.64C300.227 265.958 297.514 266.309 295.448 265.746C294.476 265.481 293.642 265.191 293.117 264.3C293.002 263.625 293.014 263.22 293.258 262.576C294.791 261.549 298.091 262.123 299.984 261.96C301.179 261.857 303.772 261.505 304.511 260.513C304.782 260.149 304.631 260.004 304.549 259.59C302.349 257.918 298.001 260.423 295.3 259.422C294.852 258.803 294.783 258.694 294.739 257.942C295.067 257.532 295.268 257.156 295.815 256.997C296.743 256.727 298.105 257.021 299.099 257.009C301.018 256.985 302.942 256.831 304.845 256.588C305.941 256.448 306.992 256.308 307.702 255.394L307.529 254.699C306.196 253.742 304.319 254.265 302.75 254.394C301.006 254.538 299.302 254.599 297.553 254.559C296.95 254.146 297.026 253.99 296.874 253.309C297.102 252.595 297.247 252.357 297.939 251.94C300.623 250.324 308.049 250.437 311.305 250.225C312.803 250.128 314.951 250.238 316.106 249.254L316.113 248.559C315.138 247.185 312.19 246.395 310.713 245.304C309.193 244.184 307.796 242.377 307.599 240.478C307.525 239.761 307.606 239.714 308.039 239.176Z" fill="#EDCFA4"/>
<path d="M322.508 296.115C323.062 296.037 323.637 295.934 324.197 296.003C324.978 296.099 325.596 296.467 326.055 297.117C326.901 298.319 327.337 302.039 327.064 303.481C326.869 304.51 326.475 305.288 325.569 305.881C323.341 307.339 319.155 307.786 316.521 308.399L293.462 313.506C289.184 314.438 284.94 315.683 280.61 316.368C278.333 316.728 276.249 317.063 273.963 316.58C272.958 316.258 271.965 315.761 271.1 315.165C269.773 314.251 269.083 312.989 268.78 311.451C268.455 309.799 268.741 307.987 269.741 306.594C270.468 305.58 271.618 304.844 272.814 304.461C274.149 304.032 275.721 303.903 277.113 303.666L285.633 302.212L312.931 297.853L322.508 296.115Z" fill="#42634C"/>
<path d="M201.709 492.353L207.349 489.204C208.059 488.762 208.791 488.401 209.189 487.654C209.067 486.938 208.965 486.833 208.513 486.294C206.766 486.527 204.404 488.297 202.744 489.107C200.823 490.045 198.865 490.886 196.851 491.609C187.032 495.145 176.426 495.67 166.122 494.408C163.595 494.095 159.92 493.615 157.833 492.061C157.227 491.609 156.787 491.102 156.449 490.435C156.716 489.34 158.776 487.838 159.666 487.063L169.613 478.974C171.329 477.614 173.085 476.005 174.955 474.875C177.683 473.224 183.676 474.17 186.648 474.913C189.215 475.557 191.662 476.478 193.978 477.736C197.262 479.526 205.497 486.576 209.104 484.306C209.799 483.868 210.393 483.009 210.906 482.377C211.554 482.606 212.205 483.545 212.667 484.052C212.55 485.359 212.4 486.607 212.086 487.887L202.117 493.021L201.709 492.353Z" fill="#0F6451"/>
<path d="M327.755 134.703L328.065 136.17C328.886 139.857 330.576 143.619 333.963 145.695C335.972 146.926 338.738 147.51 341.061 146.951L341.366 146.87C342.761 146.515 343.807 145.86 345.006 145.094L345.063 145.211C343.428 149.881 340.594 154.088 337.168 157.698C331.847 163.304 325.838 165.95 318.065 166.229C310.568 165.73 305.647 162.916 300.363 157.908L300.848 157.72C303.279 156.759 306.133 155.515 307.193 152.988C308.568 149.71 307.218 146.35 305.932 143.3L308.441 143.4C316.43 143.496 322.185 139.992 327.755 134.703Z" fill="#EDCFA4"/>
<path d="M261.263 356.367C261.966 356.287 262.566 356.26 263.269 356.371C263.576 356.419 263.622 356.63 263.798 356.866L263.492 382.204L263.399 387.48C263.385 388.169 263.471 389.236 263.276 389.882C263.215 390.081 262.814 390.536 262.661 390.689C262.538 390.811 262.122 391.158 261.95 391.203C259.737 391.749 256.382 391.328 254.026 391.322L235.049 391.28L232.062 391.269L240.187 359.662L261.263 356.367Z" fill="#F3ECE4"/>
<path d="M198.84 29.9326L200.965 29.8133C206.537 29.7254 212.78 30.8501 216.89 34.8177C218.187 36.0693 219.848 38.0417 219.846 39.9211C219.57 40.967 218.732 41.7022 217.845 42.2955C215.79 43.6701 212.958 44.4671 210.677 45.4946C206.237 47.4949 201.972 50.2592 197.186 51.4037C191.078 52.8641 184.997 51.0011 179.48 54.8232C173.398 59.037 170.671 66.9564 169.514 73.8847C168.776 78.0811 169.162 82.2973 169.493 86.5091C166.145 80.0528 162.59 72.8095 161.614 65.5857C160.961 60.7496 161.221 56.2502 164.402 52.2577C167.088 48.8855 170.937 47.5081 174.256 44.9113C176.512 43.1461 178.354 40.8271 180.354 38.7924C185.337 33.7229 191.762 30.8107 198.84 29.9326Z" fill="#777045"/>
<path d="M323.692 268.593L324.434 268.484C324.597 268.651 324.72 268.782 324.841 268.98C327.249 272.912 326.958 279.94 325.998 284.272C325.126 288.207 322.55 291.941 319.02 294.1C317.105 295.271 298.883 297.4 295.054 298L284.203 299.927L278.907 300.917C278.149 301.067 277.161 301.391 276.408 301.211L275.81 299.917L273.535 294.735C279.406 290.148 284.127 284.648 288.503 278.701C289.903 276.8 292.364 272.444 294.54 271.65C294.731 271.581 295.191 271.455 295.381 271.48C295.479 271.493 296.304 272.315 296.439 272.43C297.064 272.961 297.684 273.345 298.464 273.636C299.87 274.162 301.495 274.127 302.975 274.085C309.698 273.896 317.625 271.37 323.692 268.593Z" fill="#F57A61"/>
<path d="M112.274 469.823C112.238 468.491 111.172 467.362 110.446 466.281L108.02 462.279C106.382 459.262 104.995 456.168 103.766 452.974C96.7078 434.616 94.8469 414.357 95.632 394.898C96.0155 385.397 96.9419 375.848 98.8472 366.51C99.8636 361.53 101.084 356.28 102.898 351.519C107.077 340.549 114.345 330.727 124.354 324.207L124.405 332.633L122.558 334.243C118.654 337.76 115.334 342.166 113.036 346.844C110.244 352.527 108.659 358.757 107.316 364.891C104.201 379.116 103.016 393.521 103.613 408.058C103.84 413.603 104.189 419.276 105.093 424.761C106.337 432.308 107.97 439.744 110.157 447.078L112.961 455.098C113.407 456.238 114.594 458.192 114.67 459.311C114.721 460.076 114.043 461.758 113.884 462.599C113.463 464.827 113.153 467.063 113.059 469.329L112.591 469.114L112.274 469.823Z" fill="#0F6451"/>
<path d="M393.749 243.801C393.86 243.915 393.909 243.953 393.99 244.112C395.591 247.265 394.431 252.025 393.153 255.088C388.715 265.713 379.059 273.557 368.408 277.867C355.883 282.936 341.148 283.295 328.553 278.205C328.394 278.156 327.652 277.844 327.585 277.71C327.158 276.86 327.325 274.516 327.17 273.468C326.812 271.057 325.933 269.028 324.754 266.915C325.919 265.951 327.238 265.15 328.499 264.311C328.704 264.175 329.354 263.636 329.569 263.601C330.067 263.518 331.039 263.751 331.567 263.803L336.556 264.266C342.985 264.602 349.643 263.863 355.851 262.188C366.311 259.366 376.07 254.699 385.326 249.229C388.183 247.541 390.808 245.281 393.749 243.801Z" fill="white"/>
<path d="M293.706 321.322C294.784 321.214 296.202 321.113 297.233 321.447C297.898 321.663 298.327 321.966 298.618 322.57C295.762 326.044 293.987 329.815 292.453 333.975C289.731 341.355 288.185 349.304 287.046 357.049C284.993 371.006 284.446 385.069 284.382 399.154C284.334 409.61 284.42 420.046 285.78 430.436C286.965 439.484 288.86 448.783 292.861 457.081C294.537 460.557 296.963 465.552 300.93 466.946C302.859 466.671 304.659 466.24 306.394 465.344C315.772 460.501 320.644 449.458 323.612 440.058C323.95 441.038 324.49 443.263 324.161 444.264L323.033 447.4C319.499 455.909 314.698 465.302 306.258 470.085C302.547 472.192 296.642 473.318 292.486 471.882C291.721 471.618 290.913 470.568 290.425 469.956C289.312 468.562 287.792 466.303 287.246 464.607C286.783 463.171 286.637 461.523 286.369 460.039C285.901 457.446 285.339 454.901 284.413 452.419C283.693 450.493 282.703 448.484 281.56 446.753C281.165 446.155 280.58 445.613 280.251 444.991C279.811 444.156 279.726 442.822 279.563 441.897L278.175 432.623C276.234 418.388 275.832 404.469 276.017 390.13C276.097 383.977 276.08 377.765 276.692 371.639C277.361 364.947 278.649 358.308 279.87 351.696C280.946 345.872 281.954 339.777 284.063 334.215C285.922 329.315 288.602 323.627 293.706 321.322Z" fill="#9B8B76"/>
<path d="M236.057 95.248C238.646 94.8183 241.45 95.2828 243.782 96.4146C248.494 98.7012 251.724 103.212 253.351 107.997C252.615 107.476 252.009 107.116 251.136 106.829L250.598 107.105L250.508 107.569L251.489 108.437C252.265 109.196 253.331 110.523 253.669 111.537C253.907 112.251 253.775 113.408 253.781 114.172C254.255 114.675 254.229 114.638 254.931 114.686C255.637 113.786 255.419 111.899 255.463 110.733C256.68 111.666 256.74 113.8 258.37 114.398L258.813 114.056C258.754 113.115 258.242 112.21 257.859 111.352L255.606 106.474L257.162 106.252C261.432 105.716 265.04 106.802 268.412 109.384C274.861 114.321 277.349 122.014 278.266 129.621L278.133 129.723C275.333 131.813 271.454 134.027 267.81 133.519C266.917 133.395 266.04 133.091 265.189 132.805C257.545 129.555 253.13 121.998 248.095 115.954C246.298 116.598 244.577 117.619 242.861 118.454C236.034 121.778 225.495 125.573 217.938 123.006C213.911 121.638 211.886 119.232 210.109 115.606C211.109 113.424 212.425 111.282 213.866 109.352C219.348 102.01 226.675 96.6607 236.057 95.248Z" fill="black"/>
<path d="M270.951 443.485C273.515 443.402 275.775 444.379 277.66 446.027C278.726 446.958 279.584 448.369 280.286 449.572C283.356 454.818 284.489 461.648 284.796 467.613C285.277 476.964 283.745 488.985 277.036 496.142C274.538 498.808 272.183 500.119 268.454 500.279C266.17 499.903 264.322 499.354 262.483 497.908C257.203 493.761 255.021 485.773 254.319 479.478C253.204 469.477 255.094 456.778 261.796 448.741C264.299 445.738 266.976 443.906 270.951 443.485Z" fill="#F3ECE4"/>
<path d="M272.378 454.865C273.08 454.639 274.05 454.608 274.766 454.813C276.113 455.206 277.057 456.773 277.612 457.938C279.049 460.952 279.534 464.56 279.713 467.859C280.044 473.946 279.628 480.262 277.461 486.022C276.702 488.038 275.513 490.235 273.429 491.18C272.955 491.33 272.321 491.462 271.831 491.337C270.69 491.041 269.712 489.821 269.127 488.865C267.528 486.251 266.899 483.067 266.56 480.078C265.945 474.644 266.099 468.947 267.447 463.625C268.212 460.601 269.466 456.572 272.378 454.865Z" fill="black"/>
<path d="M272.92 457.414C273.08 457.376 273.138 457.351 273.321 457.362C273.79 457.39 274.101 457.598 274.417 457.911C277.147 460.622 277.429 466.869 277.423 470.446C277.415 474.777 276.987 479.303 275.615 483.433C275.048 485.14 274.401 486.749 273.079 488.039L272.482 488.261C271.934 488.094 271.806 488.074 271.427 487.66C270.553 486.704 270.17 485.463 269.827 484.253C268.673 480.179 268.513 475.65 268.741 471.447C268.941 467.766 269.488 464.029 270.937 460.602C271.438 459.42 271.93 458.286 272.92 457.414Z" fill="#0F6451"/>
<path d="M119.265 39.89C122.807 39.3481 127.604 40.0635 130.988 41.0234C138.853 43.2542 145.795 48.8597 149.711 55.8638C155.178 65.6416 155.718 77.6537 152.511 88.191C151.129 82.9451 149.429 80.0763 144.823 76.9888C143.19 75.8941 141.393 74.7376 140.01 73.351C137.279 70.6142 135.644 67.639 135.676 63.7783L135.089 63.3682C134.35 63.3588 134.304 63.323 133.679 63.7783C133.511 64.1882 133.402 64.5928 133.402 65.0357C133.408 69.5978 136.321 73.1695 139.422 76.2584C138.256 76.3881 136.571 75.8886 135.427 75.6223C124.531 73.085 115.881 64.4315 110.187 55.4199C109.949 55.0406 109.666 54.7576 109.357 54.4344C108.488 54.4469 108.477 54.4894 107.816 55.0522C107.633 56.4945 109.23 58.6168 109.969 59.9335C109.811 63.0737 108.687 66.1859 106.642 68.6439C103.787 72.0752 100.78 73.7876 96.3062 74.2249L96.4346 73.7003C97.1198 70.5064 97.2536 67.1485 96.731 63.9205C96.551 62.8078 96.3521 61.6189 95.7203 60.6587C95.048 60.2781 95.0227 60.3129 94.2973 60.414C93.318 61.3764 93.8555 62.1861 94.1198 63.4398C95.0967 68.0787 94.3262 73.3677 92.6197 77.7459C91.0089 81.8783 88.7389 85.6976 87.1814 89.8641C86.5532 89.4807 85.9289 89.1014 85.2259 88.8598C83.349 88.2146 81.8012 88.531 80.0645 89.3552L79.745 89.5092L78.7642 83.072C77.5899 73.0909 79.0001 61.0902 85.6382 53.0011C89.3771 48.4449 94.1547 45.1946 100.381 45.6402C101.219 45.7002 103.296 46.3193 103.934 46.1615C104.617 45.9928 106.308 44.3376 107.025 43.8569C110.628 41.4419 114.982 40.3587 119.265 39.89Z" fill="#777045"/>
<path d="M298.522 75.8633L302.672 80.1389C310.818 87.9954 322.486 94.3276 334.119 94.2639C335.929 103.835 336.732 113.689 333.579 123.103C331.105 130.488 326.172 135.919 319.115 139.437C317.891 139.997 316.625 140.393 315.314 140.715C309.733 142.086 303.492 140.54 298.673 137.652C290.708 132.877 286.538 124.18 284.436 115.592C283.091 110.092 282.625 103.965 284.735 98.5921C286.574 93.909 290.029 89.5406 292.829 85.3424L298.522 75.8633Z" fill="#EDCFA4"/>
<path d="M289.188 92.9293C290.207 92.774 290.978 92.7319 292.007 92.9064C292.666 93.3659 292.659 93.351 292.811 94.1276C292.167 94.9618 291.273 94.5683 290.264 94.7237C289.655 94.8172 289.122 95.0943 288.587 95.3797L288.374 95.4954L287.01 96.726C286.264 96.7183 286.272 96.661 285.734 96.2129C285.751 95.9717 285.762 95.7471 285.849 95.5177C286.338 94.22 287.987 93.4469 289.188 92.9293Z" fill="black"/>
<path d="M303.007 106.414C303.596 106.274 303.678 106.289 304.256 106.472C305.344 107.7 306.05 109.523 306.789 110.98C307.214 111.817 307.873 112.836 308.1 113.735C308.267 114.394 308.238 114.396 307.87 114.987L307.166 115.232C306.825 115.018 306.599 114.862 306.396 114.508C305.341 112.662 304.407 110.603 303.509 108.674C303.344 108.32 302.821 107.47 302.801 107.109C302.792 106.949 302.957 106.584 303.007 106.414Z" fill="black"/>
<path d="M319.055 95.898C319.962 95.7895 320.925 95.7954 321.835 95.8792C323.138 95.9984 324.567 96.9227 325.346 97.9412C325.84 98.5885 325.928 99.0286 325.842 99.8041C325.366 100.157 325.111 100.463 324.444 100.293C324.307 100.258 323.728 99.6227 323.589 99.4993C322.696 98.7056 321.979 98.3532 320.776 98.227L320.531 98.2051C319.357 98.3751 318.411 98.7665 317.685 99.7276C317.1 100.502 317.078 101.156 316.144 101.587C315.534 101.335 315.323 101.252 315.106 100.615C314.908 100.038 315.016 99.4572 315.281 98.9208C316.085 97.2929 317.362 96.474 319.055 95.898Z" fill="black"/>
<path d="M295.401 100.782C297.172 100.771 298.661 100.816 300.145 101.914C300.875 102.454 301.739 103.345 301.844 104.264C301.911 104.853 301.66 105.03 301.331 105.475C299.99 105.494 299.434 104.037 298.249 103.54C297.499 103.226 296.495 103.232 295.685 103.187C294.819 103.487 293.944 103.902 293.419 104.673C292.75 105.655 292.898 106.439 291.726 106.935C290.953 106.545 290.955 106.503 290.613 105.716C290.674 104.845 290.955 104.095 291.408 103.349C292.31 101.866 293.76 101.197 295.401 100.782Z" fill="black"/>
<path d="M322.446 118.457C323.035 118.459 323.084 118.576 323.533 118.92C323.653 120.336 322.196 122.468 321.298 123.554C318.855 126.505 315.616 128.19 311.747 128.538C307.505 128.919 304.145 127.62 300.924 125.019L300.384 124.268C300.319 123.573 300.396 123.581 300.8 123.046C301.359 123.027 301.467 122.932 301.89 123.309C304.842 125.94 307.745 126.94 311.767 126.703C315.208 126.5 318.573 124.323 320.446 121.564C321.112 120.583 321.524 119.447 322.337 118.569L322.446 118.457Z" fill="black"/>
<path d="M186.41 216.004L186.499 216.12C186.433 217.936 185.551 220.12 185.145 221.945L183.436 231.53C181.746 243.497 181.175 255.897 181.077 267.971L181.009 279.901C181 280.865 181.221 283.02 180.686 283.752C179.285 285.669 178.107 287.793 176.767 289.763C173.885 294 170.7 298.141 166.983 301.717C165.129 303.502 163.178 305.236 160.803 306.338C157.448 307.894 154.258 308.164 150.734 306.865C146.929 305.462 144.092 302.782 141.423 299.893C137.257 295.382 133.836 290.393 130.353 285.377C125.074 277.775 120.071 270.494 116.235 262.051C115.932 261.331 114.897 259.479 114.977 258.797L119.09 259.88C124.397 260.814 131.818 260.889 136.359 257.687C137.921 256.586 138.177 255.174 138.455 253.441L141.025 251.707C142.865 254.722 144.731 257.729 146.822 260.586C150.453 265.545 154.416 270.191 157.795 275.346C159.052 277.262 160.242 279.33 161.051 281.468C161.407 282.41 161.638 284.385 162.258 285.112C162.591 285.501 163.07 285.387 163.541 285.398C163.946 285.058 164.172 284.993 164.242 284.458C164.857 279.824 157.24 270.019 154.512 266.426C161.23 250.978 170.178 236.325 180.656 223.028C182.448 220.754 184.198 218.166 186.265 216.143L186.41 216.004Z" fill="#F57A61"/>
<path d="M111.581 62.8164C115.223 66.7643 119.042 70.255 123.551 73.2466C125.345 74.4365 127.354 75.3448 129.082 76.614C130.355 77.549 132.547 80.1308 134.039 80.3049L134.673 79.7658C134.909 78.782 134.508 78.7664 134.182 77.8685C136.979 78.0972 139.46 78.8324 142.318 78.676C144.897 80.2083 147.214 82.3058 148.355 85.0947C149.773 88.5577 149.143 91.9115 148.708 95.4891C148.101 100.478 147.373 105.191 145.355 109.859C141.736 118.227 135.819 124.906 127.101 128.369C121.802 130.201 116.217 130.883 110.782 129.132C102.388 126.428 95.5212 118.907 91.6903 111.326C87.7241 103.477 86.8273 95.3014 90.3228 87.1286C91.8333 83.5965 93.7827 80.3209 95.0467 76.6769C97.4543 76.6755 100.155 76.0345 102.291 74.9343C107.055 72.4801 110.013 67.6653 111.581 62.8164Z" fill="#EDCFA4"/>
<path d="M117.339 94.8321C117.918 94.7121 117.948 94.6284 118.442 94.928C118.968 96.3164 119.738 98.1566 119.652 99.6437C119.594 100.652 119.217 100.961 118.517 101.617C117.465 101.705 116.89 101.668 115.909 101.219L115.197 100.646C114.993 99.9778 114.844 99.8398 115.136 99.1825C116.285 99.0969 116.399 99.8777 117.45 99.8384L117.72 99.4658L117.282 97.4931C117.046 96.5667 116.803 95.699 117.339 94.8321Z" fill="black"/>
<path d="M129.909 85.7905L130.213 85.7328C131.299 85.5617 132.407 86.0696 133.251 86.6901C134.381 87.5205 134.773 88.4518 134.943 89.7731C134.682 90.3602 134.713 90.4972 134.105 90.7881C133.272 90.492 132.949 89.722 132.453 89.0202C131.984 88.6148 131.457 88.1372 130.784 88.1577C129.647 88.1928 129.16 89.1568 128.413 89.8829L127.583 89.794L127.172 89.2659C127.173 88.7953 127.198 88.3583 127.407 87.9245C127.96 86.7749 128.709 86.2069 129.909 85.7905Z" fill="black"/>
<path d="M106.757 75.3427C107.228 75.2863 107.717 75.3677 108.176 75.4692C108.689 75.5829 109.107 75.806 109.381 76.2562C109.718 76.8099 109.56 76.9667 109.389 77.5278C108.725 77.9595 108.732 77.9373 107.929 77.8013C105.979 77.4708 104.512 77.9661 102.943 79.0743L102.685 79.2589C102.09 79.8151 101.693 80.4703 100.849 80.4703L100.344 79.9089C100.366 79.1066 100.632 78.555 101.135 77.9216C102.627 76.0421 104.453 75.5968 106.757 75.3427Z" fill="black"/>
<path d="M105.8 85.3296C106.305 85.2062 106.817 85.1753 107.337 85.1802C108.65 85.1927 109.825 85.8636 110.708 86.7757C111.872 87.9781 112.438 89.4857 112.384 91.122C112.041 91.6771 112.051 91.6945 111.432 91.9152C110.529 91.3562 109.909 89.7016 109.359 88.7502L108.268 87.9117C107.833 87.6402 107.186 87.505 106.683 87.635C105.226 88.0118 104.899 89.5233 104.245 90.6586L103.487 90.8241L103.013 90.5067C102.708 89.7499 102.726 89.0032 102.94 88.226C103.301 86.9175 104.623 85.9109 105.8 85.3296Z" fill="black"/>
<path d="M129.705 107.794C130.42 107.73 130.478 107.804 131.073 108.138L131.234 108.721C130.931 110.186 129.611 111.711 128.516 112.715C125.412 115.559 121.255 116.647 117.081 116.486C112.662 116.314 109.035 114.226 106.078 111.133C105.535 110.385 105.223 109.9 105.223 108.996L105.815 108.424C105.973 108.414 106.53 108.324 106.646 108.371C107.399 108.684 108.757 110.701 109.519 111.322C112.423 113.688 116.169 114.548 119.888 114.153C124.443 113.669 127.035 111.097 129.705 107.794Z" fill="black"/>
<path d="M215.227 45.9348L215.717 45.8789C216.194 46.793 216.322 47.7873 216.675 48.7465C217.215 50.2139 217.922 51.6447 218.707 53.0012C220.656 56.3717 223.128 59.567 225.353 62.7752C227.272 65.5432 229.289 68.2991 230.795 71.3115C234.183 78.0907 234.726 85.4779 235.459 92.8616L233.498 93.2471C223.387 95.4402 215.273 102.862 209.891 111.201C205.887 112.154 201.182 112.527 197.657 109.937C196.682 109.221 195.953 107.772 194.746 107.674C194.185 108.106 194.02 108.147 193.819 108.838C193.991 109.756 194.582 110.271 195.257 110.883C198.921 114.216 203.551 114.292 208.244 114.098L205.112 122.55L204.136 127.816C201.134 127.762 198.194 127.372 195.405 126.234C186.463 122.585 180.991 114.557 177.451 106.075C176.228 103.143 175.275 100.084 174.33 97.0584C171.07 86.6254 169.267 75.5869 173.837 65.1779C176.414 59.3071 180.509 54.9405 187.315 54.4616C191.268 54.1835 194.805 54.4173 198.703 53.2666C201.939 52.3111 204.862 50.6852 207.852 49.1874L215.227 45.9348Z" fill="#EDCFA4"/>
<path d="M185.547 71.207C185.767 71.207 186.085 71.3023 186.303 71.3464C186.676 71.8539 186.716 71.9516 186.778 72.5725C186.182 73.6647 184.232 74.1374 183.182 74.9192C182.001 75.799 181.197 77.1047 179.9 77.826C179.681 77.8235 179.568 77.8354 179.342 77.7662C178.782 77.5948 178.599 77.2548 178.402 76.7678C178.475 76.5492 178.56 76.3493 178.669 76.1442C179.793 74.0307 183.234 71.8279 185.547 71.207Z" fill="black"/>
<path d="M211.046 76.4212C212.005 76.3541 212.819 76.3496 213.756 76.6207C215.171 77.0302 216.261 77.8009 216.985 79.0742C217.025 79.7958 217.001 79.8 216.602 80.3534C214.973 81.1195 214.264 79.2782 212.746 78.8176L212.57 78.7711C212.21 78.7485 211.84 78.7919 211.5 78.9167C210.819 79.1663 210.411 79.7298 210.097 80.3388C209.847 80.823 209.613 81.2141 209.262 81.634C208.526 81.706 208.507 81.7807 207.885 81.3205C207.579 80.6211 207.623 79.8407 207.926 79.1416C208.557 77.6879 209.603 77.0052 211.046 76.4212Z" fill="black"/>
<path d="M189.511 81.5435C191.243 81.4527 192.742 81.5205 194.095 82.7344C194.652 83.2343 194.808 83.6841 194.85 84.4009C194.4 85.0836 194.426 85.0881 193.62 85.2713L192.965 84.8642C192.21 84.3633 191.611 83.9639 190.656 83.9632C189.955 83.9625 189.494 84.2246 189.006 84.6897L188.877 84.8176C188.259 85.7082 188.387 86.5839 188.007 87.5158C187.816 87.9855 187.544 87.9844 187.099 88.1603C186.291 87.9476 186.27 87.9441 185.794 87.2735C185.643 86.4754 185.711 85.8146 185.97 85.0474C186.566 83.2867 187.888 82.3433 189.511 81.5435Z" fill="black"/>
<path d="M208.667 65.1673C211.514 64.4975 215.211 65.4141 217.791 66.645C219.554 67.4863 221.845 68.8277 222.526 70.7278C222.345 71.5496 222.318 71.512 221.593 71.9778C220.628 71.7776 220.196 71.1202 219.464 70.4963C216.107 67.634 212.826 67.2982 208.549 67.3531C207.97 67.0379 207.944 67.0309 207.676 66.4417C207.903 65.6453 207.964 65.6432 208.667 65.1673Z" fill="black"/>
<path d="M200.929 84.6331C201.237 84.5065 201.431 84.5243 201.753 84.5667C202.144 84.6181 202.248 84.655 202.467 85.0186C202.845 85.6481 202.934 86.6545 203.098 87.3698C203.571 89.4309 204.172 93.3589 205.442 95.0042C206.855 95.0389 207.731 94.2123 209.05 94.132L209.711 94.7153C209.798 95.4988 209.786 95.5447 209.366 96.2173C208.708 96.6988 207.903 97.0009 207.102 97.1775C206.088 97.401 204.824 97.5668 203.935 96.931C203.223 96.4214 202.833 95.244 202.556 94.4581C201.532 91.5461 200.65 88.2771 200.355 85.2122L200.929 84.6331Z" fill="black"/>
<path d="M245.571 119.383C245.706 119.347 245.901 119.289 246.038 119.289C246.081 119.289 246.495 119.351 246.557 119.383C246.844 119.534 247.444 120.477 247.673 120.759L251.42 125.262C254.728 129.049 259.459 134.07 264.468 135.479C265.634 135.807 267.001 135.831 268.21 135.923L266.271 156.938C264.218 170.071 260.357 185.503 248.69 193.755C244.012 197.064 238.755 197.687 233.162 196.832L229.124 195.792C221.869 193.256 217.523 188.301 214.293 181.648C208.574 169.866 209.627 156.669 212.101 144.244C213.082 139.318 214.214 134.409 215.945 129.678C216.131 129.169 217.2 125.805 217.456 125.644C217.495 125.619 219.183 125.853 219.343 125.87C221.907 126.156 224.277 126.178 226.833 125.8C233.447 124.822 239.58 122.159 245.571 119.383Z" fill="#EDCFA4"/>
<path d="M251.923 149.507C252.342 149.478 252.681 149.545 253.091 149.616C253.775 150.155 254.072 150.671 254.281 151.505C254.503 152.389 254.606 153.833 254.12 154.604L253.329 154.772C252.458 154.151 252.417 153.079 252.143 152.077L251.906 152.067C251.27 152.643 250.768 153.285 250.245 153.957L249.534 154.036L249.151 153.445C249.115 152.766 249.161 152.265 249.467 151.643C249.983 150.595 250.797 149.884 251.923 149.507Z" fill="black"/>
<path d="M227.371 145.342C227.637 145.238 227.843 145.182 228.133 145.188C228.851 145.203 229.168 145.351 229.656 145.905C230.616 146.991 230.534 148.528 230.441 149.86C230.084 150.32 230.12 150.365 229.548 150.463C228.715 149.651 228.996 148.56 228.242 147.813L227.996 147.591C227.347 148.22 226.979 149.173 226.419 149.892C226.016 150.409 226.003 150.38 225.326 150.462L224.75 149.976C224.741 149.651 224.744 149.324 224.804 149.003C225.07 147.57 226.164 146.119 227.371 145.342Z" fill="black"/>
<path d="M226.847 135.755C227.637 135.645 228.669 135.52 229.458 135.717C230.078 135.872 230.218 136.266 230.47 136.764C230.342 137.154 230.337 137.407 229.927 137.606C229.32 137.899 228.23 137.795 227.543 137.896C225.592 138.18 223.96 138.859 222.274 139.833C221.659 140.323 220.88 141.13 220.09 141.264L219.867 140.934C219.93 140.736 220.001 140.544 220.101 140.36C221.339 138.085 224.442 136.494 226.847 135.755Z" fill="black"/>
<path d="M252.44 139.543C253.049 139.418 253.72 139.505 254.312 139.688C256.236 140.284 257.869 142.005 258.743 143.729C259.256 144.742 259.975 146.583 259.59 147.685L259.062 147.42C257.632 145.247 256.055 142.476 253.298 141.797L251.94 141.412L251.582 140.702C251.758 139.911 251.794 139.969 252.44 139.543Z" fill="black"/>
<path d="M236.813 151.128C237.477 151.057 237.446 151.087 237.993 151.476C238.356 152.682 237.965 154.293 237.817 155.529L236.755 164.025C237.823 163.926 240.188 163.464 241.045 164.138C241.345 164.373 241.309 164.787 241.367 165.145C241.032 165.768 240.907 165.711 240.252 165.937L239.54 166.064C237.825 166.273 236.191 166.598 234.77 165.493C234.616 164.802 234.474 164.113 234.504 163.402C234.625 160.497 235.188 157.505 235.591 154.619C235.698 153.854 235.753 152.345 236.167 151.722C236.298 151.525 236.629 151.297 236.813 151.128Z" fill="black"/>
<path d="M225.653 170.592L226.18 170.555C227.063 171.038 227.152 172.103 227.57 172.972C227.947 173.756 228.496 174.46 229.121 175.071C231.788 177.672 235.765 178.595 239.428 178.568C241.946 178.549 244.828 177.939 246.874 176.436C247.852 175.718 248.686 174.686 249.553 173.835C250.283 173.743 250.259 173.822 250.822 174.229C251.111 175.129 250.985 175.157 250.548 176.018L249.382 177.201C246.579 179.882 242.513 180.942 238.668 180.869C234.506 180.79 230.088 179.404 227.17 176.394C226.28 175.476 224.618 173.314 224.754 171.982C224.835 171.187 225.055 171.066 225.653 170.592Z" fill="black"/>
<path d="M312.021 53.5482C316.597 53.1111 320.782 53.7077 325.053 55.3975C343.757 62.798 350.304 83.5993 350.721 101.731L350.777 112.17C350.79 115.179 350.656 118.413 351.916 121.23C352.833 123.277 354.389 125.347 356.607 126.142C359.31 127.11 361.557 126.682 364.095 125.52C364.94 127.117 365.146 130.366 364.743 132.101C364.561 132.881 364.289 133.948 363.596 134.373C362.506 133.562 362.722 131.974 361.342 131.094L360.705 131.253C360.425 131.606 360.118 131.868 360.101 132.342C360.079 132.957 360.451 133.762 360.63 134.372C361.172 136.217 361.34 138.266 360.682 140.11C359.879 142.363 358.305 144.463 356.026 145.453C354.35 146.181 352.114 146.209 350.426 145.488C349.622 145.146 348.773 144.523 348.442 143.715L348.542 143.538C349.88 141.133 349.761 138.399 348.96 135.831C348.422 134.104 346.894 130.756 345.216 129.886C344.429 129.943 344.357 129.969 343.748 130.457C343.689 131.63 344.534 132.498 345.09 133.52C345.784 134.796 346.531 136.279 346.783 137.714C347.105 139.541 347.022 141.218 345.825 142.733C344.973 143.813 343.653 144.539 342.265 144.709C340.197 144.961 338.297 144.52 336.644 143.253C333.572 140.898 332.928 137.618 332.265 134.099C332.18 133.649 331.794 132.809 331.815 132.398C331.828 132.142 332.75 130.884 332.95 130.548C333.785 129.149 334.533 127.691 335.171 126.196C338.614 118.127 339.106 108.626 338.015 100.011C337.701 97.5328 337.199 95.0682 336.623 92.6363C336.449 91.9046 336.257 90.7028 335.787 90.1209C335.648 89.9485 335.321 89.7632 335.136 89.6214L334.415 89.7316C334.272 89.8741 333.775 90.2708 333.718 90.4265C333.509 90.991 333.921 91.3268 333.476 91.9271C329.987 91.9626 326.739 91.1433 323.465 90.0107C315.945 87.4102 309.772 83.3626 304.145 77.8831L300.923 74.457C300.25 73.6874 299.616 72.695 298.613 72.4162C297.834 72.6849 297.73 72.8556 297.202 73.4935L292.522 81.8178L286.999 90.3285C284.803 93.6951 282.742 96.8612 281.765 100.799C280.554 105.681 281.089 110.514 282.211 115.355C284.247 124.138 288.273 132.633 295.737 138.215C296.845 139.044 298.015 139.79 299.247 140.432C300.617 141.147 303.947 142.035 304.676 143.266C305.976 145.461 307.245 147.311 307.325 149.949C307.363 151.195 306.812 152.602 305.902 153.469C304.266 155.028 301.741 155.63 299.522 155.588C294.773 155.5 290.696 153.017 287.498 149.777C290.031 150.668 292.961 152.3 295.649 152.204C296.221 151.866 296.187 151.874 296.381 151.245C295.685 150.297 294.662 150.335 293.633 149.899C292.408 149.379 291.258 148.664 290.049 148.101C289.074 147.647 288.15 147.397 287.284 146.727C287.213 145.994 287.175 145.356 287.288 144.627C287.384 144.005 287.427 143.416 287.436 142.788C286.775 142.461 286.732 142.544 286.044 142.711C284.803 143.843 285.079 144.918 284.739 146.389C284.048 146.452 283.345 146.416 282.82 146.912C282.933 148.483 283.875 149.626 284.718 150.914L278.661 153.126C281.363 147.367 282.028 140.377 282.072 134.099C282.094 130.924 282.018 127.82 281.355 124.697C280.652 121.392 279.332 118.096 277.644 115.152C276.724 113.547 275.584 111.965 274.34 110.583C273.772 109.952 272.598 109.081 272.207 108.397C271.964 107.972 271.883 106.862 271.81 106.366C269.897 93.4876 271.598 79.1099 279.848 68.4662C283.217 64.12 288.801 60.1817 294.369 59.2942C295.932 59.045 297.867 59.3863 299.339 58.9984C300.29 58.7474 301.636 57.4128 302.503 56.8482C305.367 54.9814 308.646 54.0259 312.021 53.5482Z" fill="#4B4335"/>
<path d="M177.234 324.402L183.73 324.549C192.94 325.439 202.075 329.971 207.985 336.947C207.903 337.851 207.264 338.993 206.922 339.855L204.722 345.71L201.9 354.388L187.898 354.259C187.903 352.576 188.104 348.792 186.813 347.515C186.03 347.472 185.894 347.446 185.225 347.826C184.579 349.189 185.305 351.345 185.263 352.923C185.206 354.992 184.828 357.006 184.451 359.036L178.066 388.37L166.982 453.151C165.673 461.536 163.664 469.976 162.892 478.413L155 471.669C150.411 468.13 144.566 464.696 138.765 463.66C133.372 462.693 126.559 462.711 121.915 465.971C119.915 467.376 119.618 469.26 119.219 471.481C118.545 470.539 117.943 469.618 117.418 468.589C117.414 466.246 117.921 463.875 118.387 461.585C120.434 451.507 125.235 442.361 128.013 432.493L133.551 409.686L145.4 365.087C148.673 354.224 151.747 341.246 159.385 332.403C163.985 327.078 170.305 324.967 177.234 324.402Z" fill="#F3ECE4"/>
<path d="M229.877 323.235L234.202 323.121C236.903 323.203 239.589 323.962 242.116 324.855C250.202 327.712 258.147 333.216 264.018 339.317C264.265 339.574 265.104 340.3 265.205 340.579C265.381 341.062 265.175 342.587 265.165 343.165L264.929 353.458L242.62 357.001C242.539 356.659 243.487 355.501 243.656 355.054C243.975 354.207 243.878 354.041 243.509 353.274C242.849 352.913 242.863 352.865 242.078 353.025C240.73 353.937 240.073 355.486 239.497 356.929C238.042 360.583 237.119 364.488 236.095 368.275C231.432 385.538 228.047 403.071 224.898 420.65L221.723 439.039C220.948 443.151 219.487 447.1 218.766 451.212L214.101 481.257L206.535 474.405L201.525 470.665C195.963 467.14 188.459 463.928 181.72 465.381C177.042 466.393 172.233 469.403 169.657 473.38C168.275 472.653 167.244 471.77 166.207 470.627C166.768 467.338 168 464.154 169.148 461.026L174.674 446.794L178.597 435.764L182.501 424.971L188.356 405.703L194.932 386.195L201.76 363.049L206.824 346.517C208.686 341.294 210.631 335.799 214.069 331.338C218.032 326.196 223.552 324.116 229.877 323.235Z" fill="#F3ECE4"/>
<path d="M96.597 317.936L96.9823 299.18C96.7016 298.699 96.5497 298.34 95.9111 298.253C95.2829 298.167 94.9727 298.404 94.5045 298.759C94.0207 299.976 94.1 301.376 94.0502 302.667L93.7987 308.478L92.7941 340.251C92.7471 344.883 93.1641 349.571 92.9826 354.183C92.8642 357.194 92.3736 360.235 92.067 363.235L89.6856 385.361L82.9539 459.399C73.0281 460.637 63.1705 457.366 53.9922 454.095L64.3863 391.965L69.2052 366.601L70.4848 360.425C70.7096 359.335 71.0556 358.198 71.0312 357.082C70.9897 355.189 70.5549 353.197 70.2545 351.327L68.7604 342.243L62.8984 309.755C59.3518 288.577 58.3867 266.944 58.519 245.52C69.6519 250.838 82.2951 253.027 94.5497 254.085L101.166 254.342C102.256 254.359 103.576 254.249 104.635 254.443C106.624 254.807 108.896 256.36 110.786 257.166C111.239 257.36 112.607 257.734 112.853 258.006C113.331 258.532 113.894 260.834 114.212 261.597L117.195 267.938C119.988 273.482 123.567 278.593 126.92 283.817L126.373 296.492C126.366 296.777 126.382 299.119 126.309 299.201C126.183 299.342 122.215 299.954 121.785 300.052C118.943 300.696 115.885 301.917 114.125 304.28C113.784 306.085 113.291 312.011 114.397 313.417C115.51 314.831 124.273 316.33 126.421 316.675L126.353 321.637C123.053 322.959 120.133 325.259 117.58 327.661C112.293 332.637 108.154 338.573 104.871 344.964L102.278 350.689C102.081 348.815 102.172 346.904 102.028 345.02L100.391 324.732C100.153 321.861 100.239 318.451 99.4557 315.715C98.7844 315.344 98.7538 315.396 98.0328 315.514C97.4451 315.929 97.2576 316.278 97.0132 316.943L96.9388 317.155L96.597 317.936Z" fill="#F3ECE4"/>
<path d="M362.274 137.225C362.512 137.158 362.699 137.106 362.949 137.1C363.61 137.084 364.311 137.153 364.801 137.573L363.6 140.648C362.59 143.376 361.382 148.145 362.762 150.895C363.557 152.479 364.65 153.195 366.317 153.76L366.653 153.872C366.139 154.887 365.75 155.748 365.793 156.895C365.838 158.104 366.308 159.182 367.263 159.977C368.106 160.678 369.002 160.93 370.094 160.852L370.295 160.835C370.425 161.082 370.423 161.167 370.378 161.445C370.304 161.906 370.21 162.34 370.255 162.808C370.377 164.063 370.959 165.241 371.977 166.029C372.866 166.717 374.095 167.056 375.21 166.877L375.398 166.842L375.784 167.345C376.075 167.757 376.324 168.156 376.71 168.497C378.042 169.668 379.619 170.043 381.36 169.905L381.638 169.881L381.925 170.283C382.953 172.05 383.763 174.058 384.694 175.889C392.359 190.975 398.121 207.456 399.882 224.275C400.17 227.002 400.683 230.76 399.971 233.424C398.534 238.804 387.883 245.125 383.19 247.866C370.154 255.481 355.412 261.956 339.949 261.989C337.42 261.994 334.627 262.012 332.161 261.404C331.746 256.371 331.604 251.589 330.224 246.664C331.837 245.849 333.605 245.317 335.288 244.653L342.315 241.491C352.416 236.341 361.49 230.222 370.946 224.09C372.241 223.25 373.549 222.341 374.928 221.638C375.859 221.163 377.032 221.051 377.836 220.401L377.79 219.445C377.573 219.233 377.23 218.776 376.935 218.725C374.799 218.352 371.501 220.823 369.776 221.926C368.017 217.644 366.781 213.045 365.427 208.627L357.601 183.209C357.15 181.844 356.648 179.014 355.773 177.925C355.645 177.767 355.297 177.584 355.12 177.458C354.452 177.528 354.2 177.688 353.699 178.118C353.442 179.138 357.381 190.432 357.941 192.251L365.447 217.098C366.176 219.166 367.005 221.14 368.06 223.069C358.858 229.488 349.368 235.695 339.182 240.544L328.004 245.233C323.623 244.019 319.324 242.279 315.346 240.116C314.716 239.773 313.512 239.264 313.058 238.738C312.178 237.718 311.479 235.602 310.881 234.364L304.722 220.359L295.542 197.63C294.379 194.27 293.46 190.772 292.668 187.313L291.053 178.65C290.85 177.343 290.833 174.867 290.12 173.832C289.273 173.55 289.283 173.572 288.463 173.932C287.732 175.373 288.334 177.339 288.573 178.929C289.448 184.743 290.805 190.484 292.645 196.078C289.176 198.656 286.419 201.597 283.767 204.958C277.043 200.008 270.445 196.382 262.669 193.227L262.382 191.444C261.982 189.252 260.651 188.309 258.895 187.11C261.234 183.671 262.692 180.151 264.395 176.412C264.951 175.193 266.172 175.306 267.386 174.828C270.572 173.573 272.89 171.008 274.205 167.953C275.6 164.713 275.454 161.946 274.106 158.746L275.469 156.588L283.225 153.296C283.564 153.165 284.708 152.612 284.964 152.641C285.08 152.654 285.867 153.375 286.003 153.482C287.059 154.319 288.15 155.081 289.357 155.699C292.207 157.156 295.124 157.995 298.3 158.465C301.226 161.841 304.836 164.804 309.003 166.59C315.049 169.182 322.41 169.116 328.514 166.771C336.943 163.534 343.821 155.504 347.323 147.539C348.204 147.84 349.082 148.124 350.006 148.262C352.593 148.651 355.208 148.034 357.321 146.51C360.546 144.185 361.673 140.927 362.274 137.225Z" fill="white"/>
<path d="M262.159 195.559C264.553 196.203 267.158 197.556 269.376 198.643C280.744 204.213 289.684 212.347 297.851 221.715C302.052 226.534 305.972 231.455 309.579 236.716L308.608 236.606C308.141 236.556 307.584 236.459 307.116 236.525C306.417 236.622 305.835 237.006 305.402 237.54C304.587 238.546 304.51 239.77 304.658 241C305.045 244.209 307.241 245.963 309.655 247.838L301.779 248.372C299.411 248.616 296.054 249.171 294.525 251.17C293.692 252.261 293.608 253.544 293.861 254.833L293.908 255.027C293.01 255.631 292.235 256.227 291.839 257.256C291.464 258.228 291.764 258.894 292.175 259.78L292.29 260.026C291.693 260.505 290.994 261.038 290.59 261.688C290.074 262.516 289.98 263.842 290.275 264.761C290.908 266.742 292.396 267.327 294.165 268.167L293.179 269.568L292.371 269.613C290.487 269.866 288.685 272.516 287.55 273.881L285.073 240.681C284.94 239.839 284.782 239.782 284.111 239.304C283.238 239.412 283.242 239.453 282.652 240.101C282.475 241.579 282.675 243.07 282.791 244.546L283.291 251.256L285.418 276.985C282.271 281.301 278.817 285.524 274.934 289.234C274.015 290.113 273.073 290.964 272.058 291.736C271.388 292.247 270.509 292.751 269.983 293.393C268.841 294.785 266.003 295.344 264.336 296.071C262.858 296.716 261.549 297.574 260.394 298.687C258.885 300.141 257.726 301.791 256.954 303.723C255.811 306.585 255.508 309.914 255.251 312.963L254.706 329.003L245.646 323.863C244.286 323.208 242.73 322.856 241.422 322.142C240.013 321.374 238.756 320.226 237.335 319.403C232.642 316.684 227.153 315.159 221.765 314.509C212.729 313.418 202.326 315.221 194.388 319.559C192.531 320.574 190.872 321.854 189.2 323.129L183.651 322.174L183.277 274.362C183.468 253.063 183.948 232.009 190.146 211.419C196.957 204.958 204.96 201.406 213.65 197.949C213.841 204.625 214.748 211.344 217.175 217.636C217.612 218.77 217.915 219.441 219.074 219.958C220.874 219.856 222.546 218.977 224.159 218.245C227.104 216.908 230.014 215.479 232.755 213.773L241.437 218.557C242.923 219.376 244.563 220.522 246.165 221.077C246.691 221.26 247.217 221.291 247.707 220.994C249.029 220.19 250.167 218.587 251.087 217.387C256.015 210.962 259.774 203.228 262.159 195.559Z" fill="#F57A61"/>
<path d="M397.15 256.531C398.435 259.965 399.1 264.047 399.772 267.656C405.187 296.817 399.726 327.006 395.833 356.057L391.754 390.754L389.457 423.691L387.218 463.322C378.863 464.115 370.333 464.577 361.975 463.559L360.174 372.242L359.403 336.468L359.774 310.844L360.039 303.659C360.092 302.558 360.372 301.015 360.041 299.968C359.344 299.519 359.194 299.566 358.345 299.591C358.187 299.762 357.983 299.902 357.871 300.105C357.738 300.347 357.731 301.153 357.702 301.441L357.452 305.851L356.981 324.982C356.956 329.703 357.145 334.5 356.78 339.207L354.307 464.438C346.167 465.04 338.289 465.057 330.212 463.743L322.32 327.537L322.456 312.912C322.461 312.422 322.315 309.883 322.49 309.604C322.58 309.462 325.6 308.659 325.967 308.518C326.815 308.192 327.63 307.685 328.264 307.043C329.592 305.698 329.675 303.741 329.597 301.981C329.489 299.559 329.248 296.376 327.242 294.682C326.189 293.792 325.308 293.741 323.99 293.83L323.65 293.854C327.306 289.55 328.533 285.797 329.381 280.35C341.737 285.335 355.236 285.34 367.879 281.288C380.87 277.124 391.03 268.379 397.15 256.531Z" fill="#0F6451"/>
<path d="M84.3983 141.601C85.8611 142.311 86.9938 142.694 88.6376 142.146C89.6049 141.823 90.5021 141.059 90.9411 140.156C91.3498 139.315 91.4139 138.435 91.4697 137.524L96.358 135.729C98.2829 141.945 106.298 166.3 111.612 169.166C112.067 169.411 112.83 169.374 113.302 169.211C117.871 167.627 123.415 153.941 125.152 149.577L128.237 140.709C128.672 139.246 128.974 136.998 129.643 135.697C129.931 135.136 132.321 133.941 133.019 133.572L146.592 127.039C154.328 123.716 162.515 121.217 170.814 119.659L180.672 118.125C184.085 121.773 187.334 125.088 191.902 127.383C192.011 127.438 192.176 127.438 192.228 127.545C192.411 127.923 192.434 128.758 192.508 129.197L193.17 132.675C194.148 137.037 195.822 141.504 198.515 145.144C199.743 146.803 201.322 148.315 202.736 149.826C201.695 153.207 201.395 157.122 203.185 160.323C204.224 162.183 205.698 163.358 207.778 163.942L208.298 164.077C208.76 169.158 209.491 174.141 211.329 178.947C211.989 180.671 212.746 182.34 213.605 183.977C214.072 184.867 215.679 186.905 215.763 187.763C215.796 188.105 214.958 189.679 214.813 190.12C214.209 191.965 214.129 193.851 213.598 195.673C206.448 198.134 199.421 201.025 193.328 205.516C188.16 209.324 184.009 214.249 180.006 219.172C170.192 231.243 161.57 244.625 154.751 258.537L152.414 263.651L152.134 263.726C151.639 261.813 151.756 259.656 151.7 257.691L151.463 247.219C150.799 216.314 151.817 185.391 157.1 154.85C157.333 153.499 158.282 151.035 157.038 150.141C155.634 150.163 152.813 153.412 151.828 154.41C149.199 157.076 147.063 160.021 145.369 163.334C142.627 168.699 141.001 174.686 139.375 180.447C135.656 193.621 132.828 206.997 130.765 220.513L128.791 236.131C126.285 236.119 122.891 236.439 120.477 235.756C122.783 233.895 125.449 232.377 125.867 229.205C125.965 228.46 125.843 227.518 125.323 226.93C124.901 226.453 124.341 226.249 123.705 226.272C122.152 226.327 120.293 227.36 118.847 227.92C116.232 228.934 113.507 229.826 110.679 229.981C108.619 230.094 106.522 228.963 104.655 228.197C98.3562 225.615 92.2925 222.39 86.4228 218.983L77.0828 213.461C76.583 212.503 74.9473 197.436 75.1899 196.811C75.9106 194.955 77.1233 193.096 78.0351 191.298L83.9643 179.244C84.5519 178.003 86.0482 175.731 85.8251 174.443C85.2841 173.987 85.2047 173.903 84.4669 173.79C83.3456 174.506 82.6171 176.565 82.0418 177.743L77.1799 187.721L72.0136 197.464C72.1211 197.886 72.2145 198.155 72.4331 198.53C73.0447 199.58 72.9887 201.802 73.1115 203.034L74.1259 211.642L68.6316 208.304C68.0352 207.947 66.9901 207.177 66.3241 207.053C66.085 207.008 65.6329 207.108 65.3754 207.128L64.7848 207.774C64.8449 208.554 64.7708 208.625 65.4013 209.144C67.812 211.131 71.1357 212.693 73.8286 214.324C83.3239 220.075 92.6636 225.805 102.897 230.255L98.2786 249.925C84.1838 244.856 69.8411 240.027 56.8525 232.544C53.5751 230.655 50.3437 228.793 47.5613 226.216C45.8231 224.606 44.3093 222.633 43.3185 220.499C40.7518 214.97 41.7503 209.354 43.9086 203.877L52.6045 183.412L57.7369 169.985C58.3628 168.41 58.954 166.441 59.8117 164.992C60.7239 163.451 62.4311 162.465 63.384 160.886C66.0689 162.366 69.3354 164.328 72.553 163.491C73.882 163.146 74.8434 162.238 75.4816 161.074C75.6826 160.708 76.1255 159.155 76.3941 159.083C76.9896 158.925 77.6833 159.041 78.3019 158.982C79.827 158.835 81.3175 157.801 82.1169 156.528C82.9657 155.178 82.9518 154.031 82.7661 152.516L83.0308 152.318C84.4321 151.256 85.2659 150.152 85.4897 148.37C85.7568 146.241 84.5989 144.526 83.42 142.852C83.9596 142.577 84.1343 142.106 84.3983 141.601Z" fill="#0F6451"/>
<defs>
<linearGradient id="paint0_linear_443_11145" x1="120.469" y1="364.445" x2="111.823" y2="362.89" gradientUnits="userSpaceOnUse">
<stop stop-color="#BCA58E"/>
<stop offset="1" stop-color="#A1A09C"/>
</linearGradient>
<linearGradient id="paint1_linear_443_11145" x1="139.482" y1="479.34" x2="126.1" y2="501.992" gradientUnits="userSpaceOnUse">
<stop stop-color="#617E67"/>
<stop offset="1" stop-color="#91A08C"/>
</linearGradient>
<linearGradient id="paint2_linear_443_11145" x1="322.059" y1="387.787" x2="283.66" y2="391.483" gradientUnits="userSpaceOnUse">
<stop stop-color="#979394"/>
<stop offset="1" stop-color="#AAADA9"/>
</linearGradient>
</defs>
</svg>
