<svg width="443" height="530" viewBox="0 0 443 530" fill="none" xmlns="http://www.w3.org/2000/svg">
<path d="M122.69 507H39.3594V21.457H193.555H208.518H403.639V287.067V301.846V507H273.157H263.748H182.282H172.729H132.527H122.69ZM122.69 507C120.67 506.196 118.814 505.435 116.989 504.225C115.041 502.931 107.271 496.667 106.956 494.671C106.772 493.508 105.888 492.868 105.198 491.964C104.731 491.349 104.48 490.765 104.624 489.986C104.995 487.973 107.13 486.778 108.687 485.714C106.789 485.213 105.178 484.715 103.511 483.63C99.7043 481.147 98.4965 477.494 97.6015 473.282L94.4624 479.411C96.689 481.36 98.7672 483.16 99.9543 485.928C96.8615 488.311 93.2041 489.51 89.3529 489.99C77.9453 491.409 64.1531 487.368 54.3542 481.613C51.503 479.941 48.884 477.931 46.2746 475.911C46.5249 474.556 47.5931 472.987 48.2749 471.785L54.7375 461.025C53.2015 460.391 51.5246 459.965 50.0977 459.107L61.4317 388.858L65.8487 366.057L66.9304 360.884C67.0621 360.237 67.3832 359.355 67.3561 358.706C67.2956 357.252 66.9113 355.696 66.6835 354.252L65.2738 345.589L59.0038 310.413C56.4949 294.609 55.0446 278.535 54.583 262.538L54.6421 232.295L54.4121 232.159C47.6501 228.141 42.0325 223.207 40.0513 215.295C39.3855 212.637 39.5409 209.38 40.1939 206.74C41.26 202.43 43.228 198.295 45.0106 194.247L49.1721 184.079L55.4348 167.767C56.5775 164.85 57.5413 161.832 59.1616 159.136C58.37 158.096 58.0434 156.78 57.8437 155.512C57.3651 152.472 57.4593 149.473 57.6628 146.421C58.047 140.657 58.8719 135.261 62.4214 130.52C65.1449 126.882 69.0143 123.773 73.6492 123.147C77.3822 122.642 81.2615 122.725 84.7336 124.355L84.9804 124.473C86.3259 123.55 87.7246 122.513 89.2387 121.885C90.8598 121.211 92.8911 120.894 94.5467 121.63C97.0853 122.758 97.8583 125.004 98.7683 127.431C99.6978 127.094 100.666 127.163 101.642 127.162C101.747 127.074 101.826 127.021 101.891 126.886C102.138 126.376 102.997 123.915 102.943 123.434C102.943 123.431 102.4 122.999 102.372 122.976C96.2795 118.015 90.9669 110.667 88.3735 103.258C87.1078 103.122 85.7225 103.19 84.5023 102.826C82.0107 102.082 79.6062 99.8151 78.4483 97.5254C77.1847 95.0269 76.5131 91.7366 77.2836 88.9998C77.4401 88.4431 78.0915 87.3251 78.0947 86.8325C78.1064 85.0326 77.1548 82.6611 76.9097 80.7794C75.8244 72.4398 75.8585 64.3965 78.502 56.308C81.1854 48.0972 87.4411 38.9422 96.6445 37.651C97.7747 37.4924 98.9963 37.3845 100.134 37.447C101.017 37.4955 102.699 37.925 103.458 37.7227C103.822 37.6257 104.736 36.7279 105.091 36.4719C106.016 35.8057 107.02 35.2497 108.034 34.7313C115.481 30.923 124.875 30.4973 132.797 33.1104C141.605 36.0158 148.348 42.1583 152.467 50.3896C158.212 61.8702 157.995 75.0133 154.059 86.9829L154.62 87.159C155.432 87.4172 156.069 87.7096 156.701 88.2866C158.205 89.6621 158.777 91.8391 158.864 93.8118C158.995 96.7535 157.975 99.8831 155.933 102.026C153.984 104.071 151.661 105.12 148.868 105.176C145.966 110.67 143.225 115.864 138.631 120.192C136.542 122.16 134.191 123.846 131.639 125.161C130.831 125.578 128.682 126.345 128.253 127.077C128.456 127.378 128.609 127.533 128.909 127.752C130.3 128.767 130.99 128.267 132.424 127.6L145.672 121.06C156.578 116.238 168.02 113.382 179.784 111.654L175.914 104.16L172.101 104.186C169.636 103.974 167.324 102.369 165.776 100.522C163.402 97.6919 162.342 93.4102 162.742 89.7827C163.059 86.9146 164.679 84.3051 166.909 82.5455L164.004 76.6457C160.301 68.5892 156.259 58.104 159.602 49.3108C160.709 46.3995 162.697 43.76 165.203 41.9051C167.461 40.2336 170.049 39.0256 172.218 37.2276C174.342 35.4668 176.051 33.2966 177.96 31.3196C180.632 28.5512 183.644 26.1734 187.047 24.3596C189.143 23.2422 191.383 22.4123 193.555 21.457H39.3594V507H122.69ZM208.518 21.457C212.035 23.0166 215.546 24.4443 218.226 27.3162C219.037 28.1846 219.769 29.1427 220.405 30.1453C220.581 30.4235 221.222 31.7288 221.436 31.8522C221.796 32.059 223.728 31.9239 224.324 32.042C230.06 33.1788 234.024 36.891 236.074 42.2621C239.398 50.9713 238.108 61.0645 239.003 70.1831L239.321 70.2891C241.904 71.1674 243.483 72.9296 244.648 75.3487C245.242 76.5802 245.567 77.7971 245.796 79.136C246.375 82.5284 245.539 86.0232 244.511 89.231C248.534 91.0764 251.652 94.3984 253.718 98.2834C253.933 98.6858 254.489 99.9233 254.566 99.9332C255.166 100.01 256.668 99.4068 257.386 99.3047C261.158 98.7686 265.017 99.877 268.281 101.732C266.757 87.1711 268.324 72.5312 277.876 60.7896C281.903 55.8397 287.648 51.9163 294.122 51.1777C295.022 51.0751 296.631 51.3769 297.397 51.1298C298.093 50.9053 299.243 49.8307 299.898 49.3925C301.229 48.5035 302.632 47.7428 304.121 47.1532C314.351 43.1003 326.103 46.258 334.386 53.0476C345.886 62.4742 350.384 77.3304 351.693 91.6509C352.082 95.9023 352.16 100.104 352.149 104.368C352.142 107.445 351.826 110.955 352.421 113.978C352.772 115.764 353.626 117.815 355.062 118.997C356.306 120.02 357.814 120.471 359.424 120.279C360.102 120.198 360.823 120.099 361.422 119.748C362.57 119.075 363.291 117.683 364.732 118.425C366.625 121.074 366.502 125.774 365.991 128.84L365.742 130.633L366.393 131.292C369.172 130.725 370.51 129.14 373.478 131.001C374.694 131.763 375.542 133.295 375.841 134.686C376.008 135.462 376.06 138.631 376.366 138.915L376.627 138.951C378.023 139.16 379.002 139.69 379.863 140.828C381.291 142.713 380.881 145.283 380.954 147.505L381.263 147.532C382.669 147.659 383.714 147.957 384.638 149.125C385.549 150.278 386.04 152.049 385.824 153.501C385.69 154.401 385.241 155.586 384.75 156.357L384.885 156.469L385.106 156.66L385.328 156.845C386.599 157.917 387.145 159.206 387.232 160.861C387.319 162.507 386.548 164.021 385.507 165.229C385.392 165.362 384.728 166.007 384.704 166.131C384.605 166.648 386.167 169.323 386.478 169.94L391.084 179.846C396.215 191.954 399.879 203.966 402.181 216.925C403.07 221.928 404.223 227.945 402.775 232.92C402.099 235.235 400.124 237.385 398.467 239.056L396.61 240.878C397.328 243.573 397.926 246.22 397.567 249.032C397.46 249.864 396.933 251.325 397.026 252.096C397.079 252.541 397.485 253.228 397.638 253.679L398.584 256.662C399.744 260.615 400.722 264.706 401.469 268.758L402.914 278.335L403.348 284.166C403.404 285.083 403.333 286.197 403.639 287.067V21.457H208.518ZM403.639 301.846L403.597 302.035C402.97 304.889 403.141 308.202 402.842 311.139L400.203 335.198L394.472 380.279L390.117 436.349L388.279 469.373C387.225 469.821 385.862 469.398 384.754 469.739L385.888 478.703C378.533 484.697 370.229 488.884 361.049 491.281C356.432 492.484 351.987 493.252 347.205 492.747C344.016 492.412 340.687 491.424 338.31 489.175C337.951 488.837 337.281 487.785 336.922 487.6C336.871 487.575 331.967 488.809 331.305 488.923C325.1 489.99 314.956 490.097 310.698 484.622C309.888 483.58 309.454 482.463 309.688 481.126C310.218 478.102 315.329 474.965 317.849 473.385L326.821 468.701L324.252 452.833C319.977 462.426 314.303 473.763 303.794 477.746C300.268 479.084 294.075 479.468 290.545 477.871C289.059 477.199 287.787 475.096 286.81 473.805C286.369 484.359 285.065 496.46 276.84 504.137L273.157 507H403.639V301.846ZM182.282 507H263.748L262.726 506.367C256.686 502.447 253.398 495.126 251.974 488.293C250.102 479.308 250.796 468.907 254.083 460.331C255.439 456.792 257.229 453.686 259.298 450.531L241.909 433.656L224.375 452.477C223.391 453.572 221.383 455.283 220.738 456.525C220.038 457.873 219.958 460.697 219.712 462.266L216.294 486.02C216.079 487.372 215.527 488.425 215.214 489.695C214.91 490.933 214.896 492.387 214.67 493.672C213.054 494.899 211.048 495.532 209.269 496.496C206.242 498.129 203.287 499.904 200.145 501.319C194.364 503.92 188.412 505.467 182.282 507ZM306.696 335.404C304.975 338.805 303.929 342.371 302.838 346.009C300.137 355.011 298.567 364.04 297.426 373.35C296.557 380.449 295.916 387.542 295.826 394.699C297.088 394.824 298.659 395.162 299.905 395.005C300.25 392.885 300.949 390.541 302.727 389.175C303.547 388.545 304.653 388.147 305.686 388.311C307.042 388.524 308.16 389.342 308.902 390.473C310.502 392.921 310.649 396.478 309.963 399.241C309.56 400.864 308.523 402.777 307.029 403.599C306.021 404.154 304.912 404.168 303.839 403.795C302.387 403.289 301.213 401.692 300.62 400.326C300.277 399.537 299.991 398.729 299.826 397.883L295.678 397.893C295.3 401.778 295.803 405.886 296.107 409.774L299.174 436.054C300.811 443.559 302.2 450.784 305.237 457.909C310.432 448.4 312.236 436.918 313.617 426.297C315.711 410.201 316.324 394.585 315.281 378.39C314.549 367.015 313.073 355.508 309.86 344.547C308.992 341.585 308.182 338.111 306.696 335.404ZM95.7772 317.592L95.4353 318.392L84.1605 465.457L77.8176 466.044L92.2543 477.686C94.4364 473.887 96.7185 469.889 98.4193 465.866C98.7281 465.137 99.2514 464.407 99.345 463.614L99.0362 463.419C97.0703 462.06 98.8843 456.93 99.5769 455.109C99.8003 454.522 100.389 453.473 100.451 452.893C100.475 452.662 100.155 451.922 100.079 451.673L98.9771 448.013L97.1177 440.333C95.1177 430.857 94.0608 421.16 93.7602 411.485C93.3852 399.416 93.9174 387.119 95.758 375.175L97.4823 365.462C97.8313 363.915 98.6164 362.163 98.7334 360.61C98.8426 359.16 98.5363 357.463 98.4353 355.999L97.9248 347.716L96.5353 326.581C96.3083 323.611 96.3368 320.513 95.7772 317.592ZM150.357 189.18L141.823 195.934C140.438 196.954 138.253 197.956 137.123 199.132C136.361 199.926 133.598 219.518 133.3 221.929L131.91 234.784C133.462 234.785 134.981 234.78 136.522 235.008C137.484 236.01 138.097 236.712 138.468 238.091C138.614 238.631 138.616 239.299 138.849 239.797C139.255 240.667 139.98 241.388 140.336 242.298C140.697 243.221 140.674 244.286 140.854 245.251C141.097 246.548 142.13 248.03 142.818 249.159L149.605 259.679L150.357 189.18ZM267.428 406.469L249.526 425.347L264.926 440.45C265.89 441.421 267.752 443.758 268.912 444.249C269.658 444.566 271.541 444.395 272.436 444.509C273.915 444.694 275.23 445.181 276.579 445.793L272.948 406.665L267.428 406.469ZM232.017 396.044C231.348 399.665 230.497 403.325 230.02 406.971C229.98 407.277 229.914 407.302 230.093 407.561C230.99 408.856 232.731 410.148 233.889 411.257L240.363 417.742C241.416 417.055 242.412 415.661 243.266 414.729L249.042 408.465L260.521 396.044H232.017ZM149.075 309.393C145.419 311.409 141.231 312.772 137.247 314.022L137.188 333.443C137.188 336.742 136.983 340.21 137.317 343.486L137.663 343.497L149.267 337.706L150.109 315.197C150.131 313.927 150.52 310.439 149.907 309.457C149.637 309.43 149.346 309.376 149.075 309.393ZM124.788 361.092C120.918 368.529 119.016 377.227 118.031 385.493C116 402.528 117.431 419.517 121.177 436.232L121.417 436.484L122.064 436.129L124.814 434.546C125.164 433.037 125.957 431.006 126.046 429.527C126.083 428.918 125.237 427.161 125.017 426.51L123.062 419.816C120.216 408.092 119.775 395.944 121.971 384.085C122.447 381.516 123.003 378.443 124.188 376.125C125.461 373.638 124.95 370.629 124.857 367.919L124.788 361.092ZM302.785 330.019C300.274 331.998 298.98 335.105 297.904 338.036C295.091 345.701 293.498 354.418 292.534 362.517L290.548 395.076L293.417 394.969C294.128 380.247 295.728 365.596 298.971 351.204C300.333 345.164 301.923 337.919 305.781 332.96C305.102 331.794 304.468 330.9 303.458 329.999L302.785 330.019ZM125.185 380.197C122.21 392.326 122.471 405.353 125.066 417.518C125.545 419.762 126.016 422.594 127.122 424.586L127.926 421.107L132.971 395.4C129.216 393.347 127.175 389.623 126.011 385.614C125.517 383.918 125.18 381.965 125.185 380.197ZM292.994 397.822L290.751 397.929C289.883 399.085 291.422 424.387 291.729 427.876L292.72 435.734C293.173 438.885 293.873 442.005 294.591 445.107C295.845 450.521 297.319 456.415 301.42 460.413L302.015 460.861C302.527 460.548 302.91 460.295 303.281 459.822C299.225 449.606 297.246 438.579 295.769 427.734C294.478 418.265 293.571 408.678 293.365 399.121C293.352 398.537 293.507 398.171 292.994 397.822ZM356.073 365.107C355.298 374.138 355.52 383.359 355.434 392.423L355.069 429.342L355.391 457.866C355.522 461.971 355.427 466.364 356.048 470.415L356.758 470.152L358.223 469.377C358.592 467.968 358.097 465.595 358.044 464.077L357.664 449.354L356.667 390.096L356.462 374.51C356.448 372.698 356.875 366.522 356.073 365.107ZM132.527 507H172.729C167.661 505.712 160.811 503.916 157.153 499.957C156.661 499.423 155.535 499.47 154.838 499.395C152.838 499.178 150.82 499.043 148.866 498.548C146.417 497.926 138.453 503.806 136.126 505.211C134.985 505.897 133.739 506.445 132.527 507ZM108.567 391.558C107.544 392.871 107.43 396.318 106.93 398.018C105.509 409.778 107.323 422.366 109.445 433.948C109.98 436.865 110.488 440.6 111.765 443.271L114.357 441.468C111.047 427.229 109.543 412.677 109.796 398.061L110.369 388.752C110.559 386.827 111.101 384.551 110.925 382.651C110.314 384.544 110.033 386.571 109.646 388.52C109.448 389.52 109.336 390.623 108.675 391.434L108.567 391.558ZM178.624 397.203L173.775 426.46L177.342 422.338C178.863 420.712 180.347 418.894 181.993 417.408C183.637 415.921 185.349 408.116 186.063 405.733L178.624 397.203ZM294.02 196.188C291.006 198.311 287.971 201.121 286.29 204.435C288.84 206.592 291.385 208.681 293.708 211.088C296.642 214.127 299.284 217.51 302.057 220.7L305.382 224.88L294.02 196.188ZM318.085 310.578L308.838 312.821L308.886 313.118C309.099 314.52 309.037 315.886 308.977 317.295C310.884 318.235 312.651 319.194 314.285 320.565C315.678 321.956 316.945 323.291 318.098 324.893C318.217 325.059 318.339 325.189 318.492 325.324L318.745 314.594C318.751 313.347 318.946 311.699 318.6 310.514L318.085 310.578ZM125.084 340.493C120.752 347.269 117.784 354.727 115.401 362.378C114.407 365.57 113.312 369.111 112.981 372.437L113.103 372.219C114.863 367.595 116.045 363.208 118.548 358.86C119.911 356.493 121.663 354.338 123.304 352.162C123.76 351.557 124.757 350.515 124.989 349.859C125.169 349.35 125.068 348.175 125.091 347.605L125.084 340.493ZM227.544 421.196L226.01 429.694C225.829 430.736 225.358 432.233 225.485 433.269L227.987 430.708L232.593 426.023L227.544 421.196ZM321.725 424.138L320.136 432.913C319.725 434.923 318.882 437.37 319.031 439.394L319.344 439.077C320.524 437.189 322.116 433.934 322.245 431.675C322.382 429.278 321.849 426.56 321.725 424.138ZM170.795 445.953C169.616 448.312 169.395 452.552 169.077 455.198L169.236 455.436L169.679 454.782C170.159 453.679 171.991 450.318 171.892 449.233C171.795 448.166 171.466 447.308 171.47 446.188C171.158 445.971 171.194 445.907 170.795 445.953Z" fill="black"/>
<path d="M297.676 465.395C298.009 465.313 297.94 465.284 298.193 465.331C299.05 465.487 299.955 465.583 300.829 465.53C301.518 465.487 302.21 465.178 302.883 465.395L301.959 466.337L301.547 466.711C301.007 467.163 300.682 467.543 299.959 467.486C298.993 466.892 298.39 466.266 297.676 465.395Z" fill="#FEFEFE"/>
<path d="M165.621 478.148L169.279 480.041L167.304 481.816L164.838 483.705C164.448 482.588 165.355 479.312 165.621 478.148Z" fill="#B6B5AD"/>
<path d="M83.8494 139.235C82.7171 138.084 79.9842 135.909 79.8555 134.303C80.5104 133.634 80.5228 133.634 81.4574 133.559C82.7338 134.073 84.0315 136.771 84.8277 137.954C84.5637 138.471 84.389 138.953 83.8494 139.235Z" fill="#D7C1AF"/>
<path d="M278.368 339.738H279.212C279.418 340.872 278.548 343.281 278.324 344.475L277.013 352.778L276.676 353.223L276.592 353.105C276.336 352.594 276.716 340.856 277.029 339.976L278.368 339.738Z" fill="#B6B5AD"/>
<path d="M119.142 449.273L119.53 449.316C119.055 450.696 117.096 457.782 116.438 458.365L116.083 457.746L114.668 453.631C116.055 451.998 117.516 450.654 119.142 449.273Z" fill="#92A090"/>
<path d="M112.919 473.823L113.236 473.098L113.704 473.318C114.318 475.808 115.49 477.167 116.831 479.262C116.628 479.44 116.64 479.497 116.36 479.508C115.183 479.561 113.983 480.112 113.174 480.977C112.311 481.901 111.835 483.146 110.969 484.11C111.287 480.582 112.264 477.284 112.919 473.823Z" fill="#B6B5AD"/>
<path d="M382.658 158.845C383.479 158.74 383.49 158.745 384.181 159.202C384.417 159.509 384.594 159.822 384.644 160.213C384.779 161.288 384.636 162.324 383.922 163.175C383.009 164.265 382.27 164.312 380.929 164.415L380.295 164.246C379.522 163.987 379.126 163.59 378.773 162.875C378.809 162.623 378.84 162.399 378.94 162.164C379.482 160.888 381.422 159.416 382.658 158.845Z" fill="#D7C1AF"/>
<path d="M286.595 325.039L286.889 325.053C286.981 325.509 282.545 335.383 282.01 336.7L277.305 337.188C277.846 336.079 279.216 334.769 279.991 333.756L286.595 325.039Z" fill="#B16E51"/>
<path d="M181.379 395.926H189.278L187.278 401.201L186.756 402.556C186.116 402.254 185.514 401.372 185.042 400.835L181.012 396.232L181.379 395.926Z" fill="#B6B5AD"/>
<path d="M122.822 439.078L123.316 439.121L123.293 439.309C123.105 440.33 122.278 443.066 121.699 443.862C121.382 444.296 120.367 444.862 119.913 445.2L113.409 449.796L112.441 446.537L122.822 439.078Z" fill="#B6B5AD"/>
<path d="M91.6538 123.419C92.3738 123.408 93.1639 123.483 93.8011 123.841C95.388 124.732 96.1433 126.869 96.5819 128.509L96.2945 128.755C94.7527 130.055 94.1792 130.492 92.0892 130.926C91.6762 131.009 91.5727 131.049 91.181 130.914C90.3667 128.946 88.895 127.424 87.4023 125.955C88.72 124.849 90.0469 124.033 91.6538 123.419Z" fill="#D7C1AF"/>
<path d="M207.093 144.62C207.273 144.535 207.302 144.507 207.531 144.482C208.071 144.424 208.952 144.635 209.338 145.041C209.681 145.403 210.024 145.881 209.941 146.396C209.826 147.116 209.097 148.049 208.712 148.67C207.981 149.85 207.326 151.239 207.28 152.652C207.262 153.219 207.345 153.214 207.728 153.629L208.098 153.559C208.244 153.146 208.394 152.737 208.47 152.304C208.657 151.253 209.041 150.311 209.427 149.319L209.027 153.718C208.771 155.189 208.854 156.899 208.778 158.403L207.877 157.914C206.47 157.108 205.576 155.988 205.167 154.412L205.092 154.103L204.92 153.219C204.565 150.199 205.231 147.04 207.093 144.62Z" fill="#D7C1AF"/>
<path d="M128.086 286.738L133.46 294.425C133.974 295.125 135.23 296.44 135.29 297.209L134.341 297.417L127.828 298.511L128.086 286.738Z" fill="#70836F"/>
<path d="M304.708 390.95C305.062 390.886 305.449 390.901 305.809 390.883C306.423 391.26 306.821 391.662 307.189 392.277C308.24 394.031 308.365 396.56 307.86 398.506C307.544 399.722 306.919 400.807 305.809 401.447C305.485 401.494 305.201 401.519 304.873 401.465C304.297 401.369 303.708 400.736 303.394 400.281C302.305 398.701 302.087 396.322 302.499 394.486C302.845 392.946 303.305 391.818 304.708 390.95Z" fill="#B6B5AD"/>
<path d="M380.238 149.837L380.987 149.699C381.413 149.797 381.826 149.909 382.166 150.2C382.813 150.754 383.405 151.811 383.452 152.67C383.583 155.094 377.898 158.811 376.337 160.8L376.244 160.92L375.862 161.272C374.994 161.341 374.796 161.343 374.013 160.98C373.734 160.642 373.425 160.282 373.316 159.848C372.702 157.388 376.514 154.866 377.919 153.234C378.806 152.203 379.522 150.989 380.238 149.837Z" fill="#D7C1AF"/>
<path d="M180.335 422.953L180.424 423.142C180.226 424.725 179.593 426.382 179.099 427.905L176.008 436.47C175.278 438.234 172.766 440.219 171.367 441.607C171.526 439.376 172.188 437.135 172.54 434.926C172.683 434.026 172.68 432.155 173.043 431.394C173.364 430.722 174.398 429.801 174.919 429.196L180.335 422.953Z" fill="#9B8B76"/>
<path d="M269.62 155.29C269.828 155.221 270.004 155.184 270.224 155.163C270.833 155.104 271.286 155.215 271.748 155.634C272.966 156.739 273.446 158.792 273.422 160.387C273.372 163.731 271.458 166.497 269.105 168.687C268.247 169.308 267.266 169.738 266.316 170.2L269.62 155.29Z" fill="#D7C1AF"/>
<path d="M152.044 89.1447L152.796 89.0433C153.512 89.0298 154.428 89.4417 154.94 89.9386C156.257 91.2163 156.577 93.124 156.533 94.8727C156.457 97.8827 155.234 99.6281 153.105 101.617C152.098 102.344 150.838 102.73 149.684 103.171L152.044 89.1447Z" fill="#D7C1AF"/>
<path d="M375.89 141.777H376.903C377.657 142.093 377.999 142.534 378.344 143.269C378.928 144.51 378.533 146.861 378.09 148.133C377.081 151.026 374.361 153.845 371.625 155.161C370.944 155.175 370.384 155.106 369.725 154.934C369.481 154.698 369.161 154.488 369.076 154.155C368.823 153.168 368.985 152.683 369.459 151.816C370.372 150.148 372.276 149.338 373.351 147.694C374.582 145.81 374.776 143.614 375.89 141.777Z" fill="#D7C1AF"/>
<path d="M229.505 410.383L238.68 419.521L236.011 422.299L234.08 424.209L228.125 418.351L229.505 410.383Z" fill="#9B8B76"/>
<path d="M288.209 317.453H288.97L277.514 332.864L277.233 333.095L277.051 332.982L277.374 319.786L288.209 317.453Z" fill="#B16E51"/>
<path d="M83.1563 86.0613L83.3558 86.051C84.9012 86.0343 85.7293 86.8667 86.7532 87.8744C86.6009 90.533 86.3629 93.0884 86.6653 95.7558C86.787 96.8304 87.672 100.022 87.1907 100.761C86.3106 100.745 85.5326 100.607 84.6806 100.414C82.2541 99.065 80.7045 97.4753 79.8667 94.7638C79.2399 92.7352 79.0364 90.0286 80.1509 88.1291C80.818 86.9929 81.9176 86.3701 83.1563 86.0613Z" fill="#D7C1AF"/>
<path d="M236.981 72.5479C237.689 72.4693 238.489 72.5568 239.168 72.7766C240.65 73.2572 241.796 74.5079 242.493 75.8613C244.436 79.6365 243.844 84.086 242.584 87.9579L242.227 88.335L237.766 87.8882L237.126 80.4471C236.927 78.7497 235.673 74.1379 236.261 72.7848L236.981 72.5479Z" fill="#D7C1AF"/>
<path d="M167.568 84.875L168.102 84.9081C168.952 86.004 169.226 87.3169 169.821 88.5498C170.18 88.6811 170.469 88.8042 170.783 89.024L173.054 96.5757C173.557 98.1085 174.693 100.217 174.717 101.791C174.034 102.214 172.948 101.99 172.166 101.939C170.141 101.254 168.64 100.375 167.302 98.6616C165.484 96.3349 164.582 92.9638 164.947 90.0392C165.21 87.9348 165.858 86.1961 167.568 84.875Z" fill="#D7C1AF"/>
<path d="M195.402 124.98C198.232 125.815 200.805 126.236 203.756 126.287C203.69 130.219 204.043 134.188 204.51 138.088C204.676 139.477 205.186 141.123 205.191 142.489C205.192 142.769 205.092 142.953 204.979 143.2L204.304 143.541C198.896 139.736 196.59 131.177 195.402 124.98Z" fill="#FEFEFE"/>
<path d="M369.164 132.696L370.793 132.609C371.585 132.664 372.339 133.148 372.819 133.765C373.913 135.174 373.844 137.315 373.619 138.997C373.226 141.951 372.252 146.035 369.768 147.943C368.973 148.235 368.251 148.203 367.427 148.056C366.723 147.929 366.139 147.516 365.767 146.906C364.575 144.945 365.492 141.679 366.032 139.626L367.198 135.808C367.38 135.16 367.55 134.096 367.96 133.561C368.241 133.194 368.769 132.927 369.164 132.696Z" fill="#D7C1AF"/>
<path d="M150.691 339.977L150.904 340.243L145.658 353.924L137.422 354.019L137.464 346.504L150.691 339.977Z" fill="#B6B5AD"/>
<path d="M103.481 462.309L103.528 462.334C104.563 462.853 106.153 467.079 106.813 468.309C107.672 469.907 108.585 471.45 109.638 472.93C109.64 474.566 108.486 481.396 107.637 482.509L106.831 482.353C105.962 482.047 105.174 481.645 104.459 481.062C101.879 478.956 100.764 476.281 100.443 473.023C100.07 469.241 101.076 465.254 103.481 462.309Z" fill="#B6B5AD"/>
<path d="M106.929 398.019C106.851 397.681 106.799 397.382 106.805 397.033C106.976 386.515 108.417 375.83 110.736 365.581C112.186 359.171 113.892 352.745 117.015 346.917C119.05 343.12 121.665 339.877 124.759 336.895L124.965 337.013L124.963 338.673C122.106 342.482 119.983 346.903 118.117 351.263C113.788 361.382 111.274 371.574 109.653 382.435C109.199 385.476 108.639 388.475 108.566 391.559C107.544 392.871 107.429 396.318 106.929 398.019Z" fill="url(#paint0_linear_434_9147)"/>
<path d="M277.993 128.973L278.513 129.088L278.536 129.395C278.997 135.913 277.368 148.222 273.111 153.155L272.036 152.79L270.591 152.332C270.49 152.211 270.327 152.122 270.289 151.969C270.215 151.682 270.429 150.759 270.465 150.434L270.854 146.519L271.627 137.455C271.721 135.772 271.646 134.019 271.832 132.351C271.834 132.334 271.911 131.859 271.944 131.826C272.158 131.611 273.757 131.238 274.175 131.087C275.591 130.576 276.773 129.845 277.993 128.973Z" fill="#B6B5AD"/>
<path d="M155.65 490.999C155.974 490.924 155.983 490.881 156.314 490.999C155.297 491.977 154.626 492.859 153.968 494.108C150.54 495.196 147.055 496.242 143.799 497.789C139.251 499.948 134.784 504.06 129.708 504.647C123.724 505.341 119.33 503.146 114.783 499.493L110.922 495.872C116.999 498.07 124.161 500.144 130.69 499.326C134.356 498.867 138.018 497.633 141.523 496.48C146.28 494.915 151.091 493.065 155.65 490.999Z" fill="url(#paint1_linear_434_9147)"/>
<path d="M248.01 427.285C249.976 428.822 251.788 430.974 253.576 432.735L266.263 445.063C264.493 445.832 263.059 446.814 261.552 448.016L260.987 448.411L243.789 431.806L248.01 427.285Z" fill="#9B8B76"/>
<path d="M208.913 114.238C210.927 117.466 213.122 119.287 216.603 120.779C213.607 126.561 212.25 133.018 210.914 139.34L210.421 142.327L207.702 141.829L207.524 141.513C207.159 140.607 207.156 138.602 207.046 137.583C206.174 129.472 206.426 122.055 208.913 114.238Z" fill="#B6B5AD"/>
<path d="M130.527 469.137C137.278 468.308 143.837 471.054 149.225 474.895C150.181 475.578 153.615 477.819 153.791 478.869C153.15 479.377 152.494 479.747 151.723 480.011C148.689 481.056 145.536 479.103 142.871 477.819C137.929 475.461 132.056 472.669 126.421 473.352C124.076 473.636 122.224 476.13 120.844 477.816C120.995 476.414 120.991 474.013 121.756 472.839C123.288 470.492 127.967 469.546 130.527 469.137Z" fill="#92A090"/>
<path d="M224.43 193.312C226.843 194.586 229.22 195.715 231.872 196.424C238.635 198.234 244.756 197.215 250.759 193.711C249.48 195.769 247.883 197.646 246.269 199.447C242.701 203.113 238.775 205.496 234.116 207.536L233.508 207.165C232.319 206.438 231.001 205.724 229.979 204.773C226.635 201.663 225.462 197.6 224.43 193.312Z" fill="#D7C1AF"/>
<path d="M184.071 471.059C193.917 471.478 202.211 477.867 208.921 484.583L207.22 486.767C204.174 485.781 201.592 483.85 198.941 482.103C193.487 477.867 184.22 475.437 177.338 475.9C175.376 476.035 174.065 476.505 172.764 478.027L172.58 478.244L172.218 478.052C172.139 477.497 172.107 477.444 172.482 476.981C175.261 473.556 179.768 471.489 184.071 471.059Z" fill="#92A090"/>
<path d="M57.3984 234.195C69.9817 241.063 83.3219 245.754 96.701 250.738L86.1241 249.662C76.1914 248.352 66.5421 245.791 57.4404 241.601L57.3984 234.195Z" fill="#70836F"/>
<path d="M217.753 187.324C218.5 188.337 219.276 189.168 220.219 189.995C220.657 190.38 221.515 190.929 221.833 191.384C221.94 191.537 221.973 192.275 222.007 192.51C222.202 193.869 222.373 195.233 222.657 196.577C223.35 199.845 224.858 203.405 227.274 205.786C228.644 207.137 230.382 208.206 231.992 209.253C230.702 210.275 229.068 211.017 227.626 211.815L223.194 214.084C222.617 214.362 220.603 215.478 220.098 215.3C217.022 205.853 215.57 197.151 217.753 187.324Z" fill="#FEFEFE"/>
<path d="M309.3 333.992C313.194 338.406 314.915 345.684 316.152 351.353C319.606 367.188 320.728 384.023 320.433 400.201C320.364 404.036 319.852 407.881 319.485 411.694L316.167 435.697C315.315 440.197 314.383 444.867 312.965 449.225C311.733 453.013 310.187 456.332 308.039 459.683C307.743 460.063 307.55 460.245 307.116 460.458C307.058 460.366 306.969 460.284 306.942 460.177C306.934 460.145 307.311 459.42 307.344 459.352C308.69 456.592 309.863 453.87 310.869 450.964C312.946 444.967 314.142 438.895 315.245 432.659C317.564 419.541 318.393 406.277 318.279 392.969C318.109 373.033 315.76 352.922 309.3 333.992Z" fill="#B6B5AD"/>
<path d="M258.123 186.637C258.867 187.173 260.461 188.263 260.606 189.21C260.728 190.008 260.339 191.266 260.153 192.061C259.565 194.558 258.493 196.965 257.476 199.313C256.088 202.519 254.647 205.674 252.845 208.672C251.149 211.493 249.217 214.172 247.166 216.744L241.411 213.514L234.918 210.042L240.791 207.084C245.503 204.481 249.517 200.178 252.411 195.697C253.227 194.435 254.232 192.848 254.636 191.399C255.133 189.611 256.918 188.027 258.123 186.637Z" fill="#FEFEFE"/>
<path d="M134.012 315.318L134.446 315.234L134.678 315.436L134.622 354.119L128.414 354.154C128.07 354.099 127.958 354.026 127.672 353.843L127.78 317.169C129.969 316.85 131.976 316.17 134.012 315.318Z" fill="#B6B5AD"/>
<path d="M270.734 296.488C271.645 298.036 272.251 300.171 272.84 301.871C270.82 302.349 269.07 302.842 267.542 304.333C266.261 305.581 265.553 307.08 265.209 308.817C264.799 310.887 265.257 313.394 265.217 315.518L264.822 337.678L261.921 335.06L257.57 331.288L257.958 315.662C258.165 311.883 258.353 307.658 259.957 304.177C262.123 299.478 266.217 298.136 270.734 296.488Z" fill="#B6B5AD"/>
<path d="M154.823 151.676L150.748 185.59C147.211 189.015 142.733 192.375 138.639 195.12L138.207 194.99C138.762 191.489 139.74 188.011 140.589 184.57L144.581 170.556C145.785 166.8 147.116 162.853 149.024 159.39C150.6 156.532 152.659 154.098 154.823 151.676Z" fill="#70836F"/>
<path d="M130.356 300.832C131.614 300.627 137.604 300.496 138.664 301.023C139.445 301.411 140.809 303.174 141.473 303.843C143.009 305.391 144.509 306.781 146.297 308.035L130.495 313.907C125.547 315.573 120.023 313.359 115.184 312.084L115.528 305.124C116.548 304.36 117.85 303.903 119.034 303.451C122.635 302.076 126.534 301.256 130.356 300.832Z" fill="#42634C"/>
<path d="M212.375 317.427C213.155 317.146 214.973 317.263 215.84 317.26C222.727 317.243 228.539 318.429 234.892 321.09L229.196 321.229C221.783 322.092 216.013 325.118 211.347 330.95L208.567 335.203C207.377 334.317 206.397 333.09 205.24 332.133C201.283 328.86 197.007 326.499 192.195 324.724C198.759 320.502 204.629 318.345 212.375 317.427Z" fill="#B6B5AD"/>
<path d="M124.623 352.176C124.744 353.276 124.693 354.433 124.712 355.541C124.716 355.784 124.814 356.55 124.732 356.749C124.369 357.626 123.474 358.644 122.972 359.488C120.089 364.336 118.554 369.878 117.336 375.345C112.747 395.945 113.998 418.042 119.2 438.403L115.886 440.502L115.32 440.576C113.217 433.405 112.489 425.224 111.746 417.79C110.84 408.73 110.696 399.67 111.429 390.596C112.543 376.801 115.659 363.11 124.623 352.176Z" fill="#B6B5AD"/>
<path d="M221.681 34.4961L223.55 34.5771C226.549 34.796 229.605 36.3985 231.53 38.6985C236.582 44.7351 236.131 55.5938 236.409 63.0664C236.496 65.3906 236.863 67.8706 236.652 70.176C236.143 70.4012 235.856 70.5459 235.285 70.4129L234.547 68.6304C232.218 62.9708 228.751 58.0545 225.331 53.0205C222.176 48.3756 219.478 44.4942 217.902 38.9995C219.751 37.6384 220.759 36.6303 221.681 34.4961Z" fill="#777045"/>
<path d="M304.684 321.413L305.435 321.383C308.72 321.306 311.076 322.376 313.432 324.659C315.363 326.531 318.393 330.335 318.446 333.101L318.263 333.201C316.83 331.002 315.017 328.764 312.736 327.396C310.521 326.066 307.825 325.651 305.31 326.329C302.004 327.221 299.569 329.475 297.889 332.398C294.35 338.554 292.854 346.029 291.609 352.933C289.886 362.498 289.072 372.049 288.517 381.745C287.781 394.614 287.706 407.587 288.657 420.45C289.409 430.612 290.747 440.768 293.349 450.631C294.853 455.259 296.509 459.827 300.335 463.039C299.364 463.078 298.058 462.669 297.234 462.178C293.165 459.741 291.306 451.3 290.284 446.939C288.916 441.106 287.87 435.208 287.337 429.239C286.377 418.472 286.259 407.598 286.401 396.798C286.64 378.607 287.832 359.981 291.807 342.189C292.935 337.137 294.158 331.481 296.94 327.069C298.818 324.09 301.226 322.17 304.684 321.413Z" fill="url(#paint2_linear_434_9147)"/>
<path d="M127.575 356.766L144.755 356.845L136.814 384.838L134.743 393.279L133.944 392.802C133.278 392.425 132.751 392.091 132.206 391.554C130.184 389.555 128.815 386.645 128.16 383.903C127.369 380.595 127.585 376.784 127.56 373.394L127.575 356.766Z" fill="#B6B5AD"/>
<path d="M329.374 470.477C330.703 470.132 333.48 470.872 334.92 471.022L342.109 471.491C344.391 471.559 346.689 471.52 348.967 471.356C350.065 471.274 352.111 470.78 353.066 471.221C353.118 471.594 353.285 472.139 353.006 472.462C352.39 473.181 350.868 473.931 350.034 474.479C345.742 477.3 339.362 480.629 336.564 485.012C336.315 485.403 335.944 485.456 335.526 485.631C330.269 486.854 324.435 487.722 319.082 486.556C317.057 486.114 313.322 484.848 312.307 482.821C312.087 482.379 312.095 481.992 312.271 481.547C314.01 477.179 325.057 472.366 329.374 470.477Z" fill="#70836F"/>
<path d="M263.57 396.637L263.932 396.768C263.923 399.785 263.613 402.52 264.889 405.337L222.677 450.694L222.133 451.167L222 450.929L223.785 443.227L224.463 439.496C224.55 438.977 224.587 438.13 224.867 437.682C225.464 436.722 226.719 435.697 227.513 434.868L234.881 427.224L263.57 396.637Z" fill="#9B8B76"/>
<path d="M186.714 358.095L200.391 358.09C200.604 358.731 197.913 367.021 197.569 368.173L190.901 391.492C190.725 392.122 190.587 392.787 190.226 393.338L179.547 393.303L186.714 358.095Z" fill="#B6B5AD"/>
<path d="M75.4741 125.138C78.2625 124.915 80.8722 125.03 83.4147 126.314C85.9355 127.588 88.1268 129.825 89.003 132.541C89.2495 133.306 89.6291 134.642 89.1884 135.375C88.8863 135.878 88.4363 136.166 87.8586 136.266C86.2535 136.541 84.7604 132.762 83.3848 131.774C82.6804 131.269 81.6054 130.873 80.7295 131.038C79.5332 131.263 78.3251 132.156 77.7146 133.21C75.7651 136.576 82.8473 140.24 83.4951 143.514C83.7953 145.031 82.689 146.146 81.8512 147.273C80.028 145.683 77.9715 144.391 76.1671 142.78C74.8726 141.623 73.9599 140.311 72.7713 139.091C72.3186 138.626 72.2272 138.504 71.5845 138.495C70.9895 138.89 70.8894 139.006 70.565 139.643C70.6383 140.579 71.3522 141.31 71.9348 142.002C72.9388 143.194 74.0205 144.405 75.2198 145.401C77.0302 146.905 79.6801 147.93 80.8174 150.074C80.9576 151.105 80.6431 151.644 80.1625 152.506C79.5574 152.997 78.8174 153.511 78.0159 153.54C77.064 153.574 75.995 152.99 75.1707 152.556C72.2581 151.02 70.1945 149.139 67.7 147.092C67.1748 146.661 66.709 146.518 66.0399 146.59C65.5193 147.185 65.5211 147.266 65.4508 148.059C65.8069 148.96 66.5473 149.507 67.251 150.142C69.4631 152.137 71.8173 153.482 74.3967 154.942C74.0913 155.827 73.6572 157.209 72.8509 157.735C72.2823 158.106 71.4086 158.042 70.76 157.951C69.0856 157.717 67.3232 157.049 65.8848 156.174C64.9287 155.591 64.0525 154.771 62.9568 154.5C61.8537 155.18 61.689 156.317 60.8223 157.27C60.2708 156.819 60.2205 156.376 60.0966 155.691C59.5839 152.856 59.7522 149.809 59.9585 146.947C60.3286 141.813 60.7841 136.742 63.8623 132.422C66.8195 128.271 70.4421 125.952 75.4741 125.138Z" fill="#D7C1AF"/>
<path d="M268.012 317.406C270.18 318.835 272.101 319.53 274.665 319.882L274.097 341.033L273.319 379.792L272.996 393.9C272.947 397.023 273.212 400.512 272.606 403.554L272.548 403.632C271.889 404.347 271.592 404.326 270.654 404.386C269.564 404.457 267.988 404.575 267.187 403.717C267.006 403.525 266.669 403.059 266.589 402.803C266.231 401.665 266.507 399.57 266.517 398.36L266.718 385.498L268.012 317.406Z" fill="#B6B5AD"/>
<path d="M362.075 470.09C368.551 470.94 375.728 470.769 382.234 470.204L383.359 477.57C381.27 479.666 378.496 481.362 375.908 482.778C370.563 485.702 364.905 487.89 359.007 489.401C354.73 490.38 349.953 491.062 345.61 490.18C343.626 489.778 340.631 488.807 339.497 486.965C339.269 486.591 339.045 486.282 339.217 485.844C340.252 483.212 358.759 471.868 362.075 470.09Z" fill="#70836F"/>
<path d="M122.804 227.601L123.4 227.57L123.559 228.193C123.104 230.417 119.023 232.39 117.077 233.02C115.967 233.38 114.424 233.306 113.625 234.12C114.245 235.034 115.174 235.36 116.2 235.724C120.452 237.23 125.589 237.24 130.046 237.209C131.895 237.196 134.759 236.484 136.271 237.527C136.661 238.199 136.735 238.565 136.635 239.336C135.99 240.154 134.78 240.162 133.769 240.3C131.839 240.563 129.863 240.832 127.917 240.928C126.317 241.007 124.639 240.92 123.059 241.18L122.776 241.707L123.014 242.251C124.236 242.807 125.751 242.691 127.07 242.698C130.663 242.716 134.107 242.222 137.662 242.126L138.089 242.57C138.555 243.155 138.575 243.845 138.499 244.552C137.693 245.273 136.12 245.356 135.064 245.508C130.832 246.12 126.744 246.117 122.484 246.188L122.197 246.686C122.292 246.86 122.332 247.08 122.484 247.208C123.988 248.482 132.904 247.711 135.065 247.444C135.984 247.331 138.077 246.723 138.848 247.097C139.214 247.675 139.38 248.012 139.413 248.701C138.527 249.991 136.948 250.125 135.524 250.44C131.751 251.203 128.021 251.587 124.168 251.501C123.031 251.476 120.61 251.056 119.69 251.625L119.606 252.136C121.071 253.91 128.698 253.451 131.037 253.235C131.937 253.151 134.86 252.538 135.505 252.968L135.376 254.035C134.676 255.217 133.192 255.544 131.947 255.9C121.329 258.937 110.23 254.319 101.051 249.252L105.569 230.204C111.816 232.025 117.06 229.988 122.804 227.601Z" fill="#D7C1AF"/>
<path d="M105.145 124.699C110.086 128.008 116.426 129.138 122.267 128.276C123.255 128.13 124.957 127.433 125.865 127.68L125.896 129.921C126.416 130.431 126.967 130.856 127.551 131.291C127.03 134.331 126.067 137.228 125.102 140.15C123.023 146.439 120.396 152.536 117.227 158.354C116.018 160.406 114.82 162.067 113.155 163.778C109.065 159.554 106.651 152.438 104.547 147.016C103.639 144.677 98.5447 131.638 99.2409 130.06L99.411 130.116C100.651 130.5 101.523 130.277 102.626 129.659C104.27 128.737 104.651 126.379 105.145 124.699Z" fill="#D7C1AF"/>
<path d="M128.328 475.753C133.283 475.433 138.043 478.055 142.343 480.203C144.243 481.153 146.215 482.252 148.317 482.661C151.289 483.241 153.422 482.341 155.825 480.687C156.05 480.822 156.236 480.961 156.424 481.142C157.009 481.704 160.202 484.618 160.208 485.098C153.977 489.573 146.468 492.187 139.262 494.659C136.059 495.655 132.728 496.598 129.36 496.793C123.362 497.142 117.176 495.844 111.682 493.471C110.25 492.852 108.74 492.272 107.556 491.234C107.433 490.885 107.339 490.839 107.482 490.469C108.075 488.932 114.438 485.24 116.021 484.098C119.202 481.807 122.255 479.214 125.548 477.094C126.417 476.536 127.369 476.13 128.328 475.753Z" fill="#70836F"/>
<path d="M180.884 287.844L181.215 322.51C172.678 322.251 164.054 323.898 157.892 330.3C156.01 332.257 154.632 334.766 152.603 336.54C152.306 336.444 152.251 336.392 152.035 336.183L152.815 310.441C154.564 310.523 156.472 310.584 158.177 310.156C164.328 308.61 169.105 303.536 173.02 298.818C175.904 295.344 178.553 291.713 180.884 287.844Z" fill="#70836F"/>
<path d="M57.3486 462.125C60.6571 463.213 63.9262 464.256 67.3546 464.903C69.178 465.245 71.5665 465.209 73.2564 465.771C73.5301 465.864 74.0715 466.422 74.3227 466.632L77.3489 469.143C83.8141 474.411 90.5234 479.341 96.5205 485.168C93.8364 486.498 91.2157 487.103 88.2687 487.526C74.6329 488.622 60.2197 483.172 49.2422 475.329L57.3486 462.125Z" fill="#70836F"/>
<path d="M307.879 237.795C308.595 237.563 309.192 237.707 309.863 237.99C311.665 238.751 313.47 240.232 315.216 241.209C319.337 243.514 324.237 245.372 328.817 246.5C329.592 250.89 330.204 255.113 330.135 259.578C328.777 261.121 327.036 262.336 325.329 263.46C319.621 267.215 312.727 269.423 306.016 270.589C303.885 270.959 299.264 271.684 297.512 270.184C296.867 269.633 296.79 269.282 296.677 268.497C296.782 268.3 296.838 268.066 296.993 267.905C297.081 267.813 298.299 267.76 298.503 267.745C300.979 267.558 304.361 267.412 306.587 266.245C307.452 265.791 307.541 265.468 307.78 264.586L307.367 263.949C306.216 263.522 303.464 264.611 302.178 264.876C300.067 265.201 297.354 265.561 295.288 264.985C294.316 264.714 293.482 264.417 292.957 263.505C292.842 262.814 292.854 262.399 293.098 261.741C294.631 260.69 297.931 261.277 299.824 261.11C301.019 261.005 303.612 260.645 304.351 259.629C304.622 259.257 304.471 259.109 304.389 258.685C302.189 256.975 297.841 259.537 295.14 258.513C294.692 257.88 294.623 257.768 294.578 256.999C294.906 256.579 295.108 256.195 295.655 256.032C296.582 255.755 297.945 256.056 298.939 256.044C300.858 256.019 302.782 255.862 304.685 255.613C305.781 255.47 306.832 255.327 307.542 254.391L307.369 253.68C306.036 252.701 304.159 253.236 302.59 253.368C300.846 253.516 299.142 253.578 297.393 253.537C296.79 253.114 296.866 252.954 296.714 252.257C296.942 251.528 297.086 251.284 297.779 250.857C300.463 249.204 307.889 249.319 311.145 249.102C312.643 249.003 314.791 249.115 315.945 248.108L315.953 247.397C314.978 245.992 312.03 245.182 310.552 244.067C309.033 242.92 307.636 241.072 307.439 239.129C307.365 238.394 307.446 238.346 307.879 237.795Z" fill="#D7C1AF"/>
<path d="M321.407 296.072C321.96 295.992 322.536 295.886 323.095 295.957C323.877 296.055 324.495 296.432 324.953 297.097C325.8 298.326 326.236 302.133 325.962 303.609C325.768 304.662 325.373 305.458 324.467 306.065C322.239 307.557 318.053 308.014 315.419 308.642L292.36 313.867C288.082 314.821 283.839 316.095 279.508 316.796C277.231 317.164 275.147 317.507 272.862 317.012C271.856 316.683 270.864 316.174 269.999 315.565C268.672 314.63 267.981 313.338 267.679 311.764C267.353 310.074 267.64 308.22 268.639 306.794C269.367 305.757 270.516 305.004 271.712 304.611C273.047 304.173 274.619 304.04 276.012 303.798L284.532 302.31L311.829 297.849L321.407 296.072Z" fill="#42634C"/>
<path d="M201.767 496.875L207.407 493.653C208.118 493.201 208.849 492.831 209.247 492.066C209.126 491.333 209.024 491.227 208.572 490.675C206.825 490.914 204.463 492.724 202.802 493.553C200.882 494.513 198.924 495.374 196.909 496.114C187.091 499.732 176.485 500.269 166.18 498.978C163.654 498.657 159.978 498.167 157.892 496.577C157.285 496.114 156.846 495.595 156.508 494.912C156.774 493.791 158.834 492.255 159.725 491.461L169.672 483.184C171.388 481.793 173.144 480.146 175.013 478.99C177.742 477.301 183.734 478.268 186.707 479.029C189.273 479.687 191.721 480.63 194.037 481.918C197.321 483.75 205.555 490.963 209.163 488.641C209.857 488.193 210.451 487.314 210.965 486.666C211.613 486.901 212.264 487.862 212.726 488.381C212.609 489.719 212.459 490.996 212.144 492.305L202.176 497.558L201.767 496.875Z" fill="#70836F"/>
<path d="M328.841 130.891L329.15 132.392C329.972 136.164 331.662 140.014 335.049 142.139C337.058 143.398 339.823 143.996 342.147 143.423L342.452 143.341C343.847 142.978 344.893 142.307 346.092 141.523L346.149 141.643C344.514 146.422 341.68 150.726 338.254 154.42C332.933 160.157 326.924 162.865 319.151 163.151C311.654 162.639 306.733 159.761 301.449 154.636L301.934 154.443C304.365 153.46 307.219 152.187 308.279 149.601C309.654 146.247 308.304 142.808 307.018 139.688L309.527 139.79C317.516 139.889 323.271 136.303 328.841 130.891Z" fill="#D7C1AF"/>
<path d="M261.958 357.72C262.661 357.638 263.262 357.61 263.964 357.724C264.271 357.774 264.317 357.989 264.493 358.23L264.187 384.158L264.094 389.558C264.08 390.262 264.166 391.354 263.971 392.016C263.91 392.219 263.509 392.685 263.357 392.841C263.233 392.966 262.817 393.321 262.645 393.368C260.432 393.926 257.078 393.496 254.721 393.489L235.745 393.446L232.758 393.435L240.883 361.092L261.958 357.72Z" fill="#B6B5AD"/>
<path d="M198.25 23.6816L200.375 23.5595C205.947 23.4696 212.19 24.6204 216.3 28.6805C217.597 29.9611 219.258 31.9795 219.256 33.9027C218.98 34.9729 218.143 35.7252 217.255 36.3323C215.2 37.739 212.368 38.5545 210.087 39.606C205.647 41.6529 201.382 44.4815 196.596 45.6526C190.489 47.147 184.407 45.2406 178.89 49.1517C172.809 53.4636 170.081 61.5674 168.924 68.6571C168.186 72.9512 168.572 77.2656 168.904 81.5754C165.555 74.9688 162 67.5569 161.024 60.1649C160.371 55.2161 160.631 50.612 163.812 46.5265C166.498 43.0758 170.347 41.6663 173.666 39.009C175.922 37.2027 177.764 34.8297 179.764 32.7476C184.747 27.5601 191.172 24.5802 198.25 23.6816Z" fill="#777045"/>
<path d="M322.738 267.904L323.481 267.793C323.643 267.963 323.767 268.097 323.888 268.3C326.296 272.324 326.005 279.515 325.045 283.949C324.173 287.975 321.597 291.796 318.067 294.006C316.152 295.204 297.929 297.382 294.101 297.996L283.25 299.967L277.954 300.981C277.196 301.134 276.208 301.466 275.455 301.282L274.857 299.958L272.582 294.655C278.452 289.961 283.174 284.333 287.55 278.248C288.949 276.302 291.411 271.845 293.587 271.032C293.778 270.962 294.238 270.833 294.427 270.858C294.526 270.872 295.351 271.713 295.486 271.831C296.11 272.374 296.731 272.766 297.511 273.065C298.917 273.602 300.542 273.567 302.022 273.525C308.745 273.331 316.672 270.745 322.738 267.904Z" fill="#B16E51"/>
<path d="M112.918 473.823C112.883 472.46 111.816 471.304 111.09 470.198L108.664 466.104C107.026 463.016 105.64 459.85 104.411 456.581C97.3523 437.796 95.4914 417.066 96.2765 397.153C96.66 387.432 97.5864 377.66 99.4917 368.105C100.508 363.008 101.729 357.636 103.543 352.764C107.721 341.539 114.99 331.488 124.998 324.816L125.05 333.438L123.202 335.086C119.298 338.685 115.979 343.193 113.68 347.981C110.889 353.796 109.304 360.17 107.961 366.447C104.846 381.004 103.66 395.744 104.257 410.62C104.485 416.294 104.834 422.099 105.738 427.712C106.981 435.434 108.614 443.043 110.801 450.549L113.605 458.755C114.051 459.921 115.239 461.921 115.314 463.066C115.366 463.849 114.688 465.57 114.529 466.431C114.108 468.711 113.797 470.998 113.703 473.318L113.235 473.097L112.918 473.823Z" fill="#70836F"/>
<path d="M394.507 242.535C394.618 242.652 394.667 242.691 394.748 242.853C396.349 246.08 395.189 250.951 393.911 254.085C389.473 264.958 379.817 272.984 369.166 277.395C356.641 282.581 341.906 282.949 329.31 277.74C329.152 277.691 328.41 277.372 328.342 277.234C327.915 276.365 328.083 273.966 327.928 272.893C327.57 270.426 326.691 268.35 325.512 266.188C326.676 265.201 327.996 264.381 329.257 263.523C329.462 263.383 330.112 262.832 330.327 262.796C330.824 262.712 331.797 262.95 332.325 263.003L337.313 263.477C343.743 263.821 350.401 263.064 356.609 261.35C367.068 258.463 376.828 253.687 386.084 248.09C388.941 246.362 391.566 244.05 394.507 242.535Z" fill="#B6B5AD"/>
<path d="M293.132 321.867C294.21 321.757 295.628 321.654 296.659 321.995C297.324 322.216 297.753 322.527 298.044 323.144C295.188 326.699 293.413 330.558 291.879 334.815C289.157 342.367 287.611 350.501 286.472 358.426C284.419 372.708 283.872 387.098 283.807 401.512C283.76 412.211 283.846 422.89 285.206 433.522C286.391 442.781 288.286 452.296 292.287 460.787C293.963 464.344 296.389 469.456 300.356 470.882C302.284 470.601 304.085 470.16 305.819 469.242C315.198 464.287 320.07 452.986 323.038 443.368C323.376 444.371 323.916 446.648 323.587 447.672L322.458 450.881C318.925 459.588 314.124 469.2 305.683 474.094C301.973 476.25 296.067 477.402 291.912 475.933C291.146 475.663 290.339 474.589 289.851 473.963C288.738 472.536 287.218 470.224 286.672 468.488C286.209 467.019 286.063 465.333 285.795 463.814C285.326 461.161 284.764 458.557 283.838 456.017C283.119 454.046 282.129 451.99 280.986 450.219C280.591 449.607 280.006 449.052 279.677 448.416C279.237 447.562 279.152 446.196 278.989 445.25L277.6 435.759C275.66 421.193 275.258 406.951 275.443 392.278C275.523 385.981 275.506 379.625 276.118 373.356C276.787 366.508 278.074 359.714 279.296 352.949C280.372 346.989 281.38 340.752 283.489 335.06C285.347 330.047 288.027 324.226 293.132 321.867Z" fill="#9B8B76"/>
<path d="M236.303 90.5251C238.892 90.0855 241.696 90.5607 244.028 91.7189C248.74 94.0587 251.97 98.6748 253.597 103.571C252.861 103.038 252.255 102.669 251.382 102.376L250.844 102.659L250.754 103.133L251.735 104.021C252.511 104.798 253.577 106.156 253.915 107.193C254.153 107.924 254.021 109.108 254.027 109.89C254.501 110.405 254.475 110.367 255.177 110.416C255.883 109.495 255.665 107.564 255.709 106.371C256.926 107.326 256.986 109.509 258.616 110.121L259.059 109.771C259 108.808 258.488 107.882 258.105 107.004L255.852 102.012L257.408 101.785C261.678 101.237 265.286 102.349 268.658 104.99C275.107 110.043 277.595 117.914 278.512 125.699L278.379 125.803C275.579 127.942 271.7 130.207 268.056 129.687C267.163 129.56 266.286 129.249 265.435 128.957C257.792 125.631 253.376 117.898 248.341 111.713C246.544 112.372 244.823 113.417 243.107 114.272C236.281 117.673 225.741 121.556 218.184 118.93C214.157 117.53 212.132 115.068 210.355 111.357C211.355 109.124 212.671 106.933 214.112 104.957C219.594 97.4447 226.921 91.9707 236.303 90.5251Z" fill="#B6B5AD"/>
<path d="M270.405 446.868C272.968 446.783 275.228 447.783 277.113 449.469C278.179 450.422 279.037 451.866 279.739 453.097C282.809 458.464 283.942 465.454 284.249 471.558C284.73 481.127 283.198 493.427 276.489 500.751C273.991 503.479 271.637 504.82 267.907 504.984C265.623 504.6 263.775 504.038 261.936 502.558C256.656 498.315 254.474 490.14 253.772 483.698C252.657 473.465 254.547 460.471 261.249 452.247C263.752 449.173 266.429 447.299 270.405 446.868Z" fill="#B6B5AD"/>
<path d="M273.452 458.518C274.154 458.287 275.124 458.255 275.84 458.465C277.188 458.866 278.131 460.471 278.686 461.662C280.123 464.746 280.608 468.439 280.787 471.814C281.118 478.043 280.702 484.506 278.535 490.4C277.776 492.463 276.588 494.711 274.504 495.679C274.029 495.832 273.395 495.967 272.906 495.839C271.764 495.536 270.786 494.288 270.202 493.31C268.603 490.635 267.973 487.377 267.635 484.317C267.019 478.758 267.174 472.928 268.521 467.482C269.287 464.387 270.54 460.264 273.452 458.518Z" fill="black"/>
<path d="M274.108 461.122C274.268 461.083 274.325 461.058 274.508 461.069C274.978 461.097 275.289 461.311 275.604 461.631C278.334 464.405 278.616 470.798 278.61 474.458C278.603 478.89 278.175 483.521 276.802 487.747C276.235 489.494 275.589 491.141 274.266 492.46L273.669 492.688C273.121 492.517 272.994 492.496 272.614 492.073C271.741 491.094 271.358 489.824 271.015 488.587C269.861 484.418 269.701 479.783 269.929 475.482C270.128 471.715 270.676 467.891 272.124 464.384C272.625 463.175 273.118 462.015 274.108 461.122Z" fill="#70836F"/>
<path d="M119.469 33.8788C123.01 33.3243 127.807 34.0563 131.191 35.0385C139.056 37.3213 145.998 43.0573 149.914 50.2245C155.381 60.2299 155.921 72.5218 152.714 83.3044C151.332 77.9364 149.632 75.0007 145.026 71.8413C143.393 70.7212 141.596 69.5377 140.213 68.1188C137.482 65.3183 135.847 62.2738 135.879 58.3233L135.292 57.9035C134.553 57.8939 134.507 57.8573 133.882 58.3233C133.714 58.7427 133.605 59.1567 133.605 59.6099C133.611 64.2782 136.524 67.9331 139.625 71.0939C138.459 71.2266 136.774 70.7155 135.63 70.443C124.734 67.8467 116.084 58.9917 110.39 49.7703C110.152 49.3821 109.869 49.0925 109.56 48.7618C108.691 48.7745 108.68 48.818 108.019 49.394C107.836 50.8699 109.433 53.0416 110.172 54.3889C110.014 57.6023 108.89 60.7869 106.845 63.3021C103.99 66.8133 100.983 68.5656 96.5093 69.013L96.6378 68.4763C97.3229 65.208 97.4567 61.7719 96.9341 58.4688C96.7541 57.3301 96.5552 56.1136 95.9234 55.131C95.2511 54.7416 95.2258 54.7771 94.5005 54.8807C93.5211 55.8654 94.0586 56.6939 94.3229 57.9768C95.2998 62.7238 94.5293 68.1359 92.8228 72.616C91.212 76.8447 88.942 80.7529 87.3846 85.0164C86.7563 84.6241 86.132 84.236 85.429 83.9888C83.5521 83.3286 82.0043 83.6523 80.2676 84.4956L79.9481 84.6532L78.9673 78.0662C77.793 67.8527 79.2032 55.5725 85.8413 47.2951C89.5802 42.6328 94.3578 39.3068 100.584 39.7628C101.422 39.8242 103.499 40.4578 104.138 40.2963C104.82 40.1237 106.511 38.4299 107.228 37.9379C110.832 35.4667 115.185 34.3583 119.469 33.8788Z" fill="#777045"/>
<path d="M297.881 70.6836L302.031 75.0588C310.177 83.0982 321.845 89.5778 333.478 89.5127C335.289 99.3064 336.092 109.39 332.938 119.023C330.464 126.58 325.531 132.137 318.475 135.738C317.25 136.311 315.984 136.716 314.674 137.046C309.093 138.449 302.851 136.866 298.033 133.911C290.067 129.025 285.897 120.125 283.796 111.338C282.45 105.71 281.985 99.4395 284.094 93.9416C285.933 89.1495 289.389 84.6793 292.189 80.3834L297.881 70.6836Z" fill="#D7C1AF"/>
<path d="M289.829 88.1552C290.848 87.9962 291.619 87.9531 292.648 88.1317C293.307 88.6019 293.3 88.5866 293.452 89.3813C292.807 90.235 291.914 89.8323 290.905 89.9913C290.296 90.087 289.762 90.3705 289.227 90.6626L289.015 90.781L287.651 92.0402C286.904 92.0324 286.913 91.9737 286.375 91.5152C286.392 91.2683 286.403 91.0385 286.49 90.8038C286.979 89.4759 288.628 88.6848 289.829 88.1552Z" fill="black"/>
<path d="M303.074 101.947C303.662 101.804 303.744 101.819 304.323 102.007C305.41 103.264 306.117 105.129 306.856 106.619C307.281 107.476 307.94 108.519 308.167 109.439C308.333 110.113 308.304 110.115 307.937 110.72L307.232 110.97C306.892 110.751 306.665 110.593 306.463 110.23C305.408 108.341 304.473 106.234 303.575 104.26C303.41 103.898 302.887 103.028 302.868 102.659C302.859 102.495 303.023 102.121 303.074 101.947Z" fill="black"/>
<path d="M317.852 91.1928C318.759 91.0818 319.722 91.0879 320.632 91.1736C321.935 91.2956 323.364 92.2415 324.142 93.2837C324.637 93.946 324.724 94.3963 324.639 95.1899C324.163 95.551 323.908 95.864 323.241 95.6904C323.104 95.6548 322.524 95.0043 322.385 94.878C321.493 94.0659 320.776 93.7052 319.573 93.5761L319.328 93.5537C318.154 93.7276 317.208 94.1281 316.482 95.1117C315.897 95.9045 315.875 96.5736 314.941 97.0147C314.331 96.7565 314.12 96.6711 313.902 96.0194C313.705 95.429 313.812 94.8349 314.077 94.2861C314.882 92.6203 316.159 91.7822 317.852 91.1928Z" fill="black"/>
<path d="M294.425 96.1888C296.195 96.177 297.684 96.2233 299.168 97.3466C299.898 97.899 300.763 98.8111 300.867 99.7516C300.934 100.354 300.683 100.536 300.355 100.99C299.013 101.01 298.457 99.5193 297.272 99.0106C296.522 98.6887 295.519 98.6951 294.708 98.6489C293.842 98.9558 292.968 99.3806 292.443 100.17C291.773 101.175 291.922 101.977 290.749 102.484C289.977 102.085 289.978 102.042 289.637 101.237C289.698 100.346 289.978 99.5783 290.431 98.8153C291.334 97.2975 292.783 96.6128 294.425 96.1888Z" fill="black"/>
<path d="M321.231 114.273C321.82 114.276 321.869 114.395 322.318 114.748C322.438 116.196 320.981 118.378 320.083 119.489C317.64 122.509 314.402 124.233 310.532 124.589C306.291 124.979 302.93 123.65 299.709 120.988L299.169 120.22C299.104 119.508 299.181 119.516 299.586 118.969C300.144 118.95 300.252 118.852 300.675 119.238C303.627 121.93 306.53 122.954 310.552 122.712C313.994 122.504 317.358 120.276 319.231 117.453C319.897 116.449 320.309 115.287 321.122 114.388L321.231 114.273Z" fill="black"/>
<path d="M186.265 214.086L186.354 214.205C186.288 216.063 185.406 218.298 185.001 220.165L183.292 229.974C181.601 242.219 181.031 254.908 180.932 267.263L180.865 279.471C180.855 280.458 181.077 282.662 180.542 283.411C179.141 285.374 177.962 287.547 176.622 289.562C173.74 293.898 170.555 298.135 166.839 301.795C164.985 303.621 163.034 305.396 160.659 306.523C157.303 308.115 154.114 308.392 150.59 307.062C146.785 305.627 143.947 302.884 141.278 299.928C137.112 295.312 133.692 290.207 130.208 285.074C124.929 277.296 119.927 269.845 116.091 261.206C115.787 260.468 114.752 258.573 114.833 257.876L118.945 258.984C124.253 259.939 131.673 260.016 136.214 256.739C137.776 255.612 138.032 254.168 138.31 252.395L140.88 250.62C142.721 253.706 144.586 256.782 146.678 259.706C150.309 264.781 154.271 269.534 157.651 274.809C158.907 276.77 160.097 278.887 160.906 281.074C161.263 282.038 161.493 284.059 162.114 284.803C162.446 285.201 162.926 285.085 163.396 285.095C163.801 284.748 164.027 284.682 164.098 284.134C164.712 279.392 157.095 269.359 154.368 265.682C161.085 249.874 170.034 234.88 180.511 221.274C182.304 218.946 184.054 216.298 186.12 214.228L186.265 214.086Z" fill="#B16E51"/>
<path d="M112.358 57.3359C116 61.3757 119.819 64.9478 124.328 68.009C126.122 69.2266 128.131 70.1561 129.859 71.4547C131.132 72.4116 133.324 75.0535 134.816 75.2317L135.45 74.68C135.686 73.6733 135.285 73.6573 134.959 72.7385C137.756 72.9726 140.237 73.7249 143.095 73.5648C145.675 75.1328 147.991 77.2791 149.133 80.133C150.55 83.6766 149.92 87.1084 149.485 90.7694C148.878 95.8742 148.15 100.697 146.132 105.474C142.513 114.037 136.596 120.871 127.878 124.414C122.579 126.289 116.994 126.987 111.56 125.196C103.165 122.429 96.2986 114.732 92.4676 106.975C88.5014 98.9436 87.6046 90.5773 91.1001 82.2142C92.6106 78.5999 94.5601 75.248 95.824 71.5191C98.2317 71.5177 100.932 70.8618 103.068 69.736C107.832 67.2247 110.79 62.2977 112.358 57.3359Z" fill="#D7C1AF"/>
<path d="M117.277 90.0924C117.855 89.9697 117.886 89.884 118.38 90.1906C118.905 91.6113 119.676 93.4944 119.59 95.0161C119.532 96.0481 119.155 96.3639 118.455 97.0351C117.403 97.1259 116.827 97.0874 115.846 96.6286L115.135 96.0413C114.93 95.358 114.782 95.2168 115.073 94.5441C116.222 94.4566 116.336 95.2555 117.388 95.2153L117.657 94.834L117.22 92.8154C116.983 91.8674 116.74 90.9796 117.277 90.0924Z" fill="black"/>
<path d="M130.741 80.8473L131.046 80.7882C132.131 80.6132 133.239 81.1329 134.083 81.7679C135.213 82.6176 135.605 83.5706 135.775 84.9226C135.514 85.5234 135.545 85.6636 134.937 85.9613C134.104 85.6582 133.782 84.8704 133.285 84.1522C132.816 83.7374 132.289 83.2487 131.616 83.2697C130.479 83.3056 129.992 84.292 129.245 85.035L128.415 84.944L128.004 84.4037C128.005 83.922 128.03 83.4749 128.239 83.031C128.792 81.8547 129.541 81.2734 130.741 80.8473Z" fill="black"/>
<path d="M107.105 70.1478C107.575 70.0902 108.064 70.1734 108.524 70.2773C109.036 70.3936 109.455 70.6219 109.729 71.0826C110.066 71.6492 109.908 71.8097 109.737 72.3838C109.073 72.8256 109.079 72.8028 108.277 72.6637C106.326 72.3254 104.86 72.8323 103.291 73.9663L103.033 74.1552C102.438 74.7243 102.04 75.3948 101.197 75.3948L100.691 74.8204C100.713 73.9994 100.98 73.4349 101.483 72.7868C102.975 70.8635 104.801 70.4078 107.105 70.1478Z" fill="black"/>
<path d="M106.062 80.3722C106.567 80.2459 107.078 80.2143 107.599 80.2192C108.912 80.232 110.087 80.9186 110.97 81.8519C112.134 83.0823 112.7 84.6251 112.645 86.2994C112.303 86.8674 112.313 86.8852 111.693 87.1111C110.791 86.5391 110.171 84.846 109.621 83.8724L108.53 83.0144C108.095 82.7366 107.448 82.5982 106.945 82.7313C105.488 83.1168 105.161 84.6635 104.507 85.8252L103.749 85.9945L103.274 85.6698C102.97 84.8954 102.988 84.1313 103.202 83.336C103.563 81.9971 104.885 80.9669 106.062 80.3722Z" fill="black"/>
<path d="M130.603 103.369C131.318 103.304 131.376 103.379 131.971 103.721L132.133 104.317C131.829 105.817 130.51 107.377 129.414 108.404C126.311 111.314 122.153 112.428 117.979 112.263C113.561 112.087 109.934 109.95 106.976 106.785C106.433 106.02 106.121 105.524 106.121 104.598L106.714 104.013C106.872 104.003 107.429 103.911 107.544 103.96C108.298 104.279 109.655 106.343 110.418 106.979C113.321 109.399 117.068 110.28 120.787 109.875C125.342 109.38 127.933 106.749 130.603 103.369Z" fill="black"/>
<path d="M215.18 40.0689L215.67 40.0117C216.147 40.9471 216.275 41.9646 216.628 42.9461C217.168 44.4477 217.875 45.9118 218.66 47.2999C220.609 50.7488 223.081 54.0185 225.306 57.3014C227.225 60.1339 229.242 62.954 230.748 66.0365C234.136 72.9736 234.679 80.5328 235.412 88.0884L233.451 88.4828C223.34 90.727 215.226 98.3221 209.844 106.855C205.84 107.83 201.135 108.212 197.61 105.562C196.636 104.829 195.906 103.345 194.699 103.245C194.139 103.687 193.973 103.73 193.773 104.436C193.944 105.377 194.536 105.903 195.21 106.53C198.874 109.94 203.504 110.018 208.197 109.82L205.066 118.468L204.089 123.856C201.087 123.802 198.147 123.402 195.358 122.238C186.416 118.504 180.944 110.289 177.404 101.61C176.181 98.6092 175.228 95.4793 174.283 92.3828C171.023 81.7069 169.22 70.4114 173.79 59.76C176.367 53.7525 180.462 49.2843 187.268 48.7942C191.221 48.5096 194.758 48.7489 198.656 47.5714C201.892 46.5937 204.815 44.93 207.805 43.3972L215.18 40.0689Z" fill="#D7C1AF"/>
<path d="M185.285 65.9102C185.506 65.9102 185.823 66.0076 186.042 66.0528C186.414 66.5721 186.455 66.6721 186.516 67.3074C185.921 68.425 183.97 68.9088 182.92 69.7088C181.739 70.6091 180.935 71.9451 179.638 72.6832C179.419 72.6807 179.306 72.6928 179.08 72.622C178.52 72.4467 178.338 72.0988 178.141 71.6004C178.214 71.3767 178.298 71.1722 178.407 70.9623C179.531 68.7996 182.973 66.5455 185.285 65.9102Z" fill="black"/>
<path d="M211.554 71.2541C212.513 71.1854 213.326 71.1808 214.264 71.4583C215.679 71.8773 216.769 72.6659 217.493 73.9689C217.533 74.7073 217.509 74.7116 217.11 75.2779C215.48 76.0619 214.772 74.1777 213.254 73.7064L213.078 73.6587C212.718 73.6356 212.348 73.68 212.008 73.8077C211.327 74.0631 210.919 74.6397 210.605 75.2629C210.355 75.7584 210.121 76.1586 209.77 76.5883C209.033 76.6619 209.015 76.7384 208.393 76.2675C208.086 75.5518 208.13 74.7532 208.434 74.0379C209.064 72.5503 210.111 71.8517 211.554 71.2541Z" fill="black"/>
<path d="M188.339 76.5011C190.071 76.4083 191.57 76.4777 192.923 77.7198C193.48 78.2313 193.636 78.6916 193.678 79.4251C193.228 80.1237 193.255 80.1283 192.448 80.3158L191.793 79.8992C191.038 79.3866 190.44 78.9779 189.484 78.9772C188.783 78.9765 188.323 79.2447 187.834 79.7207L187.705 79.8516C187.087 80.7629 187.215 81.6589 186.836 82.6126C186.644 83.0931 186.372 83.0921 185.927 83.2721C185.119 83.0544 185.098 83.0508 184.622 82.3646C184.471 81.5479 184.539 80.8717 184.799 80.0867C185.394 78.285 186.716 77.3196 188.339 76.5011Z" fill="black"/>
<path d="M209.877 59.7468C212.725 59.0614 216.422 59.9994 219.002 61.2589C220.765 62.1198 223.056 63.4924 223.737 65.4367C223.556 66.2776 223.529 66.2392 222.804 66.7159C221.839 66.511 221.407 65.8383 220.675 65.1998C217.317 62.2709 214.036 61.9273 209.76 61.9835C209.181 61.6609 209.155 61.6538 208.887 61.0508C209.114 60.2359 209.175 60.2338 209.877 59.7468Z" fill="black"/>
<path d="M200.031 79.6588C200.339 79.5293 200.533 79.5475 200.855 79.5908C201.246 79.6435 201.349 79.6812 201.568 80.0533C201.947 80.6975 202.036 81.7272 202.2 82.4593C202.673 84.5683 203.273 88.5878 204.543 90.2714C205.956 90.3069 206.832 89.4611 208.151 89.3789L208.812 89.9758C208.899 90.7775 208.888 90.8245 208.468 91.5128C207.809 92.0054 207.005 92.3146 206.204 92.4953C205.189 92.724 203.925 92.8937 203.037 92.2431C202.325 91.7216 201.934 90.5168 201.658 89.7126C200.633 86.7328 199.752 83.3877 199.457 80.2514L200.031 79.6588Z" fill="black"/>
<path d="M246.766 115.221C246.901 115.185 247.096 115.125 247.234 115.125C247.276 115.125 247.69 115.188 247.752 115.221C248.039 115.376 248.639 116.341 248.868 116.629L252.615 121.237C255.923 125.112 260.655 130.25 265.664 131.692C266.83 132.028 268.197 132.052 269.406 132.147L267.466 153.651C265.413 167.09 261.552 182.88 249.886 191.325C245.207 194.711 239.95 195.349 234.357 194.473L230.32 193.409C223.065 190.814 218.718 185.744 215.489 178.936C209.769 166.88 210.822 153.375 213.297 140.661C214.278 135.62 215.409 130.597 217.14 125.755C217.326 125.235 218.396 121.793 218.651 121.628C218.691 121.602 220.378 121.842 220.539 121.86C223.102 122.151 225.472 122.175 228.029 121.788C234.642 120.787 240.775 118.061 246.766 115.221Z" fill="#D7C1AF"/>
<path d="M251.993 146.042C252.412 146.013 252.752 146.081 253.162 146.154C253.845 146.705 254.142 147.233 254.352 148.086C254.573 148.991 254.676 150.469 254.19 151.258L253.399 151.43C252.528 150.794 252.488 149.697 252.213 148.672L251.976 148.662C251.34 149.252 250.838 149.909 250.316 150.596L249.604 150.677L249.221 150.072C249.185 149.377 249.231 148.864 249.538 148.228C250.053 147.156 250.867 146.428 251.993 146.042Z" fill="black"/>
<path d="M226.449 141.775C226.715 141.668 226.922 141.612 227.211 141.618C227.929 141.633 228.246 141.784 228.734 142.351C229.694 143.463 229.612 145.035 229.519 146.398C229.162 146.869 229.198 146.916 228.626 147.016C227.793 146.185 228.074 145.069 227.32 144.304L227.075 144.076C226.425 144.72 226.057 145.695 225.497 146.431C225.094 146.961 225.081 146.93 224.404 147.015L223.828 146.517C223.819 146.185 223.822 145.849 223.882 145.521C224.149 144.056 225.242 142.571 226.449 141.775Z" fill="black"/>
<path d="M227.781 131.969C228.571 131.856 229.602 131.729 230.391 131.93C231.012 132.089 231.151 132.492 231.404 133.002C231.276 133.401 231.271 133.66 230.86 133.863C230.254 134.163 229.163 134.057 228.476 134.16C226.526 134.451 224.894 135.145 223.208 136.142C222.592 136.644 221.814 137.47 221.023 137.607L220.801 137.269C220.863 137.066 220.934 136.87 221.035 136.682C222.272 134.354 225.376 132.725 227.781 131.969Z" fill="black"/>
<path d="M253.425 135.849C254.034 135.721 254.705 135.81 255.296 135.998C257.221 136.608 258.853 138.368 259.727 140.133C260.241 141.169 260.96 143.053 260.575 144.181L260.046 143.91C258.617 141.686 257.039 138.85 254.283 138.156L252.924 137.761L252.566 137.035C252.742 136.226 252.778 136.285 253.425 135.849Z" fill="black"/>
<path d="M235.965 147.703C236.63 147.63 236.599 147.661 237.145 148.059C237.508 149.293 237.117 150.941 236.969 152.207L235.908 160.901C236.975 160.799 239.34 160.326 240.198 161.015C240.497 161.256 240.462 161.68 240.519 162.047C240.185 162.684 240.059 162.626 239.404 162.857L238.693 162.987C236.977 163.2 235.343 163.533 233.922 162.402C233.768 161.695 233.627 160.99 233.656 160.263C233.777 157.29 234.34 154.228 234.744 151.275C234.85 150.493 234.905 148.948 235.319 148.311C235.451 148.109 235.782 147.876 235.965 147.703Z" fill="black"/>
<path d="M224.97 167.616L225.496 167.578C226.379 168.073 226.468 169.162 226.886 170.052C227.263 170.854 227.812 171.575 228.437 172.199C231.105 174.862 235.081 175.806 238.744 175.778C241.262 175.759 244.145 175.135 246.191 173.596C247.168 172.861 248.003 171.806 248.87 170.935C249.6 170.841 249.576 170.921 250.138 171.338C250.428 172.259 250.301 172.288 249.865 173.168L248.699 174.379C245.895 177.122 241.829 178.207 237.984 178.133C233.822 178.052 229.404 176.634 226.487 173.553C225.597 172.614 223.934 170.402 224.07 169.039C224.151 168.226 224.371 168.101 224.97 167.616Z" fill="black"/>
<path d="M311.036 47.8483C315.613 47.401 319.798 48.0115 324.069 49.7407C342.773 57.3135 349.32 78.5991 349.737 97.1529L349.792 107.835C349.806 110.915 349.672 114.224 350.932 117.106C351.848 119.2 353.404 121.319 355.622 122.132C358.325 123.123 360.573 122.685 363.111 121.496C363.956 123.13 364.161 126.455 363.758 128.231C363.577 129.029 363.304 130.12 362.611 130.555C361.522 129.726 361.738 128.1 360.358 127.2L359.72 127.363C359.441 127.723 359.134 127.992 359.117 128.477C359.094 129.106 359.467 129.93 359.646 130.554C360.188 132.442 360.355 134.539 359.698 136.426C358.895 138.731 357.321 140.88 355.041 141.893C353.366 142.638 351.129 142.667 349.441 141.929C348.638 141.578 347.789 140.941 347.458 140.114L347.558 139.933C348.895 137.473 348.776 134.675 347.976 132.047C347.437 130.279 345.91 126.854 344.231 125.964C343.445 126.022 343.372 126.049 342.764 126.548C342.704 127.748 343.55 128.636 344.106 129.683C344.799 130.988 345.546 132.506 345.799 133.974C346.121 135.844 346.037 137.559 344.841 139.109C343.988 140.214 342.669 140.958 341.281 141.131C339.213 141.39 337.312 140.938 335.659 139.642C332.588 137.232 331.943 133.876 331.281 130.275C331.196 129.814 330.81 128.954 330.831 128.534C330.844 128.272 331.766 126.984 331.966 126.641C332.801 125.21 333.549 123.718 334.186 122.188C337.63 113.93 338.121 104.208 337.031 95.3929C336.717 92.857 336.215 90.335 335.638 87.8465C335.465 87.0977 335.273 85.868 334.803 85.2726C334.664 85.0962 334.337 84.9066 334.152 84.7614L333.43 84.8742C333.287 85.02 332.791 85.4259 332.733 85.5853C332.524 86.1629 332.937 86.5065 332.492 87.1209C329.003 87.1571 325.755 86.3187 322.48 85.1598C314.961 82.4988 308.788 78.3569 303.16 72.7499L299.938 69.244C299.265 68.4564 298.631 67.4409 297.629 67.1556C296.85 67.4306 296.746 67.6052 296.218 68.258L291.537 76.7761L286.014 85.4849C283.818 88.93 281.758 92.1698 280.781 96.1996C279.57 101.195 280.105 106.141 281.227 111.095C283.262 120.082 287.289 128.775 294.753 134.486C295.861 135.334 297.031 136.098 298.263 136.755C299.632 137.486 302.963 138.395 303.692 139.655C304.992 141.901 306.261 143.795 306.341 146.494C306.379 147.769 305.828 149.208 304.918 150.096C303.282 151.691 300.757 152.307 298.538 152.264C293.788 152.174 289.712 149.634 286.513 146.318C289.046 147.23 291.976 148.9 294.665 148.802C295.237 148.456 295.203 148.464 295.397 147.819C294.7 146.85 293.678 146.889 292.649 146.442C291.424 145.911 290.273 145.179 289.065 144.603C288.09 144.139 287.166 143.883 286.3 143.196C286.228 142.447 286.191 141.793 286.304 141.048C286.4 140.411 286.443 139.809 286.452 139.166C285.791 138.831 285.748 138.916 285.06 139.087C283.818 140.246 284.094 141.346 283.755 142.851C283.063 142.915 282.36 142.879 281.835 143.386C281.949 144.994 282.89 146.163 283.733 147.481L277.677 149.745C280.378 143.851 281.044 136.699 281.087 130.275C281.109 127.025 281.034 123.85 280.37 120.654C279.668 117.272 278.347 113.899 276.66 110.887C275.74 109.244 274.6 107.625 273.355 106.211C272.787 105.566 271.614 104.674 271.223 103.974C270.98 103.54 270.898 102.404 270.825 101.896C268.913 88.7176 270.613 74.0051 278.864 63.1137C282.233 58.6663 287.817 54.6362 293.384 53.7281C294.948 53.473 296.883 53.8223 298.354 53.4254C299.306 53.1686 300.652 51.8029 301.519 51.2251C304.383 49.3149 307.662 48.3371 311.036 47.8483Z" fill="#B16E51"/>
<path d="M176.464 325.016L182.961 325.166C192.17 326.076 201.306 330.714 207.216 337.852C207.134 338.777 206.494 339.947 206.152 340.828L203.953 346.82L201.13 355.699L187.128 355.567C187.134 353.845 187.334 349.973 186.043 348.667C185.261 348.623 185.125 348.596 184.456 348.984C183.809 350.379 184.536 352.586 184.493 354.2C184.437 356.317 184.059 358.378 183.681 360.456L177.296 390.473L166.213 456.762C164.903 465.342 162.895 473.979 162.123 482.612L154.231 475.711C149.641 472.09 143.797 468.576 137.996 467.516C132.603 466.527 125.79 466.544 121.145 469.881C119.145 471.318 118.848 473.246 118.449 475.519C117.775 474.555 117.174 473.612 116.648 472.56C116.645 470.162 117.151 467.736 117.617 465.392C119.664 455.08 124.466 445.721 127.244 435.623L132.781 412.285L144.63 366.647C147.904 355.532 150.977 342.251 158.616 333.203C163.216 327.753 169.535 325.593 176.464 325.016Z" fill="#B6B5AD"/>
<path d="M229.459 323.819L233.784 323.703C236.485 323.787 239.171 324.564 241.698 325.477C249.784 328.401 257.729 334.033 263.6 340.276C263.847 340.539 264.686 341.282 264.787 341.568C264.963 342.062 264.757 343.622 264.747 344.213L264.511 354.746L242.202 358.372C242.121 358.022 243.069 356.837 243.238 356.38C243.557 355.513 243.46 355.343 243.091 354.558C242.431 354.189 242.445 354.14 241.66 354.304C240.312 355.236 239.655 356.821 239.079 358.299C237.624 362.038 236.701 366.034 235.677 369.909C231.014 387.573 227.629 405.515 224.48 423.503L221.305 442.32C220.53 446.528 219.069 450.569 218.348 454.777L213.683 485.521L206.117 478.51L201.107 474.682C195.545 471.076 188.041 467.789 181.302 469.276C176.624 470.311 171.815 473.391 169.239 477.461C167.857 476.717 166.826 475.814 165.789 474.643C166.35 471.278 167.582 468.02 168.73 464.819L174.256 450.256L178.179 438.969L182.083 427.924L187.938 408.208L194.514 388.245L201.342 364.561L206.406 347.643C208.268 342.299 210.213 336.677 213.651 332.111C217.614 326.849 223.134 324.722 229.459 323.819Z" fill="#B6B5AD"/>
<path d="M95.4368 318.392L95.8221 299.198C95.5414 298.707 95.3895 298.34 94.7509 298.25C94.1227 298.162 93.8125 298.405 93.3443 298.768C92.8605 300.014 92.9398 301.446 92.89 302.767L92.6385 308.713L91.6339 341.226C91.587 345.966 92.0039 350.763 91.8225 355.483C91.704 358.564 91.2134 361.676 90.9068 364.746L88.5254 387.386L81.7937 463.149C71.8679 464.415 62.0103 461.068 52.832 457.721L63.2261 394.145L68.045 368.189L69.3246 361.87C69.5494 360.755 69.8955 359.591 69.871 358.449C69.8295 356.512 69.3947 354.474 69.0943 352.561L67.6002 343.265L61.7383 310.02C58.1916 288.349 57.2265 266.213 57.3588 244.289C68.4918 249.731 81.1349 251.971 93.3895 253.054L100.006 253.317C101.096 253.335 102.416 253.222 103.474 253.42C105.463 253.793 107.736 255.381 109.626 256.207C110.079 256.405 111.447 256.788 111.693 257.066C112.171 257.605 112.733 259.96 113.052 260.741L116.035 267.23C118.828 272.903 122.407 278.133 125.76 283.479L125.213 296.449C125.206 296.74 125.222 299.136 125.149 299.22C125.022 299.365 121.055 299.991 120.625 300.091C117.782 300.75 114.725 302 112.965 304.417C112.623 306.265 112.13 312.329 113.236 313.768C114.349 315.215 123.113 316.748 125.261 317.101L125.193 322.179C121.893 323.532 118.973 325.885 116.42 328.343C111.133 333.435 106.993 339.51 103.711 346.049L101.118 351.907C100.921 349.99 101.012 348.034 100.868 346.107L99.2311 325.346C98.9924 322.408 99.0789 318.919 98.2955 316.119C97.6243 315.739 97.5937 315.792 96.8726 315.913C96.2849 316.338 96.0974 316.695 95.853 317.376L95.7787 317.593L95.4368 318.392Z" fill="#B6B5AD"/>
<path d="M362.887 133.478C363.125 133.41 363.313 133.356 363.562 133.35C364.223 133.333 364.924 133.405 365.414 133.834L364.214 136.98C363.203 139.772 361.995 144.652 363.375 147.466C364.17 149.087 365.263 149.82 366.931 150.398L367.266 150.513C366.752 151.551 366.363 152.432 366.406 153.606C366.451 154.843 366.921 155.946 367.876 156.76C368.719 157.477 369.616 157.735 370.707 157.655L370.908 157.637C371.039 157.89 371.036 157.977 370.992 158.262C370.917 158.733 370.823 159.177 370.869 159.656C370.991 160.941 371.573 162.146 372.59 162.952C373.48 163.657 374.708 164.003 375.823 163.82L376.011 163.785L376.397 164.299C376.689 164.721 376.937 165.13 377.324 165.478C378.655 166.677 380.232 167.06 381.973 166.918L382.251 166.894L382.538 167.306C383.566 169.114 384.376 171.168 385.307 173.043C392.973 188.479 398.735 205.344 400.495 222.555C400.784 225.345 401.296 229.191 400.584 231.916C399.147 237.422 388.496 243.89 383.804 246.695C370.767 254.488 356.025 261.113 340.563 261.147C338.034 261.152 335.24 261.171 332.775 260.549C332.359 255.399 332.217 250.505 330.837 245.465C332.45 244.632 334.218 244.086 335.901 243.407L342.928 240.172C353.03 234.902 362.103 228.641 371.559 222.365C372.855 221.506 374.162 220.576 375.542 219.856C376.473 219.371 377.645 219.255 378.449 218.59L378.404 217.613C378.186 217.395 377.844 216.928 377.549 216.876C375.412 216.494 372.114 219.023 370.389 220.151C368.63 215.77 367.394 211.064 366.04 206.542L358.214 180.533C357.763 179.136 357.261 176.24 356.386 175.126C356.258 174.963 355.91 174.777 355.734 174.648C355.065 174.719 354.814 174.883 354.313 175.323C354.055 176.367 357.994 187.923 358.554 189.785L366.06 215.211C366.789 217.327 367.618 219.347 368.673 221.321C359.471 227.889 349.982 234.24 339.795 239.203L328.617 244.001C324.236 242.758 319.938 240.978 315.959 238.765C315.329 238.414 314.126 237.893 313.671 237.354C312.792 236.311 312.092 234.146 311.494 232.879L305.336 218.548L296.155 195.289C294.992 191.851 294.073 188.272 293.281 184.732L291.666 175.867C291.463 174.531 291.446 171.996 290.733 170.937C289.886 170.648 289.896 170.671 289.076 171.039C288.345 172.514 288.947 174.526 289.186 176.153C290.061 182.102 291.419 187.977 293.258 193.701C289.789 196.34 287.033 199.349 284.381 202.788C277.656 197.722 271.058 194.013 263.282 190.784L262.995 188.96C262.596 186.717 261.264 185.751 259.508 184.524C261.847 181.006 263.306 177.403 265.009 173.577C265.564 172.33 266.785 172.446 267.999 171.957C271.185 170.672 273.503 168.047 274.818 164.921C276.213 161.606 276.068 158.774 274.719 155.5L276.083 153.292L283.838 149.923C284.177 149.789 285.321 149.223 285.577 149.252C285.694 149.266 286.481 150.004 286.616 150.114C287.673 150.97 288.763 151.75 289.97 152.382C292.82 153.873 295.737 154.731 298.913 155.212C301.839 158.667 305.45 161.699 309.616 163.527C315.662 166.179 323.023 166.112 329.127 163.712C337.556 160.399 344.434 152.183 347.937 144.032C348.817 144.34 349.695 144.63 350.619 144.772C353.206 145.17 355.821 144.538 357.934 142.98C361.16 140.6 362.286 137.266 362.887 133.478Z" fill="#B6B5AD"/>
<path d="M262.514 193.164C264.909 193.824 267.513 195.208 269.731 196.32C281.099 202.02 290.039 210.343 298.206 219.929C302.407 224.86 306.327 229.897 309.934 235.28L308.964 235.167C308.496 235.116 307.939 235.017 307.471 235.084C306.772 235.184 306.191 235.576 305.757 236.123C304.942 237.153 304.865 238.405 305.013 239.663C305.4 242.947 307.596 244.742 310.01 246.661L302.135 247.207C299.767 247.457 296.409 248.024 294.88 250.071C294.047 251.187 293.964 252.499 294.217 253.818L294.263 254.017C293.365 254.636 292.59 255.245 292.194 256.298C291.82 257.293 292.12 257.974 292.53 258.881L292.645 259.132C292.049 259.623 291.349 260.168 290.945 260.833C290.429 261.68 290.336 263.037 290.63 263.978C291.263 266.004 292.752 266.603 294.52 267.464L293.534 268.896L292.726 268.943C290.842 269.202 289.041 271.913 287.905 273.31L285.428 239.337C285.296 238.475 285.138 238.417 284.466 237.928C283.593 238.038 283.597 238.081 283.008 238.744C282.83 240.256 283.031 241.781 283.146 243.292L283.646 250.159L285.773 276.486C282.626 280.903 279.172 285.224 275.29 289.021C274.371 289.92 273.429 290.791 272.414 291.581C271.743 292.103 270.864 292.62 270.339 293.276C269.196 294.701 266.358 295.273 264.692 296.017C263.213 296.677 261.904 297.555 260.75 298.693C259.241 300.181 258.081 301.87 257.31 303.847C256.167 306.775 255.863 310.182 255.607 313.302L255.062 329.715L246.002 324.456C244.642 323.786 243.086 323.425 241.777 322.694C240.369 321.909 239.111 320.735 237.69 319.892C232.998 317.11 227.509 315.55 222.121 314.884C213.085 313.768 202.681 315.613 194.743 320.052C192.886 321.09 191.228 322.4 189.556 323.705L184.007 322.728L183.633 273.802C183.823 252.007 184.303 230.463 190.501 209.394C197.313 202.782 205.316 199.147 214.005 195.61C214.196 202.441 215.104 209.317 217.53 215.756C217.968 216.916 218.271 217.603 219.429 218.131C221.229 218.027 222.901 217.128 224.514 216.379C227.46 215.011 230.37 213.548 233.111 211.803L241.792 216.698C243.278 217.536 244.919 218.709 246.52 219.277C247.047 219.463 247.572 219.496 248.062 219.191C249.384 218.369 250.522 216.728 251.442 215.501C256.37 208.926 260.129 201.012 262.514 193.164Z" fill="#B16E51"/>
<path d="M395.967 255.559C397.251 259.072 397.916 263.249 398.589 266.942C404.003 296.782 398.542 327.674 394.649 357.402L390.57 392.907L388.274 426.61L386.034 467.165C377.68 467.976 369.149 468.449 360.791 467.406L358.991 373.963L358.219 337.357L358.591 311.136L358.856 303.784C358.909 302.657 359.188 301.078 358.857 300.007C358.16 299.547 358.01 299.595 357.162 299.621C357.004 299.796 356.799 299.939 356.687 300.147C356.555 300.394 356.547 301.219 356.518 301.514L356.269 306.026L355.797 325.603C355.773 330.434 355.961 335.343 355.596 340.16L353.123 468.306C344.984 468.922 337.105 468.94 329.028 467.595L321.137 328.218L321.272 313.252C321.277 312.751 321.132 310.153 321.307 309.868C321.396 309.721 324.416 308.9 324.784 308.756C325.632 308.422 326.447 307.903 327.081 307.246C328.408 305.87 328.492 303.867 328.413 302.066C328.306 299.588 328.064 296.331 326.059 294.598C325.006 293.687 324.124 293.635 322.806 293.726L322.466 293.751C326.122 289.346 327.35 285.506 328.197 279.932C340.553 285.033 354.053 285.038 366.695 280.891C379.687 276.631 389.847 267.682 395.967 255.559Z" fill="#70836F"/>
<path d="M84.824 137.956C86.2868 138.682 87.4195 139.074 89.0634 138.514C90.0307 138.184 90.9278 137.402 91.3668 136.477C91.7756 135.617 91.8396 134.716 91.8955 133.784L96.7837 131.947C98.7086 138.309 106.724 163.23 112.038 166.163C112.493 166.414 113.255 166.376 113.727 166.209C118.297 164.588 123.841 150.584 125.578 146.117L128.663 137.044C129.098 135.546 129.4 133.246 130.068 131.915C130.357 131.341 132.746 130.118 133.444 129.74L147.018 123.055C154.753 119.655 162.941 117.097 171.239 115.504L181.097 113.934C184.51 117.667 187.76 121.058 192.328 123.408C192.436 123.463 192.602 123.463 192.654 123.573C192.837 123.959 192.86 124.814 192.934 125.263L193.595 128.822C194.573 133.286 196.247 137.857 198.941 141.582C200.168 143.28 201.748 144.826 203.161 146.373C202.121 149.833 201.82 153.838 203.61 157.114C204.649 159.017 206.124 160.22 208.204 160.817L208.724 160.955C209.186 166.155 209.917 171.254 211.755 176.171C212.414 177.936 213.172 179.643 214.031 181.319C214.497 182.229 216.105 184.315 216.189 185.194C216.222 185.543 215.383 187.153 215.239 187.605C214.634 189.493 214.555 191.423 214.024 193.287C206.874 195.806 199.847 198.764 193.754 203.359C188.586 207.256 184.435 212.296 180.432 217.333C170.617 229.686 161.996 243.379 155.177 257.615L152.839 262.848L152.56 262.925C152.065 260.967 152.182 258.759 152.126 256.749L151.889 246.034C151.224 214.409 152.243 182.765 157.525 151.513C157.759 150.132 158.707 147.61 157.464 146.695C156.06 146.717 153.239 150.042 152.254 151.064C149.625 153.791 147.489 156.805 145.795 160.196C143.053 165.685 141.427 171.811 139.801 177.706C136.082 191.187 133.253 204.875 131.191 218.705L129.217 234.687C126.711 234.675 123.316 235.002 120.902 234.303C123.209 232.4 125.875 230.846 126.293 227.6C126.39 226.838 126.269 225.873 125.749 225.272C125.326 224.784 124.767 224.575 124.13 224.599C122.578 224.655 120.718 225.712 119.273 226.285C116.658 227.322 113.933 228.236 111.104 228.394C109.045 228.51 106.947 227.352 105.08 226.569C98.7819 223.926 92.7183 220.626 86.8486 217.14L77.5085 211.489C77.0087 210.509 75.373 195.091 75.6156 194.452C76.3364 192.552 77.5491 190.65 78.4609 188.81L84.39 176.476C84.9777 175.206 86.474 172.881 86.2509 171.562C85.7098 171.097 85.6305 171.01 84.8927 170.894C83.7714 171.627 83.0428 173.734 82.4676 174.94L77.6057 185.15L72.4393 195.12C72.5469 195.552 72.6402 195.827 72.8589 196.211C73.4705 197.285 73.4144 199.558 73.5372 200.819L74.5516 209.628L69.0573 206.212C68.4609 205.847 67.4159 205.059 66.7498 204.932C66.5108 204.886 66.0586 204.988 65.8012 205.009L65.2106 205.67C65.2706 206.468 65.1965 206.54 65.827 207.072C68.2378 209.105 71.5615 210.704 74.2543 212.373C83.7497 218.257 93.0893 224.121 103.322 228.674L98.7044 248.803C84.6095 243.615 70.2669 238.674 57.2783 231.016C54.0009 229.084 50.7694 227.178 47.9871 224.541C46.2488 222.894 44.7351 220.875 43.7442 218.691C41.1776 213.034 42.1761 207.287 44.3344 201.682L53.0303 180.741L58.1626 167.001C58.7886 165.39 59.3798 163.375 60.2375 161.892C61.1497 160.315 62.8569 159.306 63.8098 157.69C66.4947 159.205 69.7612 161.212 72.9787 160.356C74.3078 160.003 75.2691 159.074 75.9073 157.883C76.1083 157.508 76.5512 155.919 76.8198 155.846C77.4153 155.683 78.109 155.803 78.7277 155.742C80.2527 155.591 81.7433 154.533 82.5426 153.231C83.3914 151.85 83.3776 150.676 83.1919 149.126L83.4565 148.923C84.8578 147.836 85.6917 146.706 85.9154 144.883C86.1826 142.704 85.0247 140.95 83.8457 139.236C84.3854 138.955 84.5601 138.473 84.824 137.956Z" fill="#70836F"/>
<defs>
<linearGradient id="paint0_linear_434_9147" x1="119.614" y1="365.986" x2="110.956" y2="364.465" gradientUnits="userSpaceOnUse">
<stop stop-color="#BCA58E"/>
<stop offset="1" stop-color="#A1A09C"/>
</linearGradient>
<linearGradient id="paint1_linear_434_9147" x1="140.306" y1="483.559" x2="126.462" y2="506.459" gradientUnits="userSpaceOnUse">
<stop stop-color="#617E67"/>
<stop offset="1" stop-color="#91A08C"/>
</linearGradient>
<linearGradient id="paint2_linear_434_9147" x1="322.676" y1="389.877" x2="284.261" y2="393.49" gradientUnits="userSpaceOnUse">
<stop stop-color="#979394"/>
<stop offset="1" stop-color="#AAADA9"/>
</linearGradient>
</defs>
</svg>
