<svg width="469" height="1685" viewBox="0 0 469 1685" fill="none" xmlns="http://www.w3.org/2000/svg">
<path d="M109.525 1604.37C110.915 1607.19 109.525 1611.37 106.744 1609.98L109.525 1604.37Z" stroke="#1D1D1B" stroke-width="5.17"/>
<path d="M109.525 1604.37C110.915 1607.19 109.525 1611.37 106.744 1609.98" stroke="#1D1D1B" stroke-width="5.17" stroke-linecap="round" stroke-linejoin="round"/>
<path d="M96.966 1600.15C101.138 1601.59 103.918 1600.15 103.918 1595.98L96.966 1600.15Z" stroke="#1D1D1B" stroke-width="5.17"/>
<path d="M96.966 1600.15C101.138 1601.59 103.918 1600.15 103.918 1595.98" stroke="#1D1D1B" stroke-width="5.17" stroke-linecap="round" stroke-linejoin="round"/>
<path d="M95.5312 1583.37C94.1413 1590.41 88.5793 1584.81 84.3633 1583.37H95.5312Z" stroke="#1D1D1B" stroke-width="5.17"/>
<path d="M95.5312 1583.37C94.1413 1590.41 88.5793 1584.81 84.3633 1583.37" stroke="#1D1D1B" stroke-width="5.17" stroke-linecap="round" stroke-linejoin="round"/>
<path d="M67.6785 1541.33C69.1145 1542.72 83.0625 1544.11 83.0625 1542.72L67.6785 1541.33Z" stroke="#1D1D1B" stroke-width="5.17"/>
<path d="M67.6785 1541.33C69.1145 1542.72 83.0625 1544.11 83.0625 1542.72" stroke="#1D1D1B" stroke-width="5.17" stroke-linecap="round" stroke-linejoin="round"/>
<path d="M173.797 359.908C169.242 363.347 163.992 365.751 158.413 366.953C130.471 371.125 127.69 362.735 115.132 372.516C101.138 380.951 102.528 347.3 117.912 355.736C122.084 357.126 135.853 344.519 143.074 347.3C152.852 351.518 162.629 343.083 169.626 340.301C162.629 341.692 155.633 338.91 147.2 340.301C144.42 340.301 143.029 329.084 152.807 327.693C196.089 322.084 184.965 302.477 200.305 309.477C204.319 310.608 208.575 310.549 212.556 309.306C216.537 308.064 220.072 305.691 222.73 302.477L221.295 294.042C200.349 303.868 189.181 296.869 183.575 308.086C182.185 312.258 180.794 305.259 180.794 303.868C178.013 277.216 196.133 298.26 203.22 281.434C210.307 264.609 228.382 281.434 228.382 260.436C227.265 258.792 226.772 256.803 226.991 254.827C201.74 261.827 197.748 263.218 193.263 273.223C193.263 274.614 183.485 283.004 186.266 274.614C187.701 270.397 183.485 249.398 194.653 255.007C208.647 263.397 204.476 238.181 217.079 236.79C226.857 235.355 229.638 232.573 233.854 224.138C226.857 225.573 222.686 224.138 225.466 214.356C207.526 215.747 200.305 238.181 183.53 239.572C176.578 240.963 182.14 235.355 183.53 226.964C183.53 214.356 198.914 222.747 201.471 207.357C204.296 196.14 218.245 203.139 221.026 190.531C221.026 184.923 200.08 187.705 179.135 204.53C174.919 182.096 173.528 183.532 194.474 166.706C215.42 149.881 211.248 176.533 234.84 152.708C235.957 151.629 236.79 150.291 237.264 148.812C237.739 147.333 237.841 145.76 237.562 144.233C237.282 142.705 236.629 141.271 235.662 140.056C234.694 138.842 233.441 137.886 232.015 137.273C219.456 135.882 195.685 149.881 190.123 140.1C181.736 121.883 222.282 131.665 226.453 123.274C233.45 117.666 211.069 109.231 240.402 110.666L243.228 105.058C246.008 103.622 247.399 102.231 250.224 102.231L248.789 110.666C264.173 105.058 278.167 93.8414 275.341 107.84C272.56 117.666 292.116 102.231 287.945 120.448C287.945 126.056 276.732 131.665 276.732 140.1C287.945 140.1 283.729 163.88 287.945 170.924C296.332 186.314 273.951 179.314 268.389 176.533L266.954 179.314C269.78 200.313 287.945 184.923 284.895 197.531C281.845 210.139 290.501 211.53 287.72 221.356C287.72 225.573 275.117 219.965 265.295 215.747L263.904 217.138C270.901 221.356 268.12 229.746 281.845 231.182C288.842 231.182 284.626 270.397 277.674 266.179C273.458 262.006 270.677 255.007 262.289 259.179L260.899 260.615C264.622 273.223 278.481 273.223 278.481 287.043C277.046 292.651 275.655 317.867 268.703 308.086C265.571 302.967 261.227 298.699 256.055 295.657C255.515 296.198 254.858 296.609 254.135 296.858C253.413 297.106 252.643 297.187 251.884 297.093C256.055 318.091 254.665 302.701 265.833 318.091C270.049 323.7 258.836 330.699 256.055 341.916C253.274 351.742 247.668 327.917 237.89 337.743C242.106 351.742 232.284 347.525 250.494 354.524C254.665 355.96 240.671 375.567 240.671 381.176C239.281 385.393 229.503 375.567 229.503 372.74C219.725 378.349 205.777 372.74 204.386 361.523L196.133 362.959C185.01 348.916 183.575 354.524 173.708 360.133" stroke="#1D1D1B" stroke-width="5.17"/>
<path d="M173.797 359.908C169.242 363.347 163.992 365.751 158.413 366.953C130.471 371.125 127.69 362.735 115.132 372.516C101.138 380.951 102.528 347.3 117.912 355.736C122.084 357.126 135.853 344.519 143.074 347.3C152.852 351.518 162.629 343.083 169.626 340.301C162.629 341.692 155.633 338.91 147.2 340.301C144.42 340.301 143.029 329.084 152.807 327.693C196.089 322.084 184.965 302.477 200.305 309.477C204.319 310.608 208.575 310.549 212.556 309.306C216.537 308.064 220.072 305.691 222.73 302.477L221.295 294.042C200.349 303.868 189.181 296.869 183.575 308.086C182.185 312.258 180.794 303.868 180.794 303.868C178.013 277.216 196.133 298.26 203.22 281.434C210.307 264.609 228.382 281.434 228.382 260.436C227.265 258.792 226.772 256.803 226.991 254.827C201.74 261.827 197.748 263.218 193.263 273.223C193.263 274.614 183.485 283.004 186.266 274.614C187.701 270.397 183.485 249.398 194.653 255.007C208.647 263.397 204.476 238.181 217.079 236.79C226.857 235.355 229.638 232.573 233.854 224.138C226.857 225.573 222.686 224.138 225.466 214.356C207.526 215.747 200.305 238.181 183.53 239.572C176.578 240.963 182.14 235.355 183.53 226.964C183.53 214.356 198.914 222.747 201.471 207.357C204.296 196.14 218.245 203.139 221.026 190.531C221.026 184.923 200.08 187.705 179.135 204.53C174.919 182.096 173.528 183.532 194.474 166.706C215.42 149.881 211.248 176.533 234.84 152.708C235.957 151.629 236.79 150.291 237.264 148.812C237.739 147.333 237.841 145.76 237.562 144.233C237.282 142.705 236.629 141.271 235.662 140.056C234.694 138.842 233.441 137.886 232.015 137.273C219.456 135.882 195.685 149.881 190.123 140.1C181.736 121.883 222.282 131.665 226.453 123.274C233.45 117.666 211.069 109.231 240.402 110.666L243.228 105.058C246.008 103.622 247.399 102.231 250.224 102.231L248.789 110.666C264.173 105.058 278.167 93.8414 275.341 107.84C272.56 117.666 292.116 102.231 287.945 120.448C287.945 126.056 276.732 131.665 276.732 140.1C287.945 140.1 283.729 163.88 287.945 170.924C296.332 186.314 273.951 179.314 268.389 176.533L266.954 179.314C269.78 200.313 287.945 184.923 284.895 197.531C281.845 210.139 290.501 211.53 287.72 221.356C287.72 225.573 275.117 219.965 265.295 215.747L263.904 217.138C270.901 221.356 268.12 229.746 281.845 231.182C288.842 231.182 284.626 270.397 277.674 266.179C273.458 262.006 270.677 255.007 262.289 259.179L260.899 260.615C264.622 273.223 278.481 273.223 278.481 287.043C278.481 292.651 275.655 317.867 268.703 308.086C265.571 302.967 261.227 298.699 256.055 295.657C255.515 296.198 254.858 296.609 254.135 296.858C253.413 297.106 252.643 297.187 251.884 297.093C256.055 318.091 254.665 302.701 265.833 318.091C270.049 323.7 258.836 330.699 256.055 341.916C253.274 351.742 247.668 327.917 237.89 337.743C242.106 351.742 232.284 347.525 250.494 354.524C254.665 355.96 240.671 375.567 240.671 381.176C239.281 385.393 229.503 375.567 229.503 372.74C219.725 378.349 205.777 372.74 204.386 361.523L196.133 362.959C185.01 348.691 183.575 354.3 173.797 359.908Z" fill="#FC8B75" stroke="#1D1D1B" stroke-width="5.17" stroke-linecap="round" stroke-linejoin="round"/>
<path d="M238.113 146.918C243.719 160.916 268.881 142.7 277.223 139.918" stroke="#1D1D1B" stroke-width="5.17" stroke-linecap="round" stroke-linejoin="round"/>
<path d="M257.626 162.309C264.622 151.092 266.013 170.699 257.626 170.699V162.309Z" stroke="#1D1D1B" stroke-width="5.17"/>
<path d="M257.626 162.309C264.622 151.092 266.013 170.699 257.626 170.699" stroke="#1D1D1B" stroke-width="5.17" stroke-linecap="round" stroke-linejoin="round"/>
<path d="M267.402 178.998C259.015 194.433 246.457 170.608 239.46 178.998C235.289 183.215 231.073 195.823 221.519 190.215" stroke="#1D1D1B" stroke-width="5.17"/>
<path d="M267.402 178.998C259.015 194.433 246.457 170.608 239.46 178.998C235.289 183.215 231.073 195.823 221.519 190.215" stroke="#1D1D1B" stroke-width="5.17" stroke-linecap="round" stroke-linejoin="round"/>
<path d="M266.012 191.742C266.012 201.569 254.844 207.177 254.844 194.569L266.012 191.742Z" stroke="#1D1D1B" stroke-width="5.17"/>
<path d="M266.012 191.742C266.012 201.569 254.844 207.177 254.844 194.569" stroke="#1D1D1B" stroke-width="5.17" stroke-linecap="round" stroke-linejoin="round"/>
<path d="M263.043 128.187C263.043 135.046 256.246 138.395 255.86 130.273Z" stroke="#1D1D1B" stroke-width="5.17" stroke-linecap="round" stroke-linejoin="round"/>
<path d="M264.621 216.956C256.234 226.782 254.843 211.348 247.846 208.566" stroke="#1D1D1B" stroke-width="5.17"/>
<path d="M264.621 216.956C256.234 226.782 254.843 211.348 247.846 208.566" stroke="#1D1D1B" stroke-width="5.17" stroke-linecap="round" stroke-linejoin="round"/>
<path d="M252.062 212.785C246.472 217.102 240.461 220.845 234.122 223.958L252.062 212.785Z" stroke="#1D1D1B" stroke-width="5.17"/>
<path d="M252.062 212.785C246.472 217.102 240.461 220.845 234.122 223.958" stroke="#1D1D1B" stroke-width="5.17" stroke-linecap="round" stroke-linejoin="round"/>
<path d="M225.512 214.175L228.293 209.957" stroke="#1D1D1B" stroke-width="5.17"/>
<path d="M225.512 214.175L228.293 209.957" stroke="#1D1D1B" stroke-width="5.17" stroke-linecap="round" stroke-linejoin="round"/>
<path d="M228.293 247.781L226.903 254.78" stroke="#1D1D1B" stroke-width="5.17"/>
<path d="M228.293 247.781L226.903 254.78" stroke="#1D1D1B" stroke-width="5.17" stroke-linecap="round" stroke-linejoin="round"/>
<path d="M228.295 260.437C231.075 261.828 238.072 256.219 245.069 254.828C249.24 264.61 256.237 264.61 261.844 260.437" stroke="#1D1D1B" stroke-width="5.17" stroke-linecap="round" stroke-linejoin="round"/>
<path d="M263.23 259C267.644 254.374 270.566 248.527 271.617 242.219L263.23 259Z" stroke="#1D1D1B" stroke-width="5.17"/>
<path d="M263.23 259C267.644 254.374 270.566 248.527 271.617 242.219" stroke="#1D1D1B" stroke-width="5.17" stroke-linecap="round" stroke-linejoin="round"/>
<path d="M263.23 243.609C257.623 251.999 249.236 247.782 252.062 238L263.23 243.609Z" stroke="#1D1D1B" stroke-width="5.17"/>
<path d="M263.23 243.609C257.623 251.999 249.236 247.782 252.062 238" stroke="#1D1D1B" stroke-width="5.17" stroke-linecap="round" stroke-linejoin="round"/>
<path d="M256.055 284.215C244.887 288.433 249.058 277.216 247.668 273.043L256.055 284.215Z" stroke="#1D1D1B" stroke-width="5.17"/>
<path d="M256.055 284.215C244.887 288.433 249.058 277.216 247.668 273.043" stroke="#1D1D1B" stroke-width="5.17" stroke-linecap="round" stroke-linejoin="round"/>
<path d="M264.621 284.215C262.029 288.219 259.166 292.042 256.054 295.657L264.442 284.439" stroke="#1D1D1B" stroke-width="5.17"/>
<path d="M264.621 284.215C262.029 288.219 259.166 292.042 256.054 295.657" stroke="#1D1D1B" stroke-width="5.17" stroke-linecap="round" stroke-linejoin="round"/>
<path d="M252.062 296.867C246.457 298.258 242.285 292.65 236.678 282.824" stroke="#1D1D1B" stroke-width="5.17" stroke-linecap="round" stroke-linejoin="round"/>
<path d="M240.852 288.434C233.9 289.87 228.294 296.869 222.912 302.478" stroke="#1D1D1B" stroke-width="5.17" stroke-linecap="round" stroke-linejoin="round"/>
<path d="M242.285 308.082C243.645 310.163 244.37 312.595 244.37 315.082C244.37 317.568 243.645 320 242.285 322.081C233.897 330.471 253.453 327.69 250.672 317.864L242.285 308.082Z" stroke="#1D1D1B" stroke-width="5.17"/>
<path d="M242.285 308.082C243.645 310.163 244.37 312.595 244.37 315.082C244.37 317.568 243.645 320 242.285 322.081C233.897 330.471 253.453 327.69 250.672 317.864" stroke="#1D1D1B" stroke-width="5.17" stroke-linecap="round" stroke-linejoin="round"/>
<path d="M238.113 337.518C228.335 345.908 224.164 317.866 217.167 329.083C210.17 338.909 194.742 331.865 169.67 340.3" stroke="#1D1D1B" stroke-width="5.17"/>
<path d="M238.113 337.518C228.335 345.908 224.164 317.866 217.167 329.083C210.17 338.909 194.742 331.865 169.67 340.3" stroke="#1D1D1B" stroke-width="5.17" stroke-linecap="round" stroke-linejoin="round"/>
<path d="M224.121 340.523C224.629 347.328 223.165 354.136 219.905 360.13C218.514 362.957 229.682 362.957 233.898 357.348L224.121 340.523Z" stroke="#1D1D1B" stroke-width="5.17"/>
<path d="M224.121 340.523C224.629 347.328 223.165 354.136 219.905 360.13C218.514 362.957 229.682 362.957 233.898 357.348" stroke="#1D1D1B" stroke-width="5.17" stroke-linecap="round" stroke-linejoin="round"/>
<path d="M232.465 369.734L229.684 372.516" stroke="#1D1D1B" stroke-width="5.17"/>
<path d="M232.465 369.734L229.684 372.516" stroke="#1D1D1B" stroke-width="5.17" stroke-linecap="round" stroke-linejoin="round"/>
<path d="M168.193 1056.39C155.634 1060.61 136.079 1074.61 131.863 1062.05C122.085 1035.4 164.021 1036.79 165.412 1010.18C159.85 1007.35 155.634 1003.18 152.853 1001.79C137.469 1017.18 127.692 1029.79 122.085 1021.4C109.527 1000.35 141.64 987.751 138.86 965.313C130.472 966.751 122.085 966.751 123.52 958.314C115.133 982.141 96.9228 958.314 99.7488 954.096C112.308 937.27 108.136 924.707 110.917 909.228C108.815 908.874 106.864 907.906 105.311 906.446C96.9228 902.229 85.7998 928.88 82.8848 914.836L78.7138 902.229C77.2778 895.229 94.0528 865.796 91.2718 848.97C88.7898 849.796 86.1128 849.833 83.6078 849.078C81.1028 848.323 78.8918 846.813 77.2778 844.753C71.7168 853.188 59.3378 865.796 56.3328 855.97C47.9458 826.536 77.2778 805.538 71.7168 776.105H64.8098C64.8098 784.495 50.8608 813.928 42.3838 795.712C28.3898 767.669 61.9388 738.281 63.3298 708.847L59.1138 707.412C52.1618 727.064 35.3868 736.845 39.5578 699.021C40.9938 679.414 59.1138 665.415 64.7198 645.763C62.9828 646.062 61.1998 645.963 59.5068 645.473C57.8128 644.983 56.2528 644.116 54.9418 642.936C27.3138 659.807 46.6448 612.157 67.6798 584.159C60.6828 581.332 59.2928 574.333 60.6828 567.334C50.9508 574.333 45.3438 561.725 63.5088 550.508C77.4578 542.118 76.0668 528.074 91.4518 518.293C89.0778 517.5 87.0038 516.001 85.5048 513.996C84.0058 511.992 83.1548 509.577 83.0638 507.076C67.6798 515.511 57.8128 502.858 69.0258 491.641C74.5868 484.642 80.1938 491.641 88.5808 484.642L113.698 460.817C108.047 458.035 103.92 448.209 109.527 442.6C101.14 429.992 80.1938 455.208 80.1938 446.818C77.3678 404.777 125.045 432.774 138.86 417.385C131.863 413.167 133.298 406.168 138.86 400.559C127.692 400.559 119.304 394.951 101.139 401.95C94.1428 404.777 90.1058 378.125 112.532 380.907C130.472 382.298 148.862 385.08 164.246 376.689C162.855 371.081 164.246 365.472 174.023 359.864C183.801 354.255 185.191 348.647 196.449 362.69C203.446 372.517 192.278 382.298 200.665 382.298C204.881 382.298 207.662 382.298 207.662 376.689C217.44 382.298 221.611 392.079 234.214 393.515C245.382 393.515 229.998 403.296 224.436 418.731C221.611 429.948 197.884 408.949 189.497 407.514C181.11 406.078 196.449 394.906 189.497 392.079C182.5 390.733 172.723 406.123 178.329 414.513C181.11 420.122 185.281 414.513 190.887 417.34L214.659 429.948C223.001 434.165 202.055 441.165 203.446 457.99C204.881 473.38 188.107 449.555 168.507 448.164C174.113 424.339 151.777 424.339 150.566 449.555C150.566 466.38 156.172 457.99 164.56 457.99C174.337 460.772 174.337 467.771 195.283 473.38C200.889 476.162 188.331 490.205 188.331 500.031C186.896 514.03 174.337 505.595 167.34 501.422C157.563 495.814 140.788 500.031 147.785 488.814C157.563 469.162 135.227 466.38 131.011 485.988C129.62 494.423 115.671 487.379 108.585 494.423C112.756 509.813 126.525 487.379 131.011 501.422C138.007 518.248 136.617 492.987 146.395 505.595C158.953 519.639 179.944 507.031 177.163 525.247C177.163 533.638 172.947 537.855 171.556 546.246C171.556 557.463 150.566 551.854 145.004 546.246C139.443 540.637 114.236 550.463 124.059 535.073C133.881 519.684 109.527 522.466 108.047 537.945C107.943 539.398 107.318 540.765 106.289 541.795C105.259 542.825 103.893 543.449 102.44 543.553C102.44 556.161 106.656 543.553 108.047 556.161C109.769 554.257 111.978 552.858 114.436 552.115C116.893 551.372 119.507 551.313 121.995 551.944C113.608 563.161 158.325 557.552 163.932 564.552C168.103 567.378 159.76 577.16 163.932 589.812C168.103 599.594 163.932 606.593 159.76 606.593C144.376 605.202 127.602 603.811 112.218 603.811C102.44 603.811 115.043 578.595 96.8338 579.986C87.1008 579.986 85.7108 593.985 88.4908 601.029C94.0528 616.419 89.8818 620.637 109.437 608.029L110.827 612.202C112.532 617.81 157.025 610.766 157.025 623.194C155.634 658.236 166.802 658.236 158.415 659.627C141.64 662.454 122.085 654.063 106.746 662.454C106.746 651.237 109.527 644.237 95.5328 644.237C85.7998 642.802 87.1908 656.845 87.1908 662.454C95.5328 661.063 89.9708 675.062 94.1428 676.453C101.14 677.844 98.3588 670.844 106.746 669.453C112.308 669.453 106.746 682.061 158.415 669.453C166.802 666.671 155.634 691.887 168.193 714.321C172.409 722.756 152.853 714.321 126.301 721.321C106.746 725.538 116.524 714.321 108.361 703.373C99.9728 694.938 85.9348 720.199 90.4198 725.807C102.978 721.59 93.2008 758.068 112.846 730.025C115.671 725.807 130.786 737.024 152.001 730.025C177.163 723.026 168.731 738.46 169.942 748.241C172.723 765.067 181.11 762.24 175.503 773.457C175.503 776.284 150.342 777.675 137.783 781.893C129.396 783.283 123.834 791.674 122.399 774.848C120.695 759.324 90.1058 764.932 98.3588 784.719C101.14 791.719 96.9228 788.937 92.7518 797.327C110.693 783.328 102.53 801.545 113.698 800.154C122.085 798.763 116.524 794.545 122.085 794.545C154.244 795.936 165.412 790.328 175.189 784.719C187.793 777.72 179.405 804.327 187.793 812.762C197.57 822.543 198.961 830.978 194.745 832.369C179.405 837.978 168.193 837.978 148.637 846.413C138.86 851.976 143.076 837.978 136.079 835.196C124.911 829.587 112.532 843.407 126.301 852.021C129.082 853.457 126.301 861.847 126.301 863.238C136.079 875.846 138.86 852.021 150.028 857.63C164.021 861.847 190.394 840.804 197.57 842.24C205.958 843.631 200.351 864.674 214.345 873.064C229.684 884.281 210.129 891.281 201.742 892.672C190.369 895.644 179.532 900.383 169.628 906.715C159.85 912.324 162.631 887.063 148.637 896.889C141.64 902.498 144.466 912.324 147.247 917.888C157.025 910.888 150.028 927.714 162.631 927.714C175.189 926.323 155.634 917.887 183.577 915.106C197.57 915.106 208.738 899.671 223.943 901.107C235.111 901.107 226.724 924.932 236.501 934.713C247.67 941.757 240.673 951.539 232.285 948.757C221.117 945.93 191.919 975.361 187.434 962.756C182.949 950.148 165.008 964.146 172.05 973.971C172.05 975.361 176.266 985.191 167.834 986.581C190.26 976.751 181.827 999.191 194.386 983.751C205.599 968.361 226.544 973.971 236.322 962.756C253.097 944.539 251.706 969.751 257.268 979.581C261.484 985.191 276.823 1004.8 268.481 1009.01C260.138 1013.23 247.49 1009.01 219.548 1027.19C215.376 1006.19 197.122 1017.4 195.776 1034.23C180.437 1032.84 172.05 1045.45 167.834 1056.66" fill="#F8D0A3"/>
<path d="M168.193 1056.39C155.634 1060.61 136.079 1074.61 131.863 1062.05C122.085 1035.4 164.021 1036.79 165.412 1010.18C159.85 1007.35 155.634 1003.18 152.853 1001.79C137.469 1017.18 127.692 1029.79 122.085 1021.4C109.527 1000.35 141.64 987.751 138.86 965.313C130.472 966.751 122.085 966.751 123.52 958.314C115.133 982.141 96.9228 958.314 99.7488 954.096C112.308 937.27 108.136 924.707 110.917 909.228C108.815 908.874 106.864 907.906 105.311 906.446C96.9228 902.229 85.7998 928.88 82.8848 914.836L78.7138 902.229C77.2778 895.229 94.0528 865.796 91.2718 848.97C88.7898 849.796 86.1128 849.833 83.6078 849.078C81.1028 848.323 78.8918 846.813 77.2778 844.753C71.7168 853.188 59.3378 865.796 56.3328 855.97C47.9458 826.536 77.2778 805.538 71.7168 776.105H64.8098C64.8098 784.495 50.8608 813.928 42.3838 795.712C28.3898 767.669 61.9388 738.281 63.3298 708.847L59.1138 707.412C52.1618 727.064 35.3868 736.845 39.5578 699.021C40.9938 679.414 59.1138 665.415 64.7198 645.763C62.9828 646.062 61.1998 645.963 59.5068 645.473C57.8128 644.983 56.2528 644.116 54.9418 642.936C27.3138 659.807 46.6448 612.157 67.6798 584.159C60.6828 581.332 59.2928 574.333 60.6828 567.334C50.9508 574.333 45.3438 561.725 63.5088 550.508C77.4578 542.118 76.0668 528.074 91.4518 518.293C89.0778 517.5 87.0038 516.001 85.5048 513.996C84.0058 511.992 83.1548 509.577 83.0638 507.076C67.6798 515.511 57.8128 502.858 69.0258 491.641C74.5868 484.642 80.1938 491.641 88.5808 484.642L113.698 460.817C108.047 458.035 103.92 448.209 109.527 442.6C101.14 429.992 80.1938 455.208 80.1938 446.818C77.3678 404.777 125.045 432.774 138.86 417.385C131.863 413.167 133.298 406.168 138.86 400.559C127.692 400.559 119.304 394.951 101.139 401.95C94.1428 404.777 90.1058 378.125 112.532 380.907C130.472 382.298 148.862 385.08 164.246 376.689C162.855 371.081 164.246 365.472 174.023 359.864C183.801 354.255 185.191 348.647 196.449 362.69C203.446 372.517 192.278 382.298 200.665 382.298C204.881 382.298 207.662 382.298 207.662 376.689C217.44 382.298 221.611 392.079 234.214 393.515C245.382 393.515 229.998 403.296 224.436 418.731C221.611 429.948 197.884 408.949 189.497 407.514C181.11 406.078 196.449 394.906 189.497 392.079C182.5 390.733 172.723 406.123 178.329 414.513C181.11 420.122 185.281 414.513 190.887 417.34L214.659 429.948C223.001 434.165 202.055 441.165 203.446 457.99C204.881 473.38 188.107 449.555 168.507 448.164C174.113 424.339 151.777 424.339 150.566 449.555C150.566 466.38 156.172 457.99 164.56 457.99C174.337 460.772 174.337 467.771 195.283 473.38C200.889 476.162 188.331 490.205 188.331 500.031C186.896 514.03 174.337 505.595 167.34 501.422C157.563 495.814 140.788 500.031 147.785 488.814C157.563 469.162 135.227 466.38 131.011 485.988C129.62 494.423 115.671 487.379 108.585 494.423C112.756 509.813 126.525 487.379 131.011 501.422C138.007 518.248 136.617 492.987 146.395 505.595C158.953 519.639 179.944 507.031 177.163 525.247C177.163 533.638 172.947 537.855 171.556 546.246C171.556 557.463 150.566 551.854 145.004 546.246C139.443 540.637 114.236 550.463 124.059 535.073C133.881 519.684 109.527 522.466 108.047 537.945C107.943 539.398 107.318 540.765 106.289 541.795C105.259 542.825 103.893 543.449 102.44 543.553C102.44 556.161 106.656 543.553 108.047 556.161C109.769 554.257 111.978 552.858 114.436 552.115C116.893 551.372 119.507 551.313 121.995 551.944C113.608 563.161 158.325 557.552 163.932 564.552C168.103 567.378 159.76 577.16 163.932 589.812C168.103 599.594 163.932 606.593 159.76 606.593C144.376 605.202 127.602 603.811 112.218 603.811C102.44 603.811 115.043 578.595 96.8338 579.986C87.1008 579.986 85.7108 593.985 88.4908 601.029C94.0528 616.419 89.8818 620.637 109.437 608.029L110.827 612.202C112.532 617.81 157.025 610.766 157.025 623.194C155.634 658.236 166.802 658.236 158.415 659.627C141.64 662.454 122.085 654.063 106.746 662.454C106.746 651.237 109.527 644.237 95.5328 644.237C85.7998 642.802 87.1908 656.845 87.1908 662.454C95.5328 661.063 89.9708 675.062 94.1428 676.453C101.14 677.844 98.3588 670.844 106.746 669.453C112.308 669.453 106.746 682.061 158.415 669.453C166.802 666.671 155.634 691.887 168.193 714.321C172.409 722.756 152.853 714.321 126.301 721.321C106.746 725.538 116.524 714.321 108.361 703.373C99.9728 694.938 85.9348 720.199 90.4198 725.807C102.978 721.59 93.2008 758.068 112.846 730.025C115.671 725.807 130.786 737.024 152.001 730.025C177.163 723.026 168.731 738.46 169.942 748.241C172.723 765.067 181.11 762.24 175.503 773.457C175.503 776.284 150.342 777.675 137.783 781.893C129.396 783.283 123.834 791.674 122.399 774.848C120.695 759.324 90.1058 764.932 98.3588 784.719C101.14 791.719 96.9228 788.937 92.7518 797.327C110.693 783.328 102.53 801.545 113.698 800.154C122.085 798.763 116.524 794.545 122.085 794.545C154.244 795.936 165.412 790.328 175.189 784.719C187.793 777.72 179.405 804.327 187.793 812.762C197.57 822.543 198.961 830.978 194.745 832.369C179.405 837.978 168.193 837.978 148.637 846.413C138.86 851.976 143.076 837.978 136.079 835.196C124.911 829.587 112.532 843.407 126.301 852.021C129.082 853.457 126.301 861.847 126.301 863.238C136.079 875.846 138.86 852.021 150.028 857.63C164.021 861.847 190.394 840.804 197.57 842.24C205.958 843.631 200.351 864.674 214.345 873.064C229.684 884.281 210.129 891.281 201.742 892.672C190.369 895.644 179.532 900.383 169.628 906.715C159.85 912.324 162.631 887.063 148.637 896.889C141.64 902.498 144.466 912.324 147.247 917.888C157.025 910.888 150.028 927.714 162.631 927.714C175.189 926.323 155.634 917.887 183.577 915.106C197.57 915.106 208.738 899.671 223.943 901.107C235.111 901.107 226.724 924.932 236.501 934.713C247.67 941.757 240.673 951.539 232.285 948.757C221.117 945.93 191.919 975.361 187.434 962.756C182.949 950.148 165.008 964.146 172.05 973.971C172.05 975.361 176.266 985.191 167.834 986.581C190.26 976.751 181.827 999.191 194.386 983.751C205.599 968.361 226.544 973.971 236.322 962.756C253.097 944.539 251.706 969.751 257.268 979.581C261.484 985.191 276.823 1004.8 268.481 1009.01C260.138 1013.23 247.49 1009.01 219.548 1027.19C215.376 1006.19 197.122 1017.4 195.776 1034.23C180.437 1032.84 172.05 1045.45 167.834 1056.66" stroke="#1D1D1B" stroke-width="5.17"/>
<path d="M164.022 375.34C166.803 379.513 169.629 386.557 179.406 386.557" stroke="#1D1D1B" stroke-width="5.17" stroke-linecap="round" stroke-linejoin="round"/>
<path d="M213.575 389.859C210.749 394.724 205.91 402.419 204.475 392.606Z" stroke="#1D1D1B" stroke-width="5.17" stroke-linecap="round" stroke-linejoin="round"/>
<path d="M176.625 407.556C172.409 400.556 162.631 408.947 162.631 400.556C161.241 387.948 144.691 393.557 138.86 400.556" stroke="#1D1D1B" stroke-width="5.17"/>
<path d="M176.625 407.556C172.409 400.556 162.631 408.947 162.631 400.556C161.241 387.948 144.691 393.557 138.86 400.556" stroke="#1D1D1B" stroke-width="5.17" stroke-linecap="round" stroke-linejoin="round"/>
<path d="M138.859 417.383C140.46 419.113 142.359 420.542 144.465 421.601L138.859 417.383Z" stroke="#1D1D1B" stroke-width="5.17"/>
<path d="M138.859 417.383C140.46 419.113 142.359 420.542 144.465 421.601" stroke="#1D1D1B" stroke-width="5.17" stroke-linecap="round" stroke-linejoin="round"/>
<path d="M190.57 427.165C187.789 431.383 176.621 434.209 183.573 424.383L190.57 427.165Z" stroke="#1D1D1B" stroke-width="5.17"/>
<path d="M190.57 427.165C187.789 431.383 176.621 434.209 183.573 424.383" stroke="#1D1D1B" stroke-width="5.17" stroke-linecap="round" stroke-linejoin="round"/>
<path d="M150.027 449.598C127.601 449.598 145.856 446.816 134.688 436.99C127.691 429.991 113.697 436.99 109.526 442.599" stroke="#1D1D1B" stroke-width="5.17"/>
<path d="M150.027 449.598C127.601 449.598 145.856 446.816 134.688 436.99C127.691 429.991 113.697 436.99 109.526 442.599" stroke="#1D1D1B" stroke-width="5.17" stroke-linecap="round" stroke-linejoin="round"/>
<path d="M113.694 460.817C115.286 461.577 117.068 461.851 118.815 461.604C120.562 461.356 122.197 460.599 123.516 459.426" stroke="#1D1D1B" stroke-width="5.17" stroke-linecap="round" stroke-linejoin="round"/>
<path d="M157.023 467.816C152.852 477.642 161.239 480.424 165.41 470.642L157.023 467.816Z" stroke="#1D1D1B" stroke-width="5.17"/>
<path d="M157.023 467.816C152.852 477.642 161.239 480.424 165.41 470.642" stroke="#1D1D1B" stroke-width="5.17" stroke-linecap="round" stroke-linejoin="round"/>
<path d="M108.047 494.465C105.222 486.03 81.4949 480.422 82.8859 507.073" stroke="#1D1D1B" stroke-width="5.17"/>
<path d="M108.047 494.465C105.221 486.03 82.8849 480.422 82.8849 507.073" stroke="#1D1D1B" stroke-width="5.17" stroke-linecap="round" stroke-linejoin="round"/>
<path d="M91.3587 518.291C92.9497 519.035 94.7247 519.296 96.4627 519.041C98.2007 518.786 99.8257 518.026 101.137 516.855L91.3587 518.291Z" fill="#1D1D1B"/>
<path d="M140.249 511.246C131.862 521.072 140.249 528.072 147.246 516.855L140.249 511.246Z" stroke="#1D1D1B" stroke-width="5.17"/>
<path d="M140.249 511.246C131.862 521.072 140.249 528.072 147.246 516.855" stroke="#1D1D1B" stroke-width="5.17" stroke-linecap="round" stroke-linejoin="round"/>
<path d="M102.531 543.508C87.1912 544.899 99.7502 554.725 85.8012 554.725C71.8072 553.334 63.3752 560.334 60.5942 567.333" stroke="#1D1D1B" stroke-width="5.17" stroke-linecap="round" stroke-linejoin="round"/>
<path d="M67.5883 584.113L73.1953 586.939" stroke="#1D1D1B" stroke-width="5.17"/>
<path d="M67.5883 584.113L73.1953 586.939" stroke="#1D1D1B" stroke-width="5.17" stroke-linecap="round" stroke-linejoin="round"/>
<path d="M120.694 558.898C117.914 565.942 119.304 577.114 127.691 568.724L120.694 558.898Z" stroke="#1D1D1B" stroke-width="5.17"/>
<path d="M120.694 558.898C117.914 565.942 119.304 577.114 127.691 568.724" stroke="#1D1D1B" stroke-width="5.17" stroke-linecap="round" stroke-linejoin="round"/>
<path d="M88.5781 600.984C81.5811 607.983 71.8041 607.983 67.5871 617.764" stroke="#1D1D1B" stroke-width="5.17" stroke-linecap="round" stroke-linejoin="round"/>
<path d="M80.1914 613.59C73.1944 626.198 66.1974 607.982 55.0294 624.762C50.8584 633.197 50.8584 638.806 55.0294 642.979" stroke="#1D1D1B" stroke-width="5.17"/>
<path d="M80.1914 613.59C73.1944 626.198 66.1974 607.982 55.0294 624.762C50.8584 633.197 50.8584 638.806 55.0294 642.979" stroke="#1D1D1B" stroke-width="5.17" stroke-linecap="round" stroke-linejoin="round"/>
<path d="M64.8082 645.628C67.0842 646.251 69.4932 646.183 71.7292 645.432C73.9662 644.681 75.9282 643.281 77.3672 641.41" stroke="#1D1D1B" stroke-width="5.17" stroke-linecap="round" stroke-linejoin="round"/>
<path d="M108.047 620.59C105.221 631.807 110.828 635.98 117.824 623.372L108.047 620.59Z" stroke="#1D1D1B" stroke-width="5.17"/>
<path d="M108.047 620.59C105.221 631.807 110.828 635.98 117.824 623.372" stroke="#1D1D1B" stroke-width="5.17" stroke-linecap="round" stroke-linejoin="round"/>
<path d="M117.912 683.63C119.302 693.456 99.9715 690.629 109.525 680.848L117.912 683.63Z" stroke="#1D1D1B" stroke-width="5.17"/>
<path d="M117.912 683.63C119.302 693.456 99.9715 690.629 109.525 680.848" stroke="#1D1D1B" stroke-width="5.17" stroke-linecap="round" stroke-linejoin="round"/>
<path d="M87.1875 662.629C78.8005 662.629 80.1905 672.455 74.5845 676.628L87.1875 662.629Z" stroke="#1D1D1B" stroke-width="5.17"/>
<path d="M87.1875 662.629C78.8005 662.629 80.1905 672.455 74.5845 676.628" stroke="#1D1D1B" stroke-width="5.17" stroke-linecap="round" stroke-linejoin="round"/>
<path d="M80.1953 676.629C41.0843 678.02 41.0843 701.845 59.2493 707.454" stroke="#1D1D1B" stroke-width="5.17"/>
<path d="M80.1953 676.629C41.0843 678.02 41.0843 701.845 59.2493 707.454" stroke="#1D1D1B" stroke-width="5.17" stroke-linecap="round" stroke-linejoin="round"/>
<path d="M63.4192 708.892C66.4822 708.934 69.4812 708.007 71.9862 706.242C74.4912 704.477 76.3752 701.966 77.3672 699.066" stroke="#1D1D1B" stroke-width="5.17" stroke-linecap="round" stroke-linejoin="round"/>
<path d="M129.078 741.105C124.907 750.931 113.694 752.322 115.13 736.887L129.078 741.105Z" stroke="#1D1D1B" stroke-width="5.17"/>
<path d="M129.078 741.105C124.907 750.931 113.694 752.322 115.13 736.887" stroke="#1D1D1B" stroke-width="5.17" stroke-linecap="round" stroke-linejoin="round"/>
<path d="M90.1055 725.672C84.4995 727.063 77.5025 746.715 69.1595 746.715C56.5565 748.106 45.3885 780.321 64.9435 776.149" stroke="#1D1D1B" stroke-width="5.17"/>
<path d="M90.1055 725.672C84.4995 727.063 77.5025 746.715 69.1595 746.715C56.5565 748.106 45.3885 780.321 64.9435 776.149" stroke="#1D1D1B" stroke-width="5.17" stroke-linecap="round" stroke-linejoin="round"/>
<path d="M71.8076 776.149C80.1956 773.323 89.7486 769.15 88.5826 763.496" stroke="#1D1D1B" stroke-width="5.17" stroke-linecap="round" stroke-linejoin="round"/>
<path d="M77.365 844.795C67.588 836.404 80.191 812.579 89.969 808.362C95.53 805.58 87.188 802.753 92.75 797.145" stroke="#1D1D1B" stroke-width="5.17"/>
<path d="M77.365 844.795C67.588 836.404 80.191 812.579 89.969 808.362C95.53 805.58 87.188 802.753 92.75 797.145" stroke="#1D1D1B" stroke-width="5.17" stroke-linecap="round" stroke-linejoin="round"/>
<path d="M138.857 801.363C143.028 811.189 123.518 816.797 127.689 804.144L138.857 801.363Z" stroke="#1D1D1B" stroke-width="5.17"/>
<path d="M138.857 801.363C143.028 811.189 123.518 816.797 127.689 804.144" stroke="#1D1D1B" stroke-width="5.17" stroke-linecap="round" stroke-linejoin="round"/>
<path d="M109.524 832.188C110.915 847.622 103.918 849.013 91.5844 849.013L109.524 832.188Z" stroke="#1D1D1B" stroke-width="5.17"/>
<path d="M109.524 832.188C110.915 847.622 103.918 849.013 91.5844 849.013" stroke="#1D1D1B" stroke-width="5.17" stroke-linecap="round" stroke-linejoin="round"/>
<path d="M126.301 863.01C119.304 853.229 115.088 872.837 102.53 877.054C88.5808 879.836 98.3578 899.488 105.31 906.488" stroke="#1D1D1B" stroke-width="5.17"/>
<path d="M126.301 863.01C119.304 853.229 115.088 872.837 102.53 877.054C88.5808 879.836 98.3578 899.488 105.31 906.488" stroke="#1D1D1B" stroke-width="5.17" stroke-linecap="round" stroke-linejoin="round"/>
<path d="M110.916 909.272C115.132 907.881 117.912 902.273 122.129 898.055L110.916 909.272Z" stroke="#1D1D1B" stroke-width="5.17"/>
<path d="M110.916 909.272C115.132 907.881 117.912 902.273 122.129 898.055" stroke="#1D1D1B" stroke-width="5.17" stroke-linecap="round" stroke-linejoin="round"/>
<path d="M159.848 868.621C154.242 882.665 141.639 875.621 145.855 864.449L159.848 868.621Z" stroke="#1D1D1B" stroke-width="5.17"/>
<path d="M159.848 868.621C154.242 882.665 141.639 875.621 145.855 864.449" stroke="#1D1D1B" stroke-width="5.17" stroke-linecap="round" stroke-linejoin="round"/>
<path d="M147.246 917.66C144.465 919.096 143.075 920.487 138.859 930.313L147.246 917.66Z" stroke="#1D1D1B" stroke-width="5.17"/>
<path d="M147.246 917.66C144.465 919.096 143.075 920.487 138.859 930.313" stroke="#1D1D1B" stroke-width="5.17" stroke-linecap="round" stroke-linejoin="round"/>
<path d="M144.465 930.314C117.913 926.097 123.519 961.094 123.519 958.312" stroke="#1D1D1B" stroke-width="5.17"/>
<path d="M144.465 930.314C117.913 926.097 123.519 961.094 123.519 958.312" stroke="#1D1D1B" stroke-width="5.17" stroke-linecap="round" stroke-linejoin="round"/>
<path d="M138.859 965.312C144.465 963.921 150.027 959.748 150.027 955.531L138.859 965.312Z" stroke="#1D1D1B" stroke-width="5.17"/>
<path d="M138.859 965.312C144.465 963.921 150.027 959.748 150.027 955.531" stroke="#1D1D1B" stroke-width="5.17" stroke-linecap="round" stroke-linejoin="round"/>
<path d="M180.796 928.879C183.577 935.923 166.802 941.532 171.018 931.706L180.796 928.879Z" stroke="#1D1D1B" stroke-width="5.17"/>
<path d="M180.796 928.879C183.577 935.923 166.802 941.532 171.018 931.706" stroke="#1D1D1B" stroke-width="5.17" stroke-linecap="round" stroke-linejoin="round"/>
<path d="M152.894 1001.79C148.678 997.569 152.894 993.359 168.234 986.359" stroke="#1D1D1B" stroke-width="5.17"/>
<path d="M152.894 1001.79C148.678 997.569 152.894 993.359 168.234 986.359" stroke="#1D1D1B" stroke-width="5.17" stroke-linecap="round" stroke-linejoin="round"/>
<path d="M190.573 991.957C184.966 998.957 205.957 1000.35 201.741 991.957H190.573Z" stroke="#1D1D1B" stroke-width="5.17"/>
<path d="M190.573 991.957C184.966 998.957 205.957 1000.35 201.741 991.957" stroke="#1D1D1B" stroke-width="5.17" stroke-linecap="round" stroke-linejoin="round"/>
<path d="M126.298 1346.51C154.241 1335.29 152.85 1357.73 162.628 1357.73L180.883 1349.6L189.046 1353.14L197.416 1360.47L207.662 1351.25C210.443 1362.47 214.476 1347.81 229.816 1360.47C245.2 1374.46 254.977 1391.29 264.755 1363.25C271.752 1339.42 294.133 1346.42 291.307 1328.2C291.307 1321.21 254.977 1311.38 239.593 1295.99C234.032 1290.38 227.035 1301.55 220.038 1301.55C210.26 1300.16 222.819 1286.16 210.26 1287.55C210.26 1280.56 229.816 1272.12 234.032 1272.12C253.587 1269.34 229.816 1288.99 238.203 1288.99C260.629 1291.77 278.569 1302.99 300.995 1302.99C310.773 1302.99 302.385 1280.55 312.163 1262.34C327.547 1231.51 284.221 1238.51 268.881 1234.3C238.113 1225.91 250.716 1238.51 238.113 1238.51C222.729 1237.12 233.942 1227.3 222.729 1224.51C224.164 1214.69 228.336 1200.69 238.113 1200.69C256.278 1200.69 242.329 1223.12 247.891 1223.12C273.277 1220.34 319.384 1237.17 315.168 1218.95C309.607 1192.3 324.99 1169.91 313.777 1162.87C306.826 1158.69 274.667 1165.69 255.112 1160.08C245.334 1157.26 246.725 1167.08 241.118 1169.91C236.947 1162.87 234.166 1157.26 224.389 1155.87C228.56 1144.65 222.953 1140.43 238.337 1136.26C256.502 1130.65 243.944 1155.87 252.331 1151.69C280.274 1139.04 319.384 1150.26 310.997 1134.87C299.829 1113.83 310.997 1083 298.438 1088.61C284.445 1094.22 249.505 1088.61 238.337 1099.83C222.864 1115.26 227.08 1098.44 215.912 1095.61C214.521 1073.17 234.077 1069 235.467 1080.22C236.723 1090 270.272 1078.78 275.833 1078.78C278.659 1077.39 303.776 1071.78 294.043 1066.18C283.996 1059.18 287.046 1003.09 266.056 1025.53C260.36 1032.57 224.03 1033.96 221.204 1038.18C211.427 1060.57 203.039 1033.96 196.042 1033.96C180.703 1032.61 172.316 1045.22 168.1 1056.39C166.71 1060.61 170.926 1067.61 173.706 1067.61C179.313 1066.22 180.703 1071.83 180.703 1074.66C169.49 1083.05 173.662 1087.26 158.277 1083.05C141.503 1080.26 127.554 1104.09 138.722 1118.09C158.277 1144.69 163.884 1102.65 187.655 1115.31C186.863 1117.12 186.575 1119.12 186.819 1121.08C187.064 1123.05 187.833 1124.91 189.046 1126.48C186.22 1134.91 172.361 1140.48 151.325 1139.09C130.29 1137.7 140.113 1179.74 152.716 1178.35C173.572 1175.56 170.881 1157.3 195.998 1167.13C194.106 1168.88 192.721 1171.11 191.987 1173.58C191.253 1176.05 191.197 1178.67 191.826 1181.17C180.658 1182.56 168.055 1188.17 156.887 1186.78C141.503 1185.35 131.725 1220.39 144.329 1226C162.493 1234.39 180.658 1212 195.998 1228.78C190.436 1232.99 186.22 1239.99 189.046 1247.04C180.883 1247.04 179.492 1248.43 171.105 1245.65C134.775 1235.82 131.95 1277.86 138.946 1286.25C150.114 1300.25 168.279 1277.86 180.883 1294.64C179.112 1296.17 177.789 1298.15 177.054 1300.37C176.319 1302.59 176.201 1304.97 176.711 1307.25C162.628 1312.86 154.286 1300.25 131.86 1308.69C113.695 1315.69 112.305 1350.73 126.298 1346.51Z" fill="#B7C8BD" stroke="#1D1D1B" stroke-width="5.17" stroke-linecap="round" stroke-linejoin="round"/>
<path d="M204.567 1066.22C187.792 1059.22 184.967 1090.05 207.348 1083.05L204.567 1066.22Z" stroke="#1D1D1B" stroke-width="5.17"/>
<path d="M204.567 1066.22C187.792 1059.22 184.967 1090.05 207.348 1083.05" stroke="#1D1D1B" stroke-width="5.17" stroke-linecap="round" stroke-linejoin="round"/>
<path d="M180.794 1074.66C182.184 1077.44 182.184 1077.44 184.965 1077.44L180.794 1074.66Z" stroke="#1D1D1B" stroke-width="5.17"/>
<path d="M180.794 1074.66C182.184 1077.44 182.184 1077.44 184.965 1077.44" stroke="#1D1D1B" stroke-width="5.17" stroke-linecap="round" stroke-linejoin="round"/>
<path d="M215.688 1095.65C205.91 1092.87 189.135 1102.65 187.745 1115.31" stroke="#1D1D1B" stroke-width="5.17"/>
<path d="M215.688 1095.65C205.91 1092.87 189.135 1102.65 187.745 1115.31" stroke="#1D1D1B" stroke-width="5.17" stroke-linecap="round" stroke-linejoin="round"/>
<path d="M189.181 1126.48C191.198 1128.69 193.543 1130.58 196.133 1132.09L189.181 1126.48Z" stroke="#1D1D1B" stroke-width="5.17"/>
<path d="M189.181 1126.48C191.198 1128.69 193.543 1130.58 196.133 1132.09" stroke="#1D1D1B" stroke-width="5.17" stroke-linecap="round" stroke-linejoin="round"/>
<path d="M215.691 1118.09C200.307 1111.09 196.091 1141.91 214.301 1136.3L215.691 1118.09Z" stroke="#1D1D1B" stroke-width="5.17"/>
<path d="M215.691 1118.09C200.307 1111.09 196.091 1141.91 214.301 1136.3" stroke="#1D1D1B" stroke-width="5.17" stroke-linecap="round" stroke-linejoin="round"/>
<path d="M224.121 1155.91C218.871 1154.87 213.433 1155.38 208.466 1157.37C203.499 1159.36 199.215 1162.75 196.133 1167.13" stroke="#1D1D1B" stroke-width="5.17"/>
<path d="M224.121 1155.91C218.871 1154.87 213.433 1155.38 208.466 1157.37C203.499 1159.36 199.215 1162.75 196.133 1167.13" stroke="#1D1D1B" stroke-width="5.17" stroke-linecap="round" stroke-linejoin="round"/>
<path d="M191.961 1181.17C191.911 1183.01 192.258 1184.83 192.978 1186.52C193.698 1188.21 194.774 1189.72 196.133 1190.95L191.961 1181.17Z" stroke="#1D1D1B" stroke-width="5.17"/>
<path d="M191.961 1181.17C191.911 1183.01 192.258 1184.83 192.978 1186.52C193.698 1188.21 194.774 1189.72 196.133 1190.95" stroke="#1D1D1B" stroke-width="5.17" stroke-linecap="round" stroke-linejoin="round"/>
<path d="M221.297 1179.56C205.958 1162.73 194.745 1201.99 217.126 1199.16L221.297 1179.56Z" stroke="#1D1D1B" stroke-width="5.17"/>
<path d="M221.297 1179.56C205.958 1162.73 194.745 1201.99 217.126 1199.16" stroke="#1D1D1B" stroke-width="5.17" stroke-linecap="round" stroke-linejoin="round"/>
<path d="M222.688 1224.43C218.245 1222.99 213.525 1222.62 208.913 1223.34C204.301 1224.07 199.923 1225.87 196.134 1228.6" stroke="#1D1D1B" stroke-width="5.17" stroke-linecap="round" stroke-linejoin="round"/>
<path d="M189.18 1246.99L191.961 1252.6" stroke="#1D1D1B" stroke-width="5.17"/>
<path d="M189.18 1246.99L191.961 1252.6" stroke="#1D1D1B" stroke-width="5.17" stroke-linecap="round" stroke-linejoin="round"/>
<path d="M218.512 1239.99C200.572 1239.99 201.738 1273.65 222.684 1261.04L218.512 1239.99Z" stroke="#1D1D1B" stroke-width="5.17"/>
<path d="M218.512 1239.99C200.572 1239.99 201.738 1273.65 222.684 1261.04" stroke="#1D1D1B" stroke-width="5.17" stroke-linecap="round" stroke-linejoin="round"/>
<path d="M210.125 1287.64C200.348 1287.64 187.7 1289.03 180.793 1294.64" stroke="#1D1D1B" stroke-width="5.17" stroke-linecap="round" stroke-linejoin="round"/>
<path d="M176.622 1307.25L178.012 1315.64" stroke="#1D1D1B" stroke-width="5.17"/>
<path d="M176.622 1307.25L178.012 1315.64" stroke="#1D1D1B" stroke-width="5.17" stroke-linecap="round" stroke-linejoin="round"/>
<path d="M211.516 1311.47C197.567 1301.64 183.574 1335.29 204.564 1332.51L211.516 1311.47Z" stroke="#1D1D1B" stroke-width="5.17"/>
<path d="M211.516 1311.47C197.567 1301.64 183.574 1335.29 204.564 1332.51" stroke="#1D1D1B" stroke-width="5.17" stroke-linecap="round" stroke-linejoin="round"/>
<path d="M231.118 1412.38C242.331 1409.6 238.114 1401.16 238.114 1401.16L207.615 1350.73C205.212 1350.57 202.841 1351.36 201.012 1352.92C199.184 1354.49 198.044 1356.72 197.838 1359.12C193.622 1356.34 190.841 1353.51 186.625 1350.73C167.07 1340.9 152.897 1378.73 134.956 1366.12C112.575 1349.34 115.401 1381.55 102.797 1385.77C88.8485 1391.38 65.2925 1405.99 68.0735 1425.59C70.8545 1442.42 50.5185 1426.2 49.1275 1462.64C47.6925 1501.9 35.7435 1474.03 48.3025 1513.29C56.6895 1539.89 41.3505 1551.11 67.8575 1556.72L84.6315 1558.15C90.2385 1549.72 84.6315 1530.11 90.2385 1516.07C98.4015 1489.46 83.0175 1490.85 108.18 1475.46C134.732 1458.64 127.735 1474.03 154.287 1461.42C178.238 1450.2 169.671 1467.03 196.178 1455.81C225.556 1443.2 199.004 1419.38 231.118 1412.38Z" fill="#95A5DC" stroke="#1D1D1B" stroke-width="5.17"/>
<path d="M211.517 1420.77C221.295 1403.99 203.13 1392.77 187.791 1395.55C159.849 1399.77 187.791 1420.77 164.02 1422.2C151.461 1420.77 162.629 1441.81 129.08 1429.2C103.919 1420.77 92.7506 1458.64 92.7506 1476.85" stroke="#1D1D1B" stroke-width="5.17" stroke-linecap="round" stroke-linejoin="round"/>
<path d="M148.934 1367.77L151.129 1378C152.986 1386.66 158.146 1394.25 165.513 1399.16L172.538 1403.84" stroke="#1D1D1B" stroke-width="5" stroke-linecap="round" stroke-dasharray="10 10"/>
<path d="M107.117 1382.94L109.364 1393.41C111.19 1401.93 116.215 1409.42 123.402 1414.34L146.908 1430.43" stroke="#1D1D1B" stroke-width="5" stroke-linecap="round" stroke-dasharray="10 10"/>
<path d="M68.2773 1431.77L80.4045 1439C81.9624 1439.93 83.5922 1440.73 85.2781 1441.4L100.603 1447.47" stroke="#1D1D1B" stroke-width="5" stroke-linecap="round" stroke-dasharray="10 10"/>
<path d="M46.1406 1486.9L56.7189 1492.8C62.7713 1496.18 69.7114 1497.63 76.6095 1496.95L91.3654 1495.5" stroke="#1D1D1B" stroke-width="5" stroke-linecap="round" stroke-dasharray="10 10"/>
<path d="M67.6781 1556.72C69.1141 1558.15 83.0621 1560.94 84.4531 1558.15L67.6781 1556.72Z" stroke="#1D1D1B" stroke-width="5.17"/>
<path d="M67.6781 1556.72C69.1141 1558.15 83.0621 1560.94 84.4531 1558.15" stroke="#1D1D1B" stroke-width="5.17" stroke-linecap="round" stroke-linejoin="round"/>
<path d="M69.024 1504.9C70.206 1502.68 70.702 1500.16 70.446 1497.65C70.19 1495.15 69.196 1492.79 67.588 1490.85" stroke="#1D1D1B" stroke-width="5.17" stroke-linecap="round" stroke-linejoin="round"/>
<path d="M79.4154 1449.85C86.3674 1449.85 91.9734 1430.2 82.1954 1434.42" stroke="#1D1D1B" stroke-width="5.17" stroke-linecap="round" stroke-linejoin="round"/>
<path d="M117.53 1394.1C123.932 1388.75 119.464 1402.51 119.464 1402.51C119.464 1402.51 117.112 1409.92 113.252 1412.28C109.619 1414.49 109.502 1409.75 111.306 1404.36" stroke="#1D1D1B" stroke-width="5.17"/>
<path d="M152.897 1395.55C154.288 1413.77 162.675 1380.16 155.678 1381.55" stroke="#1D1D1B" stroke-width="5.17" stroke-linecap="round" stroke-linejoin="round"/>
<line y1="-0.5" x2="42.5093" y2="-0.5" transform="matrix(0.914323 -0.404986 0.447136 0.894466 295.539 112.266)" stroke="black"/>
<line x1="285.163" y1="289.452" x2="334.36" y2="284.724" stroke="black"/>
<line y1="-0.5" x2="40.4671" y2="-0.5" transform="matrix(0.985175 -0.171551 0.192835 0.981231 295.539 197.766)" stroke="black"/>
<line x1="260.469" y1="369.236" x2="331.66" y2="374.841" stroke="black"/>
<line y1="-0.5" x2="40.837" y2="-0.5" transform="matrix(0.976252 -0.216638 0.242939 0.970042 295.539 155.102)" stroke="black"/>
<line x1="272.689" y1="329.691" x2="331.613" y2="329" stroke="black"/>
<line y1="-0.5" x2="39.0574" y2="-0.5" transform="matrix(0.99513 -0.098568 0.111095 0.99381 295.539 242.113)" stroke="black"/>
<path d="M243.094 416.69L327.328 441.6L327.386 440.602L243.152 415.691L243.094 416.69Z" fill="black"/>
<path d="M226.844 449.596L327.328 492.725L327.552 491.75L227.068 448.621L226.844 449.596Z" fill="black"/>
<path d="M327.326 545.057L210.082 497.272L210.313 496.299L327.557 544.084L327.326 545.057Z" fill="black"/>
<path d="M197.625 543.506L327.324 591.717L327.537 590.74L197.838 542.529L197.625 543.506Z" fill="black"/>
<path d="M327.328 643.041L185.953 585.526L186.21 584.559L327.585 642.075L327.328 643.041Z" fill="black"/>
<path d="M205.949 800.709L327.326 837.061L327.46 836.07L206.083 799.718L205.949 800.709Z" fill="black"/>
<path d="M327.326 692.08L181.332 641.405L181.538 640.426L327.532 691.102L327.326 692.08Z" fill="black"/>
<path d="M224.121 864.448L327.326 886.1L327.342 885.1L224.137 863.448L224.121 864.448Z" fill="black"/>
<path d="M327.328 739.412L185.953 690.69L186.152 689.71L327.527 738.432L327.328 739.412Z" fill="black"/>
<path d="M245.562 923.987L327.326 933.432L327.198 932.44L245.434 922.995L245.562 923.987Z" fill="black"/>
<path d="M327.326 790.737L194.102 748.498L194.266 747.512L327.491 789.75L327.326 790.737Z" fill="black"/>
<path d="M272.695 975.709L327.326 984.756L327.13 983.776L272.499 974.729L272.695 975.709Z" fill="black"/>
<path d="M355.25 96.0414C353.034 96.0414 350.992 95.5164 349.125 94.4664C347.282 93.3931 345.812 91.8997 344.715 89.9864C343.619 88.0731 343.07 85.8914 343.07 83.4414C343.07 80.9914 343.619 78.8097 344.715 76.8964C345.812 74.9831 347.282 73.5014 349.125 72.4514C350.992 71.3781 353.034 70.8414 355.25 70.8414C358.144 70.8414 360.559 71.6114 362.495 73.1514C364.432 74.6914 365.657 76.7331 366.17 79.2764H362.81C362.32 77.5964 361.41 76.2897 360.08 75.3564C358.75 74.3997 357.129 73.9214 355.215 73.9214C353.465 73.9214 351.925 74.3297 350.595 75.1464C349.289 75.9631 348.274 77.0947 347.55 78.5414C346.85 79.9881 346.5 81.6214 346.5 83.4414C346.5 85.2614 346.85 86.8947 347.55 88.3414C348.274 89.7881 349.289 90.9197 350.595 91.7364C351.925 92.5531 353.465 92.9614 355.215 92.9614C357.129 92.9614 358.75 92.4947 360.08 91.5614C361.41 90.6047 362.32 89.2864 362.81 87.6064H366.17C365.82 89.2864 365.155 90.7681 364.175 92.0514C363.195 93.3114 361.935 94.2914 360.395 94.9914C358.879 95.6914 357.164 96.0414 355.25 96.0414ZM371.342 92.6114H376.767V75.8814C376.207 76.3714 375.577 76.7097 374.877 76.8964C374.2 77.0597 373.267 77.1414 372.077 77.1414V74.3414H372.637C373.897 74.3414 374.865 74.0964 375.542 73.6064C376.219 73.0931 376.627 72.2881 376.767 71.1914H380.127V92.6114H385.552V95.6914H371.342V92.6114Z" fill="black"/>
<path d="M354.25 292.041C352.034 292.041 349.992 291.516 348.125 290.466C346.282 289.393 344.812 287.9 343.715 285.986C342.619 284.073 342.07 281.891 342.07 279.441C342.07 276.991 342.619 274.81 343.715 272.896C344.812 270.983 346.282 269.501 348.125 268.451C349.992 267.378 352.034 266.841 354.25 266.841C357.144 266.841 359.559 267.611 361.495 269.151C363.432 270.691 364.657 272.733 365.17 275.276H361.81C361.32 273.596 360.41 272.29 359.08 271.356C357.75 270.4 356.129 269.921 354.215 269.921C352.465 269.921 350.925 270.33 349.595 271.146C348.289 271.963 347.274 273.095 346.55 274.541C345.85 275.988 345.5 277.621 345.5 279.441C345.5 281.261 345.85 282.895 346.55 284.341C347.274 285.788 348.289 286.92 349.595 287.736C350.925 288.553 352.465 288.961 354.215 288.961C356.129 288.961 357.75 288.495 359.08 287.561C360.41 286.605 361.32 285.286 361.81 283.606H365.17C364.82 285.286 364.155 286.768 363.175 288.051C362.195 289.311 360.935 290.291 359.395 290.991C357.879 291.691 356.164 292.041 354.25 292.041ZM377.307 292.041C375.697 292.041 374.239 291.703 372.932 291.026C371.625 290.35 370.575 289.405 369.782 288.191C369.012 286.978 368.58 285.59 368.487 284.026H371.847C372.01 285.403 372.559 286.57 373.492 287.526C374.425 288.483 375.697 288.961 377.307 288.961C379.034 288.961 380.399 288.436 381.402 287.386C382.429 286.336 382.942 284.878 382.942 283.011C382.942 281.168 382.429 279.745 381.402 278.741C380.399 277.715 379.127 277.201 377.587 277.201C376.21 277.201 375.055 277.4 374.122 277.796C373.212 278.17 372.36 278.636 371.567 279.196L369.152 278.041L370.692 267.191H384.482V270.271H373.247L372.232 276.116C372.979 275.603 373.865 275.183 374.892 274.856C375.919 274.53 376.969 274.366 378.042 274.366C380.585 274.366 382.604 275.136 384.097 276.676C385.614 278.193 386.372 280.27 386.372 282.906C386.372 284.54 386.01 286.056 385.287 287.456C384.564 288.833 383.514 289.941 382.137 290.781C380.76 291.621 379.15 292.041 377.307 292.041Z" fill="black"/>
<path d="M347.81 633.271H341.58V630.191H357.4V633.271H351.17V654.691H347.81V633.271ZM360.985 629.141H364.065V639.466C364.741 638.743 365.651 638.125 366.795 637.611C367.938 637.098 369.14 636.841 370.4 636.841C372.266 636.841 373.725 637.366 374.775 638.416C375.848 639.443 376.385 640.843 376.385 642.616V654.691H373.305V643.176C373.305 642.033 372.966 641.146 372.29 640.516C371.613 639.886 370.691 639.571 369.525 639.571C368.521 639.571 367.53 639.863 366.55 640.446C365.57 641.03 364.741 641.788 364.065 642.721V654.691H360.985V629.141ZM388.962 655.041C387.352 655.041 385.894 654.703 384.587 654.026C383.281 653.35 382.231 652.405 381.437 651.191C380.667 649.978 380.236 648.59 380.142 647.026H383.502C383.666 648.403 384.214 649.57 385.147 650.526C386.081 651.483 387.352 651.961 388.962 651.961C390.689 651.961 392.054 651.436 393.057 650.386C394.084 649.336 394.597 647.878 394.597 646.011C394.597 644.168 394.084 642.745 393.057 641.741C392.054 640.715 390.782 640.201 389.242 640.201C387.866 640.201 386.711 640.4 385.777 640.796C384.867 641.17 384.016 641.636 383.222 642.196L380.807 641.041L382.347 630.191H396.137V633.271H384.902L383.887 639.116C384.634 638.603 385.521 638.183 386.547 637.856C387.574 637.53 388.624 637.366 389.697 637.366C392.241 637.366 394.259 638.136 395.752 639.676C397.269 641.193 398.027 643.27 398.027 645.906C398.027 647.54 397.666 649.056 396.942 650.456C396.219 651.833 395.169 652.941 393.792 653.781C392.416 654.621 390.806 655.041 388.962 655.041Z" fill="black"/>
<path d="M347.81 827.291H341.58V824.211H357.4V827.291H351.17V848.711H347.81V827.291ZM360.985 823.161H364.065V833.486C364.741 832.763 365.651 832.144 366.795 831.631C367.938 831.118 369.14 830.861 370.4 830.861C372.266 830.861 373.725 831.386 374.775 832.436C375.848 833.463 376.385 834.863 376.385 836.636V848.711H373.305V837.196C373.305 836.053 372.966 835.166 372.29 834.536C371.613 833.906 370.691 833.591 369.525 833.591C368.521 833.591 367.53 833.883 366.55 834.466C365.57 835.049 364.741 835.808 364.065 836.741V848.711H360.985V823.161ZM389.102 823.861C390.362 823.861 391.611 824.176 392.847 824.806C394.084 825.413 395.099 826.253 395.892 827.326C396.616 828.329 397.141 829.508 397.467 830.861C397.817 832.214 397.992 833.778 397.992 835.551C397.992 838.258 397.619 840.626 396.872 842.656C396.126 844.686 395.041 846.261 393.617 847.381C392.194 848.501 390.491 849.061 388.507 849.061C386.431 849.061 384.727 848.489 383.397 847.346C382.067 846.179 381.286 844.628 381.052 842.691H384.307C384.657 843.904 385.171 844.756 385.847 845.246C386.524 845.736 387.446 845.981 388.612 845.981C389.709 845.981 390.689 845.666 391.552 845.036C392.416 844.383 393.104 843.449 393.617 842.236C394.131 841.023 394.387 839.588 394.387 837.931C393.571 838.888 392.626 839.599 391.552 840.066C390.502 840.533 389.359 840.766 388.122 840.766C386.652 840.766 385.311 840.416 384.097 839.716C382.884 838.993 381.927 838.001 381.227 836.741C380.551 835.458 380.212 834.023 380.212 832.436C380.212 830.826 380.586 829.368 381.332 828.061C382.079 826.754 383.129 825.728 384.482 824.981C385.836 824.234 387.376 823.861 389.102 823.861ZM388.927 826.941C387.854 826.941 386.921 827.198 386.127 827.711C385.334 828.224 384.716 828.901 384.272 829.741C383.852 830.558 383.642 831.433 383.642 832.366C383.642 833.299 383.852 834.186 384.272 835.026C384.716 835.843 385.334 836.508 386.127 837.021C386.921 837.534 387.854 837.791 388.927 837.791C390.001 837.791 390.934 837.534 391.727 837.021C392.521 836.508 393.127 835.843 393.547 835.026C393.991 834.186 394.212 833.299 394.212 832.366C394.212 830.826 393.734 829.543 392.777 828.516C391.821 827.466 390.537 826.941 388.927 826.941Z" fill="black"/>
<path d="M355.25 194.041C353.034 194.041 350.992 193.516 349.125 192.466C347.282 191.393 345.812 189.9 344.715 187.986C343.619 186.073 343.07 183.891 343.07 181.441C343.07 178.991 343.619 176.81 344.715 174.896C345.812 172.983 347.282 171.501 349.125 170.451C350.992 169.378 353.034 168.841 355.25 168.841C358.144 168.841 360.559 169.611 362.495 171.151C364.432 172.691 365.657 174.733 366.17 177.276H362.81C362.32 175.596 361.41 174.29 360.08 173.356C358.75 172.4 357.129 171.921 355.215 171.921C353.465 171.921 351.925 172.33 350.595 173.146C349.289 173.963 348.274 175.095 347.55 176.541C346.85 177.988 346.5 179.621 346.5 181.441C346.5 183.261 346.85 184.895 347.55 186.341C348.274 187.788 349.289 188.92 350.595 189.736C351.925 190.553 353.465 190.961 355.215 190.961C357.129 190.961 358.75 190.495 360.08 189.561C361.41 188.605 362.32 187.286 362.81 185.606H366.17C365.82 187.286 365.155 188.768 364.175 190.051C363.195 191.311 361.935 192.291 360.395 192.991C358.879 193.691 357.164 194.041 355.25 194.041ZM378.622 194.041C376.802 194.041 375.215 193.645 373.862 192.851C372.532 192.058 371.494 191.008 370.747 189.701C370 188.371 369.58 186.913 369.487 185.326H372.637C372.754 187.006 373.325 188.371 374.352 189.421C375.402 190.448 376.802 190.961 378.552 190.961C380.232 190.961 381.55 190.46 382.507 189.456C383.487 188.43 383.977 187.018 383.977 185.221C383.977 183.471 383.394 182.13 382.227 181.196C381.06 180.24 379.625 179.761 377.922 179.761H377.152V176.716L382.052 172.271H370.572V169.191H386.252V172.376L380.687 177.171C382.6 177.638 384.199 178.536 385.482 179.866C386.765 181.173 387.407 182.958 387.407 185.221C387.407 186.855 387.022 188.348 386.252 189.701C385.482 191.055 384.42 192.116 383.067 192.886C381.737 193.656 380.255 194.041 378.622 194.041Z" fill="black"/>
<path d="M348.81 535.271H342.58V532.191H358.4V535.271H352.17V556.691H348.81V535.271ZM361.985 531.141H365.065V541.466C365.741 540.743 366.651 540.125 367.795 539.611C368.938 539.098 370.14 538.841 371.4 538.841C373.266 538.841 374.725 539.366 375.775 540.416C376.848 541.443 377.385 542.843 377.385 544.616V556.691H374.305V545.176C374.305 544.033 373.966 543.146 373.29 542.516C372.613 541.886 371.691 541.571 370.525 541.571C369.521 541.571 368.53 541.863 367.55 542.446C366.57 543.03 365.741 543.788 365.065 544.721V556.691H361.985V531.141ZM390.277 557.041C388.457 557.041 386.871 556.645 385.517 555.851C384.187 555.058 383.149 554.008 382.402 552.701C381.656 551.371 381.236 549.913 381.142 548.326H384.292C384.409 550.006 384.981 551.371 386.007 552.421C387.057 553.448 388.457 553.961 390.207 553.961C391.887 553.961 393.206 553.46 394.162 552.456C395.142 551.43 395.632 550.018 395.632 548.221C395.632 546.471 395.049 545.13 393.882 544.196C392.716 543.24 391.281 542.761 389.577 542.761H388.807V539.716L393.707 535.271H382.227V532.191H397.907V535.376L392.342 540.171C394.256 540.638 395.854 541.536 397.137 542.866C398.421 544.173 399.062 545.958 399.062 548.221C399.062 549.855 398.677 551.348 397.907 552.701C397.137 554.055 396.076 555.116 394.722 555.886C393.392 556.656 391.911 557.041 390.277 557.041Z" fill="black"/>
<path d="M354.25 390.041C352.034 390.041 349.992 389.516 348.125 388.466C346.282 387.393 344.812 385.9 343.715 383.986C342.619 382.073 342.07 379.891 342.07 377.441C342.07 374.991 342.619 372.81 343.715 370.896C344.812 368.983 346.282 367.501 348.125 366.451C349.992 365.378 352.034 364.841 354.25 364.841C357.144 364.841 359.559 365.611 361.495 367.151C363.432 368.691 364.657 370.733 365.17 373.276H361.81C361.32 371.596 360.41 370.29 359.08 369.356C357.75 368.4 356.129 367.921 354.215 367.921C352.465 367.921 350.925 368.33 349.595 369.146C348.289 369.963 347.274 371.095 346.55 372.541C345.85 373.988 345.5 375.621 345.5 377.441C345.5 379.261 345.85 380.895 346.55 382.341C347.274 383.788 348.289 384.92 349.595 385.736C350.925 386.553 352.465 386.961 354.215 386.961C356.129 386.961 357.75 386.495 359.08 385.561C360.41 384.605 361.32 383.286 361.81 381.606H365.17C364.82 383.286 364.155 384.768 363.175 386.051C362.195 387.311 360.935 388.291 359.395 388.991C357.879 389.691 356.164 390.041 354.25 390.041ZM381.892 368.271H369.537V365.191H385.357V367.851L375.977 389.691H372.722L381.892 368.271Z" fill="black"/>
<path d="M347.81 731.271H341.58V728.191H357.4V731.271H351.17V752.691H347.81V731.271ZM360.985 727.141H364.065V737.466C364.741 736.743 365.651 736.125 366.795 735.611C367.938 735.098 369.14 734.841 370.4 734.841C372.266 734.841 373.725 735.366 374.775 736.416C375.848 737.443 376.385 738.843 376.385 740.616V752.691H373.305V741.176C373.305 740.033 372.966 739.146 372.29 738.516C371.613 737.886 370.691 737.571 369.525 737.571C368.521 737.571 367.53 737.863 366.55 738.446C365.57 739.03 364.741 739.788 364.065 740.721V752.691H360.985V727.141ZM393.547 731.271H381.192V728.191H397.012V730.851L387.632 752.691H384.377L393.547 731.271Z" fill="black"/>
<path d="M347.81 925.291H341.58V922.211H357.4V925.291H351.17V946.711H347.81V925.291ZM360.985 921.161H364.065V931.486C364.741 930.763 365.651 930.144 366.795 929.631C367.938 929.118 369.14 928.861 370.4 928.861C372.266 928.861 373.725 929.386 374.775 930.436C375.848 931.463 376.385 932.863 376.385 934.636V946.711H373.305V935.196C373.305 934.053 372.966 933.166 372.29 932.536C371.613 931.906 370.691 931.591 369.525 931.591C368.521 931.591 367.53 931.883 366.55 932.466C365.57 933.049 364.741 933.808 364.065 934.741V946.711H360.985V921.161ZM381.997 943.631H387.422V926.901C386.862 927.391 386.232 927.729 385.532 927.916C384.856 928.079 383.922 928.161 382.732 928.161V925.361H383.292C384.552 925.361 385.521 925.116 386.197 924.626C386.874 924.113 387.282 923.308 387.422 922.211H390.782V943.631H396.207V946.711H381.997V943.631ZM403.052 943.631H408.477V926.901C407.917 927.391 407.287 927.729 406.587 927.916C405.91 928.079 404.977 928.161 403.787 928.161V925.361H404.347C405.607 925.361 406.575 925.116 407.252 924.626C407.929 924.113 408.337 923.308 408.477 922.211H411.837V943.631H417.262V946.711H403.052V943.631Z" fill="black"/>
<path d="M355.25 145.041C353.034 145.041 350.992 144.516 349.125 143.466C347.282 142.393 345.812 140.9 344.715 138.986C343.619 137.073 343.07 134.891 343.07 132.441C343.07 129.991 343.619 127.81 344.715 125.896C345.812 123.983 347.282 122.501 349.125 121.451C350.992 120.378 353.034 119.841 355.25 119.841C358.144 119.841 360.559 120.611 362.495 122.151C364.432 123.691 365.657 125.733 366.17 128.276H362.81C362.32 126.596 361.41 125.29 360.08 124.356C358.75 123.4 357.129 122.921 355.215 122.921C353.465 122.921 351.925 123.33 350.595 124.146C349.289 124.963 348.274 126.095 347.55 127.541C346.85 128.988 346.5 130.621 346.5 132.441C346.5 134.261 346.85 135.895 347.55 137.341C348.274 138.788 349.289 139.92 350.595 140.736C351.925 141.553 353.465 141.961 355.215 141.961C357.129 141.961 358.75 141.495 360.08 140.561C361.41 139.605 362.32 138.286 362.81 136.606H366.17C365.82 138.286 365.155 139.768 364.175 141.051C363.195 142.311 361.935 143.291 360.395 143.991C358.879 144.691 357.164 145.041 355.25 145.041ZM370.012 141.821L380.127 132.721C381.154 131.788 381.924 130.913 382.437 130.096C382.95 129.256 383.207 128.265 383.207 127.121C383.207 125.815 382.764 124.788 381.877 124.041C381.014 123.295 379.882 122.921 378.482 122.921C377.059 122.921 375.88 123.353 374.947 124.216C374.037 125.08 373.547 126.27 373.477 127.786H370.257C370.327 126.27 370.724 124.905 371.447 123.691C372.194 122.478 373.162 121.533 374.352 120.856C375.565 120.18 376.895 119.841 378.342 119.841C379.905 119.841 381.294 120.133 382.507 120.716C383.744 121.3 384.7 122.128 385.377 123.201C386.077 124.275 386.427 125.523 386.427 126.946C386.427 128.463 386.077 129.828 385.377 131.041C384.7 132.231 383.685 133.421 382.332 134.611L374.387 141.611H386.917V144.691H370.012V141.821Z" fill="black"/>
<path d="M348.81 486.271H342.58V483.191H358.4V486.271H352.17V507.691H348.81V486.271ZM361.985 482.141H365.065V492.466C365.741 491.743 366.651 491.125 367.795 490.611C368.938 490.098 370.14 489.841 371.4 489.841C373.266 489.841 374.725 490.366 375.775 491.416C376.848 492.443 377.385 493.843 377.385 495.616V507.691H374.305V496.176C374.305 495.033 373.966 494.146 373.29 493.516C372.613 492.886 371.691 492.571 370.525 492.571C369.521 492.571 368.53 492.863 367.55 493.446C366.57 494.03 365.741 494.788 365.065 495.721V507.691H361.985V482.141ZM381.667 504.821L391.782 495.721C392.809 494.788 393.579 493.913 394.092 493.096C394.606 492.256 394.862 491.265 394.862 490.121C394.862 488.815 394.419 487.788 393.532 487.041C392.669 486.295 391.537 485.921 390.137 485.921C388.714 485.921 387.536 486.353 386.602 487.216C385.692 488.08 385.202 489.27 385.132 490.786H381.912C381.982 489.27 382.379 487.905 383.102 486.691C383.849 485.478 384.817 484.533 386.007 483.856C387.221 483.18 388.551 482.841 389.997 482.841C391.561 482.841 392.949 483.133 394.162 483.716C395.399 484.3 396.356 485.128 397.032 486.201C397.732 487.275 398.082 488.523 398.082 489.946C398.082 491.463 397.732 492.828 397.032 494.041C396.356 495.231 395.341 496.421 393.987 497.611L386.042 504.611H398.572V507.691H381.667V504.821Z" fill="black"/>
<path d="M354.25 341.041C352.034 341.041 349.992 340.516 348.125 339.466C346.282 338.393 344.812 336.9 343.715 334.986C342.619 333.073 342.07 330.891 342.07 328.441C342.07 325.991 342.619 323.81 343.715 321.896C344.812 319.983 346.282 318.501 348.125 317.451C349.992 316.378 352.034 315.841 354.25 315.841C357.144 315.841 359.559 316.611 361.495 318.151C363.432 319.691 364.657 321.733 365.17 324.276H361.81C361.32 322.596 360.41 321.29 359.08 320.356C357.75 319.4 356.129 318.921 354.215 318.921C352.465 318.921 350.925 319.33 349.595 320.146C348.289 320.963 347.274 322.095 346.55 323.541C345.85 324.988 345.5 326.621 345.5 328.441C345.5 330.261 345.85 331.895 346.55 333.341C347.274 334.788 348.289 335.92 349.595 336.736C350.925 337.553 352.465 337.961 354.215 337.961C356.129 337.961 357.75 337.495 359.08 336.561C360.41 335.605 361.32 334.286 361.81 332.606H365.17C364.82 334.286 364.155 335.768 363.175 337.051C362.195 338.311 360.935 339.291 359.395 339.991C357.879 340.691 356.164 341.041 354.25 341.041ZM377.587 341.041C376.327 341.041 375.079 340.738 373.842 340.131C372.605 339.501 371.59 338.65 370.797 337.576C370.074 336.573 369.537 335.395 369.187 334.041C368.86 332.688 368.697 331.125 368.697 329.351C368.697 326.645 369.07 324.276 369.817 322.246C370.564 320.216 371.649 318.641 373.072 317.521C374.495 316.401 376.199 315.841 378.182 315.841C380.259 315.841 381.962 316.425 383.292 317.591C384.622 318.735 385.404 320.275 385.637 322.211H382.382C382.032 320.998 381.519 320.146 380.842 319.656C380.165 319.166 379.244 318.921 378.077 318.921C376.98 318.921 375.989 319.248 375.102 319.901C374.239 320.555 373.55 321.511 373.037 322.771C372.547 324.008 372.302 325.466 372.302 327.146C373.119 326.166 374.029 325.478 375.032 325.081C376.059 324.685 377.237 324.486 378.567 324.486C380.06 324.486 381.402 324.813 382.592 325.466C383.805 326.12 384.75 327.053 385.427 328.266C386.127 329.48 386.477 330.88 386.477 332.466C386.477 334.076 386.104 335.535 385.357 336.841C384.61 338.148 383.56 339.175 382.207 339.921C380.854 340.668 379.314 341.041 377.587 341.041ZM377.762 337.961C378.835 337.961 379.769 337.705 380.562 337.191C381.355 336.678 381.962 336.013 382.382 335.196C382.825 334.356 383.047 333.47 383.047 332.536C383.047 331.603 382.825 330.728 382.382 329.911C381.962 329.071 381.355 328.395 380.562 327.881C379.769 327.368 378.835 327.111 377.762 327.111C376.689 327.111 375.755 327.368 374.962 327.881C374.169 328.395 373.55 329.071 373.107 329.911C372.687 330.728 372.477 331.603 372.477 332.536C372.477 334.076 372.955 335.371 373.912 336.421C374.869 337.448 376.152 337.961 377.762 337.961Z" fill="black"/>
<path d="M347.81 682.271H341.58V679.191H357.4V682.271H351.17V703.691H347.81V682.271ZM360.985 678.141H364.065V688.466C364.741 687.743 365.651 687.125 366.795 686.611C367.938 686.098 369.14 685.841 370.4 685.841C372.266 685.841 373.725 686.366 374.775 687.416C375.848 688.443 376.385 689.843 376.385 691.616V703.691H373.305V692.176C373.305 691.033 372.966 690.146 372.29 689.516C371.613 688.886 370.691 688.571 369.525 688.571C368.521 688.571 367.53 688.863 366.55 689.446C365.57 690.03 364.741 690.788 364.065 691.721V703.691H360.985V678.141ZM389.242 704.041C387.982 704.041 386.734 703.738 385.497 703.131C384.261 702.501 383.246 701.65 382.452 700.576C381.729 699.573 381.192 698.395 380.842 697.041C380.516 695.688 380.352 694.125 380.352 692.351C380.352 689.645 380.726 687.276 381.472 685.246C382.219 683.216 383.304 681.641 384.727 680.521C386.151 679.401 387.854 678.841 389.837 678.841C391.914 678.841 393.617 679.425 394.947 680.591C396.277 681.735 397.059 683.275 397.292 685.211H394.037C393.687 683.998 393.174 683.146 392.497 682.656C391.821 682.166 390.899 681.921 389.732 681.921C388.636 681.921 387.644 682.248 386.757 682.901C385.894 683.555 385.206 684.511 384.692 685.771C384.202 687.008 383.957 688.466 383.957 690.146C384.774 689.166 385.684 688.478 386.687 688.081C387.714 687.685 388.892 687.486 390.222 687.486C391.716 687.486 393.057 687.813 394.247 688.466C395.461 689.12 396.406 690.053 397.082 691.266C397.782 692.48 398.132 693.88 398.132 695.466C398.132 697.076 397.759 698.535 397.012 699.841C396.266 701.148 395.216 702.175 393.862 702.921C392.509 703.668 390.969 704.041 389.242 704.041ZM389.417 700.961C390.491 700.961 391.424 700.705 392.217 700.191C393.011 699.678 393.617 699.013 394.037 698.196C394.481 697.356 394.702 696.47 394.702 695.536C394.702 694.603 394.481 693.728 394.037 692.911C393.617 692.071 393.011 691.395 392.217 690.881C391.424 690.368 390.491 690.111 389.417 690.111C388.344 690.111 387.411 690.368 386.617 690.881C385.824 691.395 385.206 692.071 384.762 692.911C384.342 693.728 384.132 694.603 384.132 695.536C384.132 697.076 384.611 698.371 385.567 699.421C386.524 700.448 387.807 700.961 389.417 700.961Z" fill="black"/>
<path d="M347.81 876.291H341.58V873.211H357.4V876.291H351.17V897.711H347.81V876.291ZM360.985 872.161H364.065V882.486C364.741 881.763 365.651 881.144 366.795 880.631C367.938 880.118 369.14 879.861 370.4 879.861C372.266 879.861 373.725 880.386 374.775 881.436C375.848 882.463 376.385 883.863 376.385 885.636V897.711H373.305V886.196C373.305 885.053 372.966 884.166 372.29 883.536C371.613 882.906 370.691 882.591 369.525 882.591C368.521 882.591 367.53 882.883 366.55 883.466C365.57 884.049 364.741 884.808 364.065 885.741V897.711H360.985V872.161ZM381.997 894.631H387.422V877.901C386.862 878.391 386.232 878.729 385.532 878.916C384.856 879.079 383.922 879.161 382.732 879.161V876.361H383.292C384.552 876.361 385.521 876.116 386.197 875.626C386.874 875.113 387.282 874.308 387.422 873.211H390.782V894.631H396.207V897.711H381.997V894.631ZM410.157 898.061C408.22 898.061 406.529 897.524 405.082 896.451C403.635 895.354 402.527 893.849 401.757 891.936C400.987 890.023 400.602 887.864 400.602 885.461C400.602 883.058 400.987 880.899 401.757 878.986C402.527 877.073 403.635 875.579 405.082 874.506C406.529 873.409 408.22 872.861 410.157 872.861C412.094 872.861 413.785 873.409 415.232 874.506C416.679 875.579 417.787 877.073 418.557 878.986C419.327 880.899 419.712 883.058 419.712 885.461C419.712 887.864 419.327 890.023 418.557 891.936C417.787 893.849 416.679 895.354 415.232 896.451C413.785 897.524 412.094 898.061 410.157 898.061ZM410.157 894.981C412.14 894.981 413.657 894.118 414.707 892.391C415.757 890.664 416.282 888.354 416.282 885.461C416.282 882.568 415.757 880.258 414.707 878.531C413.657 876.804 412.14 875.941 410.157 875.941C408.174 875.941 406.657 876.804 405.607 878.531C404.557 880.258 404.032 882.568 404.032 885.461C404.032 888.354 404.557 890.664 405.607 892.391C406.657 894.118 408.174 894.981 410.157 894.981Z" fill="black"/>
<path d="M355.25 243.041C353.034 243.041 350.992 242.516 349.125 241.466C347.282 240.393 345.812 238.9 344.715 236.986C343.619 235.073 343.07 232.891 343.07 230.441C343.07 227.991 343.619 225.81 344.715 223.896C345.812 221.983 347.282 220.501 349.125 219.451C350.992 218.378 353.034 217.841 355.25 217.841C358.144 217.841 360.559 218.611 362.495 220.151C364.432 221.691 365.657 223.733 366.17 226.276H362.81C362.32 224.596 361.41 223.29 360.08 222.356C358.75 221.4 357.129 220.921 355.215 220.921C353.465 220.921 351.925 221.33 350.595 222.146C349.289 222.963 348.274 224.095 347.55 225.541C346.85 226.988 346.5 228.621 346.5 230.441C346.5 232.261 346.85 233.895 347.55 235.341C348.274 236.788 349.289 237.92 350.595 238.736C351.925 239.553 353.465 239.961 355.215 239.961C357.129 239.961 358.75 239.495 360.08 238.561C361.41 237.605 362.32 236.286 362.81 234.606H366.17C365.82 236.286 365.155 237.768 364.175 239.051C363.195 240.311 361.935 241.291 360.395 241.991C358.879 242.691 357.164 243.041 355.25 243.041ZM381.002 237.301H369.592V234.221L381.212 218.191H384.362V234.221H387.302V237.301H384.362V242.691H381.002V237.301ZM381.002 234.221V223.476L373.162 234.221H381.002Z" fill="black"/>
<path d="M348.81 584.271H342.58V581.191H358.4V584.271H352.17V605.691H348.81V584.271ZM361.985 580.141H365.065V590.466C365.741 589.743 366.651 589.125 367.795 588.611C368.938 588.098 370.14 587.841 371.4 587.841C373.266 587.841 374.725 588.366 375.775 589.416C376.848 590.443 377.385 591.843 377.385 593.616V605.691H374.305V594.176C374.305 593.033 373.966 592.146 373.29 591.516C372.613 590.886 371.691 590.571 370.525 590.571C369.521 590.571 368.53 590.863 367.55 591.446C366.57 592.03 365.741 592.788 365.065 593.721V605.691H361.985V580.141ZM392.657 600.301H381.247V597.221L392.867 581.191H396.017V597.221H398.957V600.301H396.017V605.691H392.657V600.301ZM392.657 597.221V586.476L384.817 597.221H392.657Z" fill="black"/>
<path d="M347.81 437.271H341.58V434.191H357.4V437.271H351.17V458.691H347.81V437.271ZM360.985 433.141H364.065V443.466C364.741 442.743 365.651 442.125 366.795 441.611C367.938 441.098 369.14 440.841 370.4 440.841C372.266 440.841 373.725 441.366 374.775 442.416C375.848 443.443 376.385 444.843 376.385 446.616V458.691H373.305V447.176C373.305 446.033 372.966 445.146 372.29 444.516C371.613 443.886 370.691 443.571 369.525 443.571C368.521 443.571 367.53 443.863 366.55 444.446C365.57 445.03 364.741 445.788 364.065 446.721V458.691H360.985V433.141ZM383.108 438.881C382.548 439.371 381.918 439.71 381.218 439.896C380.541 440.06 379.608 440.141 378.418 440.141V437.341H378.978C380.238 437.341 381.206 437.096 381.883 436.606C382.559 436.093 382.968 435.288 383.108 434.191H386.468V458.691H383.108V438.881Z" fill="black"/>
<path d="M347.81 780.271H341.58V777.191H357.4V780.271H351.17V801.691H347.81V780.271ZM360.985 776.141H364.065V786.466C364.741 785.743 365.651 785.125 366.795 784.611C367.938 784.098 369.14 783.841 370.4 783.841C372.266 783.841 373.725 784.366 374.775 785.416C375.848 786.443 376.385 787.843 376.385 789.616V801.691H373.305V790.176C373.305 789.033 372.966 788.146 372.29 787.516C371.613 786.886 370.691 786.571 369.525 786.571C368.521 786.571 367.53 786.863 366.55 787.446C365.57 788.03 364.741 788.788 364.065 789.721V801.691H360.985V776.141ZM389.102 802.041C387.469 802.041 386.034 801.715 384.797 801.061C383.561 800.385 382.616 799.463 381.962 798.296C381.309 797.13 380.982 795.811 380.982 794.341C380.982 792.988 381.321 791.775 381.997 790.701C382.674 789.605 383.561 788.753 384.657 788.146C383.864 787.563 383.234 786.828 382.767 785.941C382.324 785.031 382.102 784.075 382.102 783.071C382.102 781.881 382.406 780.82 383.012 779.886C383.642 778.93 384.494 778.183 385.567 777.646C386.641 777.11 387.819 776.841 389.102 776.841C390.386 776.841 391.564 777.11 392.637 777.646C393.711 778.183 394.551 778.93 395.157 779.886C395.787 780.82 396.102 781.881 396.102 783.071C396.102 784.075 395.869 785.031 395.402 785.941C394.959 786.828 394.341 787.563 393.547 788.146C394.644 788.753 395.531 789.605 396.207 790.701C396.884 791.775 397.222 792.988 397.222 794.341C397.222 795.811 396.896 797.13 396.242 798.296C395.589 799.463 394.644 800.385 393.407 801.061C392.171 801.715 390.736 802.041 389.102 802.041ZM389.102 786.921C390.222 786.921 391.132 786.583 391.832 785.906C392.532 785.23 392.882 784.343 392.882 783.246C392.882 782.15 392.532 781.263 391.832 780.586C391.132 779.91 390.222 779.571 389.102 779.571C387.982 779.571 387.072 779.91 386.372 780.586C385.672 781.263 385.322 782.15 385.322 783.246C385.322 784.343 385.672 785.23 386.372 785.906C387.072 786.583 387.982 786.921 389.102 786.921ZM389.102 798.961C390.409 798.961 391.517 798.53 392.427 797.666C393.337 796.78 393.792 795.648 393.792 794.271C393.792 792.895 393.337 791.775 392.427 790.911C391.517 790.025 390.409 789.581 389.102 789.581C387.796 789.581 386.687 790.025 385.777 790.911C384.867 791.775 384.412 792.895 384.412 794.271C384.412 795.648 384.867 796.78 385.777 797.666C386.687 798.53 387.796 798.961 389.102 798.961Z" fill="black"/>
<path d="M347.81 974.291H341.58V971.211H357.4V974.291H351.17V995.711H347.81V974.291ZM360.985 970.161H364.065V980.486C364.741 979.763 365.651 979.144 366.795 978.631C367.938 978.118 369.14 977.861 370.4 977.861C372.266 977.861 373.725 978.386 374.775 979.436C375.848 980.463 376.385 981.863 376.385 983.636V995.711H373.305V984.196C373.305 983.053 372.966 982.166 372.29 981.536C371.613 980.906 370.691 980.591 369.525 980.591C368.521 980.591 367.53 980.883 366.55 981.466C365.57 982.049 364.741 982.808 364.065 983.741V995.711H360.985V970.161ZM381.997 992.631H387.422V975.901C386.862 976.391 386.232 976.729 385.532 976.916C384.856 977.079 383.922 977.161 382.732 977.161V974.361H383.292C384.552 974.361 385.521 974.116 386.197 973.626C386.874 973.113 387.282 972.308 387.422 971.211H390.782V992.631H396.207V995.711H381.997V992.631ZM401.722 992.841L411.837 983.741C412.864 982.808 413.634 981.933 414.147 981.116C414.66 980.276 414.917 979.284 414.917 978.141C414.917 976.834 414.474 975.808 413.587 975.061C412.724 974.314 411.592 973.941 410.192 973.941C408.769 973.941 407.59 974.373 406.657 975.236C405.747 976.099 405.257 977.289 405.187 978.806H401.967C402.037 977.289 402.434 975.924 403.157 974.711C403.904 973.498 404.872 972.553 406.062 971.876C407.275 971.199 408.605 970.861 410.052 970.861C411.615 970.861 413.004 971.153 414.217 971.736C415.454 972.319 416.41 973.148 417.087 974.221C417.787 975.294 418.137 976.543 418.137 977.966C418.137 979.483 417.787 980.848 417.087 982.061C416.41 983.251 415.395 984.441 414.042 985.631L406.097 992.631H418.627V995.711H401.722V992.841Z" fill="black"/>
<path d="M95.801 1583.32C98.626 1576.33 90.239 1558.15 84.632 1558.15L67.858 1556.72C72.074 1574.93 66.692 1579.15 84.632 1583.32C83.242 1590.37 91.629 1598.76 97.236 1600.15C97.236 1607.19 102.797 1607.19 107.013 1609.98C125.178 1633.8 123.788 1607.19 109.794 1604.37C109.757 1602.58 109.209 1600.84 108.216 1599.35C107.222 1597.87 105.825 1596.7 104.188 1595.98C104.225 1593.27 103.444 1590.61 101.947 1588.36C100.451 1586.1 98.309 1584.34 95.801 1583.32Z" fill="white" stroke="#1D1D1B" stroke-width="5.17" stroke-linecap="round" stroke-linejoin="round"/>
<path d="M109.275 1602.98C110.665 1607.2 109.275 1610.03 106.494 1608.59" stroke="#1D1D1B" stroke-width="5.17" stroke-linecap="round" stroke-linejoin="round"/>
<path d="M96.9637 1600.2C100.837 1601.59 102.127 1598.76 103.418 1595.98" stroke="#1D1D1B" stroke-width="5.17" stroke-linecap="round" stroke-linejoin="round"/>
<path d="M95.2812 1583.37C92.5003 1588.98 86.9393 1584.77 84.1133 1583.37" stroke="#1D1D1B" stroke-width="5.17" stroke-linecap="round" stroke-linejoin="round"/>
<path d="M211.22 1484.59H214.58V1495.02L223.925 1484.59H227.88L217.52 1496.14L228.37 1509.09H224.03L214.58 1497.82V1509.09H211.22V1484.59ZM235.432 1484.59H243.832C246.586 1484.59 248.779 1485.31 250.412 1486.76C252.069 1488.18 252.897 1490.13 252.897 1492.6C252.897 1495.07 252.069 1497.03 250.412 1498.48C248.779 1499.9 246.586 1500.62 243.832 1500.62H238.792V1509.09H235.432V1484.59ZM243.902 1497.54C247.659 1497.54 249.537 1495.89 249.537 1492.6C249.537 1489.31 247.659 1487.67 243.902 1487.67H238.792V1497.54H243.902ZM260.602 1484.59H275.267V1487.67H263.962V1495.3H274.322V1498.38H263.962V1506.01H275.652V1509.09H260.602V1484.59ZM294.176 1509.44C291.959 1509.44 289.918 1508.91 288.051 1507.86C286.208 1506.79 284.738 1505.29 283.641 1503.38C282.544 1501.47 281.996 1499.29 281.996 1496.84C281.996 1494.39 282.544 1492.2 283.641 1490.29C284.738 1488.38 286.208 1486.9 288.051 1485.85C289.918 1484.77 291.959 1484.24 294.176 1484.24C297.069 1484.24 299.484 1485.01 301.421 1486.55C303.358 1488.09 304.583 1490.13 305.096 1492.67H301.736C301.246 1490.99 300.336 1489.68 299.006 1488.75C297.676 1487.79 296.054 1487.32 294.141 1487.32C292.391 1487.32 290.851 1487.72 289.521 1488.54C288.214 1489.36 287.199 1490.49 286.476 1491.94C285.776 1493.38 285.426 1495.02 285.426 1496.84C285.426 1498.66 285.776 1500.29 286.476 1501.74C287.199 1503.18 288.214 1504.31 289.521 1505.13C290.851 1505.95 292.391 1506.36 294.141 1506.36C296.054 1506.36 297.676 1505.89 299.006 1504.96C300.336 1504 301.246 1502.68 301.736 1501H305.096C304.746 1502.68 304.081 1504.16 303.101 1505.45C302.121 1506.71 300.861 1507.69 299.321 1508.39C297.804 1509.09 296.089 1509.44 294.176 1509.44ZM316.427 1487.67H310.197V1484.59H326.017V1487.67H319.787V1509.09H316.427V1487.67ZM333.241 1484.59H347.906V1487.67H336.601V1495.3H346.961V1498.38H336.601V1506.01H348.291V1509.09H333.241V1484.59ZM373.619 1509.09H356.189V1484.59H359.549V1506.01H370.819V1484.59H374.179V1506.01H376.979V1513.29H373.619V1509.09Z" fill="black"/>
<path d="M149.692 1596.31H153.052V1606.74L162.397 1596.31H166.352L155.992 1607.86L166.842 1620.81H162.502L153.052 1609.54V1620.81H149.692V1596.31ZM182.719 1621.16C180.456 1621.16 178.391 1620.63 176.524 1619.58C174.681 1618.51 173.222 1617.02 172.149 1615.1C171.076 1613.19 170.539 1611.01 170.539 1608.56C170.539 1606.11 171.076 1603.93 172.149 1602.01C173.222 1600.1 174.681 1598.62 176.524 1597.57C178.391 1596.5 180.456 1595.96 182.719 1595.96C184.982 1595.96 187.036 1596.5 188.879 1597.57C190.746 1598.62 192.216 1600.1 193.289 1602.01C194.362 1603.93 194.899 1606.11 194.899 1608.56C194.899 1611.01 194.362 1613.19 193.289 1615.1C192.216 1617.02 190.746 1618.51 188.879 1619.58C187.036 1620.63 184.982 1621.16 182.719 1621.16ZM182.719 1618.08C184.469 1618.08 186.009 1617.68 187.339 1616.89C188.669 1616.07 189.684 1614.95 190.384 1613.53C191.107 1612.08 191.469 1610.43 191.469 1608.56C191.469 1606.69 191.107 1605.05 190.384 1603.62C189.684 1602.18 188.669 1601.06 187.339 1600.26C186.009 1599.45 184.469 1599.04 182.719 1599.04C180.969 1599.04 179.429 1599.45 178.099 1600.26C176.769 1601.06 175.742 1602.18 175.019 1603.62C174.319 1605.05 173.969 1606.69 173.969 1608.56C173.969 1610.43 174.319 1612.08 175.019 1613.53C175.742 1614.95 176.769 1616.07 178.099 1616.89C179.429 1617.68 180.969 1618.08 182.719 1618.08ZM202.596 1596.31H220.621V1620.81H217.261V1599.39H205.956V1620.81H202.596V1596.31ZM245.55 1596.31V1620.81H242.19V1609.96C241.443 1610.45 240.545 1610.85 239.495 1611.15C238.445 1611.45 237.36 1611.6 236.24 1611.6C233.977 1611.6 232.203 1611.11 230.92 1610.13C229.66 1609.13 229.03 1607.67 229.03 1605.76V1596.31H232.39V1605.2C232.39 1606.37 232.74 1607.22 233.44 1607.75C234.163 1608.27 235.213 1608.52 236.59 1608.52C238.62 1608.52 240.487 1607.93 242.19 1606.74V1596.31H245.55ZM253.961 1596.31H257.321V1615.73L268.591 1596.31H272.371V1620.81H269.011V1601.38L257.741 1620.81H253.961V1596.31ZM280.771 1596.31H284.131V1606.74L293.476 1596.31H297.431L287.071 1607.86L297.921 1620.81H293.581L284.131 1609.54V1620.81H280.771V1596.31Z" fill="black"/>
<line x1="73.6308" y1="1098.63" x2="117.932" y2="1104.74" stroke="black"/>
<line x1="73.6573" y1="1144" x2="128.058" y2="1154.5" stroke="black"/>
<line x1="73.679" y1="1190.46" x2="128.079" y2="1203.5" stroke="black"/>
<line x1="73.7831" y1="1238.44" x2="124.588" y2="1263.42" stroke="black"/>
<line x1="73.8921" y1="1286.09" x2="107.171" y2="1315.26" stroke="black"/>
<path d="M23.8563 1081.49H27.2163V1102.91H39.2913V1105.99H23.8563V1081.49ZM44.6946 1102.91H50.1196V1086.18C49.5596 1086.67 48.9296 1087.01 48.2296 1087.19C47.553 1087.36 46.6196 1087.44 45.4296 1087.44V1084.64H45.9896C47.2496 1084.64 48.218 1084.39 48.8946 1083.9C49.5713 1083.39 49.9796 1082.58 50.1196 1081.49H53.4796V1102.91H58.9046V1105.99H44.6946V1102.91Z" fill="black"/>
<path d="M23.8563 1130.49H27.2163V1151.91H39.2913V1154.99H23.8563V1130.49ZM43.3646 1152.12L53.4796 1143.02C54.5063 1142.08 55.2763 1141.21 55.7896 1140.39C56.303 1139.55 56.5596 1138.56 56.5596 1137.42C56.5596 1136.11 56.1163 1135.08 55.2296 1134.34C54.3663 1133.59 53.2346 1133.22 51.8346 1133.22C50.4113 1133.22 49.233 1133.65 48.2996 1134.51C47.3896 1135.38 46.8996 1136.57 46.8296 1138.08H43.6096C43.6796 1136.57 44.0763 1135.2 44.7996 1133.99C45.5463 1132.77 46.5146 1131.83 47.7046 1131.15C48.918 1130.48 50.248 1130.14 51.6946 1130.14C53.258 1130.14 54.6463 1130.43 55.8596 1131.01C57.0963 1131.6 58.053 1132.42 58.7296 1133.5C59.4296 1134.57 59.7796 1135.82 59.7796 1137.24C59.7796 1138.76 59.4296 1140.12 58.7296 1141.34C58.053 1142.53 57.038 1143.72 55.6846 1144.91L47.7396 1151.91H60.2696V1154.99H43.3646V1152.12Z" fill="black"/>
<path d="M23.8563 1179.49H27.2163V1200.91H39.2913V1203.99H23.8563V1179.49ZM51.9746 1204.34C50.1546 1204.34 48.568 1203.94 47.2146 1203.15C45.8846 1202.35 44.8463 1201.3 44.0996 1200C43.353 1198.67 42.933 1197.21 42.8396 1195.62H45.9896C46.1063 1197.3 46.678 1198.67 47.7046 1199.72C48.7546 1200.74 50.1546 1201.26 51.9046 1201.26C53.5846 1201.26 54.903 1200.76 55.8596 1199.75C56.8396 1198.73 57.3296 1197.31 57.3296 1195.52C57.3296 1193.77 56.7463 1192.43 55.5796 1191.49C54.413 1190.54 52.978 1190.06 51.2746 1190.06H50.5046V1187.01L55.4046 1182.57H43.9246V1179.49H59.6047V1182.67L54.0396 1187.47C55.953 1187.93 57.5513 1188.83 58.8346 1190.16C60.118 1191.47 60.7596 1193.25 60.7596 1195.52C60.7596 1197.15 60.3746 1198.64 59.6047 1200C58.8346 1201.35 57.773 1202.41 56.4196 1203.18C55.0896 1203.95 53.608 1204.34 51.9746 1204.34Z" fill="black"/>
<path d="M23.8563 1228.49H27.2163V1249.91H39.2913V1252.99H23.8563V1228.49ZM54.3546 1247.6H42.9446V1244.52L54.5646 1228.49H57.7146V1244.52H60.6546V1247.6H57.7146V1252.99H54.3546V1247.6ZM54.3546 1244.52V1233.77L46.5146 1244.52H54.3546Z" fill="black"/>
<path d="M23.8563 1277.49H27.2163V1298.91H39.2913V1301.99H23.8563V1277.49ZM51.6596 1302.34C50.0496 1302.34 48.5913 1302 47.2846 1301.32C45.978 1300.65 44.928 1299.7 44.1346 1298.49C43.3646 1297.27 42.933 1295.89 42.8396 1294.32H46.1996C46.363 1295.7 46.9113 1296.87 47.8446 1297.82C48.778 1298.78 50.0496 1299.26 51.6596 1299.26C53.3863 1299.26 54.7513 1298.73 55.7546 1297.68C56.7813 1296.63 57.2946 1295.17 57.2946 1293.31C57.2946 1291.46 56.7813 1290.04 55.7546 1289.04C54.7513 1288.01 53.4796 1287.5 51.9396 1287.5C50.563 1287.5 49.408 1287.7 48.4746 1288.09C47.5646 1288.47 46.713 1288.93 45.9196 1289.49L43.5046 1288.34L45.0446 1277.49H58.8346V1280.57H47.5996L46.5846 1286.41C47.3313 1285.9 48.218 1285.48 49.2446 1285.15C50.2713 1284.83 51.3213 1284.66 52.3946 1284.66C54.938 1284.66 56.9563 1285.43 58.4496 1286.97C59.9663 1288.49 60.7247 1290.57 60.7247 1293.2C60.7247 1294.84 60.363 1296.35 59.6396 1297.75C58.9163 1299.13 57.8663 1300.24 56.4896 1301.08C55.113 1301.92 53.503 1302.34 51.6596 1302.34Z" fill="black"/>
</svg>
