<svg width="469" height="1685" viewBox="0 0 469 1685" fill="none" xmlns="http://www.w3.org/2000/svg">
<path d="M129.525 1594.37C130.915 1597.19 129.525 1601.37 126.744 1599.98L129.525 1594.37Z" stroke="#1D1D1B" stroke-width="5.17"/>
<path d="M129.525 1594.37C130.915 1597.19 129.525 1601.37 126.744 1599.98" stroke="#1D1D1B" stroke-width="5.17" stroke-linecap="round" stroke-linejoin="round"/>
<path d="M116.966 1590.15C121.138 1591.59 123.918 1590.15 123.918 1585.98L116.966 1590.15Z" stroke="#1D1D1B" stroke-width="5.17"/>
<path d="M116.966 1590.15C121.138 1591.59 123.918 1590.15 123.918 1585.98" stroke="#1D1D1B" stroke-width="5.17" stroke-linecap="round" stroke-linejoin="round"/>
<path d="M115.531 1573.37C114.141 1580.41 108.579 1574.81 104.363 1573.37H115.531Z" stroke="#1D1D1B" stroke-width="5.17"/>
<path d="M115.531 1573.37C114.141 1580.41 108.579 1574.81 104.363 1573.37" stroke="#1D1D1B" stroke-width="5.17" stroke-linecap="round" stroke-linejoin="round"/>
<path d="M87.6785 1531.33C89.1145 1532.72 103.062 1534.11 103.062 1532.72L87.6785 1531.33Z" stroke="#1D1D1B" stroke-width="5.17"/>
<path d="M87.6785 1531.33C89.1145 1532.72 103.062 1534.11 103.062 1532.72" stroke="#1D1D1B" stroke-width="5.17" stroke-linecap="round" stroke-linejoin="round"/>
<path d="M193.797 349.908C189.242 353.347 183.992 355.751 178.413 356.953C150.471 361.125 147.69 352.735 135.132 362.516C121.138 370.951 122.528 337.3 137.912 345.736C142.084 347.126 155.853 334.519 163.074 337.3C172.852 341.518 182.629 333.083 189.626 330.301C182.629 331.692 175.633 328.91 167.2 330.301C164.42 330.301 163.029 319.084 172.807 317.693C216.089 312.084 204.965 292.477 220.305 299.477C224.319 300.608 228.575 300.549 232.556 299.306C236.537 298.064 240.072 295.691 242.73 292.477L241.295 284.042C220.349 293.868 209.181 286.869 203.575 298.086C202.185 302.258 200.794 295.259 200.794 293.868C198.013 267.216 216.133 288.26 223.22 271.434C230.307 254.609 248.382 271.434 248.382 250.436C247.265 248.792 246.772 246.803 246.991 244.827C221.74 251.827 217.748 253.218 213.263 263.223C213.263 264.614 203.485 273.004 206.266 264.614C207.701 260.397 203.485 239.398 214.653 245.007C228.647 253.397 224.476 228.181 237.079 226.79C246.857 225.355 249.638 222.573 253.854 214.138C246.857 215.573 242.686 214.138 245.466 204.356C227.526 205.747 220.305 228.181 203.53 229.572C196.578 230.963 202.14 225.355 203.53 216.964C203.53 204.356 218.914 212.747 221.471 197.357C224.296 186.14 238.245 193.139 241.026 180.531C241.026 174.923 220.08 177.705 199.135 194.53C194.919 172.096 193.528 173.532 214.474 156.706C235.42 139.881 231.248 166.533 254.84 142.708C255.957 141.629 256.79 140.291 257.264 138.812C257.739 137.333 257.841 135.76 257.562 134.233C257.282 132.705 256.629 131.271 255.662 130.056C254.694 128.842 253.441 127.886 252.015 127.273C239.456 125.882 215.685 139.881 210.123 130.1C201.736 111.883 242.282 121.665 246.453 113.274C253.45 107.666 231.069 99.2314 260.402 100.666L263.228 95.0584C266.008 93.6224 267.399 92.2314 270.224 92.2314L268.789 100.666C284.173 95.0584 298.167 83.8414 295.341 97.8404C292.56 107.666 312.116 92.2314 307.945 110.448C307.945 116.056 296.732 121.665 296.732 130.1C307.945 130.1 303.729 153.88 307.945 160.924C316.332 176.314 293.951 169.314 288.389 166.533L286.954 169.314C289.78 190.313 307.945 174.923 304.895 187.531C301.845 200.139 310.501 201.53 307.72 211.356C307.72 215.573 295.117 209.965 285.295 205.747L283.904 207.138C290.901 211.356 288.12 219.746 301.845 221.182C308.842 221.182 304.626 260.397 297.674 256.179C293.458 252.006 290.677 245.007 282.289 249.179L280.899 250.615C284.622 263.223 298.481 263.223 298.481 277.043C297.046 282.651 295.655 307.867 288.703 298.086C285.571 292.967 281.227 288.699 276.055 285.657C275.515 286.198 274.858 286.609 274.135 286.858C273.413 287.106 272.643 287.187 271.884 287.093C276.055 308.091 274.665 292.701 285.833 308.091C290.049 313.7 278.836 320.699 276.055 331.916C273.274 341.742 267.668 317.917 257.89 327.743C262.106 341.742 252.284 337.525 270.494 344.524C274.665 345.96 260.671 365.567 260.671 371.176C259.281 375.393 249.503 365.567 249.503 362.74C239.725 368.349 225.777 362.74 224.386 351.523L216.133 352.959C205.01 338.916 203.575 344.524 193.708 350.133" stroke="#1D1D1B" stroke-width="5.17"/>
<path d="M193.797 349.908C189.242 353.347 183.992 355.751 178.413 356.953C150.471 361.125 147.69 352.735 135.132 362.516C121.138 370.951 122.528 337.3 137.912 345.736C142.084 347.126 155.853 334.519 163.074 337.3C172.852 341.518 182.629 333.083 189.626 330.301C182.629 331.692 175.633 328.91 167.2 330.301C164.42 330.301 163.029 319.084 172.807 317.693C216.089 312.084 204.965 292.477 220.305 299.477C224.319 300.608 228.575 300.549 232.556 299.306C236.537 298.064 240.072 295.691 242.73 292.477L241.295 284.042C220.349 293.868 209.181 286.869 203.575 298.086C202.185 302.258 200.794 293.868 200.794 293.868C198.013 267.216 216.133 288.26 223.22 271.434C230.307 254.609 248.382 271.434 248.382 250.436C247.265 248.792 246.772 246.803 246.991 244.827C221.74 251.827 217.748 253.218 213.263 263.223C213.263 264.614 203.485 273.004 206.266 264.614C207.701 260.397 203.485 239.398 214.653 245.007C228.647 253.397 224.476 228.181 237.079 226.79C246.857 225.355 249.638 222.573 253.854 214.138C246.857 215.573 242.686 214.138 245.466 204.356C227.526 205.747 220.305 228.181 203.53 229.572C196.578 230.963 202.14 225.355 203.53 216.964C203.53 204.356 218.914 212.747 221.471 197.357C224.296 186.14 238.245 193.139 241.026 180.531C241.026 174.923 220.08 177.705 199.135 194.53C194.919 172.096 193.528 173.532 214.474 156.706C235.42 139.881 231.248 166.533 254.84 142.708C255.957 141.629 256.79 140.291 257.264 138.812C257.739 137.333 257.841 135.76 257.562 134.233C257.282 132.705 256.629 131.271 255.662 130.056C254.694 128.842 253.441 127.886 252.015 127.273C239.456 125.882 215.685 139.881 210.123 130.1C201.736 111.883 242.282 121.665 246.453 113.274C253.45 107.666 231.069 99.2314 260.402 100.666L263.228 95.0584C266.008 93.6224 267.399 92.2314 270.224 92.2314L268.789 100.666C284.173 95.0584 298.167 83.8414 295.341 97.8404C292.56 107.666 312.116 92.2314 307.945 110.448C307.945 116.056 296.732 121.665 296.732 130.1C307.945 130.1 303.729 153.88 307.945 160.924C316.332 176.314 293.951 169.314 288.389 166.533L286.954 169.314C289.78 190.313 307.945 174.923 304.895 187.531C301.845 200.139 310.501 201.53 307.72 211.356C307.72 215.573 295.117 209.965 285.295 205.747L283.904 207.138C290.901 211.356 288.12 219.746 301.845 221.182C308.842 221.182 304.626 260.397 297.674 256.179C293.458 252.006 290.677 245.007 282.289 249.179L280.899 250.615C284.622 263.223 298.481 263.223 298.481 277.043C298.481 282.651 295.655 307.867 288.703 298.086C285.571 292.967 281.227 288.699 276.055 285.657C275.515 286.198 274.858 286.609 274.135 286.858C273.413 287.106 272.643 287.187 271.884 287.093C276.055 308.091 274.665 292.701 285.833 308.091C290.049 313.7 278.836 320.699 276.055 331.916C273.274 341.742 267.668 317.917 257.89 327.743C262.106 341.742 252.284 337.525 270.494 344.524C274.665 345.96 260.671 365.567 260.671 371.176C259.281 375.393 249.503 365.567 249.503 362.74C239.725 368.349 225.777 362.74 224.386 351.523L216.133 352.959C205.01 338.691 203.575 344.3 193.797 349.908Z" fill="#FC8B75" stroke="#1D1D1B" stroke-width="5.17" stroke-linecap="round" stroke-linejoin="round"/>
<path d="M258.113 136.918C263.719 150.916 288.881 132.7 297.223 129.918" stroke="#1D1D1B" stroke-width="5.17" stroke-linecap="round" stroke-linejoin="round"/>
<path d="M277.626 152.309C284.622 141.092 286.013 160.699 277.626 160.699V152.309Z" stroke="#1D1D1B" stroke-width="5.17"/>
<path d="M277.626 152.309C284.622 141.092 286.013 160.699 277.626 160.699" stroke="#1D1D1B" stroke-width="5.17" stroke-linecap="round" stroke-linejoin="round"/>
<path d="M287.402 168.998C279.015 184.433 266.457 160.608 259.46 168.998C255.289 173.215 251.073 185.823 241.519 180.215" stroke="#1D1D1B" stroke-width="5.17"/>
<path d="M287.402 168.998C279.015 184.433 266.457 160.608 259.46 168.998C255.289 173.215 251.073 185.823 241.519 180.215" stroke="#1D1D1B" stroke-width="5.17" stroke-linecap="round" stroke-linejoin="round"/>
<path d="M286.012 181.742C286.012 191.569 274.844 197.177 274.844 184.569L286.012 181.742Z" stroke="#1D1D1B" stroke-width="5.17"/>
<path d="M286.012 181.742C286.012 191.569 274.844 197.177 274.844 184.569" stroke="#1D1D1B" stroke-width="5.17" stroke-linecap="round" stroke-linejoin="round"/>
<path d="M283.043 118.187C283.043 125.046 276.246 128.395 275.86 120.273Z" stroke="#1D1D1B" stroke-width="5.17" stroke-linecap="round" stroke-linejoin="round"/>
<path d="M284.621 206.956C276.234 216.782 274.843 201.348 267.846 198.566" stroke="#1D1D1B" stroke-width="5.17"/>
<path d="M284.621 206.956C276.234 216.782 274.843 201.348 267.846 198.566" stroke="#1D1D1B" stroke-width="5.17" stroke-linecap="round" stroke-linejoin="round"/>
<path d="M272.062 202.785C266.472 207.102 260.461 210.845 254.122 213.958L272.062 202.785Z" stroke="#1D1D1B" stroke-width="5.17"/>
<path d="M272.062 202.785C266.472 207.102 260.461 210.845 254.122 213.958" stroke="#1D1D1B" stroke-width="5.17" stroke-linecap="round" stroke-linejoin="round"/>
<path d="M245.512 204.175L248.293 199.957" stroke="#1D1D1B" stroke-width="5.17"/>
<path d="M245.512 204.175L248.293 199.957" stroke="#1D1D1B" stroke-width="5.17" stroke-linecap="round" stroke-linejoin="round"/>
<path d="M248.293 237.781L246.903 244.78" stroke="#1D1D1B" stroke-width="5.17"/>
<path d="M248.293 237.781L246.903 244.78" stroke="#1D1D1B" stroke-width="5.17" stroke-linecap="round" stroke-linejoin="round"/>
<path d="M248.295 250.437C251.075 251.828 258.072 246.219 265.069 244.828C269.24 254.61 276.237 254.61 281.844 250.437" stroke="#1D1D1B" stroke-width="5.17" stroke-linecap="round" stroke-linejoin="round"/>
<path d="M283.23 249C287.644 244.374 290.566 238.527 291.617 232.219L283.23 249Z" stroke="#1D1D1B" stroke-width="5.17"/>
<path d="M283.23 249C287.644 244.374 290.566 238.527 291.617 232.219" stroke="#1D1D1B" stroke-width="5.17" stroke-linecap="round" stroke-linejoin="round"/>
<path d="M283.23 233.609C277.623 241.999 269.236 237.782 272.062 228L283.23 233.609Z" stroke="#1D1D1B" stroke-width="5.17"/>
<path d="M283.23 233.609C277.623 241.999 269.236 237.782 272.062 228" stroke="#1D1D1B" stroke-width="5.17" stroke-linecap="round" stroke-linejoin="round"/>
<path d="M276.055 274.215C264.887 278.433 269.058 267.216 267.668 263.043L276.055 274.215Z" stroke="#1D1D1B" stroke-width="5.17"/>
<path d="M276.055 274.215C264.887 278.433 269.058 267.216 267.668 263.043" stroke="#1D1D1B" stroke-width="5.17" stroke-linecap="round" stroke-linejoin="round"/>
<path d="M284.621 274.215C282.029 278.219 279.166 282.042 276.054 285.657L284.442 274.439" stroke="#1D1D1B" stroke-width="5.17"/>
<path d="M284.621 274.215C282.029 278.219 279.166 282.042 276.054 285.657" stroke="#1D1D1B" stroke-width="5.17" stroke-linecap="round" stroke-linejoin="round"/>
<path d="M272.062 286.867C266.457 288.258 262.285 282.65 256.678 272.824" stroke="#1D1D1B" stroke-width="5.17" stroke-linecap="round" stroke-linejoin="round"/>
<path d="M260.852 278.434C253.9 279.87 248.294 286.869 242.912 292.478" stroke="#1D1D1B" stroke-width="5.17" stroke-linecap="round" stroke-linejoin="round"/>
<path d="M262.285 298.082C263.645 300.163 264.37 302.595 264.37 305.082C264.37 307.568 263.645 310 262.285 312.081C253.897 320.471 273.453 317.69 270.672 307.864L262.285 298.082Z" stroke="#1D1D1B" stroke-width="5.17"/>
<path d="M262.285 298.082C263.645 300.163 264.37 302.595 264.37 305.082C264.37 307.568 263.645 310 262.285 312.081C253.897 320.471 273.453 317.69 270.672 307.864" stroke="#1D1D1B" stroke-width="5.17" stroke-linecap="round" stroke-linejoin="round"/>
<path d="M258.113 327.518C248.335 335.908 244.164 307.866 237.167 319.083C230.17 328.909 214.742 321.865 189.67 330.3" stroke="#1D1D1B" stroke-width="5.17"/>
<path d="M258.113 327.518C248.335 335.908 244.164 307.866 237.167 319.083C230.17 328.909 214.742 321.865 189.67 330.3" stroke="#1D1D1B" stroke-width="5.17" stroke-linecap="round" stroke-linejoin="round"/>
<path d="M244.121 330.523C244.629 337.328 243.165 344.136 239.905 350.13C238.514 352.957 249.682 352.957 253.898 347.348L244.121 330.523Z" stroke="#1D1D1B" stroke-width="5.17"/>
<path d="M244.121 330.523C244.629 337.328 243.165 344.136 239.905 350.13C238.514 352.957 249.682 352.957 253.898 347.348" stroke="#1D1D1B" stroke-width="5.17" stroke-linecap="round" stroke-linejoin="round"/>
<path d="M252.465 359.734L249.684 362.516" stroke="#1D1D1B" stroke-width="5.17"/>
<path d="M252.465 359.734L249.684 362.516" stroke="#1D1D1B" stroke-width="5.17" stroke-linecap="round" stroke-linejoin="round"/>
<path d="M188.193 1046.39C175.634 1050.61 156.079 1064.61 151.863 1052.05C142.085 1025.4 184.021 1026.79 185.412 1000.18C179.85 997.351 175.634 993.181 172.853 991.791C157.469 1007.18 147.692 1019.79 142.085 1011.4C129.527 990.351 161.64 977.751 158.86 955.313C150.472 956.751 142.085 956.751 143.52 948.314C135.133 972.141 116.923 948.314 119.749 944.096C132.308 927.27 128.136 914.707 130.917 899.228C128.815 898.874 126.864 897.906 125.311 896.446C116.923 892.229 105.8 918.88 102.885 904.836L98.7138 892.229C97.2778 885.229 114.053 855.796 111.272 838.97C108.79 839.796 106.113 839.833 103.608 839.078C101.103 838.323 98.8918 836.813 97.2778 834.753C91.7168 843.188 79.3378 855.796 76.3328 845.97C67.9458 816.536 97.2778 795.538 91.7168 766.105H84.8098C84.8098 774.495 70.8608 803.928 62.3838 785.712C48.3898 757.669 81.9388 728.281 83.3298 698.847L79.1138 697.412C72.1618 717.064 55.3868 726.845 59.5578 689.021C60.9938 669.414 79.1138 655.415 84.7198 635.763C82.9828 636.062 81.1998 635.963 79.5068 635.473C77.8128 634.983 76.2528 634.116 74.9418 632.936C47.3138 649.807 66.6448 602.157 87.6798 574.159C80.6828 571.332 79.2928 564.333 80.6828 557.334C70.9508 564.333 65.3438 551.725 83.5088 540.508C97.4578 532.118 96.0668 518.074 111.452 508.293C109.078 507.5 107.004 506.001 105.505 503.996C104.006 501.992 103.155 499.577 103.064 497.076C87.6798 505.511 77.8128 492.858 89.0258 481.641C94.5868 474.642 100.194 481.641 108.581 474.642L133.698 450.817C128.047 448.035 123.92 438.209 129.527 432.6C121.14 419.992 100.194 445.208 100.194 436.818C97.3678 394.777 145.045 422.774 158.86 407.385C151.863 403.167 153.298 396.168 158.86 390.559C147.692 390.559 139.304 384.951 121.139 391.95C114.143 394.777 110.106 368.125 132.532 370.907C150.472 372.298 168.862 375.08 184.246 366.689C182.855 361.081 184.246 355.472 194.023 349.864C203.801 344.255 205.191 338.647 216.449 352.69C223.446 362.517 212.278 372.298 220.665 372.298C224.881 372.298 227.662 372.298 227.662 366.689C237.44 372.298 241.611 382.079 254.214 383.515C265.382 383.515 249.998 393.296 244.436 408.731C241.611 419.948 217.884 398.949 209.497 397.514C201.11 396.078 216.449 384.906 209.497 382.079C202.5 380.733 192.723 396.123 198.329 404.513C201.11 410.122 205.281 404.513 210.887 407.34L234.659 419.948C243.001 424.165 222.055 431.165 223.446 447.99C224.881 463.38 208.107 439.555 188.507 438.164C194.113 414.339 171.777 414.339 170.566 439.555C170.566 456.38 176.172 447.99 184.56 447.99C194.337 450.772 194.337 457.771 215.283 463.38C220.889 466.162 208.331 480.205 208.331 490.031C206.896 504.03 194.337 495.595 187.34 491.422C177.563 485.814 160.788 490.031 167.785 478.814C177.563 459.162 155.227 456.38 151.011 475.988C149.62 484.423 135.671 477.379 128.585 484.423C132.756 499.813 146.525 477.379 151.011 491.422C158.007 508.248 156.617 482.987 166.395 495.595C178.953 509.639 199.944 497.031 197.163 515.247C197.163 523.638 192.947 527.855 191.556 536.246C191.556 547.463 170.566 541.854 165.004 536.246C159.443 530.637 134.236 540.463 144.059 525.073C153.881 509.684 129.527 512.466 128.047 527.945C127.943 529.398 127.318 530.765 126.289 531.795C125.259 532.825 123.893 533.449 122.44 533.553C122.44 546.161 126.656 533.553 128.047 546.161C129.769 544.257 131.978 542.858 134.436 542.115C136.893 541.372 139.507 541.313 141.995 541.944C133.608 553.161 178.325 547.552 183.932 554.552C188.103 557.378 179.76 567.16 183.932 579.812C188.103 589.594 183.932 596.593 179.76 596.593C164.376 595.202 147.602 593.811 132.218 593.811C122.44 593.811 135.043 568.595 116.834 569.986C107.101 569.986 105.711 583.985 108.491 591.029C114.053 606.419 109.882 610.637 129.437 598.029L130.827 602.202C132.532 607.81 177.025 600.766 177.025 613.194C175.634 648.236 186.802 648.236 178.415 649.627C161.64 652.454 142.085 644.063 126.746 652.454C126.746 641.237 129.527 634.237 115.533 634.237C105.8 632.802 107.191 646.845 107.191 652.454C115.533 651.063 109.971 665.062 114.143 666.453C121.14 667.844 118.359 660.844 126.746 659.453C132.308 659.453 126.746 672.061 178.415 659.453C186.802 656.671 175.634 681.887 188.193 704.321C192.409 712.756 172.853 704.321 146.301 711.321C126.746 715.538 136.524 704.321 128.361 693.373C119.973 684.938 105.935 710.199 110.42 715.807C122.978 711.59 113.201 748.068 132.846 720.025C135.671 715.807 150.786 727.024 172.001 720.025C197.163 713.026 188.731 728.46 189.942 738.241C192.723 755.067 201.11 752.24 195.503 763.457C195.503 766.284 170.342 767.675 157.783 771.893C149.396 773.283 143.834 781.674 142.399 764.848C140.695 749.324 110.106 754.932 118.359 774.719C121.14 781.719 116.923 778.937 112.752 787.327C130.693 773.328 122.53 791.545 133.698 790.154C142.085 788.763 136.524 784.545 142.085 784.545C174.244 785.936 185.412 780.328 195.189 774.719C207.793 767.72 199.405 794.327 207.793 802.762C217.57 812.543 218.961 820.978 214.745 822.369C199.405 827.978 188.193 827.978 168.637 836.413C158.86 841.976 163.076 827.978 156.079 825.196C144.911 819.587 132.532 833.407 146.301 842.021C149.082 843.457 146.301 851.847 146.301 853.238C156.079 865.846 158.86 842.021 170.028 847.63C184.021 851.847 210.394 830.804 217.57 832.24C225.958 833.631 220.351 854.674 234.345 863.064C249.684 874.281 230.129 881.281 221.742 882.672C210.369 885.644 199.532 890.383 189.628 896.715C179.85 902.324 182.631 877.063 168.637 886.889C161.64 892.498 164.466 902.324 167.247 907.888C177.025 900.888 170.028 917.714 182.631 917.714C195.189 916.323 175.634 907.887 203.577 905.106C217.57 905.106 228.738 889.671 243.943 891.107C255.111 891.107 246.724 914.932 256.501 924.713C267.67 931.757 260.673 941.539 252.285 938.757C241.117 935.93 211.919 965.361 207.434 952.756C202.949 940.148 185.008 954.146 192.05 963.971C192.05 965.361 196.266 975.191 187.834 976.581C210.26 966.751 201.827 989.191 214.386 973.751C225.599 958.361 246.544 963.971 256.322 952.756C273.097 934.539 271.706 959.751 277.268 969.581C281.484 975.191 296.823 994.801 288.481 999.011C280.138 1003.23 267.49 999.011 239.548 1017.19C235.376 996.191 217.122 1007.4 215.776 1024.23C200.437 1022.84 192.05 1035.45 187.834 1046.66" fill="#F8D0A3"/>
<path d="M188.193 1046.39C175.634 1050.61 156.079 1064.61 151.863 1052.05C142.085 1025.4 184.021 1026.79 185.412 1000.18C179.85 997.351 175.634 993.181 172.853 991.791C157.469 1007.18 147.692 1019.79 142.085 1011.4C129.527 990.351 161.64 977.751 158.86 955.313C150.472 956.751 142.085 956.751 143.52 948.314C135.133 972.141 116.923 948.314 119.749 944.096C132.308 927.27 128.136 914.707 130.917 899.228C128.815 898.874 126.864 897.906 125.311 896.446C116.923 892.229 105.8 918.88 102.885 904.836L98.7138 892.229C97.2778 885.229 114.053 855.796 111.272 838.97C108.79 839.796 106.113 839.833 103.608 839.078C101.103 838.323 98.8918 836.813 97.2778 834.753C91.7168 843.188 79.3378 855.796 76.3328 845.97C67.9458 816.536 97.2778 795.538 91.7168 766.105H84.8098C84.8098 774.495 70.8608 803.928 62.3838 785.712C48.3898 757.669 81.9388 728.281 83.3298 698.847L79.1138 697.412C72.1618 717.064 55.3868 726.845 59.5578 689.021C60.9938 669.414 79.1138 655.415 84.7198 635.763C82.9828 636.062 81.1998 635.963 79.5068 635.473C77.8128 634.983 76.2528 634.116 74.9418 632.936C47.3138 649.807 66.6448 602.157 87.6798 574.159C80.6828 571.332 79.2928 564.333 80.6828 557.334C70.9508 564.333 65.3438 551.725 83.5088 540.508C97.4578 532.118 96.0668 518.074 111.452 508.293C109.078 507.5 107.004 506.001 105.505 503.996C104.006 501.992 103.155 499.577 103.064 497.076C87.6798 505.511 77.8128 492.858 89.0258 481.641C94.5868 474.642 100.194 481.641 108.581 474.642L133.698 450.817C128.047 448.035 123.92 438.209 129.527 432.6C121.14 419.992 100.194 445.208 100.194 436.818C97.3678 394.777 145.045 422.774 158.86 407.385C151.863 403.167 153.298 396.168 158.86 390.559C147.692 390.559 139.304 384.951 121.139 391.95C114.143 394.777 110.106 368.125 132.532 370.907C150.472 372.298 168.862 375.08 184.246 366.689C182.855 361.081 184.246 355.472 194.023 349.864C203.801 344.255 205.191 338.647 216.449 352.69C223.446 362.517 212.278 372.298 220.665 372.298C224.881 372.298 227.662 372.298 227.662 366.689C237.44 372.298 241.611 382.079 254.214 383.515C265.382 383.515 249.998 393.296 244.436 408.731C241.611 419.948 217.884 398.949 209.497 397.514C201.11 396.078 216.449 384.906 209.497 382.079C202.5 380.733 192.723 396.123 198.329 404.513C201.11 410.122 205.281 404.513 210.887 407.34L234.659 419.948C243.001 424.165 222.055 431.165 223.446 447.99C224.881 463.38 208.107 439.555 188.507 438.164C194.113 414.339 171.777 414.339 170.566 439.555C170.566 456.38 176.172 447.99 184.56 447.99C194.337 450.772 194.337 457.771 215.283 463.38C220.889 466.162 208.331 480.205 208.331 490.031C206.896 504.03 194.337 495.595 187.34 491.422C177.563 485.814 160.788 490.031 167.785 478.814C177.563 459.162 155.227 456.38 151.011 475.988C149.62 484.423 135.671 477.379 128.585 484.423C132.756 499.813 146.525 477.379 151.011 491.422C158.007 508.248 156.617 482.987 166.395 495.595C178.953 509.639 199.944 497.031 197.163 515.247C197.163 523.638 192.947 527.855 191.556 536.246C191.556 547.463 170.566 541.854 165.004 536.246C159.443 530.637 134.236 540.463 144.059 525.073C153.881 509.684 129.527 512.466 128.047 527.945C127.943 529.398 127.318 530.765 126.289 531.795C125.259 532.825 123.893 533.449 122.44 533.553C122.44 546.161 126.656 533.553 128.047 546.161C129.769 544.257 131.978 542.858 134.436 542.115C136.893 541.372 139.507 541.313 141.995 541.944C133.608 553.161 178.325 547.552 183.932 554.552C188.103 557.378 179.76 567.16 183.932 579.812C188.103 589.594 183.932 596.593 179.76 596.593C164.376 595.202 147.602 593.811 132.218 593.811C122.44 593.811 135.043 568.595 116.834 569.986C107.101 569.986 105.711 583.985 108.491 591.029C114.053 606.419 109.882 610.637 129.437 598.029L130.827 602.202C132.532 607.81 177.025 600.766 177.025 613.194C175.634 648.236 186.802 648.236 178.415 649.627C161.64 652.454 142.085 644.063 126.746 652.454C126.746 641.237 129.527 634.237 115.533 634.237C105.8 632.802 107.191 646.845 107.191 652.454C115.533 651.063 109.971 665.062 114.143 666.453C121.14 667.844 118.359 660.844 126.746 659.453C132.308 659.453 126.746 672.061 178.415 659.453C186.802 656.671 175.634 681.887 188.193 704.321C192.409 712.756 172.853 704.321 146.301 711.321C126.746 715.538 136.524 704.321 128.361 693.373C119.973 684.938 105.935 710.199 110.42 715.807C122.978 711.59 113.201 748.068 132.846 720.025C135.671 715.807 150.786 727.024 172.001 720.025C197.163 713.026 188.731 728.46 189.942 738.241C192.723 755.067 201.11 752.24 195.503 763.457C195.503 766.284 170.342 767.675 157.783 771.893C149.396 773.283 143.834 781.674 142.399 764.848C140.695 749.324 110.106 754.932 118.359 774.719C121.14 781.719 116.923 778.937 112.752 787.327C130.693 773.328 122.53 791.545 133.698 790.154C142.085 788.763 136.524 784.545 142.085 784.545C174.244 785.936 185.412 780.328 195.189 774.719C207.793 767.72 199.405 794.327 207.793 802.762C217.57 812.543 218.961 820.978 214.745 822.369C199.405 827.978 188.193 827.978 168.637 836.413C158.86 841.976 163.076 827.978 156.079 825.196C144.911 819.587 132.532 833.407 146.301 842.021C149.082 843.457 146.301 851.847 146.301 853.238C156.079 865.846 158.86 842.021 170.028 847.63C184.021 851.847 210.394 830.804 217.57 832.24C225.958 833.631 220.351 854.674 234.345 863.064C249.684 874.281 230.129 881.281 221.742 882.672C210.369 885.644 199.532 890.383 189.628 896.715C179.85 902.324 182.631 877.063 168.637 886.889C161.64 892.498 164.466 902.324 167.247 907.888C177.025 900.888 170.028 917.714 182.631 917.714C195.189 916.323 175.634 907.887 203.577 905.106C217.57 905.106 228.738 889.671 243.943 891.107C255.111 891.107 246.724 914.932 256.501 924.713C267.67 931.757 260.673 941.539 252.285 938.757C241.117 935.93 211.919 965.361 207.434 952.756C202.949 940.148 185.008 954.146 192.05 963.971C192.05 965.361 196.266 975.191 187.834 976.581C210.26 966.751 201.827 989.191 214.386 973.751C225.599 958.361 246.544 963.971 256.322 952.756C273.097 934.539 271.706 959.751 277.268 969.581C281.484 975.191 296.823 994.801 288.481 999.011C280.138 1003.23 267.49 999.011 239.548 1017.19C235.376 996.191 217.122 1007.4 215.776 1024.23C200.437 1022.84 192.05 1035.45 187.834 1046.66" stroke="#1D1D1B" stroke-width="5.17"/>
<path d="M184.022 365.34C186.803 369.513 189.629 376.557 199.406 376.557" stroke="#1D1D1B" stroke-width="5.17" stroke-linecap="round" stroke-linejoin="round"/>
<path d="M233.575 379.859C230.749 384.724 225.91 392.419 224.475 382.606Z" stroke="#1D1D1B" stroke-width="5.17" stroke-linecap="round" stroke-linejoin="round"/>
<path d="M196.625 397.556C192.409 390.556 182.631 398.947 182.631 390.556C181.241 377.948 164.691 383.557 158.86 390.556" stroke="#1D1D1B" stroke-width="5.17"/>
<path d="M196.625 397.556C192.409 390.556 182.631 398.947 182.631 390.556C181.241 377.948 164.691 383.557 158.86 390.556" stroke="#1D1D1B" stroke-width="5.17" stroke-linecap="round" stroke-linejoin="round"/>
<path d="M158.859 407.383C160.46 409.113 162.359 410.542 164.465 411.601L158.859 407.383Z" stroke="#1D1D1B" stroke-width="5.17"/>
<path d="M158.859 407.383C160.46 409.113 162.359 410.542 164.465 411.601" stroke="#1D1D1B" stroke-width="5.17" stroke-linecap="round" stroke-linejoin="round"/>
<path d="M210.57 417.165C207.789 421.383 196.621 424.209 203.573 414.383L210.57 417.165Z" stroke="#1D1D1B" stroke-width="5.17"/>
<path d="M210.57 417.165C207.789 421.383 196.621 424.209 203.573 414.383" stroke="#1D1D1B" stroke-width="5.17" stroke-linecap="round" stroke-linejoin="round"/>
<path d="M170.027 439.598C147.601 439.598 165.856 436.816 154.688 426.99C147.691 419.991 133.697 426.99 129.526 432.599" stroke="#1D1D1B" stroke-width="5.17"/>
<path d="M170.027 439.598C147.601 439.598 165.856 436.816 154.688 426.99C147.691 419.991 133.697 426.99 129.526 432.599" stroke="#1D1D1B" stroke-width="5.17" stroke-linecap="round" stroke-linejoin="round"/>
<path d="M133.694 450.817C135.286 451.577 137.068 451.851 138.815 451.604C140.562 451.356 142.197 450.599 143.516 449.426" stroke="#1D1D1B" stroke-width="5.17" stroke-linecap="round" stroke-linejoin="round"/>
<path d="M177.023 457.816C172.852 467.642 181.239 470.424 185.41 460.642L177.023 457.816Z" stroke="#1D1D1B" stroke-width="5.17"/>
<path d="M177.023 457.816C172.852 467.642 181.239 470.424 185.41 460.642" stroke="#1D1D1B" stroke-width="5.17" stroke-linecap="round" stroke-linejoin="round"/>
<path d="M128.047 484.465C125.222 476.03 101.495 470.422 102.886 497.073" stroke="#1D1D1B" stroke-width="5.17"/>
<path d="M128.047 484.465C125.221 476.03 102.885 470.422 102.885 497.073" stroke="#1D1D1B" stroke-width="5.17" stroke-linecap="round" stroke-linejoin="round"/>
<path d="M111.359 508.291C112.95 509.035 114.725 509.296 116.463 509.041C118.201 508.786 119.826 508.026 121.137 506.855L111.359 508.291Z" fill="#1D1D1B"/>
<path d="M160.249 501.246C151.862 511.072 160.249 518.072 167.246 506.855L160.249 501.246Z" stroke="#1D1D1B" stroke-width="5.17"/>
<path d="M160.249 501.246C151.862 511.072 160.249 518.072 167.246 506.855" stroke="#1D1D1B" stroke-width="5.17" stroke-linecap="round" stroke-linejoin="round"/>
<path d="M122.531 533.508C107.191 534.899 119.75 544.725 105.801 544.725C91.8072 543.334 83.3752 550.334 80.5942 557.333" stroke="#1D1D1B" stroke-width="5.17" stroke-linecap="round" stroke-linejoin="round"/>
<path d="M87.5883 574.113L93.1953 576.939" stroke="#1D1D1B" stroke-width="5.17"/>
<path d="M87.5883 574.113L93.1953 576.939" stroke="#1D1D1B" stroke-width="5.17" stroke-linecap="round" stroke-linejoin="round"/>
<path d="M140.694 548.898C137.914 555.942 139.304 567.114 147.691 558.724L140.694 548.898Z" stroke="#1D1D1B" stroke-width="5.17"/>
<path d="M140.694 548.898C137.914 555.942 139.304 567.114 147.691 558.724" stroke="#1D1D1B" stroke-width="5.17" stroke-linecap="round" stroke-linejoin="round"/>
<path d="M108.578 590.984C101.581 597.983 91.8041 597.983 87.5871 607.764" stroke="#1D1D1B" stroke-width="5.17" stroke-linecap="round" stroke-linejoin="round"/>
<path d="M100.191 603.59C93.1944 616.198 86.1974 597.982 75.0294 614.762C70.8584 623.197 70.8584 628.806 75.0294 632.979" stroke="#1D1D1B" stroke-width="5.17"/>
<path d="M100.191 603.59C93.1944 616.198 86.1974 597.982 75.0294 614.762C70.8584 623.197 70.8584 628.806 75.0294 632.979" stroke="#1D1D1B" stroke-width="5.17" stroke-linecap="round" stroke-linejoin="round"/>
<path d="M84.8082 635.628C87.0842 636.251 89.4932 636.183 91.7292 635.432C93.9662 634.681 95.9282 633.281 97.3672 631.41" stroke="#1D1D1B" stroke-width="5.17" stroke-linecap="round" stroke-linejoin="round"/>
<path d="M128.047 610.59C125.221 621.807 130.828 625.98 137.824 613.372L128.047 610.59Z" stroke="#1D1D1B" stroke-width="5.17"/>
<path d="M128.047 610.59C125.221 621.807 130.828 625.98 137.824 613.372" stroke="#1D1D1B" stroke-width="5.17" stroke-linecap="round" stroke-linejoin="round"/>
<path d="M137.912 673.63C139.302 683.456 119.971 680.629 129.525 670.848L137.912 673.63Z" stroke="#1D1D1B" stroke-width="5.17"/>
<path d="M137.912 673.63C139.302 683.456 119.971 680.629 129.525 670.848" stroke="#1D1D1B" stroke-width="5.17" stroke-linecap="round" stroke-linejoin="round"/>
<path d="M107.188 652.629C98.8005 652.629 100.191 662.455 94.5845 666.628L107.188 652.629Z" stroke="#1D1D1B" stroke-width="5.17"/>
<path d="M107.188 652.629C98.8005 652.629 100.191 662.455 94.5845 666.628" stroke="#1D1D1B" stroke-width="5.17" stroke-linecap="round" stroke-linejoin="round"/>
<path d="M100.195 666.629C61.0843 668.02 61.0843 691.845 79.2493 697.454" stroke="#1D1D1B" stroke-width="5.17"/>
<path d="M100.195 666.629C61.0843 668.02 61.0843 691.845 79.2493 697.454" stroke="#1D1D1B" stroke-width="5.17" stroke-linecap="round" stroke-linejoin="round"/>
<path d="M83.4192 698.892C86.4822 698.934 89.4812 698.007 91.9862 696.242C94.4912 694.477 96.3752 691.966 97.3672 689.066" stroke="#1D1D1B" stroke-width="5.17" stroke-linecap="round" stroke-linejoin="round"/>
<path d="M149.078 731.105C144.907 740.931 133.694 742.322 135.13 726.887L149.078 731.105Z" stroke="#1D1D1B" stroke-width="5.17"/>
<path d="M149.078 731.105C144.907 740.931 133.694 742.322 135.13 726.887" stroke="#1D1D1B" stroke-width="5.17" stroke-linecap="round" stroke-linejoin="round"/>
<path d="M110.105 715.672C104.499 717.063 97.5025 736.715 89.1595 736.715C76.5565 738.106 65.3885 770.321 84.9435 766.149" stroke="#1D1D1B" stroke-width="5.17"/>
<path d="M110.105 715.672C104.499 717.063 97.5025 736.715 89.1595 736.715C76.5565 738.106 65.3885 770.321 84.9435 766.149" stroke="#1D1D1B" stroke-width="5.17" stroke-linecap="round" stroke-linejoin="round"/>
<path d="M91.8076 766.149C100.196 763.323 109.749 759.15 108.583 753.496" stroke="#1D1D1B" stroke-width="5.17" stroke-linecap="round" stroke-linejoin="round"/>
<path d="M97.365 834.795C87.588 826.404 100.191 802.579 109.969 798.362C115.53 795.58 107.188 792.753 112.75 787.145" stroke="#1D1D1B" stroke-width="5.17"/>
<path d="M97.365 834.795C87.588 826.404 100.191 802.579 109.969 798.362C115.53 795.58 107.188 792.753 112.75 787.145" stroke="#1D1D1B" stroke-width="5.17" stroke-linecap="round" stroke-linejoin="round"/>
<path d="M158.857 791.363C163.028 801.189 143.518 806.797 147.689 794.144L158.857 791.363Z" stroke="#1D1D1B" stroke-width="5.17"/>
<path d="M158.857 791.363C163.028 801.189 143.518 806.797 147.689 794.144" stroke="#1D1D1B" stroke-width="5.17" stroke-linecap="round" stroke-linejoin="round"/>
<path d="M129.524 822.188C130.915 837.622 123.918 839.013 111.584 839.013L129.524 822.188Z" stroke="#1D1D1B" stroke-width="5.17"/>
<path d="M129.524 822.188C130.915 837.622 123.918 839.013 111.584 839.013" stroke="#1D1D1B" stroke-width="5.17" stroke-linecap="round" stroke-linejoin="round"/>
<path d="M146.301 853.01C139.304 843.229 135.088 862.837 122.53 867.054C108.581 869.836 118.358 889.488 125.31 896.488" stroke="#1D1D1B" stroke-width="5.17"/>
<path d="M146.301 853.01C139.304 843.229 135.088 862.837 122.53 867.054C108.581 869.836 118.358 889.488 125.31 896.488" stroke="#1D1D1B" stroke-width="5.17" stroke-linecap="round" stroke-linejoin="round"/>
<path d="M130.916 899.272C135.132 897.881 137.912 892.273 142.129 888.055L130.916 899.272Z" stroke="#1D1D1B" stroke-width="5.17"/>
<path d="M130.916 899.272C135.132 897.881 137.912 892.273 142.129 888.055" stroke="#1D1D1B" stroke-width="5.17" stroke-linecap="round" stroke-linejoin="round"/>
<path d="M179.848 858.621C174.242 872.665 161.639 865.621 165.855 854.449L179.848 858.621Z" stroke="#1D1D1B" stroke-width="5.17"/>
<path d="M179.848 858.621C174.242 872.665 161.639 865.621 165.855 854.449" stroke="#1D1D1B" stroke-width="5.17" stroke-linecap="round" stroke-linejoin="round"/>
<path d="M167.246 907.66C164.465 909.096 163.075 910.487 158.859 920.313L167.246 907.66Z" stroke="#1D1D1B" stroke-width="5.17"/>
<path d="M167.246 907.66C164.465 909.096 163.075 910.487 158.859 920.313" stroke="#1D1D1B" stroke-width="5.17" stroke-linecap="round" stroke-linejoin="round"/>
<path d="M164.465 920.314C137.913 916.097 143.519 951.094 143.519 948.312" stroke="#1D1D1B" stroke-width="5.17"/>
<path d="M164.465 920.314C137.913 916.097 143.519 951.094 143.519 948.312" stroke="#1D1D1B" stroke-width="5.17" stroke-linecap="round" stroke-linejoin="round"/>
<path d="M158.859 955.312C164.465 953.921 170.027 949.748 170.027 945.531L158.859 955.312Z" stroke="#1D1D1B" stroke-width="5.17"/>
<path d="M158.859 955.312C164.465 953.921 170.027 949.748 170.027 945.531" stroke="#1D1D1B" stroke-width="5.17" stroke-linecap="round" stroke-linejoin="round"/>
<path d="M200.796 918.879C203.577 925.923 186.802 931.532 191.018 921.706L200.796 918.879Z" stroke="#1D1D1B" stroke-width="5.17"/>
<path d="M200.796 918.879C203.577 925.923 186.802 931.532 191.018 921.706" stroke="#1D1D1B" stroke-width="5.17" stroke-linecap="round" stroke-linejoin="round"/>
<path d="M172.894 991.789C168.678 987.569 172.894 983.359 188.234 976.359" stroke="#1D1D1B" stroke-width="5.17"/>
<path d="M172.894 991.789C168.678 987.569 172.894 983.359 188.234 976.359" stroke="#1D1D1B" stroke-width="5.17" stroke-linecap="round" stroke-linejoin="round"/>
<path d="M210.573 981.957C204.966 988.957 225.957 990.347 221.741 981.957H210.573Z" stroke="#1D1D1B" stroke-width="5.17"/>
<path d="M210.573 981.957C204.966 988.957 225.957 990.347 221.741 981.957" stroke="#1D1D1B" stroke-width="5.17" stroke-linecap="round" stroke-linejoin="round"/>
<path d="M146.298 1336.51C174.241 1325.29 172.85 1347.73 182.628 1347.73L200.883 1339.6L209.046 1343.14L217.416 1350.47L227.662 1341.25C230.443 1352.47 234.476 1337.81 249.816 1350.47C265.2 1364.46 274.977 1381.29 284.755 1353.25C291.752 1329.42 314.133 1336.42 311.307 1318.2C311.307 1311.21 274.977 1301.38 259.593 1285.99C254.032 1280.38 247.035 1291.55 240.038 1291.55C230.26 1290.16 242.819 1276.16 230.26 1277.55C230.26 1270.56 249.816 1262.12 254.032 1262.12C273.587 1259.34 249.816 1278.99 258.203 1278.99C280.629 1281.77 298.569 1292.99 320.995 1292.99C330.773 1292.99 322.385 1270.55 332.163 1252.34C347.547 1221.51 304.221 1228.51 288.881 1224.3C258.113 1215.91 270.716 1228.51 258.113 1228.51C242.729 1227.12 253.942 1217.3 242.729 1214.51C244.164 1204.69 248.336 1190.69 258.113 1190.69C276.278 1190.69 262.329 1213.12 267.891 1213.12C293.277 1210.34 339.384 1227.17 335.168 1208.95C329.607 1182.3 344.99 1159.91 333.777 1152.87C326.826 1148.69 294.667 1155.69 275.112 1150.08C265.334 1147.26 266.725 1157.08 261.118 1159.91C256.947 1152.87 254.166 1147.26 244.389 1145.87C248.56 1134.65 242.953 1130.43 258.337 1126.26C276.502 1120.65 263.944 1145.87 272.331 1141.69C300.274 1129.04 339.384 1140.26 330.997 1124.87C319.829 1103.83 330.997 1073 318.438 1078.61C304.445 1084.22 269.505 1078.61 258.337 1089.83C242.864 1105.26 247.08 1088.44 235.912 1085.61C234.521 1063.17 254.077 1059 255.467 1070.22C256.723 1080 290.272 1068.78 295.833 1068.78C298.659 1067.39 323.776 1061.78 314.043 1056.18C303.996 1049.18 307.046 993.089 286.056 1015.53C280.36 1022.57 244.03 1023.96 241.204 1028.18C231.427 1050.57 223.039 1023.96 216.042 1023.96C200.703 1022.61 192.316 1035.22 188.1 1046.39C186.71 1050.61 190.926 1057.61 193.706 1057.61C199.313 1056.22 200.703 1061.83 200.703 1064.66C189.49 1073.05 193.662 1077.26 178.277 1073.05C161.503 1070.26 147.554 1094.09 158.722 1108.09C178.277 1134.69 183.884 1092.65 207.655 1105.31C206.863 1107.12 206.575 1109.12 206.819 1111.08C207.064 1113.05 207.833 1114.91 209.046 1116.48C206.22 1124.91 192.361 1130.48 171.325 1129.09C150.29 1127.7 160.113 1169.74 172.716 1168.35C193.572 1165.56 190.881 1147.3 215.998 1157.13C214.106 1158.88 212.721 1161.11 211.987 1163.58C211.253 1166.05 211.197 1168.67 211.826 1171.17C200.658 1172.56 188.055 1178.17 176.887 1176.78C161.503 1175.35 151.725 1210.39 164.329 1216C182.493 1224.39 200.658 1202 215.998 1218.78C210.436 1222.99 206.22 1229.99 209.046 1237.04C200.883 1237.04 199.492 1238.43 191.105 1235.65C154.775 1225.82 151.95 1267.86 158.946 1276.25C170.114 1290.25 188.279 1267.86 200.883 1284.64C199.112 1286.17 197.789 1288.15 197.054 1290.37C196.319 1292.59 196.201 1294.97 196.711 1297.25C182.628 1302.86 174.286 1290.25 151.86 1298.69C133.695 1305.69 132.305 1340.73 146.298 1336.51Z" fill="#B7C8BD" stroke="#1D1D1B" stroke-width="5.17" stroke-linecap="round" stroke-linejoin="round"/>
<path d="M224.567 1056.22C207.792 1049.22 204.967 1080.05 227.348 1073.05L224.567 1056.22Z" stroke="#1D1D1B" stroke-width="5.17"/>
<path d="M224.567 1056.22C207.792 1049.22 204.967 1080.05 227.348 1073.05" stroke="#1D1D1B" stroke-width="5.17" stroke-linecap="round" stroke-linejoin="round"/>
<path d="M200.794 1064.66C202.184 1067.44 202.184 1067.44 204.965 1067.44L200.794 1064.66Z" stroke="#1D1D1B" stroke-width="5.17"/>
<path d="M200.794 1064.66C202.184 1067.44 202.184 1067.44 204.965 1067.44" stroke="#1D1D1B" stroke-width="5.17" stroke-linecap="round" stroke-linejoin="round"/>
<path d="M235.688 1085.65C225.91 1082.87 209.135 1092.65 207.745 1105.31" stroke="#1D1D1B" stroke-width="5.17"/>
<path d="M235.688 1085.65C225.91 1082.87 209.135 1092.65 207.745 1105.31" stroke="#1D1D1B" stroke-width="5.17" stroke-linecap="round" stroke-linejoin="round"/>
<path d="M209.181 1116.48C211.198 1118.69 213.543 1120.58 216.133 1122.09L209.181 1116.48Z" stroke="#1D1D1B" stroke-width="5.17"/>
<path d="M209.181 1116.48C211.198 1118.69 213.543 1120.58 216.133 1122.09" stroke="#1D1D1B" stroke-width="5.17" stroke-linecap="round" stroke-linejoin="round"/>
<path d="M235.691 1108.09C220.307 1101.09 216.091 1131.91 234.301 1126.3L235.691 1108.09Z" stroke="#1D1D1B" stroke-width="5.17"/>
<path d="M235.691 1108.09C220.307 1101.09 216.091 1131.91 234.301 1126.3" stroke="#1D1D1B" stroke-width="5.17" stroke-linecap="round" stroke-linejoin="round"/>
<path d="M244.121 1145.91C238.871 1144.87 233.433 1145.38 228.466 1147.37C223.499 1149.36 219.215 1152.75 216.133 1157.13" stroke="#1D1D1B" stroke-width="5.17"/>
<path d="M244.121 1145.91C238.871 1144.87 233.433 1145.38 228.466 1147.37C223.499 1149.36 219.215 1152.75 216.133 1157.13" stroke="#1D1D1B" stroke-width="5.17" stroke-linecap="round" stroke-linejoin="round"/>
<path d="M211.961 1171.17C211.911 1173.01 212.258 1174.83 212.978 1176.52C213.698 1178.21 214.774 1179.72 216.133 1180.95L211.961 1171.17Z" stroke="#1D1D1B" stroke-width="5.17"/>
<path d="M211.961 1171.17C211.911 1173.01 212.258 1174.83 212.978 1176.52C213.698 1178.21 214.774 1179.72 216.133 1180.95" stroke="#1D1D1B" stroke-width="5.17" stroke-linecap="round" stroke-linejoin="round"/>
<path d="M241.297 1169.56C225.958 1152.73 214.745 1191.99 237.126 1189.16L241.297 1169.56Z" stroke="#1D1D1B" stroke-width="5.17"/>
<path d="M241.297 1169.56C225.958 1152.73 214.745 1191.99 237.126 1189.16" stroke="#1D1D1B" stroke-width="5.17" stroke-linecap="round" stroke-linejoin="round"/>
<path d="M242.688 1214.43C238.245 1212.99 233.525 1212.62 228.913 1213.34C224.301 1214.07 219.923 1215.87 216.134 1218.6" stroke="#1D1D1B" stroke-width="5.17" stroke-linecap="round" stroke-linejoin="round"/>
<path d="M209.18 1236.99L211.961 1242.6" stroke="#1D1D1B" stroke-width="5.17"/>
<path d="M209.18 1236.99L211.961 1242.6" stroke="#1D1D1B" stroke-width="5.17" stroke-linecap="round" stroke-linejoin="round"/>
<path d="M238.512 1229.99C220.572 1229.99 221.738 1263.65 242.684 1251.04L238.512 1229.99Z" stroke="#1D1D1B" stroke-width="5.17"/>
<path d="M238.512 1229.99C220.572 1229.99 221.738 1263.65 242.684 1251.04" stroke="#1D1D1B" stroke-width="5.17" stroke-linecap="round" stroke-linejoin="round"/>
<path d="M230.125 1277.64C220.348 1277.64 207.7 1279.03 200.793 1284.64" stroke="#1D1D1B" stroke-width="5.17" stroke-linecap="round" stroke-linejoin="round"/>
<path d="M196.622 1297.25L198.012 1305.64" stroke="#1D1D1B" stroke-width="5.17"/>
<path d="M196.622 1297.25L198.012 1305.64" stroke="#1D1D1B" stroke-width="5.17" stroke-linecap="round" stroke-linejoin="round"/>
<path d="M231.516 1301.47C217.567 1291.64 203.574 1325.29 224.564 1322.51L231.516 1301.47Z" stroke="#1D1D1B" stroke-width="5.17"/>
<path d="M231.516 1301.47C217.567 1291.64 203.574 1325.29 224.564 1322.51" stroke="#1D1D1B" stroke-width="5.17" stroke-linecap="round" stroke-linejoin="round"/>
<path d="M251.118 1402.38C262.331 1399.6 258.114 1391.16 258.114 1391.16L227.615 1340.73C225.212 1340.57 222.841 1341.36 221.012 1342.92C219.184 1344.49 218.044 1346.72 217.838 1349.12C213.622 1346.34 210.841 1343.51 206.625 1340.73C187.07 1330.9 172.897 1368.73 154.956 1356.12C132.575 1339.34 135.401 1371.55 122.797 1375.77C108.849 1381.38 85.2925 1395.99 88.0735 1415.59C90.8545 1432.42 70.5185 1416.2 69.1275 1452.64C67.6925 1491.9 55.7435 1464.03 68.3025 1503.29C76.6895 1529.89 61.3505 1541.11 87.8575 1546.72L104.632 1548.15C110.239 1539.72 104.632 1520.11 110.239 1506.07C118.402 1479.46 103.018 1480.85 128.18 1465.46C154.732 1448.64 147.735 1464.03 174.287 1451.42C198.238 1440.2 189.671 1457.03 216.178 1445.81C245.556 1433.2 219.004 1409.38 251.118 1402.38Z" fill="#95A5DC" stroke="#1D1D1B" stroke-width="5.17"/>
<path d="M231.517 1410.77C241.295 1393.99 223.13 1382.77 207.791 1385.55C179.849 1389.77 207.791 1410.77 184.02 1412.2C171.461 1410.77 182.629 1431.81 149.08 1419.2C123.919 1410.77 112.751 1448.64 112.751 1466.85" stroke="#1D1D1B" stroke-width="5.17" stroke-linecap="round" stroke-linejoin="round"/>
<path d="M168.934 1357.77L171.129 1368C172.986 1376.66 178.146 1384.25 185.513 1389.16L192.538 1393.84" stroke="#1D1D1B" stroke-width="5" stroke-linecap="round" stroke-dasharray="10 10"/>
<path d="M127.117 1372.94L129.364 1383.41C131.19 1391.93 136.215 1399.42 143.402 1404.34L166.908 1420.43" stroke="#1D1D1B" stroke-width="5" stroke-linecap="round" stroke-dasharray="10 10"/>
<path d="M88.2773 1421.77L100.404 1429C101.962 1429.93 103.592 1430.73 105.278 1431.4L120.603 1437.47" stroke="#1D1D1B" stroke-width="5" stroke-linecap="round" stroke-dasharray="10 10"/>
<path d="M66.1406 1476.9L76.7189 1482.8C82.7713 1486.18 89.7114 1487.63 96.6095 1486.95L111.365 1485.5" stroke="#1D1D1B" stroke-width="5" stroke-linecap="round" stroke-dasharray="10 10"/>
<path d="M87.6781 1546.72C89.1141 1548.15 103.062 1550.94 104.453 1548.15L87.6781 1546.72Z" stroke="#1D1D1B" stroke-width="5.17"/>
<path d="M87.6781 1546.72C89.1141 1548.15 103.062 1550.94 104.453 1548.15" stroke="#1D1D1B" stroke-width="5.17" stroke-linecap="round" stroke-linejoin="round"/>
<path d="M89.024 1494.9C90.206 1492.68 90.702 1490.16 90.446 1487.65C90.19 1485.15 89.196 1482.79 87.588 1480.85" stroke="#1D1D1B" stroke-width="5.17" stroke-linecap="round" stroke-linejoin="round"/>
<path d="M99.4154 1439.85C106.367 1439.85 111.973 1420.2 102.195 1424.42" stroke="#1D1D1B" stroke-width="5.17" stroke-linecap="round" stroke-linejoin="round"/>
<path d="M137.53 1384.1C143.932 1378.75 139.464 1392.51 139.464 1392.51C139.464 1392.51 137.112 1399.92 133.252 1402.28C129.619 1404.49 129.502 1399.75 131.306 1394.36" stroke="#1D1D1B" stroke-width="5.17"/>
<path d="M172.897 1385.55C174.288 1403.77 182.675 1370.16 175.678 1371.55" stroke="#1D1D1B" stroke-width="5.17" stroke-linecap="round" stroke-linejoin="round"/>
<line y1="-0.5" x2="42.5093" y2="-0.5" transform="matrix(0.914323 -0.404986 0.447136 0.894466 315.539 102.266)" stroke="black"/>
<line x1="305.163" y1="279.452" x2="354.36" y2="274.724" stroke="black"/>
<line y1="-0.5" x2="40.4671" y2="-0.5" transform="matrix(0.985175 -0.171551 0.192835 0.981231 315.539 187.766)" stroke="black"/>
<line x1="280.469" y1="359.236" x2="351.66" y2="364.841" stroke="black"/>
<line y1="-0.5" x2="40.837" y2="-0.5" transform="matrix(0.976252 -0.216638 0.242939 0.970042 315.539 145.102)" stroke="black"/>
<line x1="292.689" y1="319.691" x2="351.613" y2="319" stroke="black"/>
<line y1="-0.5" x2="39.0574" y2="-0.5" transform="matrix(0.99513 -0.098568 0.111095 0.99381 315.539 232.113)" stroke="black"/>
<path d="M263.094 406.69L347.328 431.6L347.386 430.602L263.152 405.691L263.094 406.69Z" fill="black"/>
<path d="M246.844 439.596L347.328 482.725L347.552 481.75L247.068 438.621L246.844 439.596Z" fill="black"/>
<path d="M347.326 535.057L230.082 487.272L230.313 486.299L347.557 534.084L347.326 535.057Z" fill="black"/>
<path d="M217.625 533.506L347.324 581.717L347.537 580.74L217.838 532.529L217.625 533.506Z" fill="black"/>
<path d="M347.328 633.041L205.953 575.526L206.21 574.559L347.585 632.075L347.328 633.041Z" fill="black"/>
<path d="M225.949 790.709L347.326 827.061L347.46 826.07L226.083 789.718L225.949 790.709Z" fill="black"/>
<path d="M347.326 682.08L201.332 631.405L201.538 630.426L347.532 681.102L347.326 682.08Z" fill="black"/>
<path d="M244.121 854.448L347.326 876.1L347.342 875.1L244.137 853.448L244.121 854.448Z" fill="black"/>
<path d="M347.328 729.412L205.953 680.69L206.152 679.71L347.527 728.432L347.328 729.412Z" fill="black"/>
<path d="M265.562 913.987L347.326 923.432L347.198 922.44L265.434 912.995L265.562 913.987Z" fill="black"/>
<path d="M347.326 780.737L214.102 738.498L214.266 737.512L347.491 779.75L347.326 780.737Z" fill="black"/>
<path d="M292.695 965.709L347.326 974.756L347.13 973.776L292.499 964.729L292.695 965.709Z" fill="black"/>
<path d="M375.25 86.0414C373.034 86.0414 370.992 85.5164 369.125 84.4664C367.282 83.3931 365.812 81.8997 364.715 79.9864C363.619 78.0731 363.07 75.8914 363.07 73.4414C363.07 70.9914 363.619 68.8097 364.715 66.8964C365.812 64.9831 367.282 63.5014 369.125 62.4514C370.992 61.3781 373.034 60.8414 375.25 60.8414C378.144 60.8414 380.559 61.6114 382.495 63.1514C384.432 64.6914 385.657 66.7331 386.17 69.2764H382.81C382.32 67.5964 381.41 66.2897 380.08 65.3564C378.75 64.3997 377.129 63.9214 375.215 63.9214C373.465 63.9214 371.925 64.3297 370.595 65.1464C369.289 65.9631 368.274 67.0947 367.55 68.5414C366.85 69.9881 366.5 71.6214 366.5 73.4414C366.5 75.2614 366.85 76.8947 367.55 78.3414C368.274 79.7881 369.289 80.9197 370.595 81.7364C371.925 82.5531 373.465 82.9614 375.215 82.9614C377.129 82.9614 378.75 82.4947 380.08 81.5614C381.41 80.6047 382.32 79.2864 382.81 77.6064H386.17C385.82 79.2864 385.155 80.7681 384.175 82.0514C383.195 83.3114 381.935 84.2914 380.395 84.9914C378.879 85.6914 377.164 86.0414 375.25 86.0414ZM391.342 82.6114H396.767V65.8814C396.207 66.3714 395.577 66.7097 394.877 66.8964C394.2 67.0597 393.267 67.1414 392.077 67.1414V64.3414H392.637C393.897 64.3414 394.865 64.0964 395.542 63.6064C396.219 63.0931 396.627 62.2881 396.767 61.1914H400.127V82.6114H405.552V85.6914H391.342V82.6114Z" fill="black"/>
<path d="M374.25 282.041C372.034 282.041 369.992 281.516 368.125 280.466C366.282 279.393 364.812 277.9 363.715 275.986C362.619 274.073 362.07 271.891 362.07 269.441C362.07 266.991 362.619 264.81 363.715 262.896C364.812 260.983 366.282 259.501 368.125 258.451C369.992 257.378 372.034 256.841 374.25 256.841C377.144 256.841 379.559 257.611 381.495 259.151C383.432 260.691 384.657 262.733 385.17 265.276H381.81C381.32 263.596 380.41 262.29 379.08 261.356C377.75 260.4 376.129 259.921 374.215 259.921C372.465 259.921 370.925 260.33 369.595 261.146C368.289 261.963 367.274 263.095 366.55 264.541C365.85 265.988 365.5 267.621 365.5 269.441C365.5 271.261 365.85 272.895 366.55 274.341C367.274 275.788 368.289 276.92 369.595 277.736C370.925 278.553 372.465 278.961 374.215 278.961C376.129 278.961 377.75 278.495 379.08 277.561C380.41 276.605 381.32 275.286 381.81 273.606H385.17C384.82 275.286 384.155 276.768 383.175 278.051C382.195 279.311 380.935 280.291 379.395 280.991C377.879 281.691 376.164 282.041 374.25 282.041ZM397.307 282.041C395.697 282.041 394.239 281.703 392.932 281.026C391.625 280.35 390.575 279.405 389.782 278.191C389.012 276.978 388.58 275.59 388.487 274.026H391.847C392.01 275.403 392.559 276.57 393.492 277.526C394.425 278.483 395.697 278.961 397.307 278.961C399.034 278.961 400.399 278.436 401.402 277.386C402.429 276.336 402.942 274.878 402.942 273.011C402.942 271.168 402.429 269.745 401.402 268.741C400.399 267.715 399.127 267.201 397.587 267.201C396.21 267.201 395.055 267.4 394.122 267.796C393.212 268.17 392.36 268.636 391.567 269.196L389.152 268.041L390.692 257.191H404.482V260.271H393.247L392.232 266.116C392.979 265.603 393.865 265.183 394.892 264.856C395.919 264.53 396.969 264.366 398.042 264.366C400.585 264.366 402.604 265.136 404.097 266.676C405.614 268.193 406.372 270.27 406.372 272.906C406.372 274.54 406.01 276.056 405.287 277.456C404.564 278.833 403.514 279.941 402.137 280.781C400.76 281.621 399.15 282.041 397.307 282.041Z" fill="black"/>
<path d="M367.81 623.271H361.58V620.191H377.4V623.271H371.17V644.691H367.81V623.271ZM380.985 619.141H384.065V629.466C384.741 628.743 385.651 628.125 386.795 627.611C387.938 627.098 389.14 626.841 390.4 626.841C392.266 626.841 393.725 627.366 394.775 628.416C395.848 629.443 396.385 630.843 396.385 632.616V644.691H393.305V633.176C393.305 632.033 392.966 631.146 392.29 630.516C391.613 629.886 390.691 629.571 389.525 629.571C388.521 629.571 387.53 629.863 386.55 630.446C385.57 631.03 384.741 631.788 384.065 632.721V644.691H380.985V619.141ZM408.962 645.041C407.352 645.041 405.894 644.703 404.587 644.026C403.281 643.35 402.231 642.405 401.437 641.191C400.667 639.978 400.236 638.59 400.142 637.026H403.502C403.666 638.403 404.214 639.57 405.147 640.526C406.081 641.483 407.352 641.961 408.962 641.961C410.689 641.961 412.054 641.436 413.057 640.386C414.084 639.336 414.597 637.878 414.597 636.011C414.597 634.168 414.084 632.745 413.057 631.741C412.054 630.715 410.782 630.201 409.242 630.201C407.866 630.201 406.711 630.4 405.777 630.796C404.867 631.17 404.016 631.636 403.222 632.196L400.807 631.041L402.347 620.191H416.137V623.271H404.902L403.887 629.116C404.634 628.603 405.521 628.183 406.547 627.856C407.574 627.53 408.624 627.366 409.697 627.366C412.241 627.366 414.259 628.136 415.752 629.676C417.269 631.193 418.027 633.27 418.027 635.906C418.027 637.54 417.666 639.056 416.942 640.456C416.219 641.833 415.169 642.941 413.792 643.781C412.416 644.621 410.806 645.041 408.962 645.041Z" fill="black"/>
<path d="M367.81 817.291H361.58V814.211H377.4V817.291H371.17V838.711H367.81V817.291ZM380.985 813.161H384.065V823.486C384.741 822.763 385.651 822.144 386.795 821.631C387.938 821.118 389.14 820.861 390.4 820.861C392.266 820.861 393.725 821.386 394.775 822.436C395.848 823.463 396.385 824.863 396.385 826.636V838.711H393.305V827.196C393.305 826.053 392.966 825.166 392.29 824.536C391.613 823.906 390.691 823.591 389.525 823.591C388.521 823.591 387.53 823.883 386.55 824.466C385.57 825.049 384.741 825.808 384.065 826.741V838.711H380.985V813.161ZM409.102 813.861C410.362 813.861 411.611 814.176 412.847 814.806C414.084 815.413 415.099 816.253 415.892 817.326C416.616 818.329 417.141 819.508 417.467 820.861C417.817 822.214 417.992 823.778 417.992 825.551C417.992 828.258 417.619 830.626 416.872 832.656C416.126 834.686 415.041 836.261 413.617 837.381C412.194 838.501 410.491 839.061 408.507 839.061C406.431 839.061 404.727 838.489 403.397 837.346C402.067 836.179 401.286 834.628 401.052 832.691H404.307C404.657 833.904 405.171 834.756 405.847 835.246C406.524 835.736 407.446 835.981 408.612 835.981C409.709 835.981 410.689 835.666 411.552 835.036C412.416 834.383 413.104 833.449 413.617 832.236C414.131 831.023 414.387 829.588 414.387 827.931C413.571 828.888 412.626 829.599 411.552 830.066C410.502 830.533 409.359 830.766 408.122 830.766C406.652 830.766 405.311 830.416 404.097 829.716C402.884 828.993 401.927 828.001 401.227 826.741C400.551 825.458 400.212 824.023 400.212 822.436C400.212 820.826 400.586 819.368 401.332 818.061C402.079 816.754 403.129 815.728 404.482 814.981C405.836 814.234 407.376 813.861 409.102 813.861ZM408.927 816.941C407.854 816.941 406.921 817.198 406.127 817.711C405.334 818.224 404.716 818.901 404.272 819.741C403.852 820.558 403.642 821.433 403.642 822.366C403.642 823.299 403.852 824.186 404.272 825.026C404.716 825.843 405.334 826.508 406.127 827.021C406.921 827.534 407.854 827.791 408.927 827.791C410.001 827.791 410.934 827.534 411.727 827.021C412.521 826.508 413.127 825.843 413.547 825.026C413.991 824.186 414.212 823.299 414.212 822.366C414.212 820.826 413.734 819.543 412.777 818.516C411.821 817.466 410.537 816.941 408.927 816.941Z" fill="black"/>
<path d="M375.25 184.041C373.034 184.041 370.992 183.516 369.125 182.466C367.282 181.393 365.812 179.9 364.715 177.986C363.619 176.073 363.07 173.891 363.07 171.441C363.07 168.991 363.619 166.81 364.715 164.896C365.812 162.983 367.282 161.501 369.125 160.451C370.992 159.378 373.034 158.841 375.25 158.841C378.144 158.841 380.559 159.611 382.495 161.151C384.432 162.691 385.657 164.733 386.17 167.276H382.81C382.32 165.596 381.41 164.29 380.08 163.356C378.75 162.4 377.129 161.921 375.215 161.921C373.465 161.921 371.925 162.33 370.595 163.146C369.289 163.963 368.274 165.095 367.55 166.541C366.85 167.988 366.5 169.621 366.5 171.441C366.5 173.261 366.85 174.895 367.55 176.341C368.274 177.788 369.289 178.92 370.595 179.736C371.925 180.553 373.465 180.961 375.215 180.961C377.129 180.961 378.75 180.495 380.08 179.561C381.41 178.605 382.32 177.286 382.81 175.606H386.17C385.82 177.286 385.155 178.768 384.175 180.051C383.195 181.311 381.935 182.291 380.395 182.991C378.879 183.691 377.164 184.041 375.25 184.041ZM398.622 184.041C396.802 184.041 395.215 183.645 393.862 182.851C392.532 182.058 391.494 181.008 390.747 179.701C390 178.371 389.58 176.913 389.487 175.326H392.637C392.754 177.006 393.325 178.371 394.352 179.421C395.402 180.448 396.802 180.961 398.552 180.961C400.232 180.961 401.55 180.46 402.507 179.456C403.487 178.43 403.977 177.018 403.977 175.221C403.977 173.471 403.394 172.13 402.227 171.196C401.06 170.24 399.625 169.761 397.922 169.761H397.152V166.716L402.052 162.271H390.572V159.191H406.252V162.376L400.687 167.171C402.6 167.638 404.199 168.536 405.482 169.866C406.765 171.173 407.407 172.958 407.407 175.221C407.407 176.855 407.022 178.348 406.252 179.701C405.482 181.055 404.42 182.116 403.067 182.886C401.737 183.656 400.255 184.041 398.622 184.041Z" fill="black"/>
<path d="M368.81 525.271H362.58V522.191H378.4V525.271H372.17V546.691H368.81V525.271ZM381.985 521.141H385.065V531.466C385.741 530.743 386.651 530.125 387.795 529.611C388.938 529.098 390.14 528.841 391.4 528.841C393.266 528.841 394.725 529.366 395.775 530.416C396.848 531.443 397.385 532.843 397.385 534.616V546.691H394.305V535.176C394.305 534.033 393.966 533.146 393.29 532.516C392.613 531.886 391.691 531.571 390.525 531.571C389.521 531.571 388.53 531.863 387.55 532.446C386.57 533.03 385.741 533.788 385.065 534.721V546.691H381.985V521.141ZM410.277 547.041C408.457 547.041 406.871 546.645 405.517 545.851C404.187 545.058 403.149 544.008 402.402 542.701C401.656 541.371 401.236 539.913 401.142 538.326H404.292C404.409 540.006 404.981 541.371 406.007 542.421C407.057 543.448 408.457 543.961 410.207 543.961C411.887 543.961 413.206 543.46 414.162 542.456C415.142 541.43 415.632 540.018 415.632 538.221C415.632 536.471 415.049 535.13 413.882 534.196C412.716 533.24 411.281 532.761 409.577 532.761H408.807V529.716L413.707 525.271H402.227V522.191H417.907V525.376L412.342 530.171C414.256 530.638 415.854 531.536 417.137 532.866C418.421 534.173 419.062 535.958 419.062 538.221C419.062 539.855 418.677 541.348 417.907 542.701C417.137 544.055 416.076 545.116 414.722 545.886C413.392 546.656 411.911 547.041 410.277 547.041Z" fill="black"/>
<path d="M374.25 380.041C372.034 380.041 369.992 379.516 368.125 378.466C366.282 377.393 364.812 375.9 363.715 373.986C362.619 372.073 362.07 369.891 362.07 367.441C362.07 364.991 362.619 362.81 363.715 360.896C364.812 358.983 366.282 357.501 368.125 356.451C369.992 355.378 372.034 354.841 374.25 354.841C377.144 354.841 379.559 355.611 381.495 357.151C383.432 358.691 384.657 360.733 385.17 363.276H381.81C381.32 361.596 380.41 360.29 379.08 359.356C377.75 358.4 376.129 357.921 374.215 357.921C372.465 357.921 370.925 358.33 369.595 359.146C368.289 359.963 367.274 361.095 366.55 362.541C365.85 363.988 365.5 365.621 365.5 367.441C365.5 369.261 365.85 370.895 366.55 372.341C367.274 373.788 368.289 374.92 369.595 375.736C370.925 376.553 372.465 376.961 374.215 376.961C376.129 376.961 377.75 376.495 379.08 375.561C380.41 374.605 381.32 373.286 381.81 371.606H385.17C384.82 373.286 384.155 374.768 383.175 376.051C382.195 377.311 380.935 378.291 379.395 378.991C377.879 379.691 376.164 380.041 374.25 380.041ZM401.892 358.271H389.537V355.191H405.357V357.851L395.977 379.691H392.722L401.892 358.271Z" fill="black"/>
<path d="M367.81 721.271H361.58V718.191H377.4V721.271H371.17V742.691H367.81V721.271ZM380.985 717.141H384.065V727.466C384.741 726.743 385.651 726.125 386.795 725.611C387.938 725.098 389.14 724.841 390.4 724.841C392.266 724.841 393.725 725.366 394.775 726.416C395.848 727.443 396.385 728.843 396.385 730.616V742.691H393.305V731.176C393.305 730.033 392.966 729.146 392.29 728.516C391.613 727.886 390.691 727.571 389.525 727.571C388.521 727.571 387.53 727.863 386.55 728.446C385.57 729.03 384.741 729.788 384.065 730.721V742.691H380.985V717.141ZM413.547 721.271H401.192V718.191H417.012V720.851L407.632 742.691H404.377L413.547 721.271Z" fill="black"/>
<path d="M367.81 915.291H361.58V912.211H377.4V915.291H371.17V936.711H367.81V915.291ZM380.985 911.161H384.065V921.486C384.741 920.763 385.651 920.144 386.795 919.631C387.938 919.118 389.14 918.861 390.4 918.861C392.266 918.861 393.725 919.386 394.775 920.436C395.848 921.463 396.385 922.863 396.385 924.636V936.711H393.305V925.196C393.305 924.053 392.966 923.166 392.29 922.536C391.613 921.906 390.691 921.591 389.525 921.591C388.521 921.591 387.53 921.883 386.55 922.466C385.57 923.049 384.741 923.808 384.065 924.741V936.711H380.985V911.161ZM401.997 933.631H407.422V916.901C406.862 917.391 406.232 917.729 405.532 917.916C404.856 918.079 403.922 918.161 402.732 918.161V915.361H403.292C404.552 915.361 405.521 915.116 406.197 914.626C406.874 914.113 407.282 913.308 407.422 912.211H410.782V933.631H416.207V936.711H401.997V933.631ZM423.052 933.631H428.477V916.901C427.917 917.391 427.287 917.729 426.587 917.916C425.91 918.079 424.977 918.161 423.787 918.161V915.361H424.347C425.607 915.361 426.575 915.116 427.252 914.626C427.929 914.113 428.337 913.308 428.477 912.211H431.837V933.631H437.262V936.711H423.052V933.631Z" fill="black"/>
<path d="M375.25 135.041C373.034 135.041 370.992 134.516 369.125 133.466C367.282 132.393 365.812 130.9 364.715 128.986C363.619 127.073 363.07 124.891 363.07 122.441C363.07 119.991 363.619 117.81 364.715 115.896C365.812 113.983 367.282 112.501 369.125 111.451C370.992 110.378 373.034 109.841 375.25 109.841C378.144 109.841 380.559 110.611 382.495 112.151C384.432 113.691 385.657 115.733 386.17 118.276H382.81C382.32 116.596 381.41 115.29 380.08 114.356C378.75 113.4 377.129 112.921 375.215 112.921C373.465 112.921 371.925 113.33 370.595 114.146C369.289 114.963 368.274 116.095 367.55 117.541C366.85 118.988 366.5 120.621 366.5 122.441C366.5 124.261 366.85 125.895 367.55 127.341C368.274 128.788 369.289 129.92 370.595 130.736C371.925 131.553 373.465 131.961 375.215 131.961C377.129 131.961 378.75 131.495 380.08 130.561C381.41 129.605 382.32 128.286 382.81 126.606H386.17C385.82 128.286 385.155 129.768 384.175 131.051C383.195 132.311 381.935 133.291 380.395 133.991C378.879 134.691 377.164 135.041 375.25 135.041ZM390.012 131.821L400.127 122.721C401.154 121.788 401.924 120.913 402.437 120.096C402.95 119.256 403.207 118.265 403.207 117.121C403.207 115.815 402.764 114.788 401.877 114.041C401.014 113.295 399.882 112.921 398.482 112.921C397.059 112.921 395.88 113.353 394.947 114.216C394.037 115.08 393.547 116.27 393.477 117.786H390.257C390.327 116.27 390.724 114.905 391.447 113.691C392.194 112.478 393.162 111.533 394.352 110.856C395.565 110.18 396.895 109.841 398.342 109.841C399.905 109.841 401.294 110.133 402.507 110.716C403.744 111.3 404.7 112.128 405.377 113.201C406.077 114.275 406.427 115.523 406.427 116.946C406.427 118.463 406.077 119.828 405.377 121.041C404.7 122.231 403.685 123.421 402.332 124.611L394.387 131.611H406.917V134.691H390.012V131.821Z" fill="black"/>
<path d="M368.81 476.271H362.58V473.191H378.4V476.271H372.17V497.691H368.81V476.271ZM381.985 472.141H385.065V482.466C385.741 481.743 386.651 481.125 387.795 480.611C388.938 480.098 390.14 479.841 391.4 479.841C393.266 479.841 394.725 480.366 395.775 481.416C396.848 482.443 397.385 483.843 397.385 485.616V497.691H394.305V486.176C394.305 485.033 393.966 484.146 393.29 483.516C392.613 482.886 391.691 482.571 390.525 482.571C389.521 482.571 388.53 482.863 387.55 483.446C386.57 484.03 385.741 484.788 385.065 485.721V497.691H381.985V472.141ZM401.667 494.821L411.782 485.721C412.809 484.788 413.579 483.913 414.092 483.096C414.606 482.256 414.862 481.265 414.862 480.121C414.862 478.815 414.419 477.788 413.532 477.041C412.669 476.295 411.537 475.921 410.137 475.921C408.714 475.921 407.536 476.353 406.602 477.216C405.692 478.08 405.202 479.27 405.132 480.786H401.912C401.982 479.27 402.379 477.905 403.102 476.691C403.849 475.478 404.817 474.533 406.007 473.856C407.221 473.18 408.551 472.841 409.997 472.841C411.561 472.841 412.949 473.133 414.162 473.716C415.399 474.3 416.356 475.128 417.032 476.201C417.732 477.275 418.082 478.523 418.082 479.946C418.082 481.463 417.732 482.828 417.032 484.041C416.356 485.231 415.341 486.421 413.987 487.611L406.042 494.611H418.572V497.691H401.667V494.821Z" fill="black"/>
<path d="M374.25 331.041C372.034 331.041 369.992 330.516 368.125 329.466C366.282 328.393 364.812 326.9 363.715 324.986C362.619 323.073 362.07 320.891 362.07 318.441C362.07 315.991 362.619 313.81 363.715 311.896C364.812 309.983 366.282 308.501 368.125 307.451C369.992 306.378 372.034 305.841 374.25 305.841C377.144 305.841 379.559 306.611 381.495 308.151C383.432 309.691 384.657 311.733 385.17 314.276H381.81C381.32 312.596 380.41 311.29 379.08 310.356C377.75 309.4 376.129 308.921 374.215 308.921C372.465 308.921 370.925 309.33 369.595 310.146C368.289 310.963 367.274 312.095 366.55 313.541C365.85 314.988 365.5 316.621 365.5 318.441C365.5 320.261 365.85 321.895 366.55 323.341C367.274 324.788 368.289 325.92 369.595 326.736C370.925 327.553 372.465 327.961 374.215 327.961C376.129 327.961 377.75 327.495 379.08 326.561C380.41 325.605 381.32 324.286 381.81 322.606H385.17C384.82 324.286 384.155 325.768 383.175 327.051C382.195 328.311 380.935 329.291 379.395 329.991C377.879 330.691 376.164 331.041 374.25 331.041ZM397.587 331.041C396.327 331.041 395.079 330.738 393.842 330.131C392.605 329.501 391.59 328.65 390.797 327.576C390.074 326.573 389.537 325.395 389.187 324.041C388.86 322.688 388.697 321.125 388.697 319.351C388.697 316.645 389.07 314.276 389.817 312.246C390.564 310.216 391.649 308.641 393.072 307.521C394.495 306.401 396.199 305.841 398.182 305.841C400.259 305.841 401.962 306.425 403.292 307.591C404.622 308.735 405.404 310.275 405.637 312.211H402.382C402.032 310.998 401.519 310.146 400.842 309.656C400.165 309.166 399.244 308.921 398.077 308.921C396.98 308.921 395.989 309.248 395.102 309.901C394.239 310.555 393.55 311.511 393.037 312.771C392.547 314.008 392.302 315.466 392.302 317.146C393.119 316.166 394.029 315.478 395.032 315.081C396.059 314.685 397.237 314.486 398.567 314.486C400.06 314.486 401.402 314.813 402.592 315.466C403.805 316.12 404.75 317.053 405.427 318.266C406.127 319.48 406.477 320.88 406.477 322.466C406.477 324.076 406.104 325.535 405.357 326.841C404.61 328.148 403.56 329.175 402.207 329.921C400.854 330.668 399.314 331.041 397.587 331.041ZM397.762 327.961C398.835 327.961 399.769 327.705 400.562 327.191C401.355 326.678 401.962 326.013 402.382 325.196C402.825 324.356 403.047 323.47 403.047 322.536C403.047 321.603 402.825 320.728 402.382 319.911C401.962 319.071 401.355 318.395 400.562 317.881C399.769 317.368 398.835 317.111 397.762 317.111C396.689 317.111 395.755 317.368 394.962 317.881C394.169 318.395 393.55 319.071 393.107 319.911C392.687 320.728 392.477 321.603 392.477 322.536C392.477 324.076 392.955 325.371 393.912 326.421C394.869 327.448 396.152 327.961 397.762 327.961Z" fill="black"/>
<path d="M367.81 672.271H361.58V669.191H377.4V672.271H371.17V693.691H367.81V672.271ZM380.985 668.141H384.065V678.466C384.741 677.743 385.651 677.125 386.795 676.611C387.938 676.098 389.14 675.841 390.4 675.841C392.266 675.841 393.725 676.366 394.775 677.416C395.848 678.443 396.385 679.843 396.385 681.616V693.691H393.305V682.176C393.305 681.033 392.966 680.146 392.29 679.516C391.613 678.886 390.691 678.571 389.525 678.571C388.521 678.571 387.53 678.863 386.55 679.446C385.57 680.03 384.741 680.788 384.065 681.721V693.691H380.985V668.141ZM409.242 694.041C407.982 694.041 406.734 693.738 405.497 693.131C404.261 692.501 403.246 691.65 402.452 690.576C401.729 689.573 401.192 688.395 400.842 687.041C400.516 685.688 400.352 684.125 400.352 682.351C400.352 679.645 400.726 677.276 401.472 675.246C402.219 673.216 403.304 671.641 404.727 670.521C406.151 669.401 407.854 668.841 409.837 668.841C411.914 668.841 413.617 669.425 414.947 670.591C416.277 671.735 417.059 673.275 417.292 675.211H414.037C413.687 673.998 413.174 673.146 412.497 672.656C411.821 672.166 410.899 671.921 409.732 671.921C408.636 671.921 407.644 672.248 406.757 672.901C405.894 673.555 405.206 674.511 404.692 675.771C404.202 677.008 403.957 678.466 403.957 680.146C404.774 679.166 405.684 678.478 406.687 678.081C407.714 677.685 408.892 677.486 410.222 677.486C411.716 677.486 413.057 677.813 414.247 678.466C415.461 679.12 416.406 680.053 417.082 681.266C417.782 682.48 418.132 683.88 418.132 685.466C418.132 687.076 417.759 688.535 417.012 689.841C416.266 691.148 415.216 692.175 413.862 692.921C412.509 693.668 410.969 694.041 409.242 694.041ZM409.417 690.961C410.491 690.961 411.424 690.705 412.217 690.191C413.011 689.678 413.617 689.013 414.037 688.196C414.481 687.356 414.702 686.47 414.702 685.536C414.702 684.603 414.481 683.728 414.037 682.911C413.617 682.071 413.011 681.395 412.217 680.881C411.424 680.368 410.491 680.111 409.417 680.111C408.344 680.111 407.411 680.368 406.617 680.881C405.824 681.395 405.206 682.071 404.762 682.911C404.342 683.728 404.132 684.603 404.132 685.536C404.132 687.076 404.611 688.371 405.567 689.421C406.524 690.448 407.807 690.961 409.417 690.961Z" fill="black"/>
<path d="M367.81 866.291H361.58V863.211H377.4V866.291H371.17V887.711H367.81V866.291ZM380.985 862.161H384.065V872.486C384.741 871.763 385.651 871.144 386.795 870.631C387.938 870.118 389.14 869.861 390.4 869.861C392.266 869.861 393.725 870.386 394.775 871.436C395.848 872.463 396.385 873.863 396.385 875.636V887.711H393.305V876.196C393.305 875.053 392.966 874.166 392.29 873.536C391.613 872.906 390.691 872.591 389.525 872.591C388.521 872.591 387.53 872.883 386.55 873.466C385.57 874.049 384.741 874.808 384.065 875.741V887.711H380.985V862.161ZM401.997 884.631H407.422V867.901C406.862 868.391 406.232 868.729 405.532 868.916C404.856 869.079 403.922 869.161 402.732 869.161V866.361H403.292C404.552 866.361 405.521 866.116 406.197 865.626C406.874 865.113 407.282 864.308 407.422 863.211H410.782V884.631H416.207V887.711H401.997V884.631ZM430.157 888.061C428.22 888.061 426.529 887.524 425.082 886.451C423.635 885.354 422.527 883.849 421.757 881.936C420.987 880.023 420.602 877.864 420.602 875.461C420.602 873.058 420.987 870.899 421.757 868.986C422.527 867.073 423.635 865.579 425.082 864.506C426.529 863.409 428.22 862.861 430.157 862.861C432.094 862.861 433.785 863.409 435.232 864.506C436.679 865.579 437.787 867.073 438.557 868.986C439.327 870.899 439.712 873.058 439.712 875.461C439.712 877.864 439.327 880.023 438.557 881.936C437.787 883.849 436.679 885.354 435.232 886.451C433.785 887.524 432.094 888.061 430.157 888.061ZM430.157 884.981C432.14 884.981 433.657 884.118 434.707 882.391C435.757 880.664 436.282 878.354 436.282 875.461C436.282 872.568 435.757 870.258 434.707 868.531C433.657 866.804 432.14 865.941 430.157 865.941C428.174 865.941 426.657 866.804 425.607 868.531C424.557 870.258 424.032 872.568 424.032 875.461C424.032 878.354 424.557 880.664 425.607 882.391C426.657 884.118 428.174 884.981 430.157 884.981Z" fill="black"/>
<path d="M375.25 233.041C373.034 233.041 370.992 232.516 369.125 231.466C367.282 230.393 365.812 228.9 364.715 226.986C363.619 225.073 363.07 222.891 363.07 220.441C363.07 217.991 363.619 215.81 364.715 213.896C365.812 211.983 367.282 210.501 369.125 209.451C370.992 208.378 373.034 207.841 375.25 207.841C378.144 207.841 380.559 208.611 382.495 210.151C384.432 211.691 385.657 213.733 386.17 216.276H382.81C382.32 214.596 381.41 213.29 380.08 212.356C378.75 211.4 377.129 210.921 375.215 210.921C373.465 210.921 371.925 211.33 370.595 212.146C369.289 212.963 368.274 214.095 367.55 215.541C366.85 216.988 366.5 218.621 366.5 220.441C366.5 222.261 366.85 223.895 367.55 225.341C368.274 226.788 369.289 227.92 370.595 228.736C371.925 229.553 373.465 229.961 375.215 229.961C377.129 229.961 378.75 229.495 380.08 228.561C381.41 227.605 382.32 226.286 382.81 224.606H386.17C385.82 226.286 385.155 227.768 384.175 229.051C383.195 230.311 381.935 231.291 380.395 231.991C378.879 232.691 377.164 233.041 375.25 233.041ZM401.002 227.301H389.592V224.221L401.212 208.191H404.362V224.221H407.302V227.301H404.362V232.691H401.002V227.301ZM401.002 224.221V213.476L393.162 224.221H401.002Z" fill="black"/>
<path d="M368.81 574.271H362.58V571.191H378.4V574.271H372.17V595.691H368.81V574.271ZM381.985 570.141H385.065V580.466C385.741 579.743 386.651 579.125 387.795 578.611C388.938 578.098 390.14 577.841 391.4 577.841C393.266 577.841 394.725 578.366 395.775 579.416C396.848 580.443 397.385 581.843 397.385 583.616V595.691H394.305V584.176C394.305 583.033 393.966 582.146 393.29 581.516C392.613 580.886 391.691 580.571 390.525 580.571C389.521 580.571 388.53 580.863 387.55 581.446C386.57 582.03 385.741 582.788 385.065 583.721V595.691H381.985V570.141ZM412.657 590.301H401.247V587.221L412.867 571.191H416.017V587.221H418.957V590.301H416.017V595.691H412.657V590.301ZM412.657 587.221V576.476L404.817 587.221H412.657Z" fill="black"/>
<path d="M367.81 427.271H361.58V424.191H377.4V427.271H371.17V448.691H367.81V427.271ZM380.985 423.141H384.065V433.466C384.741 432.743 385.651 432.125 386.795 431.611C387.938 431.098 389.14 430.841 390.4 430.841C392.266 430.841 393.725 431.366 394.775 432.416C395.848 433.443 396.385 434.843 396.385 436.616V448.691H393.305V437.176C393.305 436.033 392.966 435.146 392.29 434.516C391.613 433.886 390.691 433.571 389.525 433.571C388.521 433.571 387.53 433.863 386.55 434.446C385.57 435.03 384.741 435.788 384.065 436.721V448.691H380.985V423.141ZM403.108 428.881C402.548 429.371 401.918 429.71 401.218 429.896C400.541 430.06 399.608 430.141 398.418 430.141V427.341H398.978C400.238 427.341 401.206 427.096 401.883 426.606C402.559 426.093 402.968 425.288 403.108 424.191H406.468V448.691H403.108V428.881Z" fill="black"/>
<path d="M367.81 770.271H361.58V767.191H377.4V770.271H371.17V791.691H367.81V770.271ZM380.985 766.141H384.065V776.466C384.741 775.743 385.651 775.125 386.795 774.611C387.938 774.098 389.14 773.841 390.4 773.841C392.266 773.841 393.725 774.366 394.775 775.416C395.848 776.443 396.385 777.843 396.385 779.616V791.691H393.305V780.176C393.305 779.033 392.966 778.146 392.29 777.516C391.613 776.886 390.691 776.571 389.525 776.571C388.521 776.571 387.53 776.863 386.55 777.446C385.57 778.03 384.741 778.788 384.065 779.721V791.691H380.985V766.141ZM409.102 792.041C407.469 792.041 406.034 791.715 404.797 791.061C403.561 790.385 402.616 789.463 401.962 788.296C401.309 787.13 400.982 785.811 400.982 784.341C400.982 782.988 401.321 781.775 401.997 780.701C402.674 779.605 403.561 778.753 404.657 778.146C403.864 777.563 403.234 776.828 402.767 775.941C402.324 775.031 402.102 774.075 402.102 773.071C402.102 771.881 402.406 770.82 403.012 769.886C403.642 768.93 404.494 768.183 405.567 767.646C406.641 767.11 407.819 766.841 409.102 766.841C410.386 766.841 411.564 767.11 412.637 767.646C413.711 768.183 414.551 768.93 415.157 769.886C415.787 770.82 416.102 771.881 416.102 773.071C416.102 774.075 415.869 775.031 415.402 775.941C414.959 776.828 414.341 777.563 413.547 778.146C414.644 778.753 415.531 779.605 416.207 780.701C416.884 781.775 417.222 782.988 417.222 784.341C417.222 785.811 416.896 787.13 416.242 788.296C415.589 789.463 414.644 790.385 413.407 791.061C412.171 791.715 410.736 792.041 409.102 792.041ZM409.102 776.921C410.222 776.921 411.132 776.583 411.832 775.906C412.532 775.23 412.882 774.343 412.882 773.246C412.882 772.15 412.532 771.263 411.832 770.586C411.132 769.91 410.222 769.571 409.102 769.571C407.982 769.571 407.072 769.91 406.372 770.586C405.672 771.263 405.322 772.15 405.322 773.246C405.322 774.343 405.672 775.23 406.372 775.906C407.072 776.583 407.982 776.921 409.102 776.921ZM409.102 788.961C410.409 788.961 411.517 788.53 412.427 787.666C413.337 786.78 413.792 785.648 413.792 784.271C413.792 782.895 413.337 781.775 412.427 780.911C411.517 780.025 410.409 779.581 409.102 779.581C407.796 779.581 406.687 780.025 405.777 780.911C404.867 781.775 404.412 782.895 404.412 784.271C404.412 785.648 404.867 786.78 405.777 787.666C406.687 788.53 407.796 788.961 409.102 788.961Z" fill="black"/>
<path d="M367.81 964.291H361.58V961.211H377.4V964.291H371.17V985.711H367.81V964.291ZM380.985 960.161H384.065V970.486C384.741 969.763 385.651 969.144 386.795 968.631C387.938 968.118 389.14 967.861 390.4 967.861C392.266 967.861 393.725 968.386 394.775 969.436C395.848 970.463 396.385 971.863 396.385 973.636V985.711H393.305V974.196C393.305 973.053 392.966 972.166 392.29 971.536C391.613 970.906 390.691 970.591 389.525 970.591C388.521 970.591 387.53 970.883 386.55 971.466C385.57 972.049 384.741 972.808 384.065 973.741V985.711H380.985V960.161ZM401.997 982.631H407.422V965.901C406.862 966.391 406.232 966.729 405.532 966.916C404.856 967.079 403.922 967.161 402.732 967.161V964.361H403.292C404.552 964.361 405.521 964.116 406.197 963.626C406.874 963.113 407.282 962.308 407.422 961.211H410.782V982.631H416.207V985.711H401.997V982.631ZM421.722 982.841L431.837 973.741C432.864 972.808 433.634 971.933 434.147 971.116C434.66 970.276 434.917 969.284 434.917 968.141C434.917 966.834 434.474 965.808 433.587 965.061C432.724 964.314 431.592 963.941 430.192 963.941C428.769 963.941 427.59 964.373 426.657 965.236C425.747 966.099 425.257 967.289 425.187 968.806H421.967C422.037 967.289 422.434 965.924 423.157 964.711C423.904 963.498 424.872 962.553 426.062 961.876C427.275 961.199 428.605 960.861 430.052 960.861C431.615 960.861 433.004 961.153 434.217 961.736C435.454 962.319 436.41 963.148 437.087 964.221C437.787 965.294 438.137 966.543 438.137 967.966C438.137 969.483 437.787 970.848 437.087 972.061C436.41 973.251 435.395 974.441 434.042 975.631L426.097 982.631H438.627V985.711H421.722V982.841Z" fill="black"/>
<path d="M115.801 1573.32C118.626 1566.33 110.239 1548.15 104.632 1548.15L87.858 1546.72C92.074 1564.93 86.692 1569.15 104.632 1573.32C103.242 1580.37 111.629 1588.76 117.236 1590.15C117.236 1597.19 122.797 1597.19 127.013 1599.98C145.178 1623.8 143.788 1597.19 129.794 1594.37C129.757 1592.58 129.209 1590.84 128.216 1589.35C127.222 1587.87 125.825 1586.7 124.188 1585.98C124.225 1583.27 123.444 1580.61 121.947 1578.36C120.451 1576.1 118.309 1574.34 115.801 1573.32Z" fill="white" stroke="#1D1D1B" stroke-width="5.17" stroke-linecap="round" stroke-linejoin="round"/>
<path d="M129.275 1592.98C130.665 1597.2 129.275 1600.03 126.494 1598.59" stroke="#1D1D1B" stroke-width="5.17" stroke-linecap="round" stroke-linejoin="round"/>
<path d="M116.964 1590.2C120.837 1591.59 122.127 1588.76 123.418 1585.98" stroke="#1D1D1B" stroke-width="5.17" stroke-linecap="round" stroke-linejoin="round"/>
<path d="M115.281 1573.37C112.5 1578.98 106.939 1574.77 104.113 1573.37" stroke="#1D1D1B" stroke-width="5.17" stroke-linecap="round" stroke-linejoin="round"/>
<path d="M231.22 1474.59H234.58V1485.02L243.925 1474.59H247.88L237.52 1486.14L248.37 1499.09H244.03L234.58 1487.82V1499.09H231.22V1474.59ZM255.432 1474.59H263.832C266.586 1474.59 268.779 1475.31 270.412 1476.76C272.069 1478.18 272.897 1480.13 272.897 1482.6C272.897 1485.07 272.069 1487.03 270.412 1488.48C268.779 1489.9 266.586 1490.62 263.832 1490.62H258.792V1499.09H255.432V1474.59ZM263.902 1487.54C267.659 1487.54 269.537 1485.89 269.537 1482.6C269.537 1479.31 267.659 1477.67 263.902 1477.67H258.792V1487.54H263.902ZM280.602 1474.59H295.267V1477.67H283.962V1485.3H294.322V1488.38H283.962V1496.01H295.652V1499.09H280.602V1474.59ZM314.176 1499.44C311.959 1499.44 309.918 1498.91 308.051 1497.86C306.208 1496.79 304.738 1495.29 303.641 1493.38C302.544 1491.47 301.996 1489.29 301.996 1486.84C301.996 1484.39 302.544 1482.2 303.641 1480.29C304.738 1478.38 306.208 1476.9 308.051 1475.85C309.918 1474.77 311.959 1474.24 314.176 1474.24C317.069 1474.24 319.484 1475.01 321.421 1476.55C323.358 1478.09 324.583 1480.13 325.096 1482.67H321.736C321.246 1480.99 320.336 1479.68 319.006 1478.75C317.676 1477.79 316.054 1477.32 314.141 1477.32C312.391 1477.32 310.851 1477.72 309.521 1478.54C308.214 1479.36 307.199 1480.49 306.476 1481.94C305.776 1483.38 305.426 1485.02 305.426 1486.84C305.426 1488.66 305.776 1490.29 306.476 1491.74C307.199 1493.18 308.214 1494.31 309.521 1495.13C310.851 1495.95 312.391 1496.36 314.141 1496.36C316.054 1496.36 317.676 1495.89 319.006 1494.96C320.336 1494 321.246 1492.68 321.736 1491H325.096C324.746 1492.68 324.081 1494.16 323.101 1495.45C322.121 1496.71 320.861 1497.69 319.321 1498.39C317.804 1499.09 316.089 1499.44 314.176 1499.44ZM336.427 1477.67H330.197V1474.59H346.017V1477.67H339.787V1499.09H336.427V1477.67ZM353.241 1474.59H367.906V1477.67H356.601V1485.3H366.961V1488.38H356.601V1496.01H368.291V1499.09H353.241V1474.59ZM393.619 1499.09H376.189V1474.59H379.549V1496.01H390.819V1474.59H394.179V1496.01H396.979V1503.29H393.619V1499.09Z" fill="black"/>
<path d="M169.692 1586.31H173.052V1596.74L182.397 1586.31H186.352L175.992 1597.86L186.842 1610.81H182.502L173.052 1599.54V1610.81H169.692V1586.31ZM202.719 1611.16C200.456 1611.16 198.391 1610.63 196.524 1609.58C194.681 1608.51 193.222 1607.02 192.149 1605.1C191.076 1603.19 190.539 1601.01 190.539 1598.56C190.539 1596.11 191.076 1593.93 192.149 1592.01C193.222 1590.1 194.681 1588.62 196.524 1587.57C198.391 1586.5 200.456 1585.96 202.719 1585.96C204.982 1585.96 207.036 1586.5 208.879 1587.57C210.746 1588.62 212.216 1590.1 213.289 1592.01C214.362 1593.93 214.899 1596.11 214.899 1598.56C214.899 1601.01 214.362 1603.19 213.289 1605.1C212.216 1607.02 210.746 1608.51 208.879 1609.58C207.036 1610.63 204.982 1611.16 202.719 1611.16ZM202.719 1608.08C204.469 1608.08 206.009 1607.68 207.339 1606.89C208.669 1606.07 209.684 1604.95 210.384 1603.53C211.107 1602.08 211.469 1600.43 211.469 1598.56C211.469 1596.69 211.107 1595.05 210.384 1593.62C209.684 1592.18 208.669 1591.06 207.339 1590.26C206.009 1589.45 204.469 1589.04 202.719 1589.04C200.969 1589.04 199.429 1589.45 198.099 1590.26C196.769 1591.06 195.742 1592.18 195.019 1593.62C194.319 1595.05 193.969 1596.69 193.969 1598.56C193.969 1600.43 194.319 1602.08 195.019 1603.53C195.742 1604.95 196.769 1606.07 198.099 1606.89C199.429 1607.68 200.969 1608.08 202.719 1608.08ZM222.596 1586.31H240.621V1610.81H237.261V1589.39H225.956V1610.81H222.596V1586.31ZM265.55 1586.31V1610.81H262.19V1599.96C261.443 1600.45 260.545 1600.85 259.495 1601.15C258.445 1601.45 257.36 1601.6 256.24 1601.6C253.977 1601.6 252.203 1601.11 250.92 1600.13C249.66 1599.13 249.03 1597.67 249.03 1595.76V1586.31H252.39V1595.2C252.39 1596.37 252.74 1597.22 253.44 1597.75C254.163 1598.27 255.213 1598.52 256.59 1598.52C258.62 1598.52 260.487 1597.93 262.19 1596.74V1586.31H265.55ZM273.961 1586.31H277.321V1605.73L288.591 1586.31H292.371V1610.81H289.011V1591.38L277.741 1610.81H273.961V1586.31ZM300.771 1586.31H304.131V1596.74L313.476 1586.31H317.431L307.071 1597.86L317.921 1610.81H313.581L304.131 1599.54V1610.81H300.771V1586.31Z" fill="black"/>
<line x1="93.6308" y1="1088.63" x2="137.932" y2="1094.74" stroke="black"/>
<line x1="93.6573" y1="1134" x2="148.058" y2="1144.5" stroke="black"/>
<line x1="93.679" y1="1180.46" x2="148.079" y2="1193.5" stroke="black"/>
<line x1="93.7831" y1="1228.44" x2="144.588" y2="1253.42" stroke="black"/>
<line x1="93.8921" y1="1276.09" x2="127.171" y2="1305.26" stroke="black"/>
<path d="M43.8563 1071.49H47.2163V1092.91H59.2913V1095.99H43.8563V1071.49ZM64.6946 1092.91H70.1196V1076.18C69.5596 1076.67 68.9296 1077.01 68.2296 1077.19C67.553 1077.36 66.6196 1077.44 65.4296 1077.44V1074.64H65.9896C67.2496 1074.64 68.218 1074.39 68.8946 1073.9C69.5713 1073.39 69.9796 1072.58 70.1196 1071.49H73.4796V1092.91H78.9046V1095.99H64.6946V1092.91Z" fill="black"/>
<path d="M43.8563 1120.49H47.2163V1141.91H59.2913V1144.99H43.8563V1120.49ZM63.3646 1142.12L73.4796 1133.02C74.5063 1132.08 75.2763 1131.21 75.7896 1130.39C76.303 1129.55 76.5596 1128.56 76.5596 1127.42C76.5596 1126.11 76.1163 1125.08 75.2296 1124.34C74.3663 1123.59 73.2346 1123.22 71.8346 1123.22C70.4113 1123.22 69.233 1123.65 68.2996 1124.51C67.3896 1125.38 66.8996 1126.57 66.8296 1128.08H63.6096C63.6796 1126.57 64.0763 1125.2 64.7996 1123.99C65.5463 1122.77 66.5146 1121.83 67.7046 1121.15C68.918 1120.48 70.248 1120.14 71.6946 1120.14C73.258 1120.14 74.6463 1120.43 75.8596 1121.01C77.0963 1121.6 78.053 1122.42 78.7296 1123.5C79.4296 1124.57 79.7796 1125.82 79.7796 1127.24C79.7796 1128.76 79.4296 1130.12 78.7296 1131.34C78.053 1132.53 77.038 1133.72 75.6846 1134.91L67.7396 1141.91H80.2696V1144.99H63.3646V1142.12Z" fill="black"/>
<path d="M43.8563 1169.49H47.2163V1190.91H59.2913V1193.99H43.8563V1169.49ZM71.9746 1194.34C70.1546 1194.34 68.568 1193.94 67.2146 1193.15C65.8846 1192.35 64.8463 1191.3 64.0996 1190C63.353 1188.67 62.933 1187.21 62.8396 1185.62H65.9896C66.1063 1187.3 66.678 1188.67 67.7046 1189.72C68.7546 1190.74 70.1546 1191.26 71.9046 1191.26C73.5846 1191.26 74.903 1190.76 75.8596 1189.75C76.8396 1188.73 77.3296 1187.31 77.3296 1185.52C77.3296 1183.77 76.7463 1182.43 75.5796 1181.49C74.413 1180.54 72.978 1180.06 71.2746 1180.06H70.5046V1177.01L75.4046 1172.57H63.9246V1169.49H79.6047V1172.67L74.0396 1177.47C75.953 1177.93 77.5513 1178.83 78.8346 1180.16C80.118 1181.47 80.7596 1183.25 80.7596 1185.52C80.7596 1187.15 80.3746 1188.64 79.6047 1190C78.8346 1191.35 77.773 1192.41 76.4196 1193.18C75.0896 1193.95 73.608 1194.34 71.9746 1194.34Z" fill="black"/>
<path d="M43.8563 1218.49H47.2163V1239.91H59.2913V1242.99H43.8563V1218.49ZM74.3546 1237.6H62.9446V1234.52L74.5646 1218.49H77.7146V1234.52H80.6546V1237.6H77.7146V1242.99H74.3546V1237.6ZM74.3546 1234.52V1223.77L66.5146 1234.52H74.3546Z" fill="black"/>
<path d="M43.8563 1267.49H47.2163V1288.91H59.2913V1291.99H43.8563V1267.49ZM71.6596 1292.34C70.0496 1292.34 68.5913 1292 67.2846 1291.32C65.978 1290.65 64.928 1289.7 64.1346 1288.49C63.3646 1287.27 62.933 1285.89 62.8396 1284.32H66.1996C66.363 1285.7 66.9113 1286.87 67.8446 1287.82C68.778 1288.78 70.0496 1289.26 71.6596 1289.26C73.3863 1289.26 74.7513 1288.73 75.7546 1287.68C76.7813 1286.63 77.2946 1285.17 77.2946 1283.31C77.2946 1281.46 76.7813 1280.04 75.7546 1279.04C74.7513 1278.01 73.4796 1277.5 71.9396 1277.5C70.563 1277.5 69.408 1277.7 68.4746 1278.09C67.5646 1278.47 66.713 1278.93 65.9196 1279.49L63.5046 1278.34L65.0446 1267.49H78.8346V1270.57H67.5996L66.5846 1276.41C67.3313 1275.9 68.218 1275.48 69.2446 1275.15C70.2713 1274.83 71.3213 1274.66 72.3946 1274.66C74.938 1274.66 76.9563 1275.43 78.4496 1276.97C79.9663 1278.49 80.7247 1280.57 80.7247 1283.2C80.7247 1284.84 80.363 1286.35 79.6396 1287.75C78.9163 1289.13 77.8663 1290.24 76.4896 1291.08C75.113 1291.92 73.503 1292.34 71.6596 1292.34Z" fill="black"/>
</svg>
