<svg width="470" height="1685" viewBox="0 0 470 1685" fill="none" xmlns="http://www.w3.org/2000/svg">
<path d="M130.271 1577.54C131.661 1581.76 130.271 1584.59 127.49 1583.15L130.271 1577.54Z" stroke="#1D1D1B" stroke-width="5.17"/>
<path d="M130.271 1577.54C131.661 1581.76 130.271 1584.59 127.49 1583.15" stroke="#1D1D1B" stroke-width="5.17" stroke-linecap="round" stroke-linejoin="round"/>
<path d="M117.712 1574.76C121.884 1576.15 123.274 1573.32 124.664 1570.54L117.712 1574.76Z" stroke="#1D1D1B" stroke-width="5.17"/>
<path d="M117.712 1574.76C121.884 1576.15 123.274 1573.32 124.664 1570.54" stroke="#1D1D1B" stroke-width="5.17" stroke-linecap="round" stroke-linejoin="round"/>
<path d="M130.271 1594.37C131.661 1597.19 130.271 1601.37 127.49 1599.98L130.271 1594.37Z" stroke="#1D1D1B" stroke-width="5.17"/>
<path d="M130.271 1594.37C131.661 1597.19 130.271 1601.37 127.49 1599.98" stroke="#1D1D1B" stroke-width="5.17" stroke-linecap="round" stroke-linejoin="round"/>
<path d="M117.712 1590.15C121.884 1591.59 124.664 1590.15 124.664 1585.98L117.712 1590.15Z" stroke="#1D1D1B" stroke-width="5.17"/>
<path d="M117.712 1590.15C121.884 1591.59 124.664 1590.15 124.664 1585.98" stroke="#1D1D1B" stroke-width="5.17" stroke-linecap="round" stroke-linejoin="round"/>
<path d="M116.277 1573.37C114.887 1580.41 109.325 1574.81 105.109 1573.37H116.277Z" stroke="#1D1D1B" stroke-width="5.17"/>
<path d="M116.277 1573.37C114.887 1580.41 109.325 1574.81 105.109 1573.37" stroke="#1D1D1B" stroke-width="5.17" stroke-linecap="round" stroke-linejoin="round"/>
<path d="M116.277 1557.93C113.496 1563.54 107.935 1559.33 105.109 1557.93H116.277Z" stroke="#1D1D1B" stroke-width="5.17"/>
<path d="M116.277 1557.93C113.496 1563.54 107.935 1559.33 105.109 1557.93" stroke="#1D1D1B" stroke-width="5.17" stroke-linecap="round" stroke-linejoin="round"/>
<path d="M88.4246 1531.33C89.8606 1532.72 103.809 1534.11 103.809 1532.72L88.4246 1531.33Z" stroke="#1D1D1B" stroke-width="5.17"/>
<path d="M88.4246 1531.33C89.8606 1532.72 103.809 1534.11 103.809 1532.72" stroke="#1D1D1B" stroke-width="5.17" stroke-linecap="round" stroke-linejoin="round"/>
<path d="M194.543 349.908C189.988 353.347 184.738 355.751 179.159 356.953C151.217 361.125 148.436 352.735 135.878 362.516C121.884 370.951 123.274 337.3 138.658 345.736C142.83 347.126 156.599 334.519 163.82 337.3C173.598 341.518 183.375 333.083 190.372 330.301C183.375 331.692 176.379 328.91 167.946 330.301C165.166 330.301 163.775 319.084 173.553 317.693C216.835 312.084 205.711 292.477 221.051 299.477C225.065 300.608 229.321 300.549 233.302 299.306C237.283 298.064 240.818 295.691 243.476 292.477L242.041 284.042C221.095 293.868 209.927 286.869 204.321 298.086C202.931 302.258 201.54 295.259 201.54 293.868C198.759 267.216 216.879 288.26 223.966 271.434C231.053 254.609 249.128 271.434 249.128 250.436C248.011 248.792 247.518 246.803 247.737 244.827C222.486 251.827 218.494 253.218 214.009 263.223C214.009 264.614 204.231 273.004 207.012 264.614C208.447 260.397 204.231 239.398 215.399 245.007C229.393 253.397 225.222 228.181 237.825 226.79C247.603 225.355 250.384 222.573 254.6 214.138C247.603 215.573 243.432 214.138 246.212 204.356C228.272 205.747 221.051 228.181 204.276 229.572C197.324 230.963 202.886 225.355 204.276 216.964C204.276 204.356 219.66 212.747 222.217 197.357C225.042 186.14 238.991 193.139 241.772 180.531C241.772 174.923 220.826 177.705 199.881 194.53C195.665 172.096 194.274 173.532 215.22 156.706C236.166 139.881 231.994 166.533 255.586 142.708C256.703 141.629 257.536 140.291 258.01 138.812C258.485 137.333 258.587 135.76 258.308 134.233C258.028 132.705 257.375 131.271 256.408 130.056C255.44 128.842 254.187 127.886 252.761 127.273C240.202 125.882 216.431 139.881 210.869 130.1C202.482 111.883 243.028 121.665 247.199 113.274C254.196 107.666 231.815 99.2314 261.148 100.666L263.974 95.0584C266.754 93.6224 268.145 92.2314 270.97 92.2314L269.535 100.666C284.919 95.0584 298.913 83.8414 296.087 97.8404C293.306 107.666 312.862 92.2314 308.691 110.448C308.691 116.056 297.478 121.665 297.478 130.1C308.691 130.1 304.475 153.88 308.691 160.924C317.078 176.314 294.697 169.314 289.135 166.533L287.7 169.314C290.526 190.313 308.691 174.923 305.641 187.531C302.591 200.139 311.247 201.53 308.466 211.356C308.466 215.573 295.863 209.965 286.041 205.747L284.65 207.138C291.647 211.356 288.866 219.746 302.591 221.182C309.588 221.182 305.372 260.397 298.42 256.179C294.204 252.006 291.423 245.007 283.035 249.179L281.645 250.615C285.368 263.223 299.227 263.223 299.227 277.043C297.792 282.651 296.401 307.867 289.449 298.086C286.317 292.967 281.973 288.699 276.801 285.657C276.261 286.198 275.604 286.609 274.881 286.858C274.159 287.106 273.389 287.187 272.63 287.093C276.801 308.091 275.411 292.701 286.579 308.091C290.795 313.7 279.582 320.699 276.801 331.916C274.02 341.742 268.414 317.917 258.636 327.743C262.852 341.742 253.03 337.525 271.24 344.524C275.411 345.96 261.417 365.567 261.417 371.176C260.027 375.393 250.249 365.567 250.249 362.74C240.471 368.349 226.523 362.74 225.132 351.523L216.879 352.959C205.756 338.916 204.321 344.524 194.454 350.133" stroke="#1D1D1B" stroke-width="5.17"/>
<path d="M194.543 349.908C189.988 353.347 184.738 355.751 179.159 356.953C151.217 361.125 148.436 352.735 135.878 362.516C121.884 370.951 123.274 337.3 138.658 345.736C142.83 347.126 156.599 334.519 163.82 337.3C173.598 341.518 183.375 333.083 190.372 330.301C183.375 331.692 176.379 328.91 167.946 330.301C165.166 330.301 163.775 319.084 173.553 317.693C216.835 312.084 205.711 292.477 221.051 299.477C225.065 300.608 229.321 300.549 233.302 299.306C237.283 298.064 240.818 295.691 243.476 292.477L242.041 284.042C221.095 293.868 209.927 286.869 204.321 298.086C202.931 302.258 201.54 293.868 201.54 293.868C198.759 267.216 216.879 288.26 223.966 271.434C231.053 254.609 249.128 271.434 249.128 250.436C248.011 248.792 247.518 246.803 247.737 244.827C222.486 251.827 218.494 253.218 214.009 263.223C214.009 264.614 204.231 273.004 207.012 264.614C208.447 260.397 204.231 239.398 215.399 245.007C229.393 253.397 225.222 228.181 237.825 226.79C247.603 225.355 250.384 222.573 254.6 214.138C247.603 215.573 243.432 214.138 246.212 204.356C228.272 205.747 221.051 228.181 204.276 229.572C197.324 230.963 202.886 225.355 204.276 216.964C204.276 204.356 219.66 212.747 222.217 197.357C225.042 186.14 238.991 193.139 241.772 180.531C241.772 174.923 220.826 177.705 199.881 194.53C195.665 172.096 194.274 173.532 215.22 156.706C236.166 139.881 231.994 166.533 255.586 142.708C256.703 141.629 257.536 140.291 258.01 138.812C258.485 137.333 258.587 135.76 258.308 134.233C258.028 132.705 257.375 131.271 256.408 130.056C255.44 128.842 254.187 127.886 252.761 127.273C240.202 125.882 216.431 139.881 210.869 130.1C202.482 111.883 243.028 121.665 247.199 113.274C254.196 107.666 231.815 99.2314 261.148 100.666L263.974 95.0584C266.754 93.6224 268.145 92.2314 270.97 92.2314L269.535 100.666C284.919 95.0584 298.913 83.8414 296.087 97.8404C293.306 107.666 312.862 92.2314 308.691 110.448C308.691 116.056 297.478 121.665 297.478 130.1C308.691 130.1 304.475 153.88 308.691 160.924C317.078 176.314 294.697 169.314 289.135 166.533L287.7 169.314C290.526 190.313 308.691 174.923 305.641 187.531C302.591 200.139 311.247 201.53 308.466 211.356C308.466 215.573 295.863 209.965 286.041 205.747L284.65 207.138C291.647 211.356 288.866 219.746 302.591 221.182C309.588 221.182 305.372 260.397 298.42 256.179C294.204 252.006 291.423 245.007 283.035 249.179L281.645 250.615C285.368 263.223 299.227 263.223 299.227 277.043C299.227 282.651 296.401 307.867 289.449 298.086C286.317 292.967 281.973 288.699 276.801 285.657C276.261 286.198 275.604 286.609 274.881 286.858C274.159 287.106 273.389 287.187 272.63 287.093C276.801 308.091 275.411 292.701 286.579 308.091C290.795 313.7 279.582 320.699 276.801 331.916C274.02 341.742 268.414 317.917 258.636 327.743C262.852 341.742 253.03 337.525 271.24 344.524C275.411 345.96 261.417 365.567 261.417 371.176C260.027 375.393 250.249 365.567 250.249 362.74C240.471 368.349 226.523 362.74 225.132 351.523L216.879 352.959C205.756 338.691 204.321 344.3 194.543 349.908Z" fill="#FC8B75" stroke="#1D1D1B" stroke-width="5.17" stroke-linecap="round" stroke-linejoin="round"/>
<path d="M258.859 136.918C264.465 150.916 289.627 132.7 297.969 129.918" stroke="#1D1D1B" stroke-width="5.17" stroke-linecap="round" stroke-linejoin="round"/>
<path d="M278.372 152.309C285.368 141.092 286.759 160.699 278.372 160.699V152.309Z" stroke="#1D1D1B" stroke-width="5.17"/>
<path d="M278.372 152.309C285.368 141.092 286.759 160.699 278.372 160.699" stroke="#1D1D1B" stroke-width="5.17" stroke-linecap="round" stroke-linejoin="round"/>
<path d="M288.148 168.998C279.761 184.433 267.203 160.608 260.206 168.998C256.035 173.215 251.819 185.823 242.265 180.215" stroke="#1D1D1B" stroke-width="5.17"/>
<path d="M288.148 168.998C279.761 184.433 267.203 160.608 260.206 168.998C256.035 173.215 251.819 185.823 242.265 180.215" stroke="#1D1D1B" stroke-width="5.17" stroke-linecap="round" stroke-linejoin="round"/>
<path d="M286.758 181.742C286.758 191.569 275.59 197.177 275.59 184.569L286.758 181.742Z" stroke="#1D1D1B" stroke-width="5.17"/>
<path d="M286.758 181.742C286.758 191.569 275.59 197.177 275.59 184.569" stroke="#1D1D1B" stroke-width="5.17" stroke-linecap="round" stroke-linejoin="round"/>
<path d="M283.789 118.187C283.789 125.046 276.993 128.395 276.606 120.273Z" stroke="#1D1D1B" stroke-width="5.17" stroke-linecap="round" stroke-linejoin="round"/>
<path d="M285.367 206.956C276.98 216.782 275.589 201.348 268.592 198.566" stroke="#1D1D1B" stroke-width="5.17"/>
<path d="M285.367 206.956C276.98 216.782 275.589 201.348 268.592 198.566" stroke="#1D1D1B" stroke-width="5.17" stroke-linecap="round" stroke-linejoin="round"/>
<path d="M272.809 202.785C267.219 207.102 261.208 210.845 254.869 213.958L272.809 202.785Z" stroke="#1D1D1B" stroke-width="5.17"/>
<path d="M272.809 202.785C267.219 207.102 261.208 210.845 254.869 213.958" stroke="#1D1D1B" stroke-width="5.17" stroke-linecap="round" stroke-linejoin="round"/>
<path d="M246.258 204.175L249.039 199.957" stroke="#1D1D1B" stroke-width="5.17"/>
<path d="M246.258 204.175L249.039 199.957" stroke="#1D1D1B" stroke-width="5.17" stroke-linecap="round" stroke-linejoin="round"/>
<path d="M249.039 237.781L247.649 244.78" stroke="#1D1D1B" stroke-width="5.17"/>
<path d="M249.039 237.781L247.649 244.78" stroke="#1D1D1B" stroke-width="5.17" stroke-linecap="round" stroke-linejoin="round"/>
<path d="M249.041 250.437C251.821 251.828 258.818 246.219 265.815 244.828C269.986 254.61 276.983 254.61 282.59 250.437" stroke="#1D1D1B" stroke-width="5.17" stroke-linecap="round" stroke-linejoin="round"/>
<path d="M283.976 249C288.39 244.374 291.312 238.527 292.363 232.219L283.976 249Z" stroke="#1D1D1B" stroke-width="5.17"/>
<path d="M283.976 249C288.39 244.374 291.312 238.527 292.363 232.219" stroke="#1D1D1B" stroke-width="5.17" stroke-linecap="round" stroke-linejoin="round"/>
<path d="M283.977 233.609C278.37 241.999 269.983 237.782 272.809 228L283.977 233.609Z" stroke="#1D1D1B" stroke-width="5.17"/>
<path d="M283.977 233.609C278.37 241.999 269.983 237.782 272.809 228" stroke="#1D1D1B" stroke-width="5.17" stroke-linecap="round" stroke-linejoin="round"/>
<path d="M276.801 274.215C265.633 278.433 269.804 267.216 268.414 263.043L276.801 274.215Z" stroke="#1D1D1B" stroke-width="5.17"/>
<path d="M276.801 274.215C265.633 278.433 269.804 267.216 268.414 263.043" stroke="#1D1D1B" stroke-width="5.17" stroke-linecap="round" stroke-linejoin="round"/>
<path d="M285.367 274.215C282.775 278.219 279.912 282.042 276.8 285.657L285.188 274.439" stroke="#1D1D1B" stroke-width="5.17"/>
<path d="M285.367 274.215C282.775 278.219 279.912 282.042 276.8 285.657" stroke="#1D1D1B" stroke-width="5.17" stroke-linecap="round" stroke-linejoin="round"/>
<path d="M272.809 286.867C267.203 288.258 263.032 282.65 257.425 272.824" stroke="#1D1D1B" stroke-width="5.17" stroke-linecap="round" stroke-linejoin="round"/>
<path d="M261.598 278.434C254.646 279.87 249.04 286.869 243.658 292.478" stroke="#1D1D1B" stroke-width="5.17" stroke-linecap="round" stroke-linejoin="round"/>
<path d="M263.031 298.082C264.391 300.163 265.116 302.595 265.116 305.082C265.116 307.568 264.391 310 263.031 312.081C254.643 320.471 274.199 317.69 271.418 307.864L263.031 298.082Z" stroke="#1D1D1B" stroke-width="5.17"/>
<path d="M263.031 298.082C264.391 300.163 265.116 302.595 265.116 305.082C265.116 307.568 264.391 310 263.031 312.081C254.643 320.471 274.199 317.69 271.418 307.864" stroke="#1D1D1B" stroke-width="5.17" stroke-linecap="round" stroke-linejoin="round"/>
<path d="M258.859 327.518C249.081 335.908 244.91 307.866 237.913 319.083C230.916 328.909 215.488 321.865 190.416 330.3" stroke="#1D1D1B" stroke-width="5.17"/>
<path d="M258.859 327.518C249.081 335.908 244.91 307.866 237.913 319.083C230.916 328.909 215.488 321.865 190.416 330.3" stroke="#1D1D1B" stroke-width="5.17" stroke-linecap="round" stroke-linejoin="round"/>
<path d="M244.868 330.523C245.376 337.328 243.912 344.136 240.652 350.13C239.261 352.957 250.429 352.957 254.645 347.348L244.868 330.523Z" stroke="#1D1D1B" stroke-width="5.17"/>
<path d="M244.868 330.523C245.376 337.328 243.912 344.136 240.652 350.13C239.261 352.957 250.429 352.957 254.645 347.348" stroke="#1D1D1B" stroke-width="5.17" stroke-linecap="round" stroke-linejoin="round"/>
<path d="M253.211 359.734L250.43 362.516" stroke="#1D1D1B" stroke-width="5.17"/>
<path d="M253.211 359.734L250.43 362.516" stroke="#1D1D1B" stroke-width="5.17" stroke-linecap="round" stroke-linejoin="round"/>
<path d="M188.939 1046.39C176.38 1050.61 156.825 1064.61 152.609 1052.05C142.831 1025.4 184.767 1026.79 186.158 1000.18C180.596 997.351 176.38 993.181 173.599 991.791C158.215 1007.18 148.438 1019.79 142.831 1011.4C130.273 990.351 162.386 977.751 159.606 955.313C151.218 956.751 142.831 956.751 144.266 948.314C135.879 972.141 117.669 948.314 120.495 944.096C133.054 927.27 128.882 914.707 131.663 899.228C129.561 898.874 127.61 897.906 126.057 896.446C117.669 892.229 106.546 918.88 103.631 904.836L99.4599 892.229C98.0239 885.229 114.799 855.796 112.018 838.97C109.536 839.796 106.859 839.833 104.354 839.078C101.849 838.323 99.6379 836.813 98.0239 834.753C92.4629 843.188 80.0839 855.796 77.0789 845.97C68.6919 816.536 98.0239 795.538 92.4629 766.105H85.5559C85.5559 774.495 71.6069 803.928 63.1299 785.712C49.1359 757.669 82.6849 728.281 84.0759 698.847L79.8599 697.412C72.9079 717.064 56.1329 726.845 60.3039 689.021C61.7399 669.414 79.8599 655.415 85.4659 635.763C83.7289 636.062 81.9459 635.963 80.2529 635.473C78.5589 634.983 76.9989 634.116 75.6879 632.936C48.0599 649.807 67.3909 602.157 88.4259 574.159C81.4289 571.332 80.0389 564.333 81.4289 557.334C71.6969 564.333 66.0899 551.725 84.2549 540.508C98.2039 532.118 96.8129 518.074 112.198 508.293C109.824 507.5 107.75 506.001 106.251 503.996C104.752 501.992 103.901 499.577 103.81 497.076C88.4259 505.511 78.5589 492.858 89.7719 481.641C95.3329 474.642 100.94 481.641 109.327 474.642L134.444 450.817C128.793 448.035 124.666 438.209 130.273 432.6C121.886 419.992 100.94 445.208 100.94 436.818C98.1139 394.777 145.791 422.774 159.606 407.385C152.609 403.167 154.044 396.168 159.606 390.559C148.438 390.559 140.05 384.951 121.885 391.95C114.889 394.777 110.852 368.125 133.278 370.907C151.218 372.298 169.608 375.08 184.992 366.689C183.601 361.081 184.992 355.472 194.769 349.864C204.547 344.255 205.937 338.647 217.195 352.69C224.192 362.517 213.024 372.298 221.411 372.298C225.627 372.298 228.408 372.298 228.408 366.689C238.186 372.298 242.357 382.079 254.96 383.515C266.128 383.515 250.744 393.296 245.182 408.731C242.357 419.948 218.63 398.949 210.243 397.514C201.856 396.078 217.195 384.906 210.243 382.079C203.246 380.733 193.469 396.123 199.075 404.513C201.856 410.122 206.027 404.513 211.633 407.34L235.405 419.948C243.747 424.165 222.801 431.165 224.192 447.99C225.627 463.38 208.853 439.555 189.253 438.164C194.859 414.339 172.523 414.339 171.312 439.555C171.312 456.38 176.918 447.99 185.306 447.99C195.083 450.772 195.083 457.771 216.029 463.38C221.635 466.162 209.077 480.205 209.077 490.031C207.642 504.03 195.083 495.595 188.086 491.422C178.309 485.814 161.534 490.031 168.531 478.814C178.309 459.162 155.973 456.38 151.757 475.988C150.366 484.423 136.417 477.379 129.331 484.423C133.502 499.813 147.271 477.379 151.757 491.422C158.753 508.248 157.363 482.987 167.141 495.595C179.699 509.639 200.69 497.031 197.909 515.247C197.909 523.638 193.693 527.855 192.302 536.246C192.302 547.463 171.312 541.854 165.75 536.246C160.189 530.637 134.982 540.463 144.805 525.073C154.627 509.684 130.273 512.466 128.793 527.945C128.689 529.398 128.064 530.765 127.035 531.795C126.005 532.825 124.639 533.449 123.186 533.553C123.186 546.161 127.402 533.553 128.793 546.161C130.515 544.257 132.724 542.858 135.182 542.115C137.639 541.372 140.253 541.313 142.741 541.944C134.354 553.161 179.071 547.552 184.678 554.552C188.849 557.378 180.506 567.16 184.678 579.812C188.849 589.594 184.678 596.593 180.506 596.593C165.122 595.202 148.348 593.811 132.964 593.811C123.186 593.811 135.789 568.595 117.58 569.986C107.847 569.986 106.457 583.985 109.237 591.029C114.799 606.419 110.628 610.637 130.183 598.029L131.573 602.202C133.278 607.81 177.771 600.766 177.771 613.194C176.38 648.236 187.548 648.236 179.161 649.627C162.386 652.454 142.831 644.063 127.492 652.454C127.492 641.237 130.273 634.237 116.279 634.237C106.546 632.802 107.937 646.845 107.937 652.454C116.279 651.063 110.717 665.062 114.889 666.453C121.886 667.844 119.105 660.844 127.492 659.453C133.054 659.453 127.492 672.061 179.161 659.453C187.548 656.671 176.38 681.887 188.939 704.321C193.155 712.756 173.599 704.321 147.047 711.321C127.492 715.538 137.27 704.321 129.107 693.373C120.719 684.938 106.681 710.199 111.166 715.807C123.724 711.59 113.947 748.068 133.592 720.025C136.417 715.807 151.532 727.024 172.747 720.025C197.909 713.026 189.477 728.46 190.688 738.241C193.469 755.067 201.856 752.24 196.249 763.457C196.249 766.284 171.088 767.675 158.529 771.893C150.142 773.283 144.58 781.674 143.145 764.848C141.441 749.324 110.852 754.932 119.105 774.719C121.886 781.719 117.669 778.937 113.498 787.327C131.439 773.328 123.276 791.545 134.444 790.154C142.831 788.763 137.27 784.545 142.831 784.545C174.99 785.936 186.158 780.328 195.935 774.719C208.539 767.72 200.151 794.327 208.539 802.762C218.316 812.543 219.707 820.978 215.491 822.369C200.151 827.978 188.939 827.978 169.383 836.413C159.606 841.976 163.822 827.978 156.825 825.196C145.657 819.587 133.278 833.407 147.047 842.021C149.828 843.457 147.047 851.847 147.047 853.238C156.825 865.846 159.606 842.021 170.774 847.63C184.767 851.847 211.14 830.804 218.316 832.24C226.704 833.631 221.097 854.674 235.091 863.064C250.43 874.281 230.875 881.281 222.488 882.672C211.115 885.644 200.278 890.383 190.374 896.715C180.596 902.324 183.377 877.063 169.383 886.889C162.386 892.498 165.212 902.324 167.993 907.888C177.771 900.888 170.774 917.714 183.377 917.714C195.935 916.323 176.38 907.887 204.323 905.106C218.316 905.106 229.484 889.671 244.689 891.107C255.857 891.107 247.47 914.932 257.247 924.713C268.416 931.757 261.419 941.539 253.031 938.757C241.863 935.93 212.665 965.361 208.18 952.756C203.695 940.148 185.754 954.146 192.796 963.971C192.796 965.361 197.012 975.191 188.58 976.581C211.006 966.751 202.573 989.191 215.132 973.751C226.345 958.361 247.29 963.971 257.068 952.756C273.843 934.539 272.452 959.751 278.014 969.581C282.23 975.191 297.569 994.801 289.227 999.011C280.884 1003.23 268.236 999.011 240.294 1017.19C236.122 996.191 217.868 1007.4 216.522 1024.23C201.183 1022.84 192.796 1035.45 188.58 1046.66" fill="#F8D0A3"/>
<path d="M188.939 1046.39C176.38 1050.61 156.825 1064.61 152.609 1052.05C142.831 1025.4 184.767 1026.79 186.158 1000.18C180.596 997.351 176.38 993.181 173.599 991.791C158.215 1007.18 148.438 1019.79 142.831 1011.4C130.273 990.351 162.386 977.751 159.606 955.313C151.218 956.751 142.831 956.751 144.266 948.314C135.879 972.141 117.669 948.314 120.495 944.096C133.054 927.27 128.882 914.707 131.663 899.228C129.561 898.874 127.61 897.906 126.057 896.446C117.669 892.229 106.546 918.88 103.631 904.836L99.4599 892.229C98.0239 885.229 114.799 855.796 112.018 838.97C109.536 839.796 106.859 839.833 104.354 839.078C101.849 838.323 99.6379 836.813 98.0239 834.753C92.4629 843.188 80.0839 855.796 77.0789 845.97C68.6919 816.536 98.0239 795.538 92.4629 766.105H85.5559C85.5559 774.495 71.6069 803.928 63.1299 785.712C49.1359 757.669 82.6849 728.281 84.0759 698.847L79.8599 697.412C72.9079 717.064 56.1329 726.845 60.3039 689.021C61.7399 669.414 79.8599 655.415 85.4659 635.763C83.7289 636.062 81.9459 635.963 80.2529 635.473C78.5589 634.983 76.9989 634.116 75.6879 632.936C48.0599 649.807 67.3909 602.157 88.4259 574.159C81.4289 571.332 80.0389 564.333 81.4289 557.334C71.6969 564.333 66.0899 551.725 84.2549 540.508C98.2039 532.118 96.8129 518.074 112.198 508.293C109.824 507.5 107.75 506.001 106.251 503.996C104.752 501.992 103.901 499.577 103.81 497.076C88.4259 505.511 78.5589 492.858 89.7719 481.641C95.3329 474.642 100.94 481.641 109.327 474.642L134.444 450.817C128.793 448.035 124.666 438.209 130.273 432.6C121.886 419.992 100.94 445.208 100.94 436.818C98.1139 394.777 145.791 422.774 159.606 407.385C152.609 403.167 154.044 396.168 159.606 390.559C148.438 390.559 140.05 384.951 121.885 391.95C114.889 394.777 110.852 368.125 133.278 370.907C151.218 372.298 169.608 375.08 184.992 366.689C183.601 361.081 184.992 355.472 194.769 349.864C204.547 344.255 205.937 338.647 217.195 352.69C224.192 362.517 213.024 372.298 221.411 372.298C225.627 372.298 228.408 372.298 228.408 366.689C238.186 372.298 242.357 382.079 254.96 383.515C266.128 383.515 250.744 393.296 245.182 408.731C242.357 419.948 218.63 398.949 210.243 397.514C201.856 396.078 217.195 384.906 210.243 382.079C203.246 380.733 193.469 396.123 199.075 404.513C201.856 410.122 206.027 404.513 211.633 407.34L235.405 419.948C243.747 424.165 222.801 431.165 224.192 447.99C225.627 463.38 208.853 439.555 189.253 438.164C194.859 414.339 172.523 414.339 171.312 439.555C171.312 456.38 176.918 447.99 185.306 447.99C195.083 450.772 195.083 457.771 216.029 463.38C221.635 466.162 209.077 480.205 209.077 490.031C207.642 504.03 195.083 495.595 188.086 491.422C178.309 485.814 161.534 490.031 168.531 478.814C178.309 459.162 155.973 456.38 151.757 475.988C150.366 484.423 136.417 477.379 129.331 484.423C133.502 499.813 147.271 477.379 151.757 491.422C158.753 508.248 157.363 482.987 167.141 495.595C179.699 509.639 200.69 497.031 197.909 515.247C197.909 523.638 193.693 527.855 192.302 536.246C192.302 547.463 171.312 541.854 165.75 536.246C160.189 530.637 134.982 540.463 144.805 525.073C154.627 509.684 130.273 512.466 128.793 527.945C128.689 529.398 128.064 530.765 127.035 531.795C126.005 532.825 124.639 533.449 123.186 533.553C123.186 546.161 127.402 533.553 128.793 546.161C130.515 544.257 132.724 542.858 135.182 542.115C137.639 541.372 140.253 541.313 142.741 541.944C134.354 553.161 179.071 547.552 184.678 554.552C188.849 557.378 180.506 567.16 184.678 579.812C188.849 589.594 184.678 596.593 180.506 596.593C165.122 595.202 148.348 593.811 132.964 593.811C123.186 593.811 135.789 568.595 117.58 569.986C107.847 569.986 106.457 583.985 109.237 591.029C114.799 606.419 110.628 610.637 130.183 598.029L131.573 602.202C133.278 607.81 177.771 600.766 177.771 613.194C176.38 648.236 187.548 648.236 179.161 649.627C162.386 652.454 142.831 644.063 127.492 652.454C127.492 641.237 130.273 634.237 116.279 634.237C106.546 632.802 107.937 646.845 107.937 652.454C116.279 651.063 110.717 665.062 114.889 666.453C121.886 667.844 119.105 660.844 127.492 659.453C133.054 659.453 127.492 672.061 179.161 659.453C187.548 656.671 176.38 681.887 188.939 704.321C193.155 712.756 173.599 704.321 147.047 711.321C127.492 715.538 137.27 704.321 129.107 693.373C120.719 684.938 106.681 710.199 111.166 715.807C123.724 711.59 113.947 748.068 133.592 720.025C136.417 715.807 151.532 727.024 172.747 720.025C197.909 713.026 189.477 728.46 190.688 738.241C193.469 755.067 201.856 752.24 196.249 763.457C196.249 766.284 171.088 767.675 158.529 771.893C150.142 773.283 144.58 781.674 143.145 764.848C141.441 749.324 110.852 754.932 119.105 774.719C121.886 781.719 117.669 778.937 113.498 787.327C131.439 773.328 123.276 791.545 134.444 790.154C142.831 788.763 137.27 784.545 142.831 784.545C174.99 785.936 186.158 780.328 195.935 774.719C208.539 767.72 200.151 794.327 208.539 802.762C218.316 812.543 219.707 820.978 215.491 822.369C200.151 827.978 188.939 827.978 169.383 836.413C159.606 841.976 163.822 827.978 156.825 825.196C145.657 819.587 133.278 833.407 147.047 842.021C149.828 843.457 147.047 851.847 147.047 853.238C156.825 865.846 159.606 842.021 170.774 847.63C184.767 851.847 211.14 830.804 218.316 832.24C226.704 833.631 221.097 854.674 235.091 863.064C250.43 874.281 230.875 881.281 222.488 882.672C211.115 885.644 200.278 890.383 190.374 896.715C180.596 902.324 183.377 877.063 169.383 886.889C162.386 892.498 165.212 902.324 167.993 907.888C177.771 900.888 170.774 917.714 183.377 917.714C195.935 916.323 176.38 907.887 204.323 905.106C218.316 905.106 229.484 889.671 244.689 891.107C255.857 891.107 247.47 914.932 257.247 924.713C268.416 931.757 261.419 941.539 253.031 938.757C241.863 935.93 212.665 965.361 208.18 952.756C203.695 940.148 185.754 954.146 192.796 963.971C192.796 965.361 197.012 975.191 188.58 976.581C211.006 966.751 202.573 989.191 215.132 973.751C226.345 958.361 247.29 963.971 257.068 952.756C273.843 934.539 272.452 959.751 278.014 969.581C282.23 975.191 297.569 994.801 289.227 999.011C280.884 1003.23 268.236 999.011 240.294 1017.19C236.122 996.191 217.868 1007.4 216.522 1024.23C201.183 1022.84 192.796 1035.45 188.58 1046.66" stroke="#1D1D1B" stroke-width="5.17"/>
<path d="M184.768 365.34C187.549 369.513 190.375 376.557 200.152 376.557" stroke="#1D1D1B" stroke-width="5.17" stroke-linecap="round" stroke-linejoin="round"/>
<path d="M234.321 379.859C231.495 384.724 226.656 392.419 225.221 382.606Z" stroke="#1D1D1B" stroke-width="5.17" stroke-linecap="round" stroke-linejoin="round"/>
<path d="M197.371 397.556C193.155 390.556 183.377 398.947 183.377 390.556C181.987 377.948 165.437 383.557 159.606 390.556" stroke="#1D1D1B" stroke-width="5.17"/>
<path d="M197.371 397.556C193.155 390.556 183.377 398.947 183.377 390.556C181.987 377.948 165.437 383.557 159.606 390.556" stroke="#1D1D1B" stroke-width="5.17" stroke-linecap="round" stroke-linejoin="round"/>
<path d="M159.605 407.383C161.206 409.113 163.105 410.542 165.211 411.601L159.605 407.383Z" stroke="#1D1D1B" stroke-width="5.17"/>
<path d="M159.605 407.383C161.206 409.113 163.105 410.542 165.211 411.601" stroke="#1D1D1B" stroke-width="5.17" stroke-linecap="round" stroke-linejoin="round"/>
<path d="M211.316 417.165C208.535 421.383 197.367 424.209 204.319 414.383L211.316 417.165Z" stroke="#1D1D1B" stroke-width="5.17"/>
<path d="M211.316 417.165C208.535 421.383 197.367 424.209 204.319 414.383" stroke="#1D1D1B" stroke-width="5.17" stroke-linecap="round" stroke-linejoin="round"/>
<path d="M170.773 439.598C148.347 439.598 166.602 436.816 155.434 426.99C148.437 419.991 134.443 426.99 130.272 432.599" stroke="#1D1D1B" stroke-width="5.17"/>
<path d="M170.773 439.598C148.347 439.598 166.602 436.816 155.434 426.99C148.437 419.991 134.443 426.99 130.272 432.599" stroke="#1D1D1B" stroke-width="5.17" stroke-linecap="round" stroke-linejoin="round"/>
<path d="M134.44 450.817C136.032 451.577 137.814 451.851 139.561 451.604C141.308 451.356 142.943 450.599 144.262 449.426" stroke="#1D1D1B" stroke-width="5.17" stroke-linecap="round" stroke-linejoin="round"/>
<path d="M177.769 457.816C173.598 467.642 181.985 470.424 186.156 460.642L177.769 457.816Z" stroke="#1D1D1B" stroke-width="5.17"/>
<path d="M177.769 457.816C173.598 467.642 181.985 470.424 186.156 460.642" stroke="#1D1D1B" stroke-width="5.17" stroke-linecap="round" stroke-linejoin="round"/>
<path d="M128.793 484.465C125.968 476.03 102.241 470.422 103.632 497.073" stroke="#1D1D1B" stroke-width="5.17"/>
<path d="M128.793 484.465C125.967 476.03 103.631 470.422 103.631 497.073" stroke="#1D1D1B" stroke-width="5.17" stroke-linecap="round" stroke-linejoin="round"/>
<path d="M112.105 508.291C113.696 509.035 115.471 509.296 117.209 509.041C118.947 508.786 120.572 508.026 121.883 506.855L112.105 508.291Z" fill="#1D1D1B"/>
<path d="M160.995 501.246C152.608 511.072 160.995 518.072 167.992 506.855L160.995 501.246Z" stroke="#1D1D1B" stroke-width="5.17"/>
<path d="M160.995 501.246C152.608 511.072 160.995 518.072 167.992 506.855" stroke="#1D1D1B" stroke-width="5.17" stroke-linecap="round" stroke-linejoin="round"/>
<path d="M123.277 533.508C107.937 534.899 120.496 544.725 106.547 544.725C92.5533 543.334 84.1213 550.334 81.3403 557.333" stroke="#1D1D1B" stroke-width="5.17" stroke-linecap="round" stroke-linejoin="round"/>
<path d="M88.3344 574.113L93.9414 576.939" stroke="#1D1D1B" stroke-width="5.17"/>
<path d="M88.3344 574.113L93.9414 576.939" stroke="#1D1D1B" stroke-width="5.17" stroke-linecap="round" stroke-linejoin="round"/>
<path d="M141.441 548.898C138.661 555.942 140.05 567.114 148.438 558.724L141.441 548.898Z" stroke="#1D1D1B" stroke-width="5.17"/>
<path d="M141.441 548.898C138.661 555.942 140.05 567.114 148.438 558.724" stroke="#1D1D1B" stroke-width="5.17" stroke-linecap="round" stroke-linejoin="round"/>
<path d="M109.324 590.984C102.327 597.983 92.5502 597.983 88.3332 607.764" stroke="#1D1D1B" stroke-width="5.17" stroke-linecap="round" stroke-linejoin="round"/>
<path d="M100.938 603.59C93.9405 616.198 86.9435 597.982 75.7755 614.762C71.6045 623.197 71.6045 628.806 75.7755 632.979" stroke="#1D1D1B" stroke-width="5.17"/>
<path d="M100.938 603.59C93.9405 616.198 86.9435 597.982 75.7755 614.762C71.6045 623.197 71.6045 628.806 75.7755 632.979" stroke="#1D1D1B" stroke-width="5.17" stroke-linecap="round" stroke-linejoin="round"/>
<path d="M85.5543 635.628C87.8303 636.251 90.2393 636.183 92.4753 635.432C94.7123 634.681 96.6743 633.281 98.1133 631.41" stroke="#1D1D1B" stroke-width="5.17" stroke-linecap="round" stroke-linejoin="round"/>
<path d="M128.793 610.59C125.967 621.807 131.574 625.98 138.57 613.372L128.793 610.59Z" stroke="#1D1D1B" stroke-width="5.17"/>
<path d="M128.793 610.59C125.967 621.807 131.574 625.98 138.57 613.372" stroke="#1D1D1B" stroke-width="5.17" stroke-linecap="round" stroke-linejoin="round"/>
<path d="M138.659 673.63C140.049 683.456 120.718 680.629 130.272 670.848L138.659 673.63Z" stroke="#1D1D1B" stroke-width="5.17"/>
<path d="M138.659 673.63C140.049 683.456 120.718 680.629 130.272 670.848" stroke="#1D1D1B" stroke-width="5.17" stroke-linecap="round" stroke-linejoin="round"/>
<path d="M107.934 652.629C99.5466 652.629 100.937 662.455 95.3306 666.628L107.934 652.629Z" stroke="#1D1D1B" stroke-width="5.17"/>
<path d="M107.934 652.629C99.5466 652.629 100.937 662.455 95.3306 666.628" stroke="#1D1D1B" stroke-width="5.17" stroke-linecap="round" stroke-linejoin="round"/>
<path d="M100.941 666.629C61.8304 668.02 61.8304 691.845 79.9954 697.454" stroke="#1D1D1B" stroke-width="5.17"/>
<path d="M100.941 666.629C61.8304 668.02 61.8304 691.845 79.9954 697.454" stroke="#1D1D1B" stroke-width="5.17" stroke-linecap="round" stroke-linejoin="round"/>
<path d="M84.1653 698.892C87.2283 698.934 90.2273 698.007 92.7323 696.242C95.2373 694.477 97.1213 691.966 98.1133 689.066" stroke="#1D1D1B" stroke-width="5.17" stroke-linecap="round" stroke-linejoin="round"/>
<path d="M149.824 731.105C145.653 740.931 134.44 742.322 135.876 726.887L149.824 731.105Z" stroke="#1D1D1B" stroke-width="5.17"/>
<path d="M149.824 731.105C145.653 740.931 134.44 742.322 135.876 726.887" stroke="#1D1D1B" stroke-width="5.17" stroke-linecap="round" stroke-linejoin="round"/>
<path d="M110.852 715.672C105.246 717.063 98.2486 736.715 89.9056 736.715C77.3026 738.106 66.1346 770.321 85.6896 766.149" stroke="#1D1D1B" stroke-width="5.17"/>
<path d="M110.852 715.672C105.246 717.063 98.2486 736.715 89.9056 736.715C77.3026 738.106 66.1346 770.321 85.6896 766.149" stroke="#1D1D1B" stroke-width="5.17" stroke-linecap="round" stroke-linejoin="round"/>
<path d="M92.5537 766.149C100.942 763.323 110.495 759.15 109.329 753.496" stroke="#1D1D1B" stroke-width="5.17" stroke-linecap="round" stroke-linejoin="round"/>
<path d="M98.1111 834.795C88.3341 826.404 100.937 802.579 110.715 798.362C116.276 795.58 107.934 792.753 113.496 787.145" stroke="#1D1D1B" stroke-width="5.17"/>
<path d="M98.1111 834.795C88.3341 826.404 100.937 802.579 110.715 798.362C116.276 795.58 107.934 792.753 113.496 787.145" stroke="#1D1D1B" stroke-width="5.17" stroke-linecap="round" stroke-linejoin="round"/>
<path d="M159.603 791.363C163.774 801.189 144.264 806.797 148.435 794.144L159.603 791.363Z" stroke="#1D1D1B" stroke-width="5.17"/>
<path d="M159.603 791.363C163.774 801.189 144.264 806.797 148.435 794.144" stroke="#1D1D1B" stroke-width="5.17" stroke-linecap="round" stroke-linejoin="round"/>
<path d="M130.271 822.188C131.662 837.622 124.665 839.013 112.331 839.013L130.271 822.188Z" stroke="#1D1D1B" stroke-width="5.17"/>
<path d="M130.271 822.188C131.662 837.622 124.665 839.013 112.331 839.013" stroke="#1D1D1B" stroke-width="5.17" stroke-linecap="round" stroke-linejoin="round"/>
<path d="M147.047 853.01C140.05 843.229 135.834 862.837 123.276 867.054C109.327 869.836 119.104 889.488 126.056 896.488" stroke="#1D1D1B" stroke-width="5.17"/>
<path d="M147.047 853.01C140.05 843.229 135.834 862.837 123.276 867.054C109.327 869.836 119.104 889.488 126.056 896.488" stroke="#1D1D1B" stroke-width="5.17" stroke-linecap="round" stroke-linejoin="round"/>
<path d="M131.662 899.272C135.878 897.881 138.658 892.273 142.875 888.055L131.662 899.272Z" stroke="#1D1D1B" stroke-width="5.17"/>
<path d="M131.662 899.272C135.878 897.881 138.658 892.273 142.875 888.055" stroke="#1D1D1B" stroke-width="5.17" stroke-linecap="round" stroke-linejoin="round"/>
<path d="M180.594 858.621C174.988 872.665 162.385 865.621 166.601 854.449L180.594 858.621Z" stroke="#1D1D1B" stroke-width="5.17"/>
<path d="M180.594 858.621C174.988 872.665 162.385 865.621 166.601 854.449" stroke="#1D1D1B" stroke-width="5.17" stroke-linecap="round" stroke-linejoin="round"/>
<path d="M167.992 907.66C165.211 909.096 163.821 910.487 159.605 920.313L167.992 907.66Z" stroke="#1D1D1B" stroke-width="5.17"/>
<path d="M167.992 907.66C165.211 909.096 163.821 910.487 159.605 920.313" stroke="#1D1D1B" stroke-width="5.17" stroke-linecap="round" stroke-linejoin="round"/>
<path d="M165.211 920.314C138.659 916.097 144.265 951.094 144.265 948.312" stroke="#1D1D1B" stroke-width="5.17"/>
<path d="M165.211 920.314C138.659 916.097 144.265 951.094 144.265 948.312" stroke="#1D1D1B" stroke-width="5.17" stroke-linecap="round" stroke-linejoin="round"/>
<path d="M159.605 955.312C165.211 953.921 170.773 949.748 170.773 945.531L159.605 955.312Z" stroke="#1D1D1B" stroke-width="5.17"/>
<path d="M159.605 955.312C165.211 953.921 170.773 949.748 170.773 945.531" stroke="#1D1D1B" stroke-width="5.17" stroke-linecap="round" stroke-linejoin="round"/>
<path d="M201.542 918.879C204.323 925.923 187.548 931.532 191.764 921.706L201.542 918.879Z" stroke="#1D1D1B" stroke-width="5.17"/>
<path d="M201.542 918.879C204.323 925.923 187.548 931.532 191.764 921.706" stroke="#1D1D1B" stroke-width="5.17" stroke-linecap="round" stroke-linejoin="round"/>
<path d="M173.64 991.789C169.424 987.569 173.64 983.359 188.98 976.359" stroke="#1D1D1B" stroke-width="5.17"/>
<path d="M173.64 991.789C169.424 987.569 173.64 983.359 188.98 976.359" stroke="#1D1D1B" stroke-width="5.17" stroke-linecap="round" stroke-linejoin="round"/>
<path d="M211.319 981.957C205.712 988.957 226.703 990.347 222.487 981.957H211.319Z" stroke="#1D1D1B" stroke-width="5.17"/>
<path d="M211.319 981.957C205.712 988.957 226.703 990.347 222.487 981.957" stroke="#1D1D1B" stroke-width="5.17" stroke-linecap="round" stroke-linejoin="round"/>
<path d="M147.044 1336.51C174.987 1325.29 173.596 1347.73 183.374 1347.73L201.629 1339.6L209.792 1343.14L218.162 1350.47L228.408 1341.25C231.189 1352.47 235.222 1337.81 250.562 1350.47C265.946 1364.46 275.723 1381.29 285.501 1353.25C292.498 1329.42 314.879 1336.42 312.053 1318.2C312.053 1311.21 275.723 1301.38 260.339 1285.99C254.778 1280.38 247.781 1291.55 240.784 1291.55C231.006 1290.16 243.565 1276.16 231.006 1277.55C231.006 1270.56 250.562 1262.12 254.778 1262.12C274.333 1259.34 250.562 1278.99 258.949 1278.99C281.375 1281.77 299.315 1292.99 321.741 1292.99C331.519 1292.99 323.131 1270.55 332.909 1252.34C348.293 1221.51 304.967 1228.51 289.627 1224.3C258.859 1215.91 271.462 1228.51 258.859 1228.51C243.475 1227.12 254.688 1217.3 243.475 1214.51C244.91 1204.69 249.082 1190.69 258.859 1190.69C277.024 1190.69 263.075 1213.12 268.637 1213.12C294.023 1210.34 340.13 1227.17 335.914 1208.95C330.353 1182.3 345.736 1159.91 334.523 1152.87C327.572 1148.69 295.413 1155.69 275.858 1150.08C266.08 1147.26 267.471 1157.08 261.864 1159.91C257.693 1152.87 254.912 1147.26 245.135 1145.87C249.306 1134.65 243.699 1130.43 259.083 1126.26C277.248 1120.65 264.69 1145.87 273.077 1141.69C301.02 1129.04 340.13 1140.26 331.743 1124.87C320.575 1103.83 331.743 1073 319.184 1078.61C305.191 1084.22 270.251 1078.61 259.083 1089.83C243.61 1105.26 247.826 1088.44 236.658 1085.61C235.267 1063.17 254.823 1059 256.213 1070.22C257.469 1080 291.018 1068.78 296.579 1068.78C299.405 1067.39 324.522 1061.78 314.789 1056.18C304.742 1049.18 307.792 993.089 286.802 1015.53C281.106 1022.57 244.776 1023.96 241.95 1028.18C232.173 1050.57 223.785 1023.96 216.788 1023.96C201.449 1022.61 193.062 1035.22 188.846 1046.39C187.456 1050.61 191.672 1057.61 194.452 1057.61C200.059 1056.22 201.449 1061.83 201.449 1064.66C190.236 1073.05 194.408 1077.26 179.023 1073.05C162.249 1070.26 148.3 1094.09 159.468 1108.09C179.023 1134.69 184.63 1092.65 208.401 1105.31C207.609 1107.12 207.321 1109.12 207.565 1111.08C207.81 1113.05 208.579 1114.91 209.792 1116.48C206.966 1124.91 193.107 1130.48 172.071 1129.09C151.036 1127.7 160.859 1169.74 173.462 1168.35C194.318 1165.56 191.627 1147.3 216.744 1157.13C214.852 1158.88 213.467 1161.11 212.733 1163.58C211.999 1166.05 211.943 1168.67 212.572 1171.17C201.404 1172.56 188.801 1178.17 177.633 1176.78C162.249 1175.35 152.471 1210.39 165.075 1216C183.239 1224.39 201.404 1202 216.744 1218.78C211.182 1222.99 206.966 1229.99 209.792 1237.04C201.629 1237.04 200.238 1238.43 191.851 1235.65C155.521 1225.82 152.696 1267.86 159.692 1276.25C170.86 1290.25 189.025 1267.86 201.629 1284.64C199.858 1286.17 198.535 1288.15 197.8 1290.37C197.065 1292.59 196.947 1294.97 197.457 1297.25C183.374 1302.86 175.032 1290.25 152.606 1298.69C134.441 1305.69 133.051 1340.73 147.044 1336.51Z" fill="#B7C8BD" stroke="#1D1D1B" stroke-width="5.17" stroke-linecap="round" stroke-linejoin="round"/>
<path d="M225.313 1056.22C208.538 1049.22 205.713 1080.05 228.094 1073.05L225.313 1056.22Z" stroke="#1D1D1B" stroke-width="5.17"/>
<path d="M225.313 1056.22C208.538 1049.22 205.713 1080.05 228.094 1073.05" stroke="#1D1D1B" stroke-width="5.17" stroke-linecap="round" stroke-linejoin="round"/>
<path d="M201.54 1064.66C202.93 1067.44 202.93 1067.44 205.711 1067.44L201.54 1064.66Z" stroke="#1D1D1B" stroke-width="5.17"/>
<path d="M201.54 1064.66C202.93 1067.44 202.93 1067.44 205.711 1067.44" stroke="#1D1D1B" stroke-width="5.17" stroke-linecap="round" stroke-linejoin="round"/>
<path d="M236.434 1085.65C226.657 1082.87 209.882 1092.65 208.492 1105.31" stroke="#1D1D1B" stroke-width="5.17"/>
<path d="M236.434 1085.65C226.657 1082.87 209.882 1092.65 208.492 1105.31" stroke="#1D1D1B" stroke-width="5.17" stroke-linecap="round" stroke-linejoin="round"/>
<path d="M209.927 1116.48C211.944 1118.69 214.289 1120.58 216.879 1122.09L209.927 1116.48Z" stroke="#1D1D1B" stroke-width="5.17"/>
<path d="M209.927 1116.48C211.944 1118.69 214.289 1120.58 216.879 1122.09" stroke="#1D1D1B" stroke-width="5.17" stroke-linecap="round" stroke-linejoin="round"/>
<path d="M236.438 1108.09C221.054 1101.09 216.838 1131.91 235.048 1126.3L236.438 1108.09Z" stroke="#1D1D1B" stroke-width="5.17"/>
<path d="M236.438 1108.09C221.054 1101.09 216.838 1131.91 235.048 1126.3" stroke="#1D1D1B" stroke-width="5.17" stroke-linecap="round" stroke-linejoin="round"/>
<path d="M244.867 1145.91C239.617 1144.87 234.179 1145.38 229.212 1147.37C224.245 1149.36 219.961 1152.75 216.879 1157.13" stroke="#1D1D1B" stroke-width="5.17"/>
<path d="M244.867 1145.91C239.617 1144.87 234.179 1145.38 229.212 1147.37C224.245 1149.36 219.961 1152.75 216.879 1157.13" stroke="#1D1D1B" stroke-width="5.17" stroke-linecap="round" stroke-linejoin="round"/>
<path d="M212.707 1171.17C212.657 1173.01 213.004 1174.83 213.724 1176.52C214.444 1178.21 215.52 1179.72 216.879 1180.95L212.707 1171.17Z" stroke="#1D1D1B" stroke-width="5.17"/>
<path d="M212.707 1171.17C212.657 1173.01 213.004 1174.83 213.724 1176.52C214.444 1178.21 215.52 1179.72 216.879 1180.95" stroke="#1D1D1B" stroke-width="5.17" stroke-linecap="round" stroke-linejoin="round"/>
<path d="M242.043 1169.56C226.704 1152.73 215.491 1191.99 237.872 1189.16L242.043 1169.56Z" stroke="#1D1D1B" stroke-width="5.17"/>
<path d="M242.043 1169.56C226.704 1152.73 215.491 1191.99 237.872 1189.16" stroke="#1D1D1B" stroke-width="5.17" stroke-linecap="round" stroke-linejoin="round"/>
<path d="M243.434 1214.43C238.991 1212.99 234.272 1212.62 229.66 1213.34C225.048 1214.07 220.67 1215.87 216.881 1218.6" stroke="#1D1D1B" stroke-width="5.17" stroke-linecap="round" stroke-linejoin="round"/>
<path d="M209.926 1236.99L212.707 1242.6" stroke="#1D1D1B" stroke-width="5.17"/>
<path d="M209.926 1236.99L212.707 1242.6" stroke="#1D1D1B" stroke-width="5.17" stroke-linecap="round" stroke-linejoin="round"/>
<path d="M239.258 1229.99C221.318 1229.99 222.484 1263.65 243.43 1251.04L239.258 1229.99Z" stroke="#1D1D1B" stroke-width="5.17"/>
<path d="M239.258 1229.99C221.318 1229.99 222.484 1263.65 243.43 1251.04" stroke="#1D1D1B" stroke-width="5.17" stroke-linecap="round" stroke-linejoin="round"/>
<path d="M230.871 1277.64C221.094 1277.64 208.446 1279.03 201.539 1284.64" stroke="#1D1D1B" stroke-width="5.17" stroke-linecap="round" stroke-linejoin="round"/>
<path d="M197.368 1297.25L198.758 1305.64" stroke="#1D1D1B" stroke-width="5.17"/>
<path d="M197.368 1297.25L198.758 1305.64" stroke="#1D1D1B" stroke-width="5.17" stroke-linecap="round" stroke-linejoin="round"/>
<path d="M232.262 1301.47C218.313 1291.64 204.32 1325.29 225.31 1322.51L232.262 1301.47Z" stroke="#1D1D1B" stroke-width="5.17"/>
<path d="M232.262 1301.47C218.313 1291.64 204.32 1325.29 225.31 1322.51" stroke="#1D1D1B" stroke-width="5.17" stroke-linecap="round" stroke-linejoin="round"/>
<path d="M258.86 1391.16C258.86 1391.16 263.077 1399.6 251.864 1402.38C219.75 1409.38 246.302 1433.2 216.924 1445.81C190.417 1457.03 198.984 1440.2 175.033 1451.42C148.481 1464.03 155.478 1448.64 128.926 1465.46C103.764 1480.85 119.148 1479.46 110.985 1506.07C105.378 1520.11 110.985 1539.72 105.378 1548.15C110.985 1548.15 119.372 1566.33 116.547 1573.32C119.055 1574.34 121.197 1576.1 122.693 1578.36C124.19 1580.61 124.971 1583.27 124.934 1585.98C126.571 1586.7 127.968 1587.87 128.962 1589.35C129.955 1590.84 130.503 1592.58 130.54 1594.37C144.534 1597.19 145.924 1623.8 127.759 1599.98C123.543 1597.19 117.982 1597.19 117.982 1590.15C112.375 1588.76 103.988 1580.37 105.378 1573.32C87.4376 1569.15 92.8196 1564.93 88.6036 1546.72C62.0966 1541.11 77.4356 1529.89 69.0486 1503.29C56.4896 1464.03 70.4386 1487.9 71.8736 1448.64C73.2646 1412.2 95.6006 1423.42 92.8196 1406.59C90.0386 1386.99 109.595 1381.38 123.543 1375.77C136.147 1371.55 133.321 1339.34 155.702 1356.12C173.643 1368.73 187.816 1330.9 207.371 1340.73C211.587 1343.51 214.368 1346.34 218.584 1349.12C218.79 1346.72 219.93 1344.49 221.758 1342.92C223.587 1341.36 225.958 1340.57 228.361 1340.73L258.86 1391.16Z" stroke="#1D1D1B" stroke-width="5.17"/>
<path d="M258.86 1391.16C258.86 1391.16 263.077 1399.6 251.864 1402.38C219.75 1409.38 246.302 1433.2 216.924 1445.81C190.417 1457.03 198.984 1440.2 175.033 1451.42C148.481 1464.03 155.478 1448.64 128.926 1465.46C103.764 1480.85 119.148 1479.46 110.985 1506.07C105.378 1520.11 110.985 1539.72 105.378 1548.15C110.985 1548.15 119.372 1566.33 116.547 1573.32C119.055 1574.34 121.197 1576.1 122.693 1578.36C124.19 1580.61 124.971 1583.27 124.934 1585.98C126.571 1586.7 127.968 1587.87 128.962 1589.35C129.955 1590.84 130.503 1592.58 130.54 1594.37C144.534 1597.19 145.924 1623.8 127.759 1599.98C123.543 1597.19 117.982 1597.19 117.982 1590.15C112.375 1588.76 103.988 1580.37 105.378 1573.32C87.4376 1569.15 92.8196 1564.93 88.6036 1546.72C62.0966 1541.11 77.4356 1529.89 69.0486 1503.29C56.4896 1464.03 70.4386 1487.9 71.8736 1448.64C73.2646 1412.2 95.6006 1423.42 92.8196 1406.59C90.0386 1386.99 109.595 1381.38 123.543 1375.77C136.147 1371.55 133.321 1339.34 155.702 1356.12C173.643 1368.73 187.816 1330.9 207.371 1340.73C211.587 1343.51 214.368 1346.34 218.584 1349.12C218.79 1346.72 219.93 1344.49 221.758 1342.92C223.587 1341.36 225.958 1340.57 228.361 1340.73" fill="#95A5DC"/>
<path d="M258.86 1391.16C258.86 1391.16 263.077 1399.6 251.864 1402.38C219.75 1409.38 246.302 1433.2 216.924 1445.81C190.417 1457.03 198.984 1440.2 175.033 1451.42C148.481 1464.03 155.478 1448.64 128.926 1465.46C103.764 1480.85 119.148 1479.46 110.985 1506.07C105.378 1520.11 110.985 1539.72 105.378 1548.15C110.985 1548.15 119.372 1566.33 116.547 1573.32C119.055 1574.34 121.197 1576.1 122.693 1578.36C124.19 1580.61 124.971 1583.27 124.934 1585.98C126.571 1586.7 127.968 1587.87 128.962 1589.35C129.955 1590.84 130.503 1592.58 130.54 1594.37C144.534 1597.19 145.924 1623.8 127.759 1599.98C123.543 1597.19 117.982 1597.19 117.982 1590.15C112.375 1588.76 103.988 1580.37 105.378 1573.32C87.4376 1569.15 92.8196 1564.93 88.6036 1546.72C62.0966 1541.11 77.4356 1529.89 69.0486 1503.29C56.4896 1464.03 70.4386 1487.9 71.8736 1448.64C73.2646 1412.2 95.6006 1423.42 92.8196 1406.59C90.0386 1386.99 109.595 1381.38 123.543 1375.77C136.147 1371.55 133.321 1339.34 155.702 1356.12C173.643 1368.73 187.816 1330.9 207.371 1340.73C211.587 1343.51 214.368 1346.34 218.584 1349.12C218.79 1346.72 219.93 1344.49 221.758 1342.92C223.587 1341.36 225.958 1340.57 228.361 1340.73" stroke="#1D1D1B" stroke-width="5.17" stroke-linecap="round" stroke-linejoin="round"/>
<path d="M232.263 1410.77C242.041 1393.99 223.876 1382.77 208.537 1385.55C180.595 1389.77 208.537 1410.77 184.766 1412.2C172.207 1410.77 183.375 1431.81 149.826 1419.2C124.665 1410.77 113.497 1448.64 113.497 1466.85" stroke="#1D1D1B" stroke-width="5.17" stroke-linecap="round" stroke-linejoin="round"/>
<path d="M88.4242 1546.72C89.8602 1548.15 103.808 1550.94 105.199 1548.15L88.4242 1546.72Z" stroke="#1D1D1B" stroke-width="5.17"/>
<path d="M88.4242 1546.72C89.8602 1548.15 103.808 1550.94 105.199 1548.15" stroke="#1D1D1B" stroke-width="5.17" stroke-linecap="round" stroke-linejoin="round"/>
<path d="M89.7701 1494.9C90.9521 1492.68 91.4481 1490.16 91.1921 1487.65C90.9361 1485.15 89.9421 1482.79 88.3341 1480.85L89.7701 1494.9Z" stroke="#1D1D1B" stroke-width="5.17"/>
<path d="M89.7701 1494.9C90.9521 1492.68 91.4481 1490.16 91.1921 1487.65C90.9361 1485.15 89.9421 1482.79 88.3341 1480.85" stroke="#1D1D1B" stroke-width="5.17" stroke-linecap="round" stroke-linejoin="round"/>
<path d="M91.1615 1459.85C98.1135 1459.85 103.719 1440.2 93.9415 1444.42L91.1615 1459.85Z" stroke="#1D1D1B" stroke-width="5.17"/>
<path d="M91.1615 1459.85C98.1135 1459.85 103.719 1440.2 93.9415 1444.42" stroke="#1D1D1B" stroke-width="5.17" stroke-linecap="round" stroke-linejoin="round"/>
<path d="M133.277 1405.2C136.103 1396.77 130.496 1388.38 138.883 1381.38L133.277 1405.2Z" stroke="#1D1D1B" stroke-width="5.17"/>
<path d="M133.277 1405.2C136.103 1396.77 130.496 1388.38 138.883 1381.38" stroke="#1D1D1B" stroke-width="5.17" stroke-linecap="round" stroke-linejoin="round"/>
<path d="M173.643 1385.55C175.034 1403.77 183.421 1370.16 176.424 1371.55L173.643 1385.55Z" stroke="#1D1D1B" stroke-width="5.17"/>
<path d="M173.643 1385.55C175.034 1403.77 183.421 1370.16 176.424 1371.55" stroke="#1D1D1B" stroke-width="5.17" stroke-linecap="round" stroke-linejoin="round"/>
<line y1="-0.5" x2="42.5093" y2="-0.5" transform="matrix(0.914323 -0.404986 0.447136 0.894466 316.285 102.266)" stroke="black"/>
<line x1="305.909" y1="279.452" x2="355.106" y2="274.724" stroke="black"/>
<line y1="-0.5" x2="40.4671" y2="-0.5" transform="matrix(0.985175 -0.171551 0.192835 0.981231 316.285 187.766)" stroke="black"/>
<line x1="281.215" y1="359.236" x2="352.406" y2="364.841" stroke="black"/>
<line y1="-0.5" x2="40.837" y2="-0.5" transform="matrix(0.976252 -0.216638 0.242939 0.970042 316.285 145.102)" stroke="black"/>
<line x1="293.436" y1="319.691" x2="352.359" y2="319" stroke="black"/>
<line y1="-0.5" x2="39.0574" y2="-0.5" transform="matrix(0.99513 -0.098568 0.111095 0.99381 316.285 232.113)" stroke="black"/>
<line x1="263.869" y1="406.192" x2="348.103" y2="411.102" stroke="black"/>
<line x1="247.702" y1="439.11" x2="348.186" y2="462.239" stroke="black"/>
<line x1="230.943" y1="486.787" x2="348.188" y2="514.572" stroke="black"/>
<line x1="218.477" y1="533.019" x2="348.177" y2="561.23" stroke="black"/>
<line x1="206.827" y1="575.044" x2="348.202" y2="612.56" stroke="black"/>
<line x1="226.762" y1="790.215" x2="348.139" y2="806.567" stroke="black"/>
<line x1="202.181" y1="630.917" x2="348.175" y2="661.593" stroke="black"/>
<line x1="244.875" y1="853.949" x2="348.08" y2="855.602" stroke="black"/>
<line x1="206.799" y1="680.201" x2="348.174" y2="708.924" stroke="black"/>
<line x1="266.245" y1="913.492" x2="348.008" y2="902.938" stroke="black"/>
<line x1="214.93" y1="738.007" x2="348.155" y2="760.245" stroke="black"/>
<line x1="293.343" y1="965.221" x2="347.974" y2="954.268" stroke="black"/>
<line x1="94.6504" y1="1088.63" x2="138.951" y2="1094.74" stroke="black"/>
<line x1="94.6768" y1="1134" x2="149.077" y2="1144.5" stroke="black"/>
<line x1="94.6986" y1="1180.46" x2="149.099" y2="1193.5" stroke="black"/>
<line x1="94.8027" y1="1228.44" x2="145.607" y2="1253.42" stroke="black"/>
<line x1="94.9116" y1="1276.09" x2="128.191" y2="1305.26" stroke="black"/>
<path d="M375.996 86.0414C373.78 86.0414 371.738 85.5164 369.871 84.4664C368.028 83.3931 366.558 81.8997 365.461 79.9864C364.365 78.0731 363.816 75.8914 363.816 73.4414C363.816 70.9914 364.365 68.8097 365.461 66.8964C366.558 64.9831 368.028 63.5014 369.871 62.4514C371.738 61.3781 373.78 60.8414 375.996 60.8414C378.89 60.8414 381.305 61.6114 383.241 63.1514C385.178 64.6914 386.403 66.7331 386.916 69.2764H383.556C383.066 67.5964 382.156 66.2897 380.826 65.3564C379.496 64.3997 377.875 63.9214 375.961 63.9214C374.211 63.9214 372.671 64.3297 371.341 65.1464C370.035 65.9631 369.02 67.0947 368.296 68.5414C367.596 69.9881 367.246 71.6214 367.246 73.4414C367.246 75.2614 367.596 76.8947 368.296 78.3414C369.02 79.7881 370.035 80.9197 371.341 81.7364C372.671 82.5531 374.211 82.9614 375.961 82.9614C377.875 82.9614 379.496 82.4947 380.826 81.5614C382.156 80.6047 383.066 79.2864 383.556 77.6064H386.916C386.566 79.2864 385.901 80.7681 384.921 82.0514C383.941 83.3114 382.681 84.2914 381.141 84.9914C379.625 85.6914 377.91 86.0414 375.996 86.0414ZM392.088 82.6114H397.513V65.8814C396.953 66.3714 396.323 66.7097 395.623 66.8964C394.947 67.0597 394.013 67.1414 392.823 67.1414V64.3414H393.383C394.643 64.3414 395.612 64.0964 396.288 63.6064C396.965 63.0931 397.373 62.2881 397.513 61.1914H400.873V82.6114H406.298V85.6914H392.088V82.6114Z" fill="black"/>
<path d="M374.996 282.041C372.78 282.041 370.738 281.516 368.871 280.466C367.028 279.393 365.558 277.9 364.461 275.986C363.365 274.073 362.816 271.891 362.816 269.441C362.816 266.991 363.365 264.81 364.461 262.896C365.558 260.983 367.028 259.501 368.871 258.451C370.738 257.378 372.78 256.841 374.996 256.841C377.89 256.841 380.305 257.611 382.241 259.151C384.178 260.691 385.403 262.733 385.916 265.276H382.556C382.066 263.596 381.156 262.29 379.826 261.356C378.496 260.4 376.875 259.921 374.961 259.921C373.211 259.921 371.671 260.33 370.341 261.146C369.035 261.963 368.02 263.095 367.296 264.541C366.596 265.988 366.246 267.621 366.246 269.441C366.246 271.261 366.596 272.895 367.296 274.341C368.02 275.788 369.035 276.92 370.341 277.736C371.671 278.553 373.211 278.961 374.961 278.961C376.875 278.961 378.496 278.495 379.826 277.561C381.156 276.605 382.066 275.286 382.556 273.606H385.916C385.566 275.286 384.901 276.768 383.921 278.051C382.941 279.311 381.681 280.291 380.141 280.991C378.625 281.691 376.91 282.041 374.996 282.041ZM398.053 282.041C396.443 282.041 394.985 281.703 393.678 281.026C392.372 280.35 391.322 279.405 390.528 278.191C389.758 276.978 389.327 275.59 389.233 274.026H392.593C392.757 275.403 393.305 276.57 394.238 277.526C395.172 278.483 396.443 278.961 398.053 278.961C399.78 278.961 401.145 278.436 402.148 277.386C403.175 276.336 403.688 274.878 403.688 273.011C403.688 271.168 403.175 269.745 402.148 268.741C401.145 267.715 399.873 267.201 398.333 267.201C396.957 267.201 395.802 267.4 394.868 267.796C393.958 268.17 393.107 268.636 392.313 269.196L389.898 268.041L391.438 257.191H405.228V260.271H393.993L392.978 266.116C393.725 265.603 394.612 265.183 395.638 264.856C396.665 264.53 397.715 264.366 398.788 264.366C401.332 264.366 403.35 265.136 404.843 266.676C406.36 268.193 407.118 270.27 407.118 272.906C407.118 274.54 406.757 276.056 406.033 277.456C405.31 278.833 404.26 279.941 402.883 280.781C401.507 281.621 399.897 282.041 398.053 282.041Z" fill="black"/>
<path d="M363.516 600.191H370.586C373.223 600.191 375.498 600.705 377.411 601.731C379.348 602.735 380.83 604.158 381.856 606.001C382.883 607.845 383.396 609.991 383.396 612.441C383.396 614.891 382.883 617.038 381.856 618.881C380.83 620.725 379.348 622.16 377.411 623.186C375.498 624.19 373.223 624.691 370.586 624.691H363.516V600.191ZM370.446 621.611C373.433 621.611 375.778 620.865 377.481 619.371C379.185 617.855 380.036 615.545 380.036 612.441C380.036 609.338 379.185 607.04 377.481 605.546C375.778 604.03 373.433 603.271 370.446 603.271H366.876V621.611H370.446ZM395.558 625.041C393.948 625.041 392.49 624.703 391.183 624.026C389.876 623.35 388.826 622.405 388.033 621.191C387.263 619.978 386.831 618.59 386.738 617.026H390.098C390.261 618.403 390.81 619.57 391.743 620.526C392.676 621.483 393.948 621.961 395.558 621.961C397.285 621.961 398.65 621.436 399.653 620.386C400.68 619.336 401.193 617.878 401.193 616.011C401.193 614.168 400.68 612.745 399.653 611.741C398.65 610.715 397.378 610.201 395.838 610.201C394.461 610.201 393.306 610.4 392.373 610.796C391.463 611.17 390.611 611.636 389.818 612.196L387.403 611.041L388.943 600.191H402.733V603.271H391.498L390.483 609.116C391.23 608.603 392.116 608.183 393.143 607.856C394.17 607.53 395.22 607.366 396.293 607.366C398.836 607.366 400.855 608.136 402.348 609.676C403.865 611.193 404.623 613.27 404.623 615.906C404.623 617.54 404.261 619.056 403.538 620.456C402.815 621.833 401.765 622.941 400.388 623.781C399.011 624.621 397.401 625.041 395.558 625.041Z" fill="black"/>
<path d="M363.516 794.211H370.586C373.223 794.211 375.498 794.724 377.411 795.751C379.348 796.754 380.83 798.178 381.856 800.021C382.883 801.864 383.396 804.011 383.396 806.461C383.396 808.911 382.883 811.058 381.856 812.901C380.83 814.744 379.348 816.179 377.411 817.206C375.498 818.209 373.223 818.711 370.586 818.711H363.516V794.211ZM370.446 815.631C373.433 815.631 375.778 814.884 377.481 813.391C379.185 811.874 380.036 809.564 380.036 806.461C380.036 803.358 379.185 801.059 377.481 799.566C375.778 798.049 373.433 797.291 370.446 797.291H366.876V815.631H370.446ZM395.698 793.861C396.958 793.861 398.206 794.176 399.443 794.806C400.68 795.413 401.695 796.253 402.488 797.326C403.211 798.329 403.736 799.508 404.063 800.861C404.413 802.214 404.588 803.778 404.588 805.551C404.588 808.258 404.215 810.626 403.468 812.656C402.721 814.686 401.636 816.261 400.213 817.381C398.79 818.501 397.086 819.061 395.103 819.061C393.026 819.061 391.323 818.489 389.993 817.346C388.663 816.179 387.881 814.628 387.648 812.691H390.903C391.253 813.904 391.766 814.756 392.443 815.246C393.12 815.736 394.041 815.981 395.208 815.981C396.305 815.981 397.285 815.666 398.148 815.036C399.011 814.383 399.7 813.449 400.213 812.236C400.726 811.023 400.983 809.588 400.983 807.931C400.166 808.888 399.221 809.599 398.148 810.066C397.098 810.533 395.955 810.766 394.718 810.766C393.248 810.766 391.906 810.416 390.693 809.716C389.48 808.993 388.523 808.001 387.823 806.741C387.146 805.458 386.808 804.023 386.808 802.436C386.808 800.826 387.181 799.368 387.928 798.061C388.675 796.754 389.725 795.728 391.078 794.981C392.431 794.234 393.971 793.861 395.698 793.861ZM395.523 796.941C394.45 796.941 393.516 797.198 392.723 797.711C391.93 798.224 391.311 798.901 390.868 799.741C390.448 800.558 390.238 801.433 390.238 802.366C390.238 803.299 390.448 804.186 390.868 805.026C391.311 805.843 391.93 806.508 392.723 807.021C393.516 807.534 394.45 807.791 395.523 807.791C396.596 807.791 397.53 807.534 398.323 807.021C399.116 806.508 399.723 805.843 400.143 805.026C400.586 804.186 400.808 803.299 400.808 802.366C400.808 800.826 400.33 799.543 399.373 798.516C398.416 797.466 397.133 796.941 395.523 796.941Z" fill="black"/>
<path d="M375.996 184.041C373.78 184.041 371.738 183.516 369.871 182.466C368.028 181.393 366.558 179.9 365.461 177.986C364.365 176.073 363.816 173.891 363.816 171.441C363.816 168.991 364.365 166.81 365.461 164.896C366.558 162.983 368.028 161.501 369.871 160.451C371.738 159.378 373.78 158.841 375.996 158.841C378.89 158.841 381.305 159.611 383.241 161.151C385.178 162.691 386.403 164.733 386.916 167.276H383.556C383.066 165.596 382.156 164.29 380.826 163.356C379.496 162.4 377.875 161.921 375.961 161.921C374.211 161.921 372.671 162.33 371.341 163.146C370.035 163.963 369.02 165.095 368.296 166.541C367.596 167.988 367.246 169.621 367.246 171.441C367.246 173.261 367.596 174.895 368.296 176.341C369.02 177.788 370.035 178.92 371.341 179.736C372.671 180.553 374.211 180.961 375.961 180.961C377.875 180.961 379.496 180.495 380.826 179.561C382.156 178.605 383.066 177.286 383.556 175.606H386.916C386.566 177.286 385.901 178.768 384.921 180.051C383.941 181.311 382.681 182.291 381.141 182.991C379.625 183.691 377.91 184.041 375.996 184.041ZM399.368 184.041C397.548 184.041 395.962 183.645 394.608 182.851C393.278 182.058 392.24 181.008 391.493 179.701C390.747 178.371 390.327 176.913 390.233 175.326H393.383C393.5 177.006 394.072 178.371 395.098 179.421C396.148 180.448 397.548 180.961 399.298 180.961C400.978 180.961 402.297 180.46 403.253 179.456C404.233 178.43 404.723 177.018 404.723 175.221C404.723 173.471 404.14 172.13 402.973 171.196C401.807 170.24 400.372 169.761 398.668 169.761H397.898V166.716L402.798 162.271H391.318V159.191H406.998V162.376L401.433 167.171C403.347 167.638 404.945 168.536 406.228 169.866C407.512 171.173 408.153 172.958 408.153 175.221C408.153 176.855 407.768 178.348 406.998 179.701C406.228 181.055 405.167 182.116 403.813 182.886C402.483 183.656 401.002 184.041 399.368 184.041Z" fill="black"/>
<path d="M364.516 502.191H371.586C374.223 502.191 376.498 502.705 378.411 503.731C380.348 504.735 381.83 506.158 382.856 508.001C383.883 509.845 384.396 511.991 384.396 514.441C384.396 516.891 383.883 519.038 382.856 520.881C381.83 522.725 380.348 524.16 378.411 525.186C376.498 526.19 374.223 526.691 371.586 526.691H364.516V502.191ZM371.446 523.611C374.433 523.611 376.778 522.865 378.481 521.371C380.185 519.855 381.036 517.545 381.036 514.441C381.036 511.338 380.185 509.04 378.481 507.546C376.778 506.03 374.433 505.271 371.446 505.271H367.876V523.611H371.446ZM396.873 527.041C395.053 527.041 393.466 526.645 392.113 525.851C390.783 525.058 389.745 524.008 388.998 522.701C388.251 521.371 387.831 519.913 387.738 518.326H390.888C391.005 520.006 391.576 521.371 392.603 522.421C393.653 523.448 395.053 523.961 396.803 523.961C398.483 523.961 399.801 523.46 400.758 522.456C401.738 521.43 402.228 520.018 402.228 518.221C402.228 516.471 401.645 515.13 400.478 514.196C399.311 513.24 397.876 512.761 396.173 512.761H395.403V509.716L400.303 505.271H388.823V502.191H404.503V505.376L398.938 510.171C400.851 510.638 402.45 511.536 403.733 512.866C405.016 514.173 405.658 515.958 405.658 518.221C405.658 519.855 405.273 521.348 404.503 522.701C403.733 524.055 402.671 525.116 401.318 525.886C399.988 526.656 398.506 527.041 396.873 527.041Z" fill="black"/>
<path d="M374.996 380.041C372.78 380.041 370.738 379.516 368.871 378.466C367.028 377.393 365.558 375.9 364.461 373.986C363.365 372.073 362.816 369.891 362.816 367.441C362.816 364.991 363.365 362.81 364.461 360.896C365.558 358.983 367.028 357.501 368.871 356.451C370.738 355.378 372.78 354.841 374.996 354.841C377.89 354.841 380.305 355.611 382.241 357.151C384.178 358.691 385.403 360.733 385.916 363.276H382.556C382.066 361.596 381.156 360.29 379.826 359.356C378.496 358.4 376.875 357.921 374.961 357.921C373.211 357.921 371.671 358.33 370.341 359.146C369.035 359.963 368.02 361.095 367.296 362.541C366.596 363.988 366.246 365.621 366.246 367.441C366.246 369.261 366.596 370.895 367.296 372.341C368.02 373.788 369.035 374.92 370.341 375.736C371.671 376.553 373.211 376.961 374.961 376.961C376.875 376.961 378.496 376.495 379.826 375.561C381.156 374.605 382.066 373.286 382.556 371.606H385.916C385.566 373.286 384.901 374.768 383.921 376.051C382.941 377.311 381.681 378.291 380.141 378.991C378.625 379.691 376.91 380.041 374.996 380.041ZM402.638 358.271H390.283V355.191H406.103V357.851L396.723 379.691H393.468L402.638 358.271Z" fill="black"/>
<path d="M363.516 698.191H370.586C373.223 698.191 375.498 698.705 377.411 699.731C379.348 700.735 380.83 702.158 381.856 704.001C382.883 705.845 383.396 707.991 383.396 710.441C383.396 712.891 382.883 715.038 381.856 716.881C380.83 718.725 379.348 720.16 377.411 721.186C375.498 722.19 373.223 722.691 370.586 722.691H363.516V698.191ZM370.446 719.611C373.433 719.611 375.778 718.865 377.481 717.371C379.185 715.855 380.036 713.545 380.036 710.441C380.036 707.338 379.185 705.04 377.481 703.546C375.778 702.03 373.433 701.271 370.446 701.271H366.876V719.611H370.446ZM400.143 701.271H387.788V698.191H403.608V700.851L394.228 722.691H390.973L400.143 701.271Z" fill="black"/>
<path d="M363.516 892.211H370.586C373.223 892.211 375.498 892.724 377.411 893.751C379.348 894.754 380.83 896.178 381.856 898.021C382.883 899.864 383.396 902.011 383.396 904.461C383.396 906.911 382.883 909.058 381.856 910.901C380.83 912.744 379.348 914.179 377.411 915.206C375.498 916.209 373.223 916.711 370.586 916.711H363.516V892.211ZM370.446 913.631C373.433 913.631 375.778 912.884 377.481 911.391C379.185 909.874 380.036 907.564 380.036 904.461C380.036 901.358 379.185 899.059 377.481 897.566C375.778 896.049 373.433 895.291 370.446 895.291H366.876V913.631H370.446ZM388.593 913.631H394.018V896.901C393.458 897.391 392.828 897.729 392.128 897.916C391.451 898.079 390.518 898.161 389.328 898.161V895.361H389.888C391.148 895.361 392.116 895.116 392.793 894.626C393.47 894.113 393.878 893.308 394.018 892.211H397.378V913.631H402.803V916.711H388.593V913.631ZM409.648 913.631H415.073V896.901C414.513 897.391 413.883 897.729 413.183 897.916C412.506 898.079 411.573 898.161 410.383 898.161V895.361H410.943C412.203 895.361 413.171 895.116 413.848 894.626C414.524 894.113 414.933 893.308 415.073 892.211H418.433V913.631H423.858V916.711H409.648V913.631Z" fill="black"/>
<path d="M375.996 135.041C373.78 135.041 371.738 134.516 369.871 133.466C368.028 132.393 366.558 130.9 365.461 128.986C364.365 127.073 363.816 124.891 363.816 122.441C363.816 119.991 364.365 117.81 365.461 115.896C366.558 113.983 368.028 112.501 369.871 111.451C371.738 110.378 373.78 109.841 375.996 109.841C378.89 109.841 381.305 110.611 383.241 112.151C385.178 113.691 386.403 115.733 386.916 118.276H383.556C383.066 116.596 382.156 115.29 380.826 114.356C379.496 113.4 377.875 112.921 375.961 112.921C374.211 112.921 372.671 113.33 371.341 114.146C370.035 114.963 369.02 116.095 368.296 117.541C367.596 118.988 367.246 120.621 367.246 122.441C367.246 124.261 367.596 125.895 368.296 127.341C369.02 128.788 370.035 129.92 371.341 130.736C372.671 131.553 374.211 131.961 375.961 131.961C377.875 131.961 379.496 131.495 380.826 130.561C382.156 129.605 383.066 128.286 383.556 126.606H386.916C386.566 128.286 385.901 129.768 384.921 131.051C383.941 132.311 382.681 133.291 381.141 133.991C379.625 134.691 377.91 135.041 375.996 135.041ZM390.758 131.821L400.873 122.721C401.9 121.788 402.67 120.913 403.183 120.096C403.697 119.256 403.953 118.265 403.953 117.121C403.953 115.815 403.51 114.788 402.623 114.041C401.76 113.295 400.628 112.921 399.228 112.921C397.805 112.921 396.627 113.353 395.693 114.216C394.783 115.08 394.293 116.27 394.223 117.786H391.003C391.073 116.27 391.47 114.905 392.193 113.691C392.94 112.478 393.908 111.533 395.098 110.856C396.312 110.18 397.642 109.841 399.088 109.841C400.652 109.841 402.04 110.133 403.253 110.716C404.49 111.3 405.447 112.128 406.123 113.201C406.823 114.275 407.173 115.523 407.173 116.946C407.173 118.463 406.823 119.828 406.123 121.041C405.447 122.231 404.432 123.421 403.078 124.611L395.133 131.611H407.663V134.691H390.758V131.821Z" fill="black"/>
<path d="M364.516 453.191H371.586C374.223 453.191 376.498 453.705 378.411 454.731C380.348 455.735 381.83 457.158 382.856 459.001C383.883 460.845 384.396 462.991 384.396 465.441C384.396 467.891 383.883 470.038 382.856 471.881C381.83 473.725 380.348 475.16 378.411 476.186C376.498 477.19 374.223 477.691 371.586 477.691H364.516V453.191ZM371.446 474.611C374.433 474.611 376.778 473.865 378.481 472.371C380.185 470.855 381.036 468.545 381.036 465.441C381.036 462.338 380.185 460.04 378.481 458.546C376.778 457.03 374.433 456.271 371.446 456.271H367.876V474.611H371.446ZM388.263 474.821L398.378 465.721C399.405 464.788 400.175 463.913 400.688 463.096C401.201 462.256 401.458 461.265 401.458 460.121C401.458 458.815 401.015 457.788 400.128 457.041C399.265 456.295 398.133 455.921 396.733 455.921C395.31 455.921 394.131 456.353 393.198 457.216C392.288 458.08 391.798 459.27 391.728 460.786H388.508C388.578 459.27 388.975 457.905 389.698 456.691C390.445 455.478 391.413 454.533 392.603 453.856C393.816 453.18 395.146 452.841 396.593 452.841C398.156 452.841 399.545 453.133 400.758 453.716C401.995 454.3 402.951 455.128 403.628 456.201C404.328 457.275 404.678 458.523 404.678 459.946C404.678 461.463 404.328 462.828 403.628 464.041C402.951 465.231 401.936 466.421 400.583 467.611L392.638 474.611H405.168V477.691H388.263V474.821Z" fill="black"/>
<path d="M374.996 331.041C372.78 331.041 370.738 330.516 368.871 329.466C367.028 328.393 365.558 326.9 364.461 324.986C363.365 323.073 362.816 320.891 362.816 318.441C362.816 315.991 363.365 313.81 364.461 311.896C365.558 309.983 367.028 308.501 368.871 307.451C370.738 306.378 372.78 305.841 374.996 305.841C377.89 305.841 380.305 306.611 382.241 308.151C384.178 309.691 385.403 311.733 385.916 314.276H382.556C382.066 312.596 381.156 311.29 379.826 310.356C378.496 309.4 376.875 308.921 374.961 308.921C373.211 308.921 371.671 309.33 370.341 310.146C369.035 310.963 368.02 312.095 367.296 313.541C366.596 314.988 366.246 316.621 366.246 318.441C366.246 320.261 366.596 321.895 367.296 323.341C368.02 324.788 369.035 325.92 370.341 326.736C371.671 327.553 373.211 327.961 374.961 327.961C376.875 327.961 378.496 327.495 379.826 326.561C381.156 325.605 382.066 324.286 382.556 322.606H385.916C385.566 324.286 384.901 325.768 383.921 327.051C382.941 328.311 381.681 329.291 380.141 329.991C378.625 330.691 376.91 331.041 374.996 331.041ZM398.333 331.041C397.073 331.041 395.825 330.738 394.588 330.131C393.352 329.501 392.337 328.65 391.543 327.576C390.82 326.573 390.283 325.395 389.933 324.041C389.607 322.688 389.443 321.125 389.443 319.351C389.443 316.645 389.817 314.276 390.563 312.246C391.31 310.216 392.395 308.641 393.818 307.521C395.242 306.401 396.945 305.841 398.928 305.841C401.005 305.841 402.708 306.425 404.038 307.591C405.368 308.735 406.15 310.275 406.383 312.211H403.128C402.778 310.998 402.265 310.146 401.588 309.656C400.912 309.166 399.99 308.921 398.823 308.921C397.727 308.921 396.735 309.248 395.848 309.901C394.985 310.555 394.297 311.511 393.783 312.771C393.293 314.008 393.048 315.466 393.048 317.146C393.865 316.166 394.775 315.478 395.778 315.081C396.805 314.685 397.983 314.486 399.313 314.486C400.807 314.486 402.148 314.813 403.338 315.466C404.552 316.12 405.497 317.053 406.173 318.266C406.873 319.48 407.223 320.88 407.223 322.466C407.223 324.076 406.85 325.535 406.103 326.841C405.357 328.148 404.307 329.175 402.953 329.921C401.6 330.668 400.06 331.041 398.333 331.041ZM398.508 327.961C399.582 327.961 400.515 327.705 401.308 327.191C402.102 326.678 402.708 326.013 403.128 325.196C403.572 324.356 403.793 323.47 403.793 322.536C403.793 321.603 403.572 320.728 403.128 319.911C402.708 319.071 402.102 318.395 401.308 317.881C400.515 317.368 399.582 317.111 398.508 317.111C397.435 317.111 396.502 317.368 395.708 317.881C394.915 318.395 394.297 319.071 393.853 319.911C393.433 320.728 393.223 321.603 393.223 322.536C393.223 324.076 393.702 325.371 394.658 326.421C395.615 327.448 396.898 327.961 398.508 327.961Z" fill="black"/>
<path d="M363.516 649.191H370.586C373.223 649.191 375.498 649.705 377.411 650.731C379.348 651.735 380.83 653.158 381.856 655.001C382.883 656.845 383.396 658.991 383.396 661.441C383.396 663.891 382.883 666.038 381.856 667.881C380.83 669.725 379.348 671.16 377.411 672.186C375.498 673.19 373.223 673.691 370.586 673.691H363.516V649.191ZM370.446 670.611C373.433 670.611 375.778 669.865 377.481 668.371C379.185 666.855 380.036 664.545 380.036 661.441C380.036 658.338 379.185 656.04 377.481 654.546C375.778 653.03 373.433 652.271 370.446 652.271H366.876V670.611H370.446ZM395.838 674.041C394.578 674.041 393.33 673.738 392.093 673.131C390.856 672.501 389.841 671.65 389.048 670.576C388.325 669.573 387.788 668.395 387.438 667.041C387.111 665.688 386.948 664.125 386.948 662.351C386.948 659.645 387.321 657.276 388.068 655.246C388.815 653.216 389.9 651.641 391.323 650.521C392.746 649.401 394.45 648.841 396.433 648.841C398.51 648.841 400.213 649.425 401.543 650.591C402.873 651.735 403.655 653.275 403.888 655.211H400.633C400.283 653.998 399.77 653.146 399.093 652.656C398.416 652.166 397.495 651.921 396.328 651.921C395.231 651.921 394.24 652.248 393.353 652.901C392.49 653.555 391.801 654.511 391.288 655.771C390.798 657.008 390.553 658.466 390.553 660.146C391.37 659.166 392.28 658.478 393.283 658.081C394.31 657.685 395.488 657.486 396.818 657.486C398.311 657.486 399.653 657.813 400.843 658.466C402.056 659.12 403.001 660.053 403.678 661.266C404.378 662.48 404.728 663.88 404.728 665.466C404.728 667.076 404.355 668.535 403.608 669.841C402.861 671.148 401.811 672.175 400.458 672.921C399.105 673.668 397.565 674.041 395.838 674.041ZM396.013 670.961C397.086 670.961 398.02 670.705 398.813 670.191C399.606 669.678 400.213 669.013 400.633 668.196C401.076 667.356 401.298 666.47 401.298 665.536C401.298 664.603 401.076 663.728 400.633 662.911C400.213 662.071 399.606 661.395 398.813 660.881C398.02 660.368 397.086 660.111 396.013 660.111C394.94 660.111 394.006 660.368 393.213 660.881C392.42 661.395 391.801 662.071 391.358 662.911C390.938 663.728 390.728 664.603 390.728 665.536C390.728 667.076 391.206 668.371 392.163 669.421C393.12 670.448 394.403 670.961 396.013 670.961Z" fill="black"/>
<path d="M363.516 843.211H370.586C373.223 843.211 375.498 843.724 377.411 844.751C379.348 845.754 380.83 847.178 381.856 849.021C382.883 850.864 383.396 853.011 383.396 855.461C383.396 857.911 382.883 860.058 381.856 861.901C380.83 863.744 379.348 865.179 377.411 866.206C375.498 867.209 373.223 867.711 370.586 867.711H363.516V843.211ZM370.446 864.631C373.433 864.631 375.778 863.884 377.481 862.391C379.185 860.874 380.036 858.564 380.036 855.461C380.036 852.358 379.185 850.059 377.481 848.566C375.778 847.049 373.433 846.291 370.446 846.291H366.876V864.631H370.446ZM388.593 864.631H394.018V847.901C393.458 848.391 392.828 848.729 392.128 848.916C391.451 849.079 390.518 849.161 389.328 849.161V846.361H389.888C391.148 846.361 392.116 846.116 392.793 845.626C393.47 845.113 393.878 844.308 394.018 843.211H397.378V864.631H402.803V867.711H388.593V864.631ZM416.753 868.061C414.816 868.061 413.124 867.524 411.678 866.451C410.231 865.354 409.123 863.849 408.353 861.936C407.583 860.023 407.198 857.864 407.198 855.461C407.198 853.058 407.583 850.899 408.353 848.986C409.123 847.073 410.231 845.579 411.678 844.506C413.124 843.409 414.816 842.861 416.753 842.861C418.689 842.861 420.381 843.409 421.828 844.506C423.274 845.579 424.383 847.073 425.153 848.986C425.923 850.899 426.308 853.058 426.308 855.461C426.308 857.864 425.923 860.023 425.153 861.936C424.383 863.849 423.274 865.354 421.828 866.451C420.381 867.524 418.689 868.061 416.753 868.061ZM416.753 864.981C418.736 864.981 420.253 864.118 421.303 862.391C422.353 860.664 422.878 858.354 422.878 855.461C422.878 852.568 422.353 850.258 421.303 848.531C420.253 846.804 418.736 845.941 416.753 845.941C414.769 845.941 413.253 846.804 412.203 848.531C411.153 850.258 410.628 852.568 410.628 855.461C410.628 858.354 411.153 860.664 412.203 862.391C413.253 864.118 414.769 864.981 416.753 864.981Z" fill="black"/>
<path d="M375.996 233.041C373.78 233.041 371.738 232.516 369.871 231.466C368.028 230.393 366.558 228.9 365.461 226.986C364.365 225.073 363.816 222.891 363.816 220.441C363.816 217.991 364.365 215.81 365.461 213.896C366.558 211.983 368.028 210.501 369.871 209.451C371.738 208.378 373.78 207.841 375.996 207.841C378.89 207.841 381.305 208.611 383.241 210.151C385.178 211.691 386.403 213.733 386.916 216.276H383.556C383.066 214.596 382.156 213.29 380.826 212.356C379.496 211.4 377.875 210.921 375.961 210.921C374.211 210.921 372.671 211.33 371.341 212.146C370.035 212.963 369.02 214.095 368.296 215.541C367.596 216.988 367.246 218.621 367.246 220.441C367.246 222.261 367.596 223.895 368.296 225.341C369.02 226.788 370.035 227.92 371.341 228.736C372.671 229.553 374.211 229.961 375.961 229.961C377.875 229.961 379.496 229.495 380.826 228.561C382.156 227.605 383.066 226.286 383.556 224.606H386.916C386.566 226.286 385.901 227.768 384.921 229.051C383.941 230.311 382.681 231.291 381.141 231.991C379.625 232.691 377.91 233.041 375.996 233.041ZM401.748 227.301H390.338V224.221L401.958 208.191H405.108V224.221H408.048V227.301H405.108V232.691H401.748V227.301ZM401.748 224.221V213.476L393.908 224.221H401.748Z" fill="black"/>
<path d="M364.516 551.191H371.586C374.223 551.191 376.498 551.705 378.411 552.731C380.348 553.735 381.83 555.158 382.856 557.001C383.883 558.845 384.396 560.991 384.396 563.441C384.396 565.891 383.883 568.038 382.856 569.881C381.83 571.725 380.348 573.16 378.411 574.186C376.498 575.19 374.223 575.691 371.586 575.691H364.516V551.191ZM371.446 572.611C374.433 572.611 376.778 571.865 378.481 570.371C380.185 568.855 381.036 566.545 381.036 563.441C381.036 560.338 380.185 558.04 378.481 556.546C376.778 555.03 374.433 554.271 371.446 554.271H367.876V572.611H371.446ZM399.253 570.301H387.843V567.221L399.463 551.191H402.613V567.221H405.553V570.301H402.613V575.691H399.253V570.301ZM399.253 567.221V556.476L391.413 567.221H399.253Z" fill="black"/>
<path d="M363.516 404.191H370.586C373.223 404.191 375.498 404.705 377.411 405.731C379.348 406.735 380.83 408.158 381.856 410.001C382.883 411.845 383.396 413.991 383.396 416.441C383.396 418.891 382.883 421.038 381.856 422.881C380.83 424.725 379.348 426.16 377.411 427.186C375.498 428.19 373.223 428.691 370.586 428.691H363.516V404.191ZM370.446 425.611C373.433 425.611 375.778 424.865 377.481 423.371C379.185 421.855 380.036 419.545 380.036 416.441C380.036 413.338 379.185 411.04 377.481 409.546C375.778 408.03 373.433 407.271 370.446 407.271H366.876V425.611H370.446ZM389.635 408.881C389.075 409.371 388.445 409.71 387.745 409.896C387.068 410.06 386.135 410.141 384.945 410.141V407.341H385.505C386.765 407.341 387.733 407.096 388.41 406.606C389.087 406.093 389.495 405.288 389.635 404.191H392.995V428.691H389.635V408.881Z" fill="black"/>
<path d="M363.516 747.191H370.586C373.223 747.191 375.498 747.705 377.411 748.731C379.348 749.735 380.83 751.158 381.856 753.001C382.883 754.845 383.396 756.991 383.396 759.441C383.396 761.891 382.883 764.038 381.856 765.881C380.83 767.725 379.348 769.16 377.411 770.186C375.498 771.19 373.223 771.691 370.586 771.691H363.516V747.191ZM370.446 768.611C373.433 768.611 375.778 767.865 377.481 766.371C379.185 764.855 380.036 762.545 380.036 759.441C380.036 756.338 379.185 754.04 377.481 752.546C375.778 751.03 373.433 750.271 370.446 750.271H366.876V768.611H370.446ZM395.698 772.041C394.065 772.041 392.63 771.715 391.393 771.061C390.156 770.385 389.211 769.463 388.558 768.296C387.905 767.13 387.578 765.811 387.578 764.341C387.578 762.988 387.916 761.775 388.593 760.701C389.27 759.605 390.156 758.753 391.253 758.146C390.46 757.563 389.83 756.828 389.363 755.941C388.92 755.031 388.698 754.075 388.698 753.071C388.698 751.881 389.001 750.82 389.608 749.886C390.238 748.93 391.09 748.183 392.163 747.646C393.236 747.11 394.415 746.841 395.698 746.841C396.981 746.841 398.16 747.11 399.233 747.646C400.306 748.183 401.146 748.93 401.753 749.886C402.383 750.82 402.698 751.881 402.698 753.071C402.698 754.075 402.465 755.031 401.998 755.941C401.555 756.828 400.936 757.563 400.143 758.146C401.24 758.753 402.126 759.605 402.803 760.701C403.48 761.775 403.818 762.988 403.818 764.341C403.818 765.811 403.491 767.13 402.838 768.296C402.185 769.463 401.24 770.385 400.003 771.061C398.766 771.715 397.331 772.041 395.698 772.041ZM395.698 756.921C396.818 756.921 397.728 756.583 398.428 755.906C399.128 755.23 399.478 754.343 399.478 753.246C399.478 752.15 399.128 751.263 398.428 750.586C397.728 749.91 396.818 749.571 395.698 749.571C394.578 749.571 393.668 749.91 392.968 750.586C392.268 751.263 391.918 752.15 391.918 753.246C391.918 754.343 392.268 755.23 392.968 755.906C393.668 756.583 394.578 756.921 395.698 756.921ZM395.698 768.961C397.005 768.961 398.113 768.53 399.023 767.666C399.933 766.78 400.388 765.648 400.388 764.271C400.388 762.895 399.933 761.775 399.023 760.911C398.113 760.025 397.005 759.581 395.698 759.581C394.391 759.581 393.283 760.025 392.373 760.911C391.463 761.775 391.008 762.895 391.008 764.271C391.008 765.648 391.463 766.78 392.373 767.666C393.283 768.53 394.391 768.961 395.698 768.961Z" fill="black"/>
<path d="M363.516 941.211H370.586C373.223 941.211 375.498 941.724 377.411 942.751C379.348 943.754 380.83 945.178 381.856 947.021C382.883 948.864 383.396 951.011 383.396 953.461C383.396 955.911 382.883 958.058 381.856 959.901C380.83 961.744 379.348 963.179 377.411 964.206C375.498 965.209 373.223 965.711 370.586 965.711H363.516V941.211ZM370.446 962.631C373.433 962.631 375.778 961.884 377.481 960.391C379.185 958.874 380.036 956.564 380.036 953.461C380.036 950.358 379.185 948.059 377.481 946.566C375.778 945.049 373.433 944.291 370.446 944.291H366.876V962.631H370.446ZM388.593 962.631H394.018V945.901C393.458 946.391 392.828 946.729 392.128 946.916C391.451 947.079 390.518 947.161 389.328 947.161V944.361H389.888C391.148 944.361 392.116 944.116 392.793 943.626C393.47 943.113 393.878 942.308 394.018 941.211H397.378V962.631H402.803V965.711H388.593V962.631ZM408.318 962.841L418.433 953.741C419.459 952.808 420.229 951.933 420.743 951.116C421.256 950.276 421.513 949.284 421.513 948.141C421.513 946.834 421.069 945.808 420.183 945.061C419.319 944.314 418.188 943.941 416.788 943.941C415.364 943.941 414.186 944.373 413.253 945.236C412.343 946.099 411.853 947.289 411.783 948.806H408.563C408.633 947.289 409.029 945.924 409.753 944.711C410.499 943.498 411.468 942.553 412.658 941.876C413.871 941.199 415.201 940.861 416.648 940.861C418.211 940.861 419.599 941.153 420.813 941.736C422.049 942.319 423.006 943.148 423.683 944.221C424.383 945.294 424.733 946.543 424.733 947.966C424.733 949.483 424.383 950.848 423.683 952.061C423.006 953.251 421.991 954.441 420.638 955.631L412.693 962.631H425.223V965.711H408.318V962.841Z" fill="black"/>
<path d="M44.8758 1071.49H48.2358V1092.91H60.3108V1095.99H44.8758V1071.49ZM65.7142 1092.91H71.1392V1076.18C70.5792 1076.67 69.9492 1077.01 69.2492 1077.19C68.5725 1077.36 67.6392 1077.44 66.4492 1077.44V1074.64H67.0092C68.2692 1074.64 69.2375 1074.39 69.9142 1073.9C70.5908 1073.39 70.9992 1072.58 71.1392 1071.49H74.4992V1092.91H79.9242V1095.99H65.7142V1092.91Z" fill="black"/>
<path d="M44.8758 1120.49H48.2358V1141.91H60.3108V1144.99H44.8758V1120.49ZM64.3842 1142.12L74.4992 1133.02C75.5258 1132.08 76.2958 1131.21 76.8092 1130.39C77.3225 1129.55 77.5792 1128.56 77.5792 1127.42C77.5792 1126.11 77.1358 1125.08 76.2492 1124.34C75.3858 1123.59 74.2542 1123.22 72.8542 1123.22C71.4308 1123.22 70.2525 1123.65 69.3192 1124.51C68.4092 1125.38 67.9192 1126.57 67.8492 1128.08H64.6292C64.6992 1126.57 65.0958 1125.2 65.8192 1123.99C66.5658 1122.77 67.5342 1121.83 68.7242 1121.15C69.9375 1120.48 71.2675 1120.14 72.7142 1120.14C74.2775 1120.14 75.6658 1120.43 76.8792 1121.01C78.1158 1121.6 79.0725 1122.42 79.7492 1123.5C80.4492 1124.57 80.7992 1125.82 80.7992 1127.24C80.7992 1128.76 80.4492 1130.12 79.7492 1131.34C79.0725 1132.53 78.0575 1133.72 76.7042 1134.91L68.7592 1141.91H81.2892V1144.99H64.3842V1142.12Z" fill="black"/>
<path d="M44.8758 1169.49H48.2358V1190.91H60.3108V1193.99H44.8758V1169.49ZM72.9942 1194.34C71.1742 1194.34 69.5875 1193.94 68.2342 1193.15C66.9042 1192.35 65.8658 1191.3 65.1192 1190C64.3725 1188.67 63.9525 1187.21 63.8592 1185.62H67.0092C67.1258 1187.3 67.6975 1188.67 68.7242 1189.72C69.7742 1190.74 71.1742 1191.26 72.9242 1191.26C74.6042 1191.26 75.9225 1190.76 76.8792 1189.75C77.8592 1188.73 78.3492 1187.31 78.3492 1185.52C78.3492 1183.77 77.7658 1182.43 76.5992 1181.49C75.4325 1180.54 73.9975 1180.06 72.2942 1180.06H71.5242V1177.01L76.4242 1172.57H64.9442V1169.49H80.6242V1172.67L75.0592 1177.47C76.9725 1177.93 78.5708 1178.83 79.8542 1180.16C81.1375 1181.47 81.7792 1183.25 81.7792 1185.52C81.7792 1187.15 81.3942 1188.64 80.6242 1190C79.8542 1191.35 78.7925 1192.41 77.4392 1193.18C76.1092 1193.95 74.6275 1194.34 72.9942 1194.34Z" fill="black"/>
<path d="M44.8758 1218.49H48.2358V1239.91H60.3108V1242.99H44.8758V1218.49ZM75.3742 1237.6H63.9642V1234.52L75.5842 1218.49H78.7342V1234.52H81.6742V1237.6H78.7342V1242.99H75.3742V1237.6ZM75.3742 1234.52V1223.77L67.5342 1234.52H75.3742Z" fill="black"/>
<path d="M44.8758 1267.49H48.2358V1288.91H60.3108V1291.99H44.8758V1267.49ZM72.6792 1292.34C71.0692 1292.34 69.6108 1292 68.3042 1291.32C66.9975 1290.65 65.9475 1289.7 65.1542 1288.49C64.3842 1287.27 63.9525 1285.89 63.8592 1284.32H67.2192C67.3825 1285.7 67.9308 1286.87 68.8642 1287.82C69.7975 1288.78 71.0692 1289.26 72.6792 1289.26C74.4058 1289.26 75.7708 1288.73 76.7742 1287.68C77.8008 1286.63 78.3142 1285.17 78.3142 1283.31C78.3142 1281.46 77.8008 1280.04 76.7742 1279.04C75.7708 1278.01 74.4992 1277.5 72.9592 1277.5C71.5825 1277.5 70.4275 1277.7 69.4942 1278.09C68.5842 1278.47 67.7325 1278.93 66.9392 1279.49L64.5242 1278.34L66.0642 1267.49H79.8542V1270.57H68.6192L67.6042 1276.41C68.3508 1275.9 69.2375 1275.48 70.2642 1275.15C71.2908 1274.83 72.3408 1274.66 73.4142 1274.66C75.9575 1274.66 77.9758 1275.43 79.4692 1276.97C80.9858 1278.49 81.7442 1280.57 81.7442 1283.2C81.7442 1284.84 81.3825 1286.35 80.6592 1287.75C79.9358 1289.13 78.8858 1290.24 77.5092 1291.08C76.1325 1291.92 74.5225 1292.34 72.6792 1292.34Z" fill="black"/>
<path d="M163.288 1600.31H166.168V1609.25L174.178 1600.31H177.568L168.688 1610.21L177.988 1621.31H174.268L166.168 1611.65V1621.31H163.288V1600.31ZM191.896 1621.61C189.956 1621.61 188.186 1621.16 186.586 1620.26C185.006 1619.34 183.756 1618.06 182.836 1616.42C181.916 1614.78 181.456 1612.91 181.456 1610.81C181.456 1608.71 181.916 1606.84 182.836 1605.2C183.756 1603.56 185.006 1602.29 186.586 1601.39C188.186 1600.47 189.956 1600.01 191.896 1600.01C193.836 1600.01 195.596 1600.47 197.176 1601.39C198.776 1602.29 200.036 1603.56 200.956 1605.2C201.876 1606.84 202.336 1608.71 202.336 1610.81C202.336 1612.91 201.876 1614.78 200.956 1616.42C200.036 1618.06 198.776 1619.34 197.176 1620.26C195.596 1621.16 193.836 1621.61 191.896 1621.61ZM191.896 1618.97C193.396 1618.97 194.716 1618.63 195.856 1617.95C196.996 1617.25 197.866 1616.29 198.466 1615.07C199.086 1613.83 199.396 1612.41 199.396 1610.81C199.396 1609.21 199.086 1607.8 198.466 1606.58C197.866 1605.34 196.996 1604.38 195.856 1603.7C194.716 1603 193.396 1602.65 191.896 1602.65C190.396 1602.65 189.076 1603 187.936 1603.7C186.796 1604.38 185.916 1605.34 185.296 1606.58C184.696 1607.8 184.396 1609.21 184.396 1610.81C184.396 1612.41 184.696 1613.83 185.296 1615.07C185.916 1616.29 186.796 1617.25 187.936 1617.95C189.076 1618.63 190.396 1618.97 191.896 1618.97ZM209.233 1600.31H224.683V1621.31H221.803V1602.95H212.113V1621.31H209.233V1600.31ZM232.191 1600.31H235.071V1616.96L244.731 1600.31H247.971V1621.31H245.091V1604.66L235.431 1621.31H232.191V1600.31ZM269.632 1600.31V1621.31H266.752V1612.01C266.112 1612.43 265.342 1612.77 264.442 1613.03C263.542 1613.29 262.612 1613.42 261.652 1613.42C259.712 1613.42 258.192 1613 257.092 1612.16C256.012 1611.3 255.472 1610.05 255.472 1608.41V1600.31H258.352V1607.93C258.352 1608.93 258.652 1609.66 259.252 1610.12C259.872 1610.56 260.772 1610.78 261.952 1610.78C263.692 1610.78 265.292 1610.27 266.752 1609.25V1600.31H269.632ZM277.141 1600.31H280.021V1609.25L288.031 1600.31H291.421L282.541 1610.21L291.841 1621.31H288.121L280.021 1611.65V1621.31H277.141V1600.31Z" fill="black"/>
<path d="M207.811 1469.85H210.691V1478.79L218.701 1469.85H222.091L213.211 1479.75L222.511 1490.85H218.791L210.691 1481.19V1490.85H207.811V1469.85ZM228.865 1469.85H236.065C238.425 1469.85 240.305 1470.47 241.705 1471.71C243.125 1472.93 243.835 1474.6 243.835 1476.72C243.835 1478.84 243.125 1480.52 241.705 1481.76C240.305 1482.98 238.425 1483.59 236.065 1483.59H231.745V1490.85H228.865V1469.85ZM236.125 1480.95C239.345 1480.95 240.955 1479.54 240.955 1476.72C240.955 1473.9 239.345 1472.49 236.125 1472.49H231.745V1480.95H236.125ZM250.739 1469.85H263.309V1472.49H253.619V1479.03H262.499V1481.67H253.619V1488.21H263.639V1490.85H250.739V1469.85ZM279.817 1491.15C277.917 1491.15 276.167 1490.7 274.567 1489.8C272.987 1488.88 271.727 1487.6 270.787 1485.96C269.847 1484.32 269.377 1482.45 269.377 1480.35C269.377 1478.25 269.847 1476.38 270.787 1474.74C271.727 1473.1 272.987 1471.83 274.567 1470.93C276.167 1470.01 277.917 1469.55 279.817 1469.55C282.297 1469.55 284.367 1470.21 286.027 1471.53C287.687 1472.85 288.737 1474.6 289.177 1476.78H286.297C285.877 1475.34 285.097 1474.22 283.957 1473.42C282.817 1472.6 281.427 1472.19 279.787 1472.19C278.287 1472.19 276.967 1472.54 275.827 1473.24C274.707 1473.94 273.837 1474.91 273.217 1476.15C272.617 1477.39 272.317 1478.79 272.317 1480.35C272.317 1481.91 272.617 1483.31 273.217 1484.55C273.837 1485.79 274.707 1486.76 275.827 1487.46C276.967 1488.16 278.287 1488.51 279.787 1488.51C281.427 1488.51 282.817 1488.11 283.957 1487.31C285.097 1486.49 285.877 1485.36 286.297 1483.92H289.177C288.877 1485.36 288.307 1486.63 287.467 1487.73C286.627 1488.81 285.547 1489.65 284.227 1490.25C282.927 1490.85 281.457 1491.15 279.817 1491.15ZM299.188 1472.49H293.848V1469.85H307.408V1472.49H302.068V1490.85H299.188V1472.49ZM313.901 1469.85H326.471V1472.49H316.781V1479.03H325.661V1481.67H316.781V1488.21H326.801V1490.85H313.901V1469.85ZM348.811 1490.85H333.871V1469.85H336.751V1488.21H346.411V1469.85H349.291V1488.21H351.691V1494.45H348.811V1490.85Z" fill="black"/>
</svg>
