<svg width="469" height="1685" viewBox="0 0 469 1685" fill="none" xmlns="http://www.w3.org/2000/svg">
<g clip-path="url(#clip0_427_4512)">
<path d="M129.525 1664.37C130.915 1667.19 129.525 1671.37 126.744 1669.98L129.525 1664.37Z" stroke="#1D1D1B" stroke-width="5.17"/>
<path d="M129.525 1664.37C130.915 1667.19 129.525 1671.37 126.744 1669.98" stroke="#1D1D1B" stroke-width="5.17" stroke-linecap="round" stroke-linejoin="round"/>
<path d="M116.966 1660.15C121.138 1661.59 123.918 1660.15 123.918 1655.98L116.966 1660.15Z" stroke="#1D1D1B" stroke-width="5.17"/>
<path d="M116.966 1660.15C121.138 1661.59 123.918 1660.15 123.918 1655.98" stroke="#1D1D1B" stroke-width="5.17" stroke-linecap="round" stroke-linejoin="round"/>
<path d="M115.531 1643.37C114.141 1650.41 108.579 1644.81 104.363 1643.37H115.531Z" stroke="#1D1D1B" stroke-width="5.17"/>
<path d="M115.531 1643.37C114.141 1650.41 108.579 1644.81 104.363 1643.37" stroke="#1D1D1B" stroke-width="5.17" stroke-linecap="round" stroke-linejoin="round"/>
<path d="M87.6785 1601.33C89.1145 1602.72 103.062 1604.11 103.062 1602.72L87.6785 1601.33Z" stroke="#1D1D1B" stroke-width="5.17"/>
<path d="M87.6785 1601.33C89.1145 1602.72 103.062 1604.11 103.062 1602.72" stroke="#1D1D1B" stroke-width="5.17" stroke-linecap="round" stroke-linejoin="round"/>
<path d="M193.797 419.908C189.242 423.347 183.992 425.751 178.413 426.953C150.471 431.125 147.69 422.735 135.132 432.516C121.138 440.951 122.528 407.3 137.912 415.736C142.084 417.126 155.853 404.519 163.074 407.3C172.852 411.518 182.629 403.083 189.626 400.301C182.629 401.692 175.633 398.91 167.2 400.301C164.42 400.301 163.029 389.084 172.807 387.693C216.089 382.084 204.965 362.477 220.305 369.477C224.319 370.608 228.575 370.549 232.556 369.306C236.537 368.064 240.072 365.691 242.73 362.477L241.295 354.042C220.349 363.868 209.181 356.869 203.575 368.086C202.185 372.258 200.794 365.259 200.794 363.868C198.013 337.216 216.133 358.26 223.22 341.434C230.307 324.609 248.382 341.434 248.382 320.436C247.265 318.792 246.772 316.803 246.991 314.827C221.74 321.827 217.748 323.218 213.263 333.223C213.263 334.614 203.485 343.004 206.266 334.614C207.701 330.397 203.485 309.398 214.653 315.007C228.647 323.397 224.476 298.181 237.079 296.79C246.857 295.355 249.638 292.573 253.854 284.138C246.857 285.573 242.686 284.138 245.466 274.356C227.526 275.747 220.305 298.181 203.53 299.572C196.578 300.963 202.14 295.355 203.53 286.964C203.53 274.356 218.914 282.747 221.471 267.357C224.296 256.14 238.245 263.139 241.026 250.531C241.026 244.923 220.08 247.705 199.135 264.53C194.919 242.096 193.528 243.532 214.474 226.706C235.42 209.881 231.248 236.533 254.84 212.708C255.957 211.629 256.79 210.291 257.264 208.812C257.739 207.333 257.841 205.76 257.562 204.233C257.282 202.705 256.629 201.271 255.662 200.056C254.694 198.842 253.441 197.886 252.015 197.273C239.456 195.882 215.685 209.881 210.123 200.1C201.736 181.883 242.282 191.665 246.453 183.274C253.45 177.666 231.069 169.231 260.402 170.666L263.228 165.058C266.008 163.622 267.399 162.231 270.224 162.231L268.789 170.666C284.173 165.058 298.167 153.841 295.341 167.84C292.56 177.666 312.116 162.231 307.945 180.448C307.945 186.056 296.732 191.665 296.732 200.1C307.945 200.1 303.729 223.88 307.945 230.924C316.332 246.314 293.951 239.314 288.389 236.533L286.954 239.314C289.78 260.313 307.945 244.923 304.895 257.531C301.845 270.139 310.501 271.53 307.72 281.356C307.72 285.573 295.117 279.965 285.295 275.747L283.904 277.138C290.901 281.356 288.12 289.746 301.845 291.182C308.842 291.182 304.626 330.397 297.674 326.179C293.458 322.006 290.677 315.007 282.289 319.179L280.899 320.615C284.622 333.223 298.481 333.223 298.481 347.043C297.046 352.651 295.655 377.867 288.703 368.086C285.571 362.967 281.227 358.699 276.055 355.657C275.515 356.198 274.858 356.609 274.135 356.858C273.413 357.106 272.643 357.187 271.884 357.093C276.055 378.091 274.665 362.701 285.833 378.091C290.049 383.7 278.836 390.699 276.055 401.916C273.274 411.742 267.668 387.917 257.89 397.743C262.106 411.742 252.284 407.525 270.494 414.524C274.665 415.96 260.671 435.567 260.671 441.176C259.281 445.393 249.503 435.567 249.503 432.74C239.725 438.349 225.777 432.74 224.386 421.523L216.133 422.959C205.01 408.916 203.575 414.524 193.708 420.133" stroke="#1D1D1B" stroke-width="5.17"/>
<path d="M193.797 419.908C189.242 423.347 183.992 425.751 178.413 426.953C150.471 431.125 147.69 422.735 135.132 432.516C121.138 440.951 122.528 407.3 137.912 415.736C142.084 417.126 155.853 404.519 163.074 407.3C172.852 411.518 182.629 403.083 189.626 400.301C182.629 401.692 175.633 398.91 167.2 400.301C164.42 400.301 163.029 389.084 172.807 387.693C216.089 382.084 204.965 362.477 220.305 369.477C224.319 370.608 228.575 370.549 232.556 369.306C236.537 368.064 240.072 365.691 242.73 362.477L241.295 354.042C220.349 363.868 209.181 356.869 203.575 368.086C202.185 372.258 200.794 363.868 200.794 363.868C198.013 337.216 216.133 358.26 223.22 341.434C230.307 324.609 248.382 341.434 248.382 320.436C247.265 318.792 246.772 316.803 246.991 314.827C221.74 321.827 217.748 323.218 213.263 333.223C213.263 334.614 203.485 343.004 206.266 334.614C207.701 330.397 203.485 309.398 214.653 315.007C228.647 323.397 224.476 298.181 237.079 296.79C246.857 295.355 249.638 292.573 253.854 284.138C246.857 285.573 242.686 284.138 245.466 274.356C227.526 275.747 220.305 298.181 203.53 299.572C196.578 300.963 202.14 295.355 203.53 286.964C203.53 274.356 218.914 282.747 221.471 267.357C224.296 256.14 238.245 263.139 241.026 250.531C241.026 244.923 220.08 247.705 199.135 264.53C194.919 242.096 193.528 243.532 214.474 226.706C235.42 209.881 231.248 236.533 254.84 212.708C255.957 211.629 256.79 210.291 257.264 208.812C257.739 207.333 257.841 205.76 257.562 204.233C257.282 202.705 256.629 201.271 255.662 200.056C254.694 198.842 253.441 197.886 252.015 197.273C239.456 195.882 215.685 209.881 210.123 200.1C201.736 181.883 242.282 191.665 246.453 183.274C253.45 177.666 231.069 169.231 260.402 170.666L263.228 165.058C266.008 163.622 267.399 162.231 270.224 162.231L268.789 170.666C284.173 165.058 298.167 153.841 295.341 167.84C292.56 177.666 312.116 162.231 307.945 180.448C307.945 186.056 296.732 191.665 296.732 200.1C307.945 200.1 303.729 223.88 307.945 230.924C316.332 246.314 293.951 239.314 288.389 236.533L286.954 239.314C289.78 260.313 307.945 244.923 304.895 257.531C301.845 270.139 310.501 271.53 307.72 281.356C307.72 285.573 295.117 279.965 285.295 275.747L283.904 277.138C290.901 281.356 288.12 289.746 301.845 291.182C308.842 291.182 304.626 330.397 297.674 326.179C293.458 322.006 290.677 315.007 282.289 319.179L280.899 320.615C284.622 333.223 298.481 333.223 298.481 347.043C298.481 352.651 295.655 377.867 288.703 368.086C285.571 362.967 281.227 358.699 276.055 355.657C275.515 356.198 274.858 356.609 274.135 356.858C273.413 357.106 272.643 357.187 271.884 357.093C276.055 378.091 274.665 362.701 285.833 378.091C290.049 383.7 278.836 390.699 276.055 401.916C273.274 411.742 267.668 387.917 257.89 397.743C262.106 411.742 252.284 407.525 270.494 414.524C274.665 415.96 260.671 435.567 260.671 441.176C259.281 445.393 249.503 435.567 249.503 432.74C239.725 438.349 225.777 432.74 224.386 421.523L216.133 422.959C205.01 408.691 203.575 414.3 193.797 419.908Z" fill="#FC8B75" stroke="#1D1D1B" stroke-width="5.17" stroke-linecap="round" stroke-linejoin="round"/>
<path d="M258.113 206.918C263.719 220.916 288.881 202.7 297.223 199.918" stroke="#1D1D1B" stroke-width="5.17" stroke-linecap="round" stroke-linejoin="round"/>
<path d="M277.626 222.309C284.622 211.092 286.013 230.699 277.626 230.699V222.309Z" stroke="#1D1D1B" stroke-width="5.17"/>
<path d="M277.626 222.309C284.622 211.092 286.013 230.699 277.626 230.699" stroke="#1D1D1B" stroke-width="5.17" stroke-linecap="round" stroke-linejoin="round"/>
<path d="M287.402 238.998C279.015 254.433 266.457 230.608 259.46 238.998C255.289 243.215 251.073 255.823 241.519 250.215" stroke="#1D1D1B" stroke-width="5.17"/>
<path d="M287.402 238.998C279.015 254.433 266.457 230.608 259.46 238.998C255.289 243.215 251.073 255.823 241.519 250.215" stroke="#1D1D1B" stroke-width="5.17" stroke-linecap="round" stroke-linejoin="round"/>
<path d="M286.012 251.742C286.012 261.569 274.844 267.177 274.844 254.569L286.012 251.742Z" stroke="#1D1D1B" stroke-width="5.17"/>
<path d="M286.012 251.742C286.012 261.569 274.844 267.177 274.844 254.569" stroke="#1D1D1B" stroke-width="5.17" stroke-linecap="round" stroke-linejoin="round"/>
<path d="M283.043 188.187C283.043 195.046 276.246 198.395 275.86 190.273Z" stroke="#1D1D1B" stroke-width="5.17" stroke-linecap="round" stroke-linejoin="round"/>
<path d="M284.621 276.956C276.234 286.782 274.843 271.348 267.846 268.566" stroke="#1D1D1B" stroke-width="5.17"/>
<path d="M284.621 276.956C276.234 286.782 274.843 271.348 267.846 268.566" stroke="#1D1D1B" stroke-width="5.17" stroke-linecap="round" stroke-linejoin="round"/>
<path d="M272.062 272.785C266.472 277.102 260.461 280.845 254.122 283.958L272.062 272.785Z" stroke="#1D1D1B" stroke-width="5.17"/>
<path d="M272.062 272.785C266.472 277.102 260.461 280.845 254.122 283.958" stroke="#1D1D1B" stroke-width="5.17" stroke-linecap="round" stroke-linejoin="round"/>
<path d="M245.512 274.175L248.293 269.957" stroke="#1D1D1B" stroke-width="5.17"/>
<path d="M245.512 274.175L248.293 269.957" stroke="#1D1D1B" stroke-width="5.17" stroke-linecap="round" stroke-linejoin="round"/>
<path d="M248.293 307.781L246.903 314.78" stroke="#1D1D1B" stroke-width="5.17"/>
<path d="M248.293 307.781L246.903 314.78" stroke="#1D1D1B" stroke-width="5.17" stroke-linecap="round" stroke-linejoin="round"/>
<path d="M248.295 320.437C251.075 321.828 258.072 316.219 265.069 314.828C269.24 324.61 276.237 324.61 281.844 320.437" stroke="#1D1D1B" stroke-width="5.17" stroke-linecap="round" stroke-linejoin="round"/>
<path d="M283.23 319C287.644 314.374 290.566 308.527 291.617 302.219L283.23 319Z" stroke="#1D1D1B" stroke-width="5.17"/>
<path d="M283.23 319C287.644 314.374 290.566 308.527 291.617 302.219" stroke="#1D1D1B" stroke-width="5.17" stroke-linecap="round" stroke-linejoin="round"/>
<path d="M283.23 303.609C277.623 311.999 269.236 307.782 272.062 298L283.23 303.609Z" stroke="#1D1D1B" stroke-width="5.17"/>
<path d="M283.23 303.609C277.623 311.999 269.236 307.782 272.062 298" stroke="#1D1D1B" stroke-width="5.17" stroke-linecap="round" stroke-linejoin="round"/>
<path d="M276.055 344.215C264.887 348.433 269.058 337.216 267.668 333.043L276.055 344.215Z" stroke="#1D1D1B" stroke-width="5.17"/>
<path d="M276.055 344.215C264.887 348.433 269.058 337.216 267.668 333.043" stroke="#1D1D1B" stroke-width="5.17" stroke-linecap="round" stroke-linejoin="round"/>
<path d="M284.621 344.215C282.029 348.219 279.166 352.042 276.054 355.657L284.442 344.439" stroke="#1D1D1B" stroke-width="5.17"/>
<path d="M284.621 344.215C282.029 348.219 279.166 352.042 276.054 355.657" stroke="#1D1D1B" stroke-width="5.17" stroke-linecap="round" stroke-linejoin="round"/>
<path d="M272.062 356.867C266.457 358.258 262.285 352.65 256.678 342.824" stroke="#1D1D1B" stroke-width="5.17" stroke-linecap="round" stroke-linejoin="round"/>
<path d="M260.852 348.434C253.9 349.87 248.294 356.869 242.912 362.478" stroke="#1D1D1B" stroke-width="5.17" stroke-linecap="round" stroke-linejoin="round"/>
<path d="M262.285 368.082C263.645 370.163 264.37 372.595 264.37 375.082C264.37 377.568 263.645 380 262.285 382.081C253.897 390.471 273.453 387.69 270.672 377.864L262.285 368.082Z" stroke="#1D1D1B" stroke-width="5.17"/>
<path d="M262.285 368.082C263.645 370.163 264.37 372.595 264.37 375.082C264.37 377.568 263.645 380 262.285 382.081C253.897 390.471 273.453 387.69 270.672 377.864" stroke="#1D1D1B" stroke-width="5.17" stroke-linecap="round" stroke-linejoin="round"/>
<path d="M258.113 397.518C248.335 405.908 244.164 377.866 237.167 389.083C230.17 398.909 214.742 391.865 189.67 400.3" stroke="#1D1D1B" stroke-width="5.17"/>
<path d="M258.113 397.518C248.335 405.908 244.164 377.866 237.167 389.083C230.17 398.909 214.742 391.865 189.67 400.3" stroke="#1D1D1B" stroke-width="5.17" stroke-linecap="round" stroke-linejoin="round"/>
<path d="M244.121 400.523C244.629 407.328 243.165 414.136 239.905 420.13C238.514 422.957 249.682 422.957 253.898 417.348L244.121 400.523Z" stroke="#1D1D1B" stroke-width="5.17"/>
<path d="M244.121 400.523C244.629 407.328 243.165 414.136 239.905 420.13C238.514 422.957 249.682 422.957 253.898 417.348" stroke="#1D1D1B" stroke-width="5.17" stroke-linecap="round" stroke-linejoin="round"/>
<path d="M252.465 429.734L249.684 432.516" stroke="#1D1D1B" stroke-width="5.17"/>
<path d="M252.465 429.734L249.684 432.516" stroke="#1D1D1B" stroke-width="5.17" stroke-linecap="round" stroke-linejoin="round"/>
<path d="M188.193 1116.39C175.634 1120.61 156.079 1134.61 151.863 1122.05C142.085 1095.4 184.021 1096.79 185.412 1070.18C179.85 1067.35 175.634 1063.18 172.853 1061.79C157.469 1077.18 147.692 1089.79 142.085 1081.4C129.527 1060.35 161.64 1047.75 158.86 1025.31C150.472 1026.75 142.085 1026.75 143.52 1018.31C135.133 1042.14 116.923 1018.31 119.749 1014.1C132.308 997.27 128.136 984.707 130.917 969.228C128.815 968.874 126.864 967.906 125.311 966.446C116.923 962.229 105.8 988.88 102.885 974.836L98.7138 962.229C97.2778 955.229 114.053 925.796 111.272 908.97C108.79 909.796 106.113 909.833 103.608 909.078C101.103 908.323 98.8918 906.813 97.2778 904.753C91.7168 913.188 79.3378 925.796 76.3328 915.97C67.9458 886.536 97.2778 865.538 91.7168 836.105H84.8098C84.8098 844.495 70.8608 873.928 62.3838 855.712C48.3898 827.669 81.9388 798.281 83.3298 768.847L79.1138 767.412C72.1618 787.064 55.3868 796.845 59.5578 759.021C60.9938 739.414 79.1138 725.415 84.7198 705.763C82.9828 706.062 81.1998 705.963 79.5068 705.473C77.8128 704.983 76.2528 704.116 74.9418 702.936C47.3138 719.807 66.6448 672.157 87.6798 644.159C80.6828 641.332 79.2928 634.333 80.6828 627.334C70.9508 634.333 65.3438 621.725 83.5088 610.508C97.4578 602.118 96.0668 588.074 111.452 578.293C109.078 577.5 107.004 576.001 105.505 573.996C104.006 571.992 103.155 569.577 103.064 567.076C87.6798 575.511 77.8128 562.858 89.0258 551.641C94.5868 544.642 100.194 551.641 108.581 544.642L133.698 520.817C128.047 518.035 123.92 508.209 129.527 502.6C121.14 489.992 100.194 515.208 100.194 506.818C97.3678 464.777 145.045 492.774 158.86 477.385C151.863 473.167 153.298 466.168 158.86 460.559C147.692 460.559 139.304 454.951 121.139 461.95C114.143 464.777 110.106 438.125 132.532 440.907C150.472 442.298 168.862 445.08 184.246 436.689C182.855 431.081 184.246 425.472 194.023 419.864C203.801 414.255 205.191 408.647 216.449 422.69C223.446 432.517 212.278 442.298 220.665 442.298C224.881 442.298 227.662 442.298 227.662 436.689C237.44 442.298 241.611 452.079 254.214 453.515C265.382 453.515 249.998 463.296 244.436 478.731C241.611 489.948 217.884 468.949 209.497 467.514C201.11 466.078 216.449 454.906 209.497 452.079C202.5 450.733 192.723 466.123 198.329 474.513C201.11 480.122 205.281 474.513 210.887 477.34L234.659 489.948C243.001 494.165 222.055 501.165 223.446 517.99C224.881 533.38 208.107 509.555 188.507 508.164C194.113 484.339 171.777 484.339 170.566 509.555C170.566 526.38 176.172 517.99 184.56 517.99C194.337 520.772 194.337 527.771 215.283 533.38C220.889 536.162 208.331 550.205 208.331 560.031C206.896 574.03 194.337 565.595 187.34 561.422C177.563 555.814 160.788 560.031 167.785 548.814C177.563 529.162 155.227 526.38 151.011 545.988C149.62 554.423 135.671 547.379 128.585 554.423C132.756 569.813 146.525 547.379 151.011 561.422C158.007 578.248 156.617 552.987 166.395 565.595C178.953 579.639 199.944 567.031 197.163 585.247C197.163 593.638 192.947 597.855 191.556 606.246C191.556 617.463 170.566 611.854 165.004 606.246C159.443 600.637 134.236 610.463 144.059 595.073C153.881 579.684 129.527 582.466 128.047 597.945C127.943 599.398 127.318 600.765 126.289 601.795C125.259 602.825 123.893 603.449 122.44 603.553C122.44 616.161 126.656 603.553 128.047 616.161C129.769 614.257 131.978 612.858 134.436 612.115C136.893 611.372 139.507 611.313 141.995 611.944C133.608 623.161 178.325 617.552 183.932 624.552C188.103 627.378 179.76 637.16 183.932 649.812C188.103 659.594 183.932 666.593 179.76 666.593C164.376 665.202 147.602 663.811 132.218 663.811C122.44 663.811 135.043 638.595 116.834 639.986C107.101 639.986 105.711 653.985 108.491 661.029C114.053 676.419 109.882 680.637 129.437 668.029L130.827 672.202C132.532 677.81 177.025 670.766 177.025 683.194C175.634 718.236 186.802 718.236 178.415 719.627C161.64 722.454 142.085 714.063 126.746 722.454C126.746 711.237 129.527 704.237 115.533 704.237C105.8 702.802 107.191 716.845 107.191 722.454C115.533 721.063 109.971 735.062 114.143 736.453C121.14 737.844 118.359 730.844 126.746 729.453C132.308 729.453 126.746 742.061 178.415 729.453C186.802 726.671 175.634 751.887 188.193 774.321C192.409 782.756 172.853 774.321 146.301 781.321C126.746 785.538 136.524 774.321 128.361 763.373C119.973 754.938 105.935 780.199 110.42 785.807C122.978 781.59 113.201 818.068 132.846 790.025C135.671 785.807 150.786 797.024 172.001 790.025C197.163 783.026 188.731 798.46 189.942 808.241C192.723 825.067 201.11 822.24 195.503 833.457C195.503 836.284 170.342 837.675 157.783 841.893C149.396 843.283 143.834 851.674 142.399 834.848C140.695 819.324 110.106 824.932 118.359 844.719C121.14 851.719 116.923 848.937 112.752 857.327C130.693 843.328 122.53 861.545 133.698 860.154C142.085 858.763 136.524 854.545 142.085 854.545C174.244 855.936 185.412 850.328 195.189 844.719C207.793 837.72 199.405 864.327 207.793 872.762C217.57 882.543 218.961 890.978 214.745 892.369C199.405 897.978 188.193 897.978 168.637 906.413C158.86 911.976 163.076 897.978 156.079 895.196C144.911 889.587 132.532 903.407 146.301 912.021C149.082 913.457 146.301 921.847 146.301 923.238C156.079 935.846 158.86 912.021 170.028 917.63C184.021 921.847 210.394 900.804 217.57 902.24C225.958 903.631 220.351 924.674 234.345 933.064C249.684 944.281 230.129 951.281 221.742 952.672C210.369 955.644 199.532 960.383 189.628 966.715C179.85 972.324 182.631 947.063 168.637 956.889C161.64 962.498 164.466 972.324 167.247 977.888C177.025 970.888 170.028 987.714 182.631 987.714C195.189 986.323 175.634 977.887 203.577 975.106C217.57 975.106 228.738 959.671 243.943 961.107C255.111 961.107 246.724 984.932 256.501 994.713C267.67 1001.76 260.673 1011.54 252.285 1008.76C241.117 1005.93 211.919 1035.36 207.434 1022.76C202.949 1010.15 185.008 1024.15 192.05 1033.97C192.05 1035.36 196.266 1045.19 187.834 1046.58C210.26 1036.75 201.827 1059.19 214.386 1043.75C225.599 1028.36 246.544 1033.97 256.322 1022.76C273.097 1004.54 271.706 1029.75 277.268 1039.58C281.484 1045.19 296.823 1064.8 288.481 1069.01C280.138 1073.23 267.49 1069.01 239.548 1087.19C235.376 1066.19 217.122 1077.4 215.776 1094.23C200.437 1092.84 192.05 1105.45 187.834 1116.66" fill="#F8D0A3"/>
<path d="M188.193 1116.39C175.634 1120.61 156.079 1134.61 151.863 1122.05C142.085 1095.4 184.021 1096.79 185.412 1070.18C179.85 1067.35 175.634 1063.18 172.853 1061.79C157.469 1077.18 147.692 1089.79 142.085 1081.4C129.527 1060.35 161.64 1047.75 158.86 1025.31C150.472 1026.75 142.085 1026.75 143.52 1018.31C135.133 1042.14 116.923 1018.31 119.749 1014.1C132.308 997.27 128.136 984.707 130.917 969.228C128.815 968.874 126.864 967.906 125.311 966.446C116.923 962.229 105.8 988.88 102.885 974.836L98.7138 962.229C97.2778 955.229 114.053 925.796 111.272 908.97C108.79 909.796 106.113 909.833 103.608 909.078C101.103 908.323 98.8918 906.813 97.2778 904.753C91.7168 913.188 79.3378 925.796 76.3328 915.97C67.9458 886.536 97.2778 865.538 91.7168 836.105H84.8098C84.8098 844.495 70.8608 873.928 62.3838 855.712C48.3898 827.669 81.9388 798.281 83.3298 768.847L79.1138 767.412C72.1618 787.064 55.3868 796.845 59.5578 759.021C60.9938 739.414 79.1138 725.415 84.7198 705.763C82.9828 706.062 81.1998 705.963 79.5068 705.473C77.8128 704.983 76.2528 704.116 74.9418 702.936C47.3138 719.807 66.6448 672.157 87.6798 644.159C80.6828 641.332 79.2928 634.333 80.6828 627.334C70.9508 634.333 65.3438 621.725 83.5088 610.508C97.4578 602.118 96.0668 588.074 111.452 578.293C109.078 577.5 107.004 576.001 105.505 573.996C104.006 571.992 103.155 569.577 103.064 567.076C87.6798 575.511 77.8128 562.858 89.0258 551.641C94.5868 544.642 100.194 551.641 108.581 544.642L133.698 520.817C128.047 518.035 123.92 508.209 129.527 502.6C121.14 489.992 100.194 515.208 100.194 506.818C97.3678 464.777 145.045 492.774 158.86 477.385C151.863 473.167 153.298 466.168 158.86 460.559C147.692 460.559 139.304 454.951 121.139 461.95C114.143 464.777 110.106 438.125 132.532 440.907C150.472 442.298 168.862 445.08 184.246 436.689C182.855 431.081 184.246 425.472 194.023 419.864C203.801 414.255 205.191 408.647 216.449 422.69C223.446 432.517 212.278 442.298 220.665 442.298C224.881 442.298 227.662 442.298 227.662 436.689C237.44 442.298 241.611 452.079 254.214 453.515C265.382 453.515 249.998 463.296 244.436 478.731C241.611 489.948 217.884 468.949 209.497 467.514C201.11 466.078 216.449 454.906 209.497 452.079C202.5 450.733 192.723 466.123 198.329 474.513C201.11 480.122 205.281 474.513 210.887 477.34L234.659 489.948C243.001 494.165 222.055 501.165 223.446 517.99C224.881 533.38 208.107 509.555 188.507 508.164C194.113 484.339 171.777 484.339 170.566 509.555C170.566 526.38 176.172 517.99 184.56 517.99C194.337 520.772 194.337 527.771 215.283 533.38C220.889 536.162 208.331 550.205 208.331 560.031C206.896 574.03 194.337 565.595 187.34 561.422C177.563 555.814 160.788 560.031 167.785 548.814C177.563 529.162 155.227 526.38 151.011 545.988C149.62 554.423 135.671 547.379 128.585 554.423C132.756 569.813 146.525 547.379 151.011 561.422C158.007 578.248 156.617 552.987 166.395 565.595C178.953 579.639 199.944 567.031 197.163 585.247C197.163 593.638 192.947 597.855 191.556 606.246C191.556 617.463 170.566 611.854 165.004 606.246C159.443 600.637 134.236 610.463 144.059 595.073C153.881 579.684 129.527 582.466 128.047 597.945C127.943 599.398 127.318 600.765 126.289 601.795C125.259 602.825 123.893 603.449 122.44 603.553C122.44 616.161 126.656 603.553 128.047 616.161C129.769 614.257 131.978 612.858 134.436 612.115C136.893 611.372 139.507 611.313 141.995 611.944C133.608 623.161 178.325 617.552 183.932 624.552C188.103 627.378 179.76 637.16 183.932 649.812C188.103 659.594 183.932 666.593 179.76 666.593C164.376 665.202 147.602 663.811 132.218 663.811C122.44 663.811 135.043 638.595 116.834 639.986C107.101 639.986 105.711 653.985 108.491 661.029C114.053 676.419 109.882 680.637 129.437 668.029L130.827 672.202C132.532 677.81 177.025 670.766 177.025 683.194C175.634 718.236 186.802 718.236 178.415 719.627C161.64 722.454 142.085 714.063 126.746 722.454C126.746 711.237 129.527 704.237 115.533 704.237C105.8 702.802 107.191 716.845 107.191 722.454C115.533 721.063 109.971 735.062 114.143 736.453C121.14 737.844 118.359 730.844 126.746 729.453C132.308 729.453 126.746 742.061 178.415 729.453C186.802 726.671 175.634 751.887 188.193 774.321C192.409 782.756 172.853 774.321 146.301 781.321C126.746 785.538 136.524 774.321 128.361 763.373C119.973 754.938 105.935 780.199 110.42 785.807C122.978 781.59 113.201 818.068 132.846 790.025C135.671 785.807 150.786 797.024 172.001 790.025C197.163 783.026 188.731 798.46 189.942 808.241C192.723 825.067 201.11 822.24 195.503 833.457C195.503 836.284 170.342 837.675 157.783 841.893C149.396 843.283 143.834 851.674 142.399 834.848C140.695 819.324 110.106 824.932 118.359 844.719C121.14 851.719 116.923 848.937 112.752 857.327C130.693 843.328 122.53 861.545 133.698 860.154C142.085 858.763 136.524 854.545 142.085 854.545C174.244 855.936 185.412 850.328 195.189 844.719C207.793 837.72 199.405 864.327 207.793 872.762C217.57 882.543 218.961 890.978 214.745 892.369C199.405 897.978 188.193 897.978 168.637 906.413C158.86 911.976 163.076 897.978 156.079 895.196C144.911 889.587 132.532 903.407 146.301 912.021C149.082 913.457 146.301 921.847 146.301 923.238C156.079 935.846 158.86 912.021 170.028 917.63C184.021 921.847 210.394 900.804 217.57 902.24C225.958 903.631 220.351 924.674 234.345 933.064C249.684 944.281 230.129 951.281 221.742 952.672C210.369 955.644 199.532 960.383 189.628 966.715C179.85 972.324 182.631 947.063 168.637 956.889C161.64 962.498 164.466 972.324 167.247 977.888C177.025 970.888 170.028 987.714 182.631 987.714C195.189 986.323 175.634 977.887 203.577 975.106C217.57 975.106 228.738 959.671 243.943 961.107C255.111 961.107 246.724 984.932 256.501 994.713C267.67 1001.76 260.673 1011.54 252.285 1008.76C241.117 1005.93 211.919 1035.36 207.434 1022.76C202.949 1010.15 185.008 1024.15 192.05 1033.97C192.05 1035.36 196.266 1045.19 187.834 1046.58C210.26 1036.75 201.827 1059.19 214.386 1043.75C225.599 1028.36 246.544 1033.97 256.322 1022.76C273.097 1004.54 271.706 1029.75 277.268 1039.58C281.484 1045.19 296.823 1064.8 288.481 1069.01C280.138 1073.23 267.49 1069.01 239.548 1087.19C235.376 1066.19 217.122 1077.4 215.776 1094.23C200.437 1092.84 192.05 1105.45 187.834 1116.66" stroke="#1D1D1B" stroke-width="5.17"/>
<path d="M184.022 435.34C186.803 439.513 189.629 446.557 199.406 446.557" stroke="#1D1D1B" stroke-width="5.17" stroke-linecap="round" stroke-linejoin="round"/>
<path d="M233.575 449.859C230.749 454.724 225.91 462.419 224.475 452.606Z" stroke="#1D1D1B" stroke-width="5.17" stroke-linecap="round" stroke-linejoin="round"/>
<path d="M196.625 467.556C192.409 460.556 182.631 468.947 182.631 460.556C181.241 447.948 164.691 453.557 158.86 460.556" stroke="#1D1D1B" stroke-width="5.17"/>
<path d="M196.625 467.556C192.409 460.556 182.631 468.947 182.631 460.556C181.241 447.948 164.691 453.557 158.86 460.556" stroke="#1D1D1B" stroke-width="5.17" stroke-linecap="round" stroke-linejoin="round"/>
<path d="M158.859 477.383C160.46 479.113 162.359 480.542 164.465 481.601L158.859 477.383Z" stroke="#1D1D1B" stroke-width="5.17"/>
<path d="M158.859 477.383C160.46 479.113 162.359 480.542 164.465 481.601" stroke="#1D1D1B" stroke-width="5.17" stroke-linecap="round" stroke-linejoin="round"/>
<path d="M210.57 487.165C207.789 491.383 196.621 494.209 203.573 484.383L210.57 487.165Z" stroke="#1D1D1B" stroke-width="5.17"/>
<path d="M210.57 487.165C207.789 491.383 196.621 494.209 203.573 484.383" stroke="#1D1D1B" stroke-width="5.17" stroke-linecap="round" stroke-linejoin="round"/>
<path d="M170.027 509.598C147.601 509.598 165.856 506.816 154.688 496.99C147.691 489.991 133.697 496.99 129.526 502.599" stroke="#1D1D1B" stroke-width="5.17"/>
<path d="M170.027 509.598C147.601 509.598 165.856 506.816 154.688 496.99C147.691 489.991 133.697 496.99 129.526 502.599" stroke="#1D1D1B" stroke-width="5.17" stroke-linecap="round" stroke-linejoin="round"/>
<path d="M133.694 520.817C135.286 521.577 137.068 521.851 138.815 521.604C140.562 521.356 142.197 520.599 143.516 519.426" stroke="#1D1D1B" stroke-width="5.17" stroke-linecap="round" stroke-linejoin="round"/>
<path d="M177.023 527.816C172.852 537.642 181.239 540.424 185.41 530.642L177.023 527.816Z" stroke="#1D1D1B" stroke-width="5.17"/>
<path d="M177.023 527.816C172.852 537.642 181.239 540.424 185.41 530.642" stroke="#1D1D1B" stroke-width="5.17" stroke-linecap="round" stroke-linejoin="round"/>
<path d="M128.047 554.465C125.222 546.03 101.495 540.422 102.886 567.073" stroke="#1D1D1B" stroke-width="5.17"/>
<path d="M128.047 554.465C125.221 546.03 102.885 540.422 102.885 567.073" stroke="#1D1D1B" stroke-width="5.17" stroke-linecap="round" stroke-linejoin="round"/>
<path d="M111.359 578.291C112.95 579.035 114.725 579.296 116.463 579.041C118.201 578.786 119.826 578.026 121.137 576.855L111.359 578.291Z" fill="#1D1D1B"/>
<path d="M160.249 571.246C151.862 581.072 160.249 588.072 167.246 576.855L160.249 571.246Z" stroke="#1D1D1B" stroke-width="5.17"/>
<path d="M160.249 571.246C151.862 581.072 160.249 588.072 167.246 576.855" stroke="#1D1D1B" stroke-width="5.17" stroke-linecap="round" stroke-linejoin="round"/>
<path d="M122.531 603.508C107.191 604.899 119.75 614.725 105.801 614.725C91.8072 613.334 83.3752 620.334 80.5942 627.333" stroke="#1D1D1B" stroke-width="5.17" stroke-linecap="round" stroke-linejoin="round"/>
<path d="M87.5883 644.113L93.1953 646.939" stroke="#1D1D1B" stroke-width="5.17"/>
<path d="M87.5883 644.113L93.1953 646.939" stroke="#1D1D1B" stroke-width="5.17" stroke-linecap="round" stroke-linejoin="round"/>
<path d="M140.694 618.898C137.914 625.942 139.304 637.114 147.691 628.724L140.694 618.898Z" stroke="#1D1D1B" stroke-width="5.17"/>
<path d="M140.694 618.898C137.914 625.942 139.304 637.114 147.691 628.724" stroke="#1D1D1B" stroke-width="5.17" stroke-linecap="round" stroke-linejoin="round"/>
<path d="M108.578 660.984C101.581 667.983 91.8041 667.983 87.5871 677.764" stroke="#1D1D1B" stroke-width="5.17" stroke-linecap="round" stroke-linejoin="round"/>
<path d="M100.191 673.59C93.1944 686.198 86.1974 667.982 75.0294 684.762C70.8584 693.197 70.8584 698.806 75.0294 702.979" stroke="#1D1D1B" stroke-width="5.17"/>
<path d="M100.191 673.59C93.1944 686.198 86.1974 667.982 75.0294 684.762C70.8584 693.197 70.8584 698.806 75.0294 702.979" stroke="#1D1D1B" stroke-width="5.17" stroke-linecap="round" stroke-linejoin="round"/>
<path d="M84.8082 705.628C87.0842 706.251 89.4932 706.183 91.7292 705.432C93.9662 704.681 95.9282 703.281 97.3672 701.41" stroke="#1D1D1B" stroke-width="5.17" stroke-linecap="round" stroke-linejoin="round"/>
<path d="M128.047 680.59C125.221 691.807 130.828 695.98 137.824 683.372L128.047 680.59Z" stroke="#1D1D1B" stroke-width="5.17"/>
<path d="M128.047 680.59C125.221 691.807 130.828 695.98 137.824 683.372" stroke="#1D1D1B" stroke-width="5.17" stroke-linecap="round" stroke-linejoin="round"/>
<path d="M137.912 743.63C139.302 753.456 119.971 750.629 129.525 740.848L137.912 743.63Z" stroke="#1D1D1B" stroke-width="5.17"/>
<path d="M137.912 743.63C139.302 753.456 119.971 750.629 129.525 740.848" stroke="#1D1D1B" stroke-width="5.17" stroke-linecap="round" stroke-linejoin="round"/>
<path d="M107.188 722.629C98.8005 722.629 100.191 732.455 94.5845 736.628L107.188 722.629Z" stroke="#1D1D1B" stroke-width="5.17"/>
<path d="M107.188 722.629C98.8005 722.629 100.191 732.455 94.5845 736.628" stroke="#1D1D1B" stroke-width="5.17" stroke-linecap="round" stroke-linejoin="round"/>
<path d="M100.195 736.629C61.0843 738.02 61.0843 761.845 79.2493 767.454" stroke="#1D1D1B" stroke-width="5.17"/>
<path d="M100.195 736.629C61.0843 738.02 61.0843 761.845 79.2493 767.454" stroke="#1D1D1B" stroke-width="5.17" stroke-linecap="round" stroke-linejoin="round"/>
<path d="M83.4192 768.892C86.4822 768.934 89.4812 768.007 91.9862 766.242C94.4912 764.477 96.3752 761.966 97.3672 759.066" stroke="#1D1D1B" stroke-width="5.17" stroke-linecap="round" stroke-linejoin="round"/>
<path d="M149.078 801.105C144.907 810.931 133.694 812.322 135.13 796.887L149.078 801.105Z" stroke="#1D1D1B" stroke-width="5.17"/>
<path d="M149.078 801.105C144.907 810.931 133.694 812.322 135.13 796.887" stroke="#1D1D1B" stroke-width="5.17" stroke-linecap="round" stroke-linejoin="round"/>
<path d="M110.105 785.672C104.499 787.063 97.5025 806.715 89.1595 806.715C76.5565 808.106 65.3885 840.321 84.9435 836.149" stroke="#1D1D1B" stroke-width="5.17"/>
<path d="M110.105 785.672C104.499 787.063 97.5025 806.715 89.1595 806.715C76.5565 808.106 65.3885 840.321 84.9435 836.149" stroke="#1D1D1B" stroke-width="5.17" stroke-linecap="round" stroke-linejoin="round"/>
<path d="M91.8076 836.149C100.196 833.323 109.749 829.15 108.583 823.496" stroke="#1D1D1B" stroke-width="5.17" stroke-linecap="round" stroke-linejoin="round"/>
<path d="M97.365 904.795C87.588 896.404 100.191 872.579 109.969 868.362C115.53 865.58 107.188 862.753 112.75 857.145" stroke="#1D1D1B" stroke-width="5.17"/>
<path d="M97.365 904.795C87.588 896.404 100.191 872.579 109.969 868.362C115.53 865.58 107.188 862.753 112.75 857.145" stroke="#1D1D1B" stroke-width="5.17" stroke-linecap="round" stroke-linejoin="round"/>
<path d="M158.857 861.363C163.028 871.189 143.518 876.797 147.689 864.144L158.857 861.363Z" stroke="#1D1D1B" stroke-width="5.17"/>
<path d="M158.857 861.363C163.028 871.189 143.518 876.797 147.689 864.144" stroke="#1D1D1B" stroke-width="5.17" stroke-linecap="round" stroke-linejoin="round"/>
<path d="M129.524 892.188C130.915 907.622 123.918 909.013 111.584 909.013L129.524 892.188Z" stroke="#1D1D1B" stroke-width="5.17"/>
<path d="M129.524 892.188C130.915 907.622 123.918 909.013 111.584 909.013" stroke="#1D1D1B" stroke-width="5.17" stroke-linecap="round" stroke-linejoin="round"/>
<path d="M146.301 923.01C139.304 913.229 135.088 932.837 122.53 937.054C108.581 939.836 118.358 959.488 125.31 966.488" stroke="#1D1D1B" stroke-width="5.17"/>
<path d="M146.301 923.01C139.304 913.229 135.088 932.837 122.53 937.054C108.581 939.836 118.358 959.488 125.31 966.488" stroke="#1D1D1B" stroke-width="5.17" stroke-linecap="round" stroke-linejoin="round"/>
<path d="M130.916 969.272C135.132 967.881 137.912 962.273 142.129 958.055L130.916 969.272Z" stroke="#1D1D1B" stroke-width="5.17"/>
<path d="M130.916 969.272C135.132 967.881 137.912 962.273 142.129 958.055" stroke="#1D1D1B" stroke-width="5.17" stroke-linecap="round" stroke-linejoin="round"/>
<path d="M179.848 928.621C174.242 942.665 161.639 935.621 165.855 924.449L179.848 928.621Z" stroke="#1D1D1B" stroke-width="5.17"/>
<path d="M179.848 928.621C174.242 942.665 161.639 935.621 165.855 924.449" stroke="#1D1D1B" stroke-width="5.17" stroke-linecap="round" stroke-linejoin="round"/>
<path d="M167.246 977.66C164.465 979.096 163.075 980.487 158.859 990.313L167.246 977.66Z" stroke="#1D1D1B" stroke-width="5.17"/>
<path d="M167.246 977.66C164.465 979.096 163.075 980.487 158.859 990.313" stroke="#1D1D1B" stroke-width="5.17" stroke-linecap="round" stroke-linejoin="round"/>
<path d="M164.465 990.314C137.913 986.097 143.519 1021.09 143.519 1018.31" stroke="#1D1D1B" stroke-width="5.17"/>
<path d="M164.465 990.314C137.913 986.097 143.519 1021.09 143.519 1018.31" stroke="#1D1D1B" stroke-width="5.17" stroke-linecap="round" stroke-linejoin="round"/>
<path d="M158.859 1025.31C164.465 1023.92 170.027 1019.75 170.027 1015.53L158.859 1025.31Z" stroke="#1D1D1B" stroke-width="5.17"/>
<path d="M158.859 1025.31C164.465 1023.92 170.027 1019.75 170.027 1015.53" stroke="#1D1D1B" stroke-width="5.17" stroke-linecap="round" stroke-linejoin="round"/>
<path d="M200.796 988.879C203.577 995.923 186.802 1001.53 191.018 991.706L200.796 988.879Z" stroke="#1D1D1B" stroke-width="5.17"/>
<path d="M200.796 988.879C203.577 995.923 186.802 1001.53 191.018 991.706" stroke="#1D1D1B" stroke-width="5.17" stroke-linecap="round" stroke-linejoin="round"/>
<path d="M172.894 1061.79C168.678 1057.57 172.894 1053.36 188.234 1046.36" stroke="#1D1D1B" stroke-width="5.17"/>
<path d="M172.894 1061.79C168.678 1057.57 172.894 1053.36 188.234 1046.36" stroke="#1D1D1B" stroke-width="5.17" stroke-linecap="round" stroke-linejoin="round"/>
<path d="M210.573 1051.96C204.966 1058.96 225.957 1060.35 221.741 1051.96H210.573Z" stroke="#1D1D1B" stroke-width="5.17"/>
<path d="M210.573 1051.96C204.966 1058.96 225.957 1060.35 221.741 1051.96" stroke="#1D1D1B" stroke-width="5.17" stroke-linecap="round" stroke-linejoin="round"/>
<path d="M146.298 1406.51C174.241 1395.29 172.85 1417.73 182.628 1417.73L200.883 1409.6L209.046 1413.14L217.416 1420.47L227.662 1411.25C230.443 1422.47 234.476 1407.81 249.816 1420.47C265.2 1434.46 274.977 1451.29 284.755 1423.25C291.752 1399.42 314.133 1406.42 311.307 1388.2C311.307 1381.21 274.977 1371.38 259.593 1355.99C254.032 1350.38 247.035 1361.55 240.038 1361.55C230.26 1360.16 242.819 1346.16 230.26 1347.55C230.26 1340.56 249.816 1332.12 254.032 1332.12C273.587 1329.34 249.816 1348.99 258.203 1348.99C280.629 1351.77 298.569 1362.99 320.995 1362.99C330.773 1362.99 322.385 1340.55 332.163 1322.34C347.547 1291.51 304.221 1298.51 288.881 1294.3C258.113 1285.91 270.716 1298.51 258.113 1298.51C242.729 1297.12 253.942 1287.3 242.729 1284.51C244.164 1274.69 248.336 1260.69 258.113 1260.69C276.278 1260.69 262.329 1283.12 267.891 1283.12C293.277 1280.34 339.384 1297.17 335.168 1278.95C329.607 1252.3 344.99 1229.91 333.777 1222.87C326.826 1218.69 294.667 1225.69 275.112 1220.08C265.334 1217.26 266.725 1227.08 261.118 1229.91C256.947 1222.87 254.166 1217.26 244.389 1215.87C248.56 1204.65 242.953 1200.43 258.337 1196.26C276.502 1190.65 263.944 1215.87 272.331 1211.69C300.274 1199.04 339.384 1210.26 330.997 1194.87C319.829 1173.83 330.997 1143 318.438 1148.61C304.445 1154.22 269.505 1148.61 258.337 1159.83C242.864 1175.26 247.08 1158.44 235.912 1155.61C234.521 1133.17 254.077 1129 255.467 1140.22C256.723 1150 290.272 1138.78 295.833 1138.78C298.659 1137.39 323.776 1131.78 314.043 1126.18C303.996 1119.18 307.046 1063.09 286.056 1085.53C280.36 1092.57 244.03 1093.96 241.204 1098.18C231.427 1120.57 223.039 1093.96 216.042 1093.96C200.703 1092.61 192.316 1105.22 188.1 1116.39C186.71 1120.61 190.926 1127.61 193.706 1127.61C199.313 1126.22 200.703 1131.83 200.703 1134.66C189.49 1143.05 193.662 1147.26 178.277 1143.05C161.503 1140.26 147.554 1164.09 158.722 1178.09C178.277 1204.69 183.884 1162.65 207.655 1175.31C206.863 1177.12 206.575 1179.12 206.819 1181.08C207.064 1183.05 207.833 1184.91 209.046 1186.48C206.22 1194.91 192.361 1200.48 171.325 1199.09C150.29 1197.7 160.113 1239.74 172.716 1238.35C193.572 1235.56 190.881 1217.3 215.998 1227.13C214.106 1228.88 212.721 1231.11 211.987 1233.58C211.253 1236.05 211.197 1238.67 211.826 1241.17C200.658 1242.56 188.055 1248.17 176.887 1246.78C161.503 1245.35 151.725 1280.39 164.329 1286C182.493 1294.39 200.658 1272 215.998 1288.78C210.436 1292.99 206.22 1299.99 209.046 1307.04C200.883 1307.04 199.492 1308.43 191.105 1305.65C154.775 1295.82 151.95 1337.86 158.946 1346.25C170.114 1360.25 188.279 1337.86 200.883 1354.64C199.112 1356.17 197.789 1358.15 197.054 1360.37C196.319 1362.59 196.201 1364.97 196.711 1367.25C182.628 1372.86 174.286 1360.25 151.86 1368.69C133.695 1375.69 132.305 1410.73 146.298 1406.51Z" fill="#B7C8BD" stroke="#1D1D1B" stroke-width="5.17" stroke-linecap="round" stroke-linejoin="round"/>
<path d="M224.567 1126.22C207.792 1119.22 204.967 1150.05 227.348 1143.05L224.567 1126.22Z" stroke="#1D1D1B" stroke-width="5.17"/>
<path d="M224.567 1126.22C207.792 1119.22 204.967 1150.05 227.348 1143.05" stroke="#1D1D1B" stroke-width="5.17" stroke-linecap="round" stroke-linejoin="round"/>
<path d="M200.794 1134.66C202.184 1137.44 202.184 1137.44 204.965 1137.44L200.794 1134.66Z" stroke="#1D1D1B" stroke-width="5.17"/>
<path d="M200.794 1134.66C202.184 1137.44 202.184 1137.44 204.965 1137.44" stroke="#1D1D1B" stroke-width="5.17" stroke-linecap="round" stroke-linejoin="round"/>
<path d="M235.688 1155.65C225.91 1152.87 209.135 1162.65 207.745 1175.31" stroke="#1D1D1B" stroke-width="5.17"/>
<path d="M235.688 1155.65C225.91 1152.87 209.135 1162.65 207.745 1175.31" stroke="#1D1D1B" stroke-width="5.17" stroke-linecap="round" stroke-linejoin="round"/>
<path d="M209.181 1186.48C211.198 1188.69 213.543 1190.58 216.133 1192.09L209.181 1186.48Z" stroke="#1D1D1B" stroke-width="5.17"/>
<path d="M209.181 1186.48C211.198 1188.69 213.543 1190.58 216.133 1192.09" stroke="#1D1D1B" stroke-width="5.17" stroke-linecap="round" stroke-linejoin="round"/>
<path d="M235.691 1178.09C220.307 1171.09 216.091 1201.91 234.301 1196.3L235.691 1178.09Z" stroke="#1D1D1B" stroke-width="5.17"/>
<path d="M235.691 1178.09C220.307 1171.09 216.091 1201.91 234.301 1196.3" stroke="#1D1D1B" stroke-width="5.17" stroke-linecap="round" stroke-linejoin="round"/>
<path d="M244.121 1215.91C238.871 1214.87 233.433 1215.38 228.466 1217.37C223.499 1219.36 219.215 1222.75 216.133 1227.13" stroke="#1D1D1B" stroke-width="5.17"/>
<path d="M244.121 1215.91C238.871 1214.87 233.433 1215.38 228.466 1217.37C223.499 1219.36 219.215 1222.75 216.133 1227.13" stroke="#1D1D1B" stroke-width="5.17" stroke-linecap="round" stroke-linejoin="round"/>
<path d="M211.961 1241.17C211.911 1243.01 212.258 1244.83 212.978 1246.52C213.698 1248.21 214.774 1249.72 216.133 1250.95L211.961 1241.17Z" stroke="#1D1D1B" stroke-width="5.17"/>
<path d="M211.961 1241.17C211.911 1243.01 212.258 1244.83 212.978 1246.52C213.698 1248.21 214.774 1249.72 216.133 1250.95" stroke="#1D1D1B" stroke-width="5.17" stroke-linecap="round" stroke-linejoin="round"/>
<path d="M241.297 1239.56C225.958 1222.73 214.745 1261.99 237.126 1259.16L241.297 1239.56Z" stroke="#1D1D1B" stroke-width="5.17"/>
<path d="M241.297 1239.56C225.958 1222.73 214.745 1261.99 237.126 1259.16" stroke="#1D1D1B" stroke-width="5.17" stroke-linecap="round" stroke-linejoin="round"/>
<path d="M242.688 1284.43C238.245 1282.99 233.525 1282.62 228.913 1283.34C224.301 1284.07 219.923 1285.87 216.134 1288.6" stroke="#1D1D1B" stroke-width="5.17" stroke-linecap="round" stroke-linejoin="round"/>
<path d="M209.18 1306.99L211.961 1312.6" stroke="#1D1D1B" stroke-width="5.17"/>
<path d="M209.18 1306.99L211.961 1312.6" stroke="#1D1D1B" stroke-width="5.17" stroke-linecap="round" stroke-linejoin="round"/>
<path d="M238.512 1299.99C220.572 1299.99 221.738 1333.65 242.684 1321.04L238.512 1299.99Z" stroke="#1D1D1B" stroke-width="5.17"/>
<path d="M238.512 1299.99C220.572 1299.99 221.738 1333.65 242.684 1321.04" stroke="#1D1D1B" stroke-width="5.17" stroke-linecap="round" stroke-linejoin="round"/>
<path d="M230.125 1347.64C220.348 1347.64 207.7 1349.03 200.793 1354.64" stroke="#1D1D1B" stroke-width="5.17" stroke-linecap="round" stroke-linejoin="round"/>
<path d="M196.622 1367.25L198.012 1375.64" stroke="#1D1D1B" stroke-width="5.17"/>
<path d="M196.622 1367.25L198.012 1375.64" stroke="#1D1D1B" stroke-width="5.17" stroke-linecap="round" stroke-linejoin="round"/>
<path d="M231.516 1371.47C217.567 1361.64 203.574 1395.29 224.564 1392.51L231.516 1371.47Z" stroke="#1D1D1B" stroke-width="5.17"/>
<path d="M231.516 1371.47C217.567 1361.64 203.574 1395.29 224.564 1392.51" stroke="#1D1D1B" stroke-width="5.17" stroke-linecap="round" stroke-linejoin="round"/>
<path d="M251.118 1472.38C262.331 1469.6 258.114 1461.16 258.114 1461.16L227.615 1410.73C225.212 1410.57 222.841 1411.36 221.012 1412.92C219.184 1414.49 218.044 1416.72 217.838 1419.12C213.622 1416.34 210.841 1413.51 206.625 1410.73C187.07 1400.9 172.897 1438.73 154.956 1426.12C132.575 1409.34 135.401 1441.55 122.797 1445.77C108.849 1451.38 85.2925 1465.99 88.0735 1485.59C90.8545 1502.42 70.5185 1486.2 69.1275 1522.64C67.6925 1561.9 55.7435 1534.03 68.3025 1573.29C76.6895 1599.89 61.3505 1611.11 87.8575 1616.72L104.632 1618.15C110.239 1609.72 104.632 1590.11 110.239 1576.07C118.402 1549.46 103.018 1550.85 128.18 1535.46C154.732 1518.64 147.735 1534.03 174.287 1521.42C198.238 1510.2 189.671 1527.03 216.178 1515.81C245.556 1503.2 219.004 1479.38 251.118 1472.38Z" fill="#95A5DC" stroke="#1D1D1B" stroke-width="5.17"/>
<path d="M231.517 1480.77C241.295 1463.99 223.13 1452.77 207.791 1455.55C179.849 1459.77 207.791 1480.77 184.02 1482.2C171.461 1480.77 182.629 1501.81 149.08 1489.2C123.919 1480.77 112.751 1518.64 112.751 1536.85" stroke="#1D1D1B" stroke-width="5.17" stroke-linecap="round" stroke-linejoin="round"/>
<path d="M168.934 1427.77L171.129 1438C172.986 1446.66 178.146 1454.25 185.513 1459.16L192.538 1463.84" stroke="#1D1D1B" stroke-width="5" stroke-linecap="round" stroke-dasharray="10 10"/>
<path d="M127.117 1442.94L129.364 1453.41C131.19 1461.93 136.215 1469.42 143.402 1474.34L166.908 1490.43" stroke="#1D1D1B" stroke-width="5" stroke-linecap="round" stroke-dasharray="10 10"/>
<path d="M88.2773 1491.77L100.404 1499C101.962 1499.93 103.592 1500.73 105.278 1501.4L120.603 1507.47" stroke="#1D1D1B" stroke-width="5" stroke-linecap="round" stroke-dasharray="10 10"/>
<path d="M66.1406 1546.9L76.7189 1552.8C82.7713 1556.18 89.7114 1557.63 96.6095 1556.95L111.365 1555.5" stroke="#1D1D1B" stroke-width="5" stroke-linecap="round" stroke-dasharray="10 10"/>
<path d="M87.6781 1616.72C89.1141 1618.15 103.062 1620.94 104.453 1618.15L87.6781 1616.72Z" stroke="#1D1D1B" stroke-width="5.17"/>
<path d="M87.6781 1616.72C89.1141 1618.15 103.062 1620.94 104.453 1618.15" stroke="#1D1D1B" stroke-width="5.17" stroke-linecap="round" stroke-linejoin="round"/>
<path d="M89.024 1564.9C90.206 1562.68 90.702 1560.16 90.446 1557.65C90.19 1555.15 89.196 1552.79 87.588 1550.85" stroke="#1D1D1B" stroke-width="5.17" stroke-linecap="round" stroke-linejoin="round"/>
<path d="M99.4154 1509.85C106.367 1509.85 111.973 1490.2 102.195 1494.42" stroke="#1D1D1B" stroke-width="5.17" stroke-linecap="round" stroke-linejoin="round"/>
<path d="M137.53 1454.1C143.932 1448.75 139.464 1462.51 139.464 1462.51C139.464 1462.51 137.112 1469.92 133.252 1472.28C129.619 1474.49 129.502 1469.75 131.306 1464.36" stroke="#1D1D1B" stroke-width="5.17"/>
<path d="M172.897 1455.55C174.288 1473.77 182.675 1440.16 175.678 1441.55" stroke="#1D1D1B" stroke-width="5.17" stroke-linecap="round" stroke-linejoin="round"/>
<line y1="-0.5" x2="42.5093" y2="-0.5" transform="matrix(0.914323 -0.404986 0.447136 0.894466 315.539 172.266)" stroke="black"/>
<line x1="305.163" y1="349.452" x2="354.36" y2="344.724" stroke="black"/>
<line y1="-0.5" x2="40.4671" y2="-0.5" transform="matrix(0.985175 -0.171551 0.192835 0.981231 315.539 257.766)" stroke="black"/>
<line x1="280.469" y1="429.236" x2="351.66" y2="434.841" stroke="black"/>
<line y1="-0.5" x2="40.837" y2="-0.5" transform="matrix(0.976252 -0.216638 0.242939 0.970042 315.539 215.102)" stroke="black"/>
<line x1="292.689" y1="389.691" x2="351.613" y2="389" stroke="black"/>
<line y1="-0.5" x2="39.0574" y2="-0.5" transform="matrix(0.99513 -0.098568 0.111095 0.99381 315.539 302.113)" stroke="black"/>
<path d="M263.094 476.69L347.328 501.6L347.386 500.602L263.152 475.691L263.094 476.69Z" fill="black"/>
<path d="M246.844 509.596L347.328 552.725L347.552 551.75L247.068 508.621L246.844 509.596Z" fill="black"/>
<path d="M347.326 605.057L230.082 557.272L230.313 556.299L347.557 604.084L347.326 605.057Z" fill="black"/>
<path d="M217.625 603.506L347.324 651.717L347.537 650.74L217.838 602.529L217.625 603.506Z" fill="black"/>
<path d="M347.328 703.041L205.953 645.526L206.21 644.559L347.585 702.075L347.328 703.041Z" fill="black"/>
<path d="M225.949 860.709L347.326 897.061L347.46 896.07L226.083 859.718L225.949 860.709Z" fill="black"/>
<path d="M347.326 752.08L201.332 701.405L201.538 700.426L347.532 751.102L347.326 752.08Z" fill="black"/>
<path d="M244.121 924.448L347.326 946.1L347.342 945.1L244.137 923.448L244.121 924.448Z" fill="black"/>
<path d="M347.328 799.412L205.953 750.69L206.152 749.71L347.527 798.432L347.328 799.412Z" fill="black"/>
<path d="M265.562 983.987L347.326 993.432L347.198 992.44L265.434 982.995L265.562 983.987Z" fill="black"/>
<path d="M347.326 850.737L214.102 808.498L214.266 807.512L347.491 849.75L347.326 850.737Z" fill="black"/>
<path d="M292.695 1035.71L347.326 1044.76L347.13 1043.78L292.499 1034.73L292.695 1035.71Z" fill="black"/>
<path d="M375.25 156.041C373.034 156.041 370.992 155.516 369.125 154.466C367.282 153.393 365.812 151.9 364.715 149.986C363.619 148.073 363.07 145.891 363.07 143.441C363.07 140.991 363.619 138.81 364.715 136.896C365.812 134.983 367.282 133.501 369.125 132.451C370.992 131.378 373.034 130.841 375.25 130.841C378.144 130.841 380.559 131.611 382.495 133.151C384.432 134.691 385.657 136.733 386.17 139.276H382.81C382.32 137.596 381.41 136.29 380.08 135.356C378.75 134.4 377.129 133.921 375.215 133.921C373.465 133.921 371.925 134.33 370.595 135.146C369.289 135.963 368.274 137.095 367.55 138.541C366.85 139.988 366.5 141.621 366.5 143.441C366.5 145.261 366.85 146.895 367.55 148.341C368.274 149.788 369.289 150.92 370.595 151.736C371.925 152.553 373.465 152.961 375.215 152.961C377.129 152.961 378.75 152.495 380.08 151.561C381.41 150.605 382.32 149.286 382.81 147.606H386.17C385.82 149.286 385.155 150.768 384.175 152.051C383.195 153.311 381.935 154.291 380.395 154.991C378.879 155.691 377.164 156.041 375.25 156.041ZM391.342 152.611H396.767V135.881C396.207 136.371 395.577 136.71 394.877 136.896C394.2 137.06 393.267 137.141 392.077 137.141V134.341H392.637C393.897 134.341 394.865 134.096 395.542 133.606C396.219 133.093 396.627 132.288 396.767 131.191H400.127V152.611H405.552V155.691H391.342V152.611Z" fill="black"/>
<path d="M374.25 352.041C372.034 352.041 369.992 351.516 368.125 350.466C366.282 349.393 364.812 347.9 363.715 345.986C362.619 344.073 362.07 341.891 362.07 339.441C362.07 336.991 362.619 334.81 363.715 332.896C364.812 330.983 366.282 329.501 368.125 328.451C369.992 327.378 372.034 326.841 374.25 326.841C377.144 326.841 379.559 327.611 381.495 329.151C383.432 330.691 384.657 332.733 385.17 335.276H381.81C381.32 333.596 380.41 332.29 379.08 331.356C377.75 330.4 376.129 329.921 374.215 329.921C372.465 329.921 370.925 330.33 369.595 331.146C368.289 331.963 367.274 333.095 366.55 334.541C365.85 335.988 365.5 337.621 365.5 339.441C365.5 341.261 365.85 342.895 366.55 344.341C367.274 345.788 368.289 346.92 369.595 347.736C370.925 348.553 372.465 348.961 374.215 348.961C376.129 348.961 377.75 348.495 379.08 347.561C380.41 346.605 381.32 345.286 381.81 343.606H385.17C384.82 345.286 384.155 346.768 383.175 348.051C382.195 349.311 380.935 350.291 379.395 350.991C377.879 351.691 376.164 352.041 374.25 352.041ZM397.307 352.041C395.697 352.041 394.239 351.703 392.932 351.026C391.625 350.35 390.575 349.405 389.782 348.191C389.012 346.978 388.58 345.59 388.487 344.026H391.847C392.01 345.403 392.559 346.57 393.492 347.526C394.425 348.483 395.697 348.961 397.307 348.961C399.034 348.961 400.399 348.436 401.402 347.386C402.429 346.336 402.942 344.878 402.942 343.011C402.942 341.168 402.429 339.745 401.402 338.741C400.399 337.715 399.127 337.201 397.587 337.201C396.21 337.201 395.055 337.4 394.122 337.796C393.212 338.17 392.36 338.636 391.567 339.196L389.152 338.041L390.692 327.191H404.482V330.271H393.247L392.232 336.116C392.979 335.603 393.865 335.183 394.892 334.856C395.919 334.53 396.969 334.366 398.042 334.366C400.585 334.366 402.604 335.136 404.097 336.676C405.614 338.193 406.372 340.27 406.372 342.906C406.372 344.54 406.01 346.056 405.287 347.456C404.564 348.833 403.514 349.941 402.137 350.781C400.76 351.621 399.15 352.041 397.307 352.041Z" fill="black"/>
<path d="M367.81 693.271H361.58V690.191H377.4V693.271H371.17V714.691H367.81V693.271ZM380.985 689.141H384.065V699.466C384.741 698.743 385.651 698.125 386.795 697.611C387.938 697.098 389.14 696.841 390.4 696.841C392.266 696.841 393.725 697.366 394.775 698.416C395.848 699.443 396.385 700.843 396.385 702.616V714.691H393.305V703.176C393.305 702.033 392.966 701.146 392.29 700.516C391.613 699.886 390.691 699.571 389.525 699.571C388.521 699.571 387.53 699.863 386.55 700.446C385.57 701.03 384.741 701.788 384.065 702.721V714.691H380.985V689.141ZM408.962 715.041C407.352 715.041 405.894 714.703 404.587 714.026C403.281 713.35 402.231 712.405 401.437 711.191C400.667 709.978 400.236 708.59 400.142 707.026H403.502C403.666 708.403 404.214 709.57 405.147 710.526C406.081 711.483 407.352 711.961 408.962 711.961C410.689 711.961 412.054 711.436 413.057 710.386C414.084 709.336 414.597 707.878 414.597 706.011C414.597 704.168 414.084 702.745 413.057 701.741C412.054 700.715 410.782 700.201 409.242 700.201C407.866 700.201 406.711 700.4 405.777 700.796C404.867 701.17 404.016 701.636 403.222 702.196L400.807 701.041L402.347 690.191H416.137V693.271H404.902L403.887 699.116C404.634 698.603 405.521 698.183 406.547 697.856C407.574 697.53 408.624 697.366 409.697 697.366C412.241 697.366 414.259 698.136 415.752 699.676C417.269 701.193 418.027 703.27 418.027 705.906C418.027 707.54 417.666 709.056 416.942 710.456C416.219 711.833 415.169 712.941 413.792 713.781C412.416 714.621 410.806 715.041 408.962 715.041Z" fill="black"/>
<path d="M367.81 887.291H361.58V884.211H377.4V887.291H371.17V908.711H367.81V887.291ZM380.985 883.161H384.065V893.486C384.741 892.763 385.651 892.144 386.795 891.631C387.938 891.118 389.14 890.861 390.4 890.861C392.266 890.861 393.725 891.386 394.775 892.436C395.848 893.463 396.385 894.863 396.385 896.636V908.711H393.305V897.196C393.305 896.053 392.966 895.166 392.29 894.536C391.613 893.906 390.691 893.591 389.525 893.591C388.521 893.591 387.53 893.883 386.55 894.466C385.57 895.049 384.741 895.808 384.065 896.741V908.711H380.985V883.161ZM409.102 883.861C410.362 883.861 411.611 884.176 412.847 884.806C414.084 885.413 415.099 886.253 415.892 887.326C416.616 888.329 417.141 889.508 417.467 890.861C417.817 892.214 417.992 893.778 417.992 895.551C417.992 898.258 417.619 900.626 416.872 902.656C416.126 904.686 415.041 906.261 413.617 907.381C412.194 908.501 410.491 909.061 408.507 909.061C406.431 909.061 404.727 908.489 403.397 907.346C402.067 906.179 401.286 904.628 401.052 902.691H404.307C404.657 903.904 405.171 904.756 405.847 905.246C406.524 905.736 407.446 905.981 408.612 905.981C409.709 905.981 410.689 905.666 411.552 905.036C412.416 904.383 413.104 903.449 413.617 902.236C414.131 901.023 414.387 899.588 414.387 897.931C413.571 898.888 412.626 899.599 411.552 900.066C410.502 900.533 409.359 900.766 408.122 900.766C406.652 900.766 405.311 900.416 404.097 899.716C402.884 898.993 401.927 898.001 401.227 896.741C400.551 895.458 400.212 894.023 400.212 892.436C400.212 890.826 400.586 889.368 401.332 888.061C402.079 886.754 403.129 885.728 404.482 884.981C405.836 884.234 407.376 883.861 409.102 883.861ZM408.927 886.941C407.854 886.941 406.921 887.198 406.127 887.711C405.334 888.224 404.716 888.901 404.272 889.741C403.852 890.558 403.642 891.433 403.642 892.366C403.642 893.299 403.852 894.186 404.272 895.026C404.716 895.843 405.334 896.508 406.127 897.021C406.921 897.534 407.854 897.791 408.927 897.791C410.001 897.791 410.934 897.534 411.727 897.021C412.521 896.508 413.127 895.843 413.547 895.026C413.991 894.186 414.212 893.299 414.212 892.366C414.212 890.826 413.734 889.543 412.777 888.516C411.821 887.466 410.537 886.941 408.927 886.941Z" fill="black"/>
<path d="M375.25 254.041C373.034 254.041 370.992 253.516 369.125 252.466C367.282 251.393 365.812 249.9 364.715 247.986C363.619 246.073 363.07 243.891 363.07 241.441C363.07 238.991 363.619 236.81 364.715 234.896C365.812 232.983 367.282 231.501 369.125 230.451C370.992 229.378 373.034 228.841 375.25 228.841C378.144 228.841 380.559 229.611 382.495 231.151C384.432 232.691 385.657 234.733 386.17 237.276H382.81C382.32 235.596 381.41 234.29 380.08 233.356C378.75 232.4 377.129 231.921 375.215 231.921C373.465 231.921 371.925 232.33 370.595 233.146C369.289 233.963 368.274 235.095 367.55 236.541C366.85 237.988 366.5 239.621 366.5 241.441C366.5 243.261 366.85 244.895 367.55 246.341C368.274 247.788 369.289 248.92 370.595 249.736C371.925 250.553 373.465 250.961 375.215 250.961C377.129 250.961 378.75 250.495 380.08 249.561C381.41 248.605 382.32 247.286 382.81 245.606H386.17C385.82 247.286 385.155 248.768 384.175 250.051C383.195 251.311 381.935 252.291 380.395 252.991C378.879 253.691 377.164 254.041 375.25 254.041ZM398.622 254.041C396.802 254.041 395.215 253.645 393.862 252.851C392.532 252.058 391.494 251.008 390.747 249.701C390 248.371 389.58 246.913 389.487 245.326H392.637C392.754 247.006 393.325 248.371 394.352 249.421C395.402 250.448 396.802 250.961 398.552 250.961C400.232 250.961 401.55 250.46 402.507 249.456C403.487 248.43 403.977 247.018 403.977 245.221C403.977 243.471 403.394 242.13 402.227 241.196C401.06 240.24 399.625 239.761 397.922 239.761H397.152V236.716L402.052 232.271H390.572V229.191H406.252V232.376L400.687 237.171C402.6 237.638 404.199 238.536 405.482 239.866C406.765 241.173 407.407 242.958 407.407 245.221C407.407 246.855 407.022 248.348 406.252 249.701C405.482 251.055 404.42 252.116 403.067 252.886C401.737 253.656 400.255 254.041 398.622 254.041Z" fill="black"/>
<path d="M368.81 595.271H362.58V592.191H378.4V595.271H372.17V616.691H368.81V595.271ZM381.985 591.141H385.065V601.466C385.741 600.743 386.651 600.125 387.795 599.611C388.938 599.098 390.14 598.841 391.4 598.841C393.266 598.841 394.725 599.366 395.775 600.416C396.848 601.443 397.385 602.843 397.385 604.616V616.691H394.305V605.176C394.305 604.033 393.966 603.146 393.29 602.516C392.613 601.886 391.691 601.571 390.525 601.571C389.521 601.571 388.53 601.863 387.55 602.446C386.57 603.03 385.741 603.788 385.065 604.721V616.691H381.985V591.141ZM410.277 617.041C408.457 617.041 406.871 616.645 405.517 615.851C404.187 615.058 403.149 614.008 402.402 612.701C401.656 611.371 401.236 609.913 401.142 608.326H404.292C404.409 610.006 404.981 611.371 406.007 612.421C407.057 613.448 408.457 613.961 410.207 613.961C411.887 613.961 413.206 613.46 414.162 612.456C415.142 611.43 415.632 610.018 415.632 608.221C415.632 606.471 415.049 605.13 413.882 604.196C412.716 603.24 411.281 602.761 409.577 602.761H408.807V599.716L413.707 595.271H402.227V592.191H417.907V595.376L412.342 600.171C414.256 600.638 415.854 601.536 417.137 602.866C418.421 604.173 419.062 605.958 419.062 608.221C419.062 609.855 418.677 611.348 417.907 612.701C417.137 614.055 416.076 615.116 414.722 615.886C413.392 616.656 411.911 617.041 410.277 617.041Z" fill="black"/>
<path d="M374.25 450.041C372.034 450.041 369.992 449.516 368.125 448.466C366.282 447.393 364.812 445.9 363.715 443.986C362.619 442.073 362.07 439.891 362.07 437.441C362.07 434.991 362.619 432.81 363.715 430.896C364.812 428.983 366.282 427.501 368.125 426.451C369.992 425.378 372.034 424.841 374.25 424.841C377.144 424.841 379.559 425.611 381.495 427.151C383.432 428.691 384.657 430.733 385.17 433.276H381.81C381.32 431.596 380.41 430.29 379.08 429.356C377.75 428.4 376.129 427.921 374.215 427.921C372.465 427.921 370.925 428.33 369.595 429.146C368.289 429.963 367.274 431.095 366.55 432.541C365.85 433.988 365.5 435.621 365.5 437.441C365.5 439.261 365.85 440.895 366.55 442.341C367.274 443.788 368.289 444.92 369.595 445.736C370.925 446.553 372.465 446.961 374.215 446.961C376.129 446.961 377.75 446.495 379.08 445.561C380.41 444.605 381.32 443.286 381.81 441.606H385.17C384.82 443.286 384.155 444.768 383.175 446.051C382.195 447.311 380.935 448.291 379.395 448.991C377.879 449.691 376.164 450.041 374.25 450.041ZM401.892 428.271H389.537V425.191H405.357V427.851L395.977 449.691H392.722L401.892 428.271Z" fill="black"/>
<path d="M367.81 791.271H361.58V788.191H377.4V791.271H371.17V812.691H367.81V791.271ZM380.985 787.141H384.065V797.466C384.741 796.743 385.651 796.125 386.795 795.611C387.938 795.098 389.14 794.841 390.4 794.841C392.266 794.841 393.725 795.366 394.775 796.416C395.848 797.443 396.385 798.843 396.385 800.616V812.691H393.305V801.176C393.305 800.033 392.966 799.146 392.29 798.516C391.613 797.886 390.691 797.571 389.525 797.571C388.521 797.571 387.53 797.863 386.55 798.446C385.57 799.03 384.741 799.788 384.065 800.721V812.691H380.985V787.141ZM413.547 791.271H401.192V788.191H417.012V790.851L407.632 812.691H404.377L413.547 791.271Z" fill="black"/>
<path d="M367.81 985.291H361.58V982.211H377.4V985.291H371.17V1006.71H367.81V985.291ZM380.985 981.161H384.065V991.486C384.741 990.763 385.651 990.144 386.795 989.631C387.938 989.118 389.14 988.861 390.4 988.861C392.266 988.861 393.725 989.386 394.775 990.436C395.848 991.463 396.385 992.863 396.385 994.636V1006.71H393.305V995.196C393.305 994.053 392.966 993.166 392.29 992.536C391.613 991.906 390.691 991.591 389.525 991.591C388.521 991.591 387.53 991.883 386.55 992.466C385.57 993.049 384.741 993.808 384.065 994.741V1006.71H380.985V981.161ZM401.997 1003.63H407.422V986.901C406.862 987.391 406.232 987.729 405.532 987.916C404.856 988.079 403.922 988.161 402.732 988.161V985.361H403.292C404.552 985.361 405.521 985.116 406.197 984.626C406.874 984.113 407.282 983.308 407.422 982.211H410.782V1003.63H416.207V1006.71H401.997V1003.63ZM423.052 1003.63H428.477V986.901C427.917 987.391 427.287 987.729 426.587 987.916C425.91 988.079 424.977 988.161 423.787 988.161V985.361H424.347C425.607 985.361 426.575 985.116 427.252 984.626C427.929 984.113 428.337 983.308 428.477 982.211H431.837V1003.63H437.262V1006.71H423.052V1003.63Z" fill="black"/>
<path d="M375.25 205.041C373.034 205.041 370.992 204.516 369.125 203.466C367.282 202.393 365.812 200.9 364.715 198.986C363.619 197.073 363.07 194.891 363.07 192.441C363.07 189.991 363.619 187.81 364.715 185.896C365.812 183.983 367.282 182.501 369.125 181.451C370.992 180.378 373.034 179.841 375.25 179.841C378.144 179.841 380.559 180.611 382.495 182.151C384.432 183.691 385.657 185.733 386.17 188.276H382.81C382.32 186.596 381.41 185.29 380.08 184.356C378.75 183.4 377.129 182.921 375.215 182.921C373.465 182.921 371.925 183.33 370.595 184.146C369.289 184.963 368.274 186.095 367.55 187.541C366.85 188.988 366.5 190.621 366.5 192.441C366.5 194.261 366.85 195.895 367.55 197.341C368.274 198.788 369.289 199.92 370.595 200.736C371.925 201.553 373.465 201.961 375.215 201.961C377.129 201.961 378.75 201.495 380.08 200.561C381.41 199.605 382.32 198.286 382.81 196.606H386.17C385.82 198.286 385.155 199.768 384.175 201.051C383.195 202.311 381.935 203.291 380.395 203.991C378.879 204.691 377.164 205.041 375.25 205.041ZM390.012 201.821L400.127 192.721C401.154 191.788 401.924 190.913 402.437 190.096C402.95 189.256 403.207 188.265 403.207 187.121C403.207 185.815 402.764 184.788 401.877 184.041C401.014 183.295 399.882 182.921 398.482 182.921C397.059 182.921 395.88 183.353 394.947 184.216C394.037 185.08 393.547 186.27 393.477 187.786H390.257C390.327 186.27 390.724 184.905 391.447 183.691C392.194 182.478 393.162 181.533 394.352 180.856C395.565 180.18 396.895 179.841 398.342 179.841C399.905 179.841 401.294 180.133 402.507 180.716C403.744 181.3 404.7 182.128 405.377 183.201C406.077 184.275 406.427 185.523 406.427 186.946C406.427 188.463 406.077 189.828 405.377 191.041C404.7 192.231 403.685 193.421 402.332 194.611L394.387 201.611H406.917V204.691H390.012V201.821Z" fill="black"/>
<path d="M368.81 546.271H362.58V543.191H378.4V546.271H372.17V567.691H368.81V546.271ZM381.985 542.141H385.065V552.466C385.741 551.743 386.651 551.125 387.795 550.611C388.938 550.098 390.14 549.841 391.4 549.841C393.266 549.841 394.725 550.366 395.775 551.416C396.848 552.443 397.385 553.843 397.385 555.616V567.691H394.305V556.176C394.305 555.033 393.966 554.146 393.29 553.516C392.613 552.886 391.691 552.571 390.525 552.571C389.521 552.571 388.53 552.863 387.55 553.446C386.57 554.03 385.741 554.788 385.065 555.721V567.691H381.985V542.141ZM401.667 564.821L411.782 555.721C412.809 554.788 413.579 553.913 414.092 553.096C414.606 552.256 414.862 551.265 414.862 550.121C414.862 548.815 414.419 547.788 413.532 547.041C412.669 546.295 411.537 545.921 410.137 545.921C408.714 545.921 407.536 546.353 406.602 547.216C405.692 548.08 405.202 549.27 405.132 550.786H401.912C401.982 549.27 402.379 547.905 403.102 546.691C403.849 545.478 404.817 544.533 406.007 543.856C407.221 543.18 408.551 542.841 409.997 542.841C411.561 542.841 412.949 543.133 414.162 543.716C415.399 544.3 416.356 545.128 417.032 546.201C417.732 547.275 418.082 548.523 418.082 549.946C418.082 551.463 417.732 552.828 417.032 554.041C416.356 555.231 415.341 556.421 413.987 557.611L406.042 564.611H418.572V567.691H401.667V564.821Z" fill="black"/>
<path d="M374.25 401.041C372.034 401.041 369.992 400.516 368.125 399.466C366.282 398.393 364.812 396.9 363.715 394.986C362.619 393.073 362.07 390.891 362.07 388.441C362.07 385.991 362.619 383.81 363.715 381.896C364.812 379.983 366.282 378.501 368.125 377.451C369.992 376.378 372.034 375.841 374.25 375.841C377.144 375.841 379.559 376.611 381.495 378.151C383.432 379.691 384.657 381.733 385.17 384.276H381.81C381.32 382.596 380.41 381.29 379.08 380.356C377.75 379.4 376.129 378.921 374.215 378.921C372.465 378.921 370.925 379.33 369.595 380.146C368.289 380.963 367.274 382.095 366.55 383.541C365.85 384.988 365.5 386.621 365.5 388.441C365.5 390.261 365.85 391.895 366.55 393.341C367.274 394.788 368.289 395.92 369.595 396.736C370.925 397.553 372.465 397.961 374.215 397.961C376.129 397.961 377.75 397.495 379.08 396.561C380.41 395.605 381.32 394.286 381.81 392.606H385.17C384.82 394.286 384.155 395.768 383.175 397.051C382.195 398.311 380.935 399.291 379.395 399.991C377.879 400.691 376.164 401.041 374.25 401.041ZM397.587 401.041C396.327 401.041 395.079 400.738 393.842 400.131C392.605 399.501 391.59 398.65 390.797 397.576C390.074 396.573 389.537 395.395 389.187 394.041C388.86 392.688 388.697 391.125 388.697 389.351C388.697 386.645 389.07 384.276 389.817 382.246C390.564 380.216 391.649 378.641 393.072 377.521C394.495 376.401 396.199 375.841 398.182 375.841C400.259 375.841 401.962 376.425 403.292 377.591C404.622 378.735 405.404 380.275 405.637 382.211H402.382C402.032 380.998 401.519 380.146 400.842 379.656C400.165 379.166 399.244 378.921 398.077 378.921C396.98 378.921 395.989 379.248 395.102 379.901C394.239 380.555 393.55 381.511 393.037 382.771C392.547 384.008 392.302 385.466 392.302 387.146C393.119 386.166 394.029 385.478 395.032 385.081C396.059 384.685 397.237 384.486 398.567 384.486C400.06 384.486 401.402 384.813 402.592 385.466C403.805 386.12 404.75 387.053 405.427 388.266C406.127 389.48 406.477 390.88 406.477 392.466C406.477 394.076 406.104 395.535 405.357 396.841C404.61 398.148 403.56 399.175 402.207 399.921C400.854 400.668 399.314 401.041 397.587 401.041ZM397.762 397.961C398.835 397.961 399.769 397.705 400.562 397.191C401.355 396.678 401.962 396.013 402.382 395.196C402.825 394.356 403.047 393.47 403.047 392.536C403.047 391.603 402.825 390.728 402.382 389.911C401.962 389.071 401.355 388.395 400.562 387.881C399.769 387.368 398.835 387.111 397.762 387.111C396.689 387.111 395.755 387.368 394.962 387.881C394.169 388.395 393.55 389.071 393.107 389.911C392.687 390.728 392.477 391.603 392.477 392.536C392.477 394.076 392.955 395.371 393.912 396.421C394.869 397.448 396.152 397.961 397.762 397.961Z" fill="black"/>
<path d="M367.81 742.271H361.58V739.191H377.4V742.271H371.17V763.691H367.81V742.271ZM380.985 738.141H384.065V748.466C384.741 747.743 385.651 747.125 386.795 746.611C387.938 746.098 389.14 745.841 390.4 745.841C392.266 745.841 393.725 746.366 394.775 747.416C395.848 748.443 396.385 749.843 396.385 751.616V763.691H393.305V752.176C393.305 751.033 392.966 750.146 392.29 749.516C391.613 748.886 390.691 748.571 389.525 748.571C388.521 748.571 387.53 748.863 386.55 749.446C385.57 750.03 384.741 750.788 384.065 751.721V763.691H380.985V738.141ZM409.242 764.041C407.982 764.041 406.734 763.738 405.497 763.131C404.261 762.501 403.246 761.65 402.452 760.576C401.729 759.573 401.192 758.395 400.842 757.041C400.516 755.688 400.352 754.125 400.352 752.351C400.352 749.645 400.726 747.276 401.472 745.246C402.219 743.216 403.304 741.641 404.727 740.521C406.151 739.401 407.854 738.841 409.837 738.841C411.914 738.841 413.617 739.425 414.947 740.591C416.277 741.735 417.059 743.275 417.292 745.211H414.037C413.687 743.998 413.174 743.146 412.497 742.656C411.821 742.166 410.899 741.921 409.732 741.921C408.636 741.921 407.644 742.248 406.757 742.901C405.894 743.555 405.206 744.511 404.692 745.771C404.202 747.008 403.957 748.466 403.957 750.146C404.774 749.166 405.684 748.478 406.687 748.081C407.714 747.685 408.892 747.486 410.222 747.486C411.716 747.486 413.057 747.813 414.247 748.466C415.461 749.12 416.406 750.053 417.082 751.266C417.782 752.48 418.132 753.88 418.132 755.466C418.132 757.076 417.759 758.535 417.012 759.841C416.266 761.148 415.216 762.175 413.862 762.921C412.509 763.668 410.969 764.041 409.242 764.041ZM409.417 760.961C410.491 760.961 411.424 760.705 412.217 760.191C413.011 759.678 413.617 759.013 414.037 758.196C414.481 757.356 414.702 756.47 414.702 755.536C414.702 754.603 414.481 753.728 414.037 752.911C413.617 752.071 413.011 751.395 412.217 750.881C411.424 750.368 410.491 750.111 409.417 750.111C408.344 750.111 407.411 750.368 406.617 750.881C405.824 751.395 405.206 752.071 404.762 752.911C404.342 753.728 404.132 754.603 404.132 755.536C404.132 757.076 404.611 758.371 405.567 759.421C406.524 760.448 407.807 760.961 409.417 760.961Z" fill="black"/>
<path d="M367.81 936.291H361.58V933.211H377.4V936.291H371.17V957.711H367.81V936.291ZM380.985 932.161H384.065V942.486C384.741 941.763 385.651 941.144 386.795 940.631C387.938 940.118 389.14 939.861 390.4 939.861C392.266 939.861 393.725 940.386 394.775 941.436C395.848 942.463 396.385 943.863 396.385 945.636V957.711H393.305V946.196C393.305 945.053 392.966 944.166 392.29 943.536C391.613 942.906 390.691 942.591 389.525 942.591C388.521 942.591 387.53 942.883 386.55 943.466C385.57 944.049 384.741 944.808 384.065 945.741V957.711H380.985V932.161ZM401.997 954.631H407.422V937.901C406.862 938.391 406.232 938.729 405.532 938.916C404.856 939.079 403.922 939.161 402.732 939.161V936.361H403.292C404.552 936.361 405.521 936.116 406.197 935.626C406.874 935.113 407.282 934.308 407.422 933.211H410.782V954.631H416.207V957.711H401.997V954.631ZM430.157 958.061C428.22 958.061 426.529 957.524 425.082 956.451C423.635 955.354 422.527 953.849 421.757 951.936C420.987 950.023 420.602 947.864 420.602 945.461C420.602 943.058 420.987 940.899 421.757 938.986C422.527 937.073 423.635 935.579 425.082 934.506C426.529 933.409 428.22 932.861 430.157 932.861C432.094 932.861 433.785 933.409 435.232 934.506C436.679 935.579 437.787 937.073 438.557 938.986C439.327 940.899 439.712 943.058 439.712 945.461C439.712 947.864 439.327 950.023 438.557 951.936C437.787 953.849 436.679 955.354 435.232 956.451C433.785 957.524 432.094 958.061 430.157 958.061ZM430.157 954.981C432.14 954.981 433.657 954.118 434.707 952.391C435.757 950.664 436.282 948.354 436.282 945.461C436.282 942.568 435.757 940.258 434.707 938.531C433.657 936.804 432.14 935.941 430.157 935.941C428.174 935.941 426.657 936.804 425.607 938.531C424.557 940.258 424.032 942.568 424.032 945.461C424.032 948.354 424.557 950.664 425.607 952.391C426.657 954.118 428.174 954.981 430.157 954.981Z" fill="black"/>
<path d="M375.25 303.041C373.034 303.041 370.992 302.516 369.125 301.466C367.282 300.393 365.812 298.9 364.715 296.986C363.619 295.073 363.07 292.891 363.07 290.441C363.07 287.991 363.619 285.81 364.715 283.896C365.812 281.983 367.282 280.501 369.125 279.451C370.992 278.378 373.034 277.841 375.25 277.841C378.144 277.841 380.559 278.611 382.495 280.151C384.432 281.691 385.657 283.733 386.17 286.276H382.81C382.32 284.596 381.41 283.29 380.08 282.356C378.75 281.4 377.129 280.921 375.215 280.921C373.465 280.921 371.925 281.33 370.595 282.146C369.289 282.963 368.274 284.095 367.55 285.541C366.85 286.988 366.5 288.621 366.5 290.441C366.5 292.261 366.85 293.895 367.55 295.341C368.274 296.788 369.289 297.92 370.595 298.736C371.925 299.553 373.465 299.961 375.215 299.961C377.129 299.961 378.75 299.495 380.08 298.561C381.41 297.605 382.32 296.286 382.81 294.606H386.17C385.82 296.286 385.155 297.768 384.175 299.051C383.195 300.311 381.935 301.291 380.395 301.991C378.879 302.691 377.164 303.041 375.25 303.041ZM401.002 297.301H389.592V294.221L401.212 278.191H404.362V294.221H407.302V297.301H404.362V302.691H401.002V297.301ZM401.002 294.221V283.476L393.162 294.221H401.002Z" fill="black"/>
<path d="M368.81 644.271H362.58V641.191H378.4V644.271H372.17V665.691H368.81V644.271ZM381.985 640.141H385.065V650.466C385.741 649.743 386.651 649.125 387.795 648.611C388.938 648.098 390.14 647.841 391.4 647.841C393.266 647.841 394.725 648.366 395.775 649.416C396.848 650.443 397.385 651.843 397.385 653.616V665.691H394.305V654.176C394.305 653.033 393.966 652.146 393.29 651.516C392.613 650.886 391.691 650.571 390.525 650.571C389.521 650.571 388.53 650.863 387.55 651.446C386.57 652.03 385.741 652.788 385.065 653.721V665.691H381.985V640.141ZM412.657 660.301H401.247V657.221L412.867 641.191H416.017V657.221H418.957V660.301H416.017V665.691H412.657V660.301ZM412.657 657.221V646.476L404.817 657.221H412.657Z" fill="black"/>
<path d="M367.81 497.271H361.58V494.191H377.4V497.271H371.17V518.691H367.81V497.271ZM380.985 493.141H384.065V503.466C384.741 502.743 385.651 502.125 386.795 501.611C387.938 501.098 389.14 500.841 390.4 500.841C392.266 500.841 393.725 501.366 394.775 502.416C395.848 503.443 396.385 504.843 396.385 506.616V518.691H393.305V507.176C393.305 506.033 392.966 505.146 392.29 504.516C391.613 503.886 390.691 503.571 389.525 503.571C388.521 503.571 387.53 503.863 386.55 504.446C385.57 505.03 384.741 505.788 384.065 506.721V518.691H380.985V493.141ZM403.108 498.881C402.548 499.371 401.918 499.71 401.218 499.896C400.541 500.06 399.608 500.141 398.418 500.141V497.341H398.978C400.238 497.341 401.206 497.096 401.883 496.606C402.559 496.093 402.968 495.288 403.108 494.191H406.468V518.691H403.108V498.881Z" fill="black"/>
<path d="M367.81 840.271H361.58V837.191H377.4V840.271H371.17V861.691H367.81V840.271ZM380.985 836.141H384.065V846.466C384.741 845.743 385.651 845.125 386.795 844.611C387.938 844.098 389.14 843.841 390.4 843.841C392.266 843.841 393.725 844.366 394.775 845.416C395.848 846.443 396.385 847.843 396.385 849.616V861.691H393.305V850.176C393.305 849.033 392.966 848.146 392.29 847.516C391.613 846.886 390.691 846.571 389.525 846.571C388.521 846.571 387.53 846.863 386.55 847.446C385.57 848.03 384.741 848.788 384.065 849.721V861.691H380.985V836.141ZM409.102 862.041C407.469 862.041 406.034 861.715 404.797 861.061C403.561 860.385 402.616 859.463 401.962 858.296C401.309 857.13 400.982 855.811 400.982 854.341C400.982 852.988 401.321 851.775 401.997 850.701C402.674 849.605 403.561 848.753 404.657 848.146C403.864 847.563 403.234 846.828 402.767 845.941C402.324 845.031 402.102 844.075 402.102 843.071C402.102 841.881 402.406 840.82 403.012 839.886C403.642 838.93 404.494 838.183 405.567 837.646C406.641 837.11 407.819 836.841 409.102 836.841C410.386 836.841 411.564 837.11 412.637 837.646C413.711 838.183 414.551 838.93 415.157 839.886C415.787 840.82 416.102 841.881 416.102 843.071C416.102 844.075 415.869 845.031 415.402 845.941C414.959 846.828 414.341 847.563 413.547 848.146C414.644 848.753 415.531 849.605 416.207 850.701C416.884 851.775 417.222 852.988 417.222 854.341C417.222 855.811 416.896 857.13 416.242 858.296C415.589 859.463 414.644 860.385 413.407 861.061C412.171 861.715 410.736 862.041 409.102 862.041ZM409.102 846.921C410.222 846.921 411.132 846.583 411.832 845.906C412.532 845.23 412.882 844.343 412.882 843.246C412.882 842.15 412.532 841.263 411.832 840.586C411.132 839.91 410.222 839.571 409.102 839.571C407.982 839.571 407.072 839.91 406.372 840.586C405.672 841.263 405.322 842.15 405.322 843.246C405.322 844.343 405.672 845.23 406.372 845.906C407.072 846.583 407.982 846.921 409.102 846.921ZM409.102 858.961C410.409 858.961 411.517 858.53 412.427 857.666C413.337 856.78 413.792 855.648 413.792 854.271C413.792 852.895 413.337 851.775 412.427 850.911C411.517 850.025 410.409 849.581 409.102 849.581C407.796 849.581 406.687 850.025 405.777 850.911C404.867 851.775 404.412 852.895 404.412 854.271C404.412 855.648 404.867 856.78 405.777 857.666C406.687 858.53 407.796 858.961 409.102 858.961Z" fill="black"/>
<path d="M367.81 1034.29H361.58V1031.21H377.4V1034.29H371.17V1055.71H367.81V1034.29ZM380.985 1030.16H384.065V1040.49C384.741 1039.76 385.651 1039.14 386.795 1038.63C387.938 1038.12 389.14 1037.86 390.4 1037.86C392.266 1037.86 393.725 1038.39 394.775 1039.44C395.848 1040.46 396.385 1041.86 396.385 1043.64V1055.71H393.305V1044.2C393.305 1043.05 392.966 1042.17 392.29 1041.54C391.613 1040.91 390.691 1040.59 389.525 1040.59C388.521 1040.59 387.53 1040.88 386.55 1041.47C385.57 1042.05 384.741 1042.81 384.065 1043.74V1055.71H380.985V1030.16ZM401.997 1052.63H407.422V1035.9C406.862 1036.39 406.232 1036.73 405.532 1036.92C404.856 1037.08 403.922 1037.16 402.732 1037.16V1034.36H403.292C404.552 1034.36 405.521 1034.12 406.197 1033.63C406.874 1033.11 407.282 1032.31 407.422 1031.21H410.782V1052.63H416.207V1055.71H401.997V1052.63ZM421.722 1052.84L431.837 1043.74C432.864 1042.81 433.634 1041.93 434.147 1041.12C434.66 1040.28 434.917 1039.28 434.917 1038.14C434.917 1036.83 434.474 1035.81 433.587 1035.06C432.724 1034.31 431.592 1033.94 430.192 1033.94C428.769 1033.94 427.59 1034.37 426.657 1035.24C425.747 1036.1 425.257 1037.29 425.187 1038.81H421.967C422.037 1037.29 422.434 1035.92 423.157 1034.71C423.904 1033.5 424.872 1032.55 426.062 1031.88C427.275 1031.2 428.605 1030.86 430.052 1030.86C431.615 1030.86 433.004 1031.15 434.217 1031.74C435.454 1032.32 436.41 1033.15 437.087 1034.22C437.787 1035.29 438.137 1036.54 438.137 1037.97C438.137 1039.48 437.787 1040.85 437.087 1042.06C436.41 1043.25 435.395 1044.44 434.042 1045.63L426.097 1052.63H438.627V1055.71H421.722V1052.84Z" fill="black"/>
<path d="M115.801 1643.32C118.626 1636.33 110.239 1618.15 104.632 1618.15L87.858 1616.72C92.074 1634.93 86.692 1639.15 104.632 1643.32C103.242 1650.37 111.629 1658.76 117.236 1660.15C117.236 1667.19 122.797 1667.19 127.013 1669.98C145.178 1693.8 143.788 1667.19 129.794 1664.37C129.757 1662.58 129.209 1660.84 128.216 1659.35C127.222 1657.87 125.825 1656.7 124.188 1655.98C124.225 1653.27 123.444 1650.61 121.947 1648.36C120.451 1646.1 118.309 1644.34 115.801 1643.32Z" fill="white" stroke="#1D1D1B" stroke-width="5.17" stroke-linecap="round" stroke-linejoin="round"/>
<path d="M129.275 1662.98C130.665 1667.2 129.275 1670.03 126.494 1668.59" stroke="#1D1D1B" stroke-width="5.17" stroke-linecap="round" stroke-linejoin="round"/>
<path d="M116.964 1660.2C120.837 1661.59 122.127 1658.76 123.418 1655.98" stroke="#1D1D1B" stroke-width="5.17" stroke-linecap="round" stroke-linejoin="round"/>
<path d="M115.281 1643.37C112.5 1648.98 106.939 1644.77 104.113 1643.37" stroke="#1D1D1B" stroke-width="5.17" stroke-linecap="round" stroke-linejoin="round"/>
<path d="M231.22 1544.59H234.58V1555.02L243.925 1544.59H247.88L237.52 1556.14L248.37 1569.09H244.03L234.58 1557.82V1569.09H231.22V1544.59ZM255.432 1544.59H263.832C266.586 1544.59 268.779 1545.31 270.412 1546.76C272.069 1548.18 272.897 1550.13 272.897 1552.6C272.897 1555.07 272.069 1557.03 270.412 1558.48C268.779 1559.9 266.586 1560.62 263.832 1560.62H258.792V1569.09H255.432V1544.59ZM263.902 1557.54C267.659 1557.54 269.537 1555.89 269.537 1552.6C269.537 1549.31 267.659 1547.67 263.902 1547.67H258.792V1557.54H263.902ZM280.602 1544.59H295.267V1547.67H283.962V1555.3H294.322V1558.38H283.962V1566.01H295.652V1569.09H280.602V1544.59ZM314.176 1569.44C311.959 1569.44 309.918 1568.91 308.051 1567.86C306.208 1566.79 304.738 1565.29 303.641 1563.38C302.544 1561.47 301.996 1559.29 301.996 1556.84C301.996 1554.39 302.544 1552.2 303.641 1550.29C304.738 1548.38 306.208 1546.9 308.051 1545.85C309.918 1544.77 311.959 1544.24 314.176 1544.24C317.069 1544.24 319.484 1545.01 321.421 1546.55C323.358 1548.09 324.583 1550.13 325.096 1552.67H321.736C321.246 1550.99 320.336 1549.68 319.006 1548.75C317.676 1547.79 316.054 1547.32 314.141 1547.32C312.391 1547.32 310.851 1547.72 309.521 1548.54C308.214 1549.36 307.199 1550.49 306.476 1551.94C305.776 1553.38 305.426 1555.02 305.426 1556.84C305.426 1558.66 305.776 1560.29 306.476 1561.74C307.199 1563.18 308.214 1564.31 309.521 1565.13C310.851 1565.95 312.391 1566.36 314.141 1566.36C316.054 1566.36 317.676 1565.89 319.006 1564.96C320.336 1564 321.246 1562.68 321.736 1561H325.096C324.746 1562.68 324.081 1564.16 323.101 1565.45C322.121 1566.71 320.861 1567.69 319.321 1568.39C317.804 1569.09 316.089 1569.44 314.176 1569.44ZM336.427 1547.67H330.197V1544.59H346.017V1547.67H339.787V1569.09H336.427V1547.67ZM353.241 1544.59H367.906V1547.67H356.601V1555.3H366.961V1558.38H356.601V1566.01H368.291V1569.09H353.241V1544.59ZM393.619 1569.09H376.189V1544.59H379.549V1566.01H390.819V1544.59H394.179V1566.01H396.979V1573.29H393.619V1569.09Z" fill="black"/>
<path d="M169.692 1656.31H173.052V1666.74L182.397 1656.31H186.352L175.992 1667.86L186.842 1680.81H182.502L173.052 1669.54V1680.81H169.692V1656.31ZM202.719 1681.16C200.456 1681.16 198.391 1680.63 196.524 1679.58C194.681 1678.51 193.222 1677.02 192.149 1675.1C191.076 1673.19 190.539 1671.01 190.539 1668.56C190.539 1666.11 191.076 1663.93 192.149 1662.01C193.222 1660.1 194.681 1658.62 196.524 1657.57C198.391 1656.5 200.456 1655.96 202.719 1655.96C204.982 1655.96 207.036 1656.5 208.879 1657.57C210.746 1658.62 212.216 1660.1 213.289 1662.01C214.362 1663.93 214.899 1666.11 214.899 1668.56C214.899 1671.01 214.362 1673.19 213.289 1675.1C212.216 1677.02 210.746 1678.51 208.879 1679.58C207.036 1680.63 204.982 1681.16 202.719 1681.16ZM202.719 1678.08C204.469 1678.08 206.009 1677.68 207.339 1676.89C208.669 1676.07 209.684 1674.95 210.384 1673.53C211.107 1672.08 211.469 1670.43 211.469 1668.56C211.469 1666.69 211.107 1665.05 210.384 1663.62C209.684 1662.18 208.669 1661.06 207.339 1660.26C206.009 1659.45 204.469 1659.04 202.719 1659.04C200.969 1659.04 199.429 1659.45 198.099 1660.26C196.769 1661.06 195.742 1662.18 195.019 1663.62C194.319 1665.05 193.969 1666.69 193.969 1668.56C193.969 1670.43 194.319 1672.08 195.019 1673.53C195.742 1674.95 196.769 1676.07 198.099 1676.89C199.429 1677.68 200.969 1678.08 202.719 1678.08ZM222.596 1656.31H240.621V1680.81H237.261V1659.39H225.956V1680.81H222.596V1656.31ZM265.55 1656.31V1680.81H262.19V1669.96C261.443 1670.45 260.545 1670.85 259.495 1671.15C258.445 1671.45 257.36 1671.6 256.24 1671.6C253.977 1671.6 252.203 1671.11 250.92 1670.13C249.66 1669.13 249.03 1667.67 249.03 1665.76V1656.31H252.39V1665.2C252.39 1666.37 252.74 1667.22 253.44 1667.75C254.163 1668.27 255.213 1668.52 256.59 1668.52C258.62 1668.52 260.487 1667.93 262.19 1666.74V1656.31H265.55ZM273.961 1656.31H277.321V1675.73L288.591 1656.31H292.371V1680.81H289.011V1661.38L277.741 1680.81H273.961V1656.31ZM300.771 1656.31H304.131V1666.74L313.476 1656.31H317.431L307.071 1667.86L317.921 1680.81H313.581L304.131 1669.54V1680.81H300.771V1656.31Z" fill="black"/>
<line x1="93.6308" y1="1158.63" x2="137.932" y2="1164.74" stroke="black"/>
<line x1="93.6573" y1="1204" x2="148.058" y2="1214.5" stroke="black"/>
<line x1="93.679" y1="1250.46" x2="148.079" y2="1263.5" stroke="black"/>
<line x1="93.7831" y1="1298.44" x2="144.588" y2="1323.42" stroke="black"/>
<line x1="93.8921" y1="1346.09" x2="127.171" y2="1375.26" stroke="black"/>
<path d="M43.8563 1141.49H47.2163V1162.91H59.2913V1165.99H43.8563V1141.49ZM64.6946 1162.91H70.1196V1146.18C69.5596 1146.67 68.9296 1147.01 68.2296 1147.19C67.553 1147.36 66.6196 1147.44 65.4296 1147.44V1144.64H65.9896C67.2496 1144.64 68.218 1144.39 68.8946 1143.9C69.5713 1143.39 69.9796 1142.58 70.1196 1141.49H73.4796V1162.91H78.9046V1165.99H64.6946V1162.91Z" fill="black"/>
<path d="M43.8563 1190.49H47.2163V1211.91H59.2913V1214.99H43.8563V1190.49ZM63.3646 1212.12L73.4796 1203.02C74.5063 1202.08 75.2763 1201.21 75.7896 1200.39C76.303 1199.55 76.5596 1198.56 76.5596 1197.42C76.5596 1196.11 76.1163 1195.08 75.2296 1194.34C74.3663 1193.59 73.2346 1193.22 71.8346 1193.22C70.4113 1193.22 69.233 1193.65 68.2996 1194.51C67.3896 1195.38 66.8996 1196.57 66.8296 1198.08H63.6096C63.6796 1196.57 64.0763 1195.2 64.7996 1193.99C65.5463 1192.77 66.5146 1191.83 67.7046 1191.15C68.918 1190.48 70.248 1190.14 71.6946 1190.14C73.258 1190.14 74.6463 1190.43 75.8596 1191.01C77.0963 1191.6 78.053 1192.42 78.7296 1193.5C79.4296 1194.57 79.7796 1195.82 79.7796 1197.24C79.7796 1198.76 79.4296 1200.12 78.7296 1201.34C78.053 1202.53 77.038 1203.72 75.6846 1204.91L67.7396 1211.91H80.2696V1214.99H63.3646V1212.12Z" fill="black"/>
<path d="M43.8563 1239.49H47.2163V1260.91H59.2913V1263.99H43.8563V1239.49ZM71.9746 1264.34C70.1546 1264.34 68.568 1263.94 67.2146 1263.15C65.8846 1262.35 64.8463 1261.3 64.0996 1260C63.353 1258.67 62.933 1257.21 62.8396 1255.62H65.9896C66.1063 1257.3 66.678 1258.67 67.7046 1259.72C68.7546 1260.74 70.1546 1261.26 71.9046 1261.26C73.5846 1261.26 74.903 1260.76 75.8596 1259.75C76.8396 1258.73 77.3296 1257.31 77.3296 1255.52C77.3296 1253.77 76.7463 1252.43 75.5796 1251.49C74.413 1250.54 72.978 1250.06 71.2746 1250.06H70.5046V1247.01L75.4046 1242.57H63.9246V1239.49H79.6047V1242.67L74.0396 1247.47C75.953 1247.93 77.5513 1248.83 78.8346 1250.16C80.118 1251.47 80.7596 1253.25 80.7596 1255.52C80.7596 1257.15 80.3746 1258.64 79.6047 1260C78.8346 1261.35 77.773 1262.41 76.4196 1263.18C75.0896 1263.95 73.608 1264.34 71.9746 1264.34Z" fill="black"/>
<path d="M43.8563 1288.49H47.2163V1309.91H59.2913V1312.99H43.8563V1288.49ZM74.3546 1307.6H62.9446V1304.52L74.5646 1288.49H77.7146V1304.52H80.6546V1307.6H77.7146V1312.99H74.3546V1307.6ZM74.3546 1304.52V1293.77L66.5146 1304.52H74.3546Z" fill="black"/>
<path d="M43.8563 1337.49H47.2163V1358.91H59.2913V1361.99H43.8563V1337.49ZM71.6596 1362.34C70.0496 1362.34 68.5913 1362 67.2846 1361.32C65.978 1360.65 64.928 1359.7 64.1346 1358.49C63.3646 1357.27 62.933 1355.89 62.8396 1354.32H66.1996C66.363 1355.7 66.9113 1356.87 67.8446 1357.82C68.778 1358.78 70.0496 1359.26 71.6596 1359.26C73.3863 1359.26 74.7513 1358.73 75.7546 1357.68C76.7813 1356.63 77.2946 1355.17 77.2946 1353.31C77.2946 1351.46 76.7813 1350.04 75.7546 1349.04C74.7513 1348.01 73.4796 1347.5 71.9396 1347.5C70.563 1347.5 69.408 1347.7 68.4746 1348.09C67.5646 1348.47 66.713 1348.93 65.9196 1349.49L63.5046 1348.34L65.0446 1337.49H78.8346V1340.57H67.5996L66.5846 1346.41C67.3313 1345.9 68.218 1345.48 69.2446 1345.15C70.2713 1344.83 71.3213 1344.66 72.3946 1344.66C74.938 1344.66 76.9563 1345.43 78.4496 1346.97C79.9663 1348.49 80.7247 1350.57 80.7247 1353.2C80.7247 1354.84 80.363 1356.35 79.6396 1357.75C78.9163 1359.13 77.8663 1360.24 76.4896 1361.08C75.113 1361.92 73.503 1362.34 71.6596 1362.34Z" fill="black"/>
</g>
<defs>
<clipPath id="clip0_427_4512">
<rect width="469" height="1685" fill="white"/>
</clipPath>
</defs>
</svg>
