<svg width="469" height="1685" viewBox="0 0 469 1685" fill="none" xmlns="http://www.w3.org/2000/svg">
<g clip-path="url(#clip0_431_4633)">
<g opacity="0.15">
<path d="M109.455 1604.17C110.845 1606.99 109.455 1611.17 106.674 1609.78L109.455 1604.17Z" stroke="#1D1D1B" stroke-width="5.17"/>
<path d="M109.455 1604.17C110.845 1606.99 109.455 1611.17 106.674 1609.78" stroke="#1D1D1B" stroke-width="5.17" stroke-linecap="round" stroke-linejoin="round"/>
<path d="M96.8918 1599.95C101.064 1601.39 103.844 1599.95 103.844 1595.78L96.8918 1599.95Z" stroke="#1D1D1B" stroke-width="5.17"/>
<path d="M96.8918 1599.95C101.064 1601.39 103.844 1599.95 103.844 1595.78" stroke="#1D1D1B" stroke-width="5.17" stroke-linecap="round" stroke-linejoin="round"/>
<path d="M95.4609 1583.17C94.0709 1590.21 88.5089 1584.61 84.2929 1583.17H95.4609Z" stroke="#1D1D1B" stroke-width="5.17"/>
<path d="M95.4609 1583.17C94.0709 1590.21 88.5089 1584.61 84.2929 1583.17" stroke="#1D1D1B" stroke-width="5.17" stroke-linecap="round" stroke-linejoin="round"/>
<path d="M67.6082 1541.13C69.0442 1542.52 82.9922 1543.91 82.9922 1542.52L67.6082 1541.13Z" stroke="#1D1D1B" stroke-width="5.17"/>
<path d="M67.6082 1541.13C69.0442 1542.52 82.9922 1543.91 82.9922 1542.52" stroke="#1D1D1B" stroke-width="5.17" stroke-linecap="round" stroke-linejoin="round"/>
<path d="M173.727 359.709C169.172 363.148 163.922 365.552 158.343 366.754C130.401 370.926 127.62 362.536 115.062 372.317C101.068 380.752 102.458 347.101 117.842 355.537C122.014 356.927 135.783 344.32 143.004 347.101C152.782 351.319 162.559 342.884 169.556 340.102C162.559 341.493 155.563 338.711 147.13 340.102C144.35 340.102 142.959 328.885 152.737 327.494C196.019 321.885 184.895 302.278 200.235 309.278C204.249 310.409 208.505 310.35 212.486 309.107C216.467 307.865 220.002 305.492 222.66 302.278L221.225 293.843C200.279 303.669 189.111 296.67 183.505 307.887C182.115 312.059 180.724 305.06 180.724 303.669C177.943 277.017 196.063 298.061 203.15 281.235C210.237 264.41 228.312 281.235 228.312 260.237C227.195 258.593 226.702 256.604 226.921 254.628C201.67 261.628 197.678 263.019 193.193 273.024C193.193 274.415 183.415 282.805 186.196 274.415C187.631 270.198 183.415 249.199 194.583 254.808C208.577 263.198 204.406 237.982 217.009 236.591C226.787 235.156 229.568 232.374 233.784 223.939C226.787 225.374 222.616 223.939 225.396 214.157C207.456 215.548 200.235 237.982 183.46 239.373C176.508 240.764 182.07 235.156 183.46 226.765C183.46 214.157 198.844 222.548 201.401 207.158C204.226 195.941 218.175 202.94 220.956 190.332C220.956 184.724 200.01 187.506 179.065 204.331C174.849 181.897 173.458 183.333 194.404 166.507C215.35 149.682 211.178 176.334 234.77 152.509C235.887 151.43 236.72 150.092 237.194 148.613C237.669 147.134 237.771 145.561 237.492 144.034C237.212 142.506 236.559 141.072 235.592 139.857C234.624 138.643 233.371 137.687 231.945 137.074C219.386 135.683 195.615 149.682 190.053 139.901C181.666 121.684 222.212 131.466 226.383 123.075C233.38 117.467 210.999 109.032 240.332 110.467L243.158 104.859C245.938 103.423 247.329 102.032 250.154 102.032L248.719 110.467C264.103 104.859 278.097 93.6422 275.271 107.641C272.49 117.467 292.046 102.032 287.875 120.249C287.875 125.857 276.662 131.466 276.662 139.901C287.875 139.901 283.659 163.681 287.875 170.725C296.262 186.115 273.881 179.115 268.319 176.334L266.884 179.115C269.71 200.114 287.875 184.724 284.825 197.332C281.775 209.94 290.431 211.331 287.65 221.157C287.65 225.374 275.047 219.766 265.225 215.548L263.834 216.939C270.831 221.157 268.05 229.547 281.775 230.983C288.772 230.983 284.556 270.198 277.604 265.98C273.388 261.807 270.607 254.808 262.219 258.98L260.829 260.416C264.552 273.024 278.411 273.024 278.411 286.844C276.976 292.452 275.585 317.668 268.633 307.887C265.501 302.768 261.157 298.5 255.985 295.458C255.445 295.999 254.788 296.41 254.065 296.659C253.343 296.907 252.573 296.988 251.814 296.894C255.985 317.892 254.595 302.502 265.763 317.892C269.979 323.501 258.766 330.5 255.985 341.717C253.204 351.543 247.598 327.718 237.82 337.544C242.036 351.543 232.214 347.326 250.424 354.325C254.595 355.761 240.601 375.368 240.601 380.977C239.211 385.194 229.433 375.368 229.433 372.541C219.655 378.15 205.707 372.541 204.316 361.324L196.063 362.76C184.94 348.717 183.505 354.325 173.638 359.934" stroke="#1D1D1B" stroke-width="5.17"/>
<path d="M173.727 359.709C169.172 363.148 163.922 365.552 158.343 366.754C130.401 370.926 127.62 362.536 115.062 372.317C101.068 380.752 102.458 347.101 117.842 355.537C122.014 356.927 135.783 344.32 143.004 347.101C152.782 351.319 162.559 342.884 169.556 340.102C162.559 341.493 155.563 338.711 147.13 340.102C144.35 340.102 142.959 328.885 152.737 327.494C196.019 321.885 184.895 302.278 200.235 309.278C204.249 310.409 208.505 310.35 212.486 309.107C216.467 307.865 220.002 305.492 222.66 302.278L221.225 293.843C200.279 303.669 189.111 296.67 183.505 307.887C182.115 312.059 180.724 303.669 180.724 303.669C177.943 277.017 196.063 298.061 203.15 281.235C210.237 264.41 228.312 281.235 228.312 260.237C227.195 258.593 226.702 256.604 226.921 254.628C201.67 261.628 197.678 263.019 193.193 273.024C193.193 274.415 183.415 282.805 186.196 274.415C187.631 270.198 183.415 249.199 194.583 254.808C208.577 263.198 204.406 237.982 217.009 236.591C226.787 235.156 229.568 232.374 233.784 223.939C226.787 225.374 222.616 223.939 225.396 214.157C207.456 215.548 200.235 237.982 183.46 239.373C176.508 240.764 182.07 235.156 183.46 226.765C183.46 214.157 198.844 222.548 201.401 207.158C204.226 195.941 218.175 202.94 220.956 190.332C220.956 184.724 200.01 187.506 179.065 204.331C174.849 181.897 173.458 183.333 194.404 166.507C215.35 149.682 211.178 176.334 234.77 152.509C235.887 151.43 236.72 150.092 237.194 148.613C237.669 147.134 237.771 145.561 237.492 144.034C237.212 142.506 236.559 141.072 235.592 139.857C234.624 138.643 233.371 137.687 231.945 137.074C219.386 135.683 195.615 149.682 190.053 139.901C181.666 121.684 222.212 131.466 226.383 123.075C233.38 117.467 210.999 109.032 240.332 110.467L243.158 104.859C245.938 103.423 247.329 102.032 250.154 102.032L248.719 110.467C264.103 104.859 278.097 93.6422 275.271 107.641C272.49 117.467 292.046 102.032 287.875 120.249C287.875 125.857 276.662 131.466 276.662 139.901C287.875 139.901 283.659 163.681 287.875 170.725C296.262 186.115 273.881 179.115 268.319 176.334L266.884 179.115C269.71 200.114 287.875 184.724 284.825 197.332C281.775 209.94 290.431 211.331 287.65 221.157C287.65 225.374 275.047 219.766 265.225 215.548L263.834 216.939C270.831 221.157 268.05 229.547 281.775 230.983C288.772 230.983 284.556 270.198 277.604 265.98C273.388 261.807 270.607 254.808 262.219 258.98L260.829 260.416C264.552 273.024 278.411 273.024 278.411 286.844C278.411 292.452 275.585 317.668 268.633 307.887C265.501 302.768 261.157 298.5 255.985 295.458C255.445 295.999 254.788 296.41 254.065 296.659C253.343 296.907 252.573 296.988 251.814 296.894C255.985 317.892 254.595 302.502 265.763 317.892C269.979 323.501 258.766 330.5 255.985 341.717C253.204 351.543 247.598 327.718 237.82 337.544C242.036 351.543 232.214 347.326 250.424 354.325C254.595 355.761 240.601 375.368 240.601 380.977C239.211 385.194 229.433 375.368 229.433 372.541C219.655 378.15 205.707 372.541 204.316 361.324L196.063 362.76C184.94 348.492 183.505 354.101 173.727 359.709Z" stroke="#1D1D1B" stroke-width="5.17" stroke-linecap="round" stroke-linejoin="round"/>
<path d="M238.038 146.719C243.644 160.717 268.806 142.501 277.148 139.719" stroke="#1D1D1B" stroke-width="5.17" stroke-linecap="round" stroke-linejoin="round"/>
<path d="M257.556 162.109C264.552 150.892 265.943 170.499 257.556 170.499V162.109Z" stroke="#1D1D1B" stroke-width="5.17"/>
<path d="M257.556 162.109C264.552 150.892 265.943 170.499 257.556 170.499" stroke="#1D1D1B" stroke-width="5.17" stroke-linecap="round" stroke-linejoin="round"/>
<path d="M267.328 178.799C258.941 194.234 246.383 170.409 239.386 178.799C235.215 183.016 230.999 195.624 221.445 190.016" stroke="#1D1D1B" stroke-width="5.17"/>
<path d="M267.328 178.799C258.941 194.234 246.383 170.409 239.386 178.799C235.215 183.016 230.999 195.624 221.445 190.016" stroke="#1D1D1B" stroke-width="5.17" stroke-linecap="round" stroke-linejoin="round"/>
<path d="M265.938 191.543C265.938 201.37 254.769 206.978 254.769 194.37L265.938 191.543Z" stroke="#1D1D1B" stroke-width="5.17"/>
<path d="M265.938 191.543C265.938 201.37 254.769 206.978 254.769 194.37" stroke="#1D1D1B" stroke-width="5.17" stroke-linecap="round" stroke-linejoin="round"/>
<path d="M262.969 127.988C262.969 134.847 256.172 138.196 255.786 130.074Z" stroke="#1D1D1B" stroke-width="5.17" stroke-linecap="round" stroke-linejoin="round"/>
<path d="M264.547 216.757C256.16 226.583 254.769 211.149 247.772 208.367" stroke="#1D1D1B" stroke-width="5.17"/>
<path d="M264.547 216.757C256.16 226.583 254.769 211.149 247.772 208.367" stroke="#1D1D1B" stroke-width="5.17" stroke-linecap="round" stroke-linejoin="round"/>
<path d="M251.992 212.586C246.402 216.903 240.391 220.646 234.052 223.759L251.992 212.586Z" stroke="#1D1D1B" stroke-width="5.17"/>
<path d="M251.992 212.586C246.402 216.903 240.391 220.646 234.052 223.759" stroke="#1D1D1B" stroke-width="5.17" stroke-linecap="round" stroke-linejoin="round"/>
<path d="M225.438 213.976L228.219 209.758" stroke="#1D1D1B" stroke-width="5.17"/>
<path d="M225.438 213.976L228.219 209.758" stroke="#1D1D1B" stroke-width="5.17" stroke-linecap="round" stroke-linejoin="round"/>
<path d="M228.219 247.582L226.829 254.581" stroke="#1D1D1B" stroke-width="5.17"/>
<path d="M228.219 247.582L226.829 254.581" stroke="#1D1D1B" stroke-width="5.17" stroke-linecap="round" stroke-linejoin="round"/>
<path d="M228.224 260.238C231.004 261.629 238.001 256.02 244.998 254.629C249.169 264.411 256.166 264.411 261.773 260.238" stroke="#1D1D1B" stroke-width="5.17" stroke-linecap="round" stroke-linejoin="round"/>
<path d="M263.16 258.801C267.574 254.175 270.496 248.328 271.547 242.02L263.16 258.801Z" stroke="#1D1D1B" stroke-width="5.17"/>
<path d="M263.16 258.801C267.574 254.175 270.496 248.328 271.547 242.02" stroke="#1D1D1B" stroke-width="5.17" stroke-linecap="round" stroke-linejoin="round"/>
<path d="M263.156 243.41C257.549 251.8 249.162 247.583 251.988 237.801L263.156 243.41Z" stroke="#1D1D1B" stroke-width="5.17"/>
<path d="M263.156 243.41C257.549 251.8 249.162 247.583 251.988 237.801" stroke="#1D1D1B" stroke-width="5.17" stroke-linecap="round" stroke-linejoin="round"/>
<path d="M255.984 284.016C244.816 288.234 248.987 277.017 247.597 272.844L255.984 284.016Z" stroke="#1D1D1B" stroke-width="5.17"/>
<path d="M255.984 284.016C244.816 288.234 248.987 277.017 247.597 272.844" stroke="#1D1D1B" stroke-width="5.17" stroke-linecap="round" stroke-linejoin="round"/>
<path d="M264.547 284.016C261.955 288.02 259.092 291.843 255.98 295.458L264.368 284.24" stroke="#1D1D1B" stroke-width="5.17"/>
<path d="M264.547 284.016C261.955 288.02 259.092 291.843 255.98 295.458" stroke="#1D1D1B" stroke-width="5.17" stroke-linecap="round" stroke-linejoin="round"/>
<path d="M251.992 296.668C246.386 298.059 242.215 292.451 236.608 282.625" stroke="#1D1D1B" stroke-width="5.17" stroke-linecap="round" stroke-linejoin="round"/>
<path d="M240.781 288.234C233.829 289.67 228.223 296.669 222.841 302.278" stroke="#1D1D1B" stroke-width="5.17" stroke-linecap="round" stroke-linejoin="round"/>
<path d="M242.215 307.883C243.575 309.964 244.3 312.396 244.3 314.883C244.3 317.369 243.575 319.801 242.215 321.882C233.827 330.272 253.383 327.491 250.602 317.665L242.215 307.883Z" stroke="#1D1D1B" stroke-width="5.17"/>
<path d="M242.215 307.883C243.575 309.964 244.3 312.396 244.3 314.883C244.3 317.369 243.575 319.801 242.215 321.882C233.827 330.272 253.383 327.491 250.602 317.665" stroke="#1D1D1B" stroke-width="5.17" stroke-linecap="round" stroke-linejoin="round"/>
<path d="M238.039 337.319C228.261 345.709 224.09 317.667 217.093 328.884C210.096 338.71 194.668 331.666 169.596 340.101" stroke="#1D1D1B" stroke-width="5.17"/>
<path d="M238.039 337.319C228.261 345.709 224.09 317.667 217.093 328.884C210.096 338.71 194.668 331.666 169.596 340.101" stroke="#1D1D1B" stroke-width="5.17" stroke-linecap="round" stroke-linejoin="round"/>
<path d="M224.051 340.324C224.559 347.129 223.095 353.937 219.835 359.931C218.444 362.758 229.612 362.758 233.828 357.149L224.051 340.324Z" stroke="#1D1D1B" stroke-width="5.17"/>
<path d="M224.051 340.324C224.559 347.129 223.095 353.937 219.835 359.931C218.444 362.758 229.612 362.758 233.828 357.149" stroke="#1D1D1B" stroke-width="5.17" stroke-linecap="round" stroke-linejoin="round"/>
<path d="M232.391 369.535L229.61 372.317" stroke="#1D1D1B" stroke-width="5.17"/>
<path d="M232.391 369.535L229.61 372.317" stroke="#1D1D1B" stroke-width="5.17" stroke-linecap="round" stroke-linejoin="round"/>
<path d="M168.119 1056.19C155.56 1060.41 136.005 1074.41 131.789 1061.85C122.011 1035.2 163.947 1036.59 165.338 1009.98C159.776 1007.15 155.56 1002.98 152.779 1001.59C137.395 1016.98 127.618 1029.59 122.011 1021.2C109.453 1000.15 141.566 987.551 138.786 965.113C130.398 966.551 122.011 966.551 123.446 958.114C115.059 981.941 96.8485 958.114 99.6745 953.896C112.234 937.07 108.062 924.507 110.843 909.028C108.741 908.674 106.79 907.706 105.237 906.246C96.8486 902.029 85.7256 928.68 82.8106 914.636L78.6395 902.029C77.2035 895.029 93.9786 865.596 91.1976 848.77C88.7156 849.596 86.0386 849.633 83.5336 848.878C81.0286 848.123 78.8176 846.613 77.2036 844.553C71.6426 852.988 59.2636 865.596 56.2586 855.77C47.8716 826.336 77.2036 805.338 71.6426 775.905H64.7355C64.7355 784.295 50.7866 813.728 42.3096 795.512C28.3156 767.469 61.8645 738.081 63.2555 708.647L59.0396 707.212C52.0876 726.864 35.3126 736.646 39.4836 698.822C40.9196 679.215 59.0396 665.215 64.6456 645.563C62.9086 645.862 61.1255 645.763 59.4325 645.273C57.7385 644.783 56.1785 643.916 54.8675 642.736C27.2395 659.607 46.5705 611.957 67.6055 583.959C60.6085 581.132 59.2186 574.133 60.6086 567.134C50.8766 574.133 45.2696 561.525 63.4346 550.308C77.3836 541.918 75.9925 527.874 91.3775 518.093C89.0035 517.3 86.9296 515.801 85.4306 513.796C83.9316 511.792 83.0805 509.377 82.9895 506.876C67.6055 515.311 57.7386 502.658 68.9516 491.441C74.5126 484.442 80.1195 491.441 88.5065 484.442L113.624 460.617C107.973 457.835 103.846 448.009 109.453 442.4C101.066 429.792 80.1196 455.008 80.1196 446.618C77.2936 404.577 124.971 432.574 138.786 417.185C131.789 412.967 133.224 405.968 138.786 400.359C127.618 400.359 119.23 394.751 101.065 401.75C94.0686 404.577 90.0316 377.925 112.458 380.707C130.398 382.098 148.788 384.88 164.172 376.489C162.781 370.881 164.172 365.272 173.949 359.664C183.727 354.055 185.117 348.447 196.375 362.49C203.372 372.317 192.204 382.098 200.591 382.098C204.807 382.098 207.588 382.098 207.588 376.489C217.366 382.098 221.537 391.879 234.14 393.315C245.308 393.315 229.924 403.096 224.362 418.531C221.537 429.748 197.81 408.749 189.423 407.314C181.036 405.878 196.375 394.706 189.423 391.879C182.426 390.533 172.649 405.923 178.255 414.313C181.036 419.922 185.207 414.313 190.813 417.14L214.585 429.748C222.927 433.965 201.981 440.965 203.372 457.79C204.807 473.18 188.033 449.355 168.433 447.964C174.039 424.139 151.703 424.139 150.492 449.355C150.492 466.18 156.098 457.79 164.486 457.79C174.263 460.572 174.263 467.571 195.209 473.18C200.815 475.962 188.257 490.005 188.257 499.831C186.822 513.83 174.263 505.395 167.266 501.222C157.489 495.614 140.714 499.831 147.711 488.614C157.489 468.962 135.153 466.18 130.937 485.788C129.546 494.223 115.597 487.179 108.511 494.223C112.682 509.613 126.451 487.179 130.937 501.222C137.933 518.048 136.543 492.787 146.321 505.395C158.879 519.439 179.87 506.831 177.089 525.047C177.089 533.438 172.873 537.655 171.482 546.046C171.482 557.263 150.492 551.654 144.93 546.046C139.369 540.437 114.162 550.263 123.985 534.873C133.807 519.484 109.453 522.266 107.973 537.745C107.869 539.198 107.244 540.565 106.215 541.595C105.185 542.625 103.819 543.249 102.366 543.353C102.366 555.961 106.582 543.353 107.973 555.961C109.695 554.057 111.904 552.658 114.362 551.915C116.819 551.172 119.433 551.113 121.921 551.744C113.534 562.961 158.251 557.352 163.858 564.352C168.029 567.178 159.686 576.96 163.858 589.612C168.029 599.394 163.858 606.393 159.686 606.393C144.302 605.002 127.528 603.611 112.144 603.611C102.366 603.611 114.969 578.395 96.7596 579.786C87.0266 579.786 85.6365 593.785 88.4165 600.829C93.9785 616.219 89.8076 620.437 109.363 607.829L110.753 612.002C112.458 617.61 156.951 610.566 156.951 622.994C155.56 658.036 166.728 658.036 158.341 659.427C141.566 662.254 122.011 653.863 106.672 662.254C106.672 651.037 109.453 644.038 95.4585 644.038C85.7255 642.603 87.1166 656.645 87.1166 662.254C95.4586 660.863 89.8966 674.862 94.0686 676.253C101.066 677.644 98.2846 670.644 106.672 669.253C112.234 669.253 106.672 681.861 158.341 669.253C166.728 666.471 155.56 691.687 168.119 714.121C172.335 722.556 152.779 714.121 126.227 721.121C106.672 725.338 116.45 714.121 108.287 703.173C99.8985 694.738 85.8606 719.999 90.3456 725.607C102.904 721.39 93.1266 757.868 112.772 729.825C115.597 725.607 130.712 736.824 151.927 729.825C177.089 722.826 168.657 738.26 169.868 748.041C172.649 764.867 181.036 762.04 175.429 773.257C175.429 776.084 150.268 777.475 137.709 781.693C129.322 783.083 123.76 791.474 122.325 774.648C120.621 759.124 90.0316 764.733 98.2846 784.52C101.066 791.52 96.8486 788.737 92.6776 797.127C110.619 783.128 102.456 801.345 113.624 799.954C122.011 798.563 116.45 794.345 122.011 794.345C154.17 795.736 165.338 790.129 175.115 784.52C187.719 777.521 179.331 804.127 187.719 812.562C197.496 822.343 198.887 830.778 194.671 832.169C179.331 837.778 168.119 837.778 148.563 846.213C138.786 851.776 143.002 837.778 136.005 834.996C124.837 829.387 112.458 843.208 126.227 851.822C129.008 853.258 126.227 861.647 126.227 863.038C136.005 875.646 138.786 851.821 149.954 857.43C163.947 861.647 190.32 840.604 197.496 842.04C205.884 843.431 200.277 864.474 214.271 872.864C229.61 884.081 210.055 891.081 201.668 892.472C190.295 895.444 179.458 900.183 169.554 906.515C159.776 912.124 162.557 886.863 148.563 896.689C141.566 902.298 144.392 912.124 147.173 917.688C156.951 910.688 149.954 927.514 162.557 927.514C175.115 926.123 155.56 917.687 183.503 914.906C197.496 914.906 208.664 899.471 223.869 900.907C235.037 900.907 226.65 924.732 236.427 934.513C247.596 941.557 240.599 951.339 232.211 948.557C221.043 945.73 191.845 975.161 187.36 962.556C182.875 949.948 164.934 963.946 171.976 973.771C171.976 975.161 176.192 984.991 167.76 986.381C190.186 976.551 181.753 998.991 194.312 983.551C205.525 968.161 226.47 973.771 236.248 962.556C253.023 944.339 251.632 969.551 257.194 979.381C261.41 984.991 276.749 1004.6 268.407 1008.81C260.064 1013.03 247.416 1008.81 219.474 1026.99C215.302 1005.99 197.048 1017.2 195.702 1034.03C180.363 1032.64 171.976 1045.25 167.76 1056.46" stroke="#1D1D1B" stroke-width="5.17"/>
<path d="M163.952 375.141C166.733 379.314 169.559 386.358 179.336 386.358" stroke="#1D1D1B" stroke-width="5.17" stroke-linecap="round" stroke-linejoin="round"/>
<path d="M213.504 389.66C210.678 394.525 205.84 402.22 204.405 392.407Z" stroke="#1D1D1B" stroke-width="5.17" stroke-linecap="round" stroke-linejoin="round"/>
<path d="M176.555 407.357C172.339 400.357 162.561 408.748 162.561 400.357C161.171 387.749 144.621 393.358 138.79 400.357" stroke="#1D1D1B" stroke-width="5.17"/>
<path d="M176.555 407.357C172.339 400.357 162.561 408.748 162.561 400.357C161.171 387.749 144.621 393.358 138.79 400.357" stroke="#1D1D1B" stroke-width="5.17" stroke-linecap="round" stroke-linejoin="round"/>
<path d="M138.785 417.184C140.386 418.914 142.285 420.343 144.391 421.402L138.785 417.184Z" stroke="#1D1D1B" stroke-width="5.17"/>
<path d="M138.785 417.184C140.386 418.914 142.285 420.343 144.391 421.402" stroke="#1D1D1B" stroke-width="5.17" stroke-linecap="round" stroke-linejoin="round"/>
<path d="M190.5 426.966C187.719 431.184 176.551 434.01 183.503 424.184L190.5 426.966Z" stroke="#1D1D1B" stroke-width="5.17"/>
<path d="M190.5 426.966C187.719 431.184 176.551 434.01 183.503 424.184" stroke="#1D1D1B" stroke-width="5.17" stroke-linecap="round" stroke-linejoin="round"/>
<path d="M149.953 449.399C127.527 449.399 145.782 446.617 134.614 436.791C127.617 429.792 113.623 436.791 109.452 442.4" stroke="#1D1D1B" stroke-width="5.17"/>
<path d="M149.953 449.399C127.527 449.399 145.782 446.617 134.614 436.791C127.617 429.792 113.623 436.791 109.452 442.4" stroke="#1D1D1B" stroke-width="5.17" stroke-linecap="round" stroke-linejoin="round"/>
<path d="M113.623 460.618C115.215 461.378 116.997 461.652 118.744 461.405C120.491 461.157 122.126 460.4 123.445 459.227" stroke="#1D1D1B" stroke-width="5.17" stroke-linecap="round" stroke-linejoin="round"/>
<path d="M156.949 467.617C152.778 477.443 161.165 480.225 165.336 470.443L156.949 467.617Z" stroke="#1D1D1B" stroke-width="5.17"/>
<path d="M156.949 467.617C152.778 477.443 161.165 480.225 165.336 470.443" stroke="#1D1D1B" stroke-width="5.17" stroke-linecap="round" stroke-linejoin="round"/>
<path d="M107.977 494.265C105.152 485.83 81.4246 480.222 82.8156 506.873" stroke="#1D1D1B" stroke-width="5.17"/>
<path d="M107.977 494.265C105.151 485.83 82.8146 480.222 82.8146 506.873" stroke="#1D1D1B" stroke-width="5.17" stroke-linecap="round" stroke-linejoin="round"/>
<path d="M91.2845 518.092C92.8755 518.836 94.6505 519.097 96.3885 518.842C98.1265 518.587 99.7515 517.827 101.062 516.656L91.2845 518.092Z" fill="#1D1D1B"/>
<path d="M140.175 511.047C131.788 520.873 140.175 527.873 147.172 516.656L140.175 511.047Z" stroke="#1D1D1B" stroke-width="5.17"/>
<path d="M140.175 511.047C131.788 520.873 140.175 527.873 147.172 516.656" stroke="#1D1D1B" stroke-width="5.17" stroke-linecap="round" stroke-linejoin="round"/>
<path d="M102.461 543.309C87.1209 544.7 99.6799 554.526 85.7309 554.526C71.7369 553.135 63.3049 560.135 60.5239 567.134" stroke="#1D1D1B" stroke-width="5.17" stroke-linecap="round" stroke-linejoin="round"/>
<path d="M67.518 583.914L73.125 586.74" stroke="#1D1D1B" stroke-width="5.17"/>
<path d="M67.518 583.914L73.125 586.74" stroke="#1D1D1B" stroke-width="5.17" stroke-linecap="round" stroke-linejoin="round"/>
<path d="M120.62 558.699C117.84 565.743 119.23 576.915 127.617 568.525L120.62 558.699Z" stroke="#1D1D1B" stroke-width="5.17"/>
<path d="M120.62 558.699C117.84 565.743 119.23 576.915 127.617 568.525" stroke="#1D1D1B" stroke-width="5.17" stroke-linecap="round" stroke-linejoin="round"/>
<path d="M88.5078 600.785C81.5108 607.784 71.7338 607.784 67.5168 617.565" stroke="#1D1D1B" stroke-width="5.17" stroke-linecap="round" stroke-linejoin="round"/>
<path d="M80.1172 613.391C73.1202 625.999 66.1232 607.783 54.9552 624.563C50.7842 632.998 50.7842 638.607 54.9552 642.78" stroke="#1D1D1B" stroke-width="5.17"/>
<path d="M80.1172 613.391C73.1202 625.999 66.1232 607.783 54.9552 624.563C50.7842 632.998 50.7842 638.607 54.9552 642.78" stroke="#1D1D1B" stroke-width="5.17" stroke-linecap="round" stroke-linejoin="round"/>
<path d="M64.7379 645.429C67.0139 646.052 69.4229 645.984 71.6589 645.233C73.8959 644.482 75.8579 643.082 77.2969 641.211" stroke="#1D1D1B" stroke-width="5.17" stroke-linecap="round" stroke-linejoin="round"/>
<path d="M107.973 620.391C105.147 631.608 110.754 635.781 117.75 623.173L107.973 620.391Z" stroke="#1D1D1B" stroke-width="5.17"/>
<path d="M107.973 620.391C105.147 631.608 110.754 635.781 117.75 623.173" stroke="#1D1D1B" stroke-width="5.17" stroke-linecap="round" stroke-linejoin="round"/>
<path d="M117.842 683.43C119.232 693.256 99.9011 690.429 109.455 680.648L117.842 683.43Z" stroke="#1D1D1B" stroke-width="5.17"/>
<path d="M117.842 683.43C119.232 693.256 99.9011 690.429 109.455 680.648" stroke="#1D1D1B" stroke-width="5.17" stroke-linecap="round" stroke-linejoin="round"/>
<path d="M87.1172 662.43C78.7302 662.43 80.1202 672.256 74.5142 676.429L87.1172 662.43Z" stroke="#1D1D1B" stroke-width="5.17"/>
<path d="M87.1172 662.43C78.7302 662.43 80.1202 672.256 74.5142 676.429" stroke="#1D1D1B" stroke-width="5.17" stroke-linecap="round" stroke-linejoin="round"/>
<path d="M80.125 676.43C41.014 677.821 41.014 701.646 59.179 707.255" stroke="#1D1D1B" stroke-width="5.17"/>
<path d="M80.125 676.43C41.014 677.821 41.014 701.646 59.179 707.255" stroke="#1D1D1B" stroke-width="5.17" stroke-linecap="round" stroke-linejoin="round"/>
<path d="M63.3489 708.693C66.4119 708.735 69.4109 707.808 71.9159 706.043C74.4209 704.278 76.3049 701.767 77.2969 698.867" stroke="#1D1D1B" stroke-width="5.17" stroke-linecap="round" stroke-linejoin="round"/>
<path d="M129.008 740.906C124.837 750.732 113.624 752.123 115.06 736.688L129.008 740.906Z" stroke="#1D1D1B" stroke-width="5.17"/>
<path d="M129.008 740.906C124.837 750.732 113.624 752.123 115.06 736.688" stroke="#1D1D1B" stroke-width="5.17" stroke-linecap="round" stroke-linejoin="round"/>
<path d="M90.0312 725.473C84.4253 726.864 77.4283 746.516 69.0853 746.516C56.4823 747.907 45.3143 780.122 64.8693 775.95" stroke="#1D1D1B" stroke-width="5.17"/>
<path d="M90.0312 725.473C84.4253 726.864 77.4283 746.516 69.0853 746.516C56.4823 747.907 45.3143 780.122 64.8693 775.95" stroke="#1D1D1B" stroke-width="5.17" stroke-linecap="round" stroke-linejoin="round"/>
<path d="M71.7372 775.95C80.1252 773.124 89.6782 768.951 88.5122 763.297" stroke="#1D1D1B" stroke-width="5.17" stroke-linecap="round" stroke-linejoin="round"/>
<path d="M77.2947 844.595C67.5177 836.204 80.1207 812.379 89.8987 808.162C95.4597 805.38 87.1177 802.553 92.6797 796.945" stroke="#1D1D1B" stroke-width="5.17"/>
<path d="M77.2947 844.595C67.5177 836.204 80.1207 812.379 89.8987 808.162C95.4597 805.38 87.1177 802.553 92.6797 796.945" stroke="#1D1D1B" stroke-width="5.17" stroke-linecap="round" stroke-linejoin="round"/>
<path d="M138.786 801.164C142.957 810.99 123.447 816.598 127.618 803.945L138.786 801.164Z" stroke="#1D1D1B" stroke-width="5.17"/>
<path d="M138.786 801.164C142.957 810.99 123.447 816.598 127.618 803.945" stroke="#1D1D1B" stroke-width="5.17" stroke-linecap="round" stroke-linejoin="round"/>
<path d="M109.45 831.988C110.841 847.422 103.844 848.813 91.5102 848.813L109.45 831.988Z" stroke="#1D1D1B" stroke-width="5.17"/>
<path d="M109.45 831.988C110.841 847.422 103.844 848.813 91.5102 848.813" stroke="#1D1D1B" stroke-width="5.17" stroke-linecap="round" stroke-linejoin="round"/>
<path d="M126.227 862.811C119.23 853.03 115.014 872.638 102.456 876.855C88.5066 879.637 98.2836 899.289 105.236 906.289" stroke="#1D1D1B" stroke-width="5.17"/>
<path d="M126.227 862.811C119.23 853.03 115.014 872.638 102.456 876.855C88.5066 879.637 98.2836 899.289 105.236 906.289" stroke="#1D1D1B" stroke-width="5.17" stroke-linecap="round" stroke-linejoin="round"/>
<path d="M110.842 909.072C115.058 907.681 117.838 902.073 122.055 897.855L110.842 909.072Z" stroke="#1D1D1B" stroke-width="5.17"/>
<path d="M110.842 909.072C115.058 907.681 117.838 902.073 122.055 897.855" stroke="#1D1D1B" stroke-width="5.17" stroke-linecap="round" stroke-linejoin="round"/>
<path d="M159.773 868.422C154.167 882.466 141.564 875.422 145.78 864.25L159.773 868.422Z" stroke="#1D1D1B" stroke-width="5.17"/>
<path d="M159.773 868.422C154.167 882.466 141.564 875.422 145.78 864.25" stroke="#1D1D1B" stroke-width="5.17" stroke-linecap="round" stroke-linejoin="round"/>
<path d="M147.172 917.461C144.391 918.897 143.001 920.288 138.785 930.114L147.172 917.461Z" stroke="#1D1D1B" stroke-width="5.17"/>
<path d="M147.172 917.461C144.391 918.897 143.001 920.288 138.785 930.114" stroke="#1D1D1B" stroke-width="5.17" stroke-linecap="round" stroke-linejoin="round"/>
<path d="M144.391 930.115C117.839 925.898 123.445 960.895 123.445 958.113" stroke="#1D1D1B" stroke-width="5.17"/>
<path d="M144.391 930.115C117.839 925.898 123.445 960.895 123.445 958.113" stroke="#1D1D1B" stroke-width="5.17" stroke-linecap="round" stroke-linejoin="round"/>
<path d="M138.785 965.113C144.391 963.722 149.953 959.549 149.953 955.332L138.785 965.113Z" stroke="#1D1D1B" stroke-width="5.17"/>
<path d="M138.785 965.113C144.391 963.722 149.953 959.549 149.953 955.332" stroke="#1D1D1B" stroke-width="5.17" stroke-linecap="round" stroke-linejoin="round"/>
<path d="M180.726 928.68C183.507 935.724 166.732 941.333 170.948 931.507L180.726 928.68Z" stroke="#1D1D1B" stroke-width="5.17"/>
<path d="M180.726 928.68C183.507 935.724 166.732 941.333 170.948 931.507" stroke="#1D1D1B" stroke-width="5.17" stroke-linecap="round" stroke-linejoin="round"/>
<path d="M152.824 1001.59C148.608 997.37 152.824 993.16 168.164 986.16" stroke="#1D1D1B" stroke-width="5.17"/>
<path d="M152.824 1001.59C148.608 997.37 152.824 993.16 168.164 986.16" stroke="#1D1D1B" stroke-width="5.17" stroke-linecap="round" stroke-linejoin="round"/>
<path d="M190.502 991.758C184.895 998.758 205.886 1000.15 201.67 991.758H190.502Z" stroke="#1D1D1B" stroke-width="5.17"/>
<path d="M190.502 991.758C184.895 998.758 205.886 1000.15 201.67 991.758" stroke="#1D1D1B" stroke-width="5.17" stroke-linecap="round" stroke-linejoin="round"/>
<path d="M126.227 1346.31C154.17 1335.09 152.779 1357.53 162.557 1357.53L180.812 1349.4L188.975 1352.95L197.346 1360.27L207.591 1351.05C210.372 1362.27 214.405 1347.61 229.745 1360.27C245.129 1374.26 254.906 1391.09 264.684 1363.05C271.681 1339.22 294.062 1346.22 291.236 1328C291.236 1321.01 254.906 1311.18 239.522 1295.79C233.961 1290.18 226.964 1301.35 219.967 1301.35C210.189 1299.96 222.748 1285.96 210.189 1287.35C210.189 1280.36 229.745 1271.92 233.961 1271.92C253.516 1269.14 229.745 1288.79 238.132 1288.79C260.558 1291.57 278.498 1302.79 300.924 1302.79C310.702 1302.79 302.314 1280.35 312.092 1262.14C327.476 1231.31 284.15 1238.31 268.81 1234.1C238.042 1225.71 250.645 1238.31 238.042 1238.31C222.658 1236.92 233.871 1227.1 222.658 1224.31C224.093 1214.49 228.265 1200.49 238.042 1200.49C256.207 1200.49 242.258 1222.92 247.82 1222.92C273.206 1220.14 319.313 1236.97 315.097 1218.75C309.536 1192.1 324.92 1169.71 313.707 1162.67C306.755 1158.49 274.596 1165.49 255.041 1159.88C245.263 1157.06 246.654 1166.88 241.047 1169.71C236.876 1162.67 234.095 1157.06 224.318 1155.67C228.489 1144.45 222.882 1140.23 238.266 1136.06C256.431 1130.45 243.873 1155.67 252.26 1151.49C280.203 1138.84 319.313 1150.06 310.926 1134.67C299.758 1113.63 310.926 1082.8 298.367 1088.41C284.374 1094.02 249.434 1088.41 238.266 1099.63C222.793 1115.06 227.009 1098.24 215.841 1095.41C214.45 1072.97 234.006 1068.8 235.396 1080.02C236.652 1089.8 270.201 1078.58 275.762 1078.58C278.588 1077.19 303.705 1071.58 293.972 1065.98C283.925 1058.98 286.975 1002.89 265.985 1025.33C260.289 1032.37 223.959 1033.76 221.133 1037.98C211.356 1060.37 202.968 1033.76 195.971 1033.76C180.632 1032.41 172.245 1045.02 168.029 1056.19C166.639 1060.41 170.855 1067.41 173.635 1067.41C179.242 1066.02 180.632 1071.63 180.632 1074.46C169.419 1082.85 173.591 1087.06 158.206 1082.85C141.432 1080.06 127.483 1103.89 138.651 1117.89C158.206 1144.49 163.813 1102.45 187.584 1115.11C186.792 1116.92 186.504 1118.92 186.748 1120.88C186.993 1122.85 187.762 1124.71 188.975 1126.28C186.149 1134.71 172.29 1140.28 151.254 1138.89C130.219 1137.5 140.042 1179.54 152.645 1178.15C173.501 1175.36 170.81 1157.1 195.927 1166.93C194.035 1168.68 192.65 1170.91 191.916 1173.38C191.182 1175.85 191.126 1178.47 191.755 1180.97C180.587 1182.36 167.984 1187.97 156.816 1186.58C141.432 1185.15 131.654 1220.19 144.258 1225.8C162.422 1234.19 180.587 1211.8 195.927 1228.58C190.365 1232.79 186.149 1239.79 188.975 1246.84C180.812 1246.84 179.421 1248.23 171.034 1245.45C134.704 1235.62 131.879 1277.66 138.875 1286.05C150.043 1300.05 168.208 1277.66 180.812 1294.44C179.041 1295.97 177.718 1297.95 176.983 1300.17C176.248 1302.39 176.13 1304.77 176.64 1307.05C162.557 1312.66 154.215 1300.05 131.789 1308.49C113.624 1315.49 112.234 1350.53 126.227 1346.31Z" stroke="#1D1D1B" stroke-width="5.17" stroke-linecap="round" stroke-linejoin="round"/>
<path d="M204.492 1066.02C187.717 1059.02 184.892 1089.85 207.273 1082.85L204.492 1066.02Z" stroke="#1D1D1B" stroke-width="5.17"/>
<path d="M204.492 1066.02C187.717 1059.02 184.892 1089.85 207.273 1082.85" stroke="#1D1D1B" stroke-width="5.17" stroke-linecap="round" stroke-linejoin="round"/>
<path d="M180.72 1074.46C182.11 1077.24 182.11 1077.24 184.891 1077.24L180.72 1074.46Z" stroke="#1D1D1B" stroke-width="5.17"/>
<path d="M180.72 1074.46C182.11 1077.24 182.11 1077.24 184.891 1077.24" stroke="#1D1D1B" stroke-width="5.17" stroke-linecap="round" stroke-linejoin="round"/>
<path d="M215.617 1095.45C205.84 1092.67 189.065 1102.45 187.675 1115.11" stroke="#1D1D1B" stroke-width="5.17"/>
<path d="M215.617 1095.45C205.84 1092.67 189.065 1102.45 187.675 1115.11" stroke="#1D1D1B" stroke-width="5.17" stroke-linecap="round" stroke-linejoin="round"/>
<path d="M189.111 1126.28C191.128 1128.49 193.473 1130.38 196.062 1131.89L189.111 1126.28Z" stroke="#1D1D1B" stroke-width="5.17"/>
<path d="M189.111 1126.28C191.128 1128.49 193.473 1130.38 196.062 1131.89" stroke="#1D1D1B" stroke-width="5.17" stroke-linecap="round" stroke-linejoin="round"/>
<path d="M215.617 1117.89C200.233 1110.89 196.017 1141.71 214.227 1136.1L215.617 1117.89Z" stroke="#1D1D1B" stroke-width="5.17"/>
<path d="M215.617 1117.89C200.233 1110.89 196.017 1141.71 214.227 1136.1" stroke="#1D1D1B" stroke-width="5.17" stroke-linecap="round" stroke-linejoin="round"/>
<path d="M224.047 1155.71C218.797 1154.67 213.359 1155.18 208.392 1157.17C203.425 1159.16 199.141 1162.55 196.059 1166.93" stroke="#1D1D1B" stroke-width="5.17"/>
<path d="M224.047 1155.71C218.797 1154.67 213.359 1155.18 208.392 1157.17C203.425 1159.16 199.141 1162.55 196.059 1166.93" stroke="#1D1D1B" stroke-width="5.17" stroke-linecap="round" stroke-linejoin="round"/>
<path d="M191.891 1180.97C191.841 1182.81 192.188 1184.63 192.908 1186.32C193.628 1188.01 194.704 1189.52 196.062 1190.75L191.891 1180.97Z" stroke="#1D1D1B" stroke-width="5.17"/>
<path d="M191.891 1180.97C191.841 1182.81 192.188 1184.63 192.908 1186.32C193.628 1188.01 194.704 1189.52 196.062 1190.75" stroke="#1D1D1B" stroke-width="5.17" stroke-linecap="round" stroke-linejoin="round"/>
<path d="M221.227 1179.36C205.888 1162.53 194.675 1201.79 217.056 1198.96L221.227 1179.36Z" stroke="#1D1D1B" stroke-width="5.17"/>
<path d="M221.227 1179.36C205.888 1162.53 194.675 1201.79 217.056 1198.96" stroke="#1D1D1B" stroke-width="5.17" stroke-linecap="round" stroke-linejoin="round"/>
<path d="M222.617 1224.23C218.174 1222.79 213.455 1222.42 208.843 1223.14C204.231 1223.87 199.853 1225.67 196.064 1228.4" stroke="#1D1D1B" stroke-width="5.17" stroke-linecap="round" stroke-linejoin="round"/>
<path d="M189.11 1246.79L191.891 1252.4" stroke="#1D1D1B" stroke-width="5.17"/>
<path d="M189.11 1246.79L191.891 1252.4" stroke="#1D1D1B" stroke-width="5.17" stroke-linecap="round" stroke-linejoin="round"/>
<path d="M218.437 1239.79C200.497 1239.79 201.663 1273.45 222.609 1260.84L218.437 1239.79Z" stroke="#1D1D1B" stroke-width="5.17"/>
<path d="M218.437 1239.79C200.497 1239.79 201.663 1273.45 222.609 1260.84" stroke="#1D1D1B" stroke-width="5.17" stroke-linecap="round" stroke-linejoin="round"/>
<path d="M210.055 1287.44C200.278 1287.44 187.63 1288.83 180.723 1294.44" stroke="#1D1D1B" stroke-width="5.17" stroke-linecap="round" stroke-linejoin="round"/>
<path d="M176.547 1307.05L177.938 1315.44" stroke="#1D1D1B" stroke-width="5.17"/>
<path d="M176.547 1307.05L177.938 1315.44" stroke="#1D1D1B" stroke-width="5.17" stroke-linecap="round" stroke-linejoin="round"/>
<path d="M211.445 1311.27C197.496 1301.44 183.503 1335.09 204.493 1332.31L211.445 1311.27Z" stroke="#1D1D1B" stroke-width="5.17"/>
<path d="M211.445 1311.27C197.496 1301.44 183.503 1335.09 204.493 1332.31" stroke="#1D1D1B" stroke-width="5.17" stroke-linecap="round" stroke-linejoin="round"/>
<path d="M231.047 1412.18C242.26 1409.4 238.043 1400.96 238.043 1400.96L207.544 1350.53C205.141 1350.37 202.77 1351.16 200.941 1352.72C199.113 1354.29 197.973 1356.52 197.767 1358.92C193.551 1356.14 190.77 1353.31 186.554 1350.53C166.999 1340.7 152.826 1378.53 134.885 1365.92C112.504 1349.14 115.33 1381.35 102.726 1385.57C88.7782 1391.18 65.2222 1405.79 68.0032 1425.39C70.7842 1442.22 50.4482 1426 49.0572 1462.44C47.6222 1501.7 35.6732 1473.83 48.2322 1513.09C56.6192 1539.69 41.2802 1550.91 67.7872 1556.52L84.5612 1557.95C90.1682 1549.52 84.5612 1529.91 90.1682 1515.87C98.3312 1489.26 82.9472 1490.65 108.109 1475.26C134.661 1458.44 127.664 1473.83 154.216 1461.22C178.167 1450 169.6 1466.83 196.107 1455.61C225.485 1443 198.933 1419.18 231.047 1412.18Z" stroke="#1D1D1B" stroke-width="5.17"/>
<path d="M211.442 1420.57C221.22 1403.79 203.055 1392.57 187.716 1395.35C159.774 1399.57 187.716 1420.57 163.945 1422C151.386 1420.57 162.554 1441.61 129.005 1429C103.844 1420.57 92.6764 1458.44 92.6764 1476.65" stroke="#1D1D1B" stroke-width="5.17" stroke-linecap="round" stroke-linejoin="round"/>
<path d="M148.859 1367.57L151.055 1377.8C152.912 1386.46 158.072 1394.05 165.439 1398.96L172.464 1403.64" stroke="#1D1D1B" stroke-width="5" stroke-linecap="round" stroke-dasharray="10 10"/>
<path d="M107.047 1382.74L109.293 1393.21C111.12 1401.73 116.145 1409.22 123.332 1414.14L146.838 1430.23" stroke="#1D1D1B" stroke-width="5" stroke-linecap="round" stroke-dasharray="10 10"/>
<path d="M68.2031 1431.57L80.3303 1438.8C81.8882 1439.73 83.518 1440.53 85.2039 1441.2L100.528 1447.28" stroke="#1D1D1B" stroke-width="5" stroke-linecap="round" stroke-dasharray="10 10"/>
<path d="M46.0703 1486.7L56.6486 1492.6C62.701 1495.98 69.6411 1497.43 76.5392 1496.75L91.2951 1495.3" stroke="#1D1D1B" stroke-width="5" stroke-linecap="round" stroke-dasharray="10 10"/>
<path d="M67.6078 1556.52C69.0438 1557.95 82.9918 1560.74 84.3828 1557.95L67.6078 1556.52Z" stroke="#1D1D1B" stroke-width="5.17"/>
<path d="M67.6078 1556.52C69.0438 1557.95 82.9918 1560.74 84.3828 1557.95" stroke="#1D1D1B" stroke-width="5.17" stroke-linecap="round" stroke-linejoin="round"/>
<path d="M68.9498 1504.7C70.1318 1502.48 70.6278 1499.96 70.3718 1497.45C70.1158 1494.95 69.1218 1492.59 67.5138 1490.65" stroke="#1D1D1B" stroke-width="5.17" stroke-linecap="round" stroke-linejoin="round"/>
<path d="M79.3412 1449.65C86.2932 1449.65 91.8992 1430 82.1212 1434.22" stroke="#1D1D1B" stroke-width="5.17" stroke-linecap="round" stroke-linejoin="round"/>
<path d="M117.456 1393.9C123.857 1388.55 119.39 1402.31 119.39 1402.31C119.39 1402.31 117.038 1409.72 113.178 1412.08C109.544 1414.29 109.428 1409.55 111.232 1404.16" stroke="#1D1D1B" stroke-width="5.17"/>
<path d="M152.826 1395.35C154.217 1413.57 162.604 1379.96 155.607 1381.35" stroke="#1D1D1B" stroke-width="5.17" stroke-linecap="round" stroke-linejoin="round"/>
<path d="M95.7307 1583.12C98.5557 1576.13 90.1687 1557.95 84.5617 1557.95L67.7876 1556.52C72.0036 1574.73 66.6217 1578.95 84.5617 1583.12C83.1717 1590.17 91.5587 1598.56 97.1657 1599.95C97.1657 1606.99 102.727 1606.99 106.943 1609.78C125.108 1633.6 123.718 1606.99 109.724 1604.17C109.687 1602.38 109.139 1600.64 108.146 1599.15C107.152 1597.67 105.755 1596.5 104.118 1595.78C104.155 1593.07 103.374 1590.41 101.877 1588.16C100.381 1585.9 98.2387 1584.14 95.7307 1583.12Z" fill="white" stroke="#1D1D1B" stroke-width="5.17" stroke-linecap="round" stroke-linejoin="round"/>
<path d="M109.205 1602.78C110.595 1607 109.205 1609.83 106.424 1608.39" stroke="#1D1D1B" stroke-width="5.17" stroke-linecap="round" stroke-linejoin="round"/>
<path d="M96.8895 1600C100.763 1601.39 102.053 1598.56 103.344 1595.78" stroke="#1D1D1B" stroke-width="5.17" stroke-linecap="round" stroke-linejoin="round"/>
<path d="M95.2109 1583.17C92.4299 1588.78 86.8689 1584.57 84.0429 1583.17" stroke="#1D1D1B" stroke-width="5.17" stroke-linecap="round" stroke-linejoin="round"/>
</g>
<mask id="path-155-outside-1_431_4633" maskUnits="userSpaceOnUse" x="79.6875" y="-205.66" width="366" height="1397" fill="black">
<rect fill="white" x="79.6875" y="-205.66" width="366" height="1397"/>
<path fill-rule="evenodd" clip-rule="evenodd" d="M281.372 70.313L289.386 65.4286C296.394 61.157 300.671 53.5425 300.671 45.335V39.1418C300.671 28.6645 291.692 20.4384 281.255 21.3527L271.809 22.1802C268.604 22.4609 265.663 20.3927 264.844 17.2822C263.348 11.6035 269.451 6.94211 274.536 9.87924L278.331 12.0713C282.124 14.2618 286.947 12.0894 287.821 7.79755C288.892 2.53027 295.58 0.840561 299.025 4.96681L305.985 13.304C309.158 17.1047 314.389 18.4807 319.021 16.7329L323.986 14.8598C326.141 14.0469 328.425 13.6304 330.728 13.6304H337.907C341.698 13.6304 345.481 13.2617 349.2 12.5294L360.017 10.4C365.997 9.22275 371.716 6.97888 376.902 3.77565C383.115 -0.0632019 390.084 -2.51668 397.333 -3.41743L409.728 -4.95786C411.394 -5.16483 413.021 -5.61108 414.559 -6.28285L419.381 -8.38943C428.324 -12.2954 430.532 -23.9768 423.632 -30.877C419.745 -34.7631 418.524 -40.5792 420.52 -45.7001L434.665 -82.0027C446.096 -111.339 437.576 -144.698 413.479 -164.961L399.727 -176.525C381.958 -191.467 359.487 -199.659 336.27 -199.659L282.553 -199.66C249.332 -199.661 216.495 -192.563 186.241 -178.842L164.911 -169.169C147.281 -161.173 131.662 -149.335 119.199 -134.522C98.9254 -110.425 88.103 -79.7798 88.7485 -48.2953L88.7927 -46.1384L85.7127 -1.52718C85.2477 5.20926 91.2814 10.5637 97.9148 9.30124L98.6141 9.16814C99.6373 8.9734 100.605 8.55606 101.449 7.94566L110.478 1.41484C113.165 -0.528915 116.775 2.08502 115.766 5.2446C115.619 5.70711 115.375 6.1331 115.051 6.49452L103.901 18.9254C103.028 19.8982 101.768 20.454 100.461 20.454C96.6657 20.454 94.4626 24.8205 96.7951 27.8143L102.53 35.1747L114.038 50.3423C118.145 55.7549 123.336 60.2513 129.279 63.5442L145.54 72.5536C147.19 73.4676 149.148 73.6452 150.935 73.043C152.972 72.3568 154.556 70.7369 155.198 68.6859L166.81 31.5401L171.719 7.18759C171.974 5.92215 171.081 4.71301 169.796 4.58458C167.129 4.3179 167.198 0.408112 169.872 0.234802L175.031 -0.0994415C175.259 -0.114212 175.484 -0.15892 175.701 -0.232376L182.567 -2.56297C187.373 -4.19418 192.687 -2.7005 195.94 1.19565L198.196 3.89908C201.706 8.10362 208.099 8.30267 211.863 4.32463C214.41 1.63387 218.327 0.744492 221.786 2.07213L229.4 4.99481C234.707 7.03221 237.515 12.8459 235.811 18.2697L235.122 20.4623C233.361 26.0699 226.778 28.504 221.792 25.3916L219.005 23.6518C215.677 21.5742 211.279 23.0345 209.855 26.6905C207.893 31.7258 200.902 32.0783 198.444 27.2659L195.929 22.3432C193.253 17.104 186.27 15.9504 182.05 20.0503L178.208 23.7841C176.363 25.5771 175.106 27.8883 174.603 30.4117L169.829 54.3907C167.925 63.9497 170.568 73.8506 176.982 81.1896C180.343 85.0359 184.593 88.0042 189.361 89.837L199.086 93.5752C203.37 95.2222 208.051 92.3564 208.532 87.7914L210.048 73.4168C210.15 72.4453 210.403 71.4957 210.798 70.602L216.576 57.5133C217.973 54.3484 222.527 54.5402 223.653 57.8114C224.628 60.6432 228.341 61.2903 230.217 58.955L232.991 55.5004C235.95 51.8154 241.771 52.6227 243.616 56.974L244.482 59.0183C246.6 64.0138 242.933 69.5506 237.507 69.5506H233.133C227.942 69.5506 223.534 73.354 222.774 78.4895L221.209 103.894V103.894C221.209 103.958 221.196 104.022 221.17 104.081C221.136 104.159 221.118 104.244 221.118 104.334C221.118 104.358 221.119 104.382 221.122 104.405C221.122 104.413 221.123 104.42 221.125 104.427L224.098 124.329C226.082 137.609 227.078 151.019 227.078 164.446V194.534L224.102 233.025C221.636 261.157 216.585 289.002 209.014 316.209L208.607 317.671L194.873 350.566L173.905 394.899L140.713 460.814L118.564 508.945C108.087 542.225 101.264 576.547 98.2144 611.305L97.7021 617.144C96.4692 656.784 99.4201 696.442 106.506 735.463L107.802 742.601L119.392 795.451L142.254 857.11C156.487 898.432 174.61 938.311 196.377 976.209L197.469 978.111L222.894 1036.06L241.248 1073.42C245.402 1081.87 248.871 1090.65 251.622 1099.66C255.681 1112.95 258.153 1126.68 258.985 1140.55L260.572 1167.01L261.236 1184.37C261.275 1185.39 262.699 1185.58 263.011 1184.62C263.032 1184.55 263.045 1184.48 263.051 1184.41L264.542 1166.51L264.042 1148.5L262.906 1118.27C260.027 1098.82 254.842 1079.79 247.46 1061.56L234.708 1030.08L206.77 963.902L178.327 905.018L157.245 846.861L138.344 789.431L124.713 731.278L117.263 671.667V617.144L119.996 590.7C121.907 572.2 125.52 553.917 130.787 536.08C134.98 521.882 140.209 508.01 146.431 494.577L157.439 470.814L177.47 427.522L195.886 391.011L214.624 353.857C225.589 329.777 234.472 304.803 241.176 279.207L241.763 276.964L247.902 233.025V192.964L248.348 142.562L249.751 104.381C249.751 104.345 249.748 104.309 249.742 104.274C249.731 104.202 249.747 104.127 249.789 104.067V104.067L258.658 91.4726C264.717 82.953 272.445 75.7541 281.372 70.313Z"/>
</mask>
<path fill-rule="evenodd" clip-rule="evenodd" d="M281.372 70.313L289.386 65.4286C296.394 61.157 300.671 53.5425 300.671 45.335V39.1418C300.671 28.6645 291.692 20.4384 281.255 21.3527L271.809 22.1802C268.604 22.4609 265.663 20.3927 264.844 17.2822C263.348 11.6035 269.451 6.94211 274.536 9.87924L278.331 12.0713C282.124 14.2618 286.947 12.0894 287.821 7.79755C288.892 2.53027 295.58 0.840561 299.025 4.96681L305.985 13.304C309.158 17.1047 314.389 18.4807 319.021 16.7329L323.986 14.8598C326.141 14.0469 328.425 13.6304 330.728 13.6304H337.907C341.698 13.6304 345.481 13.2617 349.2 12.5294L360.017 10.4C365.997 9.22275 371.716 6.97888 376.902 3.77565C383.115 -0.0632019 390.084 -2.51668 397.333 -3.41743L409.728 -4.95786C411.394 -5.16483 413.021 -5.61108 414.559 -6.28285L419.381 -8.38943C428.324 -12.2954 430.532 -23.9768 423.632 -30.877C419.745 -34.7631 418.524 -40.5792 420.52 -45.7001L434.665 -82.0027C446.096 -111.339 437.576 -144.698 413.479 -164.961L399.727 -176.525C381.958 -191.467 359.487 -199.659 336.27 -199.659L282.553 -199.66C249.332 -199.661 216.495 -192.563 186.241 -178.842L164.911 -169.169C147.281 -161.173 131.662 -149.335 119.199 -134.522C98.9254 -110.425 88.103 -79.7798 88.7485 -48.2953L88.7927 -46.1384L85.7127 -1.52718C85.2477 5.20926 91.2814 10.5637 97.9148 9.30124L98.6141 9.16814C99.6373 8.9734 100.605 8.55606 101.449 7.94566L110.478 1.41484C113.165 -0.528915 116.775 2.08502 115.766 5.2446C115.619 5.70711 115.375 6.1331 115.051 6.49452L103.901 18.9254C103.028 19.8982 101.768 20.454 100.461 20.454C96.6657 20.454 94.4626 24.8205 96.7951 27.8143L102.53 35.1747L114.038 50.3423C118.145 55.7549 123.336 60.2513 129.279 63.5442L145.54 72.5536C147.19 73.4676 149.148 73.6452 150.935 73.043C152.972 72.3568 154.556 70.7369 155.198 68.6859L166.81 31.5401L171.719 7.18759C171.974 5.92215 171.081 4.71301 169.796 4.58458C167.129 4.3179 167.198 0.408112 169.872 0.234802L175.031 -0.0994415C175.259 -0.114212 175.484 -0.15892 175.701 -0.232376L182.567 -2.56297C187.373 -4.19418 192.687 -2.7005 195.94 1.19565L198.196 3.89908C201.706 8.10362 208.099 8.30267 211.863 4.32463C214.41 1.63387 218.327 0.744492 221.786 2.07213L229.4 4.99481C234.707 7.03221 237.515 12.8459 235.811 18.2697L235.122 20.4623C233.361 26.0699 226.778 28.504 221.792 25.3916L219.005 23.6518C215.677 21.5742 211.279 23.0345 209.855 26.6905C207.893 31.7258 200.902 32.0783 198.444 27.2659L195.929 22.3432C193.253 17.104 186.27 15.9504 182.05 20.0503L178.208 23.7841C176.363 25.5771 175.106 27.8883 174.603 30.4117L169.829 54.3907C167.925 63.9497 170.568 73.8506 176.982 81.1896C180.343 85.0359 184.593 88.0042 189.361 89.837L199.086 93.5752C203.37 95.2222 208.051 92.3564 208.532 87.7914L210.048 73.4168C210.15 72.4453 210.403 71.4957 210.798 70.602L216.576 57.5133C217.973 54.3484 222.527 54.5402 223.653 57.8114C224.628 60.6432 228.341 61.2903 230.217 58.955L232.991 55.5004C235.95 51.8154 241.771 52.6227 243.616 56.974L244.482 59.0183C246.6 64.0138 242.933 69.5506 237.507 69.5506H233.133C227.942 69.5506 223.534 73.354 222.774 78.4895L221.209 103.894V103.894C221.209 103.958 221.196 104.022 221.17 104.081C221.136 104.159 221.118 104.244 221.118 104.334C221.118 104.358 221.119 104.382 221.122 104.405C221.122 104.413 221.123 104.42 221.125 104.427L224.098 124.329C226.082 137.609 227.078 151.019 227.078 164.446V194.534L224.102 233.025C221.636 261.157 216.585 289.002 209.014 316.209L208.607 317.671L194.873 350.566L173.905 394.899L140.713 460.814L118.564 508.945C108.087 542.225 101.264 576.547 98.2144 611.305L97.7021 617.144C96.4692 656.784 99.4201 696.442 106.506 735.463L107.802 742.601L119.392 795.451L142.254 857.11C156.487 898.432 174.61 938.311 196.377 976.209L197.469 978.111L222.894 1036.06L241.248 1073.42C245.402 1081.87 248.871 1090.65 251.622 1099.66C255.681 1112.95 258.153 1126.68 258.985 1140.55L260.572 1167.01L261.236 1184.37C261.275 1185.39 262.699 1185.58 263.011 1184.62C263.032 1184.55 263.045 1184.48 263.051 1184.41L264.542 1166.51L264.042 1148.5L262.906 1118.27C260.027 1098.82 254.842 1079.79 247.46 1061.56L234.708 1030.08L206.77 963.902L178.327 905.018L157.245 846.861L138.344 789.431L124.713 731.278L117.263 671.667V617.144L119.996 590.7C121.907 572.2 125.52 553.917 130.787 536.08C134.98 521.882 140.209 508.01 146.431 494.577L157.439 470.814L177.47 427.522L195.886 391.011L214.624 353.857C225.589 329.777 234.472 304.803 241.176 279.207L241.763 276.964L247.902 233.025V192.964L248.348 142.562L249.751 104.381C249.751 104.345 249.748 104.309 249.742 104.274C249.731 104.202 249.747 104.127 249.789 104.067V104.067L258.658 91.4726C264.717 82.953 272.445 75.7541 281.372 70.313Z" fill="#FC8B75"/>
<path d="M289.386 65.4286L292.077 69.8432L292.077 69.8432L289.386 65.4286ZM281.372 70.313L278.681 65.8984L278.681 65.8984L281.372 70.313ZM281.255 21.3527L281.706 26.503L281.706 26.503L281.255 21.3527ZM271.809 22.1802L272.26 27.3305L272.26 27.3305L271.809 22.1802ZM264.844 17.2822L269.844 15.9653L269.844 15.9652L264.844 17.2822ZM274.536 9.87924L277.122 5.40239L277.122 5.40238L274.536 9.87924ZM278.331 12.0713L275.745 16.5481L275.745 16.5481L278.331 12.0713ZM287.821 7.79755L292.887 8.82816L292.887 8.82815L287.821 7.79755ZM299.025 4.96681L302.994 1.65353L302.994 1.65352L299.025 4.96681ZM305.985 13.304L302.016 16.6173L302.016 16.6173L305.985 13.304ZM319.021 16.7329L317.197 11.8957L317.197 11.8958L319.021 16.7329ZM323.986 14.8598L325.811 19.697L325.811 19.697L323.986 14.8598ZM349.2 12.5294L348.202 7.45676L348.202 7.45676L349.2 12.5294ZM360.017 10.4L361.016 15.4726L361.016 15.4726L360.017 10.4ZM376.902 3.77565L374.184 -0.622711L374.184 -0.622705L376.902 3.77565ZM397.333 -3.41743L396.695 -8.54797L396.695 -8.54797L397.333 -3.41743ZM409.728 -4.95786L410.366 0.172681L410.366 0.172679L409.728 -4.95786ZM414.559 -6.28285L412.489 -11.0206L412.489 -11.0206L414.559 -6.28285ZM419.381 -8.38943L417.312 -13.1272L417.312 -13.1272L419.381 -8.38943ZM423.632 -30.877L419.976 -27.2213L419.976 -27.2212L423.632 -30.877ZM420.52 -45.7001L425.337 -43.8231L425.337 -43.8231L420.52 -45.7001ZM434.665 -82.0027L429.848 -83.8797L429.848 -83.8797L434.665 -82.0027ZM413.479 -164.961L410.151 -161.004L410.151 -161.004L413.479 -164.961ZM399.727 -176.525L403.054 -180.482L403.054 -180.482L399.727 -176.525ZM336.27 -199.659L336.27 -194.489L336.27 -194.489L336.27 -199.659ZM282.553 -199.66L282.553 -204.83L282.553 -204.83L282.553 -199.66ZM186.241 -178.842L184.105 -183.55L184.105 -183.55L186.241 -178.842ZM164.911 -169.169L167.047 -164.46L167.047 -164.46L164.911 -169.169ZM119.199 -134.522L115.243 -137.851L115.243 -137.851L119.199 -134.522ZM88.7485 -48.2953L93.9174 -48.4013L93.9174 -48.4013L88.7485 -48.2953ZM88.7927 -46.1384L93.9504 -45.7823L93.9664 -46.013L93.9616 -46.2443L88.7927 -46.1384ZM85.7127 -1.52718L90.8705 -1.17108L85.7127 -1.52718ZM97.9148 9.30124L96.9482 4.2224L96.9481 4.22241L97.9148 9.30124ZM98.6141 9.16814L99.5807 14.247L99.5808 14.247L98.6141 9.16814ZM101.449 7.94566L98.4189 3.75663L98.4189 3.75664L101.449 7.94566ZM110.478 1.41484L113.508 5.60388L110.478 1.41484ZM115.766 5.2446L120.692 6.81649L120.692 6.81649L115.766 5.2446ZM115.051 6.49452L118.899 9.9466L118.899 9.94655L115.051 6.49452ZM103.901 18.9254L100.052 15.4733L100.052 15.4734L103.901 18.9254ZM96.7951 27.8143L92.7168 30.9918L92.7168 30.9918L96.7951 27.8143ZM102.53 35.1747L106.648 32.0496L106.628 32.0233L106.608 31.9972L102.53 35.1747ZM114.038 50.3423L109.92 53.4673L109.92 53.4673L114.038 50.3423ZM129.279 63.5442L126.774 68.0664L126.774 68.0664L129.279 63.5442ZM145.54 72.5536L143.035 77.0758L143.035 77.0758L145.54 72.5536ZM150.935 73.043L149.285 68.1436L149.284 68.1436L150.935 73.043ZM155.198 68.6859L160.132 70.2286L160.132 70.2286L155.198 68.6859ZM166.81 31.5401L171.744 33.0827L171.825 32.8257L171.878 32.5617L166.81 31.5401ZM171.719 7.18759L176.787 8.20915L176.787 8.20913L171.719 7.18759ZM169.796 4.58458L169.282 9.72893L169.282 9.72893L169.796 4.58458ZM169.872 0.234802L169.538 -4.92438L169.538 -4.92438L169.872 0.234802ZM175.031 -0.0994415L174.697 -5.25864L174.697 -5.25862L175.031 -0.0994415ZM175.701 -0.232376L177.362 4.66337L177.362 4.66331L175.701 -0.232376ZM182.567 -2.56297L184.229 2.33271L184.229 2.33271L182.567 -2.56297ZM195.94 1.19565L191.971 4.50871L191.971 4.50871L195.94 1.19565ZM198.196 3.89908L202.165 0.586021L202.165 0.586012L198.196 3.89908ZM211.863 4.32463L208.108 0.771049L208.108 0.771065L211.863 4.32463ZM221.786 2.07213L223.639 -2.75447L223.639 -2.75447L221.786 2.07213ZM229.4 4.99481L227.547 9.82141L227.547 9.82141L229.4 4.99481ZM235.811 18.2697L230.879 16.7202L230.879 16.7202L235.811 18.2697ZM235.122 20.4623L240.055 22.0118L240.055 22.0118L235.122 20.4623ZM221.792 25.3916L224.53 21.0059L224.53 21.0059L221.792 25.3916ZM219.005 23.6518L221.743 19.2661L221.743 19.2661L219.005 23.6518ZM209.855 26.6905L205.038 24.8136L205.038 24.8136L209.855 26.6905ZM198.444 27.2659L193.84 29.6179L193.84 29.6179L198.444 27.2659ZM195.929 22.3432L200.533 19.9912L200.533 19.9912L195.929 22.3432ZM182.05 20.0503L178.448 16.3425L178.448 16.3425L182.05 20.0503ZM178.208 23.7841L181.811 27.4919L181.811 27.4919L178.208 23.7841ZM174.603 30.4117L169.533 29.4021L169.533 29.4021L174.603 30.4117ZM169.829 54.3907L174.899 55.4003L169.829 54.3907ZM176.982 81.1896L173.089 84.5917L173.089 84.5918L176.982 81.1896ZM189.361 89.837L187.506 94.6628L187.506 94.6628L189.361 89.837ZM199.086 93.5752L197.231 98.401L197.231 98.401L199.086 93.5752ZM208.532 87.7914L213.674 88.3335L213.674 88.3335L208.532 87.7914ZM210.048 73.4168L204.906 72.8747L204.906 72.8748L210.048 73.4168ZM210.798 70.602L206.068 68.514L206.068 68.5141L210.798 70.602ZM216.576 57.5133L221.306 59.6013L221.306 59.6013L216.576 57.5133ZM223.653 57.8114L228.542 56.1285L228.542 56.1285L223.653 57.8114ZM230.217 58.955L226.186 55.7179L226.186 55.7179L230.217 58.955ZM232.991 55.5004L237.022 58.7375L237.022 58.7375L232.991 55.5004ZM243.616 56.974L238.856 58.9918L238.856 58.9918L243.616 56.974ZM244.482 59.0183L239.722 61.0362L239.722 61.0362L244.482 59.0183ZM222.774 78.4895L217.66 77.7325L217.628 77.9511L217.614 78.1716L222.774 78.4895ZM221.122 104.405L215.985 104.988L215.985 104.994L221.122 104.405ZM221.125 104.427L226.238 103.664L226.237 103.657L221.125 104.427ZM224.098 124.329L218.984 125.093L218.984 125.093L224.098 124.329ZM227.078 194.534L232.232 194.932L232.248 194.733V194.534H227.078ZM224.102 233.025L229.252 233.476L229.254 233.45L229.256 233.423L224.102 233.025ZM209.014 316.209L213.995 317.595L213.995 317.595L209.014 316.209ZM208.607 317.671L213.378 319.663L213.502 319.366L213.588 319.057L208.607 317.671ZM194.873 350.566L199.547 352.776L199.598 352.668L199.644 352.558L194.873 350.566ZM173.905 394.899L178.523 397.224L178.552 397.167L178.579 397.109L173.905 394.899ZM140.713 460.814L136.096 458.488L136.055 458.57L136.017 458.652L140.713 460.814ZM118.564 508.945L113.868 506.784L113.731 507.081L113.633 507.392L118.564 508.945ZM98.2144 611.305L93.0641 610.853L93.0641 610.853L98.2144 611.305ZM97.7021 617.144L92.5519 616.692L92.5391 616.838L92.5346 616.983L97.7021 617.144ZM106.506 735.463L111.592 734.539L111.592 734.539L106.506 735.463ZM107.802 742.601L102.715 743.524L102.732 743.616L102.752 743.708L107.802 742.601ZM119.392 795.451L114.342 796.559L114.419 796.911L114.544 797.249L119.392 795.451ZM142.254 857.11L147.142 855.427L147.122 855.37L147.101 855.313L142.254 857.11ZM196.377 976.209L191.893 978.784L191.893 978.784L196.377 976.209ZM197.469 978.111L202.203 976.033L202.091 975.778L201.952 975.536L197.469 978.111ZM222.894 1036.06L218.16 1038.14L218.204 1038.24L218.254 1038.34L222.894 1036.06ZM241.248 1073.42L245.889 1071.14L245.889 1071.14L241.248 1073.42ZM251.622 1099.66L256.567 1098.15L256.567 1098.15L251.622 1099.66ZM258.985 1140.55L253.824 1140.86L253.824 1140.86L258.985 1140.55ZM260.572 1167.01L265.738 1166.82L265.736 1166.76L265.733 1166.7L260.572 1167.01ZM261.236 1184.37L256.07 1184.57L256.07 1184.57L261.236 1184.37ZM263.011 1184.62L258.089 1183.03L258.089 1183.03L263.011 1184.62ZM263.051 1184.41L257.899 1183.98L257.899 1183.98L263.051 1184.41ZM264.542 1166.51L269.695 1166.94L269.718 1166.65L269.71 1166.36L264.542 1166.51ZM264.042 1148.5L269.21 1148.35L269.21 1148.33L269.209 1148.3L264.042 1148.5ZM262.906 1118.27L268.072 1118.08L268.062 1117.8L268.02 1117.52L262.906 1118.27ZM247.46 1061.56L242.668 1063.5L242.668 1063.5L247.46 1061.56ZM234.708 1030.08L239.5 1028.14L239.486 1028.11L239.471 1028.07L234.708 1030.08ZM206.77 963.902L211.533 961.891L211.482 961.771L211.425 961.653L206.77 963.902ZM178.327 905.018L173.466 906.78L173.556 907.029L173.671 907.267L178.327 905.018ZM157.245 846.861L152.334 848.477L152.358 848.55L152.385 848.623L157.245 846.861ZM138.344 789.431L133.311 790.611L133.363 790.831L133.433 791.047L138.344 789.431ZM124.713 731.278L119.583 731.919L119.617 732.191L119.68 732.458L124.713 731.278ZM117.263 671.667H112.093V671.989L112.133 672.308L117.263 671.667ZM117.263 617.144L112.12 616.613L112.093 616.878V617.144H117.263ZM119.996 590.7L125.138 591.231L125.138 591.231L119.996 590.7ZM130.787 536.08L125.829 534.616L125.829 534.616L130.787 536.08ZM146.431 494.577L151.123 496.75L151.123 496.75L146.431 494.577ZM157.439 470.814L162.13 472.987L162.131 472.985L157.439 470.814ZM177.47 427.522L172.854 425.194L172.815 425.272L172.778 425.351L177.47 427.522ZM195.886 391.011L200.502 393.339L200.502 393.339L195.886 391.011ZM214.624 353.857L219.241 356.186L219.287 356.094L219.33 356L214.624 353.857ZM241.176 279.207L236.174 277.897L236.174 277.897L241.176 279.207ZM241.763 276.964L246.765 278.274L246.842 277.98L246.884 277.679L241.763 276.964ZM247.902 233.025L253.022 233.74L253.072 233.384V233.025H247.902ZM247.902 192.964L242.732 192.919L242.732 192.942V192.964H247.902ZM248.348 142.562L243.181 142.372L243.179 142.445L243.178 142.517L248.348 142.562ZM249.751 104.381L254.917 104.571L254.921 104.476V104.381H249.751ZM258.658 91.4726L254.445 88.4762L254.438 88.4861L254.431 88.496L258.658 91.4726ZM249.742 104.274L244.637 105.088L249.742 104.274ZM221.17 104.081L225.905 106.157L221.17 104.081ZM286.695 61.014L278.681 65.8984L284.063 74.7276L292.077 69.8432L286.695 61.014ZM295.501 45.335C295.501 51.7393 292.164 57.6809 286.695 61.014L292.077 69.8432C300.625 64.6332 305.841 55.3458 305.841 45.335H295.501ZM295.501 39.1418V45.335H305.841V39.1418H295.501ZM281.706 26.503C289.122 25.8534 295.501 31.6979 295.501 39.1418H305.841C305.841 25.6312 294.263 15.0234 280.804 16.2024L281.706 26.503ZM272.26 27.3305L281.706 26.503L280.804 16.2024L271.357 17.0299L272.26 27.3305ZM259.845 18.599C261.305 24.144 266.547 27.8309 272.26 27.3305L271.357 17.0299C270.661 17.091 270.022 16.6414 269.844 15.9653L259.845 18.599ZM277.122 5.40238C268.057 0.166561 257.178 8.47611 259.845 18.5991L269.844 15.9652C269.518 14.7309 270.845 13.7177 271.95 14.3561L277.122 5.40238ZM280.917 7.5944L277.122 5.40239L271.95 14.3561L275.745 16.5481L280.917 7.5944ZM282.754 6.76694C282.585 7.59789 281.651 8.01853 280.917 7.59439L275.745 16.5481C282.596 20.5052 291.31 16.5809 292.887 8.82816L282.754 6.76694ZM302.994 1.65352C296.771 -5.80004 284.69 -2.74783 282.754 6.76694L292.887 8.82815C293.094 7.80838 294.389 7.48116 295.056 8.2801L302.994 1.65352ZM309.954 9.99073L302.994 1.65353L295.056 8.28009L302.016 16.6173L309.954 9.99073ZM317.197 11.8958C314.623 12.8667 311.717 12.1023 309.954 9.99073L302.016 16.6173C306.599 22.1072 314.155 24.0946 320.846 21.5701L317.197 11.8958ZM322.161 10.0226L317.197 11.8957L320.846 21.5701L325.811 19.697L322.161 10.0226ZM330.728 8.46043C327.801 8.46043 324.899 8.98969 322.161 10.0226L325.811 19.697C327.383 19.1042 329.048 18.8004 330.728 18.8004V8.46043ZM337.907 8.46043H330.728V18.8004H337.907V8.46043ZM348.202 7.45676C344.811 8.12429 341.363 8.46043 337.907 8.46043V18.8004C342.034 18.8004 346.15 18.3991 350.199 17.602L348.202 7.45676ZM359.019 5.32732L348.202 7.45676L350.199 17.602L361.016 15.4726L359.019 5.32732ZM374.184 -0.622705C369.527 2.25447 364.39 4.26994 359.019 5.32732L361.016 15.4726C367.605 14.1756 373.906 11.7033 379.619 8.174L374.184 -0.622705ZM396.695 -8.54797C388.709 -7.55553 381.031 -4.85232 374.184 -0.622711L379.619 8.17401C385.2 4.72591 391.46 2.52217 397.97 1.7131L396.695 -8.54797ZM409.091 -10.0884L396.695 -8.54797L397.97 1.7131L410.366 0.172681L409.091 -10.0884ZM412.489 -11.0206C411.407 -10.548 410.263 -10.234 409.091 -10.0884L410.366 0.172679C412.525 -0.0956394 414.634 -0.674175 416.628 -1.54509L412.489 -11.0206ZM417.312 -13.1272L412.489 -11.0206L416.628 -1.54508L421.451 -3.65167L417.312 -13.1272ZM419.976 -27.2212C424.301 -22.8966 422.917 -15.5753 417.312 -13.1272L421.451 -3.65166C433.731 -9.01557 436.763 -25.057 427.287 -34.5327L419.976 -27.2212ZM415.703 -47.5771C412.962 -40.5449 414.639 -32.5579 419.976 -27.2213L427.287 -34.5327C424.852 -36.9684 424.086 -40.6136 425.337 -43.8231L415.703 -47.5771ZM429.848 -83.8797L415.703 -47.5771L425.337 -43.8231L439.482 -80.1257L429.848 -83.8797ZM410.151 -161.004C432.554 -142.166 440.474 -111.153 429.848 -83.8797L439.482 -80.1257C451.717 -111.525 442.598 -147.23 416.806 -168.918L410.151 -161.004ZM396.4 -172.568L410.151 -161.004L416.806 -168.918L403.054 -180.482L396.4 -172.568ZM336.27 -194.489C358.269 -194.489 379.562 -186.726 396.4 -172.568L403.054 -180.482C384.354 -196.207 360.704 -204.829 336.27 -204.829L336.27 -194.489ZM282.553 -194.49L336.27 -194.489L336.27 -204.829L282.553 -204.83L282.553 -194.49ZM188.376 -174.133C217.96 -187.55 250.069 -194.491 282.553 -194.49L282.553 -204.83C248.596 -204.831 215.031 -197.575 184.105 -183.55L188.376 -174.133ZM167.047 -164.46L188.376 -174.133L184.105 -183.55L162.776 -173.877L167.047 -164.46ZM123.155 -131.194C135.122 -145.417 150.119 -156.783 167.047 -164.46L162.776 -173.877C144.444 -165.563 128.203 -153.254 115.243 -137.851L123.155 -131.194ZM93.9174 -48.4013C93.2976 -78.6318 103.689 -108.057 123.155 -131.194L115.243 -137.851C94.1618 -112.794 82.9084 -80.9279 83.5796 -48.1894L93.9174 -48.4013ZM93.9616 -46.2443L93.9174 -48.4013L83.5796 -48.1894L83.6238 -46.0324L93.9616 -46.2443ZM90.8705 -1.17108L93.9504 -45.7823L83.635 -46.4944L80.555 -1.88327L90.8705 -1.17108ZM96.9481 4.22241C93.6441 4.85124 90.6388 2.18424 90.8705 -1.17108L80.555 -1.88327C79.8565 8.23428 88.9186 16.2762 98.8814 14.3801L96.9481 4.22241ZM97.6475 4.0893L96.9482 4.2224L98.8814 14.3801L99.5807 14.247L97.6475 4.0893ZM98.4189 3.75664C98.1893 3.92274 97.9259 4.03631 97.6475 4.08931L99.5808 14.247C101.349 13.9105 103.021 13.1894 104.479 12.1347L98.4189 3.75664ZM107.448 -2.7742L98.4189 3.75663L104.479 12.1347L113.508 5.60388L107.448 -2.7742ZM120.692 6.81649C123.217 -1.09588 114.178 -7.64187 107.448 -2.7742L113.508 5.60388C112.153 6.58404 110.333 5.26592 110.841 3.67271L120.692 6.81649ZM118.899 9.94655C119.711 9.0415 120.322 7.97473 120.692 6.81649L110.841 3.67271C110.916 3.43948 111.039 3.2247 111.202 3.04249L118.899 9.94655ZM107.749 22.3775L118.899 9.9466L111.202 3.04244L100.052 15.4733L107.749 22.3775ZM100.461 25.624C103.218 25.624 105.884 24.4572 107.749 22.3775L100.052 15.4734C100.172 15.3392 100.317 15.284 100.461 15.284V25.624ZM100.873 24.6369C100.927 24.7054 100.993 24.8459 101.006 25.0153C101.017 25.1611 100.984 25.2639 100.953 25.3253C100.923 25.3864 100.868 25.4582 100.771 25.5215C100.655 25.5963 100.531 25.624 100.461 25.624V15.284C92.5118 15.284 87.647 24.4846 92.7168 30.9918L100.873 24.6369ZM106.608 31.9972L100.873 24.6369L92.7168 30.9918L98.4513 38.3521L106.608 31.9972ZM118.157 47.2172L106.648 32.0496L98.411 38.2997L109.92 53.4673L118.157 47.2172ZM131.785 59.0219C126.471 56.0776 121.829 52.057 118.157 47.2172L109.92 53.4673C114.461 59.4529 120.202 64.4251 126.774 68.0664L131.785 59.0219ZM148.046 68.0313L131.785 59.0219L126.774 68.0664L143.035 77.0758L148.046 68.0313ZM149.284 68.1436C148.874 68.2819 148.425 68.2411 148.046 68.0313L143.035 77.0758C145.955 78.694 149.422 79.0085 152.586 77.9423L149.284 68.1436ZM150.263 67.1433C150.116 67.6142 149.752 67.9861 149.285 68.1436L152.586 77.9423C156.191 76.7275 158.997 73.8596 160.132 70.2286L150.263 67.1433ZM161.875 29.9975L150.263 67.1433L160.132 70.2286L171.744 33.0827L161.875 29.9975ZM166.651 6.16603L161.742 30.5186L171.878 32.5617L176.787 8.20915L166.651 6.16603ZM169.282 9.72893C167.524 9.55313 166.301 7.89809 166.651 6.16606L176.787 8.20913C177.646 3.94621 174.638 -0.127105 170.311 -0.559769L169.282 9.72893ZM169.538 -4.92438C160.528 -4.34055 160.297 8.83054 169.282 9.72893L170.311 -0.559766C170.983 -0.492542 171.77 -0.127807 172.337 0.578423C172.845 1.21004 173.01 1.90189 173 2.46504C172.991 3.0282 172.801 3.71382 172.271 4.32732C171.68 5.01328 170.881 5.3503 170.207 5.39398L169.538 -4.92438ZM174.697 -5.25862L169.538 -4.92438L170.207 5.39398L175.365 5.05974L174.697 -5.25862ZM174.039 -5.12813C174.252 -5.20017 174.473 -5.24411 174.697 -5.25864L175.365 5.05975C176.046 5.01569 176.717 4.88233 177.362 4.66337L174.039 -5.12813ZM180.906 -7.45866L174.039 -5.12806L177.362 4.66331L184.229 2.33271L180.906 -7.45866ZM199.909 -2.11741C195.287 -7.65409 187.735 -9.77671 180.906 -7.45865L184.229 2.33271C187.011 1.38834 190.088 2.25309 191.971 4.50871L199.909 -2.11741ZM202.165 0.586012L199.909 -2.11742L191.971 4.50871L194.227 7.21214L202.165 0.586012ZM208.108 0.771065C206.471 2.50087 203.691 2.41431 202.165 0.586021L194.227 7.21214C199.721 13.7929 209.726 14.1045 215.618 7.8782L208.108 0.771065ZM223.639 -2.75447C218.226 -4.83244 212.094 -3.44041 208.108 0.771049L215.618 7.87821C216.726 6.70815 218.429 6.32142 219.933 6.89873L223.639 -2.75447ZM231.252 0.168215L223.639 -2.75447L219.933 6.89873L227.547 9.82141L231.252 0.168215ZM240.744 19.8191C243.266 11.7902 239.109 3.1842 231.252 0.168212L227.547 9.82141C230.305 10.8802 231.764 13.9015 230.879 16.7202L240.744 19.8191ZM240.055 22.0118L240.744 19.8191L230.879 16.7202L230.19 18.9128L240.055 22.0118ZM219.055 29.7773C226.91 34.6805 237.28 30.8459 240.055 22.0118L230.19 18.9128C229.442 21.2939 226.647 22.3275 224.53 21.0059L219.055 29.7773ZM216.267 28.0375L219.055 29.7773L224.53 21.0059L221.743 19.2661L216.267 28.0375ZM214.672 28.5673C214.92 27.9299 215.687 27.6753 216.267 28.0375L221.743 19.2661C215.666 15.4731 207.638 18.139 205.038 24.8136L214.672 28.5673ZM193.84 29.6179C198.328 38.4036 211.091 37.76 214.672 28.5673L205.038 24.8136C204.695 25.6915 203.477 25.753 203.048 24.914L193.84 29.6179ZM191.325 24.6952L193.84 29.6179L203.048 24.914L200.533 19.9912L191.325 24.6952ZM185.653 23.7582C187.378 22.0827 190.231 22.5541 191.325 24.6952L200.533 19.9912C196.274 11.6539 185.162 9.81814 178.448 16.3425L185.653 23.7582ZM181.811 27.4919L185.653 23.7582L178.448 16.3425L174.605 20.0762L181.811 27.4919ZM179.674 31.4213C179.972 29.9253 180.717 28.555 181.811 27.4919L174.605 20.0762C172.009 22.5992 170.24 25.8514 169.533 29.4021L179.674 31.4213ZM174.899 55.4003L179.674 31.4213L169.533 29.4021L164.758 53.3811L174.899 55.4003ZM180.875 77.7874C175.517 71.6567 173.309 63.3857 174.899 55.4003L164.758 53.3811C162.541 64.5138 165.619 76.0446 173.089 84.5917L180.875 77.7874ZM191.216 85.0112C187.232 83.4802 183.683 81.0005 180.875 77.7874L173.089 84.5918C177.004 89.0713 181.953 92.5282 187.506 94.6628L191.216 85.0112ZM200.941 88.7495L191.216 85.0112L187.506 94.6628L197.231 98.401L200.941 88.7495ZM203.391 87.2493C203.266 88.4333 202.052 89.1766 200.941 88.7495L197.231 98.401C204.689 101.268 212.836 96.2794 213.674 88.3335L203.391 87.2493ZM204.906 72.8748L203.391 87.2493L213.674 88.3335L215.189 73.9589L204.906 72.8748ZM206.068 68.5141C205.457 69.8985 205.065 71.3697 204.906 72.8747L215.189 73.9589C215.236 73.521 215.35 73.0929 215.527 72.69L206.068 68.5141ZM211.846 55.4254L206.068 68.514L215.527 72.69L221.306 59.6013L211.846 55.4254ZM228.542 56.1285C225.885 48.4118 215.142 47.9593 211.846 55.4254L221.306 59.6013C220.804 60.7375 219.169 60.6686 218.765 59.4943L228.542 56.1285ZM226.186 55.7179C226.859 54.8796 228.192 55.1119 228.542 56.1285L218.765 59.4943C221.065 66.1746 229.824 67.7009 234.248 62.1922L226.186 55.7179ZM228.96 52.2632L226.186 55.7179L234.248 62.1922L237.022 58.7375L228.96 52.2632ZM248.375 54.9562C245.005 47.0046 234.367 45.5292 228.96 52.2632L237.022 58.7375C237.533 58.1016 238.537 58.2409 238.856 58.9918L248.375 54.9562ZM249.242 57.0005L248.375 54.9562L238.856 58.9918L239.722 61.0362L249.242 57.0005ZM237.507 74.7206C246.636 74.7206 252.805 65.4052 249.242 57.0005L239.722 61.0362C240.395 62.6224 239.23 64.3806 237.507 64.3806V74.7206ZM233.133 74.7206H237.507V64.3806H233.133V74.7206ZM227.888 79.2464C228.273 76.6463 230.505 74.7206 233.133 74.7206V64.3806C225.379 64.3806 218.795 70.0617 217.66 77.7325L227.888 79.2464ZM226.37 104.212L227.934 78.8073L217.614 78.1716L216.049 103.576L226.37 104.212ZM226.288 104.334C226.288 104.972 226.153 105.592 225.905 106.157L216.436 102.005C216.12 102.725 215.948 103.516 215.948 104.334H226.288ZM226.259 103.823C226.278 103.993 226.288 104.164 226.288 104.334H215.948C215.948 104.552 215.96 104.771 215.985 104.988L226.259 103.823ZM226.237 103.657C226.245 103.715 226.252 103.768 226.258 103.817L215.985 104.994C215.993 105.058 216.001 105.126 216.012 105.197L226.237 103.657ZM229.211 123.565L226.238 103.664L216.011 105.191L218.984 125.093L229.211 123.565ZM232.248 164.446C232.248 150.763 231.233 137.098 229.211 123.565L218.984 125.093C220.931 138.12 221.908 151.274 221.908 164.446H232.248ZM232.248 194.534V164.446H221.908V194.534H232.248ZM229.256 233.423L232.232 194.932L221.923 194.135L218.947 232.626L229.256 233.423ZM213.995 317.595C221.651 290.083 226.758 261.924 229.252 233.476L218.951 232.573C216.513 260.389 211.519 287.922 204.033 314.823L213.995 317.595ZM213.588 319.057L213.995 317.595L204.034 314.823L203.627 316.285L213.588 319.057ZM199.644 352.558L213.378 319.663L203.836 315.679L190.102 348.574L199.644 352.558ZM178.579 397.109L199.547 352.776L190.199 348.355L169.232 392.688L178.579 397.109ZM145.331 463.139L178.523 397.224L169.288 392.573L136.096 458.488L145.331 463.139ZM123.261 511.106L145.41 462.975L136.017 458.652L113.868 506.784L123.261 511.106ZM103.365 611.757C106.381 577.373 113.131 543.42 123.496 510.497L113.633 507.392C103.043 541.031 96.1461 575.722 93.0641 610.853L103.365 611.757ZM102.852 617.596L103.365 611.757L93.0641 610.853L92.5519 616.692L102.852 617.596ZM111.592 734.539C104.572 695.876 101.648 656.581 102.87 617.305L92.5346 616.983C91.2904 656.986 94.2683 697.009 101.419 736.387L111.592 734.539ZM112.889 741.677L111.592 734.539L101.419 736.387L102.715 743.524L112.889 741.677ZM124.442 794.344L112.852 741.493L102.752 743.708L114.342 796.559L124.442 794.344ZM147.101 855.313L124.239 793.654L114.544 797.249L137.406 858.908L147.101 855.313ZM200.86 973.634C179.256 936.019 161.269 896.439 147.142 855.427L137.366 858.794C151.706 900.425 169.963 940.602 191.893 978.784L200.86 973.634ZM201.952 975.536L200.86 973.634L191.893 978.784L192.985 980.685L201.952 975.536ZM227.628 1033.98L202.203 976.033L192.734 980.188L218.16 1038.14L227.628 1033.98ZM245.889 1071.14L227.534 1033.78L218.254 1038.34L236.608 1075.7L245.889 1071.14ZM256.567 1098.15C253.735 1088.87 250.164 1079.84 245.889 1071.14L236.608 1075.7C240.64 1083.91 244.007 1092.42 246.677 1101.17L256.567 1098.15ZM264.146 1140.25C263.289 1125.96 260.745 1111.83 256.567 1098.15L246.677 1101.17C250.617 1114.07 253.016 1127.4 253.824 1140.86L264.146 1140.25ZM265.733 1166.7L264.146 1140.25L253.824 1140.86L255.411 1167.32L265.733 1166.7ZM266.402 1184.17L265.738 1166.82L255.406 1167.21L256.07 1184.57L266.402 1184.17ZM258.089 1183.03C259.549 1178.49 266.22 1179.41 266.402 1184.17L256.07 1184.57C256.329 1191.36 265.849 1192.67 267.932 1186.2L258.089 1183.03ZM257.899 1183.98C257.926 1183.66 257.99 1183.34 258.089 1183.03L267.932 1186.2C268.074 1185.76 268.165 1185.3 268.203 1184.84L257.899 1183.98ZM259.39 1166.08L257.899 1183.98L268.203 1184.84L269.695 1166.94L259.39 1166.08ZM258.874 1148.64L259.374 1166.65L269.71 1166.36L269.21 1148.35L258.874 1148.64ZM257.739 1118.47L258.876 1148.69L269.209 1148.3L268.072 1118.08L257.739 1118.47ZM242.668 1063.5C249.896 1081.35 254.973 1099.99 257.792 1119.03L268.02 1117.52C265.081 1097.66 259.788 1078.23 252.252 1059.62L242.668 1063.5ZM229.916 1032.02L242.668 1063.5L252.252 1059.62L239.5 1028.14L229.916 1032.02ZM202.007 965.913L229.945 1032.09L239.471 1028.07L211.533 961.891L202.007 965.913ZM173.671 907.267L202.115 966.151L211.425 961.653L182.982 902.769L173.671 907.267ZM152.385 848.623L173.466 906.78L183.187 903.256L162.106 845.099L152.385 848.623ZM133.433 791.047L152.334 848.477L162.156 845.245L143.255 787.814L133.433 791.047ZM119.68 732.458L133.311 790.611L143.378 788.251L129.747 730.098L119.68 732.458ZM112.133 672.308L119.583 731.919L129.843 730.637L122.393 671.026L112.133 672.308ZM112.093 617.144V671.667H122.433V617.144H112.093ZM114.853 590.168L112.12 616.613L122.405 617.676L125.138 591.231L114.853 590.168ZM125.829 534.616C120.471 552.757 116.797 571.353 114.853 590.168L125.138 591.231C127.017 573.048 130.568 555.076 135.745 537.545L125.829 534.616ZM141.74 492.404C135.411 506.066 130.093 520.175 125.829 534.616L135.745 537.545C139.867 523.589 145.006 509.954 151.123 496.75L141.74 492.404ZM152.748 468.641L141.74 492.404L151.123 496.75L162.13 472.987L152.748 468.641ZM172.778 425.351L152.747 468.643L162.131 472.985L182.162 429.693L172.778 425.351ZM191.27 388.683L172.854 425.194L182.086 429.85L200.502 393.339L191.27 388.683ZM210.008 351.529L191.27 388.683L200.502 393.339L219.241 356.186L210.008 351.529ZM236.174 277.897C229.545 303.207 220.762 327.903 209.919 351.715L219.33 356C230.417 331.651 239.399 306.398 246.177 280.517L236.174 277.897ZM236.762 275.654L236.174 277.897L246.177 280.517L246.765 278.274L236.762 275.654ZM242.782 232.309L236.643 276.248L246.884 277.679L253.022 233.74L242.782 232.309ZM242.732 192.964V233.025H253.072V192.964H242.732ZM243.178 142.517L242.732 192.919L253.072 193.01L253.518 142.608L243.178 142.517ZM244.584 104.191L243.181 142.372L253.515 142.752L254.917 104.571L244.584 104.191ZM244.637 105.088C244.6 104.855 244.581 104.618 244.581 104.381H254.921C254.921 104.071 254.896 103.763 254.848 103.459L244.637 105.088ZM254.431 88.496L245.562 101.09L254.016 107.044L262.885 94.4492L254.431 88.496ZM278.681 65.8984C269.156 71.7041 260.91 79.3855 254.445 88.4762L262.871 94.4691C268.524 86.5205 275.734 79.804 284.063 74.7276L278.681 65.8984ZM254.848 103.459C255.04 104.666 254.779 105.96 254.017 107.043L245.562 101.091C244.716 102.293 244.421 103.737 244.637 105.088L254.848 103.459ZM216.039 103.894C216.039 103.26 216.168 102.616 216.436 102.005L225.905 106.157C226.225 105.429 226.379 104.656 226.379 103.894H216.039Z" fill="black" mask="url(#path-155-outside-1_431_4633)"/>
<path d="M239.016 627.78C236.799 627.78 234.758 627.255 232.891 626.205C231.048 625.131 229.578 623.638 228.481 621.725C227.384 619.811 226.836 617.63 226.836 615.18C226.836 612.73 227.384 610.548 228.481 608.635C229.578 606.721 231.048 605.24 232.891 604.19C234.758 603.116 236.799 602.58 239.016 602.58C241.909 602.58 244.324 603.35 246.261 604.89C248.198 606.43 249.423 608.471 249.936 611.015H246.576C246.086 609.335 245.176 608.028 243.846 607.095C242.516 606.138 240.894 605.66 238.981 605.66C237.231 605.66 235.691 606.068 234.361 606.885C233.054 607.701 232.039 608.833 231.316 610.28C230.616 611.726 230.266 613.36 230.266 615.18C230.266 617 230.616 618.633 231.316 620.08C232.039 621.526 233.054 622.658 234.361 623.475C235.691 624.291 237.231 624.7 238.981 624.7C240.894 624.7 242.516 624.233 243.846 623.3C245.176 622.343 246.086 621.025 246.576 619.345H249.936C249.586 621.025 248.921 622.506 247.941 623.79C246.961 625.05 245.701 626.03 244.161 626.73C242.644 627.43 240.929 627.78 239.016 627.78ZM257.628 602.93H275.653V627.43H272.293V606.01H260.988V627.43H257.628V602.93ZM284.062 602.93H287.422V622.355L298.692 602.93H302.472V627.43H299.112V608.005L287.842 627.43H284.062V602.93ZM310.873 602.93H314.233V613.64H325.538V602.93H328.898V627.43H325.538V616.72H314.233V627.43H310.873V602.93ZM337.307 602.93H340.667V613.64H351.972V602.93H355.332V627.43H351.972V616.72H340.667V627.43H337.307V602.93ZM375.222 627.78C372.959 627.78 370.894 627.255 369.027 626.205C367.184 625.131 365.725 623.638 364.652 621.725C363.579 619.811 363.042 617.63 363.042 615.18C363.042 612.73 363.579 610.548 364.652 608.635C365.725 606.721 367.184 605.24 369.027 604.19C370.894 603.116 372.959 602.58 375.222 602.58C377.485 602.58 379.539 603.116 381.382 604.19C383.249 605.24 384.719 606.721 385.792 608.635C386.865 610.548 387.402 612.73 387.402 615.18C387.402 617.63 386.865 619.811 385.792 621.725C384.719 623.638 383.249 625.131 381.382 626.205C379.539 627.255 377.485 627.78 375.222 627.78ZM375.222 624.7C376.972 624.7 378.512 624.303 379.842 623.51C381.172 622.693 382.187 621.573 382.887 620.15C383.61 618.703 383.972 617.046 383.972 615.18C383.972 613.313 383.61 611.668 382.887 610.245C382.187 608.798 381.172 607.678 379.842 606.885C378.512 606.068 376.972 605.66 375.222 605.66C373.472 605.66 371.932 606.068 370.602 606.885C369.272 607.678 368.245 608.798 367.522 610.245C366.822 611.668 366.472 613.313 366.472 615.18C366.472 617.046 366.822 618.703 367.522 620.15C368.245 621.573 369.272 622.693 370.602 623.51C371.932 624.303 373.472 624.7 375.222 624.7ZM395.098 602.93H398.458V622.355L409.728 602.93H413.508V627.43H410.148V608.005L398.878 627.43H395.098V602.93ZM404.338 600.76C402.938 600.76 401.83 600.34 401.013 599.5C400.22 598.636 399.823 597.54 399.823 596.21H402.658C402.658 596.77 402.81 597.225 403.113 597.575C403.44 597.901 403.848 598.065 404.338 598.065C404.828 598.065 405.225 597.901 405.528 597.575C405.855 597.225 406.018 596.77 406.018 596.21H408.853C408.853 597.54 408.445 598.636 407.628 599.5C406.835 600.34 405.738 600.76 404.338 600.76ZM227.536 637.93H231.106L239.016 658.23L246.926 637.93H250.496V662.43H247.136V645.84L240.766 662.43H237.266L230.896 645.84V662.43H227.536V637.93ZM270.372 662.78C268.109 662.78 266.044 662.255 264.177 661.205C262.334 660.131 260.876 658.638 259.802 656.725C258.729 654.811 258.192 652.63 258.192 650.18C258.192 647.73 258.729 645.548 259.802 643.635C260.876 641.721 262.334 640.24 264.177 639.19C266.044 638.116 268.109 637.58 270.372 637.58C272.636 637.58 274.689 638.116 276.532 639.19C278.399 640.24 279.869 641.721 280.942 643.635C282.016 645.548 282.552 647.73 282.552 650.18C282.552 652.63 282.016 654.811 280.942 656.725C279.869 658.638 278.399 660.131 276.532 661.205C274.689 662.255 272.636 662.78 270.372 662.78ZM270.372 659.7C272.122 659.7 273.662 659.303 274.992 658.51C276.322 657.693 277.337 656.573 278.037 655.15C278.761 653.703 279.122 652.046 279.122 650.18C279.122 648.313 278.761 646.668 278.037 645.245C277.337 643.798 276.322 642.678 274.992 641.885C273.662 641.068 272.122 640.66 270.372 640.66C268.622 640.66 267.082 641.068 265.752 641.885C264.422 642.678 263.396 643.798 262.672 645.245C261.972 646.668 261.622 648.313 261.622 650.18C261.622 652.046 261.972 653.703 262.672 655.15C263.396 656.573 264.422 657.693 265.752 658.51C267.082 659.303 268.622 659.7 270.372 659.7ZM298.054 662.78C296.14 662.78 294.519 662.395 293.189 661.625C291.859 660.855 290.844 659.816 290.144 658.51C289.467 657.18 289.082 655.698 288.989 654.065H292.244C292.36 655.745 292.92 657.11 293.924 658.16C294.927 659.186 296.304 659.7 298.054 659.7C299.757 659.7 301.04 659.28 301.904 658.44C302.767 657.576 303.199 656.456 303.199 655.08C303.199 653.656 302.709 652.56 301.729 651.79C300.749 651.02 299.465 650.635 297.879 650.635H296.724V647.555H297.879C300.655 647.555 302.044 646.376 302.044 644.02C302.044 642.993 301.682 642.176 300.959 641.57C300.235 640.963 299.29 640.66 298.124 640.66C296.654 640.66 295.475 641.068 294.589 641.885C293.702 642.701 293.212 643.728 293.119 644.965H289.934C290.05 643.611 290.435 642.375 291.089 641.255C291.765 640.135 292.71 639.248 293.924 638.595C295.137 637.918 296.56 637.58 298.194 637.58C299.337 637.58 300.445 637.813 301.519 638.28C302.615 638.723 303.514 639.423 304.214 640.38C304.937 641.336 305.299 642.55 305.299 644.02C305.299 645.256 305.007 646.271 304.424 647.065C303.864 647.858 303.14 648.453 302.254 648.85C303.747 649.293 304.844 650.086 305.544 651.23C306.267 652.373 306.629 653.656 306.629 655.08C306.629 656.41 306.267 657.67 305.544 658.86C304.82 660.05 303.805 661.006 302.499 661.73C301.215 662.43 299.734 662.78 298.054 662.78ZM314.325 637.93H328.605V641.01H317.685V662.43H314.325V637.93Z" fill="black"/>
<path d="M323.161 43.7656H326.731L334.641 64.0656L342.551 43.7656L346.121 43.7656V68.2656H342.761V51.6756L336.391 68.2656H332.891L326.521 51.6756V68.2656H323.161V43.7656ZM365.997 68.6156C363.734 68.6156 361.669 68.0906 359.802 67.0406C357.959 65.9673 356.501 64.474 355.427 62.5606C354.354 60.6473 353.817 58.4656 353.817 56.0156C353.817 53.5656 354.354 51.384 355.427 49.4706C356.501 47.5573 357.959 46.0756 359.802 45.0256C361.669 43.9523 363.734 43.4156 365.997 43.4156C368.261 43.4156 370.314 43.9523 372.157 45.0256C374.024 46.0756 375.494 47.5573 376.567 49.4706C377.641 51.384 378.177 53.5656 378.177 56.0156C378.177 58.4656 377.641 60.6473 376.567 62.5606C375.494 64.474 374.024 65.9673 372.157 67.0406C370.314 68.0906 368.261 68.6156 365.997 68.6156ZM365.997 65.5356C367.747 65.5356 369.287 65.139 370.617 64.3456C371.947 63.529 372.962 62.409 373.662 60.9856C374.386 59.539 374.747 57.8823 374.747 56.0156C374.747 54.149 374.386 52.504 373.662 51.0806C372.962 49.634 371.947 48.514 370.617 47.7206C369.287 46.904 367.747 46.4956 365.997 46.4956C364.247 46.4956 362.707 46.904 361.377 47.7206C360.047 48.514 359.021 49.634 358.297 51.0806C357.597 52.504 357.247 54.149 357.247 56.0156C357.247 57.8823 357.597 59.539 358.297 60.9856C359.021 62.409 360.047 63.529 361.377 64.3456C362.707 65.139 364.247 65.5356 365.997 65.5356ZM393.679 68.6156C391.765 68.6156 390.144 68.2306 388.814 67.4606C387.484 66.6906 386.469 65.6523 385.769 64.3456C385.092 63.0156 384.707 61.534 384.614 59.9006H387.869C387.985 61.5806 388.545 62.9456 389.549 63.9956C390.552 65.0223 391.929 65.5356 393.679 65.5356C395.382 65.5356 396.665 65.1156 397.529 64.2756C398.392 63.4123 398.824 62.2923 398.824 60.9156C398.824 59.4923 398.334 58.3956 397.354 57.6256C396.374 56.8556 395.09 56.4706 393.504 56.4706H392.349V53.3906H393.504C396.28 53.3906 397.669 52.2123 397.669 49.8556C397.669 48.829 397.307 48.0123 396.584 47.4056C395.86 46.799 394.915 46.4956 393.749 46.4956C392.279 46.4956 391.1 46.904 390.214 47.7206C389.327 48.5373 388.837 49.564 388.744 50.8006H385.559C385.675 49.4473 386.06 48.2106 386.714 47.0906C387.39 45.9706 388.335 45.084 389.549 44.4306C390.762 43.754 392.185 43.4156 393.819 43.4156C394.962 43.4156 396.07 43.649 397.144 44.1156C398.24 44.559 399.139 45.259 399.839 46.2156C400.562 47.1723 400.924 48.3856 400.924 49.8556C400.924 51.0923 400.632 52.1073 400.049 52.9006C399.489 53.694 398.765 54.289 397.879 54.6856C399.372 55.129 400.469 55.9223 401.169 57.0656C401.892 58.209 402.254 59.4923 402.254 60.9156C402.254 62.2456 401.892 63.5056 401.169 64.6956C400.445 65.8856 399.43 66.8423 398.124 67.5656C396.84 68.2656 395.359 68.6156 393.679 68.6156ZM409.95 43.7656H424.23V46.8456H413.31V68.2656H409.95V43.7656Z" fill="black"/>
<path d="M53.9141 103.504L416.057 103.504" stroke="black" stroke-width="4" stroke-linecap="round" stroke-dasharray="0.1 8"/>
</g>
<defs>
<clipPath id="clip0_431_4633">
<rect width="469" height="1685" fill="white"/>
</clipPath>
</defs>
</svg>
