<svg width="469" height="1685" viewBox="0 0 469 1685" fill="none" xmlns="http://www.w3.org/2000/svg">
<g clip-path="url(#clip0_427_7881)">
<g opacity="0.15">
<path d="M109.451 1604.17C110.841 1606.99 109.451 1611.17 106.67 1609.78L109.451 1604.17Z" stroke="#1D1D1B" stroke-width="5.17"/>
<path d="M109.451 1604.17C110.841 1606.99 109.451 1611.17 106.67 1609.78" stroke="#1D1D1B" stroke-width="5.17" stroke-linecap="round" stroke-linejoin="round"/>
<path d="M96.8918 1599.95C101.064 1601.39 103.844 1599.95 103.844 1595.78L96.8918 1599.95Z" stroke="#1D1D1B" stroke-width="5.17"/>
<path d="M96.8918 1599.95C101.064 1601.39 103.844 1599.95 103.844 1595.78" stroke="#1D1D1B" stroke-width="5.17" stroke-linecap="round" stroke-linejoin="round"/>
<path d="M95.457 1583.17C94.067 1590.21 88.505 1584.61 84.289 1583.17H95.457Z" stroke="#1D1D1B" stroke-width="5.17"/>
<path d="M95.457 1583.17C94.067 1590.21 88.505 1584.61 84.289 1583.17" stroke="#1D1D1B" stroke-width="5.17" stroke-linecap="round" stroke-linejoin="round"/>
<path d="M67.6043 1541.13C69.0403 1542.52 82.9883 1543.91 82.9883 1542.52L67.6043 1541.13Z" stroke="#1D1D1B" stroke-width="5.17"/>
<path d="M67.6043 1541.13C69.0403 1542.52 82.9883 1543.91 82.9883 1542.52" stroke="#1D1D1B" stroke-width="5.17" stroke-linecap="round" stroke-linejoin="round"/>
<path d="M173.723 359.709C169.168 363.148 163.918 365.552 158.339 366.754C130.397 370.926 127.616 362.536 115.058 372.317C101.064 380.752 102.454 347.101 117.838 355.537C122.01 356.927 135.779 344.32 143 347.101C152.778 351.319 162.555 342.884 169.552 340.102C162.555 341.493 155.559 338.711 147.126 340.102C144.346 340.102 142.955 328.885 152.733 327.494C196.015 321.885 184.891 302.278 200.231 309.278C204.245 310.409 208.501 310.35 212.482 309.107C216.463 307.865 219.998 305.492 222.656 302.278L221.221 293.843C200.275 303.669 189.107 296.67 183.501 307.887C182.111 312.059 180.72 305.06 180.72 303.669C177.939 277.017 196.059 298.061 203.146 281.235C210.233 264.41 228.308 281.235 228.308 260.237C227.191 258.593 226.698 256.604 226.917 254.628C201.666 261.628 197.674 263.019 193.189 273.024C193.189 274.415 183.411 282.805 186.192 274.415C187.627 270.198 183.411 249.199 194.579 254.808C208.573 263.198 204.402 237.982 217.005 236.591C226.783 235.156 229.564 232.374 233.78 223.939C226.783 225.374 222.612 223.939 225.392 214.157C207.452 215.548 200.231 237.982 183.456 239.373C176.504 240.764 182.066 235.156 183.456 226.765C183.456 214.157 198.84 222.548 201.397 207.158C204.222 195.941 218.171 202.94 220.952 190.332C220.952 184.724 200.006 187.506 179.061 204.331C174.845 181.897 173.454 183.333 194.4 166.507C215.346 149.682 211.174 176.334 234.766 152.509C235.883 151.43 236.716 150.092 237.19 148.613C237.665 147.134 237.767 145.561 237.488 144.034C237.208 142.506 236.555 141.072 235.588 139.857C234.62 138.643 233.367 137.687 231.941 137.074C219.382 135.683 195.611 149.682 190.049 139.901C181.662 121.684 222.208 131.466 226.379 123.075C233.376 117.467 210.995 109.032 240.328 110.467L243.154 104.859C245.934 103.423 247.325 102.032 250.15 102.032L248.715 110.467C264.099 104.859 278.093 93.6422 275.267 107.641C272.486 117.467 292.042 102.032 287.871 120.249C287.871 125.857 276.658 131.466 276.658 139.901C287.871 139.901 283.655 163.681 287.871 170.725C296.258 186.115 273.877 179.115 268.315 176.334L266.88 179.115C269.706 200.114 287.871 184.724 284.821 197.332C281.771 209.94 290.427 211.331 287.646 221.157C287.646 225.374 275.043 219.766 265.221 215.548L263.83 216.939C270.827 221.157 268.046 229.547 281.771 230.983C288.768 230.983 284.552 270.198 277.6 265.98C273.384 261.807 270.603 254.808 262.215 258.98L260.825 260.416C264.548 273.024 278.407 273.024 278.407 286.844C276.972 292.452 275.581 317.668 268.629 307.887C265.497 302.768 261.153 298.5 255.981 295.458C255.441 295.999 254.784 296.41 254.061 296.659C253.339 296.907 252.569 296.988 251.81 296.894C255.981 317.892 254.591 302.502 265.759 317.892C269.975 323.501 258.762 330.5 255.981 341.717C253.2 351.543 247.594 327.718 237.816 337.544C242.032 351.543 232.21 347.326 250.42 354.325C254.591 355.761 240.597 375.368 240.597 380.977C239.207 385.194 229.429 375.368 229.429 372.541C219.651 378.15 205.703 372.541 204.312 361.324L196.059 362.76C184.936 348.717 183.501 354.325 173.634 359.934" stroke="#1D1D1B" stroke-width="5.17"/>
<path d="M173.723 359.709C169.168 363.148 163.918 365.552 158.339 366.754C130.397 370.926 127.616 362.536 115.058 372.317C101.064 380.752 102.454 347.101 117.838 355.537C122.01 356.927 135.779 344.32 143 347.101C152.778 351.319 162.555 342.884 169.552 340.102C162.555 341.493 155.559 338.711 147.126 340.102C144.346 340.102 142.955 328.885 152.733 327.494C196.015 321.885 184.891 302.278 200.231 309.278C204.245 310.409 208.501 310.35 212.482 309.107C216.463 307.865 219.998 305.492 222.656 302.278L221.221 293.843C200.275 303.669 189.107 296.67 183.501 307.887C182.111 312.059 180.72 303.669 180.72 303.669C177.939 277.017 196.059 298.061 203.146 281.235C210.233 264.41 228.308 281.235 228.308 260.237C227.191 258.593 226.698 256.604 226.917 254.628C201.666 261.628 197.674 263.019 193.189 273.024C193.189 274.415 183.411 282.805 186.192 274.415C187.627 270.198 183.411 249.199 194.579 254.808C208.573 263.198 204.402 237.982 217.005 236.591C226.783 235.156 229.564 232.374 233.78 223.939C226.783 225.374 222.612 223.939 225.392 214.157C207.452 215.548 200.231 237.982 183.456 239.373C176.504 240.764 182.066 235.156 183.456 226.765C183.456 214.157 198.84 222.548 201.397 207.158C204.222 195.941 218.171 202.94 220.952 190.332C220.952 184.724 200.006 187.506 179.061 204.331C174.845 181.897 173.454 183.333 194.4 166.507C215.346 149.682 211.174 176.334 234.766 152.509C235.883 151.43 236.716 150.092 237.19 148.613C237.665 147.134 237.767 145.561 237.488 144.034C237.208 142.506 236.555 141.072 235.588 139.857C234.62 138.643 233.367 137.687 231.941 137.074C219.382 135.683 195.611 149.682 190.049 139.901C181.662 121.684 222.208 131.466 226.379 123.075C233.376 117.467 210.995 109.032 240.328 110.467L243.154 104.859C245.934 103.423 247.325 102.032 250.15 102.032L248.715 110.467C264.099 104.859 278.093 93.6422 275.267 107.641C272.486 117.467 292.042 102.032 287.871 120.249C287.871 125.857 276.658 131.466 276.658 139.901C287.871 139.901 283.655 163.681 287.871 170.725C296.258 186.115 273.877 179.115 268.315 176.334L266.88 179.115C269.706 200.114 287.871 184.724 284.821 197.332C281.771 209.94 290.427 211.331 287.646 221.157C287.646 225.374 275.043 219.766 265.221 215.548L263.83 216.939C270.827 221.157 268.046 229.547 281.771 230.983C288.768 230.983 284.552 270.198 277.6 265.98C273.384 261.807 270.603 254.808 262.215 258.98L260.825 260.416C264.548 273.024 278.407 273.024 278.407 286.844C278.407 292.452 275.581 317.668 268.629 307.887C265.497 302.768 261.153 298.5 255.981 295.458C255.441 295.999 254.784 296.41 254.061 296.659C253.339 296.907 252.569 296.988 251.81 296.894C255.981 317.892 254.591 302.502 265.759 317.892C269.975 323.501 258.762 330.5 255.981 341.717C253.2 351.543 247.594 327.718 237.816 337.544C242.032 351.543 232.21 347.326 250.42 354.325C254.591 355.761 240.597 375.368 240.597 380.977C239.207 385.194 229.429 375.368 229.429 372.541C219.651 378.15 205.703 372.541 204.312 361.324L196.059 362.76C184.936 348.492 183.501 354.101 173.723 359.709Z" stroke="#1D1D1B" stroke-width="5.17" stroke-linecap="round" stroke-linejoin="round"/>
<path d="M238.038 146.719C243.644 160.717 268.806 142.501 277.148 139.719" stroke="#1D1D1B" stroke-width="5.17" stroke-linecap="round" stroke-linejoin="round"/>
<path d="M257.552 162.109C264.548 150.892 265.939 170.499 257.552 170.499V162.109Z" stroke="#1D1D1B" stroke-width="5.17"/>
<path d="M257.552 162.109C264.548 150.892 265.939 170.499 257.552 170.499" stroke="#1D1D1B" stroke-width="5.17" stroke-linecap="round" stroke-linejoin="round"/>
<path d="M267.328 178.799C258.941 194.234 246.383 170.409 239.386 178.799C235.215 183.016 230.999 195.624 221.445 190.016" stroke="#1D1D1B" stroke-width="5.17"/>
<path d="M267.328 178.799C258.941 194.234 246.383 170.409 239.386 178.799C235.215 183.016 230.999 195.624 221.445 190.016" stroke="#1D1D1B" stroke-width="5.17" stroke-linecap="round" stroke-linejoin="round"/>
<path d="M265.938 191.543C265.938 201.37 254.769 206.978 254.769 194.37L265.938 191.543Z" stroke="#1D1D1B" stroke-width="5.17"/>
<path d="M265.938 191.543C265.938 201.37 254.769 206.978 254.769 194.37" stroke="#1D1D1B" stroke-width="5.17" stroke-linecap="round" stroke-linejoin="round"/>
<path d="M262.969 127.988C262.969 134.847 256.172 138.196 255.786 130.074Z" stroke="#1D1D1B" stroke-width="5.17" stroke-linecap="round" stroke-linejoin="round"/>
<path d="M264.547 216.757C256.16 226.583 254.769 211.149 247.772 208.367" stroke="#1D1D1B" stroke-width="5.17"/>
<path d="M264.547 216.757C256.16 226.583 254.769 211.149 247.772 208.367" stroke="#1D1D1B" stroke-width="5.17" stroke-linecap="round" stroke-linejoin="round"/>
<path d="M251.988 212.586C246.398 216.903 240.387 220.646 234.048 223.759L251.988 212.586Z" stroke="#1D1D1B" stroke-width="5.17"/>
<path d="M251.988 212.586C246.398 216.903 240.387 220.646 234.048 223.759" stroke="#1D1D1B" stroke-width="5.17" stroke-linecap="round" stroke-linejoin="round"/>
<path d="M225.438 213.976L228.219 209.758" stroke="#1D1D1B" stroke-width="5.17"/>
<path d="M225.438 213.976L228.219 209.758" stroke="#1D1D1B" stroke-width="5.17" stroke-linecap="round" stroke-linejoin="round"/>
<path d="M228.219 247.582L226.829 254.581" stroke="#1D1D1B" stroke-width="5.17"/>
<path d="M228.219 247.582L226.829 254.581" stroke="#1D1D1B" stroke-width="5.17" stroke-linecap="round" stroke-linejoin="round"/>
<path d="M228.221 260.238C231.001 261.629 237.998 256.02 244.995 254.629C249.166 264.411 256.163 264.411 261.77 260.238" stroke="#1D1D1B" stroke-width="5.17" stroke-linecap="round" stroke-linejoin="round"/>
<path d="M263.156 258.801C267.57 254.175 270.492 248.328 271.543 242.02L263.156 258.801Z" stroke="#1D1D1B" stroke-width="5.17"/>
<path d="M263.156 258.801C267.57 254.175 270.492 248.328 271.543 242.02" stroke="#1D1D1B" stroke-width="5.17" stroke-linecap="round" stroke-linejoin="round"/>
<path d="M263.156 243.41C257.549 251.8 249.162 247.583 251.988 237.801L263.156 243.41Z" stroke="#1D1D1B" stroke-width="5.17"/>
<path d="M263.156 243.41C257.549 251.8 249.162 247.583 251.988 237.801" stroke="#1D1D1B" stroke-width="5.17" stroke-linecap="round" stroke-linejoin="round"/>
<path d="M255.98 284.016C244.812 288.234 248.983 277.017 247.593 272.844L255.98 284.016Z" stroke="#1D1D1B" stroke-width="5.17"/>
<path d="M255.98 284.016C244.812 288.234 248.983 277.017 247.593 272.844" stroke="#1D1D1B" stroke-width="5.17" stroke-linecap="round" stroke-linejoin="round"/>
<path d="M264.547 284.016C261.955 288.02 259.092 291.843 255.98 295.458L264.368 284.24" stroke="#1D1D1B" stroke-width="5.17"/>
<path d="M264.547 284.016C261.955 288.02 259.092 291.843 255.98 295.458" stroke="#1D1D1B" stroke-width="5.17" stroke-linecap="round" stroke-linejoin="round"/>
<path d="M251.988 296.668C246.382 298.059 242.211 292.451 236.604 282.625" stroke="#1D1D1B" stroke-width="5.17" stroke-linecap="round" stroke-linejoin="round"/>
<path d="M240.777 288.234C233.825 289.67 228.219 296.669 222.837 302.278" stroke="#1D1D1B" stroke-width="5.17" stroke-linecap="round" stroke-linejoin="round"/>
<path d="M242.211 307.883C243.571 309.964 244.296 312.396 244.296 314.883C244.296 317.369 243.571 319.801 242.211 321.882C233.823 330.272 253.379 327.491 250.598 317.665L242.211 307.883Z" stroke="#1D1D1B" stroke-width="5.17"/>
<path d="M242.211 307.883C243.571 309.964 244.296 312.396 244.296 314.883C244.296 317.369 243.571 319.801 242.211 321.882C233.823 330.272 253.379 327.491 250.598 317.665" stroke="#1D1D1B" stroke-width="5.17" stroke-linecap="round" stroke-linejoin="round"/>
<path d="M238.039 337.319C228.261 345.709 224.09 317.667 217.093 328.884C210.096 338.71 194.668 331.666 169.596 340.101" stroke="#1D1D1B" stroke-width="5.17"/>
<path d="M238.039 337.319C228.261 345.709 224.09 317.667 217.093 328.884C210.096 338.71 194.668 331.666 169.596 340.101" stroke="#1D1D1B" stroke-width="5.17" stroke-linecap="round" stroke-linejoin="round"/>
<path d="M224.047 340.324C224.555 347.129 223.091 353.937 219.831 359.931C218.44 362.758 229.608 362.758 233.824 357.149L224.047 340.324Z" stroke="#1D1D1B" stroke-width="5.17"/>
<path d="M224.047 340.324C224.555 347.129 223.091 353.937 219.831 359.931C218.44 362.758 229.608 362.758 233.824 357.149" stroke="#1D1D1B" stroke-width="5.17" stroke-linecap="round" stroke-linejoin="round"/>
<path d="M232.391 369.535L229.61 372.317" stroke="#1D1D1B" stroke-width="5.17"/>
<path d="M232.391 369.535L229.61 372.317" stroke="#1D1D1B" stroke-width="5.17" stroke-linecap="round" stroke-linejoin="round"/>
<path d="M168.119 1056.19C155.56 1060.41 136.005 1074.41 131.789 1061.85C122.011 1035.2 163.947 1036.59 165.338 1009.98C159.776 1007.15 155.56 1002.98 152.779 1001.59C137.395 1016.98 127.618 1029.59 122.011 1021.2C109.453 1000.15 141.566 987.551 138.786 965.113C130.398 966.551 122.011 966.551 123.446 958.114C115.059 981.941 96.8485 958.114 99.6745 953.896C112.234 937.07 108.062 924.507 110.843 909.028C108.741 908.674 106.79 907.706 105.237 906.246C96.8486 902.029 85.7256 928.68 82.8106 914.636L78.6395 902.029C77.2035 895.029 93.9786 865.596 91.1976 848.77C88.7156 849.596 86.0386 849.633 83.5336 848.878C81.0286 848.123 78.8176 846.613 77.2036 844.553C71.6426 852.988 59.2636 865.596 56.2586 855.77C47.8716 826.336 77.2036 805.338 71.6426 775.905H64.7355C64.7355 784.295 50.7866 813.728 42.3096 795.512C28.3156 767.469 61.8645 738.081 63.2555 708.647L59.0396 707.212C52.0876 726.864 35.3126 736.646 39.4836 698.822C40.9196 679.215 59.0396 665.215 64.6456 645.563C62.9086 645.862 61.1255 645.763 59.4325 645.273C57.7385 644.783 56.1785 643.916 54.8675 642.736C27.2395 659.607 46.5705 611.957 67.6055 583.959C60.6085 581.132 59.2186 574.133 60.6086 567.134C50.8766 574.133 45.2696 561.525 63.4346 550.308C77.3836 541.918 75.9925 527.874 91.3775 518.093C89.0035 517.3 86.9296 515.801 85.4306 513.796C83.9316 511.792 83.0805 509.377 82.9895 506.876C67.6055 515.311 57.7386 502.658 68.9516 491.441C74.5126 484.442 80.1195 491.441 88.5065 484.442L113.624 460.617C107.973 457.835 103.846 448.009 109.453 442.4C101.066 429.792 80.1196 455.008 80.1196 446.618C77.2936 404.577 124.971 432.574 138.786 417.185C131.789 412.967 133.224 405.968 138.786 400.359C127.618 400.359 119.23 394.751 101.065 401.75C94.0686 404.577 90.0316 377.925 112.458 380.707C130.398 382.098 148.788 384.88 164.172 376.489C162.781 370.881 164.172 365.272 173.949 359.664C183.727 354.055 185.117 348.447 196.375 362.49C203.372 372.317 192.204 382.098 200.591 382.098C204.807 382.098 207.588 382.098 207.588 376.489C217.366 382.098 221.537 391.879 234.14 393.315C245.308 393.315 229.924 403.096 224.362 418.531C221.537 429.748 197.81 408.749 189.423 407.314C181.036 405.878 196.375 394.706 189.423 391.879C182.426 390.533 172.649 405.923 178.255 414.313C181.036 419.922 185.207 414.313 190.813 417.14L214.585 429.748C222.927 433.965 201.981 440.965 203.372 457.79C204.807 473.18 188.033 449.355 168.433 447.964C174.039 424.139 151.703 424.139 150.492 449.355C150.492 466.18 156.098 457.79 164.486 457.79C174.263 460.572 174.263 467.571 195.209 473.18C200.815 475.962 188.257 490.005 188.257 499.831C186.822 513.83 174.263 505.395 167.266 501.222C157.489 495.614 140.714 499.831 147.711 488.614C157.489 468.962 135.153 466.18 130.937 485.788C129.546 494.223 115.597 487.179 108.511 494.223C112.682 509.613 126.451 487.179 130.937 501.222C137.933 518.048 136.543 492.787 146.321 505.395C158.879 519.439 179.87 506.831 177.089 525.047C177.089 533.438 172.873 537.655 171.482 546.046C171.482 557.263 150.492 551.654 144.93 546.046C139.369 540.437 114.162 550.263 123.985 534.873C133.807 519.484 109.453 522.266 107.973 537.745C107.869 539.198 107.244 540.565 106.215 541.595C105.185 542.625 103.819 543.249 102.366 543.353C102.366 555.961 106.582 543.353 107.973 555.961C109.695 554.057 111.904 552.658 114.362 551.915C116.819 551.172 119.433 551.113 121.921 551.744C113.534 562.961 158.251 557.352 163.858 564.352C168.029 567.178 159.686 576.96 163.858 589.612C168.029 599.394 163.858 606.393 159.686 606.393C144.302 605.002 127.528 603.611 112.144 603.611C102.366 603.611 114.969 578.395 96.7596 579.786C87.0266 579.786 85.6365 593.785 88.4165 600.829C93.9785 616.219 89.8076 620.437 109.363 607.829L110.753 612.002C112.458 617.61 156.951 610.566 156.951 622.994C155.56 658.036 166.728 658.036 158.341 659.427C141.566 662.254 122.011 653.863 106.672 662.254C106.672 651.037 109.453 644.038 95.4585 644.038C85.7255 642.603 87.1166 656.645 87.1166 662.254C95.4586 660.863 89.8966 674.862 94.0686 676.253C101.066 677.644 98.2846 670.644 106.672 669.253C112.234 669.253 106.672 681.861 158.341 669.253C166.728 666.471 155.56 691.687 168.119 714.121C172.335 722.556 152.779 714.121 126.227 721.121C106.672 725.338 116.45 714.121 108.287 703.173C99.8985 694.738 85.8606 719.999 90.3456 725.607C102.904 721.39 93.1266 757.868 112.772 729.825C115.597 725.607 130.712 736.824 151.927 729.825C177.089 722.826 168.657 738.26 169.868 748.041C172.649 764.867 181.036 762.04 175.429 773.257C175.429 776.084 150.268 777.475 137.709 781.693C129.322 783.083 123.76 791.474 122.325 774.648C120.621 759.124 90.0316 764.733 98.2846 784.52C101.066 791.52 96.8486 788.737 92.6776 797.127C110.619 783.128 102.456 801.345 113.624 799.954C122.011 798.563 116.45 794.345 122.011 794.345C154.17 795.736 165.338 790.129 175.115 784.52C187.719 777.521 179.331 804.127 187.719 812.562C197.496 822.343 198.887 830.778 194.671 832.169C179.331 837.778 168.119 837.778 148.563 846.213C138.786 851.776 143.002 837.778 136.005 834.996C124.837 829.387 112.458 843.208 126.227 851.822C129.008 853.258 126.227 861.647 126.227 863.038C136.005 875.646 138.786 851.821 149.954 857.43C163.947 861.647 190.32 840.604 197.496 842.04C205.884 843.431 200.277 864.474 214.271 872.864C229.61 884.081 210.055 891.081 201.668 892.472C190.295 895.444 179.458 900.183 169.554 906.515C159.776 912.124 162.557 886.863 148.563 896.689C141.566 902.298 144.392 912.124 147.173 917.688C156.951 910.688 149.954 927.514 162.557 927.514C175.115 926.123 155.56 917.687 183.503 914.906C197.496 914.906 208.664 899.471 223.869 900.907C235.037 900.907 226.65 924.732 236.427 934.513C247.596 941.557 240.599 951.339 232.211 948.557C221.043 945.73 191.845 975.161 187.36 962.556C182.875 949.948 164.934 963.946 171.976 973.771C171.976 975.161 176.192 984.991 167.76 986.381C190.186 976.551 181.753 998.991 194.312 983.551C205.525 968.161 226.47 973.771 236.248 962.556C253.023 944.339 251.632 969.551 257.194 979.381C261.41 984.991 276.749 1004.6 268.407 1008.81C260.064 1013.03 247.416 1008.81 219.474 1026.99C215.302 1005.99 197.048 1017.2 195.702 1034.03C180.363 1032.64 171.976 1045.25 167.76 1056.46" stroke="#1D1D1B" stroke-width="5.17"/>
<path d="M163.948 375.141C166.729 379.314 169.555 386.358 179.332 386.358" stroke="#1D1D1B" stroke-width="5.17" stroke-linecap="round" stroke-linejoin="round"/>
<path d="M213.5 389.66C210.674 394.525 205.836 402.22 204.401 392.407Z" stroke="#1D1D1B" stroke-width="5.17" stroke-linecap="round" stroke-linejoin="round"/>
<path d="M176.551 407.357C172.335 400.357 162.557 408.748 162.557 400.357C161.167 387.749 144.617 393.358 138.786 400.357" stroke="#1D1D1B" stroke-width="5.17"/>
<path d="M176.551 407.357C172.335 400.357 162.557 408.748 162.557 400.357C161.167 387.749 144.617 393.358 138.786 400.357" stroke="#1D1D1B" stroke-width="5.17" stroke-linecap="round" stroke-linejoin="round"/>
<path d="M138.785 417.184C140.386 418.914 142.285 420.343 144.391 421.402L138.785 417.184Z" stroke="#1D1D1B" stroke-width="5.17"/>
<path d="M138.785 417.184C140.386 418.914 142.285 420.343 144.391 421.402" stroke="#1D1D1B" stroke-width="5.17" stroke-linecap="round" stroke-linejoin="round"/>
<path d="M190.496 426.966C187.715 431.184 176.547 434.01 183.499 424.184L190.496 426.966Z" stroke="#1D1D1B" stroke-width="5.17"/>
<path d="M190.496 426.966C187.715 431.184 176.547 434.01 183.499 424.184" stroke="#1D1D1B" stroke-width="5.17" stroke-linecap="round" stroke-linejoin="round"/>
<path d="M149.953 449.399C127.527 449.399 145.782 446.617 134.614 436.791C127.617 429.792 113.623 436.791 109.452 442.4" stroke="#1D1D1B" stroke-width="5.17"/>
<path d="M149.953 449.399C127.527 449.399 145.782 446.617 134.614 436.791C127.617 429.792 113.623 436.791 109.452 442.4" stroke="#1D1D1B" stroke-width="5.17" stroke-linecap="round" stroke-linejoin="round"/>
<path d="M113.619 460.618C115.211 461.378 116.993 461.652 118.74 461.405C120.487 461.157 122.122 460.4 123.441 459.227" stroke="#1D1D1B" stroke-width="5.17" stroke-linecap="round" stroke-linejoin="round"/>
<path d="M156.949 467.617C152.778 477.443 161.165 480.225 165.336 470.443L156.949 467.617Z" stroke="#1D1D1B" stroke-width="5.17"/>
<path d="M156.949 467.617C152.778 477.443 161.165 480.225 165.336 470.443" stroke="#1D1D1B" stroke-width="5.17" stroke-linecap="round" stroke-linejoin="round"/>
<path d="M107.973 494.265C105.148 485.83 81.4206 480.222 82.8116 506.873" stroke="#1D1D1B" stroke-width="5.17"/>
<path d="M107.973 494.265C105.147 485.83 82.8107 480.222 82.8107 506.873" stroke="#1D1D1B" stroke-width="5.17" stroke-linecap="round" stroke-linejoin="round"/>
<path d="M91.2845 518.092C92.8755 518.836 94.6505 519.097 96.3885 518.842C98.1265 518.587 99.7515 517.827 101.062 516.656L91.2845 518.092Z" fill="#1D1D1B"/>
<path d="M140.175 511.047C131.788 520.873 140.175 527.873 147.172 516.656L140.175 511.047Z" stroke="#1D1D1B" stroke-width="5.17"/>
<path d="M140.175 511.047C131.788 520.873 140.175 527.873 147.172 516.656" stroke="#1D1D1B" stroke-width="5.17" stroke-linecap="round" stroke-linejoin="round"/>
<path d="M102.457 543.309C87.117 544.7 99.676 554.526 85.727 554.526C71.733 553.135 63.301 560.135 60.52 567.134" stroke="#1D1D1B" stroke-width="5.17" stroke-linecap="round" stroke-linejoin="round"/>
<path d="M67.5141 583.914L73.1211 586.74" stroke="#1D1D1B" stroke-width="5.17"/>
<path d="M67.5141 583.914L73.1211 586.74" stroke="#1D1D1B" stroke-width="5.17" stroke-linecap="round" stroke-linejoin="round"/>
<path d="M120.62 558.699C117.84 565.743 119.23 576.915 127.617 568.525L120.62 558.699Z" stroke="#1D1D1B" stroke-width="5.17"/>
<path d="M120.62 558.699C117.84 565.743 119.23 576.915 127.617 568.525" stroke="#1D1D1B" stroke-width="5.17" stroke-linecap="round" stroke-linejoin="round"/>
<path d="M88.5039 600.785C81.5069 607.784 71.7299 607.784 67.5129 617.565" stroke="#1D1D1B" stroke-width="5.17" stroke-linecap="round" stroke-linejoin="round"/>
<path d="M80.1172 613.391C73.1202 625.999 66.1232 607.783 54.9552 624.563C50.7842 632.998 50.7842 638.607 54.9552 642.78" stroke="#1D1D1B" stroke-width="5.17"/>
<path d="M80.1172 613.391C73.1202 625.999 66.1232 607.783 54.9552 624.563C50.7842 632.998 50.7842 638.607 54.9552 642.78" stroke="#1D1D1B" stroke-width="5.17" stroke-linecap="round" stroke-linejoin="round"/>
<path d="M64.7339 645.429C67.0099 646.052 69.419 645.984 71.655 645.233C73.892 644.482 75.854 643.082 77.293 641.211" stroke="#1D1D1B" stroke-width="5.17" stroke-linecap="round" stroke-linejoin="round"/>
<path d="M107.973 620.391C105.147 631.608 110.754 635.781 117.75 623.173L107.973 620.391Z" stroke="#1D1D1B" stroke-width="5.17"/>
<path d="M107.973 620.391C105.147 631.608 110.754 635.781 117.75 623.173" stroke="#1D1D1B" stroke-width="5.17" stroke-linecap="round" stroke-linejoin="round"/>
<path d="M117.838 683.43C119.228 693.256 99.8972 690.429 109.451 680.648L117.838 683.43Z" stroke="#1D1D1B" stroke-width="5.17"/>
<path d="M117.838 683.43C119.228 693.256 99.8972 690.429 109.451 680.648" stroke="#1D1D1B" stroke-width="5.17" stroke-linecap="round" stroke-linejoin="round"/>
<path d="M87.1133 662.43C78.7263 662.43 80.1163 672.256 74.5103 676.429L87.1133 662.43Z" stroke="#1D1D1B" stroke-width="5.17"/>
<path d="M87.1133 662.43C78.7263 662.43 80.1163 672.256 74.5103 676.429" stroke="#1D1D1B" stroke-width="5.17" stroke-linecap="round" stroke-linejoin="round"/>
<path d="M80.1211 676.43C41.0101 677.821 41.0101 701.646 59.1751 707.255" stroke="#1D1D1B" stroke-width="5.17"/>
<path d="M80.1211 676.43C41.0101 677.821 41.0101 701.646 59.1751 707.255" stroke="#1D1D1B" stroke-width="5.17" stroke-linecap="round" stroke-linejoin="round"/>
<path d="M63.345 708.693C66.408 708.735 69.407 707.808 71.912 706.043C74.417 704.278 76.301 701.767 77.293 698.867" stroke="#1D1D1B" stroke-width="5.17" stroke-linecap="round" stroke-linejoin="round"/>
<path d="M129.004 740.906C124.833 750.732 113.62 752.123 115.056 736.688L129.004 740.906Z" stroke="#1D1D1B" stroke-width="5.17"/>
<path d="M129.004 740.906C124.833 750.732 113.62 752.123 115.056 736.688" stroke="#1D1D1B" stroke-width="5.17" stroke-linecap="round" stroke-linejoin="round"/>
<path d="M90.0312 725.473C84.4253 726.864 77.4283 746.516 69.0853 746.516C56.4823 747.907 45.3143 780.122 64.8693 775.95" stroke="#1D1D1B" stroke-width="5.17"/>
<path d="M90.0312 725.473C84.4253 726.864 77.4283 746.516 69.0853 746.516C56.4823 747.907 45.3143 780.122 64.8693 775.95" stroke="#1D1D1B" stroke-width="5.17" stroke-linecap="round" stroke-linejoin="round"/>
<path d="M71.7333 775.95C80.1213 773.124 89.6743 768.951 88.5083 763.297" stroke="#1D1D1B" stroke-width="5.17" stroke-linecap="round" stroke-linejoin="round"/>
<path d="M77.2908 844.595C67.5138 836.204 80.1168 812.379 89.8948 808.162C95.4558 805.38 87.1138 802.553 92.6758 796.945" stroke="#1D1D1B" stroke-width="5.17"/>
<path d="M77.2908 844.595C67.5138 836.204 80.1168 812.379 89.8948 808.162C95.4558 805.38 87.1138 802.553 92.6758 796.945" stroke="#1D1D1B" stroke-width="5.17" stroke-linecap="round" stroke-linejoin="round"/>
<path d="M138.783 801.164C142.954 810.99 123.444 816.598 127.615 803.945L138.783 801.164Z" stroke="#1D1D1B" stroke-width="5.17"/>
<path d="M138.783 801.164C142.954 810.99 123.444 816.598 127.615 803.945" stroke="#1D1D1B" stroke-width="5.17" stroke-linecap="round" stroke-linejoin="round"/>
<path d="M109.45 831.988C110.841 847.422 103.844 848.813 91.5102 848.813L109.45 831.988Z" stroke="#1D1D1B" stroke-width="5.17"/>
<path d="M109.45 831.988C110.841 847.422 103.844 848.813 91.5102 848.813" stroke="#1D1D1B" stroke-width="5.17" stroke-linecap="round" stroke-linejoin="round"/>
<path d="M126.227 862.811C119.23 853.03 115.014 872.638 102.456 876.855C88.5066 879.637 98.2836 899.289 105.236 906.289" stroke="#1D1D1B" stroke-width="5.17"/>
<path d="M126.227 862.811C119.23 853.03 115.014 872.638 102.456 876.855C88.5066 879.637 98.2836 899.289 105.236 906.289" stroke="#1D1D1B" stroke-width="5.17" stroke-linecap="round" stroke-linejoin="round"/>
<path d="M110.842 909.072C115.058 907.681 117.838 902.073 122.055 897.855L110.842 909.072Z" stroke="#1D1D1B" stroke-width="5.17"/>
<path d="M110.842 909.072C115.058 907.681 117.838 902.073 122.055 897.855" stroke="#1D1D1B" stroke-width="5.17" stroke-linecap="round" stroke-linejoin="round"/>
<path d="M159.773 868.422C154.167 882.466 141.564 875.422 145.78 864.25L159.773 868.422Z" stroke="#1D1D1B" stroke-width="5.17"/>
<path d="M159.773 868.422C154.167 882.466 141.564 875.422 145.78 864.25" stroke="#1D1D1B" stroke-width="5.17" stroke-linecap="round" stroke-linejoin="round"/>
<path d="M147.172 917.461C144.391 918.897 143.001 920.288 138.785 930.114L147.172 917.461Z" stroke="#1D1D1B" stroke-width="5.17"/>
<path d="M147.172 917.461C144.391 918.897 143.001 920.288 138.785 930.114" stroke="#1D1D1B" stroke-width="5.17" stroke-linecap="round" stroke-linejoin="round"/>
<path d="M144.391 930.115C117.839 925.898 123.445 960.895 123.445 958.113" stroke="#1D1D1B" stroke-width="5.17"/>
<path d="M144.391 930.115C117.839 925.898 123.445 960.895 123.445 958.113" stroke="#1D1D1B" stroke-width="5.17" stroke-linecap="round" stroke-linejoin="round"/>
<path d="M138.785 965.113C144.391 963.722 149.953 959.549 149.953 955.332L138.785 965.113Z" stroke="#1D1D1B" stroke-width="5.17"/>
<path d="M138.785 965.113C144.391 963.722 149.953 959.549 149.953 955.332" stroke="#1D1D1B" stroke-width="5.17" stroke-linecap="round" stroke-linejoin="round"/>
<path d="M180.722 928.68C183.503 935.724 166.728 941.333 170.944 931.507L180.722 928.68Z" stroke="#1D1D1B" stroke-width="5.17"/>
<path d="M180.722 928.68C183.503 935.724 166.728 941.333 170.944 931.507" stroke="#1D1D1B" stroke-width="5.17" stroke-linecap="round" stroke-linejoin="round"/>
<path d="M152.82 1001.59C148.604 997.37 152.82 993.16 168.16 986.16" stroke="#1D1D1B" stroke-width="5.17"/>
<path d="M152.82 1001.59C148.604 997.37 152.82 993.16 168.16 986.16" stroke="#1D1D1B" stroke-width="5.17" stroke-linecap="round" stroke-linejoin="round"/>
<path d="M190.499 991.758C184.892 998.758 205.883 1000.15 201.667 991.758H190.499Z" stroke="#1D1D1B" stroke-width="5.17"/>
<path d="M190.499 991.758C184.892 998.758 205.883 1000.15 201.667 991.758" stroke="#1D1D1B" stroke-width="5.17" stroke-linecap="round" stroke-linejoin="round"/>
<path d="M126.223 1346.31C154.166 1335.09 152.775 1357.53 162.553 1357.53L180.808 1349.4L188.971 1352.95L197.342 1360.27L207.587 1351.05C210.368 1362.27 214.401 1347.61 229.741 1360.27C245.125 1374.26 254.902 1391.09 264.68 1363.05C271.677 1339.22 294.058 1346.22 291.232 1328C291.232 1321.01 254.902 1311.18 239.518 1295.79C233.957 1290.18 226.96 1301.35 219.963 1301.35C210.185 1299.96 222.744 1285.96 210.185 1287.35C210.185 1280.36 229.741 1271.92 233.957 1271.92C253.512 1269.14 229.741 1288.79 238.128 1288.79C260.554 1291.57 278.494 1302.79 300.92 1302.79C310.698 1302.79 302.31 1280.35 312.088 1262.14C327.473 1231.31 284.146 1238.31 268.806 1234.1C238.038 1225.71 250.641 1238.31 238.038 1238.31C222.654 1236.92 233.867 1227.1 222.654 1224.31C224.089 1214.49 228.261 1200.49 238.038 1200.49C256.203 1200.49 242.254 1222.92 247.816 1222.92C273.202 1220.14 319.31 1236.97 315.093 1218.75C309.532 1192.1 324.916 1169.71 313.703 1162.67C306.751 1158.49 274.592 1165.49 255.037 1159.88C245.259 1157.06 246.65 1166.88 241.043 1169.71C236.872 1162.67 234.091 1157.06 224.314 1155.67C228.485 1144.45 222.878 1140.23 238.262 1136.06C256.427 1130.45 243.869 1155.67 252.256 1151.49C280.199 1138.84 319.31 1150.06 310.922 1134.67C299.754 1113.63 310.922 1082.8 298.363 1088.41C284.37 1094.02 249.43 1088.41 238.262 1099.63C222.789 1115.06 227.005 1098.24 215.837 1095.41C214.446 1072.97 234.002 1068.8 235.392 1080.02C236.648 1089.8 270.197 1078.58 275.758 1078.58C278.584 1077.19 303.701 1071.58 293.968 1065.98C283.921 1058.98 286.971 1002.89 265.981 1025.33C260.285 1032.37 223.955 1033.76 221.129 1037.98C211.352 1060.37 202.964 1033.76 195.967 1033.76C180.628 1032.41 172.241 1045.02 168.025 1056.19C166.635 1060.41 170.851 1067.41 173.631 1067.41C179.238 1066.02 180.628 1071.63 180.628 1074.46C169.415 1082.85 173.587 1087.06 158.202 1082.85C141.428 1080.06 127.479 1103.89 138.647 1117.89C158.202 1144.49 163.809 1102.45 187.58 1115.11C186.788 1116.92 186.5 1118.92 186.744 1120.88C186.989 1122.85 187.758 1124.71 188.971 1126.28C186.145 1134.71 172.286 1140.28 151.25 1138.89C130.215 1137.5 140.038 1179.54 152.641 1178.15C173.497 1175.36 170.806 1157.1 195.923 1166.93C194.031 1168.68 192.646 1170.91 191.912 1173.38C191.178 1175.85 191.122 1178.47 191.751 1180.97C180.583 1182.36 167.98 1187.97 156.812 1186.58C141.428 1185.15 131.65 1220.19 144.254 1225.8C162.418 1234.19 180.583 1211.8 195.923 1228.58C190.361 1232.79 186.145 1239.79 188.971 1246.84C180.808 1246.84 179.417 1248.23 171.03 1245.45C134.7 1235.62 131.875 1277.66 138.871 1286.05C150.039 1300.05 168.204 1277.66 180.808 1294.44C179.037 1295.97 177.714 1297.95 176.979 1300.17C176.244 1302.39 176.126 1304.77 176.636 1307.05C162.553 1312.66 154.211 1300.05 131.785 1308.49C113.62 1315.49 112.23 1350.53 126.223 1346.31Z" stroke="#1D1D1B" stroke-width="5.17" stroke-linecap="round" stroke-linejoin="round"/>
<path d="M204.492 1066.02C187.717 1059.02 184.892 1089.85 207.273 1082.85L204.492 1066.02Z" stroke="#1D1D1B" stroke-width="5.17"/>
<path d="M204.492 1066.02C187.717 1059.02 184.892 1089.85 207.273 1082.85" stroke="#1D1D1B" stroke-width="5.17" stroke-linecap="round" stroke-linejoin="round"/>
<path d="M180.72 1074.46C182.11 1077.24 182.11 1077.24 184.891 1077.24L180.72 1074.46Z" stroke="#1D1D1B" stroke-width="5.17"/>
<path d="M180.72 1074.46C182.11 1077.24 182.11 1077.24 184.891 1077.24" stroke="#1D1D1B" stroke-width="5.17" stroke-linecap="round" stroke-linejoin="round"/>
<path d="M215.613 1095.45C205.836 1092.67 189.061 1102.45 187.671 1115.11" stroke="#1D1D1B" stroke-width="5.17"/>
<path d="M215.613 1095.45C205.836 1092.67 189.061 1102.45 187.671 1115.11" stroke="#1D1D1B" stroke-width="5.17" stroke-linecap="round" stroke-linejoin="round"/>
<path d="M189.107 1126.28C191.124 1128.49 193.469 1130.38 196.059 1131.89L189.107 1126.28Z" stroke="#1D1D1B" stroke-width="5.17"/>
<path d="M189.107 1126.28C191.124 1128.49 193.469 1130.38 196.059 1131.89" stroke="#1D1D1B" stroke-width="5.17" stroke-linecap="round" stroke-linejoin="round"/>
<path d="M215.617 1117.89C200.233 1110.89 196.017 1141.71 214.227 1136.1L215.617 1117.89Z" stroke="#1D1D1B" stroke-width="5.17"/>
<path d="M215.617 1117.89C200.233 1110.89 196.017 1141.71 214.227 1136.1" stroke="#1D1D1B" stroke-width="5.17" stroke-linecap="round" stroke-linejoin="round"/>
<path d="M224.047 1155.71C218.797 1154.67 213.359 1155.18 208.392 1157.17C203.425 1159.16 199.141 1162.55 196.059 1166.93" stroke="#1D1D1B" stroke-width="5.17"/>
<path d="M224.047 1155.71C218.797 1154.67 213.359 1155.18 208.392 1157.17C203.425 1159.16 199.141 1162.55 196.059 1166.93" stroke="#1D1D1B" stroke-width="5.17" stroke-linecap="round" stroke-linejoin="round"/>
<path d="M191.887 1180.97C191.837 1182.81 192.184 1184.63 192.904 1186.32C193.624 1188.01 194.7 1189.52 196.059 1190.75L191.887 1180.97Z" stroke="#1D1D1B" stroke-width="5.17"/>
<path d="M191.887 1180.97C191.837 1182.81 192.184 1184.63 192.904 1186.32C193.624 1188.01 194.7 1189.52 196.059 1190.75" stroke="#1D1D1B" stroke-width="5.17" stroke-linecap="round" stroke-linejoin="round"/>
<path d="M221.223 1179.36C205.884 1162.53 194.671 1201.79 217.052 1198.96L221.223 1179.36Z" stroke="#1D1D1B" stroke-width="5.17"/>
<path d="M221.223 1179.36C205.884 1162.53 194.671 1201.79 217.052 1198.96" stroke="#1D1D1B" stroke-width="5.17" stroke-linecap="round" stroke-linejoin="round"/>
<path d="M222.613 1224.23C218.17 1222.79 213.451 1222.42 208.839 1223.14C204.227 1223.87 199.849 1225.67 196.06 1228.4" stroke="#1D1D1B" stroke-width="5.17" stroke-linecap="round" stroke-linejoin="round"/>
<path d="M189.106 1246.79L191.887 1252.4" stroke="#1D1D1B" stroke-width="5.17"/>
<path d="M189.106 1246.79L191.887 1252.4" stroke="#1D1D1B" stroke-width="5.17" stroke-linecap="round" stroke-linejoin="round"/>
<path d="M218.437 1239.79C200.497 1239.79 201.663 1273.45 222.609 1260.84L218.437 1239.79Z" stroke="#1D1D1B" stroke-width="5.17"/>
<path d="M218.437 1239.79C200.497 1239.79 201.663 1273.45 222.609 1260.84" stroke="#1D1D1B" stroke-width="5.17" stroke-linecap="round" stroke-linejoin="round"/>
<path d="M210.051 1287.44C200.274 1287.44 187.626 1288.83 180.719 1294.44" stroke="#1D1D1B" stroke-width="5.17" stroke-linecap="round" stroke-linejoin="round"/>
<path d="M176.547 1307.05L177.938 1315.44" stroke="#1D1D1B" stroke-width="5.17"/>
<path d="M176.547 1307.05L177.938 1315.44" stroke="#1D1D1B" stroke-width="5.17" stroke-linecap="round" stroke-linejoin="round"/>
<path d="M211.441 1311.27C197.492 1301.44 183.499 1335.09 204.489 1332.31L211.441 1311.27Z" stroke="#1D1D1B" stroke-width="5.17"/>
<path d="M211.441 1311.27C197.492 1301.44 183.499 1335.09 204.489 1332.31" stroke="#1D1D1B" stroke-width="5.17" stroke-linecap="round" stroke-linejoin="round"/>
<path d="M231.043 1412.18C242.256 1409.4 238.039 1400.96 238.039 1400.96L207.54 1350.53C205.137 1350.37 202.766 1351.16 200.937 1352.72C199.109 1354.29 197.969 1356.52 197.763 1358.92C193.547 1356.14 190.766 1353.31 186.55 1350.53C166.995 1340.7 152.822 1378.53 134.881 1365.92C112.5 1349.14 115.326 1381.35 102.722 1385.57C88.7743 1391.18 65.2183 1405.79 67.9993 1425.39C70.7803 1442.22 50.4443 1426 49.0533 1462.44C47.6183 1501.7 35.6693 1473.83 48.2283 1513.09C56.6153 1539.69 41.2763 1550.91 67.7833 1556.52L84.5573 1557.95C90.1643 1549.52 84.5573 1529.91 90.1643 1515.87C98.3273 1489.26 82.9433 1490.65 108.105 1475.26C134.657 1458.44 127.66 1473.83 154.212 1461.22C178.163 1450 169.596 1466.83 196.103 1455.61C225.481 1443 198.929 1419.18 231.043 1412.18Z" stroke="#1D1D1B" stroke-width="5.17"/>
<path d="M211.442 1420.57C221.22 1403.79 203.055 1392.57 187.716 1395.35C159.774 1399.57 187.716 1420.57 163.945 1422C151.386 1420.57 162.554 1441.61 129.005 1429C103.844 1420.57 92.6764 1458.44 92.6764 1476.65" stroke="#1D1D1B" stroke-width="5.17" stroke-linecap="round" stroke-linejoin="round"/>
<path d="M148.859 1367.57L151.055 1377.8C152.912 1386.46 158.072 1394.05 165.439 1398.96L172.464 1403.64" stroke="#1D1D1B" stroke-width="5" stroke-linecap="round" stroke-dasharray="10 10"/>
<path d="M107.043 1382.74L109.289 1393.21C111.116 1401.73 116.141 1409.22 123.328 1414.14L146.834 1430.23" stroke="#1D1D1B" stroke-width="5" stroke-linecap="round" stroke-dasharray="10 10"/>
<path d="M68.2031 1431.57L80.3303 1438.8C81.8882 1439.73 83.518 1440.53 85.2039 1441.2L100.528 1447.28" stroke="#1D1D1B" stroke-width="5" stroke-linecap="round" stroke-dasharray="10 10"/>
<path d="M46.0664 1486.7L56.6447 1492.6C62.6971 1495.98 69.6372 1497.43 76.5352 1496.75L91.2912 1495.3" stroke="#1D1D1B" stroke-width="5" stroke-linecap="round" stroke-dasharray="10 10"/>
<path d="M67.6039 1556.52C69.0399 1557.95 82.9879 1560.74 84.3789 1557.95L67.6039 1556.52Z" stroke="#1D1D1B" stroke-width="5.17"/>
<path d="M67.6039 1556.52C69.0399 1557.95 82.9879 1560.74 84.3789 1557.95" stroke="#1D1D1B" stroke-width="5.17" stroke-linecap="round" stroke-linejoin="round"/>
<path d="M68.9498 1504.7C70.1318 1502.48 70.6278 1499.96 70.3718 1497.45C70.1158 1494.95 69.1218 1492.59 67.5138 1490.65" stroke="#1D1D1B" stroke-width="5.17" stroke-linecap="round" stroke-linejoin="round"/>
<path d="M79.3412 1449.65C86.2932 1449.65 91.8992 1430 82.1212 1434.22" stroke="#1D1D1B" stroke-width="5.17" stroke-linecap="round" stroke-linejoin="round"/>
<path d="M117.456 1393.9C123.857 1388.55 119.39 1402.31 119.39 1402.31C119.39 1402.31 117.038 1409.72 113.178 1412.08C109.544 1414.29 109.428 1409.55 111.232 1404.16" stroke="#1D1D1B" stroke-width="5.17"/>
<path d="M152.822 1395.35C154.213 1413.57 162.6 1379.96 155.603 1381.35" stroke="#1D1D1B" stroke-width="5.17" stroke-linecap="round" stroke-linejoin="round"/>
<path d="M95.7268 1583.12C98.5518 1576.13 90.1648 1557.95 84.5578 1557.95L67.7837 1556.52C71.9997 1574.73 66.6178 1578.95 84.5578 1583.12C83.1678 1590.17 91.5548 1598.56 97.1618 1599.95C97.1618 1606.99 102.723 1606.99 106.939 1609.78C125.104 1633.6 123.714 1606.99 109.72 1604.17C109.683 1602.38 109.135 1600.64 108.142 1599.15C107.148 1597.67 105.751 1596.5 104.114 1595.78C104.151 1593.07 103.37 1590.41 101.873 1588.16C100.377 1585.9 98.2348 1584.14 95.7268 1583.12Z" fill="white" stroke="#1D1D1B" stroke-width="5.17" stroke-linecap="round" stroke-linejoin="round"/>
<path d="M109.201 1602.78C110.591 1607 109.201 1609.83 106.42 1608.39" stroke="#1D1D1B" stroke-width="5.17" stroke-linecap="round" stroke-linejoin="round"/>
<path d="M96.8895 1600C100.763 1601.39 102.053 1598.56 103.344 1595.78" stroke="#1D1D1B" stroke-width="5.17" stroke-linecap="round" stroke-linejoin="round"/>
<path d="M95.207 1583.17C92.426 1588.78 86.865 1584.57 84.039 1583.17" stroke="#1D1D1B" stroke-width="5.17" stroke-linecap="round" stroke-linejoin="round"/>
</g>
<path d="M239.016 627.78C236.799 627.78 234.758 627.255 232.891 626.205C231.048 625.131 229.578 623.638 228.481 621.725C227.384 619.811 226.836 617.63 226.836 615.18C226.836 612.73 227.384 610.548 228.481 608.635C229.578 606.721 231.048 605.24 232.891 604.19C234.758 603.116 236.799 602.58 239.016 602.58C241.909 602.58 244.324 603.35 246.261 604.89C248.198 606.43 249.423 608.471 249.936 611.015H246.576C246.086 609.335 245.176 608.028 243.846 607.095C242.516 606.138 240.894 605.66 238.981 605.66C237.231 605.66 235.691 606.068 234.361 606.885C233.054 607.701 232.039 608.833 231.316 610.28C230.616 611.726 230.266 613.36 230.266 615.18C230.266 617 230.616 618.633 231.316 620.08C232.039 621.526 233.054 622.658 234.361 623.475C235.691 624.291 237.231 624.7 238.981 624.7C240.894 624.7 242.516 624.233 243.846 623.3C245.176 622.343 246.086 621.025 246.576 619.345H249.936C249.586 621.025 248.921 622.506 247.941 623.79C246.961 625.05 245.701 626.03 244.161 626.73C242.644 627.43 240.929 627.78 239.016 627.78ZM257.628 602.93H275.653V627.43H272.293V606.01H260.988V627.43H257.628V602.93ZM284.062 602.93H287.422V622.355L298.692 602.93H302.472V627.43H299.112V608.005L287.842 627.43H284.062V602.93ZM310.873 602.93H314.233V613.64H325.538V602.93H328.898V627.43H325.538V616.72H314.233V627.43H310.873V602.93ZM337.307 602.93H340.667V613.64H351.972V602.93H355.332V627.43H351.972V616.72H340.667V627.43H337.307V602.93ZM375.222 627.78C372.959 627.78 370.894 627.255 369.027 626.205C367.184 625.131 365.725 623.638 364.652 621.725C363.579 619.811 363.042 617.63 363.042 615.18C363.042 612.73 363.579 610.548 364.652 608.635C365.725 606.721 367.184 605.24 369.027 604.19C370.894 603.116 372.959 602.58 375.222 602.58C377.485 602.58 379.539 603.116 381.382 604.19C383.249 605.24 384.719 606.721 385.792 608.635C386.865 610.548 387.402 612.73 387.402 615.18C387.402 617.63 386.865 619.811 385.792 621.725C384.719 623.638 383.249 625.131 381.382 626.205C379.539 627.255 377.485 627.78 375.222 627.78ZM375.222 624.7C376.972 624.7 378.512 624.303 379.842 623.51C381.172 622.693 382.187 621.573 382.887 620.15C383.61 618.703 383.972 617.046 383.972 615.18C383.972 613.313 383.61 611.668 382.887 610.245C382.187 608.798 381.172 607.678 379.842 606.885C378.512 606.068 376.972 605.66 375.222 605.66C373.472 605.66 371.932 606.068 370.602 606.885C369.272 607.678 368.245 608.798 367.522 610.245C366.822 611.668 366.472 613.313 366.472 615.18C366.472 617.046 366.822 618.703 367.522 620.15C368.245 621.573 369.272 622.693 370.602 623.51C371.932 624.303 373.472 624.7 375.222 624.7ZM395.098 602.93H398.458V622.355L409.728 602.93H413.508V627.43H410.148V608.005L398.878 627.43H395.098V602.93ZM404.338 600.76C402.938 600.76 401.83 600.34 401.013 599.5C400.22 598.636 399.823 597.54 399.823 596.21H402.658C402.658 596.77 402.81 597.225 403.113 597.575C403.44 597.901 403.848 598.065 404.338 598.065C404.828 598.065 405.225 597.901 405.528 597.575C405.855 597.225 406.018 596.77 406.018 596.21H408.853C408.853 597.54 408.445 598.636 407.628 599.5C406.835 600.34 405.738 600.76 404.338 600.76ZM227.536 637.93H231.106L239.016 658.23L246.926 637.93H250.496V662.43H247.136V645.84L240.766 662.43H237.266L230.896 645.84V662.43H227.536V637.93ZM270.372 662.78C268.109 662.78 266.044 662.255 264.177 661.205C262.334 660.131 260.876 658.638 259.802 656.725C258.729 654.811 258.192 652.63 258.192 650.18C258.192 647.73 258.729 645.548 259.802 643.635C260.876 641.721 262.334 640.24 264.177 639.19C266.044 638.116 268.109 637.58 270.372 637.58C272.636 637.58 274.689 638.116 276.532 639.19C278.399 640.24 279.869 641.721 280.942 643.635C282.016 645.548 282.552 647.73 282.552 650.18C282.552 652.63 282.016 654.811 280.942 656.725C279.869 658.638 278.399 660.131 276.532 661.205C274.689 662.255 272.636 662.78 270.372 662.78ZM270.372 659.7C272.122 659.7 273.662 659.303 274.992 658.51C276.322 657.693 277.337 656.573 278.037 655.15C278.761 653.703 279.122 652.046 279.122 650.18C279.122 648.313 278.761 646.668 278.037 645.245C277.337 643.798 276.322 642.678 274.992 641.885C273.662 641.068 272.122 640.66 270.372 640.66C268.622 640.66 267.082 641.068 265.752 641.885C264.422 642.678 263.396 643.798 262.672 645.245C261.972 646.668 261.622 648.313 261.622 650.18C261.622 652.046 261.972 653.703 262.672 655.15C263.396 656.573 264.422 657.693 265.752 658.51C267.082 659.303 268.622 659.7 270.372 659.7ZM298.054 662.78C296.14 662.78 294.519 662.395 293.189 661.625C291.859 660.855 290.844 659.816 290.144 658.51C289.467 657.18 289.082 655.698 288.989 654.065H292.244C292.36 655.745 292.92 657.11 293.924 658.16C294.927 659.186 296.304 659.7 298.054 659.7C299.757 659.7 301.04 659.28 301.904 658.44C302.767 657.576 303.199 656.456 303.199 655.08C303.199 653.656 302.709 652.56 301.729 651.79C300.749 651.02 299.465 650.635 297.879 650.635H296.724V647.555H297.879C300.655 647.555 302.044 646.376 302.044 644.02C302.044 642.993 301.682 642.176 300.959 641.57C300.235 640.963 299.29 640.66 298.124 640.66C296.654 640.66 295.475 641.068 294.589 641.885C293.702 642.701 293.212 643.728 293.119 644.965H289.934C290.05 643.611 290.435 642.375 291.089 641.255C291.765 640.135 292.71 639.248 293.924 638.595C295.137 637.918 296.56 637.58 298.194 637.58C299.337 637.58 300.445 637.813 301.519 638.28C302.615 638.723 303.514 639.423 304.214 640.38C304.937 641.336 305.299 642.55 305.299 644.02C305.299 645.256 305.007 646.271 304.424 647.065C303.864 647.858 303.14 648.453 302.254 648.85C303.747 649.293 304.844 650.086 305.544 651.23C306.267 652.373 306.629 653.656 306.629 655.08C306.629 656.41 306.267 657.67 305.544 658.86C304.82 660.05 303.805 661.006 302.499 661.73C301.215 662.43 299.734 662.78 298.054 662.78ZM314.325 637.93H328.605V641.01H317.685V662.43H314.325V637.93Z" fill="black"/>
<path fill-rule="evenodd" clip-rule="evenodd" d="M267.357 78.5559L288.902 65.4247C295.91 61.1531 300.186 53.5386 300.186 45.3311V39.1379C300.186 28.6606 291.208 20.4345 280.771 21.3488L271.324 22.1763C268.12 22.457 265.179 20.3888 264.36 17.2782C262.864 11.5996 268.967 6.9382 274.052 9.87534L277.847 12.0674C281.639 14.2579 286.463 12.0855 287.336 7.79364C288.408 2.52637 295.096 0.836655 298.54 4.96291L305.501 13.3001C308.674 17.1008 313.905 18.4767 318.537 16.729L323.502 14.8559C325.657 14.043 327.94 13.6265 330.243 13.6265H337.423C341.214 13.6265 344.996 13.2578 348.716 12.5255L359.533 10.3961C365.513 9.21884 371.232 6.97498 376.417 3.77174C382.631 -0.0671082 389.6 -2.52058 396.848 -3.42134L409.244 -4.96176C410.909 -5.16873 412.536 -5.61499 414.074 -6.28676L418.897 -8.39334C427.84 -12.2993 430.047 -23.9807 423.147 -30.8809C419.261 -34.767 418.04 -40.5831 420.035 -45.704L434.18 -82.0066C445.611 -111.343 437.092 -144.702 412.994 -164.965L399.243 -176.529C381.474 -191.47 359.002 -199.663 335.786 -199.663L282.069 -199.664C248.848 -199.665 216.011 -192.567 185.756 -178.846L164.427 -169.173C146.797 -161.177 131.178 -149.339 118.715 -134.526C98.441 -110.429 87.6186 -79.7837 88.2641 -48.2993L88.3083 -46.1423L85.2284 -1.53108C84.7633 5.20535 90.797 10.5598 97.4304 9.29733L98.1298 9.16423C99.1529 8.9695 100.121 8.55215 100.965 7.94176L109.994 1.41093C112.681 -0.532822 116.29 2.08112 115.282 5.24069C115.134 5.7032 114.891 6.1292 114.566 6.49062L103.416 18.9215C102.544 19.8943 101.283 20.4501 99.9765 20.4501C96.1813 20.4501 93.9783 24.8166 96.3108 27.8104L102.045 35.1707L113.554 50.3384C117.661 55.751 122.852 60.2474 128.795 63.5403L145.056 72.5497C146.706 73.4637 148.664 73.6413 150.451 73.0391C152.487 72.3529 154.072 70.733 154.713 68.682L166.326 31.5362L171.234 7.18369C171.489 5.91824 170.596 4.70911 169.312 4.58067C166.645 4.314 166.713 0.404205 169.388 0.230896L174.547 -0.103348C174.775 -0.118118 175 -0.162827 175.216 -0.236282L182.083 -2.56688C186.889 -4.19809 192.203 -2.70441 195.455 1.19174L197.712 3.89517C201.222 8.09972 207.614 8.29877 211.379 4.32072C213.925 1.62996 217.843 0.740585 221.302 2.06822L228.915 4.99091C234.223 7.02831 237.031 12.8419 235.327 18.2657L234.638 20.4584C232.876 26.066 226.294 28.5001 221.308 25.3877L218.521 23.6479C215.192 21.5703 210.795 23.0306 209.37 26.6866C207.409 31.7219 200.418 32.0744 197.96 27.262L195.445 22.3393C192.768 17.1001 185.785 15.9465 181.566 20.0464L177.724 23.7802C175.878 25.5732 174.621 27.8844 174.119 30.4078L169.344 54.3868C167.441 63.9458 170.084 73.8467 176.498 81.1857C179.859 85.032 184.108 88.0003 188.876 89.8331L198.601 93.5713C202.886 95.2183 207.567 92.3524 208.048 87.7875L209.563 73.4129C209.666 72.4414 209.919 71.4918 210.313 70.5981L216.092 57.5094C217.489 54.3445 222.043 54.5363 223.169 57.8075C224.144 60.6393 227.857 61.2863 229.732 58.9511L232.507 55.4964C235.466 51.8115 241.287 52.6188 243.131 56.9701L243.998 59.0144C246.115 64.0099 242.449 69.5467 237.023 69.5467H232.649C227.458 69.5467 223.05 73.3501 222.29 78.4856L219.174 99.5354C219.071 100.235 219.059 100.936 219.135 101.624C218.849 102.071 218.68 102.608 218.68 103.205C218.68 103.414 218.702 103.622 218.746 103.826L223.16 124.306C226.138 138.125 227.64 152.221 227.64 166.357V195.349L224.664 233.84C222.198 261.973 217.147 289.818 209.576 317.024L209.17 318.487L195.435 351.382L174.468 395.714L141.275 461.63L119.126 509.761C108.649 543.041 101.826 577.363 98.7766 612.12L98.2643 617.96C97.0315 657.599 99.9823 697.258 107.068 736.279L108.364 743.416L119.954 796.267L142.816 857.926C157.05 899.248 175.172 939.126 196.939 977.025L198.031 978.926L223.456 1036.88L246.761 1093.06C254.395 1111.21 258.897 1130.53 260.076 1150.18L261.134 1167.83L261.798 1185.19C261.837 1186.2 263.261 1186.4 263.573 1185.43C263.594 1185.37 263.608 1185.3 263.613 1185.23L265.105 1167.32L264.605 1149.31L263.468 1119.09C260.589 1099.64 255.404 1080.6 248.022 1062.38L235.27 1030.9L207.332 964.718L178.889 905.834L157.807 847.677L138.907 790.246L125.275 732.094L117.825 672.483V617.96L120.558 591.516C122.47 573.016 126.082 554.732 131.349 536.896C135.542 522.698 140.771 508.826 146.994 495.392L158.001 471.63L178.032 428.338L196.448 391.827L215.187 354.673C226.151 330.593 235.034 305.618 241.738 280.023L242.326 277.78L248.464 233.84V193.78L248.91 143.378L247.836 101.8C247.834 101.734 247.839 101.668 247.849 101.603C247.89 101.352 247.846 101.127 247.746 100.94C251.84 91.6607 258.679 83.845 267.357 78.5559Z" fill="#FC8B75"/>
<path d="M288.902 65.4247L290.203 67.5594L290.203 67.5594L288.902 65.4247ZM267.357 78.5559L266.056 76.4211L266.056 76.4211L267.357 78.5559ZM280.771 21.3488L280.989 23.8393L280.989 23.8393L280.771 21.3488ZM271.324 22.1763L271.542 24.6668L271.542 24.6668L271.324 22.1763ZM264.36 17.2782L266.777 16.6415L266.777 16.6414L264.36 17.2782ZM274.052 9.87534L275.302 7.71051L275.302 7.71051L274.052 9.87534ZM277.847 12.0674L276.596 14.2322L276.596 14.2322L277.847 12.0674ZM287.336 7.79364L289.786 8.292L289.786 8.292L287.336 7.79364ZM298.54 4.96291L300.46 3.36074L300.46 3.36073L298.54 4.96291ZM305.501 13.3001L303.582 14.9023L303.582 14.9023L305.501 13.3001ZM318.537 16.729L317.655 14.39L317.655 14.39L318.537 16.729ZM323.502 14.8559L324.384 17.195L324.384 17.195L323.502 14.8559ZM348.716 12.5255L348.233 10.0726L348.233 10.0726L348.716 12.5255ZM359.533 10.3961L360.016 12.849L360.016 12.849L359.533 10.3961ZM376.417 3.77174L375.103 1.64488L375.103 1.64488L376.417 3.77174ZM396.848 -3.42134L396.54 -5.90226L396.54 -5.90226L396.848 -3.42134ZM409.244 -4.96176L409.552 -2.48084L409.552 -2.48085L409.244 -4.96176ZM414.074 -6.28676L413.074 -8.57775L413.074 -8.57775L414.074 -6.28676ZM418.897 -8.39334L417.896 -10.6843L417.896 -10.6843L418.897 -8.39334ZM423.147 -30.8809L421.379 -29.1131L421.379 -29.1131L423.147 -30.8809ZM420.035 -45.704L422.365 -44.7963L422.365 -44.7963L420.035 -45.704ZM434.18 -82.0066L431.851 -82.9142L431.851 -82.9142L434.18 -82.0066ZM412.994 -164.965L414.603 -166.879L414.603 -166.879L412.994 -164.965ZM399.243 -176.529L397.634 -174.615L397.634 -174.615L399.243 -176.529ZM335.786 -199.663L335.786 -197.163L335.786 -199.663ZM282.069 -199.664L282.069 -202.164L282.069 -199.664ZM185.756 -178.846L184.724 -181.123L184.724 -181.123L185.756 -178.846ZM164.427 -169.173L165.46 -166.896L165.46 -166.896L164.427 -169.173ZM118.715 -134.526L116.802 -136.135L116.802 -136.135L118.715 -134.526ZM88.2641 -48.2993L85.7646 -48.248L85.7646 -48.248L88.2641 -48.2993ZM88.3083 -46.1423L90.8024 -45.9701L90.8101 -46.0817L90.8078 -46.1935L88.3083 -46.1423ZM85.2284 -1.53108L87.7224 -1.35889L85.2284 -1.53108ZM97.4304 9.29733L96.963 6.84142L96.963 6.84142L97.4304 9.29733ZM98.1298 9.16423L98.5972 11.6201L98.5972 11.6201L98.1298 9.16423ZM100.965 7.94176L99.4994 5.91611L99.4994 5.91612L100.965 7.94176ZM109.994 1.41093L111.459 3.43658L109.994 1.41093ZM115.282 5.24069L117.664 6.00079L117.664 6.00079L115.282 5.24069ZM114.566 6.49062L116.427 8.1599L116.427 8.15988L114.566 6.49062ZM103.416 18.9215L101.555 17.2522L101.555 17.2522L103.416 18.9215ZM96.3108 27.8104L94.3386 29.3469L94.3386 29.3469L96.3108 27.8104ZM102.045 35.1707L104.037 33.6596L104.027 33.6469L104.017 33.6343L102.045 35.1707ZM113.554 50.3384L115.546 48.8272L115.546 48.8272L113.554 50.3384ZM128.795 63.5403L127.583 65.727L127.583 65.727L128.795 63.5403ZM145.056 72.5497L143.844 74.7364L143.844 74.7364L145.056 72.5497ZM150.451 73.0391L149.653 70.6699L149.653 70.6699L150.451 73.0391ZM154.713 68.682L157.099 69.428L157.099 69.428L154.713 68.682ZM166.326 31.5362L168.712 32.2822L168.751 32.1579L168.776 32.0302L166.326 31.5362ZM171.234 7.18369L173.685 7.67767L173.685 7.67766L171.234 7.18369ZM169.312 4.58067L169.063 7.06827L169.063 7.06827L169.312 4.58067ZM169.388 0.230896L169.226 -2.26387L169.226 -2.26387L169.388 0.230896ZM174.547 -0.103348L174.385 -2.59812L174.385 -2.59812L174.547 -0.103348ZM175.216 -0.236282L176.02 2.1311L176.02 2.13107L175.216 -0.236282ZM182.083 -2.56688L182.886 -0.199527L182.886 -0.199529L182.083 -2.56688ZM195.455 1.19174L193.536 2.7938L193.536 2.7938L195.455 1.19174ZM197.712 3.89517L199.631 2.29311L199.631 2.29311L197.712 3.89517ZM211.379 4.32072L209.563 2.60236L209.563 2.60237L211.379 4.32072ZM221.302 2.06822L222.198 -0.265722L222.198 -0.265723L221.302 2.06822ZM228.915 4.99091L228.019 7.32485L228.019 7.32485L228.915 4.99091ZM235.327 18.2657L232.942 17.5165L232.942 17.5165L235.327 18.2657ZM234.638 20.4584L237.023 21.2077L237.023 21.2077L234.638 20.4584ZM221.308 25.3877L222.632 23.2669L222.632 23.2669L221.308 25.3877ZM218.521 23.6479L219.844 21.5272L219.844 21.5272L218.521 23.6479ZM209.37 26.6866L207.041 25.779L207.041 25.779L209.37 26.6866ZM197.96 27.262L195.733 28.3994L195.733 28.3994L197.96 27.262ZM195.445 22.3393L197.671 21.202L197.671 21.202L195.445 22.3393ZM181.566 20.0464L179.824 18.2535L179.824 18.2535L181.566 20.0464ZM177.724 23.7802L179.466 25.5731L179.466 25.5731L177.724 23.7802ZM174.119 30.4078L171.667 29.9196L171.667 29.9196L174.119 30.4078ZM169.344 54.3868L171.796 54.875L171.796 54.875L169.344 54.3868ZM176.498 81.1857L174.615 82.8308L174.615 82.8308L176.498 81.1857ZM188.876 89.8331L187.979 92.1666L187.979 92.1666L188.876 89.8331ZM198.601 93.5713L197.704 95.9049L197.704 95.9049L198.601 93.5713ZM208.048 87.7875L210.534 88.0496L210.534 88.0496L208.048 87.7875ZM209.563 73.4129L207.077 73.1508L207.077 73.1508L209.563 73.4129ZM210.313 70.5981L208.026 69.5885L208.026 69.5885L210.313 70.5981ZM216.092 57.5094L218.379 58.5191L218.379 58.5191L216.092 57.5094ZM223.169 57.8075L225.533 56.9937L225.533 56.9937L223.169 57.8075ZM229.732 58.9511L227.783 57.3858L227.783 57.3858L229.732 58.9511ZM232.507 55.4964L234.456 57.0618L234.456 57.0618L232.507 55.4964ZM243.131 56.9701L240.829 57.9458L240.829 57.9458L243.131 56.9701ZM243.998 59.0144L241.696 59.9902L241.696 59.9902L243.998 59.0144ZM222.29 78.4856L224.763 78.8516L224.763 78.8516L222.29 78.4856ZM219.174 99.5354L216.701 99.1693L216.701 99.1694L219.174 99.5354ZM219.135 101.624L221.242 102.969L221.716 102.226L221.62 101.351L219.135 101.624ZM218.746 103.826L221.19 103.299L221.19 103.299L218.746 103.826ZM223.16 124.306L220.716 124.833L220.716 124.833L223.16 124.306ZM227.64 195.349L230.133 195.542L230.14 195.446V195.349H227.64ZM224.664 233.84L227.154 234.059L227.155 234.046L227.156 234.033L224.664 233.84ZM209.576 317.024L211.985 317.695L211.985 317.695L209.576 317.024ZM209.17 318.487L211.477 319.45L211.536 319.307L211.578 319.157L209.17 318.487ZM195.435 351.382L197.695 352.45L197.72 352.398L197.742 352.345L195.435 351.382ZM174.468 395.714L176.7 396.839L176.714 396.811L176.728 396.783L174.468 395.714ZM141.275 461.63L139.042 460.505L139.023 460.544L139.004 460.584L141.275 461.63ZM119.126 509.761L116.855 508.716L116.789 508.859L116.742 509.01L119.126 509.761ZM98.7766 612.12L96.2862 611.902L96.2862 611.902L98.7766 612.12ZM98.2643 617.96L95.7739 617.741L95.7677 617.812L95.7655 617.882L98.2643 617.96ZM107.068 736.279L109.528 735.832L109.528 735.832L107.068 736.279ZM108.364 743.416L105.904 743.863L105.912 743.908L105.922 743.952L108.364 743.416ZM119.954 796.267L117.512 796.803L117.549 796.973L117.61 797.136L119.954 796.267ZM142.816 857.926L145.18 857.112L145.17 857.084L145.16 857.057L142.816 857.926ZM196.939 977.025L194.771 978.27L194.771 978.27L196.939 977.025ZM198.031 978.926L200.32 977.922L200.266 977.798L200.199 977.681L198.031 978.926ZM223.456 1036.88L225.765 1035.92L225.756 1035.9L225.746 1035.87L223.456 1036.88ZM246.761 1093.06L244.452 1094.02L244.456 1094.03L246.761 1093.06ZM260.076 1150.18L262.571 1150.03L262.571 1150.03L260.076 1150.18ZM261.134 1167.83L263.633 1167.73L263.632 1167.71L263.63 1167.68L261.134 1167.83ZM261.798 1185.19L259.3 1185.28L259.3 1185.28L261.798 1185.19ZM263.573 1185.43L261.193 1184.67L261.193 1184.67L263.573 1185.43ZM263.613 1185.23L261.122 1185.02L261.122 1185.02L263.613 1185.23ZM265.105 1167.32L267.596 1167.53L267.608 1167.39L267.604 1167.25L265.105 1167.32ZM264.605 1149.31L267.104 1149.24L267.103 1149.23L267.103 1149.22L264.605 1149.31ZM263.468 1119.09L265.966 1119L265.961 1118.86L265.941 1118.72L263.468 1119.09ZM248.022 1062.38L250.339 1061.44L250.339 1061.44L248.022 1062.38ZM235.27 1030.9L237.588 1029.96L237.581 1029.94L237.574 1029.93L235.27 1030.9ZM207.332 964.718L209.636 963.745L209.611 963.687L209.583 963.63L207.332 964.718ZM178.889 905.834L176.539 906.686L176.582 906.806L176.638 906.921L178.889 905.834ZM157.807 847.677L155.433 848.458L155.444 848.493L155.457 848.528L157.807 847.677ZM138.907 790.246L136.473 790.817L136.498 790.924L136.532 791.028L138.907 790.246ZM125.275 732.094L122.795 732.404L122.811 732.535L122.841 732.664L125.275 732.094ZM117.825 672.483H115.325V672.638L115.344 672.793L117.825 672.483ZM117.825 617.96L115.338 617.703L115.325 617.831V617.96H117.825ZM120.558 591.516L123.045 591.772L123.045 591.772L120.558 591.516ZM131.349 536.896L128.952 536.188L128.952 536.188L131.349 536.896ZM146.994 495.392L149.262 496.443L149.262 496.443L146.994 495.392ZM158.001 471.63L160.27 472.68L160.27 472.679L158.001 471.63ZM178.032 428.338L175.8 427.212L175.781 427.25L175.763 427.288L178.032 428.338ZM196.448 391.827L198.68 392.953L198.68 392.953L196.448 391.827ZM215.187 354.673L217.419 355.799L217.441 355.755L217.462 355.709L215.187 354.673ZM241.738 280.023L244.156 280.656L244.156 280.656L241.738 280.023ZM242.326 277.78L244.744 278.413L244.781 278.271L244.802 278.126L242.326 277.78ZM248.464 233.84L250.94 234.186L250.964 234.014V233.84H248.464ZM248.464 193.78L245.964 193.758L245.964 193.769V193.78H248.464ZM248.91 143.378L251.41 143.4L251.411 143.357L251.409 143.314L248.91 143.378ZM247.836 101.8L250.335 101.735L250.335 101.735L247.836 101.8ZM247.849 101.603L250.316 102.009L250.316 102.009L247.849 101.603ZM247.746 100.94L245.459 99.9308L244.966 101.048L245.544 102.123L247.746 100.94ZM287.601 63.2899L266.056 76.4211L268.658 80.6906L290.203 67.5594L287.601 63.2899ZM297.686 45.3311C297.686 52.6667 293.864 59.4722 287.601 63.2899L290.203 67.5594C297.956 62.834 302.686 54.4106 302.686 45.3311H297.686ZM297.686 39.1379V45.3311H302.686V39.1379H297.686ZM280.989 23.8393C289.965 23.053 297.686 30.1274 297.686 39.1379H302.686C302.686 27.1938 292.451 17.816 280.553 18.8583L280.989 23.8393ZM271.542 24.6668L280.989 23.8393L280.553 18.8583L271.106 19.6859L271.542 24.6668ZM261.942 17.915C263.072 22.2028 267.125 25.0537 271.542 24.6668L271.106 19.6859C269.114 19.8603 267.287 18.5748 266.777 16.6415L261.942 17.915ZM275.302 7.71051C268.293 3.66183 259.88 10.0873 261.942 17.915L266.777 16.6414C265.848 13.1119 269.641 10.2146 272.801 12.0402L275.302 7.71051ZM279.097 9.90253L275.302 7.71051L272.801 12.0402L276.596 14.2322L279.097 9.90253ZM284.886 7.29528C284.354 9.91358 281.411 11.2389 279.097 9.90252L276.596 14.2322C281.868 17.2769 288.572 14.2574 289.786 8.292L284.886 7.29528ZM300.46 3.36073C295.672 -2.37447 286.376 -0.025907 284.886 7.29528L289.786 8.292C290.44 5.07864 294.52 4.04778 296.621 6.56508L300.46 3.36073ZM307.42 11.6979L300.46 3.36074L296.621 6.56507L303.582 14.9023L307.42 11.6979ZM317.655 14.39C314.018 15.7621 309.911 14.6819 307.42 11.6979L303.582 14.9023C307.437 19.5198 313.792 21.1914 319.42 19.0681L317.655 14.39ZM322.619 12.5169L317.655 14.39L319.42 19.0681L324.384 17.195L322.619 12.5169ZM330.243 11.1265C327.639 11.1265 325.056 11.5976 322.619 12.5169L324.384 17.195C326.257 16.4885 328.242 16.1265 330.243 16.1265V11.1265ZM337.423 11.1265H330.243V16.1265H337.423V11.1265ZM348.233 10.0726C344.672 10.7735 341.052 11.1265 337.423 11.1265V16.1265C341.376 16.1265 345.32 15.742 349.199 14.9784L348.233 10.0726ZM359.05 7.94314L348.233 10.0726L349.199 14.9784L360.016 12.849L359.05 7.94314ZM375.103 1.64488C370.173 4.69044 364.736 6.82386 359.05 7.94314L360.016 12.849C366.29 11.6138 372.291 9.25951 377.731 5.89861L375.103 1.64488ZM396.54 -5.90226C388.935 -4.95716 381.623 -2.38293 375.103 1.64488L377.731 5.89861C383.639 2.24871 390.265 -0.0840034 397.157 -0.940424L396.54 -5.90226ZM408.936 -7.44268L396.54 -5.90226L397.157 -0.940424L409.552 -2.48084L408.936 -7.44268ZM413.074 -8.57775C411.756 -8.00228 410.362 -7.61998 408.936 -7.44268L409.552 -2.48085C411.456 -2.71748 413.317 -3.2277 415.075 -3.99577L413.074 -8.57775ZM417.896 -10.6843L413.074 -8.57775L415.075 -3.99577L419.898 -6.10235L417.896 -10.6843ZM421.379 -29.1131C427.034 -23.4583 425.225 -13.8853 417.896 -10.6843L419.898 -6.10235C430.454 -10.7133 433.061 -24.5031 424.915 -32.6487L421.379 -29.1131ZM417.706 -46.6116C415.351 -40.5665 416.792 -33.7007 421.379 -29.1131L424.915 -32.6486C421.73 -35.8334 420.73 -40.5998 422.365 -44.7963L417.706 -46.6116ZM431.851 -82.9142L417.706 -46.6116L422.365 -44.7963L436.51 -81.0989L431.851 -82.9142ZM411.385 -163.052C434.664 -143.478 442.893 -111.253 431.851 -82.9142L436.51 -81.0989C448.329 -111.433 439.52 -145.926 414.603 -166.879L411.385 -163.052ZM397.634 -174.615L411.385 -163.052L414.603 -166.879L400.852 -178.442L397.634 -174.615ZM335.786 -197.163C358.413 -197.163 380.315 -189.178 397.634 -174.615L400.852 -178.442C382.632 -193.763 359.591 -202.163 335.786 -202.163L335.786 -197.163ZM282.069 -197.164L335.786 -197.163L335.786 -202.163L282.069 -202.164L282.069 -197.164ZM186.789 -176.569C216.719 -190.143 249.204 -197.165 282.069 -197.164L282.069 -202.164C248.492 -202.165 215.303 -194.991 184.724 -181.123L186.789 -176.569ZM165.46 -166.896L186.789 -176.569L184.724 -181.123L163.395 -171.449L165.46 -166.896ZM120.628 -132.916C132.851 -147.444 148.169 -159.054 165.46 -166.896L163.395 -171.449C145.425 -163.3 129.505 -151.234 116.802 -136.135L120.628 -132.916ZM90.7636 -48.3505C90.1305 -79.2286 100.744 -109.284 120.628 -132.916L116.802 -136.135C96.1376 -111.575 85.1067 -80.3389 85.7646 -48.248L90.7636 -48.3505ZM90.8078 -46.1935L90.7636 -48.3505L85.7646 -48.248L85.8089 -46.091L90.8078 -46.1935ZM87.7224 -1.35889L90.8024 -45.9701L85.8143 -46.3144L82.7343 -1.70327L87.7224 -1.35889ZM96.963 6.84142C91.9395 7.7975 87.3702 3.74258 87.7224 -1.35889L82.7343 -1.70327C82.1563 6.66813 89.6545 13.3222 97.8978 11.7532L96.963 6.84142ZM97.6623 6.70831L96.963 6.84142L97.8978 11.7533L98.5972 11.6201L97.6623 6.70831ZM99.4994 5.91612C98.9525 6.31167 98.3253 6.58212 97.6623 6.70832L98.5972 11.6201C99.9804 11.3569 101.289 10.7926 102.43 9.9674L99.4994 5.91612ZM108.528 -0.614712L99.4994 5.91611L102.43 9.9674L111.459 3.43658L108.528 -0.614712ZM117.664 6.00079C119.406 0.542964 113.17 -3.97236 108.528 -0.614712L111.459 3.43658C112.191 2.90671 113.175 3.61927 112.9 4.48059L117.664 6.00079ZM116.427 8.15988C116.987 7.53558 117.409 6.79973 117.664 6.00079L112.9 4.48059C112.86 4.60667 112.794 4.72281 112.705 4.82135L116.427 8.15988ZM105.277 20.5908L116.427 8.1599L112.705 4.82133L101.555 17.2522L105.277 20.5908ZM99.9765 22.9501C101.985 22.9501 103.925 22.0989 105.277 20.5908L101.555 17.2522C101.163 17.6898 100.582 17.9501 99.9765 17.9501V22.9501ZM98.2829 26.2739C97.274 24.9791 98.1899 22.9501 99.9765 22.9501V17.9501C94.1727 17.9501 90.6825 24.6542 94.3386 29.3469L98.2829 26.2739ZM104.017 33.6343L98.2829 26.2739L94.3386 29.3469L100.073 36.7072L104.017 33.6343ZM115.546 48.8272L104.037 33.6596L100.054 36.6819L111.562 51.8495L115.546 48.8272ZM130.007 61.3535C124.368 58.2292 119.442 53.9629 115.546 48.8272L111.562 51.8495C115.879 57.5392 121.336 62.2657 127.583 65.727L130.007 61.3535ZM146.268 70.3629L130.007 61.3535L127.583 65.727L143.844 74.7364L146.268 70.3629ZM149.653 70.6699C148.531 71.0478 147.303 70.9364 146.268 70.3629L143.844 74.7364C146.109 75.9909 148.796 76.2348 151.249 75.4082L149.653 70.6699ZM152.327 67.9361C151.925 69.223 150.93 70.2394 149.653 70.6699L151.249 75.4082C154.044 74.4664 156.219 72.243 157.099 69.428L152.327 67.9361ZM163.939 30.7903L152.327 67.9361L157.099 69.428L168.712 32.2822L163.939 30.7903ZM168.784 6.6897L163.875 31.0422L168.776 32.0302L173.685 7.67767L168.784 6.6897ZM169.063 7.06827C168.876 7.04959 168.746 6.87373 168.784 6.68971L173.685 7.67766C174.232 4.96276 172.316 2.36862 169.561 2.09308L169.063 7.06827ZM169.226 -2.26387C163.488 -1.89205 163.341 6.49612 169.063 7.06827L169.561 2.09308C169.533 2.09034 169.562 2.0892 169.619 2.12C169.676 2.15057 169.73 2.19548 169.771 2.24694C169.848 2.34231 169.847 2.40875 169.846 2.41447C169.846 2.42019 169.845 2.48664 169.766 2.57926C169.722 2.62925 169.667 2.67225 169.609 2.70081C169.55 2.72957 169.522 2.72744 169.55 2.72566L169.226 -2.26387ZM174.385 -2.59812L169.226 -2.26387L169.55 2.72566L174.708 2.39142L174.385 -2.59812ZM174.413 -2.60367C174.404 -2.60057 174.394 -2.59873 174.385 -2.59812L174.708 2.39143C175.155 2.36249 175.596 2.27491 176.02 2.1311L174.413 -2.60367ZM181.279 -4.93423L174.413 -2.60363L176.02 2.13107L182.886 -0.199527L181.279 -4.93423ZM197.374 -0.410317C193.46 -5.09976 187.064 -6.89757 181.279 -4.93423L182.886 -0.199529C186.714 -1.49861 190.946 -0.309055 193.536 2.7938L197.374 -0.410317ZM199.631 2.29311L197.374 -0.410321L193.536 2.7938L195.793 5.49724L199.631 2.29311ZM209.563 2.60237C206.827 5.49325 202.182 5.3486 199.631 2.29311L195.793 5.49723C200.262 10.8508 208.401 11.1043 213.195 6.03908L209.563 2.60237ZM222.198 -0.265723C217.794 -1.95619 212.805 -0.823756 209.563 2.60236L213.195 6.03909C215.045 4.08367 217.892 3.43736 220.406 4.40217L222.198 -0.265723ZM229.811 2.65696L222.198 -0.265722L220.406 4.40217L228.019 7.32485L229.811 2.65696ZM237.712 19.015C239.812 12.3315 236.351 5.16757 229.811 2.65696L228.019 7.32485C232.094 8.88904 234.25 13.3524 232.942 17.5165L237.712 19.015ZM237.023 21.2077L237.712 19.015L232.942 17.5165L232.253 19.7091L237.023 21.2077ZM219.984 27.5084C226.357 31.4868 234.771 28.3755 237.023 21.2077L232.253 19.7091C230.981 23.7565 226.23 25.5134 222.632 23.2669L219.984 27.5084ZM217.197 25.7687L219.984 27.5084L222.632 23.2669L219.844 21.5272L217.197 25.7687ZM211.7 27.5941C212.556 25.3978 215.197 24.5205 217.197 25.7687L219.844 21.5272C215.187 18.62 209.034 20.6633 207.041 25.779L211.7 27.5941ZM195.733 28.3994C199.173 35.1331 208.955 34.6398 211.7 27.5941L207.041 25.779C205.862 28.804 201.663 29.0158 200.186 26.1247L195.733 28.3994ZM193.218 23.4766L195.733 28.3994L200.186 26.1247L197.671 21.202L193.218 23.4766ZM183.308 21.8394C186.321 18.9118 191.307 19.7356 193.218 23.4766L197.671 21.202C194.229 14.4647 185.25 12.9812 179.824 18.2535L183.308 21.8394ZM179.466 25.5731L183.308 21.8394L179.824 18.2535L175.981 21.9872L179.466 25.5731ZM176.571 30.896C176.974 28.8694 177.984 27.0132 179.466 25.5731L175.981 21.9872C173.773 24.1332 172.268 26.8995 171.667 29.9196L176.571 30.896ZM171.796 54.875L176.571 30.896L171.667 29.9196L166.892 53.8986L171.796 54.875ZM178.38 79.5405C172.477 72.7858 170.044 63.673 171.796 54.875L166.892 53.8986C164.837 64.2186 167.691 74.9077 174.615 82.8308L178.38 79.5405ZM189.773 87.4996C185.385 85.8126 181.474 83.0806 178.38 79.5405L174.615 82.8308C178.244 86.9833 182.832 90.1879 187.979 92.1666L189.773 87.4996ZM199.498 91.2378L189.773 87.4996L187.979 92.1666L197.704 95.9049L199.498 91.2378ZM205.562 87.5254C205.253 90.4554 202.248 92.2949 199.498 91.2378L197.704 95.9049C203.523 98.1417 209.88 94.2495 210.534 88.0496L205.562 87.5254ZM207.077 73.1508L205.562 87.5254L210.534 88.0496L212.05 73.6751L207.077 73.1508ZM208.026 69.5885C207.527 70.7195 207.207 71.9213 207.077 73.1508L212.05 73.6751C212.125 72.9616 212.311 72.2641 212.6 71.6078L208.026 69.5885ZM213.805 56.4998L208.026 69.5885L212.6 71.6078L218.379 58.5191L213.805 56.4998ZM225.533 56.9937C223.667 51.5729 216.12 51.255 213.805 56.4998L218.379 58.5191C218.858 57.434 220.419 57.4998 220.805 58.6213L225.533 56.9937ZM227.783 57.3858C227.14 58.1864 225.867 57.9646 225.533 56.9937L220.805 58.6213C222.421 63.3141 228.574 64.3863 231.682 60.5165L227.783 57.3858ZM230.557 53.9311L227.783 57.3858L231.682 60.5165L234.456 57.0618L230.557 53.9311ZM245.433 55.9943C242.85 49.9021 234.7 48.7717 230.557 53.9311L234.456 57.0618C236.231 54.8512 239.723 55.3355 240.829 57.9458L245.433 55.9943ZM246.3 58.0387L245.433 55.9943L240.829 57.9458L241.696 59.9902L246.3 58.0387ZM237.023 72.0467C244.239 72.0467 249.116 64.6827 246.3 58.0387L241.696 59.9902C243.115 63.3371 240.658 67.0467 237.023 67.0467V72.0467ZM232.649 72.0467H237.023V67.0467H232.649V72.0467ZM224.763 78.8516C225.342 74.9421 228.697 72.0467 232.649 72.0467V67.0467C226.218 67.0467 220.758 71.7581 219.817 78.1195L224.763 78.8516ZM221.647 99.9014L224.763 78.8516L219.817 78.1195L216.701 99.1693L221.647 99.9014ZM221.62 101.351C221.568 100.874 221.575 100.387 221.647 99.9014L216.701 99.1694C216.566 100.082 216.551 100.998 216.65 101.896L221.62 101.351ZM221.18 103.205C221.18 103.145 221.188 103.099 221.198 103.065C221.209 103.03 221.223 102.998 221.242 102.969L217.028 100.278C216.491 101.12 216.18 102.122 216.18 103.205H221.18ZM221.19 103.299C221.183 103.268 221.18 103.237 221.18 103.205H216.18C216.18 103.591 216.221 103.975 216.302 104.353L221.19 103.299ZM225.604 123.779L221.19 103.299L216.302 104.352L220.716 124.833L225.604 123.779ZM230.14 166.357C230.14 152.044 228.619 137.771 225.604 123.779L220.716 124.833C223.657 138.478 225.14 152.398 225.14 166.357H230.14ZM230.14 195.349V166.357H225.14V195.349H230.14ZM227.156 234.033L230.133 195.542L225.147 195.157L222.171 233.648L227.156 234.033ZM211.985 317.695C219.597 290.341 224.675 262.344 227.154 234.059L222.173 233.622C219.721 261.601 214.698 289.296 207.168 316.354L211.985 317.695ZM211.578 319.157L211.985 317.695L207.168 316.354L206.761 317.816L211.578 319.157ZM197.742 352.345L211.477 319.45L206.863 317.523L193.128 350.418L197.742 352.345ZM176.728 396.783L197.695 352.45L193.175 350.313L172.208 394.645L176.728 396.783ZM143.508 462.754L176.7 396.839L172.235 394.59L139.042 460.505L143.508 462.754ZM121.398 510.806L143.546 462.675L139.004 460.584L116.855 508.716L121.398 510.806ZM101.267 612.339C104.3 577.762 111.088 543.619 121.511 510.511L116.742 509.01C106.21 542.463 99.3512 576.964 96.2862 611.902L101.267 612.339ZM100.755 618.178L101.267 612.339L96.2862 611.902L95.7739 617.741L100.755 618.178ZM109.528 735.832C102.473 696.985 99.5357 657.501 100.763 618.038L95.7655 617.882C94.5272 657.697 97.4911 697.532 104.608 736.725L109.528 735.832ZM110.824 742.97L109.528 735.832L104.608 736.725L105.904 743.863L110.824 742.97ZM122.396 795.732L110.806 742.881L105.922 743.952L117.512 796.803L122.396 795.732ZM145.16 857.057L122.298 795.398L117.61 797.136L140.472 858.795L145.16 857.057ZM199.107 975.78C177.418 938.018 159.362 898.284 145.18 857.112L140.452 858.74C154.738 900.212 172.925 940.234 194.771 978.27L199.107 975.78ZM200.199 977.681L199.107 975.78L194.771 978.27L195.863 980.172L200.199 977.681ZM225.746 1035.87L200.32 977.922L195.741 979.931L221.167 1037.88L225.746 1035.87ZM249.07 1092.1L225.765 1035.92L221.147 1037.83L244.452 1094.02L249.07 1092.1ZM262.571 1150.03C261.375 1130.09 256.809 1110.5 249.065 1092.09L244.456 1094.03C251.981 1111.92 256.418 1130.96 257.58 1150.33L262.571 1150.03ZM263.63 1167.68L262.571 1150.03L257.58 1150.33L258.639 1167.98L263.63 1167.68ZM264.296 1185.09L263.633 1167.73L258.636 1167.92L259.3 1185.28L264.296 1185.09ZM261.193 1184.67C261.738 1182.97 264.228 1183.32 264.296 1185.09L259.3 1185.28C259.446 1189.09 264.785 1189.83 265.953 1186.2L261.193 1184.67ZM261.122 1185.02C261.132 1184.9 261.156 1184.78 261.193 1184.67L265.953 1186.2C266.032 1185.95 266.083 1185.7 266.105 1185.44L261.122 1185.02ZM262.613 1167.11L261.122 1185.02L266.105 1185.44L267.596 1167.53L262.613 1167.11ZM262.106 1149.38L262.606 1167.39L267.604 1167.25L267.104 1149.24L262.106 1149.38ZM260.97 1119.18L262.106 1149.41L267.103 1149.22L265.966 1119L260.97 1119.18ZM245.705 1063.32C253.012 1081.36 258.145 1100.2 260.995 1119.46L265.941 1118.72C263.033 1099.08 257.796 1079.85 250.339 1061.44L245.705 1063.32ZM232.953 1031.84L245.705 1063.32L250.339 1061.44L237.588 1029.96L232.953 1031.84ZM205.029 965.69L232.967 1031.87L237.574 1029.93L209.636 963.745L205.029 965.69ZM176.638 906.921L205.081 965.805L209.583 963.63L181.14 904.746L176.638 906.921ZM155.457 848.528L176.539 906.686L181.239 904.982L160.158 846.825L155.457 848.528ZM136.532 791.028L155.433 848.458L160.182 846.895L141.281 789.465L136.532 791.028ZM122.841 732.664L136.473 790.817L141.341 789.676L127.709 731.523L122.841 732.664ZM115.344 672.793L122.795 732.404L127.756 731.783L120.306 672.173L115.344 672.793ZM115.325 617.96V672.483H120.325V617.96H115.325ZM118.071 591.259L115.338 617.703L120.312 618.217L123.045 591.772L118.071 591.259ZM128.952 536.188C123.641 554.172 119.999 572.606 118.071 591.259L123.045 591.772C124.94 573.426 128.523 555.293 133.747 537.604L128.952 536.188ZM144.725 494.342C138.451 507.886 133.179 521.872 128.952 536.188L133.747 537.604C137.905 523.523 143.091 509.766 149.262 496.443L144.725 494.342ZM155.733 470.579L144.725 494.342L149.262 496.443L160.27 472.68L155.733 470.579ZM175.763 427.288L155.732 470.58L160.27 472.679L180.301 429.388L175.763 427.288ZM194.216 390.701L175.8 427.212L180.264 429.464L198.68 392.953L194.216 390.701ZM212.955 353.547L194.216 390.701L198.68 392.953L217.419 355.799L212.955 353.547ZM239.32 279.389C232.652 304.847 223.817 329.687 212.912 353.637L217.462 355.709C228.486 331.499 237.417 306.39 244.156 280.656L239.32 279.389ZM239.907 277.146L239.32 279.389L244.156 280.656L244.744 278.413L239.907 277.146ZM245.988 233.494L239.85 277.434L244.802 278.126L250.94 234.186L245.988 233.494ZM245.964 193.78V233.84H250.964V193.78H245.964ZM246.41 143.356L245.964 193.758L250.964 193.802L251.41 143.4L246.41 143.356ZM245.337 101.864L246.411 143.443L251.409 143.314L250.335 101.735L245.337 101.864ZM245.382 101.197C245.346 101.418 245.331 101.641 245.337 101.865L250.335 101.735C250.337 101.826 250.331 101.918 250.316 102.009L245.382 101.197ZM245.544 102.123C245.382 101.823 245.334 101.489 245.382 101.198L250.316 102.009C250.447 101.215 250.311 100.431 249.948 99.7563L245.544 102.123ZM266.056 76.4211C256.942 81.9763 249.758 90.1849 245.459 99.9308L250.033 101.949C253.921 93.1365 260.417 85.7138 268.658 80.6906L266.056 76.4211Z" fill="black"/>
<path d="M322.673 43.7656H326.243L334.153 64.0656L342.063 43.7656L345.633 43.7656V68.2656H342.273V51.6756L335.903 68.2656H332.403L326.033 51.6756V68.2656H322.673V43.7656ZM365.509 68.6156C363.246 68.6156 361.181 68.0906 359.314 67.0406C357.471 65.9673 356.012 64.474 354.939 62.5606C353.866 60.6473 353.329 58.4656 353.329 56.0156C353.329 53.5656 353.866 51.384 354.939 49.4706C356.012 47.5573 357.471 46.0756 359.314 45.0256C361.181 43.9523 363.246 43.4156 365.509 43.4156C367.772 43.4156 369.826 43.9523 371.669 45.0256C373.536 46.0756 375.006 47.5573 376.079 49.4706C377.152 51.384 377.689 53.5656 377.689 56.0156C377.689 58.4656 377.152 60.6473 376.079 62.5606C375.006 64.474 373.536 65.9673 371.669 67.0406C369.826 68.0906 367.772 68.6156 365.509 68.6156ZM365.509 65.5356C367.259 65.5356 368.799 65.139 370.129 64.3456C371.459 63.529 372.474 62.409 373.174 60.9856C373.897 59.539 374.259 57.8823 374.259 56.0156C374.259 54.149 373.897 52.504 373.174 51.0806C372.474 49.634 371.459 48.514 370.129 47.7206C368.799 46.904 367.259 46.4956 365.509 46.4956C363.759 46.4956 362.219 46.904 360.889 47.7206C359.559 48.514 358.532 49.634 357.809 51.0806C357.109 52.504 356.759 54.149 356.759 56.0156C356.759 57.8823 357.109 59.539 357.809 60.9856C358.532 62.409 359.559 63.529 360.889 64.3456C362.219 65.139 363.759 65.5356 365.509 65.5356ZM393.191 68.6156C391.277 68.6156 389.656 68.2306 388.326 67.4606C386.996 66.6906 385.981 65.6523 385.281 64.3456C384.604 63.0156 384.219 61.534 384.126 59.9006H387.381C387.497 61.5806 388.057 62.9456 389.061 63.9956C390.064 65.0223 391.441 65.5356 393.191 65.5356C394.894 65.5356 396.177 65.1156 397.041 64.2756C397.904 63.4123 398.336 62.2923 398.336 60.9156C398.336 59.4923 397.846 58.3956 396.866 57.6256C395.886 56.8556 394.602 56.4706 393.016 56.4706H391.861V53.3906H393.016C395.792 53.3906 397.181 52.2123 397.181 49.8556C397.181 48.829 396.819 48.0123 396.096 47.4056C395.372 46.799 394.427 46.4956 393.261 46.4956C391.791 46.4956 390.612 46.904 389.726 47.7206C388.839 48.5373 388.349 49.564 388.256 50.8006H385.071C385.187 49.4473 385.572 48.2106 386.226 47.0906C386.902 45.9706 387.847 45.084 389.061 44.4306C390.274 43.754 391.697 43.4156 393.331 43.4156C394.474 43.4156 395.582 43.649 396.656 44.1156C397.752 44.559 398.651 45.259 399.351 46.2156C400.074 47.1723 400.436 48.3856 400.436 49.8556C400.436 51.0923 400.144 52.1073 399.561 52.9006C399.001 53.694 398.277 54.289 397.391 54.6856C398.884 55.129 399.981 55.9223 400.681 57.0656C401.404 58.209 401.766 59.4923 401.766 60.9156C401.766 62.2456 401.404 63.5056 400.681 64.6956C399.957 65.8856 398.942 66.8423 397.636 67.5656C396.352 68.2656 394.871 68.6156 393.191 68.6156ZM409.462 43.7656H423.742V46.8456H412.822V68.2656H409.462V43.7656Z" fill="black"/>
<path d="M53.4258 103.504L415.569 103.504" stroke="black" stroke-width="4" stroke-linecap="round" stroke-dasharray="0.1 8"/>
<path d="M322.673 43.7656H326.243L334.153 64.0656L342.063 43.7656L345.633 43.7656V68.2656H342.273V51.6756L335.903 68.2656H332.403L326.033 51.6756V68.2656H322.673V43.7656ZM365.509 68.6156C363.246 68.6156 361.181 68.0906 359.314 67.0406C357.471 65.9673 356.012 64.474 354.939 62.5606C353.866 60.6473 353.329 58.4656 353.329 56.0156C353.329 53.5656 353.866 51.384 354.939 49.4706C356.012 47.5573 357.471 46.0756 359.314 45.0256C361.181 43.9523 363.246 43.4156 365.509 43.4156C367.772 43.4156 369.826 43.9523 371.669 45.0256C373.536 46.0756 375.006 47.5573 376.079 49.4706C377.152 51.384 377.689 53.5656 377.689 56.0156C377.689 58.4656 377.152 60.6473 376.079 62.5606C375.006 64.474 373.536 65.9673 371.669 67.0406C369.826 68.0906 367.772 68.6156 365.509 68.6156ZM365.509 65.5356C367.259 65.5356 368.799 65.139 370.129 64.3456C371.459 63.529 372.474 62.409 373.174 60.9856C373.897 59.539 374.259 57.8823 374.259 56.0156C374.259 54.149 373.897 52.504 373.174 51.0806C372.474 49.634 371.459 48.514 370.129 47.7206C368.799 46.904 367.259 46.4956 365.509 46.4956C363.759 46.4956 362.219 46.904 360.889 47.7206C359.559 48.514 358.532 49.634 357.809 51.0806C357.109 52.504 356.759 54.149 356.759 56.0156C356.759 57.8823 357.109 59.539 357.809 60.9856C358.532 62.409 359.559 63.529 360.889 64.3456C362.219 65.139 363.759 65.5356 365.509 65.5356ZM393.191 68.6156C391.277 68.6156 389.656 68.2306 388.326 67.4606C386.996 66.6906 385.981 65.6523 385.281 64.3456C384.604 63.0156 384.219 61.534 384.126 59.9006H387.381C387.497 61.5806 388.057 62.9456 389.061 63.9956C390.064 65.0223 391.441 65.5356 393.191 65.5356C394.894 65.5356 396.177 65.1156 397.041 64.2756C397.904 63.4123 398.336 62.2923 398.336 60.9156C398.336 59.4923 397.846 58.3956 396.866 57.6256C395.886 56.8556 394.602 56.4706 393.016 56.4706H391.861V53.3906H393.016C395.792 53.3906 397.181 52.2123 397.181 49.8556C397.181 48.829 396.819 48.0123 396.096 47.4056C395.372 46.799 394.427 46.4956 393.261 46.4956C391.791 46.4956 390.612 46.904 389.726 47.7206C388.839 48.5373 388.349 49.564 388.256 50.8006H385.071C385.187 49.4473 385.572 48.2106 386.226 47.0906C386.902 45.9706 387.847 45.084 389.061 44.4306C390.274 43.754 391.697 43.4156 393.331 43.4156C394.474 43.4156 395.582 43.649 396.656 44.1156C397.752 44.559 398.651 45.259 399.351 46.2156C400.074 47.1723 400.436 48.3856 400.436 49.8556C400.436 51.0923 400.144 52.1073 399.561 52.9006C399.001 53.694 398.277 54.289 397.391 54.6856C398.884 55.129 399.981 55.9223 400.681 57.0656C401.404 58.209 401.766 59.4923 401.766 60.9156C401.766 62.2456 401.404 63.5056 400.681 64.6956C399.957 65.8856 398.942 66.8423 397.636 67.5656C396.352 68.2656 394.871 68.6156 393.191 68.6156ZM409.462 43.7656H423.742V46.8456H412.822V68.2656H409.462V43.7656Z" fill="black"/>
<path d="M53.4258 103.504L415.569 103.504" stroke="black" stroke-width="4" stroke-linecap="round" stroke-dasharray="0.1 8"/>
</g>
<defs>
<clipPath id="clip0_427_7881">
<rect width="469" height="1685" fill="white"/>
</clipPath>
</defs>
</svg>
