<svg width="469" height="821" viewBox="0 0 469 821" fill="none" xmlns="http://www.w3.org/2000/svg">
<g clip-path="url(#clip0_478_995)">
<path d="M70.8448 286.881C68.9315 286.881 67.3098 286.496 65.9798 285.726C64.6498 284.956 63.6348 283.918 62.9348 282.611C62.2582 281.281 61.8732 279.8 61.7798 278.166H65.0348C65.1515 279.846 65.7115 281.211 66.7148 282.261C67.7182 283.288 69.0948 283.801 70.8448 283.801C72.5482 283.801 73.8315 283.381 74.6948 282.541C75.5582 281.678 75.9898 280.558 75.9898 279.181C75.9898 277.758 75.4998 276.661 74.5198 275.891C73.5398 275.121 72.2565 274.736 70.6698 274.736H69.5148V271.656H70.6698C73.4465 271.656 74.8348 270.478 74.8348 268.121C74.8348 267.095 74.4732 266.278 73.7498 265.671C73.0265 265.065 72.0815 264.761 70.9148 264.761C69.4448 264.761 68.2665 265.17 67.3798 265.986C66.4932 266.803 66.0032 267.83 65.9098 269.066H62.7248C62.8415 267.713 63.2265 266.476 63.8798 265.356C64.5565 264.236 65.5015 263.35 66.7148 262.696C67.9282 262.02 69.3515 261.681 70.9848 261.681C72.1282 261.681 73.2365 261.915 74.3098 262.381C75.4065 262.825 76.3048 263.525 77.0048 264.481C77.7282 265.438 78.0898 266.651 78.0898 268.121C78.0898 269.358 77.7982 270.373 77.2148 271.166C76.6548 271.96 75.9315 272.555 75.0448 272.951C76.5382 273.395 77.6348 274.188 78.3348 275.331C79.0582 276.475 79.4198 277.758 79.4198 279.181C79.4198 280.511 79.0582 281.771 78.3348 282.961C77.6115 284.151 76.5965 285.108 75.2898 285.831C74.0065 286.531 72.5248 286.881 70.8448 286.881ZM85.8691 283.451H88.6691C89.2991 280.278 89.6841 277.105 89.8241 273.931C89.9875 270.758 90.0691 266.791 90.0691 262.031H106.694V283.451H109.494V290.731H106.134V286.531H89.2291V290.731H85.8691L85.8691 283.451ZM103.334 283.451V265.111H93.2891C93.2891 272.461 92.8458 278.575 91.9591 283.451H103.334ZM128.004 286.881C125.741 286.881 123.676 286.356 121.809 285.306C119.966 284.233 118.508 282.74 117.434 280.826C116.361 278.913 115.824 276.731 115.824 274.281C115.824 271.831 116.361 269.65 117.434 267.736C118.508 265.823 119.966 264.341 121.809 263.291C123.676 262.218 125.741 261.681 128.004 261.681C130.268 261.681 132.321 262.218 134.164 263.291C136.031 264.341 137.501 265.823 138.574 267.736C139.648 269.65 140.184 271.831 140.184 274.281C140.184 276.731 139.648 278.913 138.574 280.826C137.501 282.74 136.031 284.233 134.164 285.306C132.321 286.356 130.268 286.881 128.004 286.881ZM128.004 283.801C129.754 283.801 131.294 283.405 132.624 282.611C133.954 281.795 134.969 280.675 135.669 279.251C136.393 277.805 136.754 276.148 136.754 274.281C136.754 272.415 136.393 270.77 135.669 269.346C134.969 267.9 133.954 266.78 132.624 265.986C131.294 265.17 129.754 264.761 128.004 264.761C126.254 264.761 124.714 265.17 123.384 265.986C122.054 266.78 121.028 267.9 120.304 269.346C119.604 270.77 119.254 272.415 119.254 274.281C119.254 276.148 119.604 277.805 120.304 279.251C121.028 280.675 122.054 281.795 123.384 282.611C124.714 283.405 126.254 283.801 128.004 283.801ZM147.881 262.031H156.281C159.034 262.031 161.227 262.755 162.861 264.201C164.517 265.625 165.346 267.573 165.346 270.046C165.346 272.52 164.517 274.48 162.861 275.926C161.227 277.35 159.034 278.061 156.281 278.061H151.241V286.531H147.881V262.031ZM156.351 274.981C160.107 274.981 161.986 273.336 161.986 270.046C161.986 266.756 160.107 265.111 156.351 265.111H151.241V274.981H156.351ZM183.915 286.881C181.652 286.881 179.587 286.356 177.72 285.306C175.877 284.233 174.419 282.74 173.345 280.826C172.272 278.913 171.735 276.731 171.735 274.281C171.735 271.831 172.272 269.65 173.345 267.736C174.419 265.823 175.877 264.341 177.72 263.291C179.587 262.218 181.652 261.681 183.915 261.681C186.179 261.681 188.232 262.218 190.075 263.291C191.942 264.341 193.412 265.823 194.485 267.736C195.559 269.65 196.095 271.831 196.095 274.281C196.095 276.731 195.559 278.913 194.485 280.826C193.412 282.74 191.942 284.233 190.075 285.306C188.232 286.356 186.179 286.881 183.915 286.881ZM183.915 283.801C185.665 283.801 187.205 283.405 188.535 282.611C189.865 281.795 190.88 280.675 191.58 279.251C192.304 277.805 192.665 276.148 192.665 274.281C192.665 272.415 192.304 270.77 191.58 269.346C190.88 267.9 189.865 266.78 188.535 265.986C187.205 265.17 185.665 264.761 183.915 264.761C182.165 264.761 180.625 265.17 179.295 265.986C177.965 266.78 176.939 267.9 176.215 269.346C175.515 270.77 175.165 272.415 175.165 274.281C175.165 276.148 175.515 277.805 176.215 279.251C176.939 280.675 177.965 281.795 179.295 282.611C180.625 283.405 182.165 283.801 183.915 283.801ZM203.792 262.031H212.892C214.455 262.031 215.808 262.3 216.952 262.836C218.118 263.373 219.005 264.108 219.612 265.041C220.242 265.975 220.557 267.025 220.557 268.191C220.557 270.478 219.495 272.216 217.372 273.406C218.608 273.756 219.682 274.468 220.592 275.541C221.502 276.615 221.957 277.91 221.957 279.426C221.957 281.596 221.187 283.323 219.647 284.606C218.13 285.89 216.065 286.531 213.452 286.531H203.792V262.031ZM213.207 272.391C215.983 272.391 217.372 271.178 217.372 268.751C217.372 266.325 215.983 265.111 213.207 265.111H207.152V272.391H213.207ZM214.362 283.451C215.738 283.451 216.812 283.113 217.582 282.436C218.375 281.736 218.772 280.745 218.772 279.461C218.772 278.178 218.375 277.198 217.582 276.521C216.812 275.821 215.738 275.471 214.362 275.471H207.152V283.451H214.362ZM232.527 262.031V270.501H237.567C240.32 270.501 242.513 271.225 244.147 272.671C245.803 274.095 246.632 276.043 246.632 278.516C246.632 280.99 245.803 282.95 244.147 284.396C242.513 285.82 240.32 286.531 237.567 286.531H229.167V262.031H232.527ZM250.832 262.031H254.192V286.531H250.832V262.031ZM232.527 283.451H237.637C241.393 283.451 243.272 281.806 243.272 278.516C243.272 275.226 241.393 273.581 237.637 273.581H232.527V283.451ZM262.608 262.031H277.273V265.111H265.968V272.741H276.328V275.821H265.968V283.451H277.658V286.531H262.608V262.031ZM63.0398 297.031H66.3998V307.461L75.7448 297.031H79.6998L69.3398 308.581L80.1898 321.531H75.8498L66.3998 310.261V321.531H63.0398L63.0398 297.031ZM88.1977 321.881C87.7544 321.881 87.3227 321.823 86.9027 321.706C86.5061 321.59 86.1794 321.438 85.9227 321.251V318.276C86.1794 318.416 86.4711 318.533 86.7977 318.626C87.1244 318.72 87.4277 318.766 87.7077 318.766C88.3844 318.766 88.8977 318.451 89.2477 317.821C89.5977 317.191 89.8311 316.398 89.9477 315.441C90.0877 314.485 90.1927 313.201 90.2627 311.591L90.9277 297.031H107.658L107.658 321.531H104.298L104.298 300.111H94.0427L93.3077 313.831C93.1911 316.001 92.7944 317.891 92.1177 319.501C91.4644 321.088 90.1577 321.881 88.1977 321.881ZM116.046 297.031H130.711V300.111H119.406V307.741H129.766V310.821H119.406L119.406 318.451H131.096V321.531H116.046L116.046 297.031ZM144.034 300.111H137.804V297.031H153.624V300.111H147.394V321.531H144.034V300.111ZM160.848 297.031H164.208V307.461L173.553 297.031H177.508L167.148 308.581L177.998 321.531H173.658L164.208 310.261V321.531H160.848V297.031ZM185.061 297.031H188.421V316.456L199.691 297.031H203.471L203.471 321.531H200.111V302.106L188.841 321.531H185.061V297.031Z" fill="black"/>
<path d="M208.662 510.329L221.055 497.546C223.808 494.707 228.364 494.71 231.113 497.553L243.466 510.33C244.728 511.635 245.434 513.38 245.434 515.196V539.357C245.434 541.173 244.728 542.919 243.465 544.224L231.112 556.995C228.363 559.836 223.809 559.839 221.056 557.002L208.663 544.225C207.396 542.919 206.688 541.171 206.688 539.352V515.201C206.688 513.382 207.396 511.635 208.662 510.329Z" fill="#F8D0A3" stroke="black" stroke-width="5.17"/>
<path d="M228.662 554.766L241.055 541.984C243.808 539.145 248.364 539.148 251.113 541.991L263.466 554.768C264.728 556.073 265.434 557.817 265.434 559.633V583.795C265.434 585.611 264.728 587.356 263.465 588.662L251.112 601.432C248.363 604.274 243.809 604.277 241.056 601.439L228.663 588.663C227.396 587.357 226.688 585.609 226.688 583.789V559.639C226.688 557.82 227.396 556.072 228.662 554.766Z" fill="#F8D0A3" stroke="black" stroke-width="5.17"/>
<path d="M267.412 554.766L279.805 541.984C282.558 539.145 287.114 539.148 289.863 541.991L302.216 554.768C303.478 556.073 304.184 557.817 304.184 559.633V583.795C304.184 585.611 303.478 587.356 302.215 588.662L289.862 601.432C287.113 604.274 282.559 604.277 279.806 601.439L267.413 588.663C266.146 587.357 265.438 585.609 265.438 583.789V559.639C265.438 557.82 266.146 556.072 267.412 554.766Z" fill="#F8D0A3" stroke="black" stroke-width="5.17"/>
<path d="M286.154 510.329L298.547 497.546C301.3 494.707 305.856 494.71 308.605 497.553L320.958 510.33C322.22 511.635 322.926 513.38 322.926 515.196V539.357C322.926 541.173 322.22 542.919 320.957 544.224L308.604 556.995C305.855 559.836 301.301 559.839 298.548 557.002L286.155 544.225C284.888 542.919 284.18 541.171 284.18 539.352V515.201C284.18 513.382 284.888 511.635 286.154 510.329Z" fill="#F8D0A3" stroke="black" stroke-width="5.17"/>
<path d="M306.154 461.821L318.547 449.038C321.3 446.199 325.856 446.202 328.605 449.045L340.958 461.822C342.22 463.128 342.926 464.872 342.926 466.688V490.849C342.926 492.666 342.22 494.411 340.957 495.716L328.604 508.487C325.855 511.328 321.301 511.332 318.548 508.494L306.155 495.718C304.888 494.411 304.18 492.663 304.18 490.844V466.693C304.18 464.874 304.888 463.127 306.154 461.821Z" fill="#F8D0A3" stroke="black" stroke-width="5.17"/>
<path d="M324.904 417.383L337.297 404.601C340.05 401.762 344.606 401.765 347.355 404.608L359.708 417.385C360.97 418.69 361.676 420.435 361.676 422.25V446.412C361.676 448.228 360.97 449.973 359.707 451.279L347.354 464.049C344.605 466.891 340.051 466.894 337.298 464.056L324.905 451.28C323.638 449.974 322.93 448.226 322.93 446.406V422.256C322.93 420.437 323.638 418.689 324.904 417.383Z" fill="#F8D0A3" stroke="black" stroke-width="5.17"/>
<path d="M189.295 461.821L201.688 449.038C204.44 446.199 208.997 446.202 211.746 449.045L224.099 461.822C225.361 463.128 226.066 464.872 226.066 466.688V490.849C226.066 492.666 225.36 494.411 224.098 495.716L211.745 508.487C208.996 511.328 204.441 511.332 201.689 508.494L189.296 495.718C188.029 494.411 187.32 492.663 187.32 490.844V466.693C187.32 464.874 188.028 463.127 189.295 461.821Z" fill="#F8D0A3" stroke="black" stroke-width="5.17"/>
<path d="M189.295 554.766L201.688 541.984C204.44 539.145 208.997 539.148 211.746 541.991L224.099 554.768C225.361 556.073 226.066 557.817 226.066 559.633V583.795C226.066 585.611 225.36 587.356 224.098 588.662L211.745 601.432C208.996 604.274 204.441 604.277 201.689 601.439L189.296 588.663C188.029 587.357 187.32 585.609 187.32 583.789V559.639C187.32 557.82 188.028 556.072 189.295 554.766Z" fill="#F8D0A3" stroke="black" stroke-width="5.17"/>
<path d="M152.595 554.766L164.988 541.984C167.741 539.145 172.298 539.148 175.047 541.991L187.4 554.768C188.662 556.073 189.367 557.817 189.367 559.633V583.795C189.367 585.611 188.661 587.356 187.399 588.662L175.045 601.432C172.297 604.274 167.742 604.277 164.99 601.439L152.597 588.663C151.33 587.357 150.621 585.609 150.621 583.789V559.639C150.621 557.82 151.329 556.072 152.595 554.766Z" fill="#F8D0A3" stroke="black" stroke-width="5.17"/>
<path d="M208.662 601.969L221.055 589.187C223.808 586.348 228.364 586.351 231.113 589.194L243.466 601.971C244.728 603.276 245.434 605.021 245.434 606.836V630.998C245.434 632.814 244.728 634.559 243.465 635.865L231.112 648.635C228.363 651.477 223.809 651.48 221.056 648.642L208.663 635.866C207.396 634.56 206.688 632.812 206.688 630.992V606.842C206.688 605.023 207.396 603.275 208.662 601.969Z" fill="#F8D0A3" stroke="black" stroke-width="5.17"/>
<path d="M171.966 601.969L184.36 589.187C187.112 586.348 191.669 586.351 194.418 589.194L206.771 601.971C208.033 603.276 208.738 605.021 208.738 606.836V630.998C208.738 632.814 208.032 634.559 206.77 635.865L194.417 648.635C191.668 651.477 187.113 651.48 184.361 648.642L171.968 635.866C170.701 634.56 169.992 632.812 169.992 630.992V606.842C169.992 605.023 170.7 603.275 171.966 601.969Z" fill="#F8D0A3" stroke="black" stroke-width="5.17"/>
<path d="M228.662 646.407L241.055 633.624C243.808 630.785 248.364 630.788 251.113 633.631L263.466 646.408C264.728 647.713 265.434 649.458 265.434 651.274V675.435C265.434 677.252 264.728 678.997 263.465 680.302L251.112 693.073C248.363 695.914 243.809 695.917 241.056 693.08L228.663 680.304C227.396 678.997 226.688 677.249 226.688 675.43V651.279C226.688 649.46 227.396 647.713 228.662 646.407Z" fill="#F8D0A3" stroke="black" stroke-width="5.17"/>
<path d="M247.412 601.969L259.805 589.187C262.558 586.348 267.114 586.351 269.863 589.194L282.216 601.971C283.478 603.276 284.184 605.021 284.184 606.836V630.998C284.184 632.814 283.478 634.559 282.215 635.865L269.862 648.635C267.113 651.477 262.559 651.48 259.806 648.642L247.413 635.866C246.146 634.56 245.438 632.812 245.438 630.992V606.842C245.438 605.023 246.146 603.275 247.412 601.969Z" fill="#F8D0A3" stroke="black" stroke-width="5.17"/>
<path d="M247.412 694.915L259.805 682.132C262.558 679.293 267.114 679.296 269.863 682.139L282.216 694.916C283.478 696.221 284.184 697.966 284.184 699.782V723.943C284.184 725.759 283.478 727.505 282.215 728.81L269.862 741.581C267.113 744.422 262.559 744.425 259.806 741.588L247.413 728.811C246.146 727.505 245.438 725.757 245.438 723.938V699.787C245.438 697.968 246.146 696.221 247.412 694.915Z" fill="#F8D0A3" stroke="black" stroke-width="5.17"/>
<path d="M267.412 646.407L279.805 633.624C282.558 630.785 287.114 630.788 289.863 633.631L302.216 646.408C303.478 647.713 304.184 649.458 304.184 651.274V675.435C304.184 677.252 303.478 678.997 302.215 680.302L289.862 693.073C287.113 695.914 282.559 695.917 279.806 693.08L267.413 680.304C266.146 678.997 265.438 677.249 265.438 675.43V651.279C265.438 649.46 266.146 647.713 267.412 646.407Z" fill="#F8D0A3" stroke="black" stroke-width="5.17"/>
<path d="M267.412 739.352L279.805 726.57C282.558 723.73 287.114 723.734 289.863 726.577L302.216 739.353C303.478 740.659 304.184 742.403 304.184 744.219V768.381C304.184 770.197 303.478 771.942 302.215 773.247L289.862 786.018C287.113 788.86 282.559 788.863 279.806 786.025L267.413 773.249C266.146 771.943 265.438 770.195 265.438 768.375V744.225C265.438 742.406 266.146 740.658 267.412 739.352Z" fill="#F8D0A3" stroke="black" stroke-width="5.17"/>
<path d="M286.154 601.969L298.547 589.187C301.3 586.348 305.856 586.351 308.605 589.194L320.958 601.971C322.22 603.276 322.926 605.021 322.926 606.836V630.998C322.926 632.814 322.22 634.559 320.957 635.865L308.604 648.635C305.855 651.477 301.301 651.48 298.548 648.642L286.155 635.866C284.888 634.56 284.18 632.812 284.18 630.992V606.842C284.18 605.023 284.888 603.275 286.154 601.969Z" fill="#F8D0A3" stroke="black" stroke-width="5.17"/>
<path d="M286.154 694.915L298.547 682.132C301.3 679.293 305.856 679.296 308.605 682.139L320.958 694.916C322.22 696.221 322.926 697.966 322.926 699.782V723.943C322.926 725.759 322.22 727.505 320.957 728.81L308.604 741.581C305.855 744.422 301.301 744.425 298.548 741.588L286.155 728.811C284.888 727.505 284.18 725.757 284.18 723.938V699.787C284.18 697.968 284.888 696.221 286.154 694.915Z" fill="#F8D0A3" stroke="black" stroke-width="5.17"/>
<path d="M306.154 646.407L318.547 633.624C321.3 630.785 325.856 630.788 328.605 633.631L340.958 646.408C342.22 647.713 342.926 649.458 342.926 651.274V675.435C342.926 677.252 342.22 678.997 340.957 680.302L328.604 693.073C325.855 695.914 321.301 695.917 318.548 693.08L306.155 680.304C304.888 678.997 304.18 677.249 304.18 675.43V651.279C304.18 649.46 304.888 647.713 306.154 646.407Z" fill="#F8D0A3" stroke="black" stroke-width="5.17"/>
<path d="M324.904 601.969L337.297 589.187C340.05 586.348 344.606 586.351 347.355 589.194L359.708 601.971C360.97 603.276 361.676 605.021 361.676 606.836V630.998C361.676 632.814 360.97 634.559 359.707 635.865L347.354 648.635C344.605 651.477 340.051 651.48 337.298 648.642L324.905 635.866C323.638 634.56 322.93 632.812 322.93 630.992V606.842C322.93 605.023 323.638 603.275 324.904 601.969Z" fill="#F8D0A3" stroke="black" stroke-width="5.17"/>
<path d="M208.666 49.4967L221.059 36.7143C223.812 33.875 228.368 33.8782 231.117 36.7213L243.47 49.498C244.732 50.8033 245.438 52.5479 245.438 54.3636V78.5252C245.438 80.3414 244.732 82.0866 243.469 83.392L231.116 96.1626C228.367 99.0041 223.812 99.0073 221.06 96.1696L208.667 83.3933C207.4 82.0872 206.691 80.3391 206.691 78.5195V54.3693C206.691 52.5502 207.4 50.8026 208.666 49.4967Z" fill="#F8D0A3" stroke="black" stroke-width="5.17"/>
<path d="M208.666 142.442L221.059 129.66C223.812 126.82 228.368 126.823 231.117 129.667L243.47 142.443C244.732 143.749 245.438 145.493 245.438 147.309V171.471C245.438 173.287 244.732 175.032 243.469 176.337L231.116 189.108C228.367 191.949 223.812 191.953 221.06 189.115L208.667 176.339C207.4 175.033 206.691 173.284 206.691 171.465V147.315C206.691 145.496 207.4 143.748 208.666 142.442Z" fill="#F8D0A3" stroke="black" stroke-width="5.17"/>
<path d="M228.666 93.9342L241.059 81.1518C243.812 78.3125 248.368 78.3157 251.117 81.1588L263.47 93.9355C264.732 95.2408 265.438 96.9854 265.438 98.8011V122.963C265.438 124.779 264.732 126.524 263.469 127.83L251.116 140.6C248.367 143.442 243.812 143.445 241.06 140.607L228.667 127.831C227.4 126.525 226.691 124.777 226.691 122.957V98.8068C226.691 96.9877 227.4 95.2401 228.666 93.9342Z" fill="#F8D0A3" stroke="black" stroke-width="5.17"/>
<path d="M228.666 186.879L241.059 174.097C243.812 171.258 248.368 171.261 251.117 174.104L263.47 186.881C264.732 188.186 265.438 189.931 265.438 191.746V215.908C265.438 217.724 264.732 219.469 263.469 220.775L251.116 233.545C248.367 236.387 243.812 236.39 241.06 233.552L228.667 220.776C227.4 219.47 226.691 217.722 226.691 215.902V191.752C226.691 189.933 227.4 188.185 228.666 186.879Z" fill="#F8D0A3" stroke="black" stroke-width="5.17"/>
<path d="M247.412 142.442L259.805 129.66C262.558 126.82 267.114 126.823 269.863 129.667L282.216 142.443C283.478 143.749 284.184 145.493 284.184 147.309V171.471C284.184 173.287 283.478 175.032 282.215 176.337L269.862 189.108C267.113 191.949 262.559 191.953 259.806 189.115L247.413 176.339C246.146 175.033 245.438 173.284 245.438 171.465V147.315C245.438 145.496 246.146 143.748 247.412 142.442Z" fill="#F8D0A3" stroke="black" stroke-width="5.17"/>
<path d="M267.412 93.9342L279.805 81.1518C282.558 78.3125 287.114 78.3157 289.863 81.1588L302.216 93.9355C303.478 95.2408 304.184 96.9854 304.184 98.8011V122.963C304.184 124.779 303.478 126.524 302.215 127.83L289.862 140.6C287.113 143.442 282.559 143.445 279.806 140.607L267.413 127.831C266.146 126.525 265.438 124.777 265.438 122.957V98.8068C265.438 96.9877 266.146 95.2401 267.412 93.9342Z" fill="#F8D0A3" stroke="black" stroke-width="5.17"/>
<path d="M267.412 186.879L279.805 174.097C282.558 171.258 287.114 171.261 289.863 174.104L302.216 186.881C303.478 188.186 304.184 189.931 304.184 191.746V215.908C304.184 217.724 303.478 219.469 302.215 220.775L289.862 233.545C287.113 236.387 282.559 236.39 279.806 233.552L267.413 220.776C266.146 219.47 265.438 217.722 265.438 215.902V191.752C265.438 189.933 266.146 188.185 267.412 186.879Z" fill="#F8D0A3" stroke="black" stroke-width="5.17"/>
<path d="M286.158 142.442L298.551 129.66C301.304 126.82 305.86 126.823 308.609 129.667L320.962 142.443C322.224 143.749 322.93 145.493 322.93 147.309V171.471C322.93 173.287 322.224 175.032 320.961 176.337L308.608 189.108C305.859 191.949 301.305 191.953 298.552 189.115L286.159 176.339C284.892 175.033 284.184 173.284 284.184 171.465V147.315C284.184 145.496 284.892 143.748 286.158 142.442Z" fill="#F8D0A3" stroke="black" stroke-width="5.17"/>
<path d="M306.158 186.879L318.551 174.097C321.304 171.258 325.86 171.261 328.609 174.104L340.962 186.881C342.224 188.186 342.93 189.931 342.93 191.746V215.908C342.93 217.724 342.224 219.469 340.961 220.775L328.608 233.545C325.859 236.387 321.305 236.39 318.552 233.552L306.159 220.776C304.892 219.47 304.184 217.722 304.184 215.902V191.752C304.184 189.933 304.892 188.185 306.158 186.879Z" fill="#F8D0A3" stroke="black" stroke-width="5.17"/>
<path d="M324.904 142.442L337.297 129.66C340.05 126.82 344.606 126.823 347.355 129.667L359.708 142.443C360.97 143.749 361.676 145.493 361.676 147.309V171.471C361.676 173.287 360.97 175.032 359.707 176.337L347.354 189.108C344.605 191.949 340.051 191.953 337.298 189.115L324.905 176.339C323.638 175.033 322.93 173.284 322.93 171.465V147.315C322.93 145.496 323.638 143.748 324.904 142.442Z" fill="#F8D0A3" stroke="black" stroke-width="5.17"/>
<path d="M228.666 371.465L241.059 358.683C243.812 355.844 248.368 355.847 251.117 358.69L263.47 371.467C264.732 372.772 265.438 374.517 265.438 376.332V400.494C265.438 402.31 264.732 404.055 263.469 405.361L251.116 418.131C248.367 420.973 243.812 420.976 241.06 418.138L228.667 405.362C227.4 404.056 226.691 402.308 226.691 400.488V376.338C226.691 374.519 227.4 372.771 228.666 371.465Z" fill="#F8D0A3" stroke="black" stroke-width="5.17"/>
<path d="M266.779 371.465L279.172 358.683C281.925 355.844 286.481 355.847 289.23 358.69L301.583 371.467C302.845 372.772 303.551 374.517 303.551 376.332V400.494C303.551 402.31 302.845 404.055 301.582 405.361L289.229 418.131C286.48 420.973 281.926 420.976 279.173 418.138L266.78 405.362C265.513 404.056 264.805 402.308 264.805 400.488V376.338C264.805 374.519 265.513 372.771 266.779 371.465Z" fill="#F8D0A3" stroke="black" stroke-width="5.17"/>
<path d="M191.338 371.465L203.731 358.683C206.483 355.844 211.04 355.847 213.789 358.69L226.142 371.467C227.404 372.772 228.109 374.517 228.109 376.332V400.494C228.109 402.31 227.403 404.055 226.141 405.361L213.788 418.131C211.039 420.973 206.484 420.976 203.732 418.138L191.339 405.362C190.072 404.056 189.363 402.308 189.363 400.488V376.338C189.363 374.519 190.071 372.771 191.338 371.465Z" fill="#F8D0A3" stroke="black" stroke-width="5.17"/>
<path d="M171.966 418.329L184.36 405.546C187.112 402.707 191.669 402.71 194.418 405.553L206.771 418.33C208.033 419.635 208.738 421.38 208.738 423.196V447.357C208.738 449.173 208.032 450.919 206.77 452.224L194.417 464.995C191.668 467.836 187.113 467.839 184.361 465.002L171.968 452.225C170.701 450.919 169.992 449.171 169.992 447.352V423.201C169.992 421.382 170.7 419.635 171.966 418.329Z" fill="#F8D0A3" stroke="black" stroke-width="5.17"/>
<path d="M247.404 418.329L259.797 405.546C262.55 402.707 267.106 402.71 269.855 405.553L282.208 418.33C283.47 419.635 284.176 421.38 284.176 423.196V447.357C284.176 449.173 283.47 450.919 282.207 452.224L269.854 464.995C267.105 467.836 262.551 467.839 259.798 465.002L247.405 452.225C246.138 450.919 245.43 449.171 245.43 447.352V423.201C245.43 421.382 246.138 419.635 247.404 418.329Z" fill="#F8D0A3" stroke="black" stroke-width="5.17"/>
<path d="M325.107 418.329L337.5 405.546C340.253 402.707 344.809 402.71 347.558 405.553L359.911 418.33C361.173 419.635 361.879 421.38 361.879 423.196V447.357C361.879 449.173 361.173 450.919 359.91 452.224L347.557 464.995C344.809 467.836 340.254 467.839 337.501 465.002L325.108 452.225C323.841 450.919 323.133 449.171 323.133 447.352V423.201C323.133 421.382 323.841 419.635 325.107 418.329Z" fill="#F8D0A3" stroke="black" stroke-width="5.17"/>
<path d="M266.775 464.743L279.168 451.96C281.921 449.121 286.477 449.124 289.226 451.967L301.579 464.744C302.841 466.049 303.547 467.794 303.547 469.61V493.771C303.547 495.588 302.841 497.333 301.578 498.638L289.225 511.409C286.477 514.25 281.922 514.253 279.169 511.416L266.776 498.639C265.509 497.333 264.801 495.585 264.801 493.766V469.615C264.801 467.796 265.509 466.049 266.775 464.743Z" fill="#F8D0A3" stroke="black" stroke-width="5.17"/>
<path d="M247.404 506.188L259.797 493.406C262.55 490.566 267.106 490.57 269.855 493.413L282.208 506.189C283.47 507.495 284.176 509.239 284.176 511.055V535.217C284.176 537.033 283.47 538.778 282.207 540.083L269.854 552.854C267.105 555.696 262.551 555.699 259.798 552.861L247.405 540.085C246.138 538.779 245.43 537.031 245.43 535.211V511.061C245.43 509.242 246.138 507.494 247.404 506.188Z" fill="#F8D0A3" stroke="black" stroke-width="5.17"/>
<path d="M133.22 418.329L145.613 405.546C148.366 402.707 152.923 402.71 155.672 405.553L168.025 418.33C169.287 419.635 169.992 421.38 169.992 423.196V447.357C169.992 449.173 169.286 450.919 168.024 452.224L155.67 464.995C152.922 467.836 148.367 467.839 145.615 465.002L133.222 452.225C131.955 450.919 131.246 449.171 131.246 447.352V423.201C131.246 421.382 131.954 419.635 133.22 418.329Z" fill="#F8D0A3" stroke="black" stroke-width="5.17"/>
<path d="M208.662 418.329L221.055 405.546C223.808 402.707 228.364 402.71 231.113 405.553L243.466 418.33C244.728 419.635 245.434 421.38 245.434 423.196V447.357C245.434 449.173 244.728 450.919 243.465 452.224L231.112 464.995C228.363 467.836 223.809 467.839 221.056 465.002L208.663 452.225C207.396 450.919 206.688 449.171 206.688 447.352V423.201C206.688 421.382 207.396 419.635 208.662 418.329Z" fill="#F8D0A3" stroke="black" stroke-width="5.17"/>
<path d="M286.365 418.329L298.758 405.546C301.511 402.707 306.067 402.71 308.816 405.553L321.169 418.33C322.431 419.635 323.137 421.38 323.137 423.196V447.357C323.137 449.173 322.431 450.919 321.168 452.224L308.815 464.995C306.066 467.836 301.512 467.839 298.759 465.002L286.366 452.225C285.099 450.919 284.391 449.171 284.391 447.352V423.201C284.391 421.382 285.099 419.635 286.365 418.329Z" fill="#F8D0A3" stroke="black" stroke-width="5.17"/>
<path d="M228.033 464.743L240.426 451.96C243.179 449.121 247.735 449.124 250.484 451.967L262.837 464.744C264.099 466.049 264.805 467.794 264.805 469.61V493.771C264.805 495.588 264.099 497.333 262.836 498.638L250.483 511.409C247.734 514.25 243.18 514.253 240.427 511.416L228.034 498.639C226.767 497.333 226.059 495.585 226.059 493.766V469.615C226.059 467.796 226.767 466.049 228.033 464.743Z" fill="#F8D0A3" stroke="black" stroke-width="5.17"/>
<path d="M306.158 278.52L318.551 265.738C321.304 262.898 325.86 262.902 328.609 265.745L340.962 278.521C342.224 279.827 342.93 281.571 342.93 283.387V307.549C342.93 309.365 342.224 311.11 340.961 312.415L328.608 325.186C325.859 328.028 321.305 328.031 318.552 325.193L306.159 312.417C304.892 311.111 304.184 309.363 304.184 307.543V283.393C304.184 281.574 304.892 279.826 306.158 278.52Z" fill="#F8D0A3" stroke="black" stroke-width="5.17"/>
<path d="M306.158 371.465L318.551 358.683C321.304 355.844 325.86 355.847 328.609 358.69L340.962 371.467C342.224 372.772 342.93 374.517 342.93 376.332V400.494C342.93 402.31 342.224 404.055 340.961 405.361L328.608 418.131C325.859 420.973 321.305 420.976 318.552 418.138L306.159 405.362C304.892 404.056 304.184 402.308 304.184 400.488V376.338C304.184 374.519 304.892 372.771 306.158 371.465Z" fill="#F8D0A3" stroke="black" stroke-width="5.17"/>
<path d="M324.904 234.083L337.297 221.3C340.05 218.461 344.606 218.464 347.355 221.307L359.708 234.084C360.97 235.389 361.676 237.134 361.676 238.95V263.111C361.676 264.927 360.97 266.673 359.707 267.978L347.354 280.749C344.605 283.59 340.051 283.593 337.298 280.756L324.905 267.979C323.638 266.673 322.93 264.925 322.93 263.105V238.955C322.93 237.136 323.638 235.389 324.904 234.083Z" fill="#F8D0A3" stroke="black" stroke-width="5.17"/>
<path d="M324.904 327.028L337.297 314.246C340.05 311.406 344.606 311.409 347.355 314.253L359.708 327.029C360.97 328.335 361.676 330.079 361.676 331.895V356.056C361.676 357.873 360.97 359.618 359.707 360.923L347.354 373.694C344.605 376.535 340.051 376.539 337.298 373.701L324.905 360.925C323.638 359.618 322.93 357.87 322.93 356.051V331.901C322.93 330.081 323.638 328.334 324.904 327.028Z" fill="#F8D0A3" stroke="black" stroke-width="5.17"/>
<path d="M344.904 278.52L357.297 265.738C360.05 262.898 364.606 262.902 367.355 265.745L379.708 278.521C380.97 279.827 381.676 281.571 381.676 283.387V307.549C381.676 309.365 380.97 311.11 379.707 312.415L367.354 325.186C364.605 328.028 360.051 328.031 357.298 325.193L344.905 312.417C343.638 311.111 342.93 309.363 342.93 307.543V283.393C342.93 281.574 343.638 279.826 344.904 278.52Z" fill="#F8D0A3" stroke="black" stroke-width="5.17"/>
<path d="M344.904 371.465L357.297 358.683C360.05 355.844 364.606 355.847 367.355 358.69L379.708 371.467C380.97 372.772 381.676 374.517 381.676 376.332V400.494C381.676 402.31 380.97 404.055 379.707 405.361L367.354 418.131C364.605 420.973 360.051 420.976 357.298 418.138L344.905 405.362C343.638 404.056 342.93 402.308 342.93 400.488V376.338C342.93 374.519 343.638 372.771 344.904 371.465Z" fill="#F8D0A3" stroke="black" stroke-width="5.17"/>
<path d="M189.295 461.821L201.688 449.038C204.44 446.199 208.997 446.202 211.746 449.045L224.099 461.822C225.361 463.128 226.066 464.872 226.066 466.688V490.849C226.066 492.666 225.36 494.411 224.098 495.716L211.745 508.487C208.996 511.328 204.441 511.332 201.689 508.494L189.296 495.718C188.029 494.411 187.32 492.663 187.32 490.844V466.693C187.32 464.874 188.028 463.127 189.295 461.821Z" fill="#F8D0A3" stroke="black" stroke-width="5.17"/>
<path d="M169.92 506.188L182.313 493.406C185.065 490.566 189.622 490.57 192.371 493.413L204.724 506.189C205.986 507.495 206.691 509.239 206.691 511.055V535.217C206.691 537.033 205.985 538.778 204.723 540.083L192.37 552.854C189.621 555.696 185.066 555.699 182.314 552.861L169.921 540.085C168.654 538.779 167.945 537.031 167.945 535.211V511.061C167.945 509.242 168.653 507.494 169.92 506.188Z" fill="#F8D0A3" stroke="black" stroke-width="5.17"/>
<path d="M133.22 506.188L145.613 493.406C148.366 490.566 152.923 490.57 155.672 493.413L168.025 506.189C169.287 507.495 169.992 509.239 169.992 511.055V535.217C169.992 537.033 169.286 538.778 168.024 540.083L155.67 552.854C152.922 555.696 148.367 555.699 145.615 552.861L133.222 540.085C131.955 538.779 131.246 537.031 131.246 535.211V511.061C131.246 509.242 131.954 507.494 133.22 506.188Z" fill="#F8D0A3" stroke="black" stroke-width="5.17"/>
<path d="M150.549 461.821L162.942 449.038C165.694 446.199 170.251 446.202 173 449.045L185.353 461.822C186.615 463.128 187.32 464.872 187.32 466.688V490.849C187.32 492.666 186.614 494.411 185.352 495.716L172.999 508.487C170.25 511.328 165.695 511.332 162.943 508.494L150.55 495.718C149.283 494.411 148.574 492.663 148.574 490.844V466.693C148.574 464.874 149.282 463.127 150.549 461.821Z" fill="#F8D0A3" stroke="black" stroke-width="5.17"/>
<path d="M248.666 328.028L261.059 315.246C263.812 312.406 268.368 312.409 271.117 315.253L283.47 328.029C284.732 329.335 285.438 331.079 285.438 332.895V357.056C285.438 358.873 284.732 360.618 283.469 361.923L271.116 374.694C268.367 377.535 263.812 377.539 261.06 374.701L248.667 361.925C247.4 360.618 246.691 358.87 246.691 357.051V332.901C246.691 331.081 247.4 329.334 248.666 328.028Z" fill="#F8D0A3" stroke="black" stroke-width="5.17"/>
<path d="M287.412 328.028L299.805 315.246C302.558 312.406 307.114 312.409 309.863 315.253L322.216 328.029C323.478 329.335 324.184 331.079 324.184 332.895V357.056C324.184 358.873 323.478 360.618 322.215 361.923L309.862 374.694C307.113 377.535 302.559 377.539 299.806 374.701L287.413 361.925C286.146 360.618 285.438 358.87 285.438 357.051V332.901C285.438 331.081 286.146 329.334 287.412 328.028Z" fill="#F8D0A3" stroke="black" stroke-width="5.17"/>
<path d="M324.904 327.028L337.297 314.246C340.05 311.406 344.606 311.409 347.355 314.253L359.708 327.029C360.97 328.335 361.676 330.079 361.676 331.895V356.056C361.676 357.873 360.97 359.618 359.707 360.923L347.354 373.694C344.605 376.535 340.051 376.539 337.298 373.701L324.905 360.925C323.638 359.618 322.93 357.87 322.93 356.051V331.901C322.93 330.081 323.638 328.334 324.904 327.028Z" fill="#F8D0A3" stroke="black" stroke-width="5.17"/>
</g>
<defs>
<clipPath id="clip0_478_995">
<rect width="469" height="821" fill="white"/>
</clipPath>
</defs>
</svg>
