<svg width="469" height="1685" viewBox="0 0 469 1685" fill="none" xmlns="http://www.w3.org/2000/svg">
<path fill-rule="evenodd" clip-rule="evenodd" d="M279.523 817.1L267.13 829.882C265.864 831.188 265.156 832.936 265.156 834.755V857.679L264.557 857.825L212.871 867.743C209.85 868.323 207.562 870.807 207.231 873.865L203.736 906.158C203.629 907.147 203.734 908.148 204.044 909.093L247.418 1041.3C249.148 1046.57 256.035 1047.83 259.519 1043.51L324.992 962.29C325.995 961.045 326.542 959.495 326.542 957.896V851.612C326.542 847.074 322.291 843.736 317.882 844.812L303.902 848.224V834.749C303.902 832.934 303.196 831.189 301.934 829.884L289.581 817.107C286.832 814.264 282.276 814.261 279.523 817.1Z" fill="#FC8B75"/>
<path d="M267.13 829.882L265.274 828.083L265.274 828.083L267.13 829.882ZM279.523 817.1L281.379 818.899L281.379 818.899L279.523 817.1ZM265.156 857.679L265.768 860.191L267.741 859.709V857.679H265.156ZM264.557 857.825L265.044 860.364L265.107 860.352L265.17 860.337L264.557 857.825ZM212.871 867.743L213.358 870.282L213.358 870.282L212.871 867.743ZM207.231 873.865L209.801 874.143L207.231 873.865ZM203.736 906.158L206.306 906.436L206.306 906.436L203.736 906.158ZM204.044 909.093L206.5 908.287L206.5 908.287L204.044 909.093ZM247.418 1041.3L249.874 1040.49L249.874 1040.49L247.418 1041.3ZM259.519 1043.51L257.506 1041.89L257.506 1041.89L259.519 1043.51ZM324.992 962.29L322.979 960.667L322.979 960.667L324.992 962.29ZM317.882 844.812L318.495 847.323L318.495 847.323L317.882 844.812ZM303.902 848.224H301.317V851.515L304.515 850.735L303.902 848.224ZM301.934 829.884L303.793 828.087L303.793 828.087L301.934 829.884ZM289.581 817.107L287.723 818.904L287.723 818.904L289.581 817.107ZM268.986 831.682L281.379 818.899L277.667 815.301L265.274 828.083L268.986 831.682ZM267.741 834.755C267.741 833.608 268.187 832.506 268.986 831.682L265.274 828.083C263.54 829.871 262.571 832.264 262.571 834.755H267.741ZM267.741 857.679V834.755H262.571V857.679H267.741ZM265.17 860.337L265.768 860.191L264.543 855.168L263.944 855.314L265.17 860.337ZM213.358 870.282L265.044 860.364L264.07 855.287L212.384 865.205L213.358 870.282ZM209.801 874.143C210.01 872.214 211.453 870.648 213.358 870.282L212.384 865.205C208.248 865.998 205.114 869.399 204.661 873.587L209.801 874.143ZM206.306 906.436L209.801 874.143L204.661 873.587L201.166 905.88L206.306 906.436ZM206.5 908.287C206.305 907.691 206.238 907.06 206.306 906.436L201.166 905.88C201.019 907.234 201.163 908.604 201.588 909.899L206.5 908.287ZM249.874 1040.49L206.5 908.287L201.588 909.899L244.961 1042.1L249.874 1040.49ZM257.506 1041.89C255.309 1044.61 250.965 1043.82 249.874 1040.49L244.961 1042.1C247.331 1049.33 256.761 1051.05 261.531 1045.13L257.506 1041.89ZM322.979 960.667L257.506 1041.89L261.531 1045.13L327.004 963.912L322.979 960.667ZM323.957 957.896C323.957 958.905 323.612 959.882 322.979 960.667L327.004 963.912C328.378 962.208 329.127 960.085 329.127 957.896H323.957ZM323.957 851.612V957.896H329.127V851.612H323.957ZM318.495 847.323C321.276 846.644 323.957 848.75 323.957 851.612H329.127C329.127 845.399 323.306 840.827 317.269 842.3L318.495 847.323ZM304.515 850.735L318.495 847.323L317.269 842.3L303.289 845.712L304.515 850.735ZM301.317 834.749V848.224H306.487V834.749H301.317ZM300.076 831.681C300.872 832.504 301.317 833.604 301.317 834.749H306.487C306.487 832.263 305.521 829.874 303.793 828.087L300.076 831.681ZM287.723 818.904L300.076 831.681L303.793 828.087L291.439 815.31L287.723 818.904ZM281.379 818.899C283.115 817.109 285.989 817.111 287.723 818.904L291.439 815.31C287.676 811.417 281.436 811.413 277.667 815.301L281.379 818.899Z" fill="black"/>
<path fill-rule="evenodd" clip-rule="evenodd" d="M289.961 407.234L294.835 392.954C296.093 389.269 300.117 387.318 303.789 388.614L328.738 397.415C332.03 398.576 333.963 401.986 333.27 405.407L312.413 508.266C312.273 508.958 312.029 509.625 311.689 510.243L273.308 580.155C270.178 585.856 261.642 584.579 260.318 578.211L241.5 487.703C241.129 485.921 241.467 484.066 242.442 482.529L289.248 408.721C289.543 408.255 289.783 407.756 289.961 407.234ZM340.481 1218.35C340.427 1216.62 339.728 1214.96 338.517 1213.71L327.403 1202.21C324.654 1199.37 320.097 1199.37 317.344 1202.2L306.193 1213.71C305.355 1214.57 304.761 1215.63 304.456 1216.77L287.823 1220.23C285.874 1220.63 284.19 1221.84 283.191 1223.56L248.156 1283.92C247.154 1285.64 246.936 1287.72 247.559 1289.61L287.36 1410.93C289.091 1416.21 295.978 1417.46 299.461 1413.14L360.126 1337.89C361.129 1336.64 361.676 1335.09 361.676 1333.5V1230.78C361.676 1227.82 359.804 1225.17 357.005 1224.18L340.481 1218.35Z" fill="#FC8B75"/>
<path d="M294.835 392.954L292.389 392.119L292.389 392.119L294.835 392.954ZM289.961 407.234L287.515 406.399L287.515 406.399L289.961 407.234ZM303.789 388.614L304.649 386.176L304.649 386.176L303.789 388.614ZM328.738 397.415L329.598 394.977L329.598 394.977L328.738 397.415ZM333.27 405.407L335.803 405.921L335.803 405.921L333.27 405.407ZM312.413 508.266L314.947 508.78L314.947 508.78L312.413 508.266ZM311.689 510.243L309.423 508.999L309.423 508.999L311.689 510.243ZM273.308 580.155L271.042 578.911L271.042 578.911L273.308 580.155ZM260.318 578.211L257.787 578.737L257.787 578.737L260.318 578.211ZM241.5 487.703L238.969 488.229L238.969 488.229L241.5 487.703ZM242.442 482.529L240.259 481.145L240.259 481.145L242.442 482.529ZM289.248 408.721L287.065 407.337L287.065 407.337L289.248 408.721ZM338.517 1213.71L336.659 1215.5L336.659 1215.5L338.517 1213.71ZM340.481 1218.35L337.897 1218.43L337.953 1220.2L339.621 1220.79L340.481 1218.35ZM327.403 1202.21L329.261 1200.41L329.261 1200.41L327.403 1202.21ZM317.344 1202.2L315.489 1200.41L315.489 1200.41L317.344 1202.2ZM306.193 1213.71L304.338 1211.91L304.338 1211.91L306.193 1213.71ZM304.456 1216.77L304.981 1219.3L306.542 1218.98L306.954 1217.44L304.456 1216.77ZM287.823 1220.23L287.297 1217.69L287.297 1217.69L287.823 1220.23ZM283.191 1223.56L285.427 1224.86L285.427 1224.86L283.191 1223.56ZM248.156 1283.92L245.921 1282.62L245.921 1282.62L248.156 1283.92ZM247.559 1289.61L250.015 1288.81L250.015 1288.81L247.559 1289.61ZM287.36 1410.93L289.817 1410.13L289.817 1410.13L287.36 1410.93ZM299.461 1413.14L297.449 1411.52L297.449 1411.52L299.461 1413.14ZM360.126 1337.89L358.113 1336.27L358.113 1336.27L360.126 1337.89ZM357.005 1224.18L357.865 1221.74L357.865 1221.74L357.005 1224.18ZM292.389 392.119L287.515 406.399L292.408 408.069L297.282 393.789L292.389 392.119ZM304.649 386.176C299.621 384.402 294.111 387.073 292.389 392.119L297.282 393.789C298.075 391.465 300.613 390.235 302.929 391.052L304.649 386.176ZM329.598 394.977L304.649 386.176L302.929 391.052L327.878 399.853L329.598 394.977ZM335.803 405.921C336.753 401.236 334.106 396.568 329.598 394.977L327.878 399.853C329.954 400.585 331.174 402.736 330.736 404.894L335.803 405.921ZM314.947 508.78L335.803 405.921L330.736 404.894L309.88 507.752L314.947 508.78ZM313.955 511.488C314.42 510.64 314.755 509.727 314.947 508.78L309.88 507.752C309.791 508.189 309.637 508.609 309.423 508.999L313.955 511.488ZM275.574 581.399L313.955 511.488L309.423 508.999L271.042 578.911L275.574 581.399ZM257.787 578.737C259.6 587.457 271.288 589.206 275.574 581.399L271.042 578.911C269.068 582.507 263.684 581.701 262.849 577.685L257.787 578.737ZM238.969 488.229L257.787 578.737L262.849 577.685L244.031 487.177L238.969 488.229ZM240.259 481.145C238.924 483.249 238.462 485.79 238.969 488.229L244.031 487.177C243.797 486.053 244.01 484.883 244.625 483.914L240.259 481.145ZM287.065 407.337L240.259 481.145L244.625 483.914L291.431 410.106L287.065 407.337ZM287.515 406.399C287.402 406.728 287.251 407.043 287.065 407.337L291.431 410.106C291.836 409.467 292.163 408.784 292.408 408.069L287.515 406.399ZM336.659 1215.5C337.423 1216.29 337.863 1217.34 337.897 1218.43L343.065 1218.27C342.991 1215.9 342.034 1213.63 340.375 1211.91L336.659 1215.5ZM325.544 1204.01L336.659 1215.5L340.376 1211.91L329.261 1200.41L325.544 1204.01ZM319.2 1204C320.937 1202.21 323.811 1202.22 325.544 1204.01L329.261 1200.41C325.497 1196.52 319.258 1196.52 315.489 1200.41L319.2 1204ZM308.049 1215.51L319.2 1204L315.489 1200.41L304.338 1211.91L308.049 1215.51ZM306.954 1217.44C307.146 1216.72 307.521 1216.05 308.049 1215.51L304.338 1211.91C303.19 1213.09 302.377 1214.54 301.958 1216.11L306.954 1217.44ZM303.931 1214.24L287.297 1217.69L288.348 1222.76L304.981 1219.3L303.931 1214.24ZM287.297 1217.69C284.63 1218.25 282.323 1219.91 280.956 1222.27L285.427 1224.86C286.057 1223.78 287.119 1223.01 288.348 1222.76L287.297 1217.69ZM280.956 1222.27L245.921 1282.62L250.392 1285.22L285.427 1224.86L280.956 1222.27ZM245.921 1282.62C244.548 1284.98 244.25 1287.82 245.103 1290.42L250.015 1288.81C249.623 1287.61 249.76 1286.3 250.392 1285.22L245.921 1282.62ZM245.103 1290.42L284.904 1411.74L289.817 1410.13L250.015 1288.81L245.103 1290.42ZM284.904 1411.74C287.273 1418.96 296.704 1420.68 301.474 1414.76L297.449 1411.52C295.252 1414.25 290.908 1413.45 289.817 1410.13L284.904 1411.74ZM301.474 1414.76L362.138 1339.51L358.113 1336.27L297.449 1411.52L301.474 1414.76ZM362.138 1339.51C363.512 1337.81 364.261 1335.68 364.261 1333.5H359.091C359.091 1334.5 358.746 1335.48 358.113 1336.27L362.138 1339.51ZM364.261 1333.5V1230.78H359.091V1333.5H364.261ZM364.261 1230.78C364.261 1226.72 361.698 1223.1 357.865 1221.74L356.145 1226.62C357.91 1227.24 359.091 1228.91 359.091 1230.78H364.261ZM357.865 1221.74L341.341 1215.92L339.621 1220.79L356.145 1226.62L357.865 1221.74Z" fill="black"/>
<path d="M208.666 140.208L221.059 127.425C223.812 124.586 228.368 124.589 231.117 127.432L243.47 140.209C244.732 141.514 245.438 143.259 245.438 145.075V169.236C245.438 171.052 244.732 172.798 243.469 174.103L231.116 186.874C228.367 189.715 223.812 189.718 221.06 186.881L208.667 174.104C207.4 172.798 206.691 171.05 206.691 169.23V145.08C206.691 143.261 207.4 141.514 208.666 140.208Z" fill="#F8D0A3" stroke="black" stroke-width="5.17"/>
<path d="M208.666 233.153L221.059 220.371C223.812 217.531 228.368 217.534 231.117 220.378L243.47 233.154C244.732 234.46 245.438 236.204 245.438 238.02V262.181C245.438 263.998 244.732 265.743 243.469 267.048L231.116 279.819C228.367 282.66 223.812 282.664 221.06 279.826L208.667 267.05C207.4 265.743 206.691 263.995 206.691 262.176V238.026C206.691 236.206 207.4 234.459 208.666 233.153Z" fill="#F8D0A3" stroke="black" stroke-width="5.17"/>
<path d="M228.666 184.645L241.059 171.863C243.812 169.023 248.368 169.027 251.117 171.87L263.47 184.646C264.732 185.952 265.438 187.696 265.438 189.512V213.674C265.438 215.49 264.732 217.235 263.469 218.54L251.116 231.311C248.367 234.153 243.812 234.156 241.06 231.318L228.667 218.542C227.4 217.236 226.691 215.488 226.691 213.668V189.518C226.691 187.699 227.4 185.951 228.666 184.645Z" fill="#F8D0A3" stroke="black" stroke-width="5.17"/>
<path d="M228.666 277.59L241.059 264.808C243.812 261.969 248.368 261.972 251.117 264.815L263.47 277.592C264.732 278.897 265.438 280.642 265.438 282.457V306.619C265.438 308.435 264.732 310.18 263.469 311.486L251.116 324.256C248.367 327.098 243.812 327.101 241.06 324.263L228.667 311.487C227.4 310.181 226.691 308.433 226.691 306.613V282.463C226.691 280.644 227.4 278.896 228.666 277.59Z" fill="#F8D0A3" stroke="black" stroke-width="5.17"/>
<path d="M247.412 140.208L259.805 127.425C262.558 124.586 267.114 124.589 269.863 127.432L282.216 140.209C283.478 141.514 284.184 143.259 284.184 145.075V169.236C284.184 171.052 283.478 172.798 282.215 174.103L269.862 186.874C267.113 189.715 262.559 189.718 259.806 186.881L247.413 174.104C246.146 172.798 245.438 171.05 245.438 169.23V145.08C245.438 143.261 246.146 141.514 247.412 140.208Z" fill="#F8D0A3" stroke="black" stroke-width="5.17"/>
<path d="M247.412 233.153L259.805 220.371C262.558 217.531 267.114 217.534 269.863 220.378L282.216 233.154C283.478 234.46 284.184 236.204 284.184 238.02V262.181C284.184 263.998 283.478 265.743 282.215 267.048L269.862 279.819C267.113 282.66 262.559 282.664 259.806 279.826L247.413 267.05C246.146 265.743 245.438 263.995 245.438 262.176V238.026C245.438 236.206 246.146 234.459 247.412 233.153Z" fill="#F8D0A3" stroke="black" stroke-width="5.17"/>
<path d="M267.412 184.645L279.805 171.863C282.558 169.023 287.114 169.027 289.863 171.87L302.216 184.646C303.478 185.952 304.184 187.696 304.184 189.512V213.674C304.184 215.49 303.478 217.235 302.215 218.54L289.862 231.311C287.113 234.153 282.559 234.156 279.806 231.318L267.413 218.542C266.146 217.236 265.438 215.488 265.438 213.668V189.518C265.438 187.699 266.146 185.951 267.412 184.645Z" fill="#F8D0A3" stroke="black" stroke-width="5.17"/>
<path d="M267.412 277.59L279.805 264.808C282.558 261.969 287.114 261.972 289.863 264.815L302.216 277.592C303.478 278.897 304.184 280.642 304.184 282.457V306.619C304.184 308.435 303.478 310.18 302.215 311.486L289.862 324.256C287.113 327.098 282.559 327.101 279.806 324.263L267.413 311.487C266.146 310.181 265.438 308.433 265.438 306.613V282.463C265.438 280.644 266.146 278.896 267.412 277.59Z" fill="#F8D0A3" stroke="black" stroke-width="5.17"/>
<path d="M286.158 233.153L298.551 220.371C301.304 217.531 305.86 217.534 308.609 220.378L320.962 233.154C322.224 234.46 322.93 236.204 322.93 238.02V262.181C322.93 263.998 322.224 265.743 320.961 267.048L308.608 279.819C305.859 282.66 301.305 282.664 298.552 279.826L286.159 267.05C284.892 265.743 284.184 263.995 284.184 262.176V238.026C284.184 236.206 284.892 234.459 286.158 233.153Z" fill="#F8D0A3" stroke="black" stroke-width="5.17"/>
<path d="M306.158 277.59L318.551 264.808C321.304 261.969 325.86 261.972 328.609 264.815L340.962 277.592C342.224 278.897 342.93 280.642 342.93 282.457V306.619C342.93 308.435 342.224 310.18 340.961 311.486L328.608 324.256C325.859 327.098 321.305 327.101 318.552 324.263L306.159 311.487C304.892 310.181 304.184 308.433 304.184 306.613V282.463C304.184 280.644 304.892 278.896 306.158 277.59Z" fill="#F8D0A3" stroke="black" stroke-width="5.17"/>
<path d="M324.904 233.153L337.297 220.371C340.05 217.531 344.606 217.534 347.355 220.378L359.708 233.154C360.97 234.46 361.676 236.204 361.676 238.02V262.181C361.676 263.998 360.97 265.743 359.707 267.048L347.354 279.819C344.605 282.66 340.051 282.664 337.298 279.826L324.905 267.05C323.638 265.743 322.93 263.995 322.93 262.176V238.026C322.93 236.206 323.638 234.459 324.904 233.153Z" fill="#F8D0A3" stroke="black" stroke-width="5.17"/>
<path d="M344.904 277.59L357.297 264.808C360.05 261.969 364.606 261.972 367.355 264.815L379.708 277.592C380.97 278.897 381.676 280.642 381.676 282.457V306.619C381.676 308.435 380.97 310.18 379.707 311.486L367.354 324.256C364.605 327.098 360.051 327.101 357.298 324.263L344.905 311.487C343.638 310.181 342.93 308.433 342.93 306.613V282.463C342.93 280.644 343.638 278.896 344.904 277.59Z" fill="#F8D0A3" stroke="black" stroke-width="5.17"/>
<path d="M189.295 184.645L201.688 171.863C204.44 169.023 208.997 169.027 211.746 171.87L224.099 184.646C225.361 185.952 226.066 187.696 226.066 189.512V213.674C226.066 215.49 225.36 217.235 224.098 218.54L211.745 231.311C208.996 234.153 204.441 234.156 201.689 231.318L189.296 218.542C188.029 217.236 187.32 215.488 187.32 213.668V189.518C187.32 187.699 188.028 185.951 189.295 184.645Z" fill="#F8D0A3" stroke="black" stroke-width="5.17"/>
<path d="M228.666 462.176L241.059 449.394C243.812 446.555 248.368 446.558 251.117 449.401L263.47 462.178C264.732 463.483 265.438 465.228 265.438 467.043V491.205C265.438 493.021 264.732 494.766 263.469 496.072L251.116 508.842C248.367 511.684 243.812 511.687 241.06 508.849L228.667 496.073C227.4 494.767 226.691 493.019 226.691 491.199V467.049C226.691 465.23 227.4 463.482 228.666 462.176Z" fill="#F8D0A3" stroke="black" stroke-width="5.17"/>
<path d="M247.412 417.739L259.805 404.956C262.558 402.117 267.114 402.12 269.863 404.963L282.216 417.74C283.478 419.046 284.184 420.79 284.184 422.606V446.767C284.184 448.584 283.478 450.329 282.215 451.634L269.862 464.405C267.113 467.246 262.559 467.25 259.806 464.412L247.413 451.636C246.146 450.329 245.438 448.581 245.438 446.762V422.611C245.438 420.792 246.146 419.045 247.412 417.739Z" fill="#F8D0A3" stroke="black" stroke-width="5.17"/>
<path d="M267.412 369.231L279.805 356.449C282.558 353.609 287.114 353.613 289.863 356.456L302.216 369.232C303.478 370.538 304.184 372.282 304.184 374.098V398.26C304.184 400.076 303.478 401.821 302.215 403.126L289.862 415.897C287.113 418.739 282.559 418.742 279.806 415.904L267.413 403.128C266.146 401.822 265.438 400.074 265.438 398.254V374.104C265.438 372.285 266.146 370.537 267.412 369.231Z" fill="#F8D0A3" stroke="black" stroke-width="5.17"/>
<path d="M286.158 324.794L298.551 312.011C301.304 309.172 305.86 309.175 308.609 312.018L320.962 324.795C322.224 326.1 322.93 327.845 322.93 329.66V353.822C322.93 355.638 322.224 357.383 320.961 358.689L308.608 371.46C305.859 374.301 301.305 374.304 298.552 371.467L286.159 358.69C284.892 357.384 284.184 355.636 284.184 353.816V329.666C284.184 327.847 284.892 326.1 286.158 324.794Z" fill="#F8D0A3" stroke="black" stroke-width="5.17"/>
<path d="M306.158 369.231L318.551 356.449C321.304 353.609 325.86 353.613 328.609 356.456L340.962 369.232C342.224 370.538 342.93 372.282 342.93 374.098V398.26C342.93 400.076 342.224 401.821 340.961 403.126L328.608 415.897C325.859 418.739 321.305 418.742 318.552 415.904L306.159 403.128C304.892 401.822 304.184 400.074 304.184 398.254V374.104C304.184 372.285 304.892 370.537 306.158 369.231Z" fill="#F8D0A3" stroke="black" stroke-width="5.17"/>
<path d="M306.158 462.176L318.551 449.394C321.304 446.555 325.86 446.558 328.609 449.401L340.962 462.178C342.224 463.483 342.93 465.228 342.93 467.043V491.205C342.93 493.021 342.224 494.766 340.961 496.072L328.608 508.842C325.859 511.684 321.305 511.687 318.552 508.849L306.159 496.073C304.892 494.767 304.184 493.019 304.184 491.199V467.049C304.184 465.23 304.892 463.482 306.158 462.176Z" fill="#F8D0A3" stroke="black" stroke-width="5.17"/>
<path d="M324.904 324.794L337.297 312.011C340.05 309.172 344.606 309.175 347.355 312.018L359.708 324.795C360.97 326.1 361.676 327.845 361.676 329.66V353.822C361.676 355.638 360.97 357.383 359.707 358.689L347.354 371.46C344.605 374.301 340.051 374.304 337.298 371.467L324.905 358.69C323.638 357.384 322.93 355.636 322.93 353.816V329.666C322.93 327.847 323.638 326.1 324.904 324.794Z" fill="#F8D0A3" stroke="black" stroke-width="5.17"/>
<path d="M324.904 417.739L337.297 404.956C340.05 402.117 344.606 402.12 347.355 404.963L359.708 417.74C360.97 419.046 361.676 420.79 361.676 422.606V446.767C361.676 448.584 360.97 450.329 359.707 451.634L347.354 464.405C344.605 467.246 340.051 467.25 337.298 464.412L324.905 451.636C323.638 450.329 322.93 448.581 322.93 446.762V422.611C322.93 420.792 323.638 419.045 324.904 417.739Z" fill="#F8D0A3" stroke="black" stroke-width="5.17"/>
<path d="M344.904 462.176L357.297 449.394C360.05 446.555 364.606 446.558 367.355 449.401L379.708 462.178C380.97 463.483 381.676 465.228 381.676 467.043V491.205C381.676 493.021 380.97 494.766 379.707 496.072L367.354 508.842C364.605 511.684 360.051 511.687 357.298 508.849L344.905 496.073C343.638 494.767 342.93 493.019 342.93 491.199V467.049C342.93 465.23 343.638 463.482 344.904 462.176Z" fill="#F8D0A3" stroke="black" stroke-width="5.17"/>
<path d="M189.295 462.176L201.688 449.394C204.44 446.555 208.997 446.558 211.746 449.401L224.099 462.178C225.361 463.483 226.066 465.228 226.066 467.043V491.205C226.066 493.021 225.36 494.766 224.098 496.072L211.745 508.842C208.996 511.684 204.441 511.687 201.689 508.849L189.296 496.073C188.029 494.767 187.32 493.019 187.32 491.199V467.049C187.32 465.23 188.028 463.482 189.295 462.176Z" fill="#F8D0A3" stroke="black" stroke-width="5.17"/>
<path d="M208.666 970.329L221.059 957.546C223.812 954.707 228.368 954.71 231.117 957.553L243.47 970.33C244.732 971.635 245.438 973.38 245.438 975.196V999.357C245.438 1001.17 244.732 1002.92 243.469 1004.22L231.116 1016.99C228.367 1019.84 223.812 1019.84 221.06 1017L208.667 1004.23C207.4 1002.92 206.691 1001.17 206.691 999.352V975.201C206.691 973.382 207.4 971.635 208.666 970.329Z" fill="#F8D0A3" stroke="black" stroke-width="5.17"/>
<path d="M228.666 1014.77L241.059 1001.98C243.812 999.145 248.368 999.148 251.117 1001.99L263.47 1014.77C264.732 1016.07 265.438 1017.82 265.438 1019.63V1043.79C265.438 1045.61 264.732 1047.36 263.469 1048.66L251.116 1061.43C248.367 1064.27 243.812 1064.28 241.06 1061.44L228.667 1048.66C227.4 1047.36 226.691 1045.61 226.691 1043.79V1019.64C226.691 1017.82 227.4 1016.07 228.666 1014.77Z" fill="#F8D0A3" stroke="black" stroke-width="5.17"/>
<path d="M267.412 1014.77L279.805 1001.98C282.558 999.145 287.114 999.148 289.863 1001.99L302.216 1014.77C303.478 1016.07 304.184 1017.82 304.184 1019.63V1043.79C304.184 1045.61 303.478 1047.36 302.215 1048.66L289.862 1061.43C287.113 1064.27 282.559 1064.28 279.806 1061.44L267.413 1048.66C266.146 1047.36 265.438 1045.61 265.438 1043.79V1019.64C265.438 1017.82 266.146 1016.07 267.412 1014.77Z" fill="#F8D0A3" stroke="black" stroke-width="5.17"/>
<path d="M286.158 970.329L298.551 957.546C301.304 954.707 305.86 954.71 308.609 957.553L320.962 970.33C322.224 971.635 322.93 973.38 322.93 975.196V999.357C322.93 1001.17 322.224 1002.92 320.961 1004.22L308.608 1016.99C305.859 1019.84 301.305 1019.84 298.552 1017L286.159 1004.23C284.892 1002.92 284.184 1001.17 284.184 999.352V975.201C284.184 973.382 284.892 971.635 286.158 970.329Z" fill="#F8D0A3" stroke="black" stroke-width="5.17"/>
<path d="M306.158 921.821L318.551 909.038C321.304 906.199 325.86 906.202 328.609 909.045L340.962 921.822C342.224 923.128 342.93 924.872 342.93 926.688V950.849C342.93 952.666 342.224 954.411 340.961 955.716L328.608 968.487C325.859 971.328 321.305 971.332 318.552 968.494L306.159 955.718C304.892 954.411 304.184 952.663 304.184 950.844V926.693C304.184 924.874 304.892 923.127 306.158 921.821Z" fill="#F8D0A3" stroke="black" stroke-width="5.17"/>
<path d="M324.904 877.383L337.297 864.601C340.05 861.762 344.606 861.765 347.355 864.608L359.708 877.385C360.97 878.69 361.676 880.435 361.676 882.25V906.412C361.676 908.228 360.97 909.973 359.707 911.279L347.354 924.049C344.605 926.891 340.051 926.894 337.298 924.056L324.905 911.28C323.638 909.974 322.93 908.226 322.93 906.406V882.256C322.93 880.437 323.638 878.689 324.904 877.383Z" fill="#F8D0A3" stroke="black" stroke-width="5.17"/>
<path d="M189.295 921.821L201.688 909.038C204.44 906.199 208.997 906.202 211.746 909.045L224.099 921.822C225.361 923.128 226.066 924.872 226.066 926.688V950.849C226.066 952.666 225.36 954.411 224.098 955.716L211.745 968.487C208.996 971.328 204.441 971.332 201.689 968.494L189.296 955.718C188.029 954.411 187.32 952.663 187.32 950.844V926.693C187.32 924.874 188.028 923.127 189.295 921.821Z" fill="#F8D0A3" stroke="black" stroke-width="5.17"/>
<path d="M189.295 1014.77L201.688 1001.98C204.44 999.145 208.997 999.148 211.746 1001.99L224.099 1014.77C225.361 1016.07 226.066 1017.82 226.066 1019.63V1043.79C226.066 1045.61 225.36 1047.36 224.098 1048.66L211.745 1061.43C208.996 1064.27 204.441 1064.28 201.689 1061.44L189.296 1048.66C188.029 1047.36 187.32 1045.61 187.32 1043.79V1019.64C187.32 1017.82 188.028 1016.07 189.295 1014.77Z" fill="#F8D0A3" stroke="black" stroke-width="5.17"/>
<path d="M208.666 1061.97L221.059 1049.19C223.812 1046.35 228.368 1046.35 231.117 1049.19L243.47 1061.97C244.732 1063.28 245.438 1065.02 245.438 1066.84V1091C245.438 1092.81 244.732 1094.56 243.469 1095.86L231.116 1108.64C228.367 1111.48 223.812 1111.48 221.06 1108.64L208.667 1095.87C207.4 1094.56 206.691 1092.81 206.691 1090.99V1066.84C206.691 1065.02 207.4 1063.28 208.666 1061.97Z" fill="#F8D0A3" stroke="black" stroke-width="5.17"/>
<path d="M228.666 1106.41L241.059 1093.62C243.812 1090.79 248.368 1090.79 251.117 1093.63L263.47 1106.41C264.732 1107.71 265.438 1109.46 265.438 1111.27V1135.44C265.438 1137.25 264.732 1139 263.469 1140.3L251.116 1153.07C248.367 1155.91 243.812 1155.92 241.06 1153.08L228.667 1140.3C227.4 1139 226.691 1137.25 226.691 1135.43V1111.28C226.691 1109.46 227.4 1107.71 228.666 1106.41Z" fill="#F8D0A3" stroke="black" stroke-width="5.17"/>
<path d="M247.412 1061.97L259.805 1049.19C262.558 1046.35 267.114 1046.35 269.863 1049.19L282.216 1061.97C283.478 1063.28 284.184 1065.02 284.184 1066.84V1091C284.184 1092.81 283.478 1094.56 282.215 1095.86L269.862 1108.64C267.113 1111.48 262.559 1111.48 259.806 1108.64L247.413 1095.87C246.146 1094.56 245.438 1092.81 245.438 1090.99V1066.84C245.438 1065.02 246.146 1063.28 247.412 1061.97Z" fill="#F8D0A3" stroke="black" stroke-width="5.17"/>
<path d="M247.412 1154.91L259.805 1142.13C262.558 1139.29 267.114 1139.3 269.863 1142.14L282.216 1154.92C283.478 1156.22 284.184 1157.97 284.184 1159.78V1183.94C284.184 1185.76 283.478 1187.5 282.215 1188.81L269.862 1201.58C267.113 1204.42 262.559 1204.43 259.806 1201.59L247.413 1188.81C246.146 1187.51 245.438 1185.76 245.438 1183.94V1159.79C245.438 1157.97 246.146 1156.22 247.412 1154.91Z" fill="#F8D0A3" stroke="black" stroke-width="5.17"/>
<path d="M267.412 1106.41L279.805 1093.62C282.558 1090.79 287.114 1090.79 289.863 1093.63L302.216 1106.41C303.478 1107.71 304.184 1109.46 304.184 1111.27V1135.44C304.184 1137.25 303.478 1139 302.215 1140.3L289.862 1153.07C287.113 1155.91 282.559 1155.92 279.806 1153.08L267.413 1140.3C266.146 1139 265.438 1137.25 265.438 1135.43V1111.28C265.438 1109.46 266.146 1107.71 267.412 1106.41Z" fill="#F8D0A3" stroke="black" stroke-width="5.17"/>
<path d="M267.412 1199.35L279.805 1186.57C282.558 1183.73 287.114 1183.73 289.863 1186.58L302.216 1199.35C303.478 1200.66 304.184 1202.4 304.184 1204.22V1228.38C304.184 1230.2 303.478 1231.94 302.215 1233.25L289.862 1246.02C287.113 1248.86 282.559 1248.86 279.806 1246.03L267.413 1233.25C266.146 1231.94 265.438 1230.19 265.438 1228.38V1204.22C265.438 1202.41 266.146 1200.66 267.412 1199.35Z" fill="#F8D0A3" stroke="black" stroke-width="5.17"/>
<path d="M286.158 1061.97L298.551 1049.19C301.304 1046.35 305.86 1046.35 308.609 1049.19L320.962 1061.97C322.224 1063.28 322.93 1065.02 322.93 1066.84V1091C322.93 1092.81 322.224 1094.56 320.961 1095.86L308.608 1108.64C305.859 1111.48 301.305 1111.48 298.552 1108.64L286.159 1095.87C284.892 1094.56 284.184 1092.81 284.184 1090.99V1066.84C284.184 1065.02 284.892 1063.28 286.158 1061.97Z" fill="#F8D0A3" stroke="black" stroke-width="5.17"/>
<path d="M286.158 1154.91L298.551 1142.13C301.304 1139.29 305.86 1139.3 308.609 1142.14L320.962 1154.92C322.224 1156.22 322.93 1157.97 322.93 1159.78V1183.94C322.93 1185.76 322.224 1187.5 320.961 1188.81L308.608 1201.58C305.859 1204.42 301.305 1204.43 298.552 1201.59L286.159 1188.81C284.892 1187.51 284.184 1185.76 284.184 1183.94V1159.79C284.184 1157.97 284.892 1156.22 286.158 1154.91Z" fill="#F8D0A3" stroke="black" stroke-width="5.17"/>
<path d="M306.158 1106.41L318.551 1093.62C321.304 1090.79 325.86 1090.79 328.609 1093.63L340.962 1106.41C342.224 1107.71 342.93 1109.46 342.93 1111.27V1135.44C342.93 1137.25 342.224 1139 340.961 1140.3L328.608 1153.07C325.859 1155.91 321.305 1155.92 318.552 1153.08L306.159 1140.3C304.892 1139 304.184 1137.25 304.184 1135.43V1111.28C304.184 1109.46 304.892 1107.71 306.158 1106.41Z" fill="#F8D0A3" stroke="black" stroke-width="5.17"/>
<path d="M306.158 1199.35L318.551 1186.57C321.304 1183.73 325.86 1183.73 328.609 1186.58L340.962 1199.35C342.224 1200.66 342.93 1202.4 342.93 1204.22V1228.38C342.93 1230.2 342.224 1231.94 340.961 1233.25L328.608 1246.02C325.859 1248.86 321.305 1248.86 318.552 1246.03L306.159 1233.25C304.892 1231.94 304.184 1230.19 304.184 1228.38V1204.22C304.184 1202.41 304.892 1200.66 306.158 1199.35Z" fill="#F8D0A3" stroke="black" stroke-width="5.17"/>
<path d="M324.904 1061.97L337.297 1049.19C340.05 1046.35 344.606 1046.35 347.355 1049.19L359.708 1061.97C360.97 1063.28 361.676 1065.02 361.676 1066.84V1091C361.676 1092.81 360.97 1094.56 359.707 1095.86L347.354 1108.64C344.605 1111.48 340.051 1111.48 337.298 1108.64L324.905 1095.87C323.638 1094.56 322.93 1092.81 322.93 1090.99V1066.84C322.93 1065.02 323.638 1063.28 324.904 1061.97Z" fill="#F8D0A3" stroke="black" stroke-width="5.17"/>
<path d="M324.904 1154.91L337.297 1142.13C340.05 1139.29 344.606 1139.3 347.355 1142.14L359.708 1154.92C360.97 1156.22 361.676 1157.97 361.676 1159.78V1183.94C361.676 1185.76 360.97 1187.5 359.707 1188.81L347.354 1201.58C344.605 1204.42 340.051 1204.43 337.298 1201.59L324.905 1188.81C323.638 1187.51 322.93 1185.76 322.93 1183.94V1159.79C322.93 1157.97 323.638 1156.22 324.904 1154.91Z" fill="#F8D0A3" stroke="black" stroke-width="5.17"/>
<path d="M344.904 1199.35L357.297 1186.57C360.05 1183.73 364.606 1183.73 367.355 1186.58L379.708 1199.35C380.97 1200.66 381.676 1202.4 381.676 1204.22V1228.38C381.676 1230.2 380.97 1231.94 379.707 1233.25L367.354 1246.02C364.605 1248.86 360.051 1248.86 357.298 1246.03L344.905 1233.25C343.638 1231.94 342.93 1230.19 342.93 1228.38V1204.22C342.93 1202.41 343.638 1200.66 344.904 1199.35Z" fill="#F8D0A3" stroke="black" stroke-width="5.17"/>
<path d="M208.666 509.497L221.059 496.714C223.812 493.875 228.368 493.878 231.117 496.721L243.47 509.498C244.732 510.803 245.438 512.548 245.438 514.364V538.525C245.438 540.341 244.732 542.087 243.469 543.392L231.116 556.163C228.367 559.004 223.812 559.007 221.06 556.17L208.667 543.393C207.4 542.087 206.691 540.339 206.691 538.52V514.369C206.691 512.55 207.4 510.803 208.666 509.497Z" fill="#F8D0A3" stroke="black" stroke-width="5.17"/>
<path d="M208.666 602.442L221.059 589.66C223.812 586.82 228.368 586.823 231.117 589.667L243.47 602.443C244.732 603.749 245.438 605.493 245.438 607.309V631.471C245.438 633.287 244.732 635.032 243.469 636.337L231.116 649.108C228.367 651.949 223.812 651.953 221.06 649.115L208.667 636.339C207.4 635.033 206.691 633.284 206.691 631.465V607.315C206.691 605.496 207.4 603.748 208.666 602.442Z" fill="#F8D0A3" stroke="black" stroke-width="5.17"/>
<path d="M228.666 553.934L241.059 541.152C243.812 538.312 248.368 538.316 251.117 541.159L263.47 553.935C264.732 555.241 265.438 556.985 265.438 558.801V582.963C265.438 584.779 264.732 586.524 263.469 587.83L251.116 600.6C248.367 603.442 243.812 603.445 241.06 600.607L228.667 587.831C227.4 586.525 226.691 584.777 226.691 582.957V558.807C226.691 556.988 227.4 555.24 228.666 553.934Z" fill="#F8D0A3" stroke="black" stroke-width="5.17"/>
<path d="M228.666 646.879L241.059 634.097C243.812 631.258 248.368 631.261 251.117 634.104L263.47 646.881C264.732 648.186 265.438 649.931 265.438 651.746V675.908C265.438 677.724 264.732 679.469 263.469 680.775L251.116 693.545C248.367 696.387 243.812 696.39 241.06 693.552L228.667 680.776C227.4 679.47 226.691 677.722 226.691 675.902V651.752C226.691 649.933 227.4 648.185 228.666 646.879Z" fill="#F8D0A3" stroke="black" stroke-width="5.17"/>
<path d="M247.412 509.497L259.805 496.714C262.558 493.875 267.114 493.878 269.863 496.721L282.216 509.498C283.478 510.803 284.184 512.548 284.184 514.364V538.525C284.184 540.341 283.478 542.087 282.215 543.392L269.862 556.163C267.113 559.004 262.559 559.007 259.806 556.17L247.413 543.393C246.146 542.087 245.438 540.339 245.438 538.52V514.369C245.438 512.55 246.146 510.803 247.412 509.497Z" fill="#F8D0A3" stroke="black" stroke-width="5.17"/>
<path d="M247.412 602.442L259.805 589.66C262.558 586.82 267.114 586.823 269.863 589.667L282.216 602.443C283.478 603.749 284.184 605.493 284.184 607.309V631.471C284.184 633.287 283.478 635.032 282.215 636.337L269.862 649.108C267.113 651.949 262.559 651.953 259.806 649.115L247.413 636.339C246.146 635.033 245.438 633.284 245.438 631.465V607.315C245.438 605.496 246.146 603.748 247.412 602.442Z" fill="#F8D0A3" stroke="black" stroke-width="5.17"/>
<path d="M267.412 553.934L279.805 541.152C282.558 538.312 287.114 538.316 289.863 541.159L302.216 553.935C303.478 555.241 304.184 556.985 304.184 558.801V582.963C304.184 584.779 303.478 586.524 302.215 587.83L289.862 600.6C287.113 603.442 282.559 603.445 279.806 600.607L267.413 587.831C266.146 586.525 265.438 584.777 265.438 582.957V558.807C265.438 556.988 266.146 555.24 267.412 553.934Z" fill="#F8D0A3" stroke="black" stroke-width="5.17"/>
<path d="M267.412 646.879L279.805 634.097C282.558 631.258 287.114 631.261 289.863 634.104L302.216 646.881C303.478 648.186 304.184 649.931 304.184 651.746V675.908C304.184 677.724 303.478 679.469 302.215 680.775L289.862 693.545C287.113 696.387 282.559 696.39 279.806 693.552L267.413 680.776C266.146 679.47 265.438 677.722 265.438 675.902V651.752C265.438 649.933 266.146 648.185 267.412 646.879Z" fill="#F8D0A3" stroke="black" stroke-width="5.17"/>
<path d="M286.158 509.497L298.551 496.714C301.304 493.875 305.86 493.878 308.609 496.721L320.962 509.498C322.224 510.803 322.93 512.548 322.93 514.364V538.525C322.93 540.341 322.224 542.087 320.961 543.392L308.608 556.163C305.859 559.004 301.305 559.007 298.552 556.17L286.159 543.393C284.892 542.087 284.184 540.339 284.184 538.52V514.369C284.184 512.55 284.892 510.803 286.158 509.497Z" fill="#F8D0A3" stroke="black" stroke-width="5.17"/>
<path d="M286.158 602.442L298.551 589.66C301.304 586.82 305.86 586.823 308.609 589.667L320.962 602.443C322.224 603.749 322.93 605.493 322.93 607.309V631.471C322.93 633.287 322.224 635.032 320.961 636.337L308.608 649.108C305.859 651.949 301.305 651.953 298.552 649.115L286.159 636.339C284.892 635.033 284.184 633.284 284.184 631.465V607.315C284.184 605.496 284.892 603.748 286.158 602.442Z" fill="#F8D0A3" stroke="black" stroke-width="5.17"/>
<path d="M306.158 646.879L318.551 634.097C321.304 631.258 325.86 631.261 328.609 634.104L340.962 646.881C342.224 648.186 342.93 649.931 342.93 651.746V675.908C342.93 677.724 342.224 679.469 340.961 680.775L328.608 693.545C325.859 696.387 321.305 696.39 318.552 693.552L306.159 680.776C304.892 679.47 304.184 677.722 304.184 675.902V651.752C304.184 649.933 304.892 648.185 306.158 646.879Z" fill="#F8D0A3" stroke="black" stroke-width="5.17"/>
<path d="M324.904 602.442L337.297 589.66C340.05 586.82 344.606 586.823 347.355 589.667L359.708 602.443C360.97 603.749 361.676 605.493 361.676 607.309V631.471C361.676 633.287 360.97 635.032 359.707 636.337L347.354 649.108C344.605 651.949 340.051 651.953 337.298 649.115L324.905 636.339C323.638 635.033 322.93 633.284 322.93 631.465V607.315C322.93 605.496 323.638 603.748 324.904 602.442Z" fill="#F8D0A3" stroke="black" stroke-width="5.17"/>
<path d="M228.666 831.465L241.059 818.683C243.812 815.844 248.368 815.847 251.117 818.69L263.47 831.467C264.732 832.772 265.438 834.517 265.438 836.332V860.494C265.438 862.31 264.732 864.055 263.469 865.361L251.116 878.131C248.367 880.973 243.812 880.976 241.06 878.138L228.667 865.362C227.4 864.056 226.691 862.308 226.691 860.488V836.338C226.691 834.519 227.4 832.771 228.666 831.465Z" fill="#F8D0A3" stroke="black" stroke-width="5.17"/>
<path d="M306.158 738.52L318.551 725.738C321.304 722.898 325.86 722.902 328.609 725.745L340.962 738.521C342.224 739.827 342.93 741.571 342.93 743.387V767.549C342.93 769.365 342.224 771.11 340.961 772.415L328.608 785.186C325.859 788.028 321.305 788.031 318.552 785.193L306.159 772.417C304.892 771.111 304.184 769.363 304.184 767.543V743.393C304.184 741.574 304.892 739.826 306.158 738.52Z" fill="#F8D0A3" stroke="black" stroke-width="5.17"/>
<path d="M306.158 831.465L318.551 818.683C321.304 815.844 325.86 815.847 328.609 818.69L340.962 831.467C342.224 832.772 342.93 834.517 342.93 836.332V860.494C342.93 862.31 342.224 864.055 340.961 865.361L328.608 878.131C325.859 880.973 321.305 880.976 318.552 878.138L306.159 865.362C304.892 864.056 304.184 862.308 304.184 860.488V836.338C304.184 834.519 304.892 832.771 306.158 831.465Z" fill="#F8D0A3" stroke="black" stroke-width="5.17"/>
<path d="M324.904 694.083L337.297 681.3C340.05 678.461 344.606 678.464 347.355 681.307L359.708 694.084C360.97 695.389 361.676 697.134 361.676 698.95V723.111C361.676 724.927 360.97 726.673 359.707 727.978L347.354 740.749C344.605 743.59 340.051 743.593 337.298 740.756L324.905 727.979C323.638 726.673 322.93 724.925 322.93 723.105V698.955C322.93 697.136 323.638 695.389 324.904 694.083Z" fill="#F8D0A3" stroke="black" stroke-width="5.17"/>
<path d="M324.904 787.028L337.297 774.246C340.05 771.406 344.606 771.409 347.355 774.253L359.708 787.029C360.97 788.335 361.676 790.079 361.676 791.895V816.056C361.676 817.873 360.97 819.618 359.707 820.923L347.354 833.694C344.605 836.535 340.051 836.539 337.298 833.701L324.905 820.925C323.638 819.618 322.93 817.87 322.93 816.051V791.901C322.93 790.081 323.638 788.334 324.904 787.028Z" fill="#F8D0A3" stroke="black" stroke-width="5.17"/>
<path d="M344.904 738.52L357.297 725.738C360.05 722.898 364.606 722.902 367.355 725.745L379.708 738.521C380.97 739.827 381.676 741.571 381.676 743.387V767.549C381.676 769.365 380.97 771.11 379.707 772.415L367.354 785.186C364.605 788.028 360.051 788.031 357.298 785.193L344.905 772.417C343.638 771.111 342.93 769.363 342.93 767.543V743.393C342.93 741.574 343.638 739.826 344.904 738.52Z" fill="#F8D0A3" stroke="black" stroke-width="5.17"/>
<path d="M344.904 831.465L357.297 818.683C360.05 815.844 364.606 815.847 367.355 818.69L379.708 831.467C380.97 832.772 381.676 834.517 381.676 836.332V860.494C381.676 862.31 380.97 864.055 379.707 865.361L367.354 878.131C364.605 880.973 360.051 880.976 357.298 878.138L344.905 865.362C343.638 864.056 342.93 862.308 342.93 860.488V836.338C342.93 834.519 343.638 832.771 344.904 831.465Z" fill="#F8D0A3" stroke="black" stroke-width="5.17"/>
<path d="M208.666 1339.62L221.059 1326.84C223.812 1324 228.368 1324 231.117 1326.84L243.47 1339.62C244.732 1340.92 245.438 1342.67 245.438 1344.48V1368.65C245.438 1370.46 244.732 1372.21 243.469 1373.51L231.116 1386.28C228.367 1389.13 223.812 1389.13 221.06 1386.29L208.667 1373.51C207.4 1372.21 206.691 1370.46 206.691 1368.64V1344.49C206.691 1342.67 207.4 1340.92 208.666 1339.62Z" fill="#F8D0A3" stroke="black" stroke-width="5.17"/>
<path d="M228.666 1291.11L241.059 1278.33C243.812 1275.49 248.368 1275.49 251.117 1278.33L263.47 1291.11C264.732 1292.42 265.438 1294.16 265.438 1295.98V1320.14C265.438 1321.95 264.732 1323.7 263.469 1325.01L251.116 1337.78C248.367 1340.62 243.812 1340.62 241.06 1337.78L228.667 1325.01C227.4 1323.7 226.691 1321.95 226.691 1320.13V1295.98C226.691 1294.16 227.4 1292.42 228.666 1291.11Z" fill="#F8D0A3" stroke="black" stroke-width="5.17"/>
<path d="M228.666 1384.06L241.059 1371.27C243.812 1368.43 248.368 1368.44 251.117 1371.28L263.47 1384.06C264.732 1385.36 265.438 1387.11 265.438 1388.92V1413.08C265.438 1414.9 264.732 1416.65 263.469 1417.95L251.116 1430.72C248.367 1433.56 243.812 1433.57 241.06 1430.73L228.667 1417.95C227.4 1416.65 226.691 1414.9 226.691 1413.08V1388.93C226.691 1387.11 227.4 1385.36 228.666 1384.06Z" fill="#F8D0A3" stroke="black" stroke-width="5.17"/>
<path d="M247.412 1246.67L259.805 1233.89C262.558 1231.05 267.114 1231.05 269.863 1233.9L282.216 1246.67C283.478 1247.98 284.184 1249.72 284.184 1251.54V1275.7C284.184 1277.52 283.478 1279.26 282.215 1280.57L269.862 1293.34C267.113 1296.18 262.559 1296.18 259.806 1293.35L247.413 1280.57C246.146 1279.26 245.438 1277.51 245.438 1275.7V1251.55C245.438 1249.73 246.146 1247.98 247.412 1246.67Z" fill="#F8D0A3" stroke="black" stroke-width="5.17"/>
<path d="M247.412 1339.62L259.805 1326.84C262.558 1324 267.114 1324 269.863 1326.84L282.216 1339.62C283.478 1340.92 284.184 1342.67 284.184 1344.48V1368.65C284.184 1370.46 283.478 1372.21 282.215 1373.51L269.862 1386.28C267.113 1389.13 262.559 1389.13 259.806 1386.29L247.413 1373.51C246.146 1372.21 245.438 1370.46 245.438 1368.64V1344.49C245.438 1342.67 246.146 1340.92 247.412 1339.62Z" fill="#F8D0A3" stroke="black" stroke-width="5.17"/>
<path d="M267.412 1384.06L279.805 1371.27C282.558 1368.43 287.114 1368.44 289.863 1371.28L302.216 1384.06C303.478 1385.36 304.184 1387.11 304.184 1388.92V1413.08C304.184 1414.9 303.478 1416.65 302.215 1417.95L289.862 1430.72C287.113 1433.56 282.559 1433.57 279.806 1430.73L267.413 1417.95C266.146 1416.65 265.438 1414.9 265.438 1413.08V1388.93C265.438 1387.11 266.146 1385.36 267.412 1384.06Z" fill="#F8D0A3" stroke="black" stroke-width="5.17"/>
<path d="M306.158 1384.06L318.551 1371.27C321.304 1368.43 325.86 1368.44 328.609 1371.28L340.962 1384.06C342.224 1385.36 342.93 1387.11 342.93 1388.92V1413.08C342.93 1414.9 342.224 1416.65 340.961 1417.95L328.608 1430.72C325.859 1433.56 321.305 1433.57 318.552 1430.73L306.159 1417.95C304.892 1416.65 304.184 1414.9 304.184 1413.08V1388.93C304.184 1387.11 304.892 1385.36 306.158 1384.06Z" fill="#F8D0A3" stroke="black" stroke-width="5.17"/>
<path d="M324.904 1246.67L337.297 1233.89C340.05 1231.05 344.606 1231.05 347.355 1233.9L359.708 1246.67C360.97 1247.98 361.676 1249.72 361.676 1251.54V1275.7C361.676 1277.52 360.97 1279.26 359.707 1280.57L347.354 1293.34C344.605 1296.18 340.051 1296.18 337.298 1293.35L324.905 1280.57C323.638 1279.26 322.93 1277.51 322.93 1275.7V1251.55C322.93 1249.73 323.638 1247.98 324.904 1246.67Z" fill="#F8D0A3" stroke="black" stroke-width="5.17"/>
<path d="M324.904 1339.62L337.297 1326.84C340.05 1324 344.606 1324 347.355 1326.84L359.708 1339.62C360.97 1340.92 361.676 1342.67 361.676 1344.48V1368.65C361.676 1370.46 360.97 1372.21 359.707 1373.51L347.354 1386.28C344.605 1389.13 340.051 1389.13 337.298 1386.29L324.905 1373.51C323.638 1372.21 322.93 1370.46 322.93 1368.64V1344.49C322.93 1342.67 323.638 1340.92 324.904 1339.62Z" fill="#F8D0A3" stroke="black" stroke-width="5.17"/>
<path d="M344.904 1291.11L357.297 1278.33C360.05 1275.49 364.606 1275.49 367.355 1278.33L379.708 1291.11C380.97 1292.42 381.676 1294.16 381.676 1295.98V1320.14C381.676 1321.95 380.97 1323.7 379.707 1325.01L367.354 1337.78C364.605 1340.62 360.051 1340.62 357.298 1337.78L344.905 1325.01C343.638 1323.7 342.93 1321.95 342.93 1320.13V1295.98C342.93 1294.16 343.638 1292.42 344.904 1291.11Z" fill="#F8D0A3" stroke="black" stroke-width="5.17"/>
<path d="M344.904 1384.06L357.297 1371.27C360.05 1368.43 364.606 1368.44 367.355 1371.28L379.708 1384.06C380.97 1385.36 381.676 1387.11 381.676 1388.92V1413.08C381.676 1414.9 380.97 1416.65 379.707 1417.95L367.354 1430.72C364.605 1433.56 360.051 1433.57 357.298 1430.73L344.905 1417.95C343.638 1416.65 342.93 1414.9 342.93 1413.08V1388.93C342.93 1387.11 343.638 1385.36 344.904 1384.06Z" fill="#F8D0A3" stroke="black" stroke-width="5.17"/>
<path d="M267.412 1568.64L279.805 1555.86C282.558 1553.02 287.114 1553.02 289.863 1555.87L302.216 1568.64C303.478 1569.95 304.184 1571.69 304.184 1573.51V1597.67C304.184 1599.49 303.478 1601.23 302.215 1602.54L289.862 1615.31C287.113 1618.15 282.559 1618.15 279.806 1615.31L267.413 1602.54C266.146 1601.23 265.438 1599.48 265.438 1597.66V1573.51C265.438 1571.69 266.146 1569.95 267.412 1568.64Z" fill="#F8D0A3" stroke="black" stroke-width="5.17"/>
<path d="M286.158 1431.26L298.551 1418.48C301.304 1415.64 305.86 1415.64 308.609 1418.48L320.962 1431.26C322.224 1432.57 322.93 1434.31 322.93 1436.13V1460.29C322.93 1462.1 322.224 1463.85 320.961 1465.15L308.608 1477.92C305.859 1480.77 301.305 1480.77 298.552 1477.93L286.159 1465.16C284.892 1463.85 284.184 1462.1 284.184 1460.28V1436.13C284.184 1434.31 284.892 1432.56 286.158 1431.26Z" fill="#F8D0A3" stroke="black" stroke-width="5.17"/>
<path d="M306.158 1568.64L318.551 1555.86C321.304 1553.02 325.86 1553.02 328.609 1555.87L340.962 1568.64C342.224 1569.95 342.93 1571.69 342.93 1573.51V1597.67C342.93 1599.49 342.224 1601.23 340.961 1602.54L328.608 1615.31C325.859 1618.15 321.305 1618.15 318.552 1615.31L306.159 1602.54C304.892 1601.23 304.184 1599.48 304.184 1597.66V1573.51C304.184 1571.69 304.892 1569.95 306.158 1568.64Z" fill="#F8D0A3" stroke="black" stroke-width="5.17"/>
<path d="M324.904 1431.26L337.297 1418.48C340.05 1415.64 344.606 1415.64 347.355 1418.48L359.708 1431.26C360.97 1432.57 361.676 1434.31 361.676 1436.13V1460.29C361.676 1462.1 360.97 1463.85 359.707 1465.15L347.354 1477.92C344.605 1480.77 340.051 1480.77 337.298 1477.93L324.905 1465.16C323.638 1463.85 322.93 1462.1 322.93 1460.28V1436.13C322.93 1434.31 323.638 1432.56 324.904 1431.26Z" fill="#F8D0A3" stroke="black" stroke-width="5.17"/>
<path d="M324.904 1524.2L337.297 1511.42C340.05 1508.58 344.606 1508.59 347.355 1511.43L359.708 1524.21C360.97 1525.51 361.676 1527.25 361.676 1529.07V1553.23C361.676 1555.05 360.97 1556.79 359.707 1558.1L347.354 1570.87C344.605 1573.71 340.051 1573.71 337.298 1570.88L324.905 1558.1C323.638 1556.79 322.93 1555.05 322.93 1553.23V1529.08C322.93 1527.26 323.638 1525.51 324.904 1524.2Z" fill="#F8D0A3" stroke="black" stroke-width="5.17"/>
<path d="M344.904 1475.7L357.297 1462.91C360.05 1460.07 364.606 1460.08 367.355 1462.92L379.708 1475.7C380.97 1477 381.676 1478.75 381.676 1480.56V1504.72C381.676 1506.54 380.97 1508.29 379.707 1509.59L367.354 1522.36C364.605 1525.2 360.051 1525.21 357.298 1522.37L344.905 1509.59C343.638 1508.29 342.93 1506.54 342.93 1504.72V1480.57C342.93 1478.75 343.638 1477 344.904 1475.7Z" fill="#F8D0A3" stroke="black" stroke-width="5.17"/>
<path d="M344.904 1568.64L357.297 1555.86C360.05 1553.02 364.606 1553.02 367.355 1555.87L379.708 1568.64C380.97 1569.95 381.676 1571.69 381.676 1573.51V1597.67C381.676 1599.49 380.97 1601.23 379.707 1602.54L367.354 1615.31C364.605 1618.15 360.051 1618.15 357.298 1615.31L344.905 1602.54C343.638 1601.23 342.93 1599.48 342.93 1597.66V1573.51C342.93 1571.69 343.638 1569.95 344.904 1568.64Z" fill="#F8D0A3" stroke="black" stroke-width="5.17"/>
<path d="M63.0398 737.555H71.4398C74.1932 737.555 76.3865 738.278 78.0198 739.725C79.6765 741.148 80.5048 743.096 80.5048 745.57C80.5048 748.043 79.6765 750.003 78.0198 751.45C76.3865 752.873 74.1932 753.585 71.4398 753.585H66.3998V762.055H63.0398L63.0398 737.555ZM71.5098 750.505C75.2665 750.505 77.1448 748.86 77.1448 745.57C77.1448 742.28 75.2665 740.635 71.5098 740.635H66.3998V750.505H71.5098ZM92.0669 737.555H95.4269L104.247 762.055H100.677L99.0319 757.295H88.4269L86.8169 762.055H83.2469L92.0669 737.555ZM97.9819 754.215L94.2019 743.19L93.7469 740.565L93.2919 743.19L89.4769 754.215H97.9819ZM110.885 737.555H114.245V747.985L123.59 737.555H127.545L117.185 749.105L128.035 762.055H123.695L114.245 750.785V762.055H110.885V737.555ZM143.911 762.405C141.648 762.405 139.583 761.88 137.716 760.83C135.873 759.756 134.415 758.263 133.341 756.35C132.268 754.436 131.731 752.255 131.731 749.805C131.731 747.355 132.268 745.173 133.341 743.26C134.415 741.346 135.873 739.865 137.716 738.815C139.583 737.741 141.648 737.205 143.911 737.205C146.175 737.205 148.228 737.741 150.071 738.815C151.938 739.865 153.408 741.346 154.481 743.26C155.555 745.173 156.091 747.355 156.091 749.805C156.091 752.255 155.555 754.436 154.481 756.35C153.408 758.263 151.938 759.756 150.071 760.83C148.228 761.88 146.175 762.405 143.911 762.405ZM143.911 759.325C145.661 759.325 147.201 758.928 148.531 758.135C149.861 757.318 150.876 756.198 151.576 754.775C152.3 753.328 152.661 751.671 152.661 749.805C152.661 747.938 152.3 746.293 151.576 744.87C150.876 743.423 149.861 742.303 148.531 741.51C147.201 740.693 145.661 740.285 143.911 740.285C142.161 740.285 140.621 740.693 139.291 741.51C137.961 742.303 136.935 743.423 136.211 744.87C135.511 746.293 135.161 747.938 135.161 749.805C135.161 751.671 135.511 753.328 136.211 754.775C136.935 756.198 137.961 757.318 139.291 758.135C140.621 758.928 142.161 759.325 143.911 759.325ZM163.788 737.555H172.888C174.451 737.555 175.805 737.823 176.948 738.36C178.115 738.896 179.001 739.631 179.608 740.565C180.238 741.498 180.553 742.548 180.553 743.715C180.553 746.001 179.491 747.74 177.368 748.93C178.605 749.28 179.678 749.991 180.588 751.065C181.498 752.138 181.953 753.433 181.953 754.95C181.953 757.12 181.183 758.846 179.643 760.13C178.126 761.413 176.061 762.055 173.448 762.055H163.788V737.555ZM173.203 747.915C175.98 747.915 177.368 746.701 177.368 744.275C177.368 741.848 175.98 740.635 173.203 740.635H167.148V747.915H173.203ZM174.358 758.975C175.735 758.975 176.808 758.636 177.578 757.96C178.371 757.26 178.768 756.268 178.768 754.985C178.768 753.701 178.371 752.721 177.578 752.045C176.808 751.345 175.735 750.995 174.358 750.995H167.148V758.975H174.358ZM192.523 737.555V746.025H197.563C200.316 746.025 202.51 746.748 204.143 748.195C205.8 749.618 206.628 751.566 206.628 754.04C206.628 756.513 205.8 758.473 204.143 759.92C202.51 761.343 200.316 762.055 197.563 762.055H189.163V737.555H192.523ZM210.828 737.555H214.188V762.055H210.828V737.555ZM192.523 758.975H197.633C201.39 758.975 203.268 757.33 203.268 754.04C203.268 750.75 201.39 749.105 197.633 749.105H192.523V758.975ZM222.604 737.555H237.269V740.635H225.964V748.265H236.324V751.345H225.964V758.975H237.654V762.055H222.604V737.555ZM63.0398 772.555H66.3998L66.3998 782.985L75.7448 772.555H79.6998L69.3398 784.105L80.1898 797.055H75.8498L66.3998 785.785V797.055H63.0398V772.555ZM88.1977 797.405C87.7544 797.405 87.3227 797.346 86.9027 797.23C86.5061 797.113 86.1794 796.961 85.9227 796.775V793.8C86.1794 793.94 86.4711 794.056 86.7977 794.15C87.1244 794.243 87.4277 794.29 87.7077 794.29C88.3844 794.29 88.8977 793.975 89.2477 793.345C89.5977 792.715 89.8311 791.921 89.9477 790.965C90.0877 790.008 90.1927 788.725 90.2627 787.115L90.9277 772.555H107.658V797.055H104.298V775.635H94.0427L93.3077 789.355C93.1911 791.525 92.7944 793.415 92.1177 795.025C91.4644 796.611 90.1577 797.405 88.1977 797.405ZM116.046 772.555H130.711V775.635H119.406V783.265H129.766V786.345H119.406V793.975H131.096V797.055H116.046V772.555ZM144.034 775.635H137.804V772.555H153.624V775.635H147.394V797.055H144.034V775.635ZM160.848 772.555H164.208V782.985L173.553 772.555H177.508L167.148 784.105L177.998 797.055H173.658L164.208 785.785V797.055H160.848V772.555ZM185.061 772.555H188.421V791.98L199.691 772.555H203.471V797.055H200.111V777.63L188.841 797.055H185.061V772.555Z" fill="black"/>
</svg>
