<svg width="469" height="821" viewBox="0 0 469 821" fill="none" xmlns="http://www.w3.org/2000/svg">
<g clip-path="url(#clip0_478_1104)">
<path fill-rule="evenodd" clip-rule="evenodd" d="M279.52 357.1L267.127 369.882C265.861 371.188 265.153 372.936 265.153 374.755V397.681L264.556 397.827L226.679 402.409C225.08 402.603 223.596 403.342 222.479 404.501L209.759 417.703C208.502 419.007 207.799 420.748 207.799 422.56V445.96C207.799 446.637 207.897 447.309 208.09 447.958L247.633 580.776C249.242 586.18 256.253 587.561 259.792 583.171L324.991 502.291C325.994 501.047 326.541 499.496 326.541 497.898V391.614C326.541 387.076 322.29 383.737 317.882 384.813L303.899 388.225V374.749C303.899 372.934 303.194 371.189 301.932 369.884L289.579 357.107C286.83 354.264 282.273 354.261 279.52 357.1Z" fill="#FC8B75"/>
<path d="M267.127 369.882L265.271 368.083L265.271 368.083L267.127 369.882ZM279.52 357.1L281.376 358.899L281.376 358.899L279.52 357.1ZM265.153 397.681L265.766 400.193L267.738 399.711V397.681H265.153ZM264.556 397.827L264.867 400.393L265.02 400.375L265.169 400.338L264.556 397.827ZM226.679 402.409L226.989 404.975L226.989 404.975L226.679 402.409ZM222.479 404.501L224.34 406.295L224.34 406.295L222.479 404.501ZM209.759 417.703L211.62 419.496L211.62 419.496L209.759 417.703ZM208.09 447.958L210.568 447.22L210.568 447.22L208.09 447.958ZM247.633 580.776L245.155 581.513L245.155 581.513L247.633 580.776ZM259.792 583.171L261.804 584.794L261.804 584.794L259.792 583.171ZM324.991 502.291L322.979 500.669L322.979 500.669L324.991 502.291ZM317.882 384.813L318.495 387.324L318.495 387.324L317.882 384.813ZM303.899 388.225H301.314V391.517L304.512 390.737L303.899 388.225ZM301.932 369.884L303.79 368.087L303.79 368.087L301.932 369.884ZM289.579 357.107L287.72 358.904L287.72 358.904L289.579 357.107ZM268.983 371.682L281.376 358.899L277.664 355.301L265.271 368.083L268.983 371.682ZM267.738 374.755C267.738 373.608 268.185 372.506 268.983 371.682L265.271 368.083C263.538 369.871 262.568 372.264 262.568 374.755H267.738ZM267.738 397.681V374.755H262.568V397.681H267.738ZM265.169 400.338L265.766 400.193L264.54 395.17L263.943 395.316L265.169 400.338ZM226.989 404.975L264.867 400.393L264.246 395.261L226.368 399.843L226.989 404.975ZM224.34 406.295C225.045 405.564 225.981 405.097 226.989 404.975L226.368 399.843C224.179 400.108 222.148 401.12 220.617 402.708L224.34 406.295ZM211.62 419.496L224.34 406.295L220.617 402.708L207.897 415.909L211.62 419.496ZM210.384 422.56C210.384 421.417 210.827 420.319 211.62 419.496L207.897 415.909C206.176 417.695 205.214 420.079 205.214 422.56H210.384ZM210.384 445.96V422.56H205.214V445.96H210.384ZM210.568 447.22C210.446 446.811 210.384 446.387 210.384 445.96H205.214C205.214 446.886 205.349 447.808 205.613 448.695L210.568 447.22ZM250.11 580.038L210.568 447.22L205.613 448.695L245.155 581.513L250.11 580.038ZM257.779 581.549C255.547 584.318 251.125 583.446 250.11 580.038L245.155 581.513C247.358 588.913 256.959 590.804 261.804 584.794L257.779 581.549ZM322.979 500.669L257.779 581.549L261.804 584.794L327.004 503.913L322.979 500.669ZM323.956 497.898C323.956 498.906 323.611 499.884 322.979 500.669L327.004 503.913C328.377 502.209 329.126 500.087 329.126 497.898H323.956ZM323.956 391.614V497.898H329.126V391.614H323.956ZM318.495 387.324C321.275 386.646 323.956 388.751 323.956 391.614H329.126C329.126 385.4 323.305 380.829 317.269 382.302L318.495 387.324ZM304.512 390.737L318.495 387.324L317.269 382.302L303.286 385.714L304.512 390.737ZM301.314 374.749V388.225H306.484V374.749H301.314ZM300.073 371.681C300.869 372.504 301.314 373.604 301.314 374.749H306.484C306.484 372.263 305.518 369.874 303.79 368.087L300.073 371.681ZM287.72 358.904L300.073 371.681L303.79 368.087L291.437 355.31L287.72 358.904ZM281.376 358.899C283.113 357.109 285.986 357.111 287.72 358.904L291.437 355.31C287.673 351.417 281.434 351.413 277.664 355.301L281.376 358.899Z" fill="black"/>
<path d="M208.662 510.329L221.055 497.546C223.808 494.707 228.364 494.71 231.113 497.553L243.466 510.33C244.728 511.635 245.434 513.38 245.434 515.196V539.357C245.434 541.173 244.728 542.919 243.465 544.224L231.112 556.995C228.363 559.836 223.809 559.839 221.056 557.002L208.663 544.225C207.396 542.919 206.688 541.171 206.688 539.352V515.201C206.688 513.382 207.396 511.635 208.662 510.329Z" fill="#F8D0A3" stroke="black" stroke-width="5.17"/>
<path d="M228.662 554.766L241.055 541.984C243.808 539.145 248.364 539.148 251.113 541.991L263.466 554.768C264.728 556.073 265.434 557.817 265.434 559.633V583.795C265.434 585.611 264.728 587.356 263.465 588.662L251.112 601.432C248.363 604.274 243.809 604.277 241.056 601.439L228.663 588.663C227.396 587.357 226.688 585.609 226.688 583.789V559.639C226.688 557.82 227.396 556.072 228.662 554.766Z" fill="#F8D0A3" stroke="black" stroke-width="5.17"/>
<path d="M267.412 554.766L279.805 541.984C282.558 539.145 287.114 539.148 289.863 541.991L302.216 554.768C303.478 556.073 304.184 557.817 304.184 559.633V583.795C304.184 585.611 303.478 587.356 302.215 588.662L289.862 601.432C287.113 604.274 282.559 604.277 279.806 601.439L267.413 588.663C266.146 587.357 265.438 585.609 265.438 583.789V559.639C265.438 557.82 266.146 556.072 267.412 554.766Z" fill="#F8D0A3" stroke="black" stroke-width="5.17"/>
<path d="M286.154 510.329L298.547 497.546C301.3 494.707 305.856 494.71 308.605 497.553L320.958 510.33C322.22 511.635 322.926 513.38 322.926 515.196V539.357C322.926 541.173 322.22 542.919 320.957 544.224L308.604 556.995C305.855 559.836 301.301 559.839 298.548 557.002L286.155 544.225C284.888 542.919 284.18 541.171 284.18 539.352V515.201C284.18 513.382 284.888 511.635 286.154 510.329Z" fill="#F8D0A3" stroke="black" stroke-width="5.17"/>
<path d="M306.154 461.821L318.547 449.038C321.3 446.199 325.856 446.202 328.605 449.045L340.958 461.822C342.22 463.128 342.926 464.872 342.926 466.688V490.849C342.926 492.666 342.22 494.411 340.957 495.716L328.604 508.487C325.855 511.328 321.301 511.332 318.548 508.494L306.155 495.718C304.888 494.411 304.18 492.663 304.18 490.844V466.693C304.18 464.874 304.888 463.127 306.154 461.821Z" fill="#F8D0A3" stroke="black" stroke-width="5.17"/>
<path d="M324.904 417.383L337.297 404.601C340.05 401.762 344.606 401.765 347.355 404.608L359.708 417.385C360.97 418.69 361.676 420.435 361.676 422.25V446.412C361.676 448.228 360.97 449.973 359.707 451.279L347.354 464.049C344.605 466.891 340.051 466.894 337.298 464.056L324.905 451.28C323.638 449.974 322.93 448.226 322.93 446.406V422.256C322.93 420.437 323.638 418.689 324.904 417.383Z" fill="#F8D0A3" stroke="black" stroke-width="5.17"/>
<path d="M189.295 461.821L201.688 449.038C204.44 446.199 208.997 446.202 211.746 449.045L224.099 461.822C225.361 463.128 226.066 464.872 226.066 466.688V490.849C226.066 492.666 225.36 494.411 224.098 495.716L211.745 508.487C208.996 511.328 204.441 511.332 201.689 508.494L189.296 495.718C188.029 494.411 187.32 492.663 187.32 490.844V466.693C187.32 464.874 188.028 463.127 189.295 461.821Z" fill="#F8D0A3" stroke="black" stroke-width="5.17"/>
<path d="M189.295 554.766L201.688 541.984C204.44 539.145 208.997 539.148 211.746 541.991L224.099 554.768C225.361 556.073 226.066 557.817 226.066 559.633V583.795C226.066 585.611 225.36 587.356 224.098 588.662L211.745 601.432C208.996 604.274 204.441 604.277 201.689 601.439L189.296 588.663C188.029 587.357 187.32 585.609 187.32 583.789V559.639C187.32 557.82 188.028 556.072 189.295 554.766Z" fill="#F8D0A3" stroke="black" stroke-width="5.17"/>
<path d="M152.595 554.766L164.988 541.984C167.741 539.145 172.298 539.148 175.047 541.991L187.4 554.768C188.662 556.073 189.367 557.817 189.367 559.633V583.795C189.367 585.611 188.661 587.356 187.399 588.662L175.045 601.432C172.297 604.274 167.742 604.277 164.99 601.439L152.597 588.663C151.33 587.357 150.621 585.609 150.621 583.789V559.639C150.621 557.82 151.329 556.072 152.595 554.766Z" fill="#F8D0A3" stroke="black" stroke-width="5.17"/>
<path d="M208.662 601.969L221.055 589.187C223.808 586.348 228.364 586.351 231.113 589.194L243.466 601.971C244.728 603.276 245.434 605.021 245.434 606.836V630.998C245.434 632.814 244.728 634.559 243.465 635.865L231.112 648.635C228.363 651.477 223.809 651.48 221.056 648.642L208.663 635.866C207.396 634.56 206.688 632.812 206.688 630.992V606.842C206.688 605.023 207.396 603.275 208.662 601.969Z" fill="#F8D0A3" stroke="black" stroke-width="5.17"/>
<path d="M171.966 601.969L184.36 589.187C187.112 586.348 191.669 586.351 194.418 589.194L206.771 601.971C208.033 603.276 208.738 605.021 208.738 606.836V630.998C208.738 632.814 208.032 634.559 206.77 635.865L194.417 648.635C191.668 651.477 187.113 651.48 184.361 648.642L171.968 635.866C170.701 634.56 169.992 632.812 169.992 630.992V606.842C169.992 605.023 170.7 603.275 171.966 601.969Z" fill="#F8D0A3" stroke="black" stroke-width="5.17"/>
<path d="M228.662 646.407L241.055 633.624C243.808 630.785 248.364 630.788 251.113 633.631L263.466 646.408C264.728 647.713 265.434 649.458 265.434 651.274V675.435C265.434 677.252 264.728 678.997 263.465 680.302L251.112 693.073C248.363 695.914 243.809 695.917 241.056 693.08L228.663 680.304C227.396 678.997 226.688 677.249 226.688 675.43V651.279C226.688 649.46 227.396 647.713 228.662 646.407Z" fill="#F8D0A3" stroke="black" stroke-width="5.17"/>
<path d="M247.412 601.969L259.805 589.187C262.558 586.348 267.114 586.351 269.863 589.194L282.216 601.971C283.478 603.276 284.184 605.021 284.184 606.836V630.998C284.184 632.814 283.478 634.559 282.215 635.865L269.862 648.635C267.113 651.477 262.559 651.48 259.806 648.642L247.413 635.866C246.146 634.56 245.438 632.812 245.438 630.992V606.842C245.438 605.023 246.146 603.275 247.412 601.969Z" fill="#F8D0A3" stroke="black" stroke-width="5.17"/>
<path d="M247.412 694.915L259.805 682.132C262.558 679.293 267.114 679.296 269.863 682.139L282.216 694.916C283.478 696.221 284.184 697.966 284.184 699.782V723.943C284.184 725.759 283.478 727.505 282.215 728.81L269.862 741.581C267.113 744.422 262.559 744.425 259.806 741.588L247.413 728.811C246.146 727.505 245.438 725.757 245.438 723.938V699.787C245.438 697.968 246.146 696.221 247.412 694.915Z" fill="#F8D0A3" stroke="black" stroke-width="5.17"/>
<path d="M267.412 646.407L279.805 633.624C282.558 630.785 287.114 630.788 289.863 633.631L302.216 646.408C303.478 647.713 304.184 649.458 304.184 651.274V675.435C304.184 677.252 303.478 678.997 302.215 680.302L289.862 693.073C287.113 695.914 282.559 695.917 279.806 693.08L267.413 680.304C266.146 678.997 265.438 677.249 265.438 675.43V651.279C265.438 649.46 266.146 647.713 267.412 646.407Z" fill="#F8D0A3" stroke="black" stroke-width="5.17"/>
<path d="M267.412 739.352L279.805 726.57C282.558 723.73 287.114 723.734 289.863 726.577L302.216 739.353C303.478 740.659 304.184 742.403 304.184 744.219V768.381C304.184 770.197 303.478 771.942 302.215 773.247L289.862 786.018C287.113 788.86 282.559 788.863 279.806 786.025L267.413 773.249C266.146 771.943 265.438 770.195 265.438 768.375V744.225C265.438 742.406 266.146 740.658 267.412 739.352Z" fill="#F8D0A3" stroke="black" stroke-width="5.17"/>
<path d="M286.154 601.969L298.547 589.187C301.3 586.348 305.856 586.351 308.605 589.194L320.958 601.971C322.22 603.276 322.926 605.021 322.926 606.836V630.998C322.926 632.814 322.22 634.559 320.957 635.865L308.604 648.635C305.855 651.477 301.301 651.48 298.548 648.642L286.155 635.866C284.888 634.56 284.18 632.812 284.18 630.992V606.842C284.18 605.023 284.888 603.275 286.154 601.969Z" fill="#F8D0A3" stroke="black" stroke-width="5.17"/>
<path d="M286.154 694.915L298.547 682.132C301.3 679.293 305.856 679.296 308.605 682.139L320.958 694.916C322.22 696.221 322.926 697.966 322.926 699.782V723.943C322.926 725.759 322.22 727.505 320.957 728.81L308.604 741.581C305.855 744.422 301.301 744.425 298.548 741.588L286.155 728.811C284.888 727.505 284.18 725.757 284.18 723.938V699.787C284.18 697.968 284.888 696.221 286.154 694.915Z" fill="#F8D0A3" stroke="black" stroke-width="5.17"/>
<path d="M306.154 646.407L318.547 633.624C321.3 630.785 325.856 630.788 328.605 633.631L340.958 646.408C342.22 647.713 342.926 649.458 342.926 651.274V675.435C342.926 677.252 342.22 678.997 340.957 680.302L328.604 693.073C325.855 695.914 321.301 695.917 318.548 693.08L306.155 680.304C304.888 678.997 304.18 677.249 304.18 675.43V651.279C304.18 649.46 304.888 647.713 306.154 646.407Z" fill="#F8D0A3" stroke="black" stroke-width="5.17"/>
<path d="M324.904 601.969L337.297 589.187C340.05 586.348 344.606 586.351 347.355 589.194L359.708 601.971C360.97 603.276 361.676 605.021 361.676 606.836V630.998C361.676 632.814 360.97 634.559 359.707 635.865L347.354 648.635C344.605 651.477 340.051 651.48 337.298 648.642L324.905 635.866C323.638 634.56 322.93 632.812 322.93 630.992V606.842C322.93 605.023 323.638 603.275 324.904 601.969Z" fill="#F8D0A3" stroke="black" stroke-width="5.17"/>
<path d="M208.666 49.4967L221.059 36.7143C223.812 33.875 228.368 33.8782 231.117 36.7213L243.47 49.498C244.732 50.8033 245.438 52.5479 245.438 54.3636V78.5252C245.438 80.3414 244.732 82.0866 243.469 83.392L231.116 96.1626C228.367 99.0041 223.812 99.0073 221.06 96.1696L208.667 83.3933C207.4 82.0872 206.691 80.3391 206.691 78.5195V54.3693C206.691 52.5502 207.4 50.8026 208.666 49.4967Z" fill="#F8D0A3" stroke="black" stroke-width="5.17"/>
<path d="M208.666 142.442L221.059 129.66C223.812 126.82 228.368 126.823 231.117 129.667L243.47 142.443C244.732 143.749 245.438 145.493 245.438 147.309V171.471C245.438 173.287 244.732 175.032 243.469 176.337L231.116 189.108C228.367 191.949 223.812 191.953 221.06 189.115L208.667 176.339C207.4 175.033 206.691 173.284 206.691 171.465V147.315C206.691 145.496 207.4 143.748 208.666 142.442Z" fill="#F8D0A3" stroke="black" stroke-width="5.17"/>
<path d="M228.666 93.9342L241.059 81.1518C243.812 78.3125 248.368 78.3157 251.117 81.1588L263.47 93.9355C264.732 95.2408 265.438 96.9854 265.438 98.8011V122.963C265.438 124.779 264.732 126.524 263.469 127.83L251.116 140.6C248.367 143.442 243.812 143.445 241.06 140.607L228.667 127.831C227.4 126.525 226.691 124.777 226.691 122.957V98.8068C226.691 96.9877 227.4 95.2401 228.666 93.9342Z" fill="#F8D0A3" stroke="black" stroke-width="5.17"/>
<path d="M228.666 186.879L241.059 174.097C243.812 171.258 248.368 171.261 251.117 174.104L263.47 186.881C264.732 188.186 265.438 189.931 265.438 191.746V215.908C265.438 217.724 264.732 219.469 263.469 220.775L251.116 233.545C248.367 236.387 243.812 236.39 241.06 233.552L228.667 220.776C227.4 219.47 226.691 217.722 226.691 215.902V191.752C226.691 189.933 227.4 188.185 228.666 186.879Z" fill="#F8D0A3" stroke="black" stroke-width="5.17"/>
<path d="M247.412 142.442L259.805 129.66C262.558 126.82 267.114 126.823 269.863 129.667L282.216 142.443C283.478 143.749 284.184 145.493 284.184 147.309V171.471C284.184 173.287 283.478 175.032 282.215 176.337L269.862 189.108C267.113 191.949 262.559 191.953 259.806 189.115L247.413 176.339C246.146 175.033 245.438 173.284 245.438 171.465V147.315C245.438 145.496 246.146 143.748 247.412 142.442Z" fill="#F8D0A3" stroke="black" stroke-width="5.17"/>
<path d="M267.412 93.9342L279.805 81.1518C282.558 78.3125 287.114 78.3157 289.863 81.1588L302.216 93.9355C303.478 95.2408 304.184 96.9854 304.184 98.8011V122.963C304.184 124.779 303.478 126.524 302.215 127.83L289.862 140.6C287.113 143.442 282.559 143.445 279.806 140.607L267.413 127.831C266.146 126.525 265.438 124.777 265.438 122.957V98.8068C265.438 96.9877 266.146 95.2401 267.412 93.9342Z" fill="#F8D0A3" stroke="black" stroke-width="5.17"/>
<path d="M267.412 186.879L279.805 174.097C282.558 171.258 287.114 171.261 289.863 174.104L302.216 186.881C303.478 188.186 304.184 189.931 304.184 191.746V215.908C304.184 217.724 303.478 219.469 302.215 220.775L289.862 233.545C287.113 236.387 282.559 236.39 279.806 233.552L267.413 220.776C266.146 219.47 265.438 217.722 265.438 215.902V191.752C265.438 189.933 266.146 188.185 267.412 186.879Z" fill="#F8D0A3" stroke="black" stroke-width="5.17"/>
<path d="M286.158 142.442L298.551 129.66C301.304 126.82 305.86 126.823 308.609 129.667L320.962 142.443C322.224 143.749 322.93 145.493 322.93 147.309V171.471C322.93 173.287 322.224 175.032 320.961 176.337L308.608 189.108C305.859 191.949 301.305 191.953 298.552 189.115L286.159 176.339C284.892 175.033 284.184 173.284 284.184 171.465V147.315C284.184 145.496 284.892 143.748 286.158 142.442Z" fill="#F8D0A3" stroke="black" stroke-width="5.17"/>
<path d="M306.158 186.879L318.551 174.097C321.304 171.258 325.86 171.261 328.609 174.104L340.962 186.881C342.224 188.186 342.93 189.931 342.93 191.746V215.908C342.93 217.724 342.224 219.469 340.961 220.775L328.608 233.545C325.859 236.387 321.305 236.39 318.552 233.552L306.159 220.776C304.892 219.47 304.184 217.722 304.184 215.902V191.752C304.184 189.933 304.892 188.185 306.158 186.879Z" fill="#F8D0A3" stroke="black" stroke-width="5.17"/>
<path d="M324.904 142.442L337.297 129.66C340.05 126.82 344.606 126.823 347.355 129.667L359.708 142.443C360.97 143.749 361.676 145.493 361.676 147.309V171.471C361.676 173.287 360.97 175.032 359.707 176.337L347.354 189.108C344.605 191.949 340.051 191.953 337.298 189.115L324.905 176.339C323.638 175.033 322.93 173.284 322.93 171.465V147.315C322.93 145.496 323.638 143.748 324.904 142.442Z" fill="#F8D0A3" stroke="black" stroke-width="5.17"/>
<path d="M228.666 371.465L241.059 358.683C243.812 355.844 248.368 355.847 251.117 358.69L263.47 371.467C264.732 372.772 265.438 374.517 265.438 376.332V400.494C265.438 402.31 264.732 404.055 263.469 405.361L251.116 418.131C248.367 420.973 243.812 420.976 241.06 418.138L228.667 405.362C227.4 404.056 226.691 402.308 226.691 400.488V376.338C226.691 374.519 227.4 372.771 228.666 371.465Z" fill="#F8D0A3" stroke="black" stroke-width="5.17"/>
<path d="M191.338 371.465L203.731 358.683C206.483 355.844 211.04 355.847 213.789 358.69L226.142 371.467C227.404 372.772 228.109 374.517 228.109 376.332V400.494C228.109 402.31 227.403 404.055 226.141 405.361L213.788 418.131C211.039 420.973 206.484 420.976 203.732 418.138L191.339 405.362C190.072 404.056 189.363 402.308 189.363 400.488V376.338C189.363 374.519 190.071 372.771 191.338 371.465Z" fill="#F8D0A3" stroke="black" stroke-width="5.17"/>
<path d="M171.966 418.329L184.36 405.546C187.112 402.707 191.669 402.71 194.418 405.553L206.771 418.33C208.033 419.635 208.738 421.38 208.738 423.196V447.357C208.738 449.173 208.032 450.919 206.77 452.224L194.417 464.995C191.668 467.836 187.113 467.839 184.361 465.002L171.968 452.225C170.701 450.919 169.992 449.171 169.992 447.352V423.201C169.992 421.382 170.7 419.635 171.966 418.329Z" fill="#F8D0A3" stroke="black" stroke-width="5.17"/>
<path d="M133.22 418.329L145.613 405.546C148.366 402.707 152.923 402.71 155.672 405.553L168.025 418.33C169.287 419.635 169.992 421.38 169.992 423.196V447.357C169.992 449.173 169.286 450.919 168.024 452.224L155.67 464.995C152.922 467.836 148.367 467.839 145.615 465.002L133.222 452.225C131.955 450.919 131.246 449.171 131.246 447.352V423.201C131.246 421.382 131.954 419.635 133.22 418.329Z" fill="#F8D0A3" stroke="black" stroke-width="5.17"/>
<path d="M306.158 278.52L318.551 265.738C321.304 262.898 325.86 262.902 328.609 265.745L340.962 278.521C342.224 279.827 342.93 281.571 342.93 283.387V307.549C342.93 309.365 342.224 311.11 340.961 312.415L328.608 325.186C325.859 328.028 321.305 328.031 318.552 325.193L306.159 312.417C304.892 311.111 304.184 309.363 304.184 307.543V283.393C304.184 281.574 304.892 279.826 306.158 278.52Z" fill="#F8D0A3" stroke="black" stroke-width="5.17"/>
<path d="M306.158 371.465L318.551 358.683C321.304 355.844 325.86 355.847 328.609 358.69L340.962 371.467C342.224 372.772 342.93 374.517 342.93 376.332V400.494C342.93 402.31 342.224 404.055 340.961 405.361L328.608 418.131C325.859 420.973 321.305 420.976 318.552 418.138L306.159 405.362C304.892 404.056 304.184 402.308 304.184 400.488V376.338C304.184 374.519 304.892 372.771 306.158 371.465Z" fill="#F8D0A3" stroke="black" stroke-width="5.17"/>
<path d="M324.904 234.083L337.297 221.3C340.05 218.461 344.606 218.464 347.355 221.307L359.708 234.084C360.97 235.389 361.676 237.134 361.676 238.95V263.111C361.676 264.927 360.97 266.673 359.707 267.978L347.354 280.749C344.605 283.59 340.051 283.593 337.298 280.756L324.905 267.979C323.638 266.673 322.93 264.925 322.93 263.105V238.955C322.93 237.136 323.638 235.389 324.904 234.083Z" fill="#F8D0A3" stroke="black" stroke-width="5.17"/>
<path d="M324.904 327.028L337.297 314.246C340.05 311.406 344.606 311.409 347.355 314.253L359.708 327.029C360.97 328.335 361.676 330.079 361.676 331.895V356.056C361.676 357.873 360.97 359.618 359.707 360.923L347.354 373.694C344.605 376.535 340.051 376.539 337.298 373.701L324.905 360.925C323.638 359.618 322.93 357.87 322.93 356.051V331.901C322.93 330.081 323.638 328.334 324.904 327.028Z" fill="#F8D0A3" stroke="black" stroke-width="5.17"/>
<path d="M344.904 278.52L357.297 265.738C360.05 262.898 364.606 262.902 367.355 265.745L379.708 278.521C380.97 279.827 381.676 281.571 381.676 283.387V307.549C381.676 309.365 380.97 311.11 379.707 312.415L367.354 325.186C364.605 328.028 360.051 328.031 357.298 325.193L344.905 312.417C343.638 311.111 342.93 309.363 342.93 307.543V283.393C342.93 281.574 343.638 279.826 344.904 278.52Z" fill="#F8D0A3" stroke="black" stroke-width="5.17"/>
<path d="M344.904 371.465L357.297 358.683C360.05 355.844 364.606 355.847 367.355 358.69L379.708 371.467C380.97 372.772 381.676 374.517 381.676 376.332V400.494C381.676 402.31 380.97 404.055 379.707 405.361L367.354 418.131C364.605 420.973 360.051 420.976 357.298 418.138L344.905 405.362C343.638 404.056 342.93 402.308 342.93 400.488V376.338C342.93 374.519 343.638 372.771 344.904 371.465Z" fill="#F8D0A3" stroke="black" stroke-width="5.17"/>
<path d="M63.0398 262.031H71.4398C74.1932 262.031 76.3865 262.755 78.0198 264.201C79.6765 265.625 80.5048 267.573 80.5048 270.046C80.5048 272.52 79.6765 274.48 78.0198 275.926C76.3865 277.35 74.1932 278.061 71.4398 278.061H66.3998L66.3998 286.531H63.0398L63.0398 262.031ZM71.5098 274.981C75.2665 274.981 77.1448 273.336 77.1448 270.046C77.1448 266.756 75.2665 265.111 71.5098 265.111H66.3998V274.981H71.5098ZM92.0669 262.031H95.4269L104.247 286.531H100.677L99.0319 281.771H88.4269L86.8169 286.531H83.2469L92.0669 262.031ZM97.9819 278.691L94.2019 267.666L93.7469 265.041L93.2919 267.666L89.4769 278.691H97.9819ZM110.885 262.031H114.245V272.461L123.59 262.031H127.545L117.185 273.581L128.035 286.531H123.695L114.245 275.261V286.531H110.885V262.031ZM143.911 286.881C141.648 286.881 139.583 286.356 137.716 285.306C135.873 284.233 134.415 282.74 133.341 280.826C132.268 278.913 131.731 276.731 131.731 274.281C131.731 271.831 132.268 269.65 133.341 267.736C134.415 265.823 135.873 264.341 137.716 263.291C139.583 262.218 141.648 261.681 143.911 261.681C146.175 261.681 148.228 262.218 150.071 263.291C151.938 264.341 153.408 265.823 154.481 267.736C155.555 269.65 156.091 271.831 156.091 274.281C156.091 276.731 155.555 278.913 154.481 280.826C153.408 282.74 151.938 284.233 150.071 285.306C148.228 286.356 146.175 286.881 143.911 286.881ZM143.911 283.801C145.661 283.801 147.201 283.405 148.531 282.611C149.861 281.795 150.876 280.675 151.576 279.251C152.3 277.805 152.661 276.148 152.661 274.281C152.661 272.415 152.3 270.77 151.576 269.346C150.876 267.9 149.861 266.78 148.531 265.986C147.201 265.17 145.661 264.761 143.911 264.761C142.161 264.761 140.621 265.17 139.291 265.986C137.961 266.78 136.935 267.9 136.211 269.346C135.511 270.77 135.161 272.415 135.161 274.281C135.161 276.148 135.511 277.805 136.211 279.251C136.935 280.675 137.961 281.795 139.291 282.611C140.621 283.405 142.161 283.801 143.911 283.801ZM163.788 262.031H172.888C174.451 262.031 175.805 262.3 176.948 262.836C178.115 263.373 179.001 264.108 179.608 265.041C180.238 265.975 180.553 267.025 180.553 268.191C180.553 270.478 179.491 272.216 177.368 273.406C178.605 273.756 179.678 274.468 180.588 275.541C181.498 276.615 181.953 277.91 181.953 279.426C181.953 281.596 181.183 283.323 179.643 284.606C178.126 285.89 176.061 286.531 173.448 286.531H163.788V262.031ZM173.203 272.391C175.98 272.391 177.368 271.178 177.368 268.751C177.368 266.325 175.98 265.111 173.203 265.111H167.148V272.391H173.203ZM174.358 283.451C175.735 283.451 176.808 283.113 177.578 282.436C178.371 281.736 178.768 280.745 178.768 279.461C178.768 278.178 178.371 277.198 177.578 276.521C176.808 275.821 175.735 275.471 174.358 275.471H167.148V283.451H174.358ZM192.523 262.031V270.501H197.563C200.316 270.501 202.51 271.225 204.143 272.671C205.8 274.095 206.628 276.043 206.628 278.516C206.628 280.99 205.8 282.95 204.143 284.396C202.51 285.82 200.316 286.531 197.563 286.531H189.163V262.031H192.523ZM210.828 262.031H214.188V286.531H210.828V262.031ZM192.523 283.451H197.633C201.39 283.451 203.268 281.806 203.268 278.516C203.268 275.226 201.39 273.581 197.633 273.581H192.523V283.451ZM222.604 262.031H237.269V265.111H225.964V272.741H236.324V275.821H225.964V283.451H237.654V286.531H222.604V262.031ZM63.0398 297.031H66.3998V307.461L75.7448 297.031H79.6998L69.3398 308.581L80.1898 321.531H75.8498L66.3998 310.261V321.531H63.0398L63.0398 297.031ZM88.1977 321.881C87.7544 321.881 87.3227 321.823 86.9027 321.706C86.5061 321.59 86.1794 321.438 85.9227 321.251V318.276C86.1794 318.416 86.4711 318.533 86.7977 318.626C87.1244 318.72 87.4277 318.766 87.7077 318.766C88.3844 318.766 88.8977 318.451 89.2477 317.821C89.5977 317.191 89.8311 316.398 89.9477 315.441C90.0877 314.485 90.1927 313.201 90.2627 311.591L90.9277 297.031H107.658L107.658 321.531H104.298L104.298 300.111H94.0427L93.3077 313.831C93.1911 316.001 92.7944 317.891 92.1177 319.501C91.4644 321.088 90.1577 321.881 88.1977 321.881ZM116.046 297.031H130.711V300.111H119.406V307.741H129.766V310.821H119.406L119.406 318.451H131.096V321.531H116.046L116.046 297.031ZM144.034 300.111H137.804V297.031H153.624V300.111H147.394V321.531H144.034V300.111ZM160.848 297.031H164.208V307.461L173.553 297.031H177.508L167.148 308.581L177.998 321.531H173.658L164.208 310.261V321.531H160.848V297.031ZM185.061 297.031H188.421V316.456L199.691 297.031H203.471L203.471 321.531H200.111V302.106L188.841 321.531H185.061V297.031Z" fill="black"/>
<path d="M189.295 461.821L201.688 449.038C204.44 446.199 208.997 446.202 211.746 449.045L224.099 461.822C225.361 463.128 226.066 464.872 226.066 466.688V490.849C226.066 492.666 225.36 494.411 224.098 495.716L211.745 508.487C208.996 511.328 204.441 511.332 201.689 508.494L189.296 495.718C188.029 494.411 187.32 492.663 187.32 490.844V466.693C187.32 464.874 188.028 463.127 189.295 461.821Z" fill="#F8D0A3" stroke="black" stroke-width="5.17"/>
<path d="M169.92 506.188L182.313 493.406C185.065 490.566 189.622 490.57 192.371 493.413L204.724 506.189C205.986 507.495 206.691 509.239 206.691 511.055V535.217C206.691 537.033 205.985 538.778 204.723 540.083L192.37 552.854C189.621 555.696 185.066 555.699 182.314 552.861L169.921 540.085C168.654 538.779 167.945 537.031 167.945 535.211V511.061C167.945 509.242 168.653 507.494 169.92 506.188Z" fill="#F8D0A3" stroke="black" stroke-width="5.17"/>
<path d="M133.22 506.188L145.613 493.406C148.366 490.566 152.923 490.57 155.672 493.413L168.025 506.189C169.287 507.495 169.992 509.239 169.992 511.055V535.217C169.992 537.033 169.286 538.778 168.024 540.083L155.67 552.854C152.922 555.696 148.367 555.699 145.615 552.861L133.222 540.085C131.955 538.779 131.246 537.031 131.246 535.211V511.061C131.246 509.242 131.954 507.494 133.22 506.188Z" fill="#F8D0A3" stroke="black" stroke-width="5.17"/>
<path d="M150.549 461.821L162.942 449.038C165.694 446.199 170.251 446.202 173 449.045L185.353 461.822C186.615 463.128 187.32 464.872 187.32 466.688V490.849C187.32 492.666 186.614 494.411 185.352 495.716L172.999 508.487C170.25 511.328 165.695 511.332 162.943 508.494L150.55 495.718C149.283 494.411 148.574 492.663 148.574 490.844V466.693C148.574 464.874 149.282 463.127 150.549 461.821Z" fill="#F8D0A3" stroke="black" stroke-width="5.17"/>
<path d="M248.666 328.028L261.059 315.246C263.812 312.406 268.368 312.409 271.117 315.253L283.47 328.029C284.732 329.335 285.438 331.079 285.438 332.895V357.056C285.438 358.873 284.732 360.618 283.469 361.923L271.116 374.694C268.367 377.535 263.812 377.539 261.06 374.701L248.667 361.925C247.4 360.618 246.691 358.87 246.691 357.051V332.901C246.691 331.081 247.4 329.334 248.666 328.028Z" fill="#F8D0A3" stroke="black" stroke-width="5.17"/>
<path d="M287.412 328.028L299.805 315.246C302.558 312.406 307.114 312.409 309.863 315.253L322.216 328.029C323.478 329.335 324.184 331.079 324.184 332.895V357.056C324.184 358.873 323.478 360.618 322.215 361.923L309.862 374.694C307.113 377.535 302.559 377.539 299.806 374.701L287.413 361.925C286.146 360.618 285.438 358.87 285.438 357.051V332.901C285.438 331.081 286.146 329.334 287.412 328.028Z" fill="#F8D0A3" stroke="black" stroke-width="5.17"/>
<path d="M324.904 327.028L337.297 314.246C340.05 311.406 344.606 311.409 347.355 314.253L359.708 327.029C360.97 328.335 361.676 330.079 361.676 331.895V356.056C361.676 357.873 360.97 359.618 359.707 360.923L347.354 373.694C344.605 376.535 340.051 376.539 337.298 373.701L324.905 360.925C323.638 359.618 322.93 357.87 322.93 356.051V331.901C322.93 330.081 323.638 328.334 324.904 327.028Z" fill="#F8D0A3" stroke="black" stroke-width="5.17"/>
</g>
<defs>
<clipPath id="clip0_478_1104">
<rect width="469" height="821" fill="white"/>
</clipPath>
</defs>
</svg>
