<svg width="469" height="1685" viewBox="0 0 469 1685" fill="none" xmlns="http://www.w3.org/2000/svg">
<g clip-path="url(#clip0_427_4228)">
<g style="mix-blend-mode:exclusion">
<path d="M200.422 1450.91L170.437 1470.95C159.35 1478.35 149.066 1486.9 139.752 1496.44L129.127 1507.32C119.994 1516.68 112.631 1527.61 107.393 1539.6C102.363 1551.1 99.3717 1563.39 98.5529 1575.92L97.7773 1587.79C97.3927 1593.68 97.5599 1599.59 98.2766 1605.44C99.0627 1611.86 100.506 1618.19 102.584 1624.31L102.972 1625.46C104.8 1630.85 107.058 1636.08 109.724 1641.11L112.867 1647.04C113.365 1647.98 113.93 1648.88 114.557 1649.74L121.065 1658.64C121.379 1659.07 121.457 1659.63 121.275 1660.13C120.838 1661.32 119.248 1661.55 118.496 1660.52L102.99 1639.39C102.399 1638.59 101.886 1637.73 101.459 1636.83L98.0786 1629.67C91.0781 1614.86 87.9016 1598.54 88.8395 1582.18L89.4613 1571.34C90.2515 1557.56 93.5258 1544.04 99.1264 1531.43C103.669 1521.2 109.688 1511.69 116.991 1503.2L125.253 1493.6L125.785 1493.12C148.884 1472.14 174.07 1453.57 200.95 1437.72C224.925 1424.66 245.648 1406.36 261.577 1384.18L267.529 1375.9C277.118 1361.91 283.452 1345.96 286.068 1329.21L289.296 1308.52C290.935 1298.02 291.759 1287.41 291.759 1276.78V1268.39C291.759 1238.18 287.401 1208.13 278.821 1179.17L273.072 1159.77L248.944 1096.88L219.519 1038.93L192.703 982.051L166.304 917.928L145.442 856.269L132.852 803.419L131.423 796.157C123.768 757.254 120.857 717.566 122.753 677.962L123.405 671.747C127.029 637.209 133.793 603.073 143.615 569.763L162.764 521.632L195.956 455.717L216.924 411.384L223.298 398.057C229.529 385.031 234.753 371.547 238.927 357.724C243.265 343.351 246.454 328.656 248.462 313.778L251.152 293.843L254.128 255.352V212.947C254.128 207.748 253.264 202.586 251.572 197.672L243.684 174.769C242.7 171.91 240.178 169.859 237.179 169.477C234.848 169.179 232.767 167.864 231.498 165.886L231.183 165.394C229.492 162.757 226.576 161.163 223.444 161.163H218.844C213.853 161.163 209.096 159.044 205.757 155.334L204.634 154.087C202.283 151.474 199.324 149.482 196.02 148.286L184.135 143.985L180.112 141.883C169.249 136.209 159.483 128.646 151.272 119.547L145.141 113.917C141.969 111.004 139.849 107.126 139.108 102.884C138.278 98.1274 135.716 93.8469 131.917 90.8672L131.454 90.5039C128.248 87.9896 125.84 84.6003 124.52 80.7458L121.798 72.7955L118.98 60.3732C118.276 57.2732 118.038 54.0858 118.272 50.9157L118.55 47.1356C118.945 41.7843 117.374 36.4727 114.133 32.1967C111.228 28.3648 109.655 23.6881 109.655 18.8795V11.0419C109.655 -31.7757 131.082 -71.7525 166.738 -95.4591L174.393 -100.549C180.878 -104.86 187.7 -108.643 194.792 -111.859L230.668 -128.129C261.963 -142.322 295.929 -149.664 330.291 -149.663L369.441 -149.663C400.947 -149.662 431.442 -138.545 455.556 -118.268L471.828 -104.585C489.672 -89.58 500.531 -67.8757 501.841 -44.5986L505.477 20.038C506.231 33.4468 495.561 44.7338 482.131 44.7338C477.329 44.7338 472.643 46.2126 468.71 48.9691L467.048 50.1343C463.969 52.2922 460.51 53.8484 456.853 54.7208L452.765 55.6963C450.397 56.2612 447.972 56.5465 445.538 56.5465H443.581C437.336 56.5465 431.301 58.8025 426.587 62.8993C422.596 66.3678 417.64 68.5321 412.383 69.1015L398.329 70.6236C393.811 71.1128 389.351 72.0347 385.009 73.3765L377.183 75.7955L369.842 77.8928C366.988 78.7083 364.523 80.5254 362.9 83.011C362.221 84.0508 361.703 85.1872 361.363 86.3817L359.891 91.5574C359.148 94.1689 358.028 96.6579 356.566 98.9457L354.391 102.348C352.945 104.611 352.177 107.241 352.177 109.926V110.297C352.177 115.875 348.754 120.881 343.557 122.905C341.119 123.855 339.008 125.491 337.481 127.616L337.02 128.257C334.834 131.299 331.661 133.489 328.042 134.454L325.658 135.09C322.938 135.815 320.373 137.032 318.091 138.68L314.748 141.093C311.882 143.162 309.237 145.593 306.927 148.268C299.507 156.858 295.333 167.952 295.354 179.303L295.398 203.38L294.952 253.783V293.843L288.814 337.782L288.226 340.025C281.522 365.621 272.64 390.595 261.675 414.676L242.936 451.829L224.521 488.34L204.489 531.632L193.482 555.395C187.259 568.828 182.03 582.7 177.837 596.898C172.57 614.735 168.958 633.019 167.046 651.518L164.313 677.962V732.485L171.764 792.096L185.395 850.249L204.296 907.679L225.377 965.836L250.821 1024.72L278.759 1090.9L287.594 1112.55C298.571 1139.44 305.948 1167.67 309.534 1196.49C311.551 1212.7 312.36 1229.04 311.957 1245.37L310.744 1294.42L306.537 1325.14C303.636 1346.33 296.092 1366.62 284.445 1384.55C266.321 1408.2 243.396 1427.73 217.178 1441.87L200.422 1450.91Z" fill="#F8D0A3"/>
<path d="M200.422 1450.91L170.437 1470.95C159.35 1478.35 149.066 1486.9 139.752 1496.44L129.127 1507.32C119.994 1516.68 112.631 1527.61 107.393 1539.6C102.363 1551.1 99.3717 1563.39 98.5529 1575.92L97.7773 1587.79C97.3927 1593.68 97.5599 1599.59 98.2766 1605.44C99.0627 1611.86 100.506 1618.19 102.584 1624.31L102.972 1625.46C104.8 1630.85 107.058 1636.08 109.724 1641.11L112.867 1647.04C113.365 1647.98 113.93 1648.88 114.557 1649.74L121.065 1658.64C121.379 1659.07 121.457 1659.63 121.275 1660.13C120.838 1661.32 119.248 1661.55 118.496 1660.52L102.99 1639.39C102.399 1638.59 101.886 1637.73 101.459 1636.83L98.0786 1629.67C91.0781 1614.86 87.9016 1598.54 88.8395 1582.18L89.4613 1571.34C90.2515 1557.56 93.5258 1544.04 99.1264 1531.43C103.669 1521.2 109.688 1511.69 116.991 1503.2L125.253 1493.6L125.785 1493.12C148.884 1472.14 174.07 1453.57 200.95 1437.72C224.925 1424.66 245.648 1406.36 261.577 1384.18L267.529 1375.9C277.118 1361.91 283.452 1345.96 286.068 1329.21L289.296 1308.52C290.935 1298.02 291.759 1287.41 291.759 1276.78V1268.39C291.759 1238.18 287.401 1208.13 278.821 1179.17L273.072 1159.77L248.944 1096.88L219.519 1038.93L192.703 982.051L166.304 917.928L145.442 856.269L132.852 803.419L131.423 796.157C123.768 757.254 120.857 717.566 122.753 677.962L123.405 671.747C127.029 637.209 133.793 603.073 143.615 569.763L162.764 521.632L195.956 455.717L216.924 411.384L223.298 398.057C229.529 385.031 234.753 371.547 238.927 357.724C243.265 343.351 246.454 328.656 248.462 313.778L251.152 293.843L254.128 255.352V212.947C254.128 207.748 253.264 202.586 251.572 197.672L243.684 174.769C242.7 171.91 240.178 169.859 237.179 169.477C234.848 169.179 232.767 167.864 231.498 165.886L231.183 165.394C229.492 162.757 226.576 161.163 223.444 161.163H218.844C213.853 161.163 209.096 159.044 205.757 155.334L204.634 154.087C202.283 151.474 199.324 149.482 196.02 148.286L184.135 143.985L180.112 141.883C169.249 136.209 159.483 128.646 151.272 119.547L145.141 113.917C141.969 111.004 139.849 107.126 139.108 102.884C138.278 98.1274 135.716 93.8469 131.917 90.8672L131.454 90.5039C128.248 87.9896 125.84 84.6003 124.52 80.7458L121.798 72.7955L118.98 60.3732C118.276 57.2732 118.038 54.0858 118.272 50.9157L118.55 47.1356C118.945 41.7843 117.374 36.4727 114.133 32.1967C111.228 28.3648 109.655 23.6881 109.655 18.8795V11.0419C109.655 -31.7757 131.082 -71.7525 166.738 -95.4591L174.393 -100.549C180.878 -104.86 187.7 -108.643 194.792 -111.859L230.668 -128.129C261.963 -142.322 295.929 -149.664 330.291 -149.663L369.441 -149.663C400.947 -149.662 431.442 -138.545 455.556 -118.268L471.828 -104.585C489.672 -89.58 500.531 -67.8757 501.841 -44.5986L505.477 20.038C506.231 33.4468 495.561 44.7338 482.131 44.7338C477.329 44.7338 472.643 46.2126 468.71 48.9691L467.048 50.1343C463.969 52.2922 460.51 53.8484 456.853 54.7208L452.765 55.6963C450.397 56.2612 447.972 56.5465 445.538 56.5465H443.581C437.336 56.5465 431.301 58.8025 426.587 62.8993C422.596 66.3678 417.64 68.5321 412.383 69.1015L398.329 70.6236C393.811 71.1128 389.351 72.0347 385.009 73.3765L377.183 75.7955L369.842 77.8928C366.988 78.7083 364.523 80.5254 362.9 83.011C362.221 84.0508 361.703 85.1872 361.363 86.3817L359.891 91.5574C359.148 94.1689 358.028 96.6579 356.566 98.9457L354.391 102.348C352.945 104.611 352.177 107.241 352.177 109.926V110.297C352.177 115.875 348.754 120.881 343.557 122.905C341.119 123.855 339.008 125.491 337.481 127.616L337.02 128.257C334.834 131.299 331.661 133.489 328.042 134.454L325.658 135.09C322.938 135.815 320.373 137.032 318.091 138.68L314.748 141.093C311.882 143.162 309.237 145.593 306.927 148.268C299.507 156.858 295.333 167.952 295.354 179.303L295.398 203.38L294.952 253.783V293.843L288.814 337.782L288.226 340.025C281.522 365.621 272.64 390.595 261.675 414.676L242.936 451.829L224.521 488.34L204.489 531.632L193.482 555.395C187.259 568.828 182.03 582.7 177.837 596.898C172.57 614.735 168.958 633.019 167.046 651.518L164.313 677.962V732.485L171.764 792.096L185.395 850.249L204.296 907.679L225.377 965.836L250.821 1024.72L278.759 1090.9L287.594 1112.55C298.571 1139.44 305.948 1167.67 309.534 1196.49C311.551 1212.7 312.36 1229.04 311.957 1245.37L310.744 1294.42L306.537 1325.14C303.636 1346.33 296.092 1366.62 284.445 1384.55C266.321 1408.2 243.396 1427.73 217.178 1441.87L200.422 1450.91Z" stroke="#1D1D1B" stroke-width="5" stroke-linecap="round"/>
</g>
<g style="mix-blend-mode:exclusion">
<path d="M278.757 1090.9L280.094 1093.94C296.353 1130.98 306.961 1170.25 311.562 1210.43V1251.84L311.917 1256.19L307.354 1220.62L301.781 1186.49C296.1 1164.23 288.831 1142.42 280.031 1121.2L269.943 1096.88L244.518 1038.93L243.426 1037.03C221.659 999.129 203.537 959.25 189.303 917.928L166.441 856.269L154.851 803.419L153.555 796.281C146.469 757.261 143.518 717.602 144.751 677.962L145.264 672.123C148.313 637.366 155.136 603.044 165.613 569.763L187.762 521.632L220.955 455.717L241.922 411.384L255.656 378.489L256.063 377.027C263.634 349.82 268.685 321.975 271.151 293.843L274.127 255.352V221.802C274.127 210.696 272.947 199.62 270.607 188.763L267.632 174.959C265.999 167.385 265.617 159.595 266.499 151.897L269.078 128.737C269.661 123.505 274.083 119.547 279.348 119.547H283.512C288.937 119.547 292.604 114.011 290.486 109.015L289.62 106.971C287.775 102.62 281.954 101.812 278.995 105.497L276.221 108.952C274.346 111.287 270.632 110.64 269.658 107.808C268.531 104.537 263.977 104.345 262.58 107.51L256.802 120.599C256.407 121.492 256.154 122.442 256.052 123.414L254.536 137.788C254.055 142.353 249.374 145.219 245.09 143.572L235.365 139.834C230.597 138.001 226.348 135.033 222.986 131.186C216.572 123.847 213.929 113.947 215.833 104.387L220.607 80.4085C221.11 77.8851 222.367 75.5739 224.212 73.7809L228.055 70.0471C232.274 65.9472 239.257 67.1008 241.933 72.34L244.448 77.2627C246.907 82.0751 253.897 81.7226 255.859 76.6873C257.283 73.0313 261.681 71.571 265.009 73.6486L267.796 75.3884C272.783 78.5008 279.365 76.0667 281.127 70.4591L281.815 68.2664C283.519 62.8427 280.711 57.029 275.404 54.9916L267.79 52.0689C264.332 50.7413 260.414 51.6307 257.867 54.3214C254.103 58.2995 247.71 58.1004 244.2 53.8959L241.944 51.1924C238.691 47.2963 233.377 45.8026 228.571 47.4338L221.705 49.7644C221.488 49.8379 221.263 49.8826 221.035 49.8974L215.876 50.2316C213.202 50.4049 213.133 54.3147 215.8 54.5814C217.085 54.7098 217.978 55.9189 217.723 57.1844L212.814 81.5369L201.202 118.683C200.561 120.734 198.976 122.354 196.94 123.04C195.152 123.642 193.194 123.464 191.544 122.55L175.283 113.541C169.34 110.248 164.149 105.752 160.042 100.339L148.534 85.1714L142.799 77.8111C140.467 74.8173 142.67 70.4508 146.465 70.4508C147.772 70.4508 149.032 69.895 149.905 68.9222L161.055 56.4913C161.379 56.1299 161.623 55.7039 161.771 55.2414C162.779 52.0818 159.169 49.4679 156.482 51.4116L147.453 57.9425C146.609 58.5529 145.641 58.9702 144.618 59.1649L143.919 59.298C137.286 60.5605 131.252 55.2061 131.717 48.4696L134.797 3.85844L134.753 1.70145C134.107 -29.783 144.93 -60.4285 165.203 -84.5253C177.667 -99.3385 193.285 -111.176 210.916 -119.172L232.245 -128.845C262.499 -142.566 295.337 -149.664 328.557 -149.663L382.274 -149.663C405.491 -149.662 427.962 -141.47 445.731 -126.528L459.483 -114.965C483.581 -94.7012 492.1 -61.3425 480.669 -32.0059L466.524 4.29672C464.529 9.41756 465.75 15.2337 469.636 19.1198C476.536 26.02 474.328 37.7014 465.386 41.6074L460.563 43.7139C459.025 44.3857 457.398 44.832 455.732 45.0389L443.337 46.5794C436.088 47.4801 429.12 49.9336 422.906 53.7724C417.721 56.9757 412.001 59.2195 406.022 60.3968L395.205 62.5262C391.485 63.2585 387.703 63.6272 383.911 63.6272H376.732C374.429 63.6272 372.145 64.0437 369.99 64.8566L365.026 66.7297C360.393 68.4774 355.162 67.1015 351.989 63.3008L345.029 54.9636C341.584 50.8374 334.896 52.5271 333.825 57.7943C332.952 62.0862 328.128 64.2586 324.335 62.0681L320.54 59.876C315.455 56.9389 309.352 61.6003 310.848 67.2789C311.668 70.3895 314.608 72.4577 317.813 72.177L327.259 71.3495C337.697 70.4352 346.675 78.6613 346.675 89.1386V97.7575C346.675 104.66 343.904 111.274 338.984 116.115L310.433 144.207C300.099 155.428 294.541 170.231 294.935 185.48L295.397 203.38L294.951 253.783V293.843L288.813 337.782L288.225 340.025C281.521 365.621 272.638 390.595 261.674 414.676L242.935 451.829L224.519 488.34L204.488 531.632L193.481 555.395C187.258 568.828 182.029 582.7 177.836 596.898C172.569 614.735 168.956 633.019 167.045 651.518L164.312 677.962V732.485L171.762 792.096L185.394 850.249L204.294 907.679L225.376 965.836L250.819 1024.72L278.757 1090.9Z" fill="#FC8B75"/>
<path d="M278.757 1090.9L280.094 1093.94C296.353 1130.98 306.961 1170.25 311.562 1210.43V1251.84L311.917 1256.19L307.354 1220.62L301.781 1186.49C296.1 1164.23 288.831 1142.42 280.031 1121.2L269.943 1096.88L244.518 1038.93L243.426 1037.03C221.659 999.129 203.537 959.25 189.303 917.928L166.441 856.269L154.851 803.419L153.555 796.281C146.469 757.261 143.518 717.602 144.751 677.962L145.264 672.123C148.313 637.366 155.136 603.044 165.613 569.763L187.762 521.632L220.955 455.717L241.922 411.384L255.656 378.489L256.063 377.027C263.634 349.82 268.685 321.975 271.151 293.843L274.127 255.352V221.802C274.127 210.696 272.947 199.62 270.607 188.763L267.632 174.959C265.999 167.385 265.617 159.595 266.499 151.897L269.078 128.737C269.661 123.505 274.083 119.547 279.348 119.547H283.512C288.937 119.547 292.604 114.011 290.486 109.015L289.62 106.971C287.775 102.62 281.954 101.812 278.995 105.497L276.221 108.952C274.346 111.287 270.632 110.64 269.658 107.808C268.531 104.537 263.977 104.345 262.58 107.51L256.802 120.599C256.407 121.492 256.154 122.442 256.052 123.414L254.536 137.788C254.055 142.353 249.374 145.219 245.09 143.572L235.365 139.834C230.597 138.001 226.348 135.033 222.986 131.186C216.572 123.847 213.929 113.947 215.833 104.387L220.607 80.4085C221.11 77.8851 222.367 75.5739 224.212 73.7809L228.055 70.0471C232.274 65.9472 239.257 67.1008 241.933 72.34L244.448 77.2627C246.907 82.0751 253.897 81.7226 255.859 76.6873C257.283 73.0313 261.681 71.571 265.009 73.6486L267.796 75.3884C272.783 78.5008 279.365 76.0667 281.127 70.4591L281.815 68.2664C283.519 62.8427 280.711 57.029 275.404 54.9916L267.79 52.0689C264.332 50.7413 260.414 51.6307 257.867 54.3214C254.103 58.2995 247.71 58.1004 244.2 53.8959L241.944 51.1924C238.691 47.2963 233.377 45.8026 228.571 47.4338L221.705 49.7644C221.488 49.8379 221.263 49.8826 221.035 49.8974L215.876 50.2316C213.202 50.4049 213.133 54.3147 215.8 54.5814C217.085 54.7098 217.978 55.9189 217.723 57.1844L212.814 81.5369L201.202 118.683C200.561 120.734 198.976 122.354 196.94 123.04C195.152 123.642 193.194 123.464 191.544 122.55L175.283 113.541C169.34 110.248 164.149 105.752 160.042 100.339L148.534 85.1714L142.799 77.8111C140.467 74.8173 142.67 70.4508 146.465 70.4508C147.772 70.4508 149.032 69.895 149.905 68.9222L161.055 56.4913C161.379 56.1299 161.623 55.7039 161.771 55.2414C162.779 52.0818 159.169 49.4679 156.482 51.4116L147.453 57.9425C146.609 58.5529 145.641 58.9702 144.618 59.1649L143.919 59.298C137.286 60.5605 131.252 55.2061 131.717 48.4696L134.797 3.85844L134.753 1.70145C134.107 -29.783 144.93 -60.4285 165.203 -84.5253C177.667 -99.3385 193.285 -111.176 210.916 -119.172L232.245 -128.845C262.499 -142.566 295.337 -149.664 328.557 -149.663L382.274 -149.663C405.491 -149.662 427.962 -141.47 445.731 -126.528L459.483 -114.965C483.581 -94.7012 492.1 -61.3425 480.669 -32.0059L466.524 4.29672C464.529 9.41756 465.75 15.2337 469.636 19.1198C476.536 26.02 474.328 37.7014 465.386 41.6074L460.563 43.7139C459.025 44.3857 457.398 44.832 455.732 45.0389L443.337 46.5794C436.088 47.4801 429.12 49.9336 422.906 53.7724C417.721 56.9757 412.001 59.2195 406.022 60.3968L395.205 62.5262C391.485 63.2585 387.703 63.6272 383.911 63.6272H376.732C374.429 63.6272 372.145 64.0437 369.99 64.8566L365.026 66.7297C360.393 68.4774 355.162 67.1015 351.989 63.3008L345.029 54.9636C341.584 50.8374 334.896 52.5271 333.825 57.7943C332.952 62.0862 328.128 64.2586 324.335 62.0681L320.54 59.876C315.455 56.9389 309.352 61.6003 310.848 67.2789C311.668 70.3895 314.608 72.4577 317.813 72.177L327.259 71.3495C337.697 70.4352 346.675 78.6613 346.675 89.1386V97.7575C346.675 104.66 343.904 111.274 338.984 116.115L310.433 144.207C300.099 155.428 294.541 170.231 294.935 185.48L295.397 203.38L294.951 253.783V293.843L288.813 337.782L288.225 340.025C281.521 365.621 272.638 390.595 261.674 414.676L242.935 451.829L224.519 488.34L204.488 531.632L193.481 555.395C187.258 568.828 182.029 582.7 177.836 596.898C172.569 614.735 168.956 633.019 167.045 651.518L164.312 677.962V732.485L171.762 792.096L185.394 850.249L204.294 907.679L225.376 965.836L250.819 1024.72L278.757 1090.9Z" stroke="#1D1D1B" stroke-width="5" stroke-linecap="round"/>
</g>
<g opacity="0.25">
<path d="M129.525 1664.37C130.915 1667.19 129.525 1671.37 126.744 1669.98L129.525 1664.37Z" stroke="#1D1D1B" stroke-width="5.17"/>
<path d="M129.525 1664.37C130.915 1667.19 129.525 1671.37 126.744 1669.98" stroke="#1D1D1B" stroke-width="5.17" stroke-linecap="round" stroke-linejoin="round"/>
<path d="M116.966 1660.15C121.138 1661.59 123.918 1660.15 123.918 1655.98L116.966 1660.15Z" stroke="#1D1D1B" stroke-width="5.17"/>
<path d="M116.966 1660.15C121.138 1661.59 123.918 1660.15 123.918 1655.98" stroke="#1D1D1B" stroke-width="5.17" stroke-linecap="round" stroke-linejoin="round"/>
<path d="M115.531 1643.37C114.141 1650.41 108.579 1644.81 104.363 1643.37H115.531Z" stroke="#1D1D1B" stroke-width="5.17"/>
<path d="M115.531 1643.37C114.141 1650.41 108.579 1644.81 104.363 1643.37" stroke="#1D1D1B" stroke-width="5.17" stroke-linecap="round" stroke-linejoin="round"/>
<path d="M87.6785 1601.33C89.1145 1602.72 103.062 1604.11 103.062 1602.72L87.6785 1601.33Z" stroke="#1D1D1B" stroke-width="5.17"/>
<path d="M87.6785 1601.33C89.1145 1602.72 103.062 1604.11 103.062 1602.72" stroke="#1D1D1B" stroke-width="5.17" stroke-linecap="round" stroke-linejoin="round"/>
<path d="M193.797 419.908C189.242 423.347 183.992 425.751 178.413 426.953C150.471 431.125 147.69 422.735 135.132 432.516C121.138 440.951 122.528 407.3 137.912 415.736C142.084 417.126 155.853 404.519 163.074 407.3C172.852 411.518 182.629 403.083 189.626 400.301C182.629 401.692 175.633 398.91 167.2 400.301C164.42 400.301 163.029 389.084 172.807 387.693C216.089 382.084 204.965 362.477 220.305 369.477C224.319 370.608 228.575 370.549 232.556 369.306C236.537 368.064 240.072 365.691 242.73 362.477L241.295 354.042C220.349 363.868 209.181 356.869 203.575 368.086C202.185 372.258 200.794 365.259 200.794 363.868C198.013 337.216 216.133 358.26 223.22 341.434C230.307 324.609 248.382 341.434 248.382 320.436C247.265 318.792 246.772 316.803 246.991 314.827C221.74 321.827 217.748 323.218 213.263 333.223C213.263 334.614 203.485 343.004 206.266 334.614C207.701 330.397 203.485 309.398 214.653 315.007C228.647 323.397 224.476 298.181 237.079 296.79C246.857 295.355 249.638 292.573 253.854 284.138C246.857 285.573 242.686 284.138 245.466 274.356C227.526 275.747 220.305 298.181 203.53 299.572C196.578 300.963 202.14 295.355 203.53 286.964C203.53 274.356 218.914 282.747 221.471 267.357C224.296 256.14 238.245 263.139 241.026 250.531C241.026 244.923 220.08 247.705 199.135 264.53C194.919 242.096 193.528 243.532 214.474 226.706C235.42 209.881 231.248 236.533 254.84 212.708C255.957 211.629 256.79 210.291 257.264 208.812C257.739 207.333 257.841 205.76 257.562 204.233C257.282 202.705 256.629 201.271 255.662 200.056C254.694 198.842 253.441 197.886 252.015 197.273C239.456 195.882 215.685 209.881 210.123 200.1C201.736 181.883 242.282 191.665 246.453 183.274C253.45 177.666 231.069 169.231 260.402 170.666L263.228 165.058C266.008 163.622 267.399 162.231 270.224 162.231L268.789 170.666C284.173 165.058 298.167 153.841 295.341 167.84C292.56 177.666 312.116 162.231 307.945 180.448C307.945 186.056 296.732 191.665 296.732 200.1C307.945 200.1 303.729 223.88 307.945 230.924C316.332 246.314 293.951 239.314 288.389 236.533L286.954 239.314C289.78 260.313 307.945 244.923 304.895 257.531C301.845 270.139 310.501 271.53 307.72 281.356C307.72 285.573 295.117 279.965 285.295 275.747L283.904 277.138C290.901 281.356 288.12 289.746 301.845 291.182C308.842 291.182 304.626 330.397 297.674 326.179C293.458 322.006 290.677 315.007 282.289 319.179L280.899 320.615C284.622 333.223 298.481 333.223 298.481 347.043C297.046 352.651 295.655 377.867 288.703 368.086C285.571 362.967 281.227 358.699 276.055 355.657C275.515 356.198 274.858 356.609 274.135 356.858C273.413 357.106 272.643 357.187 271.884 357.093C276.055 378.091 274.665 362.701 285.833 378.091C290.049 383.7 278.836 390.699 276.055 401.916C273.274 411.742 267.668 387.917 257.89 397.743C262.106 411.742 252.284 407.525 270.494 414.524C274.665 415.96 260.671 435.567 260.671 441.176C259.281 445.393 249.503 435.567 249.503 432.74C239.725 438.349 225.777 432.74 224.386 421.523L216.133 422.959C205.01 408.916 203.575 414.524 193.708 420.133" stroke="#1D1D1B" stroke-width="5.17"/>
<path d="M193.797 419.908C189.242 423.347 183.992 425.751 178.413 426.953C150.471 431.125 147.69 422.735 135.132 432.516C121.138 440.951 122.528 407.3 137.912 415.736C142.084 417.126 155.853 404.519 163.074 407.3C172.852 411.518 182.629 403.083 189.626 400.301C182.629 401.692 175.633 398.91 167.2 400.301C164.42 400.301 163.029 389.084 172.807 387.693C216.089 382.084 204.965 362.477 220.305 369.477C224.319 370.608 228.575 370.549 232.556 369.306C236.537 368.064 240.072 365.691 242.73 362.477L241.295 354.042C220.349 363.868 209.181 356.869 203.575 368.086C202.185 372.258 200.794 363.868 200.794 363.868C198.013 337.216 216.133 358.26 223.22 341.434C230.307 324.609 248.382 341.434 248.382 320.436C247.265 318.792 246.772 316.803 246.991 314.827C221.74 321.827 217.748 323.218 213.263 333.223C213.263 334.614 203.485 343.004 206.266 334.614C207.701 330.397 203.485 309.398 214.653 315.007C228.647 323.397 224.476 298.181 237.079 296.79C246.857 295.355 249.638 292.573 253.854 284.138C246.857 285.573 242.686 284.138 245.466 274.356C227.526 275.747 220.305 298.181 203.53 299.572C196.578 300.963 202.14 295.355 203.53 286.964C203.53 274.356 218.914 282.747 221.471 267.357C224.296 256.14 238.245 263.139 241.026 250.531C241.026 244.923 220.08 247.705 199.135 264.53C194.919 242.096 193.528 243.532 214.474 226.706C235.42 209.881 231.248 236.533 254.84 212.708C255.957 211.629 256.79 210.291 257.264 208.812C257.739 207.333 257.841 205.76 257.562 204.233C257.282 202.705 256.629 201.271 255.662 200.056C254.694 198.842 253.441 197.886 252.015 197.273C239.456 195.882 215.685 209.881 210.123 200.1C201.736 181.883 242.282 191.665 246.453 183.274C253.45 177.666 231.069 169.231 260.402 170.666L263.228 165.058C266.008 163.622 267.399 162.231 270.224 162.231L268.789 170.666C284.173 165.058 298.167 153.841 295.341 167.84C292.56 177.666 312.116 162.231 307.945 180.448C307.945 186.056 296.732 191.665 296.732 200.1C307.945 200.1 303.729 223.88 307.945 230.924C316.332 246.314 293.951 239.314 288.389 236.533L286.954 239.314C289.78 260.313 307.945 244.923 304.895 257.531C301.845 270.139 310.501 271.53 307.72 281.356C307.72 285.573 295.117 279.965 285.295 275.747L283.904 277.138C290.901 281.356 288.12 289.746 301.845 291.182C308.842 291.182 304.626 330.397 297.674 326.179C293.458 322.006 290.677 315.007 282.289 319.179L280.899 320.615C284.622 333.223 298.481 333.223 298.481 347.043C298.481 352.651 295.655 377.867 288.703 368.086C285.571 362.967 281.227 358.699 276.055 355.657C275.515 356.198 274.858 356.609 274.135 356.858C273.413 357.106 272.643 357.187 271.884 357.093C276.055 378.091 274.665 362.701 285.833 378.091C290.049 383.7 278.836 390.699 276.055 401.916C273.274 411.742 267.668 387.917 257.89 397.743C262.106 411.742 252.284 407.525 270.494 414.524C274.665 415.96 260.671 435.567 260.671 441.176C259.281 445.393 249.503 435.567 249.503 432.74C239.725 438.349 225.777 432.74 224.386 421.523L216.133 422.959C205.01 408.691 203.575 414.3 193.797 419.908Z" stroke="#1D1D1B" stroke-width="5.17" stroke-linecap="round" stroke-linejoin="round"/>
<path d="M258.113 206.918C263.719 220.916 288.881 202.7 297.223 199.918" stroke="#1D1D1B" stroke-width="5.17" stroke-linecap="round" stroke-linejoin="round"/>
<path d="M277.626 222.309C284.622 211.092 286.013 230.699 277.626 230.699V222.309Z" stroke="#1D1D1B" stroke-width="5.17"/>
<path d="M277.626 222.309C284.622 211.092 286.013 230.699 277.626 230.699" stroke="#1D1D1B" stroke-width="5.17" stroke-linecap="round" stroke-linejoin="round"/>
<path d="M287.402 238.998C279.015 254.433 266.457 230.608 259.46 238.998C255.289 243.215 251.073 255.823 241.519 250.215" stroke="#1D1D1B" stroke-width="5.17"/>
<path d="M287.402 238.998C279.015 254.433 266.457 230.608 259.46 238.998C255.289 243.215 251.073 255.823 241.519 250.215" stroke="#1D1D1B" stroke-width="5.17" stroke-linecap="round" stroke-linejoin="round"/>
<path d="M286.012 251.742C286.012 261.569 274.844 267.177 274.844 254.569L286.012 251.742Z" stroke="#1D1D1B" stroke-width="5.17"/>
<path d="M286.012 251.742C286.012 261.569 274.844 267.177 274.844 254.569" stroke="#1D1D1B" stroke-width="5.17" stroke-linecap="round" stroke-linejoin="round"/>
<path d="M283.043 188.187C283.043 195.046 276.246 198.395 275.86 190.273Z" stroke="#1D1D1B" stroke-width="5.17" stroke-linecap="round" stroke-linejoin="round"/>
<path d="M284.621 276.956C276.234 286.782 274.843 271.348 267.846 268.566" stroke="#1D1D1B" stroke-width="5.17"/>
<path d="M284.621 276.956C276.234 286.782 274.843 271.348 267.846 268.566" stroke="#1D1D1B" stroke-width="5.17" stroke-linecap="round" stroke-linejoin="round"/>
<path d="M272.062 272.785C266.472 277.102 260.461 280.845 254.122 283.958L272.062 272.785Z" stroke="#1D1D1B" stroke-width="5.17"/>
<path d="M272.062 272.785C266.472 277.102 260.461 280.845 254.122 283.958" stroke="#1D1D1B" stroke-width="5.17" stroke-linecap="round" stroke-linejoin="round"/>
<path d="M245.512 274.175L248.293 269.957" stroke="#1D1D1B" stroke-width="5.17"/>
<path d="M245.512 274.175L248.293 269.957" stroke="#1D1D1B" stroke-width="5.17" stroke-linecap="round" stroke-linejoin="round"/>
<path d="M248.293 307.781L246.903 314.78" stroke="#1D1D1B" stroke-width="5.17"/>
<path d="M248.293 307.781L246.903 314.78" stroke="#1D1D1B" stroke-width="5.17" stroke-linecap="round" stroke-linejoin="round"/>
<path d="M248.295 320.437C251.075 321.828 258.072 316.219 265.069 314.828C269.24 324.61 276.237 324.61 281.844 320.437" stroke="#1D1D1B" stroke-width="5.17" stroke-linecap="round" stroke-linejoin="round"/>
<path d="M283.23 319C287.644 314.374 290.566 308.527 291.617 302.219L283.23 319Z" stroke="#1D1D1B" stroke-width="5.17"/>
<path d="M283.23 319C287.644 314.374 290.566 308.527 291.617 302.219" stroke="#1D1D1B" stroke-width="5.17" stroke-linecap="round" stroke-linejoin="round"/>
<path d="M283.23 303.609C277.623 311.999 269.236 307.782 272.062 298L283.23 303.609Z" stroke="#1D1D1B" stroke-width="5.17"/>
<path d="M283.23 303.609C277.623 311.999 269.236 307.782 272.062 298" stroke="#1D1D1B" stroke-width="5.17" stroke-linecap="round" stroke-linejoin="round"/>
<path d="M276.055 344.215C264.887 348.433 269.058 337.216 267.668 333.043L276.055 344.215Z" stroke="#1D1D1B" stroke-width="5.17"/>
<path d="M276.055 344.215C264.887 348.433 269.058 337.216 267.668 333.043" stroke="#1D1D1B" stroke-width="5.17" stroke-linecap="round" stroke-linejoin="round"/>
<path d="M284.621 344.215C282.029 348.219 279.166 352.042 276.054 355.657L284.442 344.439" stroke="#1D1D1B" stroke-width="5.17"/>
<path d="M284.621 344.215C282.029 348.219 279.166 352.042 276.054 355.657" stroke="#1D1D1B" stroke-width="5.17" stroke-linecap="round" stroke-linejoin="round"/>
<path d="M272.062 356.867C266.457 358.258 262.285 352.65 256.678 342.824" stroke="#1D1D1B" stroke-width="5.17" stroke-linecap="round" stroke-linejoin="round"/>
<path d="M260.852 348.434C253.9 349.87 248.294 356.869 242.912 362.478" stroke="#1D1D1B" stroke-width="5.17" stroke-linecap="round" stroke-linejoin="round"/>
<path d="M262.285 368.082C263.645 370.163 264.37 372.595 264.37 375.082C264.37 377.568 263.645 380 262.285 382.081C253.897 390.471 273.453 387.69 270.672 377.864L262.285 368.082Z" stroke="#1D1D1B" stroke-width="5.17"/>
<path d="M262.285 368.082C263.645 370.163 264.37 372.595 264.37 375.082C264.37 377.568 263.645 380 262.285 382.081C253.897 390.471 273.453 387.69 270.672 377.864" stroke="#1D1D1B" stroke-width="5.17" stroke-linecap="round" stroke-linejoin="round"/>
<path d="M258.113 397.518C248.335 405.908 244.164 377.866 237.167 389.083C230.17 398.909 214.742 391.865 189.67 400.3" stroke="#1D1D1B" stroke-width="5.17"/>
<path d="M258.113 397.518C248.335 405.908 244.164 377.866 237.167 389.083C230.17 398.909 214.742 391.865 189.67 400.3" stroke="#1D1D1B" stroke-width="5.17" stroke-linecap="round" stroke-linejoin="round"/>
<path d="M244.121 400.523C244.629 407.328 243.165 414.136 239.905 420.13C238.514 422.957 249.682 422.957 253.898 417.348L244.121 400.523Z" stroke="#1D1D1B" stroke-width="5.17"/>
<path d="M244.121 400.523C244.629 407.328 243.165 414.136 239.905 420.13C238.514 422.957 249.682 422.957 253.898 417.348" stroke="#1D1D1B" stroke-width="5.17" stroke-linecap="round" stroke-linejoin="round"/>
<path d="M252.465 429.734L249.684 432.516" stroke="#1D1D1B" stroke-width="5.17"/>
<path d="M252.465 429.734L249.684 432.516" stroke="#1D1D1B" stroke-width="5.17" stroke-linecap="round" stroke-linejoin="round"/>
<path d="M188.193 1116.39C175.634 1120.61 156.079 1134.61 151.863 1122.05C142.085 1095.4 184.021 1096.79 185.412 1070.18C179.85 1067.35 175.634 1063.18 172.853 1061.79C157.469 1077.18 147.692 1089.79 142.085 1081.4C129.527 1060.35 161.64 1047.75 158.86 1025.31C150.472 1026.75 142.085 1026.75 143.52 1018.31C135.133 1042.14 116.923 1018.31 119.749 1014.1C132.308 997.27 128.136 984.707 130.917 969.228C128.815 968.874 126.864 967.906 125.311 966.446C116.923 962.229 105.8 988.88 102.885 974.836L98.7138 962.229C97.2778 955.229 114.053 925.796 111.272 908.97C108.79 909.796 106.113 909.833 103.608 909.078C101.103 908.323 98.8918 906.813 97.2778 904.753C91.7168 913.188 79.3378 925.796 76.3328 915.97C67.9458 886.536 97.2778 865.538 91.7168 836.105H84.8098C84.8098 844.495 70.8608 873.928 62.3838 855.712C48.3898 827.669 81.9388 798.281 83.3298 768.847L79.1138 767.412C72.1618 787.064 55.3868 796.845 59.5578 759.021C60.9938 739.414 79.1138 725.415 84.7198 705.763C82.9828 706.062 81.1998 705.963 79.5068 705.473C77.8128 704.983 76.2528 704.116 74.9418 702.936C47.3138 719.807 66.6448 672.157 87.6798 644.159C80.6828 641.332 79.2928 634.333 80.6828 627.334C70.9508 634.333 65.3438 621.725 83.5088 610.508C97.4578 602.118 96.0668 588.074 111.452 578.293C109.078 577.5 107.004 576.001 105.505 573.996C104.006 571.992 103.155 569.577 103.064 567.076C87.6798 575.511 77.8128 562.858 89.0258 551.641C94.5868 544.642 100.194 551.641 108.581 544.642L133.698 520.817C128.047 518.035 123.92 508.209 129.527 502.6C121.14 489.992 100.194 515.208 100.194 506.818C97.3678 464.777 145.045 492.774 158.86 477.385C151.863 473.167 153.298 466.168 158.86 460.559C147.692 460.559 139.304 454.951 121.139 461.95C114.143 464.777 110.106 438.125 132.532 440.907C150.472 442.298 168.862 445.08 184.246 436.689C182.855 431.081 184.246 425.472 194.023 419.864C203.801 414.255 205.191 408.647 216.449 422.69C223.446 432.517 212.278 442.298 220.665 442.298C224.881 442.298 227.662 442.298 227.662 436.689C237.44 442.298 241.611 452.079 254.214 453.515C265.382 453.515 249.998 463.296 244.436 478.731C241.611 489.948 217.884 468.949 209.497 467.514C201.11 466.078 216.449 454.906 209.497 452.079C202.5 450.733 192.723 466.123 198.329 474.513C201.11 480.122 205.281 474.513 210.887 477.34L234.659 489.948C243.001 494.165 222.055 501.165 223.446 517.99C224.881 533.38 208.107 509.555 188.507 508.164C194.113 484.339 171.777 484.339 170.566 509.555C170.566 526.38 176.172 517.99 184.56 517.99C194.337 520.772 194.337 527.771 215.283 533.38C220.889 536.162 208.331 550.205 208.331 560.031C206.896 574.03 194.337 565.595 187.34 561.422C177.563 555.814 160.788 560.031 167.785 548.814C177.563 529.162 155.227 526.38 151.011 545.988C149.62 554.423 135.671 547.379 128.585 554.423C132.756 569.813 146.525 547.379 151.011 561.422C158.007 578.248 156.617 552.987 166.395 565.595C178.953 579.639 199.944 567.031 197.163 585.247C197.163 593.638 192.947 597.855 191.556 606.246C191.556 617.463 170.566 611.854 165.004 606.246C159.443 600.637 134.236 610.463 144.059 595.073C153.881 579.684 129.527 582.466 128.047 597.945C127.943 599.398 127.318 600.765 126.289 601.795C125.259 602.825 123.893 603.449 122.44 603.553C122.44 616.161 126.656 603.553 128.047 616.161C129.769 614.257 131.978 612.858 134.436 612.115C136.893 611.372 139.507 611.313 141.995 611.944C133.608 623.161 178.325 617.552 183.932 624.552C188.103 627.378 179.76 637.16 183.932 649.812C188.103 659.594 183.932 666.593 179.76 666.593C164.376 665.202 147.602 663.811 132.218 663.811C122.44 663.811 135.043 638.595 116.834 639.986C107.101 639.986 105.711 653.985 108.491 661.029C114.053 676.419 109.882 680.637 129.437 668.029L130.827 672.202C132.532 677.81 177.025 670.766 177.025 683.194C175.634 718.236 186.802 718.236 178.415 719.627C161.64 722.454 142.085 714.063 126.746 722.454C126.746 711.237 129.527 704.237 115.533 704.237C105.8 702.802 107.191 716.845 107.191 722.454C115.533 721.063 109.971 735.062 114.143 736.453C121.14 737.844 118.359 730.844 126.746 729.453C132.308 729.453 126.746 742.061 178.415 729.453C186.802 726.671 175.634 751.887 188.193 774.321C192.409 782.756 172.853 774.321 146.301 781.321C126.746 785.538 136.524 774.321 128.361 763.373C119.973 754.938 105.935 780.199 110.42 785.807C122.978 781.59 113.201 818.068 132.846 790.025C135.671 785.807 150.786 797.024 172.001 790.025C197.163 783.026 188.731 798.46 189.942 808.241C192.723 825.067 201.11 822.24 195.503 833.457C195.503 836.284 170.342 837.675 157.783 841.893C149.396 843.283 143.834 851.674 142.399 834.848C140.695 819.324 110.106 824.932 118.359 844.719C121.14 851.719 116.923 848.937 112.752 857.327C130.693 843.328 122.53 861.545 133.698 860.154C142.085 858.763 136.524 854.545 142.085 854.545C174.244 855.936 185.412 850.328 195.189 844.719C207.793 837.72 199.405 864.327 207.793 872.762C217.57 882.543 218.961 890.978 214.745 892.369C199.405 897.978 188.193 897.978 168.637 906.413C158.86 911.976 163.076 897.978 156.079 895.196C144.911 889.587 132.532 903.407 146.301 912.021C149.082 913.457 146.301 921.847 146.301 923.238C156.079 935.846 158.86 912.021 170.028 917.63C184.021 921.847 210.394 900.804 217.57 902.24C225.958 903.631 220.351 924.674 234.345 933.064C249.684 944.281 230.129 951.281 221.742 952.672C210.369 955.644 199.532 960.383 189.628 966.715C179.85 972.324 182.631 947.063 168.637 956.889C161.64 962.498 164.466 972.324 167.247 977.888C177.025 970.888 170.028 987.714 182.631 987.714C195.189 986.323 175.634 977.887 203.577 975.106C217.57 975.106 228.738 959.671 243.943 961.107C255.111 961.107 246.724 984.932 256.501 994.713C267.67 1001.76 260.673 1011.54 252.285 1008.76C241.117 1005.93 211.919 1035.36 207.434 1022.76C202.949 1010.15 185.008 1024.15 192.05 1033.97C192.05 1035.36 196.266 1045.19 187.834 1046.58C210.26 1036.75 201.827 1059.19 214.386 1043.75C225.599 1028.36 246.544 1033.97 256.322 1022.76C273.097 1004.54 271.706 1029.75 277.268 1039.58C281.484 1045.19 296.823 1064.8 288.481 1069.01C280.138 1073.23 267.49 1069.01 239.548 1087.19C235.376 1066.19 217.122 1077.4 215.776 1094.23C200.437 1092.84 192.05 1105.45 187.834 1116.66" stroke="#1D1D1B" stroke-width="5.17"/>
<path d="M184.022 435.34C186.803 439.513 189.629 446.557 199.406 446.557" stroke="#1D1D1B" stroke-width="5.17" stroke-linecap="round" stroke-linejoin="round"/>
<path d="M233.575 449.859C230.749 454.724 225.91 462.419 224.475 452.606Z" stroke="#1D1D1B" stroke-width="5.17" stroke-linecap="round" stroke-linejoin="round"/>
<path d="M196.625 467.556C192.409 460.556 182.631 468.947 182.631 460.556C181.241 447.948 164.691 453.557 158.86 460.556" stroke="#1D1D1B" stroke-width="5.17"/>
<path d="M196.625 467.556C192.409 460.556 182.631 468.947 182.631 460.556C181.241 447.948 164.691 453.557 158.86 460.556" stroke="#1D1D1B" stroke-width="5.17" stroke-linecap="round" stroke-linejoin="round"/>
<path d="M158.859 477.383C160.46 479.113 162.359 480.542 164.465 481.601L158.859 477.383Z" stroke="#1D1D1B" stroke-width="5.17"/>
<path d="M158.859 477.383C160.46 479.113 162.359 480.542 164.465 481.601" stroke="#1D1D1B" stroke-width="5.17" stroke-linecap="round" stroke-linejoin="round"/>
<path d="M210.57 487.165C207.789 491.383 196.621 494.209 203.573 484.383L210.57 487.165Z" stroke="#1D1D1B" stroke-width="5.17"/>
<path d="M210.57 487.165C207.789 491.383 196.621 494.209 203.573 484.383" stroke="#1D1D1B" stroke-width="5.17" stroke-linecap="round" stroke-linejoin="round"/>
<path d="M170.027 509.598C147.601 509.598 165.856 506.816 154.688 496.99C147.691 489.991 133.697 496.99 129.526 502.599" stroke="#1D1D1B" stroke-width="5.17"/>
<path d="M170.027 509.598C147.601 509.598 165.856 506.816 154.688 496.99C147.691 489.991 133.697 496.99 129.526 502.599" stroke="#1D1D1B" stroke-width="5.17" stroke-linecap="round" stroke-linejoin="round"/>
<path d="M133.694 520.817C135.286 521.577 137.068 521.851 138.815 521.604C140.562 521.356 142.197 520.599 143.516 519.426" stroke="#1D1D1B" stroke-width="5.17" stroke-linecap="round" stroke-linejoin="round"/>
<path d="M177.023 527.816C172.852 537.642 181.239 540.424 185.41 530.642L177.023 527.816Z" stroke="#1D1D1B" stroke-width="5.17"/>
<path d="M177.023 527.816C172.852 537.642 181.239 540.424 185.41 530.642" stroke="#1D1D1B" stroke-width="5.17" stroke-linecap="round" stroke-linejoin="round"/>
<path d="M128.047 554.465C125.222 546.03 101.495 540.422 102.886 567.073" stroke="#1D1D1B" stroke-width="5.17"/>
<path d="M128.047 554.465C125.221 546.03 102.885 540.422 102.885 567.073" stroke="#1D1D1B" stroke-width="5.17" stroke-linecap="round" stroke-linejoin="round"/>
<path d="M111.359 578.291C112.95 579.035 114.725 579.296 116.463 579.041C118.201 578.786 119.826 578.026 121.137 576.855L111.359 578.291Z" fill="#1D1D1B"/>
<path d="M160.249 571.246C151.862 581.072 160.249 588.072 167.246 576.855L160.249 571.246Z" stroke="#1D1D1B" stroke-width="5.17"/>
<path d="M160.249 571.246C151.862 581.072 160.249 588.072 167.246 576.855" stroke="#1D1D1B" stroke-width="5.17" stroke-linecap="round" stroke-linejoin="round"/>
<path d="M122.531 603.508C107.191 604.899 119.75 614.725 105.801 614.725C91.8072 613.334 83.3752 620.334 80.5942 627.333" stroke="#1D1D1B" stroke-width="5.17" stroke-linecap="round" stroke-linejoin="round"/>
<path d="M87.5883 644.113L93.1953 646.939" stroke="#1D1D1B" stroke-width="5.17"/>
<path d="M87.5883 644.113L93.1953 646.939" stroke="#1D1D1B" stroke-width="5.17" stroke-linecap="round" stroke-linejoin="round"/>
<path d="M140.694 618.898C137.914 625.942 139.304 637.114 147.691 628.724L140.694 618.898Z" stroke="#1D1D1B" stroke-width="5.17"/>
<path d="M140.694 618.898C137.914 625.942 139.304 637.114 147.691 628.724" stroke="#1D1D1B" stroke-width="5.17" stroke-linecap="round" stroke-linejoin="round"/>
<path d="M108.578 660.984C101.581 667.983 91.8041 667.983 87.5871 677.764" stroke="#1D1D1B" stroke-width="5.17" stroke-linecap="round" stroke-linejoin="round"/>
<path d="M100.191 673.59C93.1944 686.198 86.1974 667.982 75.0294 684.762C70.8584 693.197 70.8584 698.806 75.0294 702.979" stroke="#1D1D1B" stroke-width="5.17"/>
<path d="M100.191 673.59C93.1944 686.198 86.1974 667.982 75.0294 684.762C70.8584 693.197 70.8584 698.806 75.0294 702.979" stroke="#1D1D1B" stroke-width="5.17" stroke-linecap="round" stroke-linejoin="round"/>
<path d="M84.8082 705.628C87.0842 706.251 89.4932 706.183 91.7292 705.432C93.9662 704.681 95.9282 703.281 97.3672 701.41" stroke="#1D1D1B" stroke-width="5.17" stroke-linecap="round" stroke-linejoin="round"/>
<path d="M128.047 680.59C125.221 691.807 130.828 695.98 137.824 683.372L128.047 680.59Z" stroke="#1D1D1B" stroke-width="5.17"/>
<path d="M128.047 680.59C125.221 691.807 130.828 695.98 137.824 683.372" stroke="#1D1D1B" stroke-width="5.17" stroke-linecap="round" stroke-linejoin="round"/>
<path d="M137.912 743.63C139.302 753.456 119.971 750.629 129.525 740.848L137.912 743.63Z" stroke="#1D1D1B" stroke-width="5.17"/>
<path d="M137.912 743.63C139.302 753.456 119.971 750.629 129.525 740.848" stroke="#1D1D1B" stroke-width="5.17" stroke-linecap="round" stroke-linejoin="round"/>
<path d="M107.188 722.629C98.8005 722.629 100.191 732.455 94.5845 736.628L107.188 722.629Z" stroke="#1D1D1B" stroke-width="5.17"/>
<path d="M107.188 722.629C98.8005 722.629 100.191 732.455 94.5845 736.628" stroke="#1D1D1B" stroke-width="5.17" stroke-linecap="round" stroke-linejoin="round"/>
<path d="M100.195 736.629C61.0843 738.02 61.0843 761.845 79.2493 767.454" stroke="#1D1D1B" stroke-width="5.17"/>
<path d="M100.195 736.629C61.0843 738.02 61.0843 761.845 79.2493 767.454" stroke="#1D1D1B" stroke-width="5.17" stroke-linecap="round" stroke-linejoin="round"/>
<path d="M83.4192 768.892C86.4822 768.934 89.4812 768.007 91.9862 766.242C94.4912 764.477 96.3752 761.966 97.3672 759.066" stroke="#1D1D1B" stroke-width="5.17" stroke-linecap="round" stroke-linejoin="round"/>
<path d="M149.078 801.105C144.907 810.931 133.694 812.322 135.13 796.887L149.078 801.105Z" stroke="#1D1D1B" stroke-width="5.17"/>
<path d="M149.078 801.105C144.907 810.931 133.694 812.322 135.13 796.887" stroke="#1D1D1B" stroke-width="5.17" stroke-linecap="round" stroke-linejoin="round"/>
<path d="M110.105 785.672C104.499 787.063 97.5025 806.715 89.1595 806.715C76.5565 808.106 65.3885 840.321 84.9435 836.149" stroke="#1D1D1B" stroke-width="5.17"/>
<path d="M110.105 785.672C104.499 787.063 97.5025 806.715 89.1595 806.715C76.5565 808.106 65.3885 840.321 84.9435 836.149" stroke="#1D1D1B" stroke-width="5.17" stroke-linecap="round" stroke-linejoin="round"/>
<path d="M91.8076 836.149C100.196 833.323 109.749 829.15 108.583 823.496" stroke="#1D1D1B" stroke-width="5.17" stroke-linecap="round" stroke-linejoin="round"/>
<path d="M97.365 904.795C87.588 896.404 100.191 872.579 109.969 868.362C115.53 865.58 107.188 862.753 112.75 857.145" stroke="#1D1D1B" stroke-width="5.17"/>
<path d="M97.365 904.795C87.588 896.404 100.191 872.579 109.969 868.362C115.53 865.58 107.188 862.753 112.75 857.145" stroke="#1D1D1B" stroke-width="5.17" stroke-linecap="round" stroke-linejoin="round"/>
<path d="M158.857 861.363C163.028 871.189 143.518 876.797 147.689 864.144L158.857 861.363Z" stroke="#1D1D1B" stroke-width="5.17"/>
<path d="M158.857 861.363C163.028 871.189 143.518 876.797 147.689 864.144" stroke="#1D1D1B" stroke-width="5.17" stroke-linecap="round" stroke-linejoin="round"/>
<path d="M129.524 892.188C130.915 907.622 123.918 909.013 111.584 909.013L129.524 892.188Z" stroke="#1D1D1B" stroke-width="5.17"/>
<path d="M129.524 892.188C130.915 907.622 123.918 909.013 111.584 909.013" stroke="#1D1D1B" stroke-width="5.17" stroke-linecap="round" stroke-linejoin="round"/>
<path d="M146.301 923.01C139.304 913.229 135.088 932.837 122.53 937.054C108.581 939.836 118.358 959.488 125.31 966.488" stroke="#1D1D1B" stroke-width="5.17"/>
<path d="M146.301 923.01C139.304 913.229 135.088 932.837 122.53 937.054C108.581 939.836 118.358 959.488 125.31 966.488" stroke="#1D1D1B" stroke-width="5.17" stroke-linecap="round" stroke-linejoin="round"/>
<path d="M130.916 969.272C135.132 967.881 137.912 962.273 142.129 958.055L130.916 969.272Z" stroke="#1D1D1B" stroke-width="5.17"/>
<path d="M130.916 969.272C135.132 967.881 137.912 962.273 142.129 958.055" stroke="#1D1D1B" stroke-width="5.17" stroke-linecap="round" stroke-linejoin="round"/>
<path d="M179.848 928.621C174.242 942.665 161.639 935.621 165.855 924.449L179.848 928.621Z" stroke="#1D1D1B" stroke-width="5.17"/>
<path d="M179.848 928.621C174.242 942.665 161.639 935.621 165.855 924.449" stroke="#1D1D1B" stroke-width="5.17" stroke-linecap="round" stroke-linejoin="round"/>
<path d="M167.246 977.66C164.465 979.096 163.075 980.487 158.859 990.313L167.246 977.66Z" stroke="#1D1D1B" stroke-width="5.17"/>
<path d="M167.246 977.66C164.465 979.096 163.075 980.487 158.859 990.313" stroke="#1D1D1B" stroke-width="5.17" stroke-linecap="round" stroke-linejoin="round"/>
<path d="M164.465 990.314C137.913 986.097 143.519 1021.09 143.519 1018.31" stroke="#1D1D1B" stroke-width="5.17"/>
<path d="M164.465 990.314C137.913 986.097 143.519 1021.09 143.519 1018.31" stroke="#1D1D1B" stroke-width="5.17" stroke-linecap="round" stroke-linejoin="round"/>
<path d="M158.859 1025.31C164.465 1023.92 170.027 1019.75 170.027 1015.53L158.859 1025.31Z" stroke="#1D1D1B" stroke-width="5.17"/>
<path d="M158.859 1025.31C164.465 1023.92 170.027 1019.75 170.027 1015.53" stroke="#1D1D1B" stroke-width="5.17" stroke-linecap="round" stroke-linejoin="round"/>
<path d="M200.796 988.879C203.577 995.923 186.802 1001.53 191.018 991.706L200.796 988.879Z" stroke="#1D1D1B" stroke-width="5.17"/>
<path d="M200.796 988.879C203.577 995.923 186.802 1001.53 191.018 991.706" stroke="#1D1D1B" stroke-width="5.17" stroke-linecap="round" stroke-linejoin="round"/>
<path d="M172.894 1061.79C168.678 1057.57 172.894 1053.36 188.234 1046.36" stroke="#1D1D1B" stroke-width="5.17"/>
<path d="M172.894 1061.79C168.678 1057.57 172.894 1053.36 188.234 1046.36" stroke="#1D1D1B" stroke-width="5.17" stroke-linecap="round" stroke-linejoin="round"/>
<path d="M210.573 1051.96C204.966 1058.96 225.957 1060.35 221.741 1051.96H210.573Z" stroke="#1D1D1B" stroke-width="5.17"/>
<path d="M210.573 1051.96C204.966 1058.96 225.957 1060.35 221.741 1051.96" stroke="#1D1D1B" stroke-width="5.17" stroke-linecap="round" stroke-linejoin="round"/>
<path d="M146.298 1406.51C174.241 1395.29 172.85 1417.73 182.628 1417.73L200.883 1409.6L209.046 1413.14L217.416 1420.47L227.662 1411.25C230.443 1422.47 234.476 1407.81 249.816 1420.47C265.2 1434.46 274.977 1451.29 284.755 1423.25C291.752 1399.42 314.133 1406.42 311.307 1388.2C311.307 1381.21 274.977 1371.38 259.593 1355.99C254.032 1350.38 247.035 1361.55 240.038 1361.55C230.26 1360.16 242.819 1346.16 230.26 1347.55C230.26 1340.56 249.816 1332.12 254.032 1332.12C273.587 1329.34 249.816 1348.99 258.203 1348.99C280.629 1351.77 298.569 1362.99 320.995 1362.99C330.773 1362.99 322.385 1340.55 332.163 1322.34C347.547 1291.51 304.221 1298.51 288.881 1294.3C258.113 1285.91 270.716 1298.51 258.113 1298.51C242.729 1297.12 253.942 1287.3 242.729 1284.51C244.164 1274.69 248.336 1260.69 258.113 1260.69C276.278 1260.69 262.329 1283.12 267.891 1283.12C293.277 1280.34 339.384 1297.17 335.168 1278.95C329.607 1252.3 344.99 1229.91 333.777 1222.87C326.826 1218.69 294.667 1225.69 275.112 1220.08C265.334 1217.26 266.725 1227.08 261.118 1229.91C256.947 1222.87 254.166 1217.26 244.389 1215.87C248.56 1204.65 242.953 1200.43 258.337 1196.26C276.502 1190.65 263.944 1215.87 272.331 1211.69C300.274 1199.04 339.384 1210.26 330.997 1194.87C319.829 1173.83 330.997 1143 318.438 1148.61C304.445 1154.22 269.505 1148.61 258.337 1159.83C242.864 1175.26 247.08 1158.44 235.912 1155.61C234.521 1133.17 254.077 1129 255.467 1140.22C256.723 1150 290.272 1138.78 295.833 1138.78C298.659 1137.39 323.776 1131.78 314.043 1126.18C303.996 1119.18 307.046 1063.09 286.056 1085.53C280.36 1092.57 244.03 1093.96 241.204 1098.18C231.427 1120.57 223.039 1093.96 216.042 1093.96C200.703 1092.61 192.316 1105.22 188.1 1116.39C186.71 1120.61 190.926 1127.61 193.706 1127.61C199.313 1126.22 200.703 1131.83 200.703 1134.66C189.49 1143.05 193.662 1147.26 178.277 1143.05C161.503 1140.26 147.554 1164.09 158.722 1178.09C178.277 1204.69 183.884 1162.65 207.655 1175.31C206.863 1177.12 206.575 1179.12 206.819 1181.08C207.064 1183.05 207.833 1184.91 209.046 1186.48C206.22 1194.91 192.361 1200.48 171.325 1199.09C150.29 1197.7 160.113 1239.74 172.716 1238.35C193.572 1235.56 190.881 1217.3 215.998 1227.13C214.106 1228.88 212.721 1231.11 211.987 1233.58C211.253 1236.05 211.197 1238.67 211.826 1241.17C200.658 1242.56 188.055 1248.17 176.887 1246.78C161.503 1245.35 151.725 1280.39 164.329 1286C182.493 1294.39 200.658 1272 215.998 1288.78C210.436 1292.99 206.22 1299.99 209.046 1307.04C200.883 1307.04 199.492 1308.43 191.105 1305.65C154.775 1295.82 151.95 1337.86 158.946 1346.25C170.114 1360.25 188.279 1337.86 200.883 1354.64C199.112 1356.17 197.789 1358.15 197.054 1360.37C196.319 1362.59 196.201 1364.97 196.711 1367.25C182.628 1372.86 174.286 1360.25 151.86 1368.69C133.695 1375.69 132.305 1410.73 146.298 1406.51Z" stroke="#1D1D1B" stroke-width="5.17" stroke-linecap="round" stroke-linejoin="round"/>
<path d="M224.567 1126.22C207.792 1119.22 204.967 1150.05 227.348 1143.05L224.567 1126.22Z" stroke="#1D1D1B" stroke-width="5.17"/>
<path d="M224.567 1126.22C207.792 1119.22 204.967 1150.05 227.348 1143.05" stroke="#1D1D1B" stroke-width="5.17" stroke-linecap="round" stroke-linejoin="round"/>
<path d="M200.794 1134.66C202.184 1137.44 202.184 1137.44 204.965 1137.44L200.794 1134.66Z" stroke="#1D1D1B" stroke-width="5.17"/>
<path d="M200.794 1134.66C202.184 1137.44 202.184 1137.44 204.965 1137.44" stroke="#1D1D1B" stroke-width="5.17" stroke-linecap="round" stroke-linejoin="round"/>
<path d="M235.688 1155.65C225.91 1152.87 209.135 1162.65 207.745 1175.31" stroke="#1D1D1B" stroke-width="5.17"/>
<path d="M235.688 1155.65C225.91 1152.87 209.135 1162.65 207.745 1175.31" stroke="#1D1D1B" stroke-width="5.17" stroke-linecap="round" stroke-linejoin="round"/>
<path d="M209.181 1186.48C211.198 1188.69 213.543 1190.58 216.133 1192.09L209.181 1186.48Z" stroke="#1D1D1B" stroke-width="5.17"/>
<path d="M209.181 1186.48C211.198 1188.69 213.543 1190.58 216.133 1192.09" stroke="#1D1D1B" stroke-width="5.17" stroke-linecap="round" stroke-linejoin="round"/>
<path d="M235.691 1178.09C220.307 1171.09 216.091 1201.91 234.301 1196.3L235.691 1178.09Z" stroke="#1D1D1B" stroke-width="5.17"/>
<path d="M235.691 1178.09C220.307 1171.09 216.091 1201.91 234.301 1196.3" stroke="#1D1D1B" stroke-width="5.17" stroke-linecap="round" stroke-linejoin="round"/>
<path d="M244.121 1215.91C238.871 1214.87 233.433 1215.38 228.466 1217.37C223.499 1219.36 219.215 1222.75 216.133 1227.13" stroke="#1D1D1B" stroke-width="5.17"/>
<path d="M244.121 1215.91C238.871 1214.87 233.433 1215.38 228.466 1217.37C223.499 1219.36 219.215 1222.75 216.133 1227.13" stroke="#1D1D1B" stroke-width="5.17" stroke-linecap="round" stroke-linejoin="round"/>
<path d="M211.961 1241.17C211.911 1243.01 212.258 1244.83 212.978 1246.52C213.698 1248.21 214.774 1249.72 216.133 1250.95L211.961 1241.17Z" stroke="#1D1D1B" stroke-width="5.17"/>
<path d="M211.961 1241.17C211.911 1243.01 212.258 1244.83 212.978 1246.52C213.698 1248.21 214.774 1249.72 216.133 1250.95" stroke="#1D1D1B" stroke-width="5.17" stroke-linecap="round" stroke-linejoin="round"/>
<path d="M241.297 1239.56C225.958 1222.73 214.745 1261.99 237.126 1259.16L241.297 1239.56Z" stroke="#1D1D1B" stroke-width="5.17"/>
<path d="M241.297 1239.56C225.958 1222.73 214.745 1261.99 237.126 1259.16" stroke="#1D1D1B" stroke-width="5.17" stroke-linecap="round" stroke-linejoin="round"/>
<path d="M242.688 1284.43C238.245 1282.99 233.525 1282.62 228.913 1283.34C224.301 1284.07 219.923 1285.87 216.134 1288.6" stroke="#1D1D1B" stroke-width="5.17" stroke-linecap="round" stroke-linejoin="round"/>
<path d="M209.18 1306.99L211.961 1312.6" stroke="#1D1D1B" stroke-width="5.17"/>
<path d="M209.18 1306.99L211.961 1312.6" stroke="#1D1D1B" stroke-width="5.17" stroke-linecap="round" stroke-linejoin="round"/>
<path d="M238.512 1299.99C220.572 1299.99 221.738 1333.65 242.684 1321.04L238.512 1299.99Z" stroke="#1D1D1B" stroke-width="5.17"/>
<path d="M238.512 1299.99C220.572 1299.99 221.738 1333.65 242.684 1321.04" stroke="#1D1D1B" stroke-width="5.17" stroke-linecap="round" stroke-linejoin="round"/>
<path d="M230.125 1347.64C220.348 1347.64 207.7 1349.03 200.793 1354.64" stroke="#1D1D1B" stroke-width="5.17" stroke-linecap="round" stroke-linejoin="round"/>
<path d="M196.622 1367.25L198.012 1375.64" stroke="#1D1D1B" stroke-width="5.17"/>
<path d="M196.622 1367.25L198.012 1375.64" stroke="#1D1D1B" stroke-width="5.17" stroke-linecap="round" stroke-linejoin="round"/>
<path d="M231.516 1371.47C217.567 1361.64 203.574 1395.29 224.564 1392.51L231.516 1371.47Z" stroke="#1D1D1B" stroke-width="5.17"/>
<path d="M231.516 1371.47C217.567 1361.64 203.574 1395.29 224.564 1392.51" stroke="#1D1D1B" stroke-width="5.17" stroke-linecap="round" stroke-linejoin="round"/>
<path d="M251.118 1472.38C262.331 1469.6 258.114 1461.16 258.114 1461.16L227.615 1410.73C225.212 1410.57 222.841 1411.36 221.012 1412.92C219.184 1414.49 218.044 1416.72 217.838 1419.12C213.622 1416.34 210.841 1413.51 206.625 1410.73C187.07 1400.9 172.897 1438.73 154.956 1426.12C132.575 1409.34 135.401 1441.55 122.797 1445.77C108.849 1451.38 85.2925 1465.99 88.0735 1485.59C90.8545 1502.42 70.5185 1486.2 69.1275 1522.64C67.6925 1561.9 55.7435 1534.03 68.3025 1573.29C76.6895 1599.89 61.3505 1611.11 87.8575 1616.72L104.632 1618.15C110.239 1609.72 104.632 1590.11 110.239 1576.07C118.402 1549.46 103.018 1550.85 128.18 1535.46C154.732 1518.64 147.735 1534.03 174.287 1521.42C198.238 1510.2 189.671 1527.03 216.178 1515.81C245.556 1503.2 219.004 1479.38 251.118 1472.38Z" stroke="#1D1D1B" stroke-width="5.17"/>
<path d="M231.517 1480.77C241.295 1463.99 223.13 1452.77 207.791 1455.55C179.849 1459.77 207.791 1480.77 184.02 1482.2C171.461 1480.77 182.629 1501.81 149.08 1489.2C123.919 1480.77 112.751 1518.64 112.751 1536.85" stroke="#1D1D1B" stroke-width="5.17" stroke-linecap="round" stroke-linejoin="round"/>
<path d="M168.934 1427.77L171.129 1438C172.986 1446.66 178.146 1454.25 185.513 1459.16L192.538 1463.84" stroke="#1D1D1B" stroke-width="5" stroke-linecap="round" stroke-dasharray="10 10"/>
<path d="M127.117 1442.94L129.364 1453.41C131.19 1461.93 136.215 1469.42 143.402 1474.34L166.908 1490.43" stroke="#1D1D1B" stroke-width="5" stroke-linecap="round" stroke-dasharray="10 10"/>
<path d="M88.2773 1491.77L100.404 1499C101.962 1499.93 103.592 1500.73 105.278 1501.4L120.603 1507.47" stroke="#1D1D1B" stroke-width="5" stroke-linecap="round" stroke-dasharray="10 10"/>
<path d="M66.1406 1546.9L76.7189 1552.8C82.7713 1556.18 89.7114 1557.63 96.6095 1556.95L111.365 1555.5" stroke="#1D1D1B" stroke-width="5" stroke-linecap="round" stroke-dasharray="10 10"/>
<path d="M87.6781 1616.72C89.1141 1618.15 103.062 1620.94 104.453 1618.15L87.6781 1616.72Z" stroke="#1D1D1B" stroke-width="5.17"/>
<path d="M87.6781 1616.72C89.1141 1618.15 103.062 1620.94 104.453 1618.15" stroke="#1D1D1B" stroke-width="5.17" stroke-linecap="round" stroke-linejoin="round"/>
<path d="M89.024 1564.9C90.206 1562.68 90.702 1560.16 90.446 1557.65C90.19 1555.15 89.196 1552.79 87.588 1550.85" stroke="#1D1D1B" stroke-width="5.17" stroke-linecap="round" stroke-linejoin="round"/>
<path d="M99.4154 1509.85C106.367 1509.85 111.973 1490.2 102.195 1494.42" stroke="#1D1D1B" stroke-width="5.17" stroke-linecap="round" stroke-linejoin="round"/>
<path d="M137.53 1454.1C143.932 1448.75 139.464 1462.51 139.464 1462.51C139.464 1462.51 137.112 1469.92 133.252 1472.28C129.619 1474.49 129.502 1469.75 131.306 1464.36" stroke="#1D1D1B" stroke-width="5.17"/>
<path d="M172.897 1455.55C174.288 1473.77 182.675 1440.16 175.678 1441.55" stroke="#1D1D1B" stroke-width="5.17" stroke-linecap="round" stroke-linejoin="round"/>
<path d="M115.801 1643.32C118.626 1636.33 110.239 1618.15 104.632 1618.15L87.858 1616.72C92.074 1634.93 86.692 1639.15 104.632 1643.32C103.242 1650.37 111.629 1658.76 117.236 1660.15C117.236 1667.19 122.797 1667.19 127.013 1669.98C145.178 1693.8 143.788 1667.19 129.794 1664.37C129.757 1662.58 129.209 1660.84 128.216 1659.35C127.222 1657.87 125.825 1656.7 124.188 1655.98C124.225 1653.27 123.444 1650.61 121.947 1648.36C120.451 1646.1 118.309 1644.34 115.801 1643.32Z" fill="white" stroke="#1D1D1B" stroke-width="5.17" stroke-linecap="round" stroke-linejoin="round"/>
<path d="M129.275 1662.98C130.665 1667.2 129.275 1670.03 126.494 1668.59" stroke="#1D1D1B" stroke-width="5.17" stroke-linecap="round" stroke-linejoin="round"/>
<path d="M116.964 1660.2C120.837 1661.59 122.127 1658.76 123.418 1655.98" stroke="#1D1D1B" stroke-width="5.17" stroke-linecap="round" stroke-linejoin="round"/>
<path d="M115.281 1643.37C112.5 1648.98 106.939 1644.77 104.113 1643.37" stroke="#1D1D1B" stroke-width="5.17" stroke-linecap="round" stroke-linejoin="round"/>
<line y1="-0.5" x2="42.5093" y2="-0.5" transform="matrix(0.914323 -0.404986 0.447136 0.894466 315.539 172.266)" stroke="black"/>
<path d="M375.25 156.041C373.034 156.041 370.992 155.516 369.125 154.466C367.282 153.393 365.812 151.9 364.715 149.986C363.619 148.073 363.07 145.891 363.07 143.441C363.07 140.991 363.619 138.81 364.715 136.896C365.812 134.983 367.282 133.501 369.125 132.451C370.992 131.378 373.034 130.841 375.25 130.841C378.144 130.841 380.559 131.611 382.495 133.151C384.432 134.691 385.657 136.733 386.17 139.276H382.81C382.32 137.596 381.41 136.29 380.08 135.356C378.75 134.4 377.129 133.921 375.215 133.921C373.465 133.921 371.925 134.33 370.595 135.146C369.289 135.963 368.274 137.095 367.55 138.541C366.85 139.988 366.5 141.621 366.5 143.441C366.5 145.261 366.85 146.895 367.55 148.341C368.274 149.788 369.289 150.92 370.595 151.736C371.925 152.553 373.465 152.961 375.215 152.961C377.129 152.961 378.75 152.495 380.08 151.561C381.41 150.605 382.32 149.286 382.81 147.606H386.17C385.82 149.286 385.155 150.768 384.175 152.051C383.195 153.311 381.935 154.291 380.395 154.991C378.879 155.691 377.164 156.041 375.25 156.041ZM391.342 152.611H396.767V135.881C396.207 136.371 395.577 136.71 394.877 136.896C394.2 137.06 393.267 137.141 392.077 137.141V134.341H392.637C393.897 134.341 394.865 134.096 395.542 133.606C396.219 133.093 396.627 132.288 396.767 131.191H400.127V152.611H405.552V155.691H391.342V152.611Z" fill="black"/>
<line x1="93.6573" y1="1204" x2="148.058" y2="1214.5" stroke="black"/>
<path d="M43.8563 1190.49H47.2163V1211.91H59.2913V1214.99H43.8563V1190.49ZM63.3646 1212.12L73.4796 1203.02C74.5063 1202.08 75.2763 1201.21 75.7896 1200.39C76.303 1199.55 76.5596 1198.56 76.5596 1197.42C76.5596 1196.11 76.1163 1195.08 75.2296 1194.34C74.3663 1193.59 73.2346 1193.22 71.8346 1193.22C70.4113 1193.22 69.233 1193.65 68.2996 1194.51C67.3896 1195.38 66.8996 1196.57 66.8296 1198.08H63.6096C63.6796 1196.57 64.0763 1195.2 64.7996 1193.99C65.5463 1192.77 66.5146 1191.83 67.7046 1191.15C68.918 1190.48 70.248 1190.14 71.6946 1190.14C73.258 1190.14 74.6463 1190.43 75.8596 1191.01C77.0963 1191.6 78.053 1192.42 78.7296 1193.5C79.4296 1194.57 79.7796 1195.82 79.7796 1197.24C79.7796 1198.76 79.4296 1200.12 78.7296 1201.34C78.053 1202.53 77.038 1203.72 75.6846 1204.91L67.7396 1211.91H80.2696V1214.99H63.3646V1212.12Z" fill="black"/>
</g>
<path d="M198.607 4.8826L196.97 6.79273C189.16 15.904 174.23 10.3811 174.23 -1.61923C174.23 -5.98811 179.067 -8.62418 182.738 -6.25678L186.512 -3.82362C188.66 -2.43908 191.341 -2.16873 193.722 -3.0967L201.296 -6.04919C205.22 -7.57901 209.48 -8.04369 213.642 -7.39608L233.772 -4.26395C245.02 -2.51377 256.485 -2.70596 267.668 -4.83215L281.473 -7.45665C296.223 -10.261 311.458 -9.00855 325.552 -3.83289L331.27 -1.73314C331.476 -1.65732 331.677 -1.56564 331.869 -1.45893L362.92 15.7664C363.813 16.262 363.221 17.6221 362.25 17.3063L353.93 14.6027L337.291 9.19538L331.82 7.4174C313.611 1.49981 294.155 0.537104 275.451 4.62821L263.665 7.20596C255.183 9.06132 246.386 8.93104 237.962 6.82529L212.488 0.457489C207.397 -0.815269 202.023 0.897831 198.607 4.8826Z" fill="#F8D0A3" stroke="#1D1D1B" stroke-width="5" stroke-linecap="round"/>
<g style="mix-blend-mode:exclusion">
<path d="M447.045 -131.775L445.344 -133.628C437.227 -142.466 444.487 -156.633 456.402 -155.205C460.74 -154.685 462.782 -149.569 459.994 -146.205L457.129 -142.748C455.499 -140.781 454.911 -138.15 455.549 -135.676L457.58 -127.805C458.631 -123.726 458.586 -119.441 457.448 -115.386L451.942 -95.7718C448.866 -84.8118 447.692 -73.4053 448.472 -62.0484L449.541 -46.4972C450.501 -32.5211 447.605 -18.4609 441.245 -5.97858C438.883 -1.34148 436.035 3.07231 432.778 7.13147L427.339 13.9096C426.622 14.8032 425.787 15.595 424.856 16.2631L407.673 28.5965C406.508 29.4331 404.885 28.6001 404.885 27.1655C404.885 26.5721 405.183 26.0186 405.679 25.693L410.26 22.6854C411.123 22.1185 411.909 21.4417 412.598 20.672L418.416 14.172C423.616 8.36305 427.923 1.81393 431.198 -5.26096L431.48 -5.87C437.686 -19.2773 440.21 -34.095 438.793 -48.8008L436.996 -67.4557C436.163 -76.0988 437.34 -84.8174 440.433 -92.9309L449.787 -117.466C451.657 -122.37 450.595 -127.909 447.045 -131.775Z" fill="#F8D0A3"/>
<path d="M447.045 -131.775L445.344 -133.628C437.227 -142.466 444.487 -156.633 456.402 -155.205C460.74 -154.685 462.782 -149.569 459.994 -146.205L457.129 -142.748C455.499 -140.781 454.911 -138.15 455.549 -135.676L457.58 -127.805C458.631 -123.726 458.586 -119.441 457.448 -115.386L451.942 -95.7718C448.866 -84.8118 447.692 -73.4053 448.472 -62.0484L449.541 -46.4972C450.501 -32.5211 447.605 -18.4609 441.245 -5.97858C438.883 -1.34148 436.035 3.07231 432.778 7.13147L427.339 13.9096C426.622 14.8032 425.787 15.595 424.856 16.2631L407.673 28.5965C406.508 29.4331 404.885 28.6001 404.885 27.1655C404.885 26.5721 405.183 26.0186 405.679 25.693L410.26 22.6854C411.123 22.1185 411.909 21.4417 412.598 20.672L418.416 14.172C423.616 8.36305 427.923 1.81393 431.198 -5.26096L431.48 -5.87C437.686 -19.2773 440.21 -34.095 438.793 -48.8008L436.996 -67.4557C436.163 -76.0988 437.34 -84.8174 440.433 -92.9309L449.787 -117.466C451.657 -122.37 450.595 -127.909 447.045 -131.775Z" stroke="#1D1D1B" stroke-width="5" stroke-linecap="round"/>
</g>
<g style="mix-blend-mode:exclusion">
<path d="M198.607 4.8826L196.97 6.79273C189.16 15.904 174.23 10.3811 174.23 -1.61923C174.23 -5.98811 179.067 -8.62418 182.738 -6.25678L186.512 -3.82362C188.66 -2.43908 191.341 -2.16873 193.722 -3.0967L201.296 -6.04919C205.22 -7.57901 209.48 -8.04369 213.642 -7.39608L233.772 -4.26395C245.02 -2.51377 256.485 -2.70596 267.668 -4.83215L281.473 -7.45665C296.223 -10.261 311.458 -9.00855 325.552 -3.83289L331.27 -1.73314C331.476 -1.65732 331.677 -1.56564 331.869 -1.45893L362.92 15.7664C363.813 16.262 363.221 17.6221 362.25 17.3063L353.93 14.6027L337.291 9.19538L331.82 7.4174C313.611 1.49981 294.155 0.537104 275.451 4.62821L263.665 7.20596C255.183 9.06132 246.386 8.93104 237.962 6.82529L212.488 0.457489C207.397 -0.815269 202.023 0.897831 198.607 4.8826Z" fill="#F8D0A3"/>
<path d="M198.607 4.8826L196.97 6.79273C189.16 15.904 174.23 10.3811 174.23 -1.61923C174.23 -5.98811 179.067 -8.62418 182.738 -6.25678L186.512 -3.82362C188.66 -2.43908 191.341 -2.16873 193.722 -3.0967L201.296 -6.04919C205.22 -7.57901 209.48 -8.04369 213.642 -7.39608L233.772 -4.26395C245.02 -2.51377 256.485 -2.70596 267.668 -4.83215L281.473 -7.45665C296.223 -10.261 311.458 -9.00855 325.552 -3.83289L331.27 -1.73314C331.476 -1.65732 331.677 -1.56564 331.869 -1.45893L362.92 15.7664C363.813 16.262 363.221 17.6221 362.25 17.3063L353.93 14.6027L337.291 9.19538L331.82 7.4174C313.611 1.49981 294.155 0.537104 275.451 4.62821L263.665 7.20596C255.183 9.06132 246.386 8.93104 237.962 6.82529L212.488 0.457489C207.397 -0.815269 202.023 0.897831 198.607 4.8826Z" stroke="#1D1D1B" stroke-width="5" stroke-linecap="round"/>
</g>
</g>
<defs>
<clipPath id="clip0_427_4228">
<rect width="469" height="1685" fill="white"/>
</clipPath>
</defs>
</svg>
