<svg width="470" height="1685" viewBox="0 0 470 1685" fill="none" xmlns="http://www.w3.org/2000/svg">
<g clip-path="url(#clip0_431_7682)">
<g opacity="0.15">
<mask id="path-1-outside-1_431_7682" maskUnits="userSpaceOnUse" x="80.1875" y="-205.66" width="366" height="1397" fill="black">
<rect fill="white" x="80.1875" y="-205.66" width="366" height="1397"/>
<path fill-rule="evenodd" clip-rule="evenodd" d="M281.872 70.313L289.886 65.4286C296.894 61.157 301.171 53.5425 301.171 45.335V39.1418C301.171 28.6645 292.192 20.4384 281.755 21.3527L272.309 22.1802C269.104 22.4609 266.163 20.3927 265.344 17.2822C263.848 11.6035 269.951 6.94211 275.036 9.87924L278.831 12.0713C282.624 14.2618 287.447 12.0894 288.321 7.79755C289.392 2.53027 296.08 0.840561 299.525 4.96681L306.485 13.304C309.658 17.1047 314.889 18.4807 319.521 16.7329L324.486 14.8598C326.641 14.0469 328.925 13.6304 331.228 13.6304H338.407C342.198 13.6304 345.981 13.2617 349.7 12.5294L360.517 10.4C366.497 9.22275 372.216 6.97888 377.402 3.77565C383.615 -0.0632019 390.584 -2.51668 397.833 -3.41743L410.228 -4.95786C411.894 -5.16483 413.521 -5.61108 415.059 -6.28285L419.881 -8.38943C428.824 -12.2954 431.032 -23.9768 424.132 -30.877C420.245 -34.7631 419.024 -40.5792 421.02 -45.7001L435.165 -82.0027C446.596 -111.339 438.076 -144.698 413.979 -164.961L400.227 -176.525C382.458 -191.467 359.987 -199.659 336.77 -199.659L283.053 -199.66C249.832 -199.661 216.995 -192.563 186.741 -178.842L165.411 -169.169C147.781 -161.173 132.162 -149.335 119.699 -134.522C99.4254 -110.425 88.603 -79.7798 89.2485 -48.2953L89.2927 -46.1384L86.2127 -1.52718C85.7477 5.20926 91.7814 10.5637 98.4148 9.30124L99.1141 9.16814C100.137 8.9734 101.105 8.55606 101.949 7.94566L110.978 1.41484C113.665 -0.528915 117.275 2.08502 116.266 5.2446C116.119 5.70711 115.875 6.1331 115.551 6.49452L104.401 18.9254C103.528 19.8982 102.268 20.454 100.961 20.454C97.1657 20.454 94.9626 24.8205 97.2951 27.8143L103.03 35.1747L114.538 50.3423C118.645 55.7549 123.836 60.2513 129.779 63.5442L146.04 72.5536C147.69 73.4676 149.648 73.6452 151.435 73.043C153.472 72.3568 155.056 70.7369 155.698 68.6859L167.31 31.5401L172.219 7.18759C172.474 5.92215 171.581 4.71301 170.296 4.58458C167.629 4.3179 167.698 0.408112 170.372 0.234802L175.531 -0.0994415C175.759 -0.114212 175.984 -0.15892 176.201 -0.232376L183.067 -2.56297C187.873 -4.19418 193.187 -2.7005 196.44 1.19565L198.696 3.89908C202.206 8.10362 208.599 8.30267 212.363 4.32463C214.91 1.63387 218.827 0.744492 222.286 2.07213L229.9 4.99481C235.207 7.03221 238.015 12.8459 236.311 18.2697L235.622 20.4623C233.861 26.0699 227.278 28.504 222.292 25.3916L219.505 23.6518C216.177 21.5742 211.779 23.0345 210.355 26.6905C208.393 31.7258 201.402 32.0783 198.944 27.2659L196.429 22.3432C193.753 17.104 186.77 15.9504 182.55 20.0503L178.708 23.7841C176.863 25.5771 175.606 27.8883 175.103 30.4117L170.329 54.3907C168.425 63.9497 171.068 73.8506 177.482 81.1896C180.843 85.0359 185.093 88.0042 189.861 89.837L199.586 93.5752C203.87 95.2222 208.551 92.3564 209.032 87.7914L210.548 73.4168C210.65 72.4453 210.903 71.4957 211.298 70.602L217.076 57.5133C218.473 54.3484 223.027 54.5402 224.153 57.8114C225.128 60.6432 228.841 61.2903 230.717 58.955L233.491 55.5004C236.45 51.8154 242.271 52.6227 244.116 56.974L244.982 59.0183C247.1 64.0138 243.433 69.5506 238.007 69.5506H233.633C228.442 69.5506 224.034 73.354 223.274 78.4895L221.709 103.894V103.894C221.709 103.958 221.696 104.022 221.67 104.081C221.636 104.159 221.618 104.244 221.618 104.334C221.618 104.358 221.619 104.382 221.622 104.405C221.622 104.413 221.623 104.42 221.625 104.427L224.598 124.329C226.582 137.609 227.578 151.019 227.578 164.446V194.534L224.602 233.025C222.136 261.157 217.085 289.002 209.514 316.209L209.107 317.671L195.373 350.566L174.405 394.899L141.213 460.814L119.064 508.945C108.587 542.225 101.764 576.547 98.7144 611.305L98.2021 617.144C96.9692 656.784 99.9201 696.442 107.006 735.463L108.302 742.601L119.892 795.451L142.754 857.11C156.987 898.432 175.11 938.311 196.877 976.209L197.969 978.111L223.394 1036.06L241.748 1073.42C245.902 1081.87 249.371 1090.65 252.122 1099.66C256.181 1112.95 258.653 1126.68 259.485 1140.55L261.072 1167.01L261.736 1184.37C261.775 1185.39 263.199 1185.58 263.511 1184.62C263.532 1184.55 263.545 1184.48 263.551 1184.41L265.042 1166.51L264.542 1148.5L263.406 1118.27C260.527 1098.82 255.342 1079.79 247.96 1061.56L235.208 1030.08L207.27 963.902L178.827 905.018L157.745 846.861L138.844 789.431L125.213 731.278L117.763 671.667V617.144L120.496 590.7C122.407 572.2 126.02 553.917 131.287 536.08C135.48 521.882 140.709 508.01 146.931 494.577L157.939 470.814L177.97 427.522L196.386 391.011L215.124 353.857C226.089 329.777 234.972 304.803 241.676 279.207L242.263 276.964L248.402 233.025V192.964L248.848 142.562L250.251 104.381C250.251 104.345 250.248 104.309 250.242 104.274C250.231 104.202 250.247 104.127 250.289 104.067V104.067L259.158 91.4726C265.217 82.953 272.945 75.7541 281.872 70.313Z"/>
</mask>
<path d="M289.886 65.4286L292.577 69.8432L292.577 69.8432L289.886 65.4286ZM281.872 70.313L279.181 65.8984L279.181 65.8984L281.872 70.313ZM281.755 21.3527L282.206 26.503L282.206 26.503L281.755 21.3527ZM272.309 22.1802L272.76 27.3305L272.76 27.3305L272.309 22.1802ZM265.344 17.2822L270.344 15.9653L270.344 15.9652L265.344 17.2822ZM275.036 9.87924L277.622 5.40239L277.622 5.40238L275.036 9.87924ZM278.831 12.0713L276.245 16.5481L276.245 16.5481L278.831 12.0713ZM288.321 7.79755L293.387 8.82816L293.387 8.82815L288.321 7.79755ZM299.525 4.96681L303.494 1.65353L303.494 1.65352L299.525 4.96681ZM306.485 13.304L302.516 16.6173L302.516 16.6173L306.485 13.304ZM319.521 16.7329L317.697 11.8957L317.697 11.8958L319.521 16.7329ZM324.486 14.8598L326.311 19.697L326.311 19.697L324.486 14.8598ZM349.7 12.5294L348.702 7.45676L348.702 7.45676L349.7 12.5294ZM360.517 10.4L361.516 15.4726L361.516 15.4726L360.517 10.4ZM377.402 3.77565L374.684 -0.622711L374.684 -0.622705L377.402 3.77565ZM397.833 -3.41743L397.195 -8.54797L397.195 -8.54797L397.833 -3.41743ZM410.228 -4.95786L410.866 0.172681L410.866 0.172679L410.228 -4.95786ZM415.059 -6.28285L412.989 -11.0206L412.989 -11.0206L415.059 -6.28285ZM419.881 -8.38943L417.812 -13.1272L417.812 -13.1272L419.881 -8.38943ZM424.132 -30.877L420.476 -27.2213L420.476 -27.2212L424.132 -30.877ZM421.02 -45.7001L425.837 -43.8231L425.837 -43.8231L421.02 -45.7001ZM435.165 -82.0027L430.348 -83.8797L430.348 -83.8797L435.165 -82.0027ZM413.979 -164.961L410.651 -161.004L410.651 -161.004L413.979 -164.961ZM400.227 -176.525L403.554 -180.482L403.554 -180.482L400.227 -176.525ZM336.77 -199.659L336.77 -194.489L336.77 -194.489L336.77 -199.659ZM283.053 -199.66L283.053 -204.83L283.053 -204.83L283.053 -199.66ZM186.741 -178.842L184.605 -183.55L184.605 -183.55L186.741 -178.842ZM165.411 -169.169L167.547 -164.46L167.547 -164.46L165.411 -169.169ZM119.699 -134.522L115.743 -137.851L115.743 -137.851L119.699 -134.522ZM89.2485 -48.2953L94.4174 -48.4013L94.4174 -48.4013L89.2485 -48.2953ZM89.2927 -46.1384L94.4504 -45.7823L94.4664 -46.013L94.4616 -46.2443L89.2927 -46.1384ZM86.2127 -1.52718L91.3705 -1.17108L86.2127 -1.52718ZM98.4148 9.30124L97.4482 4.2224L97.4481 4.22241L98.4148 9.30124ZM99.1141 9.16814L100.081 14.247L100.081 14.247L99.1141 9.16814ZM101.949 7.94566L98.9189 3.75663L98.9189 3.75664L101.949 7.94566ZM110.978 1.41484L114.008 5.60388L110.978 1.41484ZM116.266 5.2446L121.192 6.81649L121.192 6.81649L116.266 5.2446ZM115.551 6.49452L119.399 9.9466L119.399 9.94655L115.551 6.49452ZM104.401 18.9254L100.552 15.4733L100.552 15.4734L104.401 18.9254ZM97.2951 27.8143L93.2168 30.9918L93.2168 30.9918L97.2951 27.8143ZM103.03 35.1747L107.148 32.0496L107.128 32.0233L107.108 31.9972L103.03 35.1747ZM114.538 50.3423L110.42 53.4673L110.42 53.4673L114.538 50.3423ZM129.779 63.5442L127.274 68.0664L127.274 68.0664L129.779 63.5442ZM146.04 72.5536L143.535 77.0758L143.535 77.0758L146.04 72.5536ZM151.435 73.043L149.785 68.1436L149.784 68.1436L151.435 73.043ZM155.698 68.6859L160.632 70.2286L160.632 70.2286L155.698 68.6859ZM167.31 31.5401L172.244 33.0827L172.325 32.8257L172.378 32.5617L167.31 31.5401ZM172.219 7.18759L177.287 8.20915L177.287 8.20913L172.219 7.18759ZM170.296 4.58458L169.782 9.72893L169.782 9.72893L170.296 4.58458ZM170.372 0.234802L170.038 -4.92438L170.038 -4.92438L170.372 0.234802ZM175.531 -0.0994415L175.197 -5.25864L175.197 -5.25862L175.531 -0.0994415ZM176.201 -0.232376L177.862 4.66337L177.862 4.66331L176.201 -0.232376ZM183.067 -2.56297L184.729 2.33271L184.729 2.33271L183.067 -2.56297ZM196.44 1.19565L192.471 4.50871L192.471 4.50871L196.44 1.19565ZM198.696 3.89908L202.665 0.586021L202.665 0.586012L198.696 3.89908ZM212.363 4.32463L208.608 0.771049L208.608 0.771065L212.363 4.32463ZM222.286 2.07213L224.139 -2.75447L224.139 -2.75447L222.286 2.07213ZM229.9 4.99481L228.047 9.82141L228.047 9.82141L229.9 4.99481ZM236.311 18.2697L231.379 16.7202L231.379 16.7202L236.311 18.2697ZM235.622 20.4623L240.555 22.0118L240.555 22.0118L235.622 20.4623ZM222.292 25.3916L225.03 21.0059L225.03 21.0059L222.292 25.3916ZM219.505 23.6518L222.243 19.2661L222.243 19.2661L219.505 23.6518ZM210.355 26.6905L205.538 24.8136L205.538 24.8136L210.355 26.6905ZM198.944 27.2659L194.34 29.6179L194.34 29.6179L198.944 27.2659ZM196.429 22.3432L201.033 19.9912L201.033 19.9912L196.429 22.3432ZM182.55 20.0503L178.948 16.3425L178.948 16.3425L182.55 20.0503ZM178.708 23.7841L182.311 27.4919L182.311 27.4919L178.708 23.7841ZM175.103 30.4117L170.033 29.4021L170.033 29.4021L175.103 30.4117ZM170.329 54.3907L175.399 55.4003L170.329 54.3907ZM177.482 81.1896L173.589 84.5917L173.589 84.5918L177.482 81.1896ZM189.861 89.837L188.006 94.6628L188.006 94.6628L189.861 89.837ZM199.586 93.5752L197.731 98.401L197.731 98.401L199.586 93.5752ZM209.032 87.7914L214.174 88.3335L214.174 88.3335L209.032 87.7914ZM210.548 73.4168L205.406 72.8747L205.406 72.8748L210.548 73.4168ZM211.298 70.602L206.568 68.514L206.568 68.5141L211.298 70.602ZM217.076 57.5133L221.806 59.6013L221.806 59.6013L217.076 57.5133ZM224.153 57.8114L229.042 56.1285L229.042 56.1285L224.153 57.8114ZM230.717 58.955L226.686 55.7179L226.686 55.7179L230.717 58.955ZM233.491 55.5004L237.522 58.7375L237.522 58.7375L233.491 55.5004ZM244.116 56.974L239.356 58.9918L239.356 58.9918L244.116 56.974ZM244.982 59.0183L240.222 61.0362L240.222 61.0362L244.982 59.0183ZM223.274 78.4895L218.16 77.7325L218.128 77.9511L218.114 78.1716L223.274 78.4895ZM221.622 104.405L216.485 104.988L216.485 104.994L221.622 104.405ZM221.625 104.427L226.738 103.664L226.737 103.657L221.625 104.427ZM224.598 124.329L219.484 125.093L219.484 125.093L224.598 124.329ZM227.578 194.534L232.732 194.932L232.748 194.733V194.534H227.578ZM224.602 233.025L229.752 233.476L229.754 233.45L229.756 233.423L224.602 233.025ZM209.514 316.209L214.495 317.595L214.495 317.595L209.514 316.209ZM209.107 317.671L213.878 319.663L214.002 319.366L214.088 319.057L209.107 317.671ZM195.373 350.566L200.047 352.776L200.098 352.668L200.144 352.558L195.373 350.566ZM174.405 394.899L179.023 397.224L179.052 397.167L179.079 397.109L174.405 394.899ZM141.213 460.814L136.596 458.488L136.555 458.57L136.517 458.652L141.213 460.814ZM119.064 508.945L114.368 506.784L114.231 507.081L114.133 507.392L119.064 508.945ZM98.7144 611.305L93.5641 610.853L93.5641 610.853L98.7144 611.305ZM98.2021 617.144L93.0519 616.692L93.0391 616.838L93.0346 616.983L98.2021 617.144ZM107.006 735.463L112.092 734.539L112.092 734.539L107.006 735.463ZM108.302 742.601L103.215 743.524L103.232 743.616L103.252 743.708L108.302 742.601ZM119.892 795.451L114.842 796.559L114.919 796.911L115.044 797.249L119.892 795.451ZM142.754 857.11L147.642 855.427L147.622 855.37L147.601 855.313L142.754 857.11ZM196.877 976.209L192.393 978.784L192.393 978.784L196.877 976.209ZM197.969 978.111L202.703 976.033L202.591 975.778L202.452 975.536L197.969 978.111ZM223.394 1036.06L218.66 1038.14L218.704 1038.24L218.754 1038.34L223.394 1036.06ZM241.748 1073.42L246.389 1071.14L246.389 1071.14L241.748 1073.42ZM252.122 1099.66L257.067 1098.15L257.067 1098.15L252.122 1099.66ZM259.485 1140.55L254.324 1140.86L254.324 1140.86L259.485 1140.55ZM261.072 1167.01L266.238 1166.82L266.236 1166.76L266.233 1166.7L261.072 1167.01ZM261.736 1184.37L256.57 1184.57L256.57 1184.57L261.736 1184.37ZM263.511 1184.62L258.589 1183.03L258.589 1183.03L263.511 1184.62ZM263.551 1184.41L258.399 1183.98L258.399 1183.98L263.551 1184.41ZM265.042 1166.51L270.195 1166.94L270.218 1166.65L270.21 1166.36L265.042 1166.51ZM264.542 1148.5L269.71 1148.35L269.71 1148.33L269.709 1148.3L264.542 1148.5ZM263.406 1118.27L268.572 1118.08L268.562 1117.8L268.52 1117.52L263.406 1118.27ZM247.96 1061.56L243.168 1063.5L243.168 1063.5L247.96 1061.56ZM235.208 1030.08L240 1028.14L239.986 1028.11L239.971 1028.07L235.208 1030.08ZM207.27 963.902L212.033 961.891L211.982 961.771L211.925 961.653L207.27 963.902ZM178.827 905.018L173.966 906.78L174.056 907.029L174.171 907.267L178.827 905.018ZM157.745 846.861L152.834 848.477L152.858 848.55L152.885 848.623L157.745 846.861ZM138.844 789.431L133.811 790.611L133.863 790.831L133.933 791.047L138.844 789.431ZM125.213 731.278L120.083 731.919L120.117 732.191L120.18 732.458L125.213 731.278ZM117.763 671.667H112.593V671.989L112.633 672.308L117.763 671.667ZM117.763 617.144L112.62 616.613L112.593 616.878V617.144H117.763ZM120.496 590.7L125.638 591.231L125.638 591.231L120.496 590.7ZM131.287 536.08L126.329 534.616L126.329 534.616L131.287 536.08ZM146.931 494.577L151.623 496.75L151.623 496.75L146.931 494.577ZM157.939 470.814L162.63 472.987L162.631 472.985L157.939 470.814ZM177.97 427.522L173.354 425.194L173.315 425.272L173.278 425.351L177.97 427.522ZM196.386 391.011L201.002 393.339L201.002 393.339L196.386 391.011ZM215.124 353.857L219.741 356.186L219.787 356.094L219.83 356L215.124 353.857ZM241.676 279.207L236.674 277.897L236.674 277.897L241.676 279.207ZM242.263 276.964L247.265 278.274L247.342 277.98L247.384 277.679L242.263 276.964ZM248.402 233.025L253.522 233.74L253.572 233.384V233.025H248.402ZM248.402 192.964L243.232 192.919L243.232 192.942V192.964H248.402ZM248.848 142.562L243.681 142.372L243.679 142.445L243.678 142.517L248.848 142.562ZM250.251 104.381L255.417 104.571L255.421 104.476V104.381H250.251ZM259.158 91.4726L254.945 88.4762L254.938 88.4861L254.931 88.496L259.158 91.4726ZM250.242 104.274L245.137 105.088L250.242 104.274ZM221.67 104.081L226.405 106.157L221.67 104.081ZM287.195 61.014L279.181 65.8984L284.563 74.7276L292.577 69.8432L287.195 61.014ZM296.001 45.335C296.001 51.7393 292.664 57.6809 287.195 61.014L292.577 69.8432C301.125 64.6332 306.341 55.3458 306.341 45.335H296.001ZM296.001 39.1418V45.335H306.341V39.1418H296.001ZM282.206 26.503C289.622 25.8534 296.001 31.6979 296.001 39.1418H306.341C306.341 25.6312 294.763 15.0234 281.304 16.2024L282.206 26.503ZM272.76 27.3305L282.206 26.503L281.304 16.2024L271.857 17.0299L272.76 27.3305ZM260.345 18.599C261.805 24.144 267.047 27.8309 272.76 27.3305L271.857 17.0299C271.161 17.091 270.522 16.6414 270.344 15.9653L260.345 18.599ZM277.622 5.40238C268.557 0.166561 257.678 8.47611 260.345 18.5991L270.344 15.9652C270.018 14.7309 271.345 13.7177 272.45 14.3561L277.622 5.40238ZM281.417 7.5944L277.622 5.40239L272.45 14.3561L276.245 16.5481L281.417 7.5944ZM283.254 6.76694C283.085 7.59789 282.151 8.01853 281.417 7.59439L276.245 16.5481C283.096 20.5052 291.81 16.5809 293.387 8.82816L283.254 6.76694ZM303.494 1.65352C297.271 -5.80004 285.19 -2.74783 283.254 6.76694L293.387 8.82815C293.594 7.80838 294.889 7.48116 295.556 8.2801L303.494 1.65352ZM310.454 9.99073L303.494 1.65353L295.556 8.28009L302.516 16.6173L310.454 9.99073ZM317.697 11.8958C315.123 12.8667 312.217 12.1023 310.454 9.99073L302.516 16.6173C307.099 22.1072 314.655 24.0946 321.346 21.5701L317.697 11.8958ZM322.661 10.0226L317.697 11.8957L321.346 21.5701L326.311 19.697L322.661 10.0226ZM331.228 8.46043C328.301 8.46043 325.399 8.98969 322.661 10.0226L326.311 19.697C327.883 19.1042 329.548 18.8004 331.228 18.8004V8.46043ZM338.407 8.46043H331.228V18.8004H338.407V8.46043ZM348.702 7.45676C345.311 8.12429 341.863 8.46043 338.407 8.46043V18.8004C342.534 18.8004 346.65 18.3991 350.699 17.602L348.702 7.45676ZM359.519 5.32732L348.702 7.45676L350.699 17.602L361.516 15.4726L359.519 5.32732ZM374.684 -0.622705C370.027 2.25447 364.89 4.26994 359.519 5.32732L361.516 15.4726C368.105 14.1756 374.406 11.7033 380.119 8.174L374.684 -0.622705ZM397.195 -8.54797C389.209 -7.55553 381.531 -4.85232 374.684 -0.622711L380.119 8.17401C385.7 4.72591 391.96 2.52217 398.47 1.7131L397.195 -8.54797ZM409.591 -10.0884L397.195 -8.54797L398.47 1.7131L410.866 0.172681L409.591 -10.0884ZM412.989 -11.0206C411.907 -10.548 410.763 -10.234 409.591 -10.0884L410.866 0.172679C413.025 -0.0956394 415.134 -0.674175 417.128 -1.54509L412.989 -11.0206ZM417.812 -13.1272L412.989 -11.0206L417.128 -1.54508L421.951 -3.65167L417.812 -13.1272ZM420.476 -27.2212C424.801 -22.8966 423.417 -15.5753 417.812 -13.1272L421.951 -3.65166C434.231 -9.01557 437.263 -25.057 427.787 -34.5327L420.476 -27.2212ZM416.203 -47.5771C413.462 -40.5449 415.139 -32.5579 420.476 -27.2213L427.787 -34.5327C425.352 -36.9684 424.586 -40.6136 425.837 -43.8231L416.203 -47.5771ZM430.348 -83.8797L416.203 -47.5771L425.837 -43.8231L439.982 -80.1257L430.348 -83.8797ZM410.651 -161.004C433.054 -142.166 440.974 -111.153 430.348 -83.8797L439.982 -80.1257C452.217 -111.525 443.098 -147.23 417.306 -168.918L410.651 -161.004ZM396.9 -172.568L410.651 -161.004L417.306 -168.918L403.554 -180.482L396.9 -172.568ZM336.77 -194.489C358.769 -194.489 380.062 -186.726 396.9 -172.568L403.554 -180.482C384.854 -196.207 361.204 -204.829 336.77 -204.829L336.77 -194.489ZM283.053 -194.49L336.77 -194.489L336.77 -204.829L283.053 -204.83L283.053 -194.49ZM188.876 -174.133C218.46 -187.55 250.569 -194.491 283.053 -194.49L283.053 -204.83C249.096 -204.831 215.531 -197.575 184.605 -183.55L188.876 -174.133ZM167.547 -164.46L188.876 -174.133L184.605 -183.55L163.276 -173.877L167.547 -164.46ZM123.655 -131.194C135.622 -145.417 150.619 -156.783 167.547 -164.46L163.276 -173.877C144.944 -165.563 128.703 -153.254 115.743 -137.851L123.655 -131.194ZM94.4174 -48.4013C93.7976 -78.6318 104.189 -108.057 123.655 -131.194L115.743 -137.851C94.6618 -112.794 83.4084 -80.9279 84.0796 -48.1894L94.4174 -48.4013ZM94.4616 -46.2443L94.4174 -48.4013L84.0796 -48.1894L84.1238 -46.0324L94.4616 -46.2443ZM91.3705 -1.17108L94.4504 -45.7823L84.135 -46.4944L81.055 -1.88327L91.3705 -1.17108ZM97.4481 4.22241C94.1441 4.85124 91.1388 2.18424 91.3705 -1.17108L81.055 -1.88327C80.3565 8.23428 89.4186 16.2762 99.3814 14.3801L97.4481 4.22241ZM98.1475 4.0893L97.4482 4.2224L99.3814 14.3801L100.081 14.247L98.1475 4.0893ZM98.9189 3.75664C98.6893 3.92274 98.4259 4.03631 98.1475 4.08931L100.081 14.247C101.849 13.9105 103.521 13.1894 104.979 12.1347L98.9189 3.75664ZM107.948 -2.7742L98.9189 3.75663L104.979 12.1347L114.008 5.60388L107.948 -2.7742ZM121.192 6.81649C123.717 -1.09588 114.678 -7.64187 107.948 -2.7742L114.008 5.60388C112.653 6.58404 110.833 5.26592 111.341 3.67271L121.192 6.81649ZM119.399 9.94655C120.211 9.0415 120.822 7.97473 121.192 6.81649L111.341 3.67271C111.416 3.43948 111.539 3.2247 111.702 3.04249L119.399 9.94655ZM108.249 22.3775L119.399 9.9466L111.702 3.04244L100.552 15.4733L108.249 22.3775ZM100.961 25.624C103.718 25.624 106.384 24.4572 108.249 22.3775L100.552 15.4734C100.672 15.3392 100.817 15.284 100.961 15.284V25.624ZM101.373 24.6369C101.427 24.7054 101.493 24.8459 101.506 25.0153C101.517 25.1611 101.484 25.2639 101.453 25.3253C101.423 25.3864 101.368 25.4582 101.271 25.5215C101.155 25.5963 101.031 25.624 100.961 25.624V15.284C93.0118 15.284 88.147 24.4846 93.2168 30.9918L101.373 24.6369ZM107.108 31.9972L101.373 24.6369L93.2168 30.9918L98.9513 38.3521L107.108 31.9972ZM118.657 47.2172L107.148 32.0496L98.911 38.2997L110.42 53.4673L118.657 47.2172ZM132.285 59.0219C126.971 56.0776 122.329 52.057 118.657 47.2172L110.42 53.4673C114.961 59.4529 120.702 64.4251 127.274 68.0664L132.285 59.0219ZM148.546 68.0313L132.285 59.0219L127.274 68.0664L143.535 77.0758L148.546 68.0313ZM149.784 68.1436C149.374 68.2819 148.925 68.2411 148.546 68.0313L143.535 77.0758C146.455 78.694 149.922 79.0085 153.086 77.9423L149.784 68.1436ZM150.763 67.1433C150.616 67.6142 150.252 67.9861 149.785 68.1436L153.086 77.9423C156.691 76.7275 159.497 73.8596 160.632 70.2286L150.763 67.1433ZM162.375 29.9975L150.763 67.1433L160.632 70.2286L172.244 33.0827L162.375 29.9975ZM167.151 6.16603L162.242 30.5186L172.378 32.5617L177.287 8.20915L167.151 6.16603ZM169.782 9.72893C168.024 9.55313 166.801 7.89809 167.151 6.16606L177.287 8.20913C178.146 3.94621 175.138 -0.127105 170.811 -0.559769L169.782 9.72893ZM170.038 -4.92438C161.028 -4.34055 160.797 8.83054 169.782 9.72893L170.811 -0.559766C171.483 -0.492542 172.27 -0.127807 172.837 0.578423C173.345 1.21004 173.51 1.90189 173.5 2.46504C173.491 3.0282 173.301 3.71382 172.771 4.32732C172.18 5.01328 171.381 5.3503 170.707 5.39398L170.038 -4.92438ZM175.197 -5.25862L170.038 -4.92438L170.707 5.39398L175.865 5.05974L175.197 -5.25862ZM174.539 -5.12813C174.752 -5.20017 174.973 -5.24411 175.197 -5.25864L175.865 5.05975C176.546 5.01569 177.217 4.88233 177.862 4.66337L174.539 -5.12813ZM181.406 -7.45866L174.539 -5.12806L177.862 4.66331L184.729 2.33271L181.406 -7.45866ZM200.409 -2.11741C195.787 -7.65409 188.235 -9.77671 181.406 -7.45865L184.729 2.33271C187.511 1.38834 190.588 2.25309 192.471 4.50871L200.409 -2.11741ZM202.665 0.586012L200.409 -2.11742L192.471 4.50871L194.727 7.21214L202.665 0.586012ZM208.608 0.771065C206.971 2.50087 204.191 2.41431 202.665 0.586021L194.727 7.21214C200.221 13.7929 210.226 14.1045 216.118 7.8782L208.608 0.771065ZM224.139 -2.75447C218.726 -4.83244 212.594 -3.44041 208.608 0.771049L216.118 7.87821C217.226 6.70815 218.929 6.32142 220.433 6.89873L224.139 -2.75447ZM231.752 0.168215L224.139 -2.75447L220.433 6.89873L228.047 9.82141L231.752 0.168215ZM241.244 19.8191C243.766 11.7902 239.609 3.1842 231.752 0.168212L228.047 9.82141C230.805 10.8802 232.264 13.9015 231.379 16.7202L241.244 19.8191ZM240.555 22.0118L241.244 19.8191L231.379 16.7202L230.69 18.9128L240.555 22.0118ZM219.555 29.7773C227.41 34.6805 237.78 30.8459 240.555 22.0118L230.69 18.9128C229.942 21.2939 227.147 22.3275 225.03 21.0059L219.555 29.7773ZM216.767 28.0375L219.555 29.7773L225.03 21.0059L222.243 19.2661L216.767 28.0375ZM215.172 28.5673C215.42 27.9299 216.187 27.6753 216.767 28.0375L222.243 19.2661C216.166 15.4731 208.138 18.139 205.538 24.8136L215.172 28.5673ZM194.34 29.6179C198.828 38.4036 211.591 37.76 215.172 28.5673L205.538 24.8136C205.195 25.6915 203.977 25.753 203.548 24.914L194.34 29.6179ZM191.825 24.6952L194.34 29.6179L203.548 24.914L201.033 19.9912L191.825 24.6952ZM186.153 23.7582C187.878 22.0827 190.731 22.5541 191.825 24.6952L201.033 19.9912C196.774 11.6539 185.662 9.81814 178.948 16.3425L186.153 23.7582ZM182.311 27.4919L186.153 23.7582L178.948 16.3425L175.105 20.0762L182.311 27.4919ZM180.174 31.4213C180.472 29.9253 181.217 28.555 182.311 27.4919L175.105 20.0762C172.509 22.5992 170.74 25.8514 170.033 29.4021L180.174 31.4213ZM175.399 55.4003L180.174 31.4213L170.033 29.4021L165.258 53.3811L175.399 55.4003ZM181.375 77.7874C176.017 71.6567 173.809 63.3857 175.399 55.4003L165.258 53.3811C163.041 64.5138 166.119 76.0446 173.589 84.5917L181.375 77.7874ZM191.716 85.0112C187.732 83.4802 184.183 81.0005 181.375 77.7874L173.589 84.5918C177.504 89.0713 182.453 92.5282 188.006 94.6628L191.716 85.0112ZM201.441 88.7495L191.716 85.0112L188.006 94.6628L197.731 98.401L201.441 88.7495ZM203.891 87.2493C203.766 88.4333 202.552 89.1766 201.441 88.7495L197.731 98.401C205.189 101.268 213.336 96.2794 214.174 88.3335L203.891 87.2493ZM205.406 72.8748L203.891 87.2493L214.174 88.3335L215.689 73.9589L205.406 72.8748ZM206.568 68.5141C205.957 69.8985 205.565 71.3697 205.406 72.8747L215.689 73.9589C215.736 73.521 215.85 73.0929 216.027 72.69L206.568 68.5141ZM212.346 55.4254L206.568 68.514L216.027 72.69L221.806 59.6013L212.346 55.4254ZM229.042 56.1285C226.385 48.4118 215.642 47.9593 212.346 55.4254L221.806 59.6013C221.304 60.7375 219.669 60.6686 219.265 59.4943L229.042 56.1285ZM226.686 55.7179C227.359 54.8796 228.692 55.1119 229.042 56.1285L219.265 59.4943C221.565 66.1746 230.324 67.7009 234.748 62.1922L226.686 55.7179ZM229.46 52.2632L226.686 55.7179L234.748 62.1922L237.522 58.7375L229.46 52.2632ZM248.875 54.9562C245.505 47.0046 234.867 45.5292 229.46 52.2632L237.522 58.7375C238.033 58.1016 239.037 58.2409 239.356 58.9918L248.875 54.9562ZM249.742 57.0005L248.875 54.9562L239.356 58.9918L240.222 61.0362L249.742 57.0005ZM238.007 74.7206C247.136 74.7206 253.305 65.4052 249.742 57.0005L240.222 61.0362C240.895 62.6224 239.73 64.3806 238.007 64.3806V74.7206ZM233.633 74.7206H238.007V64.3806H233.633V74.7206ZM228.388 79.2464C228.773 76.6463 231.005 74.7206 233.633 74.7206V64.3806C225.879 64.3806 219.295 70.0617 218.16 77.7325L228.388 79.2464ZM226.87 104.212L228.434 78.8073L218.114 78.1716L216.549 103.576L226.87 104.212ZM226.788 104.334C226.788 104.972 226.653 105.592 226.405 106.157L216.936 102.005C216.62 102.725 216.448 103.516 216.448 104.334H226.788ZM226.759 103.823C226.778 103.993 226.788 104.164 226.788 104.334H216.448C216.448 104.552 216.46 104.771 216.485 104.988L226.759 103.823ZM226.737 103.657C226.745 103.715 226.752 103.768 226.758 103.817L216.485 104.994C216.493 105.058 216.501 105.126 216.512 105.197L226.737 103.657ZM229.711 123.565L226.738 103.664L216.511 105.191L219.484 125.093L229.711 123.565ZM232.748 164.446C232.748 150.763 231.733 137.098 229.711 123.565L219.484 125.093C221.431 138.12 222.408 151.274 222.408 164.446H232.748ZM232.748 194.534V164.446H222.408V194.534H232.748ZM229.756 233.423L232.732 194.932L222.423 194.135L219.447 232.626L229.756 233.423ZM214.495 317.595C222.151 290.083 227.258 261.924 229.752 233.476L219.451 232.573C217.013 260.389 212.019 287.922 204.533 314.823L214.495 317.595ZM214.088 319.057L214.495 317.595L204.534 314.823L204.127 316.285L214.088 319.057ZM200.144 352.558L213.878 319.663L204.336 315.679L190.602 348.574L200.144 352.558ZM179.079 397.109L200.047 352.776L190.699 348.355L169.732 392.688L179.079 397.109ZM145.831 463.139L179.023 397.224L169.788 392.573L136.596 458.488L145.831 463.139ZM123.761 511.106L145.91 462.975L136.517 458.652L114.368 506.784L123.761 511.106ZM103.865 611.757C106.881 577.373 113.631 543.42 123.996 510.497L114.133 507.392C103.543 541.031 96.6461 575.722 93.5641 610.853L103.865 611.757ZM103.352 617.596L103.865 611.757L93.5641 610.853L93.0519 616.692L103.352 617.596ZM112.092 734.539C105.072 695.876 102.148 656.581 103.37 617.305L93.0346 616.983C91.7904 656.986 94.7683 697.009 101.919 736.387L112.092 734.539ZM113.389 741.677L112.092 734.539L101.919 736.387L103.215 743.524L113.389 741.677ZM124.942 794.344L113.352 741.493L103.252 743.708L114.842 796.559L124.942 794.344ZM147.601 855.313L124.739 793.654L115.044 797.249L137.906 858.908L147.601 855.313ZM201.36 973.634C179.756 936.019 161.769 896.439 147.642 855.427L137.866 858.794C152.206 900.425 170.463 940.602 192.393 978.784L201.36 973.634ZM202.452 975.536L201.36 973.634L192.393 978.784L193.485 980.685L202.452 975.536ZM228.128 1033.98L202.703 976.033L193.234 980.188L218.66 1038.14L228.128 1033.98ZM246.389 1071.14L228.034 1033.78L218.754 1038.34L237.108 1075.7L246.389 1071.14ZM257.067 1098.15C254.235 1088.87 250.664 1079.84 246.389 1071.14L237.108 1075.7C241.14 1083.91 244.507 1092.42 247.177 1101.17L257.067 1098.15ZM264.646 1140.25C263.789 1125.96 261.245 1111.83 257.067 1098.15L247.177 1101.17C251.117 1114.07 253.516 1127.4 254.324 1140.86L264.646 1140.25ZM266.233 1166.7L264.646 1140.25L254.324 1140.86L255.911 1167.32L266.233 1166.7ZM266.902 1184.17L266.238 1166.82L255.906 1167.21L256.57 1184.57L266.902 1184.17ZM258.589 1183.03C260.049 1178.49 266.72 1179.41 266.902 1184.17L256.57 1184.57C256.829 1191.36 266.349 1192.67 268.432 1186.2L258.589 1183.03ZM258.399 1183.98C258.426 1183.66 258.49 1183.34 258.589 1183.03L268.432 1186.2C268.574 1185.76 268.665 1185.3 268.703 1184.84L258.399 1183.98ZM259.89 1166.08L258.399 1183.98L268.703 1184.84L270.195 1166.94L259.89 1166.08ZM259.374 1148.64L259.874 1166.65L270.21 1166.36L269.71 1148.35L259.374 1148.64ZM258.239 1118.47L259.376 1148.69L269.709 1148.3L268.572 1118.08L258.239 1118.47ZM243.168 1063.5C250.396 1081.35 255.473 1099.99 258.292 1119.03L268.52 1117.52C265.581 1097.66 260.288 1078.23 252.752 1059.62L243.168 1063.5ZM230.416 1032.02L243.168 1063.5L252.752 1059.62L240 1028.14L230.416 1032.02ZM202.507 965.913L230.445 1032.09L239.971 1028.07L212.033 961.891L202.507 965.913ZM174.171 907.267L202.615 966.151L211.925 961.653L183.482 902.769L174.171 907.267ZM152.885 848.623L173.966 906.78L183.687 903.256L162.606 845.099L152.885 848.623ZM133.933 791.047L152.834 848.477L162.656 845.245L143.755 787.814L133.933 791.047ZM120.18 732.458L133.811 790.611L143.878 788.251L130.247 730.098L120.18 732.458ZM112.633 672.308L120.083 731.919L130.343 730.637L122.893 671.026L112.633 672.308ZM112.593 617.144V671.667H122.933V617.144H112.593ZM115.353 590.168L112.62 616.613L122.905 617.676L125.638 591.231L115.353 590.168ZM126.329 534.616C120.971 552.757 117.297 571.353 115.353 590.168L125.638 591.231C127.517 573.048 131.068 555.076 136.245 537.545L126.329 534.616ZM142.24 492.404C135.911 506.066 130.593 520.175 126.329 534.616L136.245 537.545C140.367 523.589 145.506 509.954 151.623 496.75L142.24 492.404ZM153.248 468.641L142.24 492.404L151.623 496.75L162.63 472.987L153.248 468.641ZM173.278 425.351L153.247 468.643L162.631 472.985L182.662 429.693L173.278 425.351ZM191.77 388.683L173.354 425.194L182.586 429.85L201.002 393.339L191.77 388.683ZM210.508 351.529L191.77 388.683L201.002 393.339L219.741 356.186L210.508 351.529ZM236.674 277.897C230.045 303.207 221.262 327.903 210.419 351.715L219.83 356C230.917 331.651 239.899 306.398 246.677 280.517L236.674 277.897ZM237.262 275.654L236.674 277.897L246.677 280.517L247.265 278.274L237.262 275.654ZM243.282 232.309L237.143 276.248L247.384 277.679L253.522 233.74L243.282 232.309ZM243.232 192.964V233.025H253.572V192.964H243.232ZM243.678 142.517L243.232 192.919L253.572 193.01L254.018 142.608L243.678 142.517ZM245.084 104.191L243.681 142.372L254.015 142.752L255.417 104.571L245.084 104.191ZM245.137 105.088C245.1 104.855 245.081 104.618 245.081 104.381H255.421C255.421 104.071 255.396 103.763 255.348 103.459L245.137 105.088ZM254.931 88.496L246.062 101.09L254.516 107.044L263.385 94.4492L254.931 88.496ZM279.181 65.8984C269.656 71.7041 261.41 79.3855 254.945 88.4762L263.371 94.4691C269.024 86.5205 276.234 79.804 284.563 74.7276L279.181 65.8984ZM255.348 103.459C255.54 104.666 255.279 105.96 254.517 107.043L246.062 101.091C245.216 102.293 244.921 103.737 245.137 105.088L255.348 103.459ZM216.539 103.894C216.539 103.26 216.668 102.616 216.936 102.005L226.405 106.157C226.725 105.429 226.879 104.656 226.879 103.894H216.539Z" fill="black" mask="url(#path-1-outside-1_431_7682)"/>
</g>
<path d="M110.525 1604.37C111.915 1607.19 110.525 1611.37 107.744 1609.98L110.525 1604.37Z" stroke="#1D1D1B" stroke-width="5.17"/>
<path d="M110.525 1604.37C111.915 1607.19 110.525 1611.37 107.744 1609.98" stroke="#1D1D1B" stroke-width="5.17" stroke-linecap="round" stroke-linejoin="round"/>
<path d="M97.9699 1600.15C102.142 1601.59 104.922 1600.15 104.922 1595.98L97.9699 1600.15Z" stroke="#1D1D1B" stroke-width="5.17"/>
<path d="M97.9699 1600.15C102.142 1601.59 104.922 1600.15 104.922 1595.98" stroke="#1D1D1B" stroke-width="5.17" stroke-linecap="round" stroke-linejoin="round"/>
<path d="M96.5312 1583.37C95.1413 1590.41 89.5793 1584.81 85.3633 1583.37H96.5312Z" stroke="#1D1D1B" stroke-width="5.17"/>
<path d="M96.5312 1583.37C95.1413 1590.41 89.5793 1584.81 85.3633 1583.37" stroke="#1D1D1B" stroke-width="5.17" stroke-linecap="round" stroke-linejoin="round"/>
<path d="M68.6785 1541.33C70.1145 1542.72 84.0625 1544.11 84.0625 1542.72L68.6785 1541.33Z" stroke="#1D1D1B" stroke-width="5.17"/>
<path d="M68.6785 1541.33C70.1145 1542.72 84.0625 1544.11 84.0625 1542.72" stroke="#1D1D1B" stroke-width="5.17" stroke-linecap="round" stroke-linejoin="round"/>
<path d="M174.797 359.908C170.242 363.347 164.992 365.751 159.413 366.953C131.471 371.125 128.69 362.735 116.132 372.516C102.138 380.951 103.528 347.3 118.912 355.736C123.084 357.126 136.853 344.519 144.074 347.3C153.852 351.518 163.629 343.083 170.626 340.301C163.629 341.692 156.633 338.91 148.2 340.301C145.42 340.301 144.029 329.084 153.807 327.693C197.089 322.084 185.965 302.477 201.305 309.477C205.319 310.608 209.575 310.549 213.556 309.306C217.537 308.064 221.072 305.691 223.73 302.477L222.295 294.042C201.349 303.868 190.181 296.869 184.575 308.086C183.185 312.258 181.794 305.259 181.794 303.868C179.013 277.216 197.133 298.26 204.22 281.434C211.307 264.609 229.382 281.434 229.382 260.436C228.265 258.792 227.772 256.803 227.991 254.827C202.74 261.827 198.748 263.218 194.263 273.223C194.263 274.614 184.485 283.004 187.266 274.614C188.701 270.397 184.485 249.398 195.653 255.007C209.647 263.397 205.476 238.181 218.079 236.79C227.857 235.355 230.638 232.573 234.854 224.138C227.857 225.573 223.686 224.138 226.466 214.356C208.526 215.747 201.305 238.181 184.53 239.572C177.578 240.963 183.14 235.355 184.53 226.964C184.53 214.356 199.914 222.747 202.471 207.357C205.296 196.14 219.245 203.139 222.026 190.531C222.026 184.923 201.08 187.705 180.135 204.53C175.919 182.096 174.528 183.532 195.474 166.706C216.42 149.881 212.248 176.533 235.84 152.708C236.957 151.629 237.79 150.291 238.264 148.812C238.739 147.333 238.841 145.76 238.562 144.233C238.282 142.705 237.629 141.271 236.662 140.056C235.694 138.842 234.441 137.886 233.015 137.273C220.456 135.882 196.685 149.881 191.123 140.1C182.736 121.883 223.282 131.665 227.453 123.274C234.45 117.666 212.069 109.231 241.402 110.666L244.228 105.058C247.008 103.622 248.399 102.231 251.224 102.231L249.789 110.666C265.173 105.058 279.167 93.8414 276.341 107.84C273.56 117.666 293.116 102.231 288.945 120.448C288.945 126.056 277.732 131.665 277.732 140.1C288.945 140.1 284.729 163.88 288.945 170.924C297.332 186.314 274.951 179.314 269.389 176.533L267.954 179.314C270.78 200.313 288.945 184.923 285.895 197.531C282.845 210.139 291.501 211.53 288.72 221.356C288.72 225.573 276.117 219.965 266.295 215.747L264.904 217.138C271.901 221.356 269.12 229.746 282.845 231.182C289.842 231.182 285.626 270.397 278.674 266.179C274.458 262.006 271.677 255.007 263.289 259.179L261.899 260.615C265.622 273.223 279.481 273.223 279.481 287.043C278.046 292.651 276.655 317.867 269.703 308.086C266.571 302.967 262.227 298.699 257.055 295.657C256.515 296.198 255.858 296.609 255.135 296.858C254.413 297.106 253.643 297.187 252.884 297.093C257.055 318.091 255.665 302.701 266.833 318.091C271.049 323.7 259.836 330.699 257.055 341.916C254.274 351.742 248.668 327.917 238.89 337.743C243.106 351.742 233.284 347.525 251.494 354.524C255.665 355.96 241.671 375.567 241.671 381.176C240.281 385.393 230.503 375.567 230.503 372.74C220.725 378.349 206.777 372.74 205.386 361.523L197.133 362.959C186.01 348.916 184.575 354.524 174.708 360.133" stroke="#1D1D1B" stroke-width="5.17"/>
<path d="M174.797 359.908C170.242 363.347 164.992 365.751 159.413 366.953C131.471 371.125 128.69 362.735 116.132 372.516C102.138 380.951 103.528 347.3 118.912 355.736C123.084 357.126 136.853 344.519 144.074 347.3C153.852 351.518 163.629 343.083 170.626 340.301C163.629 341.692 156.633 338.91 148.2 340.301C145.42 340.301 144.029 329.084 153.807 327.693C197.089 322.084 185.965 302.477 201.305 309.477C205.319 310.608 209.575 310.549 213.556 309.306C217.537 308.064 221.072 305.691 223.73 302.477L222.295 294.042C201.349 303.868 190.181 296.869 184.575 308.086C183.185 312.258 181.794 303.868 181.794 303.868C179.013 277.216 197.133 298.26 204.22 281.434C211.307 264.609 229.382 281.434 229.382 260.436C228.265 258.792 227.772 256.803 227.991 254.827C202.74 261.827 198.748 263.218 194.263 273.223C194.263 274.614 184.485 283.004 187.266 274.614C188.701 270.397 184.485 249.398 195.653 255.007C209.647 263.397 205.476 238.181 218.079 236.79C227.857 235.355 230.638 232.573 234.854 224.138C227.857 225.573 223.686 224.138 226.466 214.356C208.526 215.747 201.305 238.181 184.53 239.572C177.578 240.963 183.14 235.355 184.53 226.964C184.53 214.356 199.914 222.747 202.471 207.357C205.296 196.14 219.245 203.139 222.026 190.531C222.026 184.923 201.08 187.705 180.135 204.53C175.919 182.096 174.528 183.532 195.474 166.706C216.42 149.881 212.248 176.533 235.84 152.708C236.957 151.629 237.79 150.291 238.264 148.812C238.739 147.333 238.841 145.76 238.562 144.233C238.282 142.705 237.629 141.271 236.662 140.056C235.694 138.842 234.441 137.886 233.015 137.273C220.456 135.882 196.685 149.881 191.123 140.1C182.736 121.883 223.282 131.665 227.453 123.274C234.45 117.666 212.069 109.231 241.402 110.666L244.228 105.058C247.008 103.622 248.399 102.231 251.224 102.231L249.789 110.666C265.173 105.058 279.167 93.8414 276.341 107.84C273.56 117.666 293.116 102.231 288.945 120.448C288.945 126.056 277.732 131.665 277.732 140.1C288.945 140.1 284.729 163.88 288.945 170.924C297.332 186.314 274.951 179.314 269.389 176.533L267.954 179.314C270.78 200.313 288.945 184.923 285.895 197.531C282.845 210.139 291.501 211.53 288.72 221.356C288.72 225.573 276.117 219.965 266.295 215.747L264.904 217.138C271.901 221.356 269.12 229.746 282.845 231.182C289.842 231.182 285.626 270.397 278.674 266.179C274.458 262.006 271.677 255.007 263.289 259.179L261.899 260.615C265.622 273.223 279.481 273.223 279.481 287.043C279.481 292.651 276.655 317.867 269.703 308.086C266.571 302.967 262.227 298.699 257.055 295.657C256.515 296.198 255.858 296.609 255.135 296.858C254.413 297.106 253.643 297.187 252.884 297.093C257.055 318.091 255.665 302.701 266.833 318.091C271.049 323.7 259.836 330.699 257.055 341.916C254.274 351.742 248.668 327.917 238.89 337.743C243.106 351.742 233.284 347.525 251.494 354.524C255.665 355.96 241.671 375.567 241.671 381.176C240.281 385.393 230.503 375.567 230.503 372.74C220.725 378.349 206.777 372.74 205.386 361.523L197.133 362.959C186.01 348.691 184.575 354.3 174.797 359.908Z" fill="#FC8B75" stroke="#1D1D1B" stroke-width="5.17" stroke-linecap="round" stroke-linejoin="round"/>
<path d="M239.109 146.918C244.715 160.916 269.877 142.7 278.219 139.918" stroke="#1D1D1B" stroke-width="5.17" stroke-linecap="round" stroke-linejoin="round"/>
<path d="M258.626 162.309C265.622 151.092 267.013 170.699 258.626 170.699V162.309Z" stroke="#1D1D1B" stroke-width="5.17"/>
<path d="M258.626 162.309C265.622 151.092 267.013 170.699 258.626 170.699" stroke="#1D1D1B" stroke-width="5.17" stroke-linecap="round" stroke-linejoin="round"/>
<path d="M268.406 178.998C260.019 194.433 247.461 170.608 240.464 178.998C236.293 183.215 232.077 195.823 222.523 190.215" stroke="#1D1D1B" stroke-width="5.17"/>
<path d="M268.406 178.998C260.019 194.433 247.461 170.608 240.464 178.998C236.293 183.215 232.077 195.823 222.523 190.215" stroke="#1D1D1B" stroke-width="5.17" stroke-linecap="round" stroke-linejoin="round"/>
<path d="M267.016 191.742C267.016 201.569 255.848 207.177 255.848 194.569L267.016 191.742Z" stroke="#1D1D1B" stroke-width="5.17"/>
<path d="M267.016 191.742C267.016 201.569 255.848 207.177 255.848 194.569" stroke="#1D1D1B" stroke-width="5.17" stroke-linecap="round" stroke-linejoin="round"/>
<path d="M264.047 128.187C264.047 135.046 257.25 138.395 256.864 130.273Z" stroke="#1D1D1B" stroke-width="5.17" stroke-linecap="round" stroke-linejoin="round"/>
<path d="M265.625 216.956C257.238 226.782 255.847 211.348 248.85 208.566" stroke="#1D1D1B" stroke-width="5.17"/>
<path d="M265.625 216.956C257.238 226.782 255.847 211.348 248.85 208.566" stroke="#1D1D1B" stroke-width="5.17" stroke-linecap="round" stroke-linejoin="round"/>
<path d="M253.062 212.785C247.472 217.102 241.461 220.845 235.122 223.958L253.062 212.785Z" stroke="#1D1D1B" stroke-width="5.17"/>
<path d="M253.062 212.785C247.472 217.102 241.461 220.845 235.122 223.958" stroke="#1D1D1B" stroke-width="5.17" stroke-linecap="round" stroke-linejoin="round"/>
<path d="M226.516 214.175L229.297 209.957" stroke="#1D1D1B" stroke-width="5.17"/>
<path d="M226.516 214.175L229.297 209.957" stroke="#1D1D1B" stroke-width="5.17" stroke-linecap="round" stroke-linejoin="round"/>
<path d="M229.297 247.781L227.907 254.78" stroke="#1D1D1B" stroke-width="5.17"/>
<path d="M229.297 247.781L227.907 254.78" stroke="#1D1D1B" stroke-width="5.17" stroke-linecap="round" stroke-linejoin="round"/>
<path d="M229.295 260.437C232.075 261.828 239.072 256.219 246.069 254.828C250.24 264.61 257.237 264.61 262.844 260.437" stroke="#1D1D1B" stroke-width="5.17" stroke-linecap="round" stroke-linejoin="round"/>
<path d="M264.23 259C268.644 254.374 271.566 248.527 272.617 242.219L264.23 259Z" stroke="#1D1D1B" stroke-width="5.17"/>
<path d="M264.23 259C268.644 254.374 271.566 248.527 272.617 242.219" stroke="#1D1D1B" stroke-width="5.17" stroke-linecap="round" stroke-linejoin="round"/>
<path d="M264.234 243.609C258.627 251.999 250.24 247.782 253.066 238L264.234 243.609Z" stroke="#1D1D1B" stroke-width="5.17"/>
<path d="M264.234 243.609C258.627 251.999 250.24 247.782 253.066 238" stroke="#1D1D1B" stroke-width="5.17" stroke-linecap="round" stroke-linejoin="round"/>
<path d="M257.055 284.215C245.887 288.433 250.058 277.216 248.668 273.043L257.055 284.215Z" stroke="#1D1D1B" stroke-width="5.17"/>
<path d="M257.055 284.215C245.887 288.433 250.058 277.216 248.668 273.043" stroke="#1D1D1B" stroke-width="5.17" stroke-linecap="round" stroke-linejoin="round"/>
<path d="M265.625 284.215C263.033 288.219 260.17 292.042 257.058 295.657L265.446 284.439" stroke="#1D1D1B" stroke-width="5.17"/>
<path d="M265.625 284.215C263.033 288.219 260.17 292.042 257.058 295.657" stroke="#1D1D1B" stroke-width="5.17" stroke-linecap="round" stroke-linejoin="round"/>
<path d="M253.062 296.867C247.457 298.258 243.285 292.65 237.678 282.824" stroke="#1D1D1B" stroke-width="5.17" stroke-linecap="round" stroke-linejoin="round"/>
<path d="M241.852 288.434C234.9 289.87 229.294 296.869 223.912 302.478" stroke="#1D1D1B" stroke-width="5.17" stroke-linecap="round" stroke-linejoin="round"/>
<path d="M243.285 308.082C244.645 310.163 245.37 312.595 245.37 315.082C245.37 317.568 244.645 320 243.285 322.081C234.897 330.471 254.453 327.69 251.672 317.864L243.285 308.082Z" stroke="#1D1D1B" stroke-width="5.17"/>
<path d="M243.285 308.082C244.645 310.163 245.37 312.595 245.37 315.082C245.37 317.568 244.645 320 243.285 322.081C234.897 330.471 254.453 327.69 251.672 317.864" stroke="#1D1D1B" stroke-width="5.17" stroke-linecap="round" stroke-linejoin="round"/>
<path d="M239.109 337.518C229.331 345.908 225.16 317.866 218.163 329.083C211.166 338.909 195.738 331.865 170.666 340.3" stroke="#1D1D1B" stroke-width="5.17"/>
<path d="M239.109 337.518C229.331 345.908 225.16 317.866 218.163 329.083C211.166 338.909 195.738 331.865 170.666 340.3" stroke="#1D1D1B" stroke-width="5.17" stroke-linecap="round" stroke-linejoin="round"/>
<path d="M225.121 340.523C225.629 347.328 224.165 354.136 220.905 360.13C219.514 362.957 230.682 362.957 234.898 357.348L225.121 340.523Z" stroke="#1D1D1B" stroke-width="5.17"/>
<path d="M225.121 340.523C225.629 347.328 224.165 354.136 220.905 360.13C219.514 362.957 230.682 362.957 234.898 357.348" stroke="#1D1D1B" stroke-width="5.17" stroke-linecap="round" stroke-linejoin="round"/>
<path d="M233.469 369.734L230.688 372.516" stroke="#1D1D1B" stroke-width="5.17"/>
<path d="M233.469 369.734L230.688 372.516" stroke="#1D1D1B" stroke-width="5.17" stroke-linecap="round" stroke-linejoin="round"/>
<path d="M169.189 1056.39C156.63 1060.61 137.075 1074.61 132.859 1062.05C123.081 1035.4 165.017 1036.79 166.408 1010.18C160.846 1007.35 156.63 1003.18 153.849 1001.79C138.465 1017.18 128.688 1029.79 123.081 1021.4C110.523 1000.35 142.636 987.751 139.856 965.313C131.468 966.751 123.081 966.751 124.516 958.314C116.129 982.141 97.9189 958.314 100.745 954.096C113.304 937.27 109.132 924.707 111.913 909.228C109.811 908.874 107.86 907.906 106.307 906.446C97.9189 902.229 86.7959 928.88 83.8809 914.836L79.7099 902.229C78.2739 895.229 95.0489 865.796 92.2679 848.97C89.7859 849.796 87.1089 849.833 84.6039 849.078C82.0989 848.323 79.8879 846.813 78.2739 844.753C72.7129 853.188 60.3339 865.796 57.3289 855.97C48.9419 826.536 78.2739 805.538 72.7129 776.105H65.8059C65.8059 784.495 51.8569 813.928 43.3799 795.712C29.3859 767.669 62.9349 738.281 64.3259 708.847L60.1099 707.412C53.1579 727.064 36.3829 736.845 40.5539 699.021C41.9899 679.414 60.1099 665.415 65.7159 645.763C63.9789 646.062 62.1959 645.963 60.5029 645.473C58.8089 644.983 57.2489 644.116 55.9379 642.936C28.3099 659.807 47.6409 612.157 68.6759 584.159C61.6789 581.332 60.2889 574.333 61.6789 567.334C51.9469 574.333 46.3399 561.725 64.5049 550.508C78.4539 542.118 77.0629 528.074 92.4479 518.293C90.0739 517.5 87.9999 516.001 86.5009 513.996C85.0019 511.992 84.1509 509.577 84.0599 507.076C68.6759 515.511 58.8089 502.858 70.0219 491.641C75.5829 484.642 81.1899 491.641 89.5769 484.642L114.694 460.817C109.043 458.035 104.916 448.209 110.523 442.6C102.136 429.992 81.1899 455.208 81.1899 446.818C78.3639 404.777 126.041 432.774 139.856 417.385C132.859 413.167 134.294 406.168 139.856 400.559C128.688 400.559 120.3 394.951 102.135 401.95C95.1389 404.777 91.1019 378.125 113.528 380.907C131.468 382.298 149.858 385.08 165.242 376.689C163.851 371.081 165.242 365.472 175.019 359.864C184.797 354.255 186.187 348.647 197.445 362.69C204.442 372.517 193.274 382.298 201.661 382.298C205.877 382.298 208.658 382.298 208.658 376.689C218.436 382.298 222.607 392.079 235.21 393.515C246.378 393.515 230.994 403.296 225.432 418.731C222.607 429.948 198.88 408.949 190.493 407.514C182.106 406.078 197.445 394.906 190.493 392.079C183.496 390.733 173.719 406.123 179.325 414.513C182.106 420.122 186.277 414.513 191.883 417.34L215.655 429.948C223.997 434.165 203.051 441.165 204.442 457.99C205.877 473.38 189.103 449.555 169.503 448.164C175.109 424.339 152.773 424.339 151.562 449.555C151.562 466.38 157.168 457.99 165.556 457.99C175.333 460.772 175.333 467.771 196.279 473.38C201.885 476.162 189.327 490.205 189.327 500.031C187.892 514.03 175.333 505.595 168.336 501.422C158.559 495.814 141.784 500.031 148.781 488.814C158.559 469.162 136.223 466.38 132.007 485.988C130.616 494.423 116.667 487.379 109.581 494.423C113.752 509.813 127.521 487.379 132.007 501.422C139.003 518.248 137.613 492.987 147.391 505.595C159.949 519.639 180.94 507.031 178.159 525.247C178.159 533.638 173.943 537.855 172.552 546.246C172.552 557.463 151.562 551.854 146 546.246C140.439 540.637 115.232 550.463 125.055 535.073C134.877 519.684 110.523 522.466 109.043 537.945C108.939 539.398 108.314 540.765 107.285 541.795C106.255 542.825 104.889 543.449 103.436 543.553C103.436 556.161 107.652 543.553 109.043 556.161C110.765 554.257 112.974 552.858 115.432 552.115C117.889 551.372 120.503 551.313 122.991 551.944C114.604 563.161 159.321 557.552 164.928 564.552C169.099 567.378 160.756 577.16 164.928 589.812C169.099 599.594 164.928 606.593 160.756 606.593C145.372 605.202 128.598 603.811 113.214 603.811C103.436 603.811 116.039 578.595 97.8299 579.986C88.0969 579.986 86.7069 593.985 89.4869 601.029C95.0489 616.419 90.8779 620.637 110.433 608.029L111.823 612.202C113.528 617.81 158.021 610.766 158.021 623.194C156.63 658.236 167.798 658.236 159.411 659.627C142.636 662.454 123.081 654.063 107.742 662.454C107.742 651.237 110.523 644.237 96.5289 644.237C86.7959 642.802 88.1869 656.845 88.1869 662.454C96.5289 661.063 90.9669 675.062 95.1389 676.453C102.136 677.844 99.3549 670.844 107.742 669.453C113.304 669.453 107.742 682.061 159.411 669.453C167.798 666.671 156.63 691.887 169.189 714.321C173.405 722.756 153.849 714.321 127.297 721.321C107.742 725.538 117.52 714.321 109.357 703.373C100.969 694.938 86.9309 720.199 91.4159 725.807C103.974 721.59 94.1969 758.068 113.842 730.025C116.667 725.807 131.782 737.024 152.997 730.025C178.159 723.026 169.727 738.46 170.938 748.241C173.719 765.067 182.106 762.24 176.499 773.457C176.499 776.284 151.338 777.675 138.779 781.893C130.392 783.283 124.83 791.674 123.395 774.848C121.691 759.324 91.1019 764.932 99.3549 784.719C102.136 791.719 97.9189 788.937 93.7479 797.327C111.689 783.328 103.526 801.545 114.694 800.154C123.081 798.763 117.52 794.545 123.081 794.545C155.24 795.936 166.408 790.328 176.185 784.719C188.789 777.72 180.401 804.327 188.789 812.762C198.566 822.543 199.957 830.978 195.741 832.369C180.401 837.978 169.189 837.978 149.633 846.413C139.856 851.976 144.072 837.978 137.075 835.196C125.907 829.587 113.528 843.407 127.297 852.021C130.078 853.457 127.297 861.847 127.297 863.238C137.075 875.846 139.856 852.021 151.024 857.63C165.017 861.847 191.39 840.804 198.566 842.24C206.954 843.631 201.347 864.674 215.341 873.064C230.68 884.281 211.125 891.281 202.738 892.672C191.365 895.644 180.528 900.383 170.624 906.715C160.846 912.324 163.627 887.063 149.633 896.889C142.636 902.498 145.462 912.324 148.243 917.888C158.021 910.888 151.024 927.714 163.627 927.714C176.185 926.323 156.63 917.887 184.573 915.106C198.566 915.106 209.734 899.671 224.939 901.107C236.107 901.107 227.72 924.932 237.497 934.713C248.666 941.757 241.669 951.539 233.281 948.757C222.113 945.93 192.915 975.361 188.43 962.756C183.945 950.148 166.004 964.146 173.046 973.971C173.046 975.361 177.262 985.191 168.83 986.581C191.256 976.751 182.823 999.191 195.382 983.751C206.595 968.361 227.54 973.971 237.318 962.756C254.093 944.539 252.702 969.751 258.264 979.581C262.48 985.191 277.819 1004.8 269.477 1009.01C261.134 1013.23 248.486 1009.01 220.544 1027.19C216.372 1006.19 198.118 1017.4 196.772 1034.23C181.433 1032.84 173.046 1045.45 168.83 1056.66" fill="#F8D0A3"/>
<path d="M169.189 1056.39C156.63 1060.61 137.075 1074.61 132.859 1062.05C123.081 1035.4 165.017 1036.79 166.408 1010.18C160.846 1007.35 156.63 1003.18 153.849 1001.79C138.465 1017.18 128.688 1029.79 123.081 1021.4C110.523 1000.35 142.636 987.751 139.856 965.313C131.468 966.751 123.081 966.751 124.516 958.314C116.129 982.141 97.9189 958.314 100.745 954.096C113.304 937.27 109.132 924.707 111.913 909.228C109.811 908.874 107.86 907.906 106.307 906.446C97.9189 902.229 86.7959 928.88 83.8809 914.836L79.7099 902.229C78.2739 895.229 95.0489 865.796 92.2679 848.97C89.7859 849.796 87.1089 849.833 84.6039 849.078C82.0989 848.323 79.8879 846.813 78.2739 844.753C72.7129 853.188 60.3339 865.796 57.3289 855.97C48.9419 826.536 78.2739 805.538 72.7129 776.105H65.8059C65.8059 784.495 51.8569 813.928 43.3799 795.712C29.3859 767.669 62.9349 738.281 64.3259 708.847L60.1099 707.412C53.1579 727.064 36.3829 736.845 40.5539 699.021C41.9899 679.414 60.1099 665.415 65.7159 645.763C63.9789 646.062 62.1959 645.963 60.5029 645.473C58.8089 644.983 57.2489 644.116 55.9379 642.936C28.3099 659.807 47.6409 612.157 68.6759 584.159C61.6789 581.332 60.2889 574.333 61.6789 567.334C51.9469 574.333 46.3399 561.725 64.5049 550.508C78.4539 542.118 77.0629 528.074 92.4479 518.293C90.0739 517.5 87.9999 516.001 86.5009 513.996C85.0019 511.992 84.1509 509.577 84.0599 507.076C68.6759 515.511 58.8089 502.858 70.0219 491.641C75.5829 484.642 81.1899 491.641 89.5769 484.642L114.694 460.817C109.043 458.035 104.916 448.209 110.523 442.6C102.136 429.992 81.1899 455.208 81.1899 446.818C78.3639 404.777 126.041 432.774 139.856 417.385C132.859 413.167 134.294 406.168 139.856 400.559C128.688 400.559 120.3 394.951 102.135 401.95C95.1389 404.777 91.1019 378.125 113.528 380.907C131.468 382.298 149.858 385.08 165.242 376.689C163.851 371.081 165.242 365.472 175.019 359.864C184.797 354.255 186.187 348.647 197.445 362.69C204.442 372.517 193.274 382.298 201.661 382.298C205.877 382.298 208.658 382.298 208.658 376.689C218.436 382.298 222.607 392.079 235.21 393.515C246.378 393.515 230.994 403.296 225.432 418.731C222.607 429.948 198.88 408.949 190.493 407.514C182.106 406.078 197.445 394.906 190.493 392.079C183.496 390.733 173.719 406.123 179.325 414.513C182.106 420.122 186.277 414.513 191.883 417.34L215.655 429.948C223.997 434.165 203.051 441.165 204.442 457.99C205.877 473.38 189.103 449.555 169.503 448.164C175.109 424.339 152.773 424.339 151.562 449.555C151.562 466.38 157.168 457.99 165.556 457.99C175.333 460.772 175.333 467.771 196.279 473.38C201.885 476.162 189.327 490.205 189.327 500.031C187.892 514.03 175.333 505.595 168.336 501.422C158.559 495.814 141.784 500.031 148.781 488.814C158.559 469.162 136.223 466.38 132.007 485.988C130.616 494.423 116.667 487.379 109.581 494.423C113.752 509.813 127.521 487.379 132.007 501.422C139.003 518.248 137.613 492.987 147.391 505.595C159.949 519.639 180.94 507.031 178.159 525.247C178.159 533.638 173.943 537.855 172.552 546.246C172.552 557.463 151.562 551.854 146 546.246C140.439 540.637 115.232 550.463 125.055 535.073C134.877 519.684 110.523 522.466 109.043 537.945C108.939 539.398 108.314 540.765 107.285 541.795C106.255 542.825 104.889 543.449 103.436 543.553C103.436 556.161 107.652 543.553 109.043 556.161C110.765 554.257 112.974 552.858 115.432 552.115C117.889 551.372 120.503 551.313 122.991 551.944C114.604 563.161 159.321 557.552 164.928 564.552C169.099 567.378 160.756 577.16 164.928 589.812C169.099 599.594 164.928 606.593 160.756 606.593C145.372 605.202 128.598 603.811 113.214 603.811C103.436 603.811 116.039 578.595 97.8299 579.986C88.0969 579.986 86.7069 593.985 89.4869 601.029C95.0489 616.419 90.8779 620.637 110.433 608.029L111.823 612.202C113.528 617.81 158.021 610.766 158.021 623.194C156.63 658.236 167.798 658.236 159.411 659.627C142.636 662.454 123.081 654.063 107.742 662.454C107.742 651.237 110.523 644.237 96.5289 644.237C86.7959 642.802 88.1869 656.845 88.1869 662.454C96.5289 661.063 90.9669 675.062 95.1389 676.453C102.136 677.844 99.3549 670.844 107.742 669.453C113.304 669.453 107.742 682.061 159.411 669.453C167.798 666.671 156.63 691.887 169.189 714.321C173.405 722.756 153.849 714.321 127.297 721.321C107.742 725.538 117.52 714.321 109.357 703.373C100.969 694.938 86.9309 720.199 91.4159 725.807C103.974 721.59 94.1969 758.068 113.842 730.025C116.667 725.807 131.782 737.024 152.997 730.025C178.159 723.026 169.727 738.46 170.938 748.241C173.719 765.067 182.106 762.24 176.499 773.457C176.499 776.284 151.338 777.675 138.779 781.893C130.392 783.283 124.83 791.674 123.395 774.848C121.691 759.324 91.1019 764.932 99.3549 784.719C102.136 791.719 97.9189 788.937 93.7479 797.327C111.689 783.328 103.526 801.545 114.694 800.154C123.081 798.763 117.52 794.545 123.081 794.545C155.24 795.936 166.408 790.328 176.185 784.719C188.789 777.72 180.401 804.327 188.789 812.762C198.566 822.543 199.957 830.978 195.741 832.369C180.401 837.978 169.189 837.978 149.633 846.413C139.856 851.976 144.072 837.978 137.075 835.196C125.907 829.587 113.528 843.407 127.297 852.021C130.078 853.457 127.297 861.847 127.297 863.238C137.075 875.846 139.856 852.021 151.024 857.63C165.017 861.847 191.39 840.804 198.566 842.24C206.954 843.631 201.347 864.674 215.341 873.064C230.68 884.281 211.125 891.281 202.738 892.672C191.365 895.644 180.528 900.383 170.624 906.715C160.846 912.324 163.627 887.063 149.633 896.889C142.636 902.498 145.462 912.324 148.243 917.888C158.021 910.888 151.024 927.714 163.627 927.714C176.185 926.323 156.63 917.887 184.573 915.106C198.566 915.106 209.734 899.671 224.939 901.107C236.107 901.107 227.72 924.932 237.497 934.713C248.666 941.757 241.669 951.539 233.281 948.757C222.113 945.93 192.915 975.361 188.43 962.756C183.945 950.148 166.004 964.146 173.046 973.971C173.046 975.361 177.262 985.191 168.83 986.581C191.256 976.751 182.823 999.191 195.382 983.751C206.595 968.361 227.54 973.971 237.318 962.756C254.093 944.539 252.702 969.751 258.264 979.581C262.48 985.191 277.819 1004.8 269.477 1009.01C261.134 1013.23 248.486 1009.01 220.544 1027.19C216.372 1006.19 198.118 1017.4 196.772 1034.23C181.433 1032.84 173.046 1045.45 168.83 1056.66" stroke="#1D1D1B" stroke-width="5.17"/>
<path d="M165.022 375.34C167.803 379.513 170.629 386.557 180.406 386.557" stroke="#1D1D1B" stroke-width="5.17" stroke-linecap="round" stroke-linejoin="round"/>
<path d="M214.575 389.859C211.749 394.724 206.91 402.419 205.475 392.606Z" stroke="#1D1D1B" stroke-width="5.17" stroke-linecap="round" stroke-linejoin="round"/>
<path d="M177.625 407.556C173.409 400.556 163.631 408.947 163.631 400.556C162.241 387.948 145.691 393.557 139.86 400.556" stroke="#1D1D1B" stroke-width="5.17"/>
<path d="M177.625 407.556C173.409 400.556 163.631 408.947 163.631 400.556C162.241 387.948 145.691 393.557 139.86 400.556" stroke="#1D1D1B" stroke-width="5.17" stroke-linecap="round" stroke-linejoin="round"/>
<path d="M139.863 417.383C141.464 419.113 143.363 420.542 145.469 421.601L139.863 417.383Z" stroke="#1D1D1B" stroke-width="5.17"/>
<path d="M139.863 417.383C141.464 419.113 143.363 420.542 145.469 421.601" stroke="#1D1D1B" stroke-width="5.17" stroke-linecap="round" stroke-linejoin="round"/>
<path d="M191.57 427.165C188.789 431.383 177.621 434.209 184.573 424.383L191.57 427.165Z" stroke="#1D1D1B" stroke-width="5.17"/>
<path d="M191.57 427.165C188.789 431.383 177.621 434.209 184.573 424.383" stroke="#1D1D1B" stroke-width="5.17" stroke-linecap="round" stroke-linejoin="round"/>
<path d="M151.031 449.598C128.605 449.598 146.86 446.816 135.692 436.99C128.695 429.991 114.701 436.99 110.53 442.599" stroke="#1D1D1B" stroke-width="5.17"/>
<path d="M151.031 449.598C128.605 449.598 146.86 446.816 135.692 436.99C128.695 429.991 114.701 436.99 110.53 442.599" stroke="#1D1D1B" stroke-width="5.17" stroke-linecap="round" stroke-linejoin="round"/>
<path d="M114.694 460.817C116.286 461.577 118.068 461.851 119.815 461.604C121.562 461.356 123.197 460.599 124.516 459.426" stroke="#1D1D1B" stroke-width="5.17" stroke-linecap="round" stroke-linejoin="round"/>
<path d="M158.019 467.816C153.848 477.642 162.235 480.424 166.406 470.642L158.019 467.816Z" stroke="#1D1D1B" stroke-width="5.17"/>
<path d="M158.019 467.816C153.848 477.642 162.235 480.424 166.406 470.642" stroke="#1D1D1B" stroke-width="5.17" stroke-linecap="round" stroke-linejoin="round"/>
<path d="M109.047 494.465C106.222 486.03 82.4949 480.422 83.8859 507.073" stroke="#1D1D1B" stroke-width="5.17"/>
<path d="M109.047 494.465C106.221 486.03 83.8849 480.422 83.8849 507.073" stroke="#1D1D1B" stroke-width="5.17" stroke-linecap="round" stroke-linejoin="round"/>
<path d="M92.3626 518.291C93.9536 519.035 95.7286 519.296 97.4666 519.041C99.2046 518.786 100.83 518.026 102.141 516.855L92.3626 518.291Z" fill="#1D1D1B"/>
<path d="M141.253 511.246C132.866 521.072 141.253 528.072 148.25 516.855L141.253 511.246Z" stroke="#1D1D1B" stroke-width="5.17"/>
<path d="M141.253 511.246C132.866 521.072 141.253 528.072 148.25 516.855" stroke="#1D1D1B" stroke-width="5.17" stroke-linecap="round" stroke-linejoin="round"/>
<path d="M103.531 543.508C88.1912 544.899 100.75 554.725 86.8012 554.725C72.8072 553.334 64.3752 560.334 61.5942 567.333" stroke="#1D1D1B" stroke-width="5.17" stroke-linecap="round" stroke-linejoin="round"/>
<path d="M68.5883 584.113L74.1953 586.939" stroke="#1D1D1B" stroke-width="5.17"/>
<path d="M68.5883 584.113L74.1953 586.939" stroke="#1D1D1B" stroke-width="5.17" stroke-linecap="round" stroke-linejoin="round"/>
<path d="M121.691 558.898C118.911 565.942 120.3 577.114 128.688 568.724L121.691 558.898Z" stroke="#1D1D1B" stroke-width="5.17"/>
<path d="M121.691 558.898C118.911 565.942 120.3 577.114 128.688 568.724" stroke="#1D1D1B" stroke-width="5.17" stroke-linecap="round" stroke-linejoin="round"/>
<path d="M89.5781 600.984C82.5811 607.983 72.8041 607.983 68.5871 617.764" stroke="#1D1D1B" stroke-width="5.17" stroke-linecap="round" stroke-linejoin="round"/>
<path d="M81.1875 613.59C74.1905 626.198 67.1935 607.982 56.0255 624.762C51.8545 633.197 51.8545 638.806 56.0255 642.979" stroke="#1D1D1B" stroke-width="5.17"/>
<path d="M81.1875 613.59C74.1905 626.198 67.1935 607.982 56.0255 624.762C51.8545 633.197 51.8545 638.806 56.0255 642.979" stroke="#1D1D1B" stroke-width="5.17" stroke-linecap="round" stroke-linejoin="round"/>
<path d="M65.8082 645.628C68.0842 646.251 70.4932 646.183 72.7292 645.432C74.9662 644.681 76.9282 643.281 78.3672 641.41" stroke="#1D1D1B" stroke-width="5.17" stroke-linecap="round" stroke-linejoin="round"/>
<path d="M109.051 620.59C106.225 631.807 111.832 635.98 118.828 623.372L109.051 620.59Z" stroke="#1D1D1B" stroke-width="5.17"/>
<path d="M109.051 620.59C106.225 631.807 111.832 635.98 118.828 623.372" stroke="#1D1D1B" stroke-width="5.17" stroke-linecap="round" stroke-linejoin="round"/>
<path d="M118.912 683.63C120.302 693.456 100.971 690.629 110.525 680.848L118.912 683.63Z" stroke="#1D1D1B" stroke-width="5.17"/>
<path d="M118.912 683.63C120.302 693.456 100.971 690.629 110.525 680.848" stroke="#1D1D1B" stroke-width="5.17" stroke-linecap="round" stroke-linejoin="round"/>
<path d="M88.1875 662.629C79.8005 662.629 81.1905 672.455 75.5845 676.628L88.1875 662.629Z" stroke="#1D1D1B" stroke-width="5.17"/>
<path d="M88.1875 662.629C79.8005 662.629 81.1905 672.455 75.5845 676.628" stroke="#1D1D1B" stroke-width="5.17" stroke-linecap="round" stroke-linejoin="round"/>
<path d="M81.1953 676.629C42.0843 678.02 42.0843 701.845 60.2493 707.454" stroke="#1D1D1B" stroke-width="5.17"/>
<path d="M81.1953 676.629C42.0843 678.02 42.0843 701.845 60.2493 707.454" stroke="#1D1D1B" stroke-width="5.17" stroke-linecap="round" stroke-linejoin="round"/>
<path d="M64.4192 708.892C67.4822 708.934 70.4812 708.007 72.9862 706.242C75.4912 704.477 77.3752 701.966 78.3672 699.066" stroke="#1D1D1B" stroke-width="5.17" stroke-linecap="round" stroke-linejoin="round"/>
<path d="M130.078 741.105C125.907 750.931 114.694 752.322 116.13 736.887L130.078 741.105Z" stroke="#1D1D1B" stroke-width="5.17"/>
<path d="M130.078 741.105C125.907 750.931 114.694 752.322 116.13 736.887" stroke="#1D1D1B" stroke-width="5.17" stroke-linecap="round" stroke-linejoin="round"/>
<path d="M91.1094 725.672C85.5034 727.063 78.5064 746.715 70.1634 746.715C57.5604 748.106 46.3924 780.321 65.9474 776.149" stroke="#1D1D1B" stroke-width="5.17"/>
<path d="M91.1094 725.672C85.5034 727.063 78.5064 746.715 70.1634 746.715C57.5604 748.106 46.3924 780.321 65.9474 776.149" stroke="#1D1D1B" stroke-width="5.17" stroke-linecap="round" stroke-linejoin="round"/>
<path d="M72.8076 776.149C81.1956 773.323 90.7486 769.15 89.5826 763.496" stroke="#1D1D1B" stroke-width="5.17" stroke-linecap="round" stroke-linejoin="round"/>
<path d="M78.365 844.795C68.588 836.404 81.191 812.579 90.969 808.362C96.53 805.58 88.188 802.753 93.75 797.145" stroke="#1D1D1B" stroke-width="5.17"/>
<path d="M78.365 844.795C68.588 836.404 81.191 812.579 90.969 808.362C96.53 805.58 88.188 802.753 93.75 797.145" stroke="#1D1D1B" stroke-width="5.17" stroke-linecap="round" stroke-linejoin="round"/>
<path d="M139.857 801.363C144.028 811.189 124.518 816.797 128.689 804.144L139.857 801.363Z" stroke="#1D1D1B" stroke-width="5.17"/>
<path d="M139.857 801.363C144.028 811.189 124.518 816.797 128.689 804.144" stroke="#1D1D1B" stroke-width="5.17" stroke-linecap="round" stroke-linejoin="round"/>
<path d="M110.528 832.188C111.919 847.622 104.922 849.013 92.5883 849.013L110.528 832.188Z" stroke="#1D1D1B" stroke-width="5.17"/>
<path d="M110.528 832.188C111.919 847.622 104.922 849.013 92.5883 849.013" stroke="#1D1D1B" stroke-width="5.17" stroke-linecap="round" stroke-linejoin="round"/>
<path d="M127.297 863.01C120.3 853.229 116.084 872.837 103.526 877.054C89.5769 879.836 99.3539 899.488 106.306 906.488" stroke="#1D1D1B" stroke-width="5.17"/>
<path d="M127.297 863.01C120.3 853.229 116.084 872.837 103.526 877.054C89.5769 879.836 99.3539 899.488 106.306 906.488" stroke="#1D1D1B" stroke-width="5.17" stroke-linecap="round" stroke-linejoin="round"/>
<path d="M111.912 909.272C116.128 907.881 118.908 902.273 123.125 898.055L111.912 909.272Z" stroke="#1D1D1B" stroke-width="5.17"/>
<path d="M111.912 909.272C116.128 907.881 118.908 902.273 123.125 898.055" stroke="#1D1D1B" stroke-width="5.17" stroke-linecap="round" stroke-linejoin="round"/>
<path d="M160.844 868.621C155.238 882.665 142.635 875.621 146.851 864.449L160.844 868.621Z" stroke="#1D1D1B" stroke-width="5.17"/>
<path d="M160.844 868.621C155.238 882.665 142.635 875.621 146.851 864.449" stroke="#1D1D1B" stroke-width="5.17" stroke-linecap="round" stroke-linejoin="round"/>
<path d="M148.25 917.66C145.469 919.096 144.079 920.487 139.863 930.313L148.25 917.66Z" stroke="#1D1D1B" stroke-width="5.17"/>
<path d="M148.25 917.66C145.469 919.096 144.079 920.487 139.863 930.313" stroke="#1D1D1B" stroke-width="5.17" stroke-linecap="round" stroke-linejoin="round"/>
<path d="M145.469 930.314C118.917 926.097 124.523 961.094 124.523 958.312" stroke="#1D1D1B" stroke-width="5.17"/>
<path d="M145.469 930.314C118.917 926.097 124.523 961.094 124.523 958.312" stroke="#1D1D1B" stroke-width="5.17" stroke-linecap="round" stroke-linejoin="round"/>
<path d="M139.863 965.312C145.469 963.921 151.031 959.748 151.031 955.531L139.863 965.312Z" stroke="#1D1D1B" stroke-width="5.17"/>
<path d="M139.863 965.312C145.469 963.921 151.031 959.748 151.031 955.531" stroke="#1D1D1B" stroke-width="5.17" stroke-linecap="round" stroke-linejoin="round"/>
<path d="M181.796 928.879C184.577 935.923 167.802 941.532 172.018 931.706L181.796 928.879Z" stroke="#1D1D1B" stroke-width="5.17"/>
<path d="M181.796 928.879C184.577 935.923 167.802 941.532 172.018 931.706" stroke="#1D1D1B" stroke-width="5.17" stroke-linecap="round" stroke-linejoin="round"/>
<path d="M153.894 1001.79C149.678 997.569 153.894 993.359 169.234 986.359" stroke="#1D1D1B" stroke-width="5.17"/>
<path d="M153.894 1001.79C149.678 997.569 153.894 993.359 169.234 986.359" stroke="#1D1D1B" stroke-width="5.17" stroke-linecap="round" stroke-linejoin="round"/>
<path d="M191.573 991.957C185.966 998.957 206.957 1000.35 202.741 991.957H191.573Z" stroke="#1D1D1B" stroke-width="5.17"/>
<path d="M191.573 991.957C185.966 998.957 206.957 1000.35 202.741 991.957" stroke="#1D1D1B" stroke-width="5.17" stroke-linecap="round" stroke-linejoin="round"/>
<path d="M127.298 1346.51C155.241 1335.29 153.85 1357.73 163.628 1357.73L181.883 1349.6L190.046 1353.14L198.416 1360.47L208.662 1351.25C211.443 1362.47 215.476 1347.81 230.816 1360.47C246.2 1374.46 255.977 1391.29 265.755 1363.25C272.752 1339.42 295.133 1346.42 292.307 1328.2C292.307 1321.21 255.977 1311.38 240.593 1295.99C235.032 1290.38 228.035 1301.55 221.038 1301.55C211.26 1300.16 223.819 1286.16 211.26 1287.55C211.26 1280.56 230.816 1272.12 235.032 1272.12C254.587 1269.34 230.816 1288.99 239.203 1288.99C261.629 1291.77 279.569 1302.99 301.995 1302.99C311.773 1302.99 303.385 1280.55 313.163 1262.34C328.547 1231.51 285.221 1238.51 269.881 1234.3C239.113 1225.91 251.716 1238.51 239.113 1238.51C223.729 1237.12 234.942 1227.3 223.729 1224.51C225.164 1214.69 229.336 1200.69 239.113 1200.69C257.278 1200.69 243.329 1223.12 248.891 1223.12C274.277 1220.34 320.384 1237.17 316.168 1218.95C310.607 1192.3 325.99 1169.91 314.777 1162.87C307.826 1158.69 275.667 1165.69 256.112 1160.08C246.334 1157.26 247.725 1167.08 242.118 1169.91C237.947 1162.87 235.166 1157.26 225.389 1155.87C229.56 1144.65 223.953 1140.43 239.337 1136.26C257.502 1130.65 244.944 1155.87 253.331 1151.69C281.274 1139.04 320.384 1150.26 311.997 1134.87C300.829 1113.83 311.997 1083 299.438 1088.61C285.445 1094.22 250.505 1088.61 239.337 1099.83C223.864 1115.26 228.08 1098.44 216.912 1095.61C215.521 1073.17 235.077 1069 236.467 1080.22C237.723 1090 271.272 1078.78 276.833 1078.78C279.659 1077.39 304.776 1071.78 295.043 1066.18C284.996 1059.18 288.046 1003.09 267.056 1025.53C261.36 1032.57 225.03 1033.96 222.204 1038.18C212.427 1060.57 204.039 1033.96 197.042 1033.96C181.703 1032.61 173.316 1045.22 169.1 1056.39C167.71 1060.61 171.926 1067.61 174.706 1067.61C180.313 1066.22 181.703 1071.83 181.703 1074.66C170.49 1083.05 174.662 1087.26 159.277 1083.05C142.503 1080.26 128.554 1104.09 139.722 1118.09C159.277 1144.69 164.884 1102.65 188.655 1115.31C187.863 1117.12 187.575 1119.12 187.819 1121.08C188.064 1123.05 188.833 1124.91 190.046 1126.48C187.22 1134.91 173.361 1140.48 152.325 1139.09C131.29 1137.7 141.113 1179.74 153.716 1178.35C174.572 1175.56 171.881 1157.3 196.998 1167.13C195.106 1168.88 193.721 1171.11 192.987 1173.58C192.253 1176.05 192.197 1178.67 192.826 1181.17C181.658 1182.56 169.055 1188.17 157.887 1186.78C142.503 1185.35 132.725 1220.39 145.329 1226C163.493 1234.39 181.658 1212 196.998 1228.78C191.436 1232.99 187.22 1239.99 190.046 1247.04C181.883 1247.04 180.492 1248.43 172.105 1245.65C135.775 1235.82 132.95 1277.86 139.946 1286.25C151.114 1300.25 169.279 1277.86 181.883 1294.64C180.112 1296.17 178.789 1298.15 178.054 1300.37C177.319 1302.59 177.201 1304.97 177.711 1307.25C163.628 1312.86 155.286 1300.25 132.86 1308.69C114.695 1315.69 113.305 1350.73 127.298 1346.51Z" fill="#B7C8BD" stroke="#1D1D1B" stroke-width="5.17" stroke-linecap="round" stroke-linejoin="round"/>
<path d="M205.563 1066.22C188.788 1059.22 185.963 1090.05 208.344 1083.05L205.563 1066.22Z" stroke="#1D1D1B" stroke-width="5.17"/>
<path d="M205.563 1066.22C188.788 1059.22 185.963 1090.05 208.344 1083.05" stroke="#1D1D1B" stroke-width="5.17" stroke-linecap="round" stroke-linejoin="round"/>
<path d="M181.798 1074.66C183.188 1077.44 183.188 1077.44 185.969 1077.44L181.798 1074.66Z" stroke="#1D1D1B" stroke-width="5.17"/>
<path d="M181.798 1074.66C183.188 1077.44 183.188 1077.44 185.969 1077.44" stroke="#1D1D1B" stroke-width="5.17" stroke-linecap="round" stroke-linejoin="round"/>
<path d="M216.688 1095.65C206.91 1092.87 190.135 1102.65 188.745 1115.31" stroke="#1D1D1B" stroke-width="5.17"/>
<path d="M216.688 1095.65C206.91 1092.87 190.135 1102.65 188.745 1115.31" stroke="#1D1D1B" stroke-width="5.17" stroke-linecap="round" stroke-linejoin="round"/>
<path d="M190.181 1126.48C192.198 1128.69 194.543 1130.58 197.133 1132.09L190.181 1126.48Z" stroke="#1D1D1B" stroke-width="5.17"/>
<path d="M190.181 1126.48C192.198 1128.69 194.543 1130.58 197.133 1132.09" stroke="#1D1D1B" stroke-width="5.17" stroke-linecap="round" stroke-linejoin="round"/>
<path d="M216.688 1118.09C201.304 1111.09 197.088 1141.91 215.298 1136.3L216.688 1118.09Z" stroke="#1D1D1B" stroke-width="5.17"/>
<path d="M216.688 1118.09C201.304 1111.09 197.088 1141.91 215.298 1136.3" stroke="#1D1D1B" stroke-width="5.17" stroke-linecap="round" stroke-linejoin="round"/>
<path d="M225.125 1155.91C219.875 1154.87 214.437 1155.38 209.47 1157.37C204.503 1159.36 200.219 1162.75 197.137 1167.13" stroke="#1D1D1B" stroke-width="5.17"/>
<path d="M225.125 1155.91C219.875 1154.87 214.437 1155.38 209.47 1157.37C204.503 1159.36 200.219 1162.75 197.137 1167.13" stroke="#1D1D1B" stroke-width="5.17" stroke-linecap="round" stroke-linejoin="round"/>
<path d="M192.961 1181.17C192.911 1183.01 193.258 1184.83 193.978 1186.52C194.698 1188.21 195.774 1189.72 197.133 1190.95L192.961 1181.17Z" stroke="#1D1D1B" stroke-width="5.17"/>
<path d="M192.961 1181.17C192.911 1183.01 193.258 1184.83 193.978 1186.52C194.698 1188.21 195.774 1189.72 197.133 1190.95" stroke="#1D1D1B" stroke-width="5.17" stroke-linecap="round" stroke-linejoin="round"/>
<path d="M222.297 1179.56C206.958 1162.73 195.745 1201.99 218.126 1199.16L222.297 1179.56Z" stroke="#1D1D1B" stroke-width="5.17"/>
<path d="M222.297 1179.56C206.958 1162.73 195.745 1201.99 218.126 1199.16" stroke="#1D1D1B" stroke-width="5.17" stroke-linecap="round" stroke-linejoin="round"/>
<path d="M223.688 1224.43C219.245 1222.99 214.525 1222.62 209.913 1223.34C205.301 1224.07 200.923 1225.87 197.134 1228.6" stroke="#1D1D1B" stroke-width="5.17" stroke-linecap="round" stroke-linejoin="round"/>
<path d="M190.18 1246.99L192.961 1252.6" stroke="#1D1D1B" stroke-width="5.17"/>
<path d="M190.18 1246.99L192.961 1252.6" stroke="#1D1D1B" stroke-width="5.17" stroke-linecap="round" stroke-linejoin="round"/>
<path d="M219.516 1239.99C201.576 1239.99 202.742 1273.65 223.688 1261.04L219.516 1239.99Z" stroke="#1D1D1B" stroke-width="5.17"/>
<path d="M219.516 1239.99C201.576 1239.99 202.742 1273.65 223.688 1261.04" stroke="#1D1D1B" stroke-width="5.17" stroke-linecap="round" stroke-linejoin="round"/>
<path d="M211.125 1287.64C201.348 1287.64 188.7 1289.03 181.793 1294.64" stroke="#1D1D1B" stroke-width="5.17" stroke-linecap="round" stroke-linejoin="round"/>
<path d="M177.626 1307.25L179.016 1315.64" stroke="#1D1D1B" stroke-width="5.17"/>
<path d="M177.626 1307.25L179.016 1315.64" stroke="#1D1D1B" stroke-width="5.17" stroke-linecap="round" stroke-linejoin="round"/>
<path d="M212.516 1311.47C198.567 1301.64 184.574 1335.29 205.564 1332.51L212.516 1311.47Z" stroke="#1D1D1B" stroke-width="5.17"/>
<path d="M212.516 1311.47C198.567 1301.64 184.574 1335.29 205.564 1332.51" stroke="#1D1D1B" stroke-width="5.17" stroke-linecap="round" stroke-linejoin="round"/>
<path d="M232.118 1412.38C243.331 1409.6 239.114 1401.16 239.114 1401.16L208.615 1350.73C206.212 1350.57 203.841 1351.36 202.012 1352.92C200.184 1354.49 199.044 1356.72 198.838 1359.12C194.622 1356.34 191.841 1353.51 187.625 1350.73C168.07 1340.9 153.897 1378.73 135.956 1366.12C113.575 1349.34 116.401 1381.55 103.797 1385.77C89.8485 1391.38 66.2925 1405.99 69.0735 1425.59C71.8545 1442.42 51.5185 1426.2 50.1275 1462.64C48.6925 1501.9 36.7435 1474.03 49.3025 1513.29C57.6895 1539.89 42.3505 1551.11 68.8575 1556.72L85.6315 1558.15C91.2385 1549.72 85.6315 1530.11 91.2385 1516.07C99.4015 1489.46 84.0175 1490.85 109.18 1475.46C135.732 1458.64 128.735 1474.03 155.287 1461.42C179.238 1450.2 170.671 1467.03 197.178 1455.81C226.556 1443.2 200.004 1419.38 232.118 1412.38Z" fill="#95A5DC" stroke="#1D1D1B" stroke-width="5.17"/>
<path d="M212.52 1420.77C222.298 1403.99 204.133 1392.77 188.794 1395.55C160.852 1399.77 188.794 1420.77 165.023 1422.2C152.464 1420.77 163.632 1441.81 130.083 1429.2C104.922 1420.77 93.7545 1458.64 93.7545 1476.85" stroke="#1D1D1B" stroke-width="5.17" stroke-linecap="round" stroke-linejoin="round"/>
<path d="M149.938 1367.77L152.133 1378C153.99 1386.66 159.15 1394.25 166.517 1399.16L173.542 1403.84" stroke="#1D1D1B" stroke-width="5" stroke-linecap="round" stroke-dasharray="10 10"/>
<path d="M108.117 1382.94L110.364 1393.41C112.19 1401.93 117.215 1409.42 124.402 1414.34L147.908 1430.43" stroke="#1D1D1B" stroke-width="5" stroke-linecap="round" stroke-dasharray="10 10"/>
<path d="M69.2812 1431.77L81.4084 1439C82.9663 1439.93 84.5961 1440.73 86.282 1441.4L101.607 1447.47" stroke="#1D1D1B" stroke-width="5" stroke-linecap="round" stroke-dasharray="10 10"/>
<path d="M47.1406 1486.9L57.7189 1492.8C63.7713 1496.18 70.7114 1497.63 77.6095 1496.95L92.3654 1495.5" stroke="#1D1D1B" stroke-width="5" stroke-linecap="round" stroke-dasharray="10 10"/>
<path d="M68.6781 1556.72C70.1141 1558.15 84.0621 1560.94 85.4531 1558.15L68.6781 1556.72Z" stroke="#1D1D1B" stroke-width="5.17"/>
<path d="M68.6781 1556.72C70.1141 1558.15 84.0621 1560.94 85.4531 1558.15" stroke="#1D1D1B" stroke-width="5.17" stroke-linecap="round" stroke-linejoin="round"/>
<path d="M70.0279 1504.9C71.2099 1502.68 71.7059 1500.16 71.4499 1497.65C71.1939 1495.15 70.1999 1492.79 68.5919 1490.85" stroke="#1D1D1B" stroke-width="5.17" stroke-linecap="round" stroke-linejoin="round"/>
<path d="M80.4193 1449.85C87.3713 1449.85 92.9773 1430.2 83.1993 1434.42" stroke="#1D1D1B" stroke-width="5.17" stroke-linecap="round" stroke-linejoin="round"/>
<path d="M118.534 1394.1C124.936 1388.75 120.468 1402.51 120.468 1402.51C120.468 1402.51 118.116 1409.92 114.256 1412.28C110.623 1414.49 110.506 1409.75 112.31 1404.36" stroke="#1D1D1B" stroke-width="5.17"/>
<path d="M153.897 1395.55C155.288 1413.77 163.675 1380.16 156.678 1381.55" stroke="#1D1D1B" stroke-width="5.17" stroke-linecap="round" stroke-linejoin="round"/>
<path d="M96.801 1583.32C99.626 1576.33 91.239 1558.15 85.632 1558.15L68.858 1556.72C73.074 1574.93 67.692 1579.15 85.632 1583.32C84.242 1590.37 92.629 1598.76 98.236 1600.15C98.236 1607.19 103.797 1607.19 108.013 1609.98C126.178 1633.8 124.788 1607.19 110.794 1604.37C110.757 1602.58 110.209 1600.84 109.216 1599.35C108.222 1597.87 106.825 1596.7 105.188 1595.98C105.225 1593.27 104.444 1590.61 102.947 1588.36C101.451 1586.1 99.309 1584.34 96.801 1583.32Z" fill="white" stroke="#1D1D1B" stroke-width="5.17" stroke-linecap="round" stroke-linejoin="round"/>
<path d="M110.275 1602.98C111.665 1607.2 110.275 1610.03 107.494 1608.59" stroke="#1D1D1B" stroke-width="5.17" stroke-linecap="round" stroke-linejoin="round"/>
<path d="M97.9676 1600.2C101.841 1601.59 103.131 1598.76 104.422 1595.98" stroke="#1D1D1B" stroke-width="5.17" stroke-linecap="round" stroke-linejoin="round"/>
<path d="M96.2812 1583.37C93.5003 1588.98 87.9393 1584.77 85.1133 1583.37" stroke="#1D1D1B" stroke-width="5.17" stroke-linecap="round" stroke-linejoin="round"/>
<line x1="74.6308" y1="1098.63" x2="118.932" y2="1104.74" stroke="black"/>
<line x1="74.6573" y1="1144" x2="129.058" y2="1154.5" stroke="black"/>
<line x1="74.679" y1="1190.46" x2="129.079" y2="1203.5" stroke="black"/>
<line x1="74.7831" y1="1238.44" x2="125.588" y2="1263.42" stroke="black"/>
<line x1="74.8921" y1="1286.09" x2="108.171" y2="1315.26" stroke="black"/>
<path d="M24.8563 1081.49H28.2163V1102.91H40.2913V1105.99H24.8563V1081.49ZM45.6946 1102.91H51.1196V1086.18C50.5596 1086.67 49.9296 1087.01 49.2296 1087.19C48.553 1087.36 47.6196 1087.44 46.4296 1087.44V1084.64H46.9896C48.2496 1084.64 49.218 1084.39 49.8946 1083.9C50.5713 1083.39 50.9796 1082.58 51.1196 1081.49H54.4796V1102.91H59.9046V1105.99H45.6946V1102.91Z" fill="black"/>
<path d="M24.8563 1130.49H28.2163V1151.91H40.2913V1154.99H24.8563V1130.49ZM44.3646 1152.12L54.4796 1143.02C55.5063 1142.08 56.2763 1141.21 56.7896 1140.39C57.303 1139.55 57.5596 1138.56 57.5596 1137.42C57.5596 1136.11 57.1163 1135.08 56.2296 1134.34C55.3663 1133.59 54.2346 1133.22 52.8346 1133.22C51.4113 1133.22 50.233 1133.65 49.2996 1134.51C48.3896 1135.38 47.8996 1136.57 47.8296 1138.08H44.6096C44.6796 1136.57 45.0763 1135.2 45.7996 1133.99C46.5463 1132.77 47.5146 1131.83 48.7046 1131.15C49.918 1130.48 51.248 1130.14 52.6946 1130.14C54.258 1130.14 55.6463 1130.43 56.8596 1131.01C58.0963 1131.6 59.053 1132.42 59.7296 1133.5C60.4296 1134.57 60.7796 1135.82 60.7796 1137.24C60.7796 1138.76 60.4296 1140.12 59.7296 1141.34C59.053 1142.53 58.038 1143.72 56.6846 1144.91L48.7396 1151.91H61.2696V1154.99H44.3646V1152.12Z" fill="black"/>
<path d="M24.8563 1179.49H28.2163V1200.91H40.2913V1203.99H24.8563V1179.49ZM52.9746 1204.34C51.1546 1204.34 49.568 1203.94 48.2146 1203.15C46.8846 1202.35 45.8463 1201.3 45.0996 1200C44.353 1198.67 43.933 1197.21 43.8396 1195.62H46.9896C47.1063 1197.3 47.678 1198.67 48.7046 1199.72C49.7546 1200.74 51.1546 1201.26 52.9046 1201.26C54.5846 1201.26 55.903 1200.76 56.8596 1199.75C57.8396 1198.73 58.3296 1197.31 58.3296 1195.52C58.3296 1193.77 57.7463 1192.43 56.5796 1191.49C55.413 1190.54 53.978 1190.06 52.2746 1190.06H51.5046V1187.01L56.4046 1182.57H44.9246V1179.49H60.6047V1182.67L55.0396 1187.47C56.953 1187.93 58.5513 1188.83 59.8346 1190.16C61.118 1191.47 61.7596 1193.25 61.7596 1195.52C61.7596 1197.15 61.3746 1198.64 60.6047 1200C59.8346 1201.35 58.773 1202.41 57.4196 1203.18C56.0896 1203.95 54.608 1204.34 52.9746 1204.34Z" fill="black"/>
<path d="M24.8563 1228.49H28.2163V1249.91H40.2913V1252.99H24.8563V1228.49ZM55.3546 1247.6H43.9446V1244.52L55.5646 1228.49H58.7146V1244.52H61.6546V1247.6H58.7146V1252.99H55.3546V1247.6ZM55.3546 1244.52V1233.77L47.5146 1244.52H55.3546Z" fill="black"/>
<path d="M24.8563 1277.49H28.2163V1298.91H40.2913V1301.99H24.8563V1277.49ZM52.6596 1302.34C51.0496 1302.34 49.5913 1302 48.2846 1301.32C46.978 1300.65 45.928 1299.7 45.1346 1298.49C44.3646 1297.27 43.933 1295.89 43.8396 1294.32H47.1996C47.363 1295.7 47.9113 1296.87 48.8446 1297.82C49.778 1298.78 51.0496 1299.26 52.6596 1299.26C54.3863 1299.26 55.7513 1298.73 56.7546 1297.68C57.7813 1296.63 58.2946 1295.17 58.2946 1293.31C58.2946 1291.46 57.7813 1290.04 56.7546 1289.04C55.7513 1288.01 54.4796 1287.5 52.9396 1287.5C51.563 1287.5 50.408 1287.7 49.4746 1288.09C48.5646 1288.47 47.713 1288.93 46.9196 1289.49L44.5046 1288.34L46.0446 1277.49H59.8346V1280.57H48.5996L47.5846 1286.41C48.3313 1285.9 49.218 1285.48 50.2446 1285.15C51.2713 1284.83 52.3213 1284.66 53.3946 1284.66C55.938 1284.66 57.9563 1285.43 59.4496 1286.97C60.9663 1288.49 61.7247 1290.57 61.7247 1293.2C61.7247 1294.84 61.363 1296.35 60.6396 1297.75C59.9163 1299.13 58.8663 1300.24 57.4896 1301.08C56.113 1301.92 54.503 1302.34 52.6596 1302.34Z" fill="black"/>
<path d="M381.977 1176.69L398.5 1193.21M381.977 1193.21L398.5 1176.69" stroke="#ED6B5D" stroke-width="5" stroke-linecap="round"/>
<path d="M389.523 1157.84V1157.84C389.523 1133.02 356.574 1017.78 344.327 996.186L279.625 882.087C276.905 877.291 274.874 872.137 273.591 866.775L247.439 757.497C235.406 707.217 231.767 655.293 236.669 603.826V603.826C242.685 540.656 261.454 479.362 291.84 423.654L295.781 416.43C308.691 392.761 319.701 368.105 328.708 342.693L329.805 339.598C350.739 280.535 361.436 218.331 361.436 155.667V116.531" stroke="#ED6B5D" stroke-width="5" stroke-linecap="round"/>
<path d="M266.047 1598.49L253.09 1558.01C244.345 1530.68 244.815 1501.25 254.427 1474.22V1474.22C262.042 1452.8 275.101 1433.74 292.318 1418.9L324.542 1391.13C342.174 1375.93 356.817 1357.58 367.719 1337.01V1337.01C382.034 1310.01 389.519 1279.91 389.519 1249.35V1212.02" stroke="#ED6B5D" stroke-width="5" stroke-linecap="round" stroke-dasharray="10 10"/>
</g>
<defs>
<clipPath id="clip0_431_7682">
<rect width="469" height="1685" fill="white" transform="translate(0.5)"/>
</clipPath>
</defs>
</svg>
